<?xml version="1.0" encoding="UTF-8"?>
<svg width="24px" height="24px" viewBox="0 0 24 24" version="1.1" xmlns="http://www.w3.org/2000/svg" xmlns:xlink="http://www.w3.org/1999/xlink">
    <!-- Generator: Sketch 49 (51002) - http://www.bohemiancoding.com/sketch -->
    <title>icons/do/nogps</title>
    <desc>Created with Sketch.</desc>
    <defs></defs>
    <g id="icons/do/nogps" stroke="none" stroke-width="1" fill="none" fill-rule="evenodd">
        <g id="Group" transform="translate(2.000000, 0.000000)">
            <path d="M18.4776,22.2739 L18.4776,19.1009 C18.1776,19.1009 17.9156,18.9449 17.7646,18.7099 C17.7036,18.6139 17.5596,18.6139 17.4986,18.7099 C17.3476,18.9449 17.0836,19.1009 16.7846,19.1009 C16.4856,19.1009 16.2216,18.9449 16.0716,18.7099 C16.0096,18.6139 15.8666,18.6139 15.8046,18.7099 C15.6546,18.9449 15.3916,19.1009 15.0916,19.1009 C14.7916,19.1009 14.5286,18.9449 14.3776,18.7099 C14.3166,18.6139 14.1726,18.6139 14.1116,18.7099 C13.9606,18.9449 13.6986,19.1009 13.3986,19.1009 C13.0986,19.1009 12.8346,18.9449 12.6846,18.7099 C12.6236,18.6139 12.4796,18.6139 12.4186,18.7099 C12.2686,18.9449 12.0046,19.1009 11.7056,19.1009 C11.4056,19.1009 11.1426,18.9449 10.9926,18.7099 C10.9306,18.6139 10.7876,18.6139 10.7256,18.7099 C10.5756,18.9449 10.3116,19.1009 10.0116,19.1009 C9.7116,19.1009 9.4496,18.9449 9.2986,18.7099 C9.2376,18.6139 9.0936,18.6139 9.0326,18.7099 C8.8816,18.9449 8.6186,19.1009 8.3196,19.1009 C8.0196,19.1009 7.7556,18.9449 7.6056,18.7099 C7.5436,18.6139 7.4006,18.6139 7.3386,18.7099 C7.1886,18.9449 6.9256,19.1009 6.6256,19.1009 C6.3266,19.1009 6.0626,18.9449 5.9126,18.7099 C5.8506,18.6139 5.7066,18.6139 5.6456,18.7099 C5.4956,18.9449 5.2326,19.1009 4.9326,19.1009 C4.6326,19.1009 4.3696,18.9449 4.2186,18.7099 C4.1576,18.6139 4.0136,18.6139 3.9536,18.7099 C3.8026,18.9449 3.5396,19.1009 3.2396,19.1009 L3.2396,22.2739 L18.4776,22.2739 Z" id="Fill-1" fill="#FFFFFF"></path>
            <path d="M18.4786,19.3349 C18.1446,19.3349 17.8356,19.1839 17.6316,18.9269 C17.2236,19.4409 16.3456,19.4419 15.9376,18.9259 C15.5306,19.4419 14.6526,19.4409 14.2456,18.9269 C13.8366,19.4409 12.9596,19.4419 12.5516,18.9259 C12.1446,19.4419 11.2666,19.4409 10.8586,18.9269 C10.4496,19.4419 9.5736,19.4399 9.1656,18.9269 C8.7576,19.4409 7.8796,19.4419 7.4716,18.9259 C7.0656,19.4419 6.1866,19.4409 5.7796,18.9269 C5.3716,19.4409 4.4946,19.4419 4.0856,18.9259 C3.8826,19.1839 3.5726,19.3349 3.2396,19.3349 C3.1096,19.3349 3.0046,19.2299 3.0046,19.1009 C3.0046,18.9709 3.1096,18.8659 3.2396,18.8659 C3.4496,18.8659 3.6416,18.7609 3.7546,18.5839 C3.9006,18.3579 4.2716,18.3579 4.4166,18.5829 C4.6426,18.9389 5.2226,18.9379 5.4486,18.5839 C5.5946,18.3579 5.9656,18.3589 6.1096,18.5829 C6.3356,18.9389 6.9156,18.9379 7.1416,18.5839 C7.2876,18.3579 7.6586,18.3579 7.8026,18.5829 C8.0296,18.9389 8.6086,18.9379 8.8336,18.5839 C8.9076,18.4709 9.0306,18.4039 9.1656,18.4039 C9.3006,18.4039 9.4246,18.4709 9.4966,18.5839 C9.7236,18.9369 10.3006,18.9379 10.5286,18.5839 C10.5996,18.4709 10.7236,18.4039 10.8586,18.4039 C10.9936,18.4039 11.1166,18.4709 11.1886,18.5829 C11.4166,18.9389 11.9956,18.9379 12.2206,18.5839 C12.3666,18.3579 12.7376,18.3579 12.8826,18.5829 C13.1086,18.9389 13.6886,18.9379 13.9146,18.5839 C14.0606,18.3579 14.4316,18.3589 14.5756,18.5829 C14.8016,18.9389 15.3816,18.9379 15.6076,18.5839 C15.7526,18.3579 16.1246,18.3579 16.2686,18.5829 C16.4956,18.9389 17.0756,18.9379 17.2996,18.5839 C17.3736,18.4709 17.4966,18.4039 17.6316,18.4039 C17.7666,18.4039 17.8906,18.4709 17.9616,18.5839 C18.0756,18.7599 18.2676,18.8659 18.4786,18.8659 C18.6076,18.8659 18.7116,18.9709 18.7116,19.1009 C18.7116,19.2299 18.6076,19.3349 18.4786,19.3349" id="Fill-3" fill="#222222"></path>
            <path d="M10.9239,20.0366 C10.9239,20.0366 10.9229,20.0366 10.9229,20.0366 C10.9229,20.0366 10.9239,20.0366 10.9239,20.0366 Z M9.1009,20.0376 L9.1019,20.0376 L9.1009,20.0376 Z M17.5669,20.0376 L17.5679,20.0376 L17.5669,20.0376 Z M18.4789,20.5356 C18.1459,20.5356 17.8359,20.3846 17.6319,20.1276 C17.2239,20.6416 16.3459,20.6426 15.9379,20.1266 C15.5289,20.6416 14.6529,20.6416 14.2449,20.1276 C13.8369,20.6416 12.9599,20.6426 12.5519,20.1266 C12.1439,20.6416 11.2679,20.6426 10.8589,20.1266 C10.4479,20.6426 9.5739,20.6406 9.1659,20.1276 C8.7579,20.6416 7.8799,20.6426 7.4719,20.1266 C7.0639,20.6416 6.1879,20.6416 5.7789,20.1276 C5.3709,20.6416 4.4939,20.6426 4.0859,20.1266 C3.8819,20.3846 3.5719,20.5356 3.2389,20.5356 C3.1099,20.5356 3.0049,20.4306 3.0049,20.3016 C3.0049,20.1716 3.1099,20.0666 3.2389,20.0666 C3.4489,20.0666 3.6419,19.9606 3.7549,19.7846 C3.8999,19.5586 4.2719,19.5586 4.4169,19.7836 C4.6429,20.1386 5.2219,20.1376 5.4489,19.7846 C5.5939,19.5586 5.9659,19.5596 6.1099,19.7836 C6.3359,20.1386 6.9149,20.1376 7.1419,19.7846 C7.2859,19.5586 7.6579,19.5586 7.8029,19.7836 C8.0289,20.1386 8.6089,20.1376 8.8349,19.7846 C8.9069,19.6716 9.0299,19.6046 9.1659,19.6046 C9.3009,19.6046 9.4249,19.6716 9.4959,19.7846 C9.7229,20.1376 10.3009,20.1386 10.5279,19.7836 C10.5999,19.6716 10.7239,19.6046 10.8589,19.6046 C10.9929,19.6046 11.1159,19.6716 11.1889,19.7836 C11.4159,20.1386 11.9949,20.1376 12.2209,19.7846 C12.3659,19.5586 12.7369,19.5586 12.8829,19.7836 C13.1089,20.1386 13.6879,20.1376 13.9149,19.7846 C14.0599,19.5586 14.4319,19.5596 14.5749,19.7836 C14.8019,20.1386 15.3809,20.1376 15.6079,19.7846 C15.7519,19.5586 16.1239,19.5586 16.2689,19.7836 C16.4949,20.1386 17.0739,20.1376 17.3009,19.7846 C17.3729,19.6716 17.4959,19.6046 17.6319,19.6046 C17.7669,19.6046 17.8909,19.6716 17.9619,19.7846 C18.0749,19.9606 18.2689,20.0666 18.4789,20.0666 C18.6079,20.0666 18.7119,20.1716 18.7119,20.3016 C18.7119,20.4306 18.6079,20.5356 18.4789,20.5356 Z" id="Fill-5" fill="#222222"></path>
            <path d="M9.4913,2.7724 C8.8253,2.7724 8.2853,3.3124 8.2853,3.9784 C8.2853,4.6454 8.8253,5.1854 9.4913,5.1854 L14.3683,5.1854 C15.0353,5.1854 15.5753,4.6454 15.5753,3.9784 C15.5753,3.3124 15.0353,2.7724 14.3683,2.7724 L14.3423,2.7724 C14.3423,2.2894 13.9503,1.8974 13.4673,1.8974 C12.9843,1.8974 12.5933,2.2894 12.5933,2.7724 C12.5933,1.9314 11.9113,1.2494 11.0693,1.2494 C10.2283,1.2494 9.5473,1.9314 9.5473,2.7724 L9.4913,2.7724 Z" id="Fill-7" fill="#FFFFFF"></path>
            <path d="M9.4913,3.0068 C8.9553,3.0068 8.5193,3.4428 8.5193,3.9788 C8.5193,4.5148 8.9553,4.9508 9.4913,4.9508 L14.3693,4.9508 C14.9043,4.9508 15.3413,4.5148 15.3413,3.9788 C15.3413,3.4428 14.9043,3.0068 14.3693,3.0068 C14.2393,3.0068 14.1073,2.9018 14.1073,2.7728 C14.1073,2.4198 13.8203,2.1318 13.4673,2.1318 C13.1143,2.1318 12.8263,2.4198 12.8263,2.7728 C12.8263,2.9018 12.7213,3.0068 12.5923,3.0068 C12.4633,3.0068 12.3583,2.9018 12.3583,2.7728 C12.3583,2.0618 11.7793,1.4838 11.0703,1.4838 C10.3593,1.4838 9.7813,2.0618 9.7813,2.7728 C9.7813,2.9018 9.6763,3.0068 9.5473,3.0068 L9.4913,3.0068 Z M14.3693,5.4198 L9.4913,5.4198 C8.6963,5.4198 8.0503,4.7728 8.0503,3.9788 C8.0503,3.2398 8.6093,2.6288 9.3263,2.5478 C9.4373,1.6838 10.1783,1.0148 11.0703,1.0148 C11.7673,1.0148 12.3733,1.4248 12.6553,2.0168 C12.8583,1.7988 13.1473,1.6628 13.4673,1.6628 C14.0043,1.6628 14.4523,2.0458 14.5533,2.5528 C15.2713,2.6528 15.8083,3.2548 15.8083,3.9788 C15.8083,4.7728 15.1633,5.4198 14.3693,5.4198 Z" id="Fill-9" fill="#222222"></path>
            <path d="M10.0831,3.9448 L9.4911,3.9448 C9.3621,3.9448 9.2571,3.8398 9.2571,3.7108 C9.2571,3.5808 9.3621,3.4758 9.4911,3.4758 L10.0831,3.4758 C10.1751,3.4758 10.2501,3.4008 10.2501,3.3088 L10.2501,2.7898 C10.2501,2.3618 10.5751,1.9958 10.9911,1.9568 C11.2211,1.9378 11.4511,2.0108 11.6211,2.1658 C11.7921,2.3208 11.8891,2.5428 11.8891,2.7728 C11.8891,2.9018 11.7841,3.0068 11.6541,3.0068 C11.5251,3.0068 11.4211,2.9018 11.4211,2.7728 C11.4211,2.6738 11.3791,2.5798 11.3051,2.5128 C11.2301,2.4458 11.1331,2.4168 11.0361,2.4238 C10.8581,2.4408 10.7201,2.6008 10.7201,2.7898 L10.7201,3.3088 C10.7201,3.6598 10.4341,3.9448 10.0831,3.9448" id="Fill-11" fill="#0155FC"></path>
            <path d="M9.4913,5.4194 L7.7913,5.4194 C7.6623,5.4194 7.5563,5.3144 7.5563,5.1854 C7.5563,5.0554 7.6623,4.9504 7.7913,4.9504 L9.4913,4.9504 C9.6213,4.9504 9.7253,5.0554 9.7253,5.1854 C9.7253,5.3144 9.6213,5.4194 9.4913,5.4194" id="Fill-13" fill="#222222"></path>
            <path d="M7.0997,5.4194 L7.0097,5.4194 C6.8807,5.4194 6.7757,5.3144 6.7757,5.1854 C6.7757,5.0554 6.8807,4.9504 7.0097,4.9504 L7.0997,4.9504 C7.2287,4.9504 7.3327,5.0554 7.3327,5.1854 C7.3327,5.3144 7.2287,5.4194 7.0997,5.4194" id="Fill-15" fill="#222222"></path>
            <path d="M11.1339,11.1318 C11.1579,11.0588 11.1709,10.9808 11.1709,10.8998 C11.1709,10.4828 10.8319,10.1448 10.4149,10.1448 C9.9979,10.1448 9.6589,10.4828 9.6589,10.8998 C9.6589,10.9808 9.6719,11.0588 9.6959,11.1318 C9.3579,11.2068 9.1049,11.5088 9.1049,11.8698 C9.1049,12.2868 9.4439,12.6248 9.8609,12.6248 C10.0799,12.6248 10.2779,12.5318 10.4149,12.3828 C10.5529,12.5318 10.7499,12.6248 10.9699,12.6248 C11.3869,12.6248 11.7249,12.2868 11.7249,11.8698 C11.7249,11.5088 11.4729,11.2068 11.1339,11.1318" id="Fill-17" fill="#FFFFFF"></path>
            <path d="M10.4151,12.1484 C10.4801,12.1484 10.5421,12.1754 10.5871,12.2234 C10.6871,12.3314 10.8221,12.3904 10.9701,12.3904 C11.2571,12.3904 11.4911,12.1564 11.4911,11.8694 C11.4911,11.6274 11.3191,11.4134 11.0831,11.3604 C11.0191,11.3464 10.9631,11.3054 10.9311,11.2484 C10.8981,11.1904 10.8921,11.1224 10.9111,11.0604 C10.9281,11.0084 10.9361,10.9554 10.9361,10.8994 C10.9361,10.6124 10.7021,10.3784 10.4151,10.3784 C10.1281,10.3784 9.8941,10.6124 9.8941,10.8994 C9.8941,10.9544 9.9021,11.0074 9.9191,11.0604 C9.9381,11.1224 9.9331,11.1904 9.8991,11.2484 C9.8661,11.3054 9.8111,11.3464 9.7461,11.3604 C9.5111,11.4134 9.3391,11.6274 9.3391,11.8694 C9.3391,12.1564 9.5731,12.3904 9.8601,12.3904 C10.0081,12.3904 10.1431,12.3314 10.2431,12.2234 C10.2871,12.1754 10.3501,12.1484 10.4151,12.1484 M10.9701,12.8594 C10.7701,12.8594 10.5781,12.7984 10.4151,12.6894 C10.2531,12.7984 10.0591,12.8594 9.8601,12.8594 C9.3141,12.8594 8.8711,12.4154 8.8711,11.8694 C8.8711,11.4874 9.0951,11.1424 9.4281,10.9794 C9.4261,10.9524 9.4251,10.9264 9.4251,10.8994 C9.4251,10.3544 9.8691,9.9104 10.4151,9.9104 C10.9611,9.9104 11.4041,10.3544 11.4041,10.8994 C11.4041,10.9264 11.4041,10.9524 11.4011,10.9794 C11.7341,11.1424 11.9591,11.4874 11.9591,11.8694 C11.9591,12.4154 11.5161,12.8594 10.9701,12.8594" id="Fill-19" fill="#222222"></path>
            <path d="M10.4151,14.0463 C10.2861,14.0463 10.1811,13.9413 10.1811,13.8123 L10.1811,12.3823 C10.1811,12.2533 10.2861,12.1483 10.4151,12.1483 C10.5451,12.1483 10.6491,12.2533 10.6491,12.3823 L10.6491,13.8123 C10.6491,13.9413 10.5451,14.0463 10.4151,14.0463" id="Fill-21" fill="#222222"></path>
            <path d="M5.7589,11.1318 C5.7819,11.0588 5.7959,10.9808 5.7959,10.8998 C5.7959,10.4828 5.4569,10.1448 5.0399,10.1448 C4.6219,10.1448 4.2839,10.4828 4.2839,10.8998 C4.2839,10.9808 4.2969,11.0588 4.3209,11.1318 C3.9829,11.2068 3.7299,11.5088 3.7299,11.8698 C3.7299,12.2868 4.0689,12.6248 4.4859,12.6248 C4.7039,12.6248 4.9019,12.5318 5.0399,12.3828 C5.1779,12.5318 5.3749,12.6248 5.5949,12.6248 C6.0119,12.6248 6.3499,12.2868 6.3499,11.8698 C6.3499,11.5088 6.0969,11.2068 5.7589,11.1318" id="Fill-23" fill="#FFFFFF"></path>
            <path d="M5.0401,12.1484 C5.1051,12.1484 5.1681,12.1754 5.2121,12.2234 C5.3111,12.3314 5.4471,12.3904 5.5951,12.3904 C5.8821,12.3904 6.1161,12.1564 6.1161,11.8694 C6.1161,11.6274 5.9441,11.4134 5.7081,11.3604 C5.6431,11.3464 5.5881,11.3054 5.5551,11.2474 C5.5221,11.1904 5.5161,11.1214 5.5361,11.0584 C5.5531,11.0084 5.5611,10.9554 5.5611,10.8994 C5.5611,10.6124 5.3271,10.3784 5.0401,10.3784 C4.7531,10.3784 4.5191,10.6124 4.5191,10.8994 C4.5191,10.9554 4.5261,11.0084 4.5431,11.0584 C4.5641,11.1214 4.5581,11.1904 4.5241,11.2474 C4.4911,11.3054 4.4361,11.3464 4.3711,11.3604 C4.1351,11.4134 3.9641,11.6274 3.9641,11.8694 C3.9641,12.1564 4.1971,12.3904 4.4851,12.3904 C4.6331,12.3904 4.7681,12.3314 4.8681,12.2234 C4.9121,12.1754 4.9751,12.1484 5.0401,12.1484 M5.5951,12.8594 C5.3951,12.8594 5.2021,12.7984 5.0401,12.6894 C4.8781,12.7994 4.6841,12.8594 4.4851,12.8594 C3.9391,12.8594 3.4951,12.4154 3.4951,11.8694 C3.4951,11.4874 3.7201,11.1424 4.0531,10.9794 C4.0511,10.9524 4.0501,10.9264 4.0501,10.8994 C4.0501,10.3544 4.4941,9.9104 5.0401,9.9104 C5.5861,9.9104 6.0291,10.3544 6.0291,10.8994 C6.0291,10.9264 6.0291,10.9524 6.0261,10.9794 C6.3591,11.1424 6.5841,11.4874 6.5841,11.8694 C6.5841,12.4154 6.1411,12.8594 5.5951,12.8594" id="Fill-25" fill="#222222"></path>
            <path d="M5.0401,14.0463 C4.9111,14.0463 4.8061,13.9413 4.8061,13.8123 L4.8061,12.3823 C4.8061,12.2533 4.9111,12.1483 5.0401,12.1483 C5.1701,12.1483 5.2741,12.2533 5.2741,12.3823 L5.2741,13.8123 C5.2741,13.9413 5.1701,14.0463 5.0401,14.0463" id="Fill-27" fill="#222222"></path>
            <path d="M16.5098,11.1318 C16.5328,11.0588 16.5458,10.9808 16.5458,10.8998 C16.5458,10.4828 16.2078,10.1448 15.7898,10.1448 C15.3728,10.1448 15.0338,10.4828 15.0338,10.8998 C15.0338,10.9808 15.0478,11.0588 15.0718,11.1318 C14.7338,11.2068 14.4808,11.5088 14.4808,11.8698 C14.4808,12.2868 14.8188,12.6248 15.2358,12.6248 C15.4548,12.6248 15.6528,12.5318 15.7898,12.3828 C15.9288,12.5318 16.1248,12.6248 16.3448,12.6248 C16.7618,12.6248 17.1008,12.2868 17.1008,11.8698 C17.1008,11.5088 16.8478,11.2068 16.5098,11.1318" id="Fill-29" fill="#FFFFFF"></path>
            <path d="M15.7901,12.1484 C15.8551,12.1484 15.9171,12.1754 15.9621,12.2234 C16.0621,12.3314 16.1971,12.3904 16.3451,12.3904 C16.6321,12.3904 16.8661,12.1564 16.8661,11.8694 C16.8661,11.6274 16.6941,11.4134 16.4581,11.3604 C16.3941,11.3464 16.3381,11.3054 16.3061,11.2474 C16.2731,11.1904 16.2661,11.1214 16.2871,11.0584 C16.3041,11.0084 16.3111,10.9554 16.3111,10.8994 C16.3111,10.6124 16.0781,10.3784 15.7901,10.3784 C15.5031,10.3784 15.2691,10.6124 15.2691,10.8994 C15.2691,10.9554 15.2771,11.0084 15.2941,11.0604 C15.3131,11.1224 15.3081,11.1904 15.2741,11.2484 C15.2411,11.3054 15.1861,11.3464 15.1211,11.3604 C14.8861,11.4134 14.7141,11.6274 14.7141,11.8694 C14.7141,12.1564 14.9481,12.3904 15.2361,12.3904 C15.3831,12.3904 15.5191,12.3314 15.6171,12.2234 C15.6621,12.1754 15.7251,12.1484 15.7901,12.1484 M16.3451,12.8594 C16.1451,12.8594 15.9531,12.7994 15.7901,12.6894 C15.6281,12.7984 15.4351,12.8594 15.2361,12.8594 C14.6901,12.8594 14.2461,12.4154 14.2461,11.8694 C14.2461,11.4874 14.4711,11.1424 14.8041,10.9794 C14.8011,10.9524 14.8001,10.9264 14.8001,10.8994 C14.8001,10.3544 15.2441,9.9104 15.7901,9.9104 C16.3361,9.9104 16.7801,10.3544 16.7801,10.8994 C16.7801,10.9264 16.7791,10.9534 16.7771,10.9794 C17.1101,11.1424 17.3341,11.4874 17.3341,11.8694 C17.3341,12.4154 16.8911,12.8594 16.3451,12.8594" id="Fill-31" fill="#222222"></path>
            <path d="M15.7901,14.0463 C15.6611,14.0463 15.5561,13.9413 15.5561,13.8123 L15.5561,12.3823 C15.5561,12.2533 15.6611,12.1483 15.7901,12.1483 C15.9201,12.1483 16.0241,12.2533 16.0241,12.3823 L16.0241,13.8123 C16.0241,13.9413 15.9201,14.0463 15.7901,14.0463" id="Fill-33" fill="#222222"></path>
            <path d="M6.7218,8.4365 L3.3588,8.4365 C2.8028,8.4365 2.3528,7.9865 2.3528,7.4305 C2.3528,6.8745 2.8028,6.4245 3.3588,6.4245 L6.7218,6.4245 C7.2778,6.4245 7.7278,6.8745 7.7278,7.4305 C7.7278,7.9865 7.2778,8.4365 6.7218,8.4365" id="Fill-35" fill="#0155FC"></path>
            <path d="M12.0968,8.4365 L8.7338,8.4365 C8.1778,8.4365 7.7278,7.9865 7.7278,7.4305 C7.7278,6.8745 8.1778,6.4245 8.7338,6.4245 L12.0968,6.4245 C12.6528,6.4245 13.1028,6.8745 13.1028,7.4305 C13.1028,7.9865 12.6528,8.4365 12.0968,8.4365" id="Fill-37" fill="#0155FC"></path>
            <path d="M6.7218,15.8242 L3.3588,15.8242 C2.8028,15.8242 2.3528,15.3732 2.3528,14.8182 C2.3528,14.2622 2.8028,13.8122 3.3588,13.8122 L6.7218,13.8122 C7.2778,13.8122 7.7278,14.2622 7.7278,14.8182 C7.7278,15.3732 7.2778,15.8242 6.7218,15.8242" id="Fill-39" fill="#0155FC"></path>
            <path d="M12.0968,15.8242 L8.7338,15.8242 C8.1778,15.8242 7.7278,15.3732 7.7278,14.8182 C7.7278,14.2622 8.1778,13.8122 8.7338,13.8122 L12.0968,13.8122 C12.6528,13.8122 13.1028,14.2622 13.1028,14.8182 C13.1028,15.3732 12.6528,15.8242 12.0968,15.8242" id="Fill-41" fill="#0155FC"></path>
            <path d="M17.4718,8.4365 L14.1088,8.4365 C13.5528,8.4365 13.1028,7.9865 13.1028,7.4305 C13.1028,6.8745 13.5528,6.4245 14.1088,6.4245 L17.4718,6.4245 C18.0278,6.4245 18.4778,6.8745 18.4778,7.4305 C18.4778,7.9865 18.0278,8.4365 17.4718,8.4365" id="Fill-43" fill="#0155FC"></path>
            <path d="M17.4718,15.8242 L14.1088,15.8242 C13.5528,15.8242 13.1028,15.3732 13.1028,14.8182 C13.1028,14.2622 13.5528,13.8122 14.1088,13.8122 L17.4718,13.8122 C18.0278,13.8122 18.4778,14.2622 18.4778,14.8182 C18.4778,15.3732 18.0278,15.8242 17.4718,15.8242" id="Fill-45" fill="#0155FC"></path>
            <path d="M6.7218,23.2114 L3.3588,23.2114 C2.8028,23.2114 2.3528,22.7614 2.3528,22.2054 C2.3528,21.6494 2.8028,21.1994 3.3588,21.1994 L6.7218,21.1994 C7.2778,21.1994 7.7278,21.6494 7.7278,22.2054 C7.7278,22.7614 7.2778,23.2114 6.7218,23.2114" id="Fill-47" fill="#0155FC"></path>
            <path d="M6.1837,6.4243 L3.3587,6.4243 C2.8027,6.4243 2.3527,6.8743 2.3527,7.4303 C2.3527,7.9863 2.8027,8.4363 3.3587,8.4363 L4.7867,8.4363 L6.1837,6.4243 Z" id="Fill-49" fill="#003C9B"></path>
            <path d="M12.0968,23.2114 L8.7338,23.2114 C8.1778,23.2114 7.7278,22.7614 7.7278,22.2054 C7.7278,21.6494 8.1778,21.1994 8.7338,21.1994 L12.0968,21.1994 C12.6528,21.1994 13.1028,21.6494 13.1028,22.2054 C13.1028,22.7614 12.6528,23.2114 12.0968,23.2114" id="Fill-51" fill="#0155FC"></path>
            <path d="M6.7208,8.6709 L3.3588,8.6709 C3.2298,8.6709 3.1238,8.5659 3.1238,8.4369 C3.1238,8.3069 3.2298,8.2019 3.3588,8.2019 L6.7208,8.2019 C7.1468,8.2019 7.4928,7.8559 7.4928,7.4309 C7.4928,7.0049 7.1468,6.6589 6.7208,6.6589 L3.3588,6.6589 C3.2298,6.6589 3.1238,6.5539 3.1238,6.4239 C3.1238,6.2949 3.2298,6.1899 3.3588,6.1899 L6.7208,6.1899 C7.4058,6.1899 7.9618,6.7469 7.9618,7.4309 C7.9618,8.1149 7.4058,8.6709 6.7208,8.6709" id="Fill-53" fill="#222222"></path>
            <path d="M8.7335,6.6586 C8.3085,6.6586 7.9625,7.0046 7.9625,7.4306 C7.9625,7.8556 8.3085,8.2016 8.7335,8.2016 L12.0965,8.2016 C12.5215,8.2016 12.8685,7.8556 12.8685,7.4306 C12.8685,7.0046 12.5215,6.6586 12.0965,6.6586 L8.7335,6.6586 Z M12.0965,8.6706 L8.7335,8.6706 C8.0495,8.6706 7.4935,8.1146 7.4935,7.4306 C7.4935,6.7466 8.0495,6.1896 8.7335,6.1896 L12.0965,6.1896 C12.7805,6.1896 13.3375,6.7466 13.3375,7.4306 C13.3375,8.1146 12.7805,8.6706 12.0965,8.6706 Z" id="Fill-55" fill="#222222"></path>
            <path d="M10.5782,16.0585 L10.2892,16.0585 C10.1592,16.0585 10.0552,15.9535 10.0552,15.8245 C10.0552,15.6945 10.1592,15.5895 10.2892,15.5895 L10.5782,15.5895 C10.7082,15.5895 10.8122,15.6945 10.8122,15.8245 C10.8122,15.9535 10.7082,16.0585 10.5782,16.0585" id="Fill-57" fill="#222222"></path>
            <path d="M12.0968,16.0585 L11.5038,16.0585 C11.3748,16.0585 11.2708,15.9535 11.2708,15.8245 C11.2708,15.6945 11.3748,15.5895 11.5038,15.5895 L12.0968,15.5895 C12.5218,15.5895 12.8678,15.2435 12.8678,14.8175 C12.8678,14.3925 12.5218,14.0465 12.0968,14.0465 L8.7338,14.0465 C8.3088,14.0465 7.9618,14.3925 7.9618,14.8175 C7.9618,15.2435 8.3088,15.5895 8.7338,15.5895 L9.1048,15.5895 C9.2348,15.5895 9.3388,15.6945 9.3388,15.8245 C9.3388,15.9535 9.2348,16.0585 9.1048,16.0585 L8.7338,16.0585 C8.0498,16.0585 7.4928,15.5015 7.4928,14.8175 C7.4928,14.1335 8.0498,13.5775 8.7338,13.5775 L12.0968,13.5775 C12.7808,13.5775 13.3368,14.1335 13.3368,14.8175 C13.3368,15.5015 12.7808,16.0585 12.0968,16.0585" id="Fill-59" fill="#222222"></path>
            <path d="M17.4718,8.6709 C17.3418,8.6709 17.2378,8.5659 17.2378,8.4369 C17.2378,8.3069 17.3418,8.2019 17.4718,8.2019 C17.8978,8.2019 18.2438,7.8559 18.2438,7.4309 C18.2438,7.0049 17.8978,6.6589 17.4718,6.6589 L14.1088,6.6589 C13.6838,6.6589 13.3368,7.0049 13.3368,7.4309 C13.3368,7.8559 13.6838,8.2019 14.1088,8.2019 L14.9168,8.2019 C15.0458,8.2019 15.1508,8.3069 15.1508,8.4369 C15.1508,8.5659 15.0458,8.6709 14.9168,8.6709 L14.1088,8.6709 C13.4248,8.6709 12.8678,8.1149 12.8678,7.4309 C12.8678,6.7469 13.4248,6.1899 14.1088,6.1899 L17.4718,6.1899 C18.1558,6.1899 18.7118,6.7469 18.7118,7.4309 C18.7118,8.1149 18.1558,8.6709 17.4718,8.6709" id="Fill-61" fill="#222222"></path>
            <path d="M15.9249,8.6709 L15.7899,8.6709 C15.6609,8.6709 15.5559,8.5659 15.5559,8.4369 C15.5559,8.3069 15.6609,8.2019 15.7899,8.2019 L15.9249,8.2019 C16.0539,8.2019 16.1589,8.3069 16.1589,8.4369 C16.1589,8.5659 16.0539,8.6709 15.9249,8.6709" id="Fill-63" fill="#222222"></path>
            <path d="M6.7208,16.0585 L5.9128,16.0585 C5.7838,16.0585 5.6788,15.9535 5.6788,15.8245 C5.6788,15.6945 5.7838,15.5895 5.9128,15.5895 L6.7208,15.5895 C7.1468,15.5895 7.4928,15.2435 7.4928,14.8175 C7.4928,14.3925 7.1468,14.0465 6.7208,14.0465 L3.3588,14.0465 C2.9328,14.0465 2.5868,14.3925 2.5868,14.8175 C2.5868,15.2435 2.9328,15.5895 3.3588,15.5895 C3.4878,15.5895 3.5928,15.6945 3.5928,15.8245 C3.5928,15.9535 3.4878,16.0585 3.3588,16.0585 C2.6748,16.0585 2.1168,15.5015 2.1168,14.8175 C2.1168,14.1335 2.6748,13.5775 3.3588,13.5775 L6.7208,13.5775 C7.4058,13.5775 7.9618,14.1335 7.9618,14.8175 C7.9618,15.5015 7.4058,16.0585 6.7208,16.0585" id="Fill-65" fill="#222222"></path>
            <path d="M5.0401,16.0585 L4.9051,16.0585 C4.7751,16.0585 4.6711,15.9535 4.6711,15.8245 C4.6711,15.6945 4.7751,15.5895 4.9051,15.5895 L5.0401,15.5895 C5.1701,15.5895 5.2741,15.6945 5.2741,15.8245 C5.2741,15.9535 5.1701,16.0585 5.0401,16.0585" id="Fill-67" fill="#222222"></path>
            <path d="M14.1085,14.0463 C13.6835,14.0463 13.3375,14.3923 13.3375,14.8173 C13.3375,15.2433 13.6835,15.5893 14.1085,15.5893 L17.4715,15.5893 C17.8975,15.5893 18.2445,15.2433 18.2445,14.8173 C18.2445,14.3923 17.8975,14.0463 17.4715,14.0463 L14.1085,14.0463 Z M17.4715,16.0583 L14.1085,16.0583 C13.4245,16.0583 12.8685,15.5023 12.8685,14.8173 C12.8685,14.1333 13.4245,13.5773 14.1085,13.5773 L17.4715,13.5773 C18.1555,13.5773 18.7125,14.1333 18.7125,14.8173 C18.7125,15.5023 18.1555,16.0583 17.4715,16.0583 Z" id="Fill-69" fill="#222222"></path>
            <path d="M3.3585,21.4335 C2.9325,21.4335 2.5875,21.7795 2.5875,22.2055 C2.5875,22.6305 2.9325,22.9765 3.3585,22.9765 L6.7205,22.9765 C7.1465,22.9765 7.4935,22.6305 7.4935,22.2055 C7.4935,21.7795 7.1465,21.4335 6.7205,21.4335 L3.3585,21.4335 Z M6.7205,23.4455 L3.3585,23.4455 C2.6745,23.4455 2.1175,22.8895 2.1175,22.2055 C2.1175,21.5215 2.6745,20.9645 3.3585,20.9645 L6.7205,20.9645 C7.4055,20.9645 7.9625,21.5215 7.9625,22.2055 C7.9625,22.8895 7.4055,23.4455 6.7205,23.4455 Z" id="Fill-71" fill="#222222"></path>
            <path d="M4.3643,16.83 L4.3643,20.193 C4.3643,20.749 3.9143,21.199 3.3583,21.199 C2.8023,21.199 2.3523,20.749 2.3523,20.193 L2.3523,16.83 C2.3523,16.274 2.8023,15.824 3.3583,15.824 C3.9143,15.824 4.3643,16.274 4.3643,16.83" id="Fill-73" fill="#0155FC"></path>
            <path d="M3.3585,16.0585 C2.9325,16.0585 2.5875,16.4045 2.5875,16.8295 L2.5875,20.1935 C2.5875,20.6185 2.9325,20.9645 3.3585,20.9645 C3.7835,20.9645 4.1295,20.6185 4.1295,20.1935 L4.1295,16.8295 C4.1295,16.4045 3.7835,16.0585 3.3585,16.0585 M3.3585,21.4335 C2.6745,21.4335 2.1175,20.8775 2.1175,20.1935 L2.1175,16.8295 C2.1175,16.1455 2.6745,15.5895 3.3585,15.5895 C4.0425,15.5895 4.5985,16.1455 4.5985,16.8295 L4.5985,20.1935 C4.5985,20.8775 4.0425,21.4335 3.3585,21.4335" id="Fill-75" fill="#222222"></path>
            <path d="M8.7335,21.4335 C8.3085,21.4335 7.9625,21.7795 7.9625,22.2055 C7.9625,22.6305 8.3085,22.9765 8.7335,22.9765 L12.0965,22.9765 C12.5215,22.9765 12.8685,22.6305 12.8685,22.2055 C12.8685,21.7795 12.5215,21.4335 12.0965,21.4335 L8.7335,21.4335 Z M12.0965,23.4455 L8.7335,23.4455 C8.0495,23.4455 7.4935,22.8895 7.4935,22.2055 C7.4935,21.5215 8.0495,20.9645 8.7335,20.9645 L12.0965,20.9645 C12.7805,20.9645 13.3375,21.5215 13.3375,22.2055 C13.3375,22.8895 12.7805,23.4455 12.0965,23.4455 Z" id="Fill-77" fill="#222222"></path>
            <path d="M19.8399,23.2114 L14.1089,23.2114 C13.5529,23.2114 13.1029,22.7614 13.1029,22.2054 C13.1029,21.6494 13.5529,21.1994 14.1089,21.1994 L19.8399,21.1994" id="Fill-79" fill="#0155FC"></path>
            <path d="M19.8409,23.4458 L14.1089,23.4458 C13.4249,23.4458 12.8679,22.8898 12.8679,22.2058 C12.8679,21.5218 13.4249,20.9648 14.1089,20.9648 L19.8409,20.9648 C19.9699,20.9648 20.0749,21.0698 20.0749,21.1988 C20.0749,21.3288 19.9699,21.4338 19.8409,21.4338 L14.1089,21.4338 C13.6839,21.4338 13.3369,21.7798 13.3369,22.2058 C13.3369,22.6308 13.6839,22.9768 14.1089,22.9768 L19.8409,22.9768 C19.9699,22.9768 20.0749,23.0818 20.0749,23.2118 C20.0749,23.3408 19.9699,23.4458 19.8409,23.4458" id="Fill-81" fill="#222222"></path>
            <path d="M1.9815,3.3383 C1.9815,2.5773 2.5975,1.9613 3.3585,1.9613 C4.1195,1.9613 4.7355,2.5773 4.7355,3.3383 C4.7355,4.0993 4.1195,4.7153 3.3585,4.7153 C2.5975,4.7153 1.9815,4.0993 1.9815,3.3383 M0.8045,5.1713 L2.9105,8.2023 C3.1275,8.5143 3.5895,8.5143 3.8065,8.2023 L5.9125,5.1713 C7.3295,3.1313 5.9335,0.2993 3.4505,0.2353 C3.4195,0.2343 3.3885,0.2343 3.3585,0.2343 C3.3275,0.2343 3.2965,0.2343 3.2655,0.2353 C0.7835,0.2993 -0.6125,3.1313 0.8045,5.1713" id="Fill-83" fill="#FFFFFF"></path>
            <path d="M3.2667,0.2358 L3.2717,0.2358 L3.2667,0.2358 Z M3.3587,0.4688 L3.2737,0.4698 L3.2717,0.4698 C2.2057,0.4978 1.2797,1.0858 0.7937,2.0448 C0.2987,3.0228 0.3747,4.1408 0.9967,5.0378 L3.1027,8.0688 C3.2207,8.2378 3.4957,8.2388 3.6147,8.0688 L5.7197,5.0378 C6.3417,4.1408 6.4177,3.0228 5.9227,2.0448 C5.4377,1.0858 4.5107,0.4978 3.4457,0.4698 L3.3587,0.4688 Z M3.3587,8.6708 C3.1027,8.6708 2.8627,8.5458 2.7167,8.3358 L0.6127,5.3048 C-0.1103,4.2648 -0.1993,2.9668 0.3747,1.8328 C0.9417,0.7178 2.0197,0.0328 3.2597,0.0018 L3.3587,-0.0002 L3.4577,0.0018 C4.6977,0.0328 5.7757,0.7178 6.3417,1.8328 C6.9157,2.9668 6.8277,4.2648 6.1047,5.3048 L3.9987,8.3358 C3.8537,8.5458 3.6137,8.6708 3.3587,8.6708 Z" id="Fill-85" fill="#222222"></path>
            <path d="M3.2901,1.4077 C3.1621,1.4077 3.0591,1.3057 3.0561,1.1787 C3.0531,1.0487 3.1551,0.9417 3.2851,0.9387 L3.3581,0.9377 C3.4871,0.9377 3.5931,1.0427 3.5931,1.1727 C3.5931,1.3017 3.4871,1.4067 3.3581,1.4067 L3.2951,1.4077 L3.2901,1.4077 Z" id="Fill-88" fill="#0155FC"></path>
            <path d="M1.5753,4.8706 C1.5003,4.8706 1.4283,4.8356 1.3833,4.7696 C0.8593,4.0176 0.7963,3.0786 1.2123,2.2566 C1.4673,1.7546 1.8633,1.3706 2.3613,1.1466 C2.4793,1.0936 2.6183,1.1466 2.6713,1.2646 C2.7243,1.3826 2.6723,1.5216 2.5543,1.5746 C2.1553,1.7546 1.8363,2.0636 1.6303,2.4686 C1.2933,3.1336 1.3453,3.8936 1.7663,4.5026 C1.8423,4.6086 1.8153,4.7546 1.7083,4.8286 C1.6673,4.8566 1.6213,4.8706 1.5753,4.8706" id="Fill-90" fill="#0155FC"></path>
            <path d="M3.3585,2.1953 C2.7285,2.1953 2.2155,2.7083 2.2155,3.3383 C2.2155,3.9683 2.7285,4.4813 3.3585,4.4813 C3.9885,4.4813 4.5015,3.9683 4.5015,3.3383 C4.5015,2.7083 3.9885,2.1953 3.3585,2.1953 M3.3585,4.9503 C2.4695,4.9503 1.7465,4.2273 1.7465,3.3383 C1.7465,2.4493 2.4695,1.7263 3.3585,1.7263 C4.2475,1.7263 4.9705,2.4493 4.9705,3.3383 C4.9705,4.2273 4.2475,4.9503 3.3585,4.9503" id="Fill-92" fill="#222222"></path>
            <path d="M19.3712,15.0522 L18.4782,15.0522 C18.3492,15.0522 18.2442,14.9472 18.2442,14.8182 C18.2442,14.6882 18.3492,14.5832 18.4782,14.5832 L19.3712,14.5832 C19.5012,14.5832 19.6052,14.4782 19.6052,14.3492 L19.6052,12.9582 C19.6052,12.8282 19.7112,12.7232 19.8412,12.7232 C19.9702,12.7232 20.0752,12.8282 20.0752,12.9582 L20.0752,14.3492 C20.0752,14.7372 19.7592,15.0522 19.3712,15.0522" id="Fill-94" fill="#222222"></path>
            <path d="M19.8409,12.4106 C19.7109,12.4106 19.6059,12.3056 19.6059,12.1766 L19.6059,10.8636 C19.6059,10.7336 19.7109,10.6286 19.8409,10.6286 C19.9699,10.6286 20.0749,10.7336 20.0749,10.8636 L20.0749,12.1766 C20.0749,12.3056 19.9699,12.4106 19.8409,12.4106" id="Fill-97" fill="#222222"></path>
            <path d="M19.8409,10.1054 C19.7109,10.1054 19.6059,10.0004 19.6059,9.8714 L19.6059,9.6834 C19.6059,9.5534 19.7109,9.4484 19.8409,9.4484 C19.9699,9.4484 20.0749,9.5534 20.0749,9.6834 L20.0749,9.8714 C20.0749,10.0004 19.9699,10.1054 19.8409,10.1054" id="Fill-100" fill="#222222"></path>
            <path d="M19.8409,9.2143 C19.7109,9.2143 19.6059,9.1093 19.6059,8.9803 L19.6059,7.8993 C19.6059,7.7703 19.5009,7.6653 19.3709,7.6653 L18.4789,7.6653 C18.3489,7.6653 18.2439,7.5603 18.2439,7.4303 C18.2439,7.3013 18.3489,7.1963 18.4789,7.1963 L19.3709,7.1963 C19.7589,7.1963 20.0749,7.5113 20.0749,7.8993 L20.0749,8.9803 C20.0749,9.1093 19.9699,9.2143 19.8409,9.2143" id="Fill-103" fill="#222222"></path>
        </g>
    </g>
</svg>