<?xml version="1.0" encoding="UTF-8"?>
<svg width="24px" height="24px" viewBox="0 0 24 24" version="1.1" xmlns="http://www.w3.org/2000/svg" xmlns:xlink="http://www.w3.org/1999/xlink">
    <!-- Generator: Sketch 49 (51002) - http://www.bohemiancoding.com/sketch -->
    <title>icons/do/noiseroute</title>
    <desc>Created with Sketch.</desc>
    <defs></defs>
    <g id="icons/do/noiseroute" stroke="none" stroke-width="1" fill="none" fill-rule="evenodd">
        <g id="Group" transform="translate(5.000000, 0.000000)">
            <path d="M0.2344,21.336 L0.2344,2.11 C0.2344,1.074 1.0744,0.234 2.1104,0.234 L12.2694,0.234 C13.3054,0.234 14.1454,1.074 14.1454,2.11 L14.1454,21.336 C14.1454,22.372 13.3054,23.211 12.2694,23.211 L2.1104,23.211 C1.0744,23.211 0.2344,22.372 0.2344,21.336" id="Fill-1" fill="#DDDDDD"></path>
            <path d="M2.1103,0.4688 C1.2053,0.4688 0.4683,1.2048 0.4683,2.1108 L0.4683,21.3358 C0.4683,22.2408 1.2053,22.9768 2.1103,22.9768 L12.2693,22.9768 C13.1743,22.9768 13.9113,22.2408 13.9113,21.3358 L13.9113,2.1108 C13.9113,1.2048 13.1743,0.4688 12.2693,0.4688 L2.1103,0.4688 Z M12.2693,23.4458 L2.1103,23.4458 C0.9463,23.4458 0.0003,22.4998 0.0003,21.3358 L0.0003,2.1108 C0.0003,0.9468 0.9463,-0.0002 2.1103,-0.0002 L12.2693,-0.0002 C13.4333,-0.0002 14.3803,0.9468 14.3803,2.1108 L14.3803,21.3358 C14.3803,22.4998 13.4333,23.4458 12.2693,23.4458 Z" id="Fill-3" fill="#222222"></path>
            <path d="M3.3916,22.5083 L2.1106,22.5083 C1.4636,22.5083 0.9376,21.9823 0.9376,21.3363 C0.9376,21.2063 1.0426,21.1013 1.1716,21.1013 C1.3016,21.1013 1.4066,21.2063 1.4066,21.3363 C1.4066,21.7233 1.7226,22.0393 2.1106,22.0393 L3.3916,22.0393 C3.5216,22.0393 3.6256,22.1443 3.6256,22.2743 C3.6256,22.4033 3.5216,22.5083 3.3916,22.5083" id="Fill-6" fill="#0155FC"></path>
            <path d="M2.5791,20.356 C2.0601,20.356 1.6411,19.936 1.6411,19.418 L1.6411,2.579 C1.6411,2.061 2.0601,1.641 2.5791,1.641 L11.8011,1.641 C12.3191,1.641 12.7391,2.061 12.7391,2.579 L12.7391,19.418 C12.7391,19.936 12.3191,20.356 11.8011,20.356 L2.5791,20.356 Z" id="Fill-8" fill="#FFFFFF"></path>
            <path d="M12.7392,4.1421 L12.7392,2.5791 C12.7392,2.0611 12.3192,1.6411 11.8012,1.6411 L2.5792,1.6411 C2.0602,1.6411 1.6402,2.0611 1.6402,2.5791 L1.6402,4.1421 L12.7392,4.1421 Z" id="Fill-10" fill="#FFFFFF"></path>
            <path d="M1.876,3.9078 L12.505,3.9078 L12.505,2.5788 C12.505,2.1918 12.189,1.8758 11.801,1.8758 L2.579,1.8758 C2.191,1.8758 1.876,2.1918 1.876,2.5788 L1.876,3.9078 Z M12.739,4.3768 L1.642,4.3768 C1.512,4.3768 1.407,4.2718 1.407,4.1418 L1.407,2.5788 C1.407,1.9328 1.933,1.4068 2.579,1.4068 L11.801,1.4068 C12.447,1.4068 12.974,1.9328 12.974,2.5788 L12.974,4.1418 C12.974,4.2718 12.868,4.3768 12.739,4.3768 Z" id="Fill-12" fill="#222222"></path>
            <path d="M2.5791,1.8755 C2.1911,1.8755 1.8761,2.1915 1.8761,2.5795 L1.8761,19.4175 C1.8761,19.8055 2.1911,20.1215 2.5791,20.1215 L11.8011,20.1215 C12.1881,20.1215 12.5051,19.8055 12.5051,19.4175 L12.5051,2.5795 C12.5051,2.1915 12.1881,1.8755 11.8011,1.8755 L2.5791,1.8755 Z M11.8011,20.5905 L2.5791,20.5905 C1.9331,20.5905 1.4071,20.0645 1.4071,19.4175 L1.4071,2.5795 C1.4071,1.9325 1.9331,1.4065 2.5791,1.4065 L11.8011,1.4065 C12.4471,1.4065 12.9741,1.9325 12.9741,2.5795 L12.9741,19.4175 C12.9741,20.0645 12.4471,20.5905 11.8011,20.5905 Z" id="Fill-14" fill="#222222"></path>
            <path d="M8.6181,21.7837 C8.6181,22.5727 7.9781,23.2117 7.1891,23.2117 C6.4011,23.2117 5.7621,22.5727 5.7621,21.7837 C5.7621,20.9947 6.4011,20.3557 7.1891,20.3557 C7.9781,20.3557 8.6181,20.9947 8.6181,21.7837" id="Fill-16" fill="#DDDDDD"></path>
            <path d="M7.1904,20.5904 C6.5324,20.5904 5.9974,21.1254 5.9974,21.7834 C5.9974,22.4424 6.5324,22.9774 7.1904,22.9774 C7.8484,22.9774 8.3834,22.4424 8.3834,21.7834 C8.3834,21.1254 7.8484,20.5904 7.1904,20.5904 M7.1904,23.4454 C6.2734,23.4454 5.5274,22.7004 5.5274,21.7834 C5.5274,20.8674 6.2734,20.1214 7.1904,20.1214 C8.1064,20.1214 8.8524,20.8674 8.8524,21.7834 C8.8524,22.7004 8.1064,23.4454 7.1904,23.4454" id="Fill-18" fill="#222222"></path>
            <path d="M7.8935,0.938 C7.8935,1.326 7.5785,1.641 7.1895,1.641 C6.8015,1.641 6.4865,1.326 6.4865,0.938 C6.4865,0.549 6.8015,0.234 7.1895,0.234 C7.5785,0.234 7.8935,0.549 7.8935,0.938" id="Fill-20" fill="#DDDDDD"></path>
            <path d="M7.1904,0.4688 C6.9314,0.4688 6.7204,0.6788 6.7204,0.9378 C6.7204,1.1968 6.9314,1.4068 7.1904,1.4068 C7.4484,1.4068 7.6594,1.1968 7.6594,0.9378 C7.6594,0.6788 7.4484,0.4688 7.1904,0.4688 M7.1904,1.8758 C6.6724,1.8758 6.2524,1.4548 6.2524,0.9378 C6.2524,0.4208 6.6724,-0.0002 7.1904,-0.0002 C7.7074,-0.0002 8.1274,0.4208 8.1274,0.9378 C8.1274,1.4548 7.7074,1.8758 7.1904,1.8758" id="Fill-22" fill="#222222"></path>
            <path d="M6.7002,22.0181 C6.5702,22.0181 6.4652,21.9131 6.4652,21.7841 C6.4652,21.3841 6.7902,21.0601 7.1902,21.0601 C7.3192,21.0601 7.4242,21.1641 7.4242,21.2941 C7.4242,21.4231 7.3192,21.5281 7.1902,21.5281 C7.0492,21.5281 6.9342,21.6431 6.9342,21.7841 C6.9342,21.9131 6.8292,22.0181 6.7002,22.0181" id="Fill-24" fill="#F9F9F9"></path>
            <path d="M3.5107,4.3731 L3.2397,4.3731 C3.1117,4.3731 3.0067,4.2681 3.0067,4.1391 C3.0067,4.0091 3.1117,3.9041 3.2397,3.9041 L3.5107,3.9041 C3.6397,3.9041 3.7437,4.0091 3.7437,4.1391 C3.7437,4.2681 3.6397,4.3731 3.5107,4.3731" id="Fill-26" fill="#222222"></path>
            <path d="M4.5176,22.5083 L4.3766,22.5083 C4.2466,22.5083 4.1426,22.4033 4.1426,22.2743 C4.1426,22.1443 4.2466,22.0393 4.3766,22.0393 L4.5176,22.0393 C4.6466,22.0393 4.7516,22.1443 4.7516,22.2743 C4.7516,22.4033 4.6466,22.5083 4.5176,22.5083" id="Fill-28" fill="#0155FC"></path>
            <path d="M9.7607,3.4361 C9.6317,3.4361 9.5277,3.3311 9.5277,3.2021 L9.5277,3.0281 C9.5277,2.8991 9.6317,2.7941 9.7607,2.7941 C9.8907,2.7941 9.9957,2.8991 9.9957,3.0281 L9.9957,3.2021 C9.9957,3.3311 9.8907,3.4361 9.7607,3.4361" id="Fill-30" fill="#222222"></path>
            <path d="M10.6015,3.4361 C10.4725,3.4361 10.3675,3.3311 10.3675,3.2021 L10.3675,2.7681 C10.3675,2.6391 10.4725,2.5341 10.6015,2.5341 C10.7315,2.5341 10.8355,2.6391 10.8355,2.7681 L10.8355,3.2021 C10.8355,3.3311 10.7315,3.4361 10.6015,3.4361" id="Fill-32" fill="#222222"></path>
            <path d="M11.4414,3.4361 C11.3124,3.4361 11.2074,3.3311 11.2074,3.2021 L11.2074,2.5011 C11.2074,2.3721 11.3124,2.2671 11.4414,2.2671 C11.5714,2.2671 11.6754,2.3721 11.6754,2.5011 L11.6754,3.2021 C11.6754,3.3311 11.5714,3.4361 11.4414,3.4361" id="Fill-34" fill="#222222"></path>
            <polygon id="Fill-36" fill="#FFFFFF" points="3.421 13.4628 12.738 13.4628 12.738 11.0388 3.421 11.0388"></polygon>
            <path d="M7.0156,11.0391 L8.0796,12.5701 C8.3386,12.9441 8.7656,13.1671 9.2196,13.1671 C9.6746,13.1671 10.1006,12.9441 10.3606,12.5701 L11.4236,11.0391 L7.0156,11.0391 Z" id="Fill-38" fill="#DDDDDD"></path>
            <path d="M12.7392,13.6973 L3.4212,13.6973 C3.2922,13.6973 3.1862,13.5923 3.1862,13.4633 C3.1862,13.3333 3.2922,13.2283 3.4212,13.2283 L12.5052,13.2283 L12.5052,11.2733 L3.4212,11.2733 C3.2922,11.2733 3.1862,11.1683 3.1862,11.0393 C3.1862,10.9093 3.2922,10.8043 3.4212,10.8043 L12.7392,10.8043 C12.8692,10.8043 12.9732,10.9093 12.9732,11.0393 L12.9732,13.4633 C12.9732,13.5923 12.8692,13.6973 12.7392,13.6973" id="Fill-39" fill="#222222"></path>
            <path d="M9.2197,9.1587 C8.5927,9.1587 8.0837,8.6497 8.0837,8.0217 C8.0837,7.3947 8.5927,6.8857 9.2197,6.8857 C9.8477,6.8857 10.3567,7.3947 10.3567,8.0217 C10.3567,8.6497 9.8477,9.1587 9.2197,9.1587 M9.2957,5.4617 C9.2707,5.4607 9.2447,5.4607 9.2197,5.4607 C9.1947,5.4607 9.1687,5.4607 9.1437,5.4617 C7.0947,5.5137 5.9437,7.8517 7.1137,9.5347 L8.8497,12.0357 C9.0297,12.2937 9.4107,12.2937 9.5897,12.0357 L11.3267,9.5347 C12.4967,7.8517 11.3447,5.5137 9.2957,5.4617" id="Fill-40" fill="#0155FC"></path>
            <path d="M9.2197,5.6954 L9.1487,5.6964 C8.2847,5.7184 7.5337,6.1964 7.1397,6.9734 C6.7387,7.7664 6.8007,8.6744 7.3047,9.4014 L9.0417,11.9024 C9.0837,11.9614 9.1477,11.9944 9.2197,11.9944 C9.2917,11.9944 9.3567,11.9604 9.3977,11.9014 L11.1347,9.4014 C11.6397,8.6744 11.7007,7.7664 11.2997,6.9734 C10.9067,6.1964 10.1557,5.7194 9.2917,5.6964 L9.2197,5.6954 Z M9.2197,12.4634 C8.9957,12.4634 8.7847,12.3534 8.6577,12.1694 L6.9207,9.6684 C6.3157,8.7984 6.2407,7.7114 6.7217,6.7614 C7.1957,5.8284 8.0977,5.2544 9.1377,5.2274 L9.2197,5.2264 L9.3007,5.2274 L9.3017,5.2274 C10.3417,5.2544 11.2447,5.8274 11.7177,6.7614 C12.1987,7.7114 12.1247,8.7974 11.5197,9.6684 L9.7817,12.1694 C9.6547,12.3534 9.4447,12.4634 9.2197,12.4634 Z" id="Fill-41" fill="#222222"></path>
            <path d="M9.2197,7.1202 C8.7227,7.1202 8.3177,7.5252 8.3177,8.0222 C8.3177,8.5192 8.7227,8.9242 9.2197,8.9242 C9.7167,8.9242 10.1217,8.5192 10.1217,8.0222 C10.1217,7.5252 9.7167,7.1202 9.2197,7.1202 M9.2197,9.3932 C8.4637,9.3932 7.8487,8.7782 7.8487,8.0222 C7.8487,7.2662 8.4637,6.6512 9.2197,6.6512 C9.9757,6.6512 10.5907,7.2662 10.5907,8.0222 C10.5907,8.7782 9.9757,9.3932 9.2197,9.3932" id="Fill-42" fill="#222222"></path>
            <path d="M5.293,16.0855 C5.32,16.0005 5.335,15.9095 5.335,15.8145 C5.335,15.3275 4.94,14.9325 4.453,14.9325 C3.965,14.9325 3.57,15.3275 3.57,15.8145 C3.57,15.9095 3.585,16.0005 3.613,16.0855 C3.218,16.1735 2.923,16.5255 2.923,16.9465 C2.923,17.4345 3.317,17.8295 3.806,17.8295 C4.062,17.8295 4.292,17.7205 4.453,17.5465 C4.614,17.7205 4.845,17.8295 5.101,17.8295 C5.588,17.8295 5.982,17.4345 5.982,16.9465 C5.982,16.5255 5.688,16.1735 5.293,16.0855" id="Fill-43" fill="#FFFFFF"></path>
            <path d="M8.3525,16.0855 C8.3795,16.0005 8.3955,15.9095 8.3955,15.8145 C8.3955,15.3275 7.9995,14.9325 7.5125,14.9325 C7.0255,14.9325 6.6295,15.3275 6.6295,15.8145 C6.6295,15.9095 6.6455,16.0005 6.6725,16.0855 C6.2785,16.1735 5.9825,16.5255 5.9825,16.9465 C5.9825,17.4345 6.3775,17.8295 6.8655,17.8295 C7.1215,17.8295 7.3515,17.7205 7.5125,17.5465 C7.6735,17.7205 7.9045,17.8295 8.1605,17.8295 C8.6475,17.8295 9.0425,17.4345 9.0425,16.9465 C9.0425,16.5255 8.7475,16.1735 8.3525,16.0855" id="Fill-44" fill="#FFFFFF"></path>
            <path d="M11.4131,16.0855 C11.4401,16.0005 11.4551,15.9095 11.4551,15.8145 C11.4551,15.3275 11.0601,14.9325 10.5721,14.9325 C10.0851,14.9325 9.6901,15.3275 9.6901,15.8145 C9.6901,15.9095 9.7051,16.0005 9.7321,16.0855 C9.3381,16.1735 9.0431,16.5255 9.0431,16.9465 C9.0431,17.4345 9.4371,17.8295 9.9251,17.8295 C10.1811,17.8295 10.4111,17.7205 10.5721,17.5465 C10.7341,17.7205 10.9641,17.8295 11.2201,17.8295 C11.7081,17.8295 12.1021,17.4345 12.1021,16.9465 C12.1021,16.5255 11.8081,16.1735 11.4131,16.0855" id="Fill-45" fill="#FFFFFF"></path>
            <path d="M4.4521,17.3121 C4.5181,17.3121 4.5801,17.3391 4.6251,17.3871 C4.7471,17.5191 4.9211,17.5951 5.1001,17.5951 C5.4571,17.5951 5.7481,17.3041 5.7481,16.9471 C5.7481,16.6461 5.5351,16.3801 5.2421,16.3151 C5.1781,16.3001 5.1221,16.2601 5.0891,16.2021 C5.0561,16.1451 5.0491,16.0761 5.0691,16.0131 C5.0901,15.9501 5.1001,15.8831 5.1001,15.8151 C5.1001,15.4581 4.8101,15.1671 4.4521,15.1671 C4.0951,15.1671 3.8051,15.4581 3.8051,15.8151 C3.8051,15.8821 3.8151,15.9501 3.8361,16.0151 C3.8561,16.0771 3.8481,16.1451 3.8151,16.2031 C3.7831,16.2601 3.7271,16.3001 3.6641,16.3151 C3.3701,16.3801 3.1571,16.6461 3.1571,16.9471 C3.1571,17.3041 3.4481,17.5951 3.8061,17.5951 C3.9851,17.5951 4.1581,17.5191 4.2811,17.3871 C4.3251,17.3391 4.3881,17.3121 4.4521,17.3121 M5.1001,18.0641 C4.8671,18.0641 4.6401,17.9901 4.4521,17.8571 C4.2651,17.9901 4.0381,18.0641 3.8061,18.0641 C3.1891,18.0641 2.6881,17.5631 2.6881,16.9471 C2.6881,16.5071 2.9521,16.1101 3.3421,15.9311 C3.3381,15.8931 3.3361,15.8541 3.3361,15.8151 C3.3361,15.1991 3.8371,14.6981 4.4521,14.6981 C5.0681,14.6981 5.5691,15.1991 5.5691,15.8151 C5.5691,15.8541 5.5671,15.8931 5.5631,15.9311 C5.9521,16.1101 6.2181,16.5071 6.2181,16.9471 C6.2181,17.5631 5.7171,18.0641 5.1001,18.0641" id="Fill-46" fill="#222222"></path>
            <path d="M7.5127,17.3121 C7.5777,17.3121 7.6397,17.3391 7.6847,17.3871 C7.8067,17.5191 7.9807,17.5951 8.1597,17.5951 C8.5177,17.5951 8.8087,17.3041 8.8087,16.9471 C8.8087,16.6461 8.5957,16.3801 8.3017,16.3151 C8.2367,16.3001 8.1817,16.2591 8.1487,16.2021 C8.1167,16.1451 8.1097,16.0761 8.1297,16.0131 C8.1507,15.9501 8.1597,15.8831 8.1597,15.8151 C8.1597,15.4581 7.8697,15.1671 7.5127,15.1671 C7.1557,15.1671 6.8657,15.4581 6.8657,15.8151 C6.8657,15.8831 6.8757,15.9501 6.8967,16.0131 C6.9157,16.0761 6.9087,16.1451 6.8767,16.2021 C6.8437,16.2601 6.7877,16.3001 6.7237,16.3151 C6.4307,16.3801 6.2177,16.6461 6.2177,16.9471 C6.2177,17.3041 6.5077,17.5951 6.8657,17.5951 C7.0447,17.5951 7.2187,17.5191 7.3407,17.3871 C7.3857,17.3391 7.4477,17.3121 7.5127,17.3121 M8.1597,18.0641 C7.9277,18.0641 7.7007,17.9901 7.5127,17.8571 C7.3257,17.9901 7.0977,18.0641 6.8657,18.0641 C6.2497,18.0641 5.7477,17.5631 5.7477,16.9471 C5.7477,16.5071 6.0127,16.1101 6.4027,15.9311 C6.3987,15.8931 6.3967,15.8541 6.3967,15.8151 C6.3967,15.1991 6.8977,14.6981 7.5127,14.6981 C8.1277,14.6981 8.6297,15.1991 8.6297,15.8151 C8.6297,15.8541 8.6277,15.8931 8.6227,15.9311 C9.0127,16.1101 9.2777,16.5071 9.2777,16.9471 C9.2777,17.5631 8.7767,18.0641 8.1597,18.0641" id="Fill-47" fill="#222222"></path>
            <path d="M10.5723,17.3121 C10.6373,17.3121 10.6993,17.3391 10.7443,17.3871 C10.8693,17.5211 11.0393,17.5951 11.2203,17.5951 C11.5783,17.5951 11.8683,17.3041 11.8683,16.9471 C11.8683,16.6461 11.6553,16.3801 11.3623,16.3151 C11.2983,16.3001 11.2423,16.2601 11.2103,16.2031 C11.1763,16.1451 11.1703,16.0771 11.1893,16.0151 C11.2103,15.9511 11.2203,15.8831 11.2203,15.8151 C11.2203,15.4581 10.9293,15.1671 10.5723,15.1671 C10.2153,15.1671 9.9253,15.4581 9.9253,15.8151 C9.9253,15.8831 9.9353,15.9511 9.9563,16.0151 C9.9753,16.0771 9.9683,16.1451 9.9353,16.2031 C9.9033,16.2601 9.8473,16.3001 9.7833,16.3151 C9.4903,16.3801 9.2773,16.6461 9.2773,16.9471 C9.2773,17.3041 9.5673,17.5951 9.9253,17.5951 C10.1043,17.5951 10.2773,17.5191 10.4003,17.3871 C10.4443,17.3391 10.5073,17.3121 10.5723,17.3121 M11.2203,18.0641 C10.9843,18.0641 10.7593,17.9921 10.5723,17.8571 C10.3843,17.9901 10.1573,18.0641 9.9253,18.0641 C9.3093,18.0641 8.8083,17.5631 8.8083,16.9471 C8.8083,16.5071 9.0733,16.1101 9.4623,15.9311 C9.4583,15.8931 9.4563,15.8541 9.4563,15.8151 C9.4563,15.1991 9.9573,14.6981 10.5723,14.6981 C11.1883,14.6981 11.6893,15.1991 11.6893,15.8151 C11.6893,15.8541 11.6873,15.8931 11.6833,15.9311 C12.0723,16.1101 12.3373,16.5071 12.3373,16.9471 C12.3373,17.5631 11.8363,18.0641 11.2203,18.0641" id="Fill-48" fill="#222222"></path>
            <path d="M4.4521,20.356 C4.3231,20.356 4.2191,20.251 4.2191,20.122 L4.2191,17.546 C4.2191,17.417 4.3231,17.312 4.4521,17.312 C4.5821,17.312 4.6871,17.417 4.6871,17.546 L4.6871,20.122 C4.6871,20.251 4.5821,20.356 4.4521,20.356" id="Fill-49" fill="#222222"></path>
            <path d="M7.5127,20.356 C7.3837,20.356 7.2787,20.251 7.2787,20.122 L7.2787,17.546 C7.2787,17.417 7.3837,17.312 7.5127,17.312 C7.6427,17.312 7.7467,17.417 7.7467,17.546 L7.7467,20.122 C7.7467,20.251 7.6427,20.356 7.5127,20.356" id="Fill-50" fill="#222222"></path>
            <path d="M10.5723,20.356 C10.4423,20.356 10.3383,20.251 10.3383,20.122 L10.3383,17.546 C10.3383,17.417 10.4423,17.312 10.5723,17.312 C10.7023,17.312 10.8063,17.417 10.8063,17.546 L10.8063,20.122 C10.8063,20.251 10.7023,20.356 10.5723,20.356" id="Fill-51" fill="#222222"></path>
            <path d="M2.6885,18.4756 C2.5595,18.4756 2.4545,18.3706 2.4545,18.2416 L2.4545,6.3776 C2.4545,6.2476 2.5595,6.1426 2.6885,6.1426 C2.8185,6.1426 2.9225,6.2476 2.9225,6.3776 L2.9225,18.2416 C2.9225,18.3706 2.8185,18.4756 2.6885,18.4756" id="Fill-52" fill="#0155FC"></path>
            <path d="M2.6885,5.5801 C2.5595,5.5801 2.4545,5.4751 2.4545,5.3461 L2.4545,5.1351 C2.4545,5.0051 2.5595,4.9001 2.6885,4.9001 C2.8185,4.9001 2.9225,5.0051 2.9225,5.1351 L2.9225,5.3461 C2.9225,5.4751 2.8185,5.5801 2.6885,5.5801" id="Fill-53" fill="#0155FC"></path>
        </g>
    </g>
</svg>