<?xml version="1.0" encoding="UTF-8"?>
<svg width="24px" height="24px" viewBox="0 0 24 24" version="1.1" xmlns="http://www.w3.org/2000/svg" xmlns:xlink="http://www.w3.org/1999/xlink">
    <!-- Generator: Sketch 49 (51002) - http://www.bohemiancoding.com/sketch -->
    <title>icons/do/routeerrors</title>
    <desc>Created with Sketch.</desc>
    <defs></defs>
    <g id="icons/do/routeerrors" stroke="none" stroke-width="1" fill="none" fill-rule="evenodd">
        <g id="Group">
            <polygon id="Fill-1" fill="#FFFFFF" points="0.2349 15.4952 7.9509 23.2122 12.0909 23.2122 0.2349 11.3562"></polygon>
            <path d="M12.0903,23.4458 C12.0303,23.4458 11.9703,23.4228 11.9243,23.3778 L0.0693,11.5218 C-0.0227,11.4298 -0.0227,11.2818 0.0693,11.1898 C0.1603,11.0988 0.3093,11.0988 0.4013,11.1898 L12.2563,23.0458 C12.3483,23.1368 12.3483,23.2858 12.2563,23.3778 C12.2103,23.4228 12.1503,23.4458 12.0903,23.4458" id="Fill-2" fill="#222222"></path>
            <path d="M7.9507,23.4458 C7.8907,23.4458 7.8307,23.4228 7.7847,23.3778 L2.8867,18.4798 C2.7947,18.3878 2.7947,18.2388 2.8867,18.1478 C2.9777,18.0568 3.1267,18.0568 3.2187,18.1478 L8.1167,23.0458 C8.2087,23.1368 8.2087,23.2858 8.1167,23.3778 C8.0707,23.4228 8.0107,23.4458 7.9507,23.4458" id="Fill-4" fill="#222222"></path>
            <path d="M8.9194,10.2568 C8.3144,10.2568 7.8214,9.7648 7.8214,9.1588 L7.8214,0.2348 L4.8954,0.2348 L4.8954,9.1588 C4.8954,11.3788 6.7004,13.1838 8.9194,13.1838" id="Fill-6" fill="#FFFFFF"></path>
            <path d="M8.9194,13.4185 C6.5704,13.4185 4.6604,11.5075 4.6604,9.1595 L4.6604,0.2345 C4.6604,0.1055 4.7654,0.0005 4.8954,0.0005 C5.0244,0.0005 5.1294,0.1055 5.1294,0.2345 L5.1294,9.1595 C5.1294,11.2495 6.8294,12.9495 8.9194,12.9495 C9.0494,12.9495 9.1534,13.0545 9.1534,13.1845 C9.1534,13.3135 9.0494,13.4185 8.9194,13.4185" id="Fill-8" fill="#222222"></path>
            <path d="M8.9194,10.4912 C8.1854,10.4912 7.5874,9.8932 7.5874,9.1592 L7.5874,0.2342 C7.5874,0.1052 7.6914,0.0002 7.8214,0.0002 C7.9514,0.0002 8.0564,0.1052 8.0564,0.2342 L8.0564,9.1592 C8.0564,9.6352 8.4434,10.0222 8.9194,10.0222 C9.0494,10.0222 9.1534,10.1272 9.1534,10.2572 C9.1534,10.3862 9.0494,10.4912 8.9194,10.4912" id="Fill-10" fill="#222222"></path>
            <path d="M23.2114,20.2842 L17.4404,20.2842 C17.0534,20.2842 16.7384,19.9702 16.7384,19.5832 L16.7384,0.2342 L15.4884,0.2342 L13.8124,0.2342 L13.8124,21.9162 C13.8124,22.6312 14.3924,23.2112 15.1074,23.2112 L16.7384,23.2112 L23.2114,23.2112" id="Fill-12" fill="#FFFFFF"></path>
            <path d="M23.2114,23.4458 L15.1074,23.4458 C14.2644,23.4458 13.5774,22.7598 13.5774,21.9158 L13.5774,0.2348 C13.5774,0.1048 13.6824,-0.0002 13.8124,-0.0002 C13.9414,-0.0002 14.0464,0.1048 14.0464,0.2348 L14.0464,21.9158 C14.0464,22.5008 14.5234,22.9768 15.1074,22.9768 L23.2114,22.9768 C23.3414,22.9768 23.4454,23.0818 23.4454,23.2118 C23.4454,23.3408 23.3414,23.4458 23.2114,23.4458" id="Fill-14" fill="#222222"></path>
            <path d="M23.2114,20.519 L17.4404,20.519 C16.9244,20.519 16.5044,20.099 16.5044,19.583 L16.5044,0.234 C16.5044,0.105 16.6084,0 16.7384,0 C16.8684,0 16.9734,0.105 16.9734,0.234 L16.9734,19.583 C16.9734,19.841 17.1834,20.05 17.4404,20.05 L23.2114,20.05 C23.3414,20.05 23.4454,20.155 23.4454,20.285 C23.4454,20.414 23.3414,20.519 23.2114,20.519" id="Fill-16" fill="#222222"></path>
            <path d="M0.2348,18.3135 L14.5278,18.3135 C16.7478,18.3135 18.5528,16.5075 18.5528,14.2885 C18.5528,12.0695 16.7478,10.2635 14.5278,10.2635 L14.1868,10.2635 L14.1868,10.2555 L8.9188,10.2555 C8.3128,10.2555 7.8208,9.7625 7.8208,9.1575 C7.8208,8.5525 8.3128,8.0605 8.9188,8.0605 L23.2118,8.0605 L23.2118,5.1325 L8.9188,5.1325 C6.6988,5.1325 4.8928,6.9385 4.8928,9.1575 C4.8928,11.3765 6.6988,13.1825 8.9188,13.1825 L9.2588,13.1825 L9.2588,13.1905 L14.5278,13.1905 C15.1328,13.1905 15.6268,13.6835 15.6268,14.2885 C15.6268,14.8935 15.1328,15.3865 14.5278,15.3865 L0.2348,15.3865" id="Fill-18" fill="#FFFFFF"></path>
            <path d="M1.9956,15.3862 L3.1446,17.0402 C3.3996,17.4072 3.8186,17.6262 4.2656,17.6262 C4.7126,17.6262 5.1316,17.4072 5.3866,17.0402 L6.5346,15.3862 L1.9956,15.3862 Z" id="Fill-20" fill="#DDDDDD"></path>
            <path d="M17.937,5.1328 L19.231,6.9948 C19.486,7.3618 19.905,7.5808 20.351,7.5808 C20.798,7.5808 21.217,7.3618 21.472,6.9948 L22.765,5.1328 L17.937,5.1328 Z" id="Fill-22" fill="#DDDDDD"></path>
            <path d="M7.6304,12.9702 C7.6734,12.3662 7.5544,11.7492 7.2694,11.1872 C6.7834,10.2292 5.9204,9.5872 4.9014,9.3992 C4.9994,11.0622 6.1134,12.4562 7.6304,12.9702" id="Fill-24" fill="#DDDDDD"></path>
            <path d="M14.5278,15.6206 L0.2348,15.6206 C0.1048,15.6206 0.0008,15.5156 0.0008,15.3866 C0.0008,15.2566 0.1048,15.1516 0.2348,15.1516 L14.5278,15.1516 C15.0038,15.1516 15.3908,14.7646 15.3908,14.2886 C15.3908,13.8126 15.0038,13.4256 14.5278,13.4256 L9.2588,13.4256 C9.2378,13.4256 9.2168,13.4226 9.1968,13.4166 L8.9188,13.4166 C6.5698,13.4166 4.6588,11.5066 4.6588,9.1576 C4.6588,6.8086 6.5698,4.8986 8.9188,4.8986 L23.2118,4.8986 C23.3408,4.8986 23.4458,5.0036 23.4458,5.1326 C23.4458,5.2626 23.3408,5.3676 23.2118,5.3676 L8.9188,5.3676 C6.8288,5.3676 5.1278,7.0676 5.1278,9.1576 C5.1278,11.2476 6.8288,12.9486 8.9188,12.9486 L9.2588,12.9486 C9.2808,12.9486 9.3008,12.9516 9.3218,12.9566 L14.5278,12.9566 C15.2618,12.9566 15.8598,13.5546 15.8598,14.2886 C15.8598,15.0226 15.2618,15.6206 14.5278,15.6206" id="Fill-26" fill="#222222"></path>
            <path d="M14.5278,16.5586 L9.9878,16.5586 C9.8578,16.5586 9.7538,16.4536 9.7538,16.3246 C9.7538,16.1946 9.8578,16.0896 9.9878,16.0896 L14.5278,16.0896 C15.0788,16.0896 15.5908,15.8416 15.9358,15.4106 C16.0178,15.3086 16.1648,15.2926 16.2658,15.3726 C16.3668,15.4536 16.3828,15.6006 16.3028,15.7026 C15.8688,16.2466 15.2218,16.5586 14.5278,16.5586" id="Fill-28" fill="#0155FC"></path>
            <path d="M16.5513,14.7451 C16.5423,14.7451 16.5323,14.7451 16.5233,14.7441 C16.3953,14.7281 16.3033,14.6111 16.3193,14.4821 C16.3263,14.4191 16.3293,14.3541 16.3293,14.2881 C16.3293,14.1591 16.4343,14.0541 16.5643,14.0541 C16.6943,14.0541 16.7983,14.1591 16.7983,14.2881 C16.7983,14.3731 16.7933,14.4571 16.7833,14.5391 C16.7703,14.6581 16.6683,14.7451 16.5513,14.7451" id="Fill-30" fill="#0155FC"></path>
            <path d="M16.8218,15.647 C16.4118,15.986 16.1538,16.498 16.1538,17.053 C16.1538,17.349 16.2248,17.628 16.3508,17.876 C17.6568,17.209 18.5528,15.852 18.5528,14.289 C18.5528,14.226 18.5508,14.164 18.5488,14.103 C17.6708,14.137 16.9508,14.796 16.8218,15.647" id="Fill-32" fill="#DDDDDD"></path>
            <path d="M5.9116,8.688 C5.8936,8.688 5.8766,8.686 5.8576,8.682 C5.7316,8.652 5.6536,8.526 5.6826,8.4 C6.0376,6.891 7.3676,5.836 8.9186,5.836 L13.7166,5.836 C13.8466,5.836 13.9506,5.941 13.9506,6.071 C13.9506,6.2 13.8466,6.305 13.7166,6.305 L8.9186,6.305 C7.5866,6.305 6.4436,7.211 6.1406,8.507 C6.1146,8.615 6.0176,8.688 5.9116,8.688" id="Fill-34" fill="#0155FC"></path>
            <path d="M15.6147,6.3052 L15.2867,6.3052 C15.1567,6.3052 15.0527,6.2002 15.0527,6.0712 C15.0527,5.9412 15.1567,5.8362 15.2867,5.8362 L15.6147,5.8362 C15.7447,5.8362 15.8487,5.9412 15.8487,6.0712 C15.8487,6.2002 15.7447,6.3052 15.6147,6.3052" id="Fill-36" fill="#0155FC"></path>
            <path d="M14.5278,18.5479 L0.2348,18.5479 C0.1048,18.5479 0.0008,18.4429 0.0008,18.3139 C0.0008,18.1839 0.1048,18.0789 0.2348,18.0789 L14.5278,18.0789 C16.6178,18.0789 18.3188,16.3789 18.3188,14.2889 C18.3188,12.1989 16.6178,10.4979 14.5278,10.4979 L14.1868,10.4979 C14.1658,10.4979 14.1448,10.4949 14.1248,10.4899 L8.9188,10.4899 C8.1838,10.4899 7.5868,9.8919 7.5868,9.1579 C7.5868,8.4229 8.1838,7.8259 8.9188,7.8259 L23.2118,7.8259 C23.3408,7.8259 23.4458,7.9309 23.4458,8.0599 C23.4458,8.1899 23.3408,8.2949 23.2118,8.2949 L8.9188,8.2949 C8.4428,8.2949 8.0548,8.6819 8.0548,9.1579 C8.0548,9.6339 8.4428,10.0209 8.9188,10.0209 L14.1868,10.0209 C14.2088,10.0209 14.2288,10.0239 14.2498,10.0289 L14.5278,10.0289 C16.8768,10.0289 18.7878,11.9399 18.7878,14.2889 C18.7878,16.6369 16.8768,18.5479 14.5278,18.5479" id="Fill-38" fill="#222222"></path>
            <path d="M20.3511,3.7358 C19.7561,3.7358 19.2751,3.2548 19.2751,2.6598 C19.2751,2.0658 19.7561,1.5838 20.3511,1.5838 C20.9461,1.5838 21.4271,2.0658 21.4271,2.6598 C21.4271,3.2548 20.9461,3.7358 20.3511,3.7358 M20.4231,0.2358 C20.3991,0.2348 20.3751,0.2348 20.3511,0.2348 C20.3271,0.2348 20.3031,0.2348 20.2791,0.2358 C18.3391,0.2848 17.2481,2.4978 18.3561,4.0918 L20.0001,6.4598 C20.1701,6.7048 20.5321,6.7048 20.7021,6.4598 L22.3461,4.0918 C23.4541,2.4978 22.3641,0.2848 20.4231,0.2358" id="Fill-40" fill="#0155FC"></path>
            <path d="M20.3511,0.4687 L20.2871,0.4697 C19.4711,0.4907 18.7641,0.9397 18.3931,1.6727 C18.0151,2.4187 18.0731,3.2737 18.5481,3.9587 L20.1931,6.3267 C20.2651,6.4307 20.4371,6.4307 20.5091,6.3267 L22.1541,3.9587 C22.6291,3.2737 22.6881,2.4187 22.3091,1.6717 C21.9381,0.9397 21.2311,0.4907 20.4171,0.4697 L20.4151,0.4697 L20.3511,0.4687 Z M20.3511,6.8777 C20.1341,6.8777 19.9321,6.7717 19.8081,6.5937 L18.1631,4.2257 C17.5871,3.3977 17.5171,2.3637 17.9751,1.4607 C18.4251,0.5717 19.2841,0.0267 20.2731,0.0007 L20.3511,-0.0003 L20.4251,0.0007 L20.4291,0.0007 C21.4181,0.0267 22.2781,0.5717 22.7271,1.4597 C23.1851,2.3637 23.1151,3.3967 22.5391,4.2257 L20.8941,6.5937 C20.7701,6.7717 20.5681,6.8777 20.3511,6.8777 Z" id="Fill-42" fill="#222222"></path>
            <path d="M20.3511,1.8179 C19.8871,1.8179 19.5091,2.1949 19.5091,2.6599 C19.5091,3.1239 19.8871,3.5019 20.3511,3.5019 C20.8151,3.5019 21.1931,3.1239 21.1931,2.6599 C21.1931,2.1949 20.8151,1.8179 20.3511,1.8179 M20.3511,3.9699 C19.6281,3.9699 19.0401,3.3819 19.0401,2.6599 C19.0401,1.9369 19.6281,1.3489 20.3511,1.3489 C21.0741,1.3489 21.6621,1.9369 21.6621,2.6599 C21.6621,3.3819 21.0741,3.9699 20.3511,3.9699" id="Fill-45" fill="#222222"></path>
            <path d="M4.2651,13.7808 C3.6711,13.7808 3.1891,13.2988 3.1891,12.7048 C3.1891,12.1098 3.6711,11.6288 4.2651,11.6288 C4.8601,11.6288 5.3411,12.1098 5.3411,12.7048 C5.3411,13.2988 4.8601,13.7808 4.2651,13.7808 M4.3371,10.2808 C4.3141,10.2798 4.2891,10.2798 4.2651,10.2798 C4.2421,10.2798 4.2171,10.2798 4.1931,10.2808 C2.2531,10.3298 1.1621,12.5428 2.2701,14.1368 L3.9141,16.5048 C4.0841,16.7488 4.4461,16.7488 4.6161,16.5048 L6.2611,14.1368 C7.3681,12.5428 6.2781,10.3298 4.3371,10.2808" id="Fill-47" fill="#0155FC"></path>
            <path d="M4.2651,10.5137 L4.1981,10.5147 C3.3851,10.5357 2.6781,10.9857 2.3071,11.7177 C1.9291,12.4637 1.9871,13.3187 2.4621,14.0027 L4.1071,16.3707 C4.1791,16.4757 4.3511,16.4757 4.4231,16.3707 L6.0691,14.0027 C6.5441,13.3187 6.6021,12.4637 6.2231,11.7167 C5.8521,10.9847 5.1451,10.5357 4.3311,10.5147 L4.2651,10.5137 Z M4.2651,16.9227 C4.0481,16.9227 3.8461,16.8167 3.7221,16.6387 L2.0771,14.2707 C1.5011,13.4417 1.4311,12.4087 1.8891,11.5057 C2.3391,10.6167 3.1981,10.0717 4.1871,10.0457 L4.2651,10.0447 L4.3421,10.0457 L4.3431,10.0457 C5.3321,10.0717 6.1921,10.6167 6.6421,11.5047 C7.0991,12.4077 7.0291,13.4417 6.4531,14.2707 L4.8081,16.6387 C4.6841,16.8167 4.4821,16.9227 4.2651,16.9227 Z" id="Fill-49" fill="#222222"></path>
            <path d="M4.2651,11.8628 C3.8011,11.8628 3.4231,12.2398 3.4231,12.7048 C3.4231,13.1688 3.8011,13.5468 4.2651,13.5468 C4.7291,13.5468 5.1071,13.1688 5.1071,12.7048 C5.1071,12.2398 4.7291,11.8628 4.2651,11.8628 M4.2651,14.0148 C3.5421,14.0148 2.9541,13.4268 2.9541,12.7048 C2.9541,11.9818 3.5421,11.3938 4.2651,11.3938 C4.9881,11.3938 5.5761,11.9818 5.5761,12.7048 C5.5761,13.4268 4.9881,14.0148 4.2651,14.0148" id="Fill-51" fill="#222222"></path>
            <path d="M19.4614,16.1919 C19.4884,16.1069 19.5044,16.0159 19.5044,15.9209 C19.5044,15.4339 19.1084,15.0389 18.6214,15.0389 C18.1344,15.0389 17.7384,15.4339 17.7384,15.9209 C17.7384,16.0159 17.7544,16.1069 17.7814,16.1919 C17.3874,16.2799 17.0914,16.6319 17.0914,17.0529 C17.0914,17.5409 17.4864,17.9359 17.9744,17.9359 C18.2304,17.9359 18.4604,17.8269 18.6214,17.6519 C18.7824,17.8269 19.0134,17.9359 19.2694,17.9359 C19.7564,17.9359 20.1514,17.5409 20.1514,17.0529 C20.1514,16.6319 19.8564,16.2799 19.4614,16.1919" id="Fill-53" fill="#FFFFFF"></path>
            <path d="M22.522,16.1919 C22.549,16.1069 22.564,16.0159 22.564,15.9209 C22.564,15.4339 22.168,15.0389 21.681,15.0389 C21.194,15.0389 20.799,15.4339 20.799,15.9209 C20.799,16.0159 20.814,16.1069 20.841,16.1919 C20.447,16.2799 20.152,16.6319 20.152,17.0529 C20.152,17.5409 20.546,17.9359 21.034,17.9359 C21.29,17.9359 21.52,17.8269 21.681,17.6519 C21.843,17.8269 22.073,17.9359 22.329,17.9359 C22.817,17.9359 23.211,17.5409 23.211,17.0529 C23.211,16.6319 22.917,16.2799 22.522,16.1919" id="Fill-55" fill="#FFFFFF"></path>
            <path d="M18.6216,17.418 C18.6866,17.418 18.7496,17.445 18.7936,17.493 C18.9176,17.627 19.0866,17.701 19.2686,17.701 C19.6266,17.701 19.9176,17.411 19.9176,17.053 C19.9176,16.752 19.7046,16.486 19.4106,16.421 C19.3466,16.406 19.2906,16.366 19.2586,16.309 C19.2256,16.251 19.2186,16.183 19.2376,16.121 C19.2596,16.055 19.2696,15.987 19.2696,15.921 C19.2696,15.564 18.9786,15.273 18.6216,15.273 C18.2646,15.273 17.9736,15.564 17.9736,15.921 C17.9736,15.987 17.9836,16.055 18.0056,16.121 C18.0246,16.183 18.0176,16.251 17.9846,16.309 C17.9526,16.366 17.8966,16.406 17.8326,16.421 C17.5386,16.486 17.3256,16.752 17.3256,17.053 C17.3256,17.411 17.6166,17.701 17.9746,17.701 C18.1566,17.701 18.3256,17.627 18.4496,17.493 C18.4936,17.445 18.5566,17.418 18.6216,17.418 M19.2686,18.17 C19.0356,18.17 18.8086,18.096 18.6216,17.963 C18.4346,18.096 18.2076,18.17 17.9746,18.17 C17.3576,18.17 16.8566,17.669 16.8566,17.053 C16.8566,16.613 17.1216,16.216 17.5106,16.037 C17.5066,15.999 17.5046,15.96 17.5046,15.921 C17.5046,15.305 18.0056,14.804 18.6216,14.804 C19.2376,14.804 19.7386,15.305 19.7386,15.921 C19.7386,15.96 19.7366,15.999 19.7326,16.037 C20.1216,16.216 20.3866,16.613 20.3866,17.053 C20.3866,17.669 19.8856,18.17 19.2686,18.17" id="Fill-57" fill="#222222"></path>
            <path d="M21.6811,17.418 C21.7461,17.418 21.8091,17.445 21.8531,17.493 C21.9771,17.627 22.1461,17.701 22.3281,17.701 C22.6861,17.701 22.9771,17.411 22.9771,17.053 C22.9771,16.752 22.7641,16.486 22.4711,16.421 C22.4071,16.406 22.3511,16.366 22.3191,16.309 C22.2851,16.251 22.2791,16.183 22.2981,16.121 C22.3191,16.057 22.3291,15.989 22.3291,15.921 C22.3291,15.564 22.0381,15.273 21.6811,15.273 C21.3241,15.273 21.0341,15.564 21.0341,15.921 C21.0341,15.989 21.0441,16.057 21.0651,16.121 C21.0841,16.183 21.0771,16.251 21.0441,16.309 C21.0121,16.366 20.9561,16.406 20.8921,16.421 C20.5991,16.486 20.3861,16.752 20.3861,17.053 C20.3861,17.411 20.6761,17.701 21.0341,17.701 C21.2161,17.701 21.3851,17.627 21.5091,17.493 C21.5531,17.445 21.6161,17.418 21.6811,17.418 M22.3281,18.17 C22.0951,18.17 21.8681,18.096 21.6811,17.963 C21.4941,18.096 21.2671,18.17 21.0341,18.17 C20.4181,18.17 19.9171,17.669 19.9171,17.053 C19.9171,16.613 20.1821,16.216 20.5711,16.037 C20.5671,15.999 20.5651,15.96 20.5651,15.921 C20.5651,15.305 21.0661,14.804 21.6811,14.804 C22.2971,14.804 22.7981,15.305 22.7981,15.921 C22.7981,15.96 22.7961,15.999 22.7921,16.037 C23.1811,16.216 23.4461,16.613 23.4461,17.053 C23.4461,17.669 22.9451,18.17 22.3281,18.17" id="Fill-59" fill="#222222"></path>
            <path d="M18.6216,20.4619 C18.4916,20.4619 18.3876,20.3569 18.3876,20.2279 L18.3876,17.6519 C18.3876,17.5229 18.4916,17.4179 18.6216,17.4179 C18.7516,17.4179 18.8556,17.5229 18.8556,17.6519 L18.8556,20.2279 C18.8556,20.3569 18.7516,20.4619 18.6216,20.4619" id="Fill-62" fill="#222222"></path>
            <path d="M21.6811,20.4619 C21.5511,20.4619 21.4471,20.3569 21.4471,20.2279 L21.4471,17.6519 C21.4471,17.5229 21.5511,17.4179 21.6811,17.4179 C21.8111,17.4179 21.9151,17.5229 21.9151,17.6519 L21.9151,20.2279 C21.9151,20.3569 21.8111,20.4619 21.6811,20.4619" id="Fill-64" fill="#222222"></path>
            <path d="M11.6284,1.3877 C11.6554,1.3027 11.6704,1.2117 11.6704,1.1167 C11.6704,0.6297 11.2754,0.2347 10.7874,0.2347 C10.3004,0.2347 9.9054,0.6297 9.9054,1.1167 C9.9054,1.2117 9.9204,1.3027 9.9474,1.3877 C9.5534,1.4757 9.2584,1.8277 9.2584,2.2487 C9.2584,2.7367 9.6524,3.1317 10.1404,3.1317 C10.3974,3.1317 10.6264,3.0227 10.7874,2.8487 C10.9484,3.0227 11.1794,3.1317 11.4364,3.1317 C11.9234,3.1317 12.3174,2.7367 12.3174,2.2487 C12.3174,1.8277 12.0234,1.4757 11.6284,1.3877" id="Fill-66" fill="#FFFFFF"></path>
            <path d="M10.7876,2.6143 C10.8526,2.6143 10.9146,2.6413 10.9596,2.6893 C11.0846,2.8223 11.2536,2.8973 11.4356,2.8973 C11.7936,2.8973 12.0836,2.6063 12.0836,2.2493 C12.0836,1.9473 11.8706,1.6813 11.5776,1.6163 C11.5136,1.6023 11.4576,1.5613 11.4256,1.5043 C11.3916,1.4473 11.3856,1.3783 11.4046,1.3163 C11.4256,1.2523 11.4356,1.1853 11.4356,1.1173 C11.4356,0.7603 11.1446,0.4683 10.7876,0.4683 C10.4306,0.4683 10.1406,0.7603 10.1406,1.1173 C10.1406,1.1853 10.1506,1.2523 10.1716,1.3163 C10.1906,1.3783 10.1836,1.4473 10.1506,1.5043 C10.1186,1.5613 10.0626,1.6023 9.9986,1.6163 C9.7056,1.6813 9.4926,1.9473 9.4926,2.2493 C9.4926,2.6063 9.7826,2.8973 10.1406,2.8973 C10.3226,2.8973 10.4916,2.8233 10.6156,2.6893 C10.6596,2.6413 10.7226,2.6143 10.7876,2.6143 M11.4356,3.3653 C11.1986,3.3653 10.9746,3.2933 10.7876,3.1593 C10.6006,3.2923 10.3736,3.3653 10.1406,3.3653 C9.5246,3.3653 9.0236,2.8643 9.0236,2.2493 C9.0236,1.8083 9.2886,1.4123 9.6776,1.2333 C9.6736,1.1953 9.6716,1.1563 9.6716,1.1173 C9.6716,0.5013 10.1726,0.0003 10.7876,0.0003 C11.4036,0.0003 11.9046,0.5013 11.9046,1.1173 C11.9046,1.1563 11.9026,1.1953 11.8986,1.2333 C12.2876,1.4123 12.5526,1.8083 12.5526,2.2493 C12.5526,2.8643 12.0516,3.3653 11.4356,3.3653" id="Fill-68" fill="#222222"></path>
            <path d="M10.7876,5.3672 C10.6576,5.3672 10.5536,5.2622 10.5536,5.1332 L10.5536,2.8482 C10.5536,2.7192 10.6576,2.6142 10.7876,2.6142 C10.9176,2.6142 11.0216,2.7192 11.0216,2.8482 L11.0216,5.1332 C11.0216,5.2622 10.9176,5.3672 10.7876,5.3672" id="Fill-70" fill="#222222"></path>
        </g>
    </g>
</svg>