<?xml version="1.0" encoding="UTF-8"?>
<svg width="24px" height="24px" viewBox="0 0 24 24" version="1.1" xmlns="http://www.w3.org/2000/svg" xmlns:xlink="http://www.w3.org/1999/xlink">
    <!-- Generator: Sketch 49 (51002) - http://www.bohemiancoding.com/sketch -->
    <title>icons/do/smothroute</title>
    <desc>Created with Sketch.</desc>
    <defs></defs>
    <g id="icons/do/smothroute" stroke="none" stroke-width="1" fill="none" fill-rule="evenodd">
        <g id="Group" transform="translate(2.000000, 0.000000)">
            <path d="M6.2715,4.2984 L6.2715,6.8314 L6.2815,6.8314 L6.2815,7.2144 C6.2815,9.7014 8.3045,11.7244 10.7925,11.7244 L10.9095,11.7204 L14.8445,11.7204 C15.5235,11.7204 16.0755,12.2724 16.0755,12.9504 C16.0755,13.6284 15.5235,14.1804 14.8445,14.1804 L7.9755,14.1804 L7.9755,14.1904 L7.5935,14.1904 C5.1065,14.1904 3.0835,16.2134 3.0835,18.7004 C3.0835,21.1884 5.1065,23.2114 7.5935,23.2114 L16.5865,23.2114 L15.1115,19.9314 L7.5935,19.9314 C6.9155,19.9314 6.3635,19.3794 6.3635,18.7004 C6.3635,18.0224 6.9155,17.4704 7.5935,17.4704 L14.4615,17.4704 L14.4615,17.4614 L14.8445,17.4614 C17.3325,17.4614 19.3555,15.4374 19.3555,12.9504 C19.3555,10.4634 17.3325,8.4394 14.8445,8.4394 L10.9095,8.4394 L10.7925,8.4444 C10.1135,8.4444 9.5615,7.8924 9.5615,7.2144 L9.5515,4.2984" id="Fill-1" fill="#FFFFFF"></path>
            <path d="M7.5938,22.5083 C5.4938,22.5083 3.7858,20.8003 3.7858,18.7003 C3.7858,16.6013 5.4938,14.8933 7.5938,14.8933 L8.9038,14.8933 C9.0328,14.8933 9.1378,14.9983 9.1378,15.1283 C9.1378,15.2573 9.0328,15.3623 8.9038,15.3623 L7.5938,15.3623 C5.7528,15.3623 4.2548,16.8603 4.2548,18.7003 C4.2548,20.5413 5.7528,22.0393 7.5938,22.0393 C7.7238,22.0393 7.8278,22.1443 7.8278,22.2743 C7.8278,22.4033 7.7238,22.5083 7.5938,22.5083" id="Fill-3" fill="#0155FC"></path>
            <path d="M11.0147,15.3623 L10.1697,15.3623 C10.0407,15.3623 9.9357,15.2573 9.9357,15.1283 C9.9357,14.9983 10.0407,14.8933 10.1697,14.8933 L11.0147,14.8933 C11.1437,14.8933 11.2487,14.9983 11.2487,15.1283 C11.2487,15.2573 11.1437,15.3623 11.0147,15.3623" id="Fill-5" fill="#0155FC"></path>
            <path d="M10.7823,11.021 C9.8803,11.017 9.0113,10.696 8.3303,10.117 C8.2313,10.033 8.2193,9.885 8.3033,9.786 C8.3863,9.687 8.5343,9.674 8.6343,9.759 C9.2313,10.267 9.9923,10.549 10.7753,10.552 L10.8653,10.549 L14.8443,10.548 C14.9743,10.548 15.0793,10.653 15.0793,10.782 C15.0793,10.912 14.9743,11.017 14.8443,11.017 L10.7823,11.021 Z" id="Fill-7" fill="#0155FC"></path>
            <path d="M7.6377,9.1265 C7.5537,9.1265 7.4737,9.0815 7.4317,9.0025 C7.3997,8.9435 7.3687,8.8825 7.3407,8.8215 C7.2857,8.7035 7.3367,8.5645 7.4527,8.5095 C7.5717,8.4545 7.7117,8.5055 7.7657,8.6235 C7.7897,8.6765 7.8167,8.7295 7.8447,8.7815 C7.9057,8.8955 7.8627,9.0375 7.7487,9.0985 C7.7127,9.1175 7.6747,9.1265 7.6377,9.1265" id="Fill-9" fill="#0155FC"></path>
            <path d="M6.2715,4.2984 L6.2715,6.7804 L6.4055,6.9744 C6.7445,7.4624 7.3005,7.7534 7.8945,7.7534 C8.4885,7.7534 9.0455,7.4624 9.3845,6.9744 L9.5595,6.7214 L9.5515,4.2984 L6.2715,4.2984 Z" id="Fill-11" fill="#DDDDDD"></path>
            <path d="M15.1114,19.9312 L12.9204,19.9312 C12.9974,20.5142 13.2114,21.0802 13.5584,21.5812 L14.6914,23.2112 L16.5874,23.2112 L15.1114,19.9312 Z" id="Fill-13" fill="#DDDDDD"></path>
            <path d="M18.1465,16.0201 C17.7055,15.8211 17.2225,15.7081 16.7225,15.6951 C16.6875,15.6941 16.6525,15.6931 16.6175,15.6931 C16.5825,15.6931 16.5465,15.6941 16.5115,15.6951 C15.2485,15.7271 14.0985,16.4001 13.4435,17.4711 L14.4615,17.4711 L14.4615,17.4611 L14.8445,17.4611 C16.1475,17.4611 17.3225,16.9061 18.1465,16.0201" id="Fill-15" fill="#DDDDDD"></path>
            <path d="M15.4082,20.1656 L7.5942,20.1656 C6.7862,20.1656 6.1292,19.5086 6.1292,18.7006 C6.1292,17.8936 6.7862,17.2366 7.5942,17.2366 L14.3992,17.2366 C14.4202,17.2296 14.4402,17.2276 14.4622,17.2276 L14.8452,17.2276 C17.2032,17.2276 19.1212,15.3086 19.1212,12.9506 C19.1212,10.5926 17.2032,8.6736 14.8452,8.6736 L10.8002,8.6786 C9.9832,8.6786 9.3272,8.0216 9.3272,7.2136 L9.3172,4.2996 C9.3172,4.1696 9.4222,4.0646 9.5512,4.0636 L9.5532,4.0636 C9.6812,4.0636 9.7862,4.1686 9.7872,4.2976 L9.7962,7.2126 C9.7962,7.7626 10.2422,8.2096 10.7912,8.2096 L10.9002,8.2056 L14.8452,8.2056 C17.4622,8.2056 19.5902,10.3336 19.5902,12.9506 C19.5902,15.5666 17.4622,17.6956 14.8452,17.6956 L14.5252,17.6956 C14.5052,17.7026 14.4842,17.7056 14.4622,17.7056 L7.5942,17.7056 C7.0452,17.7056 6.5972,18.1516 6.5972,18.7006 C6.5972,19.2496 7.0452,19.6966 7.5942,19.6966 L15.4082,19.6966 C15.5372,19.6966 15.6422,19.8016 15.6422,19.9316 C15.6422,20.0606 15.5372,20.1656 15.4082,20.1656" id="Fill-17" fill="#222222"></path>
            <path d="M16.5869,23.4458 L7.5939,23.4458 C4.9779,23.4458 2.8489,21.3178 2.8489,18.7008 C2.8489,16.0838 4.9779,13.9558 7.5939,13.9558 L7.9129,13.9558 C7.9329,13.9488 7.9539,13.9458 7.9759,13.9458 L14.8449,13.9458 C15.3949,13.9458 15.8409,13.4998 15.8409,12.9498 C15.8409,12.4018 15.3949,11.9548 14.8449,11.9548 L10.7999,11.9588 C8.1749,11.9588 6.0459,9.8308 6.0459,7.2138 L6.0459,6.8948 C6.0399,6.8748 6.0369,6.8538 6.0369,6.8318 L6.0369,4.2988 C6.0369,4.1688 6.1419,4.0638 6.2719,4.0638 C6.3999,4.0638 6.5059,4.1688 6.5059,4.2988 L6.5059,6.7688 C6.5119,6.7888 6.5159,6.8098 6.5159,6.8318 L6.5159,7.2138 C6.5159,9.5718 8.4339,11.4898 10.7909,11.4898 L10.8999,11.4858 L14.8449,11.4858 C15.6519,11.4858 16.3099,12.1428 16.3099,12.9498 C16.3099,13.7578 15.6519,14.4148 14.8449,14.4148 L8.0389,14.4148 C8.0199,14.4218 7.9979,14.4248 7.9759,14.4248 L7.5939,14.4248 C5.2359,14.4248 3.3169,16.3428 3.3169,18.7008 C3.3169,21.0588 5.2359,22.9768 7.5939,22.9768 L16.5869,22.9768 C16.7159,22.9768 16.8209,23.0818 16.8209,23.2118 C16.8209,23.3408 16.7159,23.4458 16.5869,23.4458" id="Fill-20" fill="#222222"></path>
            <path d="M7.8946,3.5738 C7.3286,3.5738 6.8696,3.1148 6.8696,2.5478 C6.8696,1.9808 7.3286,1.5208 7.8946,1.5208 C8.4616,1.5208 8.9206,1.9808 8.9206,2.5478 C8.9206,3.1148 8.4616,3.5738 7.8946,3.5738 M7.9636,0.2358 C7.9406,0.2348 7.9176,0.2348 7.8946,0.2348 C7.8726,0.2348 7.8486,0.2348 7.8266,0.2358 C5.9756,0.2828 4.9366,2.3928 5.9926,3.9128 L7.5606,6.1718 C7.7226,6.4048 8.0676,6.4048 8.2296,6.1718 L9.7976,3.9128 C10.8536,2.3928 9.8136,0.2828 7.9636,0.2358" id="Fill-22" fill="#0155FC"></path>
            <path d="M16.6172,20.439 C16.0502,20.439 15.5912,19.98 15.5912,19.413 C15.5912,18.846 16.0502,18.387 16.6172,18.387 C17.1832,18.387 17.6432,18.846 17.6432,19.413 C17.6432,19.98 17.1832,20.439 16.6172,20.439 M16.6852,17.101 C16.6632,17.101 16.6392,17.1 16.6172,17.1 C16.5942,17.1 16.5712,17.101 16.5482,17.101 C14.6982,17.148 13.6582,19.259 14.7142,20.779 L16.2822,23.037 C16.4442,23.27 16.7892,23.27 16.9512,23.037 L18.5192,20.779 C19.5752,19.259 18.5362,17.148 16.6852,17.101" id="Fill-24" fill="#0155FC"></path>
            <path d="M16.6162,17.3345 L16.5542,17.3355 C15.7822,17.3555 15.1112,17.7815 14.7592,18.4765 C14.4002,19.1845 14.4552,19.9955 14.9062,20.6455 L16.4742,22.9035 C16.5082,22.9505 16.5592,22.9775 16.6162,22.9775 C16.6742,22.9775 16.7252,22.9505 16.7592,22.9035 L18.3272,20.6455 C18.7782,19.9955 18.8332,19.1845 18.4742,18.4765 C18.1232,17.7815 17.4522,17.3555 16.6792,17.3355 L16.6162,17.3345 Z M16.6162,23.4465 C16.4062,23.4465 16.2092,23.3435 16.0902,23.1705 L14.5212,20.9125 C13.9702,20.1195 13.9032,19.1285 14.3412,18.2645 C14.7712,17.4135 15.5952,16.8915 16.5422,16.8665 L16.6162,16.8655 L16.6902,16.8665 L16.6912,16.8665 C17.6382,16.8915 18.4622,17.4135 18.8922,18.2645 C19.3312,19.1285 19.2622,20.1195 18.7122,20.9125 L17.1432,23.1705 C17.0232,23.3435 16.8272,23.4465 16.6162,23.4465 Z" id="Fill-26" fill="#222222"></path>
            <path d="M16.6162,18.6211 C16.1792,18.6211 15.8252,18.9761 15.8252,19.4131 C15.8252,19.8491 16.1792,20.2041 16.6162,20.2041 C17.0532,20.2041 17.4082,19.8491 17.4082,19.4131 C17.4082,18.9761 17.0532,18.6211 16.6162,18.6211 M16.6162,20.6731 C15.9222,20.6731 15.3562,20.1081 15.3562,19.4131 C15.3562,18.7181 15.9222,18.1521 16.6162,18.1521 C17.3112,18.1521 17.8782,18.7181 17.8782,19.4131 C17.8782,20.1081 17.3112,20.6731 16.6162,20.6731" id="Fill-29" fill="#222222"></path>
            <path d="M12.6543,4.8487 C12.6783,4.7727 12.6923,4.6917 12.6923,4.6077 C12.6923,4.1737 12.3413,3.8217 11.9073,3.8217 C11.4733,3.8217 11.1213,4.1737 11.1213,4.6077 C11.1213,4.6917 11.1343,4.7727 11.1593,4.8487 C10.8073,4.9267 10.5453,5.2407 10.5453,5.6147 C10.5453,6.0487 10.8963,6.4007 11.3313,6.4007 C11.5583,6.4007 11.7633,6.3037 11.9073,6.1487 C12.0503,6.3037 12.2563,6.4007 12.4833,6.4007 C12.9173,6.4007 13.2683,6.0487 13.2683,5.6147 C13.2683,5.2407 13.0063,4.9267 12.6543,4.8487" id="Fill-31" fill="#FFFFFF"></path>
            <path d="M15.378,4.8487 C15.403,4.7727 15.416,4.6917 15.416,4.6077 C15.416,4.1737 15.065,3.8217 14.631,3.8217 C14.197,3.8217 13.846,4.1737 13.846,4.6077 C13.846,4.6917 13.858,4.7727 13.883,4.8487 C13.531,4.9267 13.269,5.2407 13.269,5.6147 C13.269,6.0487 13.62,6.4007 14.055,6.4007 C14.282,6.4007 14.487,6.3037 14.631,6.1487 C14.774,6.3037 14.98,6.4007 15.207,6.4007 C15.641,6.4007 15.992,6.0487 15.992,5.6147 C15.992,5.2407 15.73,4.9267 15.378,4.8487" id="Fill-33" fill="#FFFFFF"></path>
            <path d="M11.9073,5.9141 C11.9713,5.9141 12.0343,5.9411 12.0783,5.9891 C12.1843,6.1031 12.3283,6.1661 12.4833,6.1661 C12.7873,6.1661 13.0343,5.9191 13.0343,5.6151 C13.0343,5.3591 12.8533,5.1331 12.6033,5.0781 C12.5403,5.0631 12.4843,5.0221 12.4523,4.9651 C12.4193,4.9081 12.4123,4.8401 12.4313,4.7771 C12.4493,4.7221 12.4583,4.6651 12.4583,4.6071 C12.4583,4.3041 12.2113,4.0561 11.9073,4.0561 C11.6033,4.0561 11.3563,4.3041 11.3563,4.6071 C11.3563,4.6651 11.3653,4.7221 11.3833,4.7771 C11.4023,4.8401 11.3953,4.9081 11.3623,4.9651 C11.3293,5.0221 11.2743,5.0631 11.2103,5.0781 C10.9613,5.1331 10.7793,5.3591 10.7793,5.6151 C10.7793,5.9191 11.0273,6.1661 11.3313,6.1661 C11.4863,6.1661 11.6293,6.1031 11.7343,5.9891 C11.7783,5.9411 11.8413,5.9141 11.9073,5.9141 M12.4833,6.6351 C12.2773,6.6351 12.0753,6.5711 11.9073,6.4561 C11.7383,6.5711 11.5373,6.6351 11.3313,6.6351 C10.7683,6.6351 10.3103,6.1771 10.3103,5.6151 C10.3103,5.2191 10.5453,4.8621 10.8903,4.6951 C10.8873,4.6661 10.8863,4.6371 10.8863,4.6071 C10.8863,4.0451 11.3453,3.5871 11.9073,3.5871 C12.4693,3.5871 12.9273,4.0451 12.9273,4.6071 C12.9273,4.6371 12.9263,4.6661 12.9243,4.6951 C13.2693,4.8621 13.5043,5.2191 13.5043,5.6151 C13.5043,6.1771 13.0463,6.6351 12.4833,6.6351" id="Fill-35" fill="#222222"></path>
            <path d="M14.6309,5.9141 C14.6959,5.9141 14.7579,5.9411 14.8029,5.9891 C14.9079,6.1031 15.0529,6.1661 15.2069,6.1661 C15.5109,6.1661 15.7579,5.9191 15.7579,5.6151 C15.7579,5.3591 15.5769,5.1331 15.3279,5.0781 C15.2629,5.0631 15.2079,5.0221 15.1749,4.9651 C15.1419,4.9081 15.1359,4.8401 15.1549,4.7771 C15.1729,4.7221 15.1819,4.6651 15.1819,4.6071 C15.1819,4.3041 14.9349,4.0561 14.6309,4.0561 C14.3269,4.0561 14.0789,4.3041 14.0789,4.6071 C14.0789,4.6651 14.0879,4.7221 14.1069,4.7761 C14.1269,4.8391 14.1199,4.9071 14.0869,4.9651 C14.0539,5.0221 13.9989,5.0631 13.9339,5.0781 C13.6849,5.1331 13.5039,5.3591 13.5039,5.6151 C13.5039,5.9191 13.7499,6.1661 14.0539,6.1661 C14.2089,6.1661 14.3539,6.1031 14.4589,5.9891 C14.5039,5.9411 14.5659,5.9141 14.6309,5.9141 M15.2069,6.6351 C14.9999,6.6351 14.7989,6.5711 14.6309,6.4561 C14.4619,6.5711 14.2609,6.6351 14.0539,6.6351 C13.4919,6.6351 13.0339,6.1771 13.0339,5.6151 C13.0339,5.2201 13.2689,4.8621 13.6149,4.6951 C13.6109,4.6661 13.6109,4.6371 13.6109,4.6071 C13.6109,4.0451 14.0689,3.5871 14.6309,3.5871 C15.1929,3.5871 15.6509,4.0451 15.6509,4.6071 C15.6509,4.6371 15.6499,4.6661 15.6469,4.6951 C15.9929,4.8621 16.2279,5.2191 16.2279,5.6151 C16.2279,6.1771 15.7699,6.6351 15.2069,6.6351" id="Fill-37" fill="#222222"></path>
            <path d="M11.9073,8.6748 C11.7773,8.6748 11.6733,8.5698 11.6733,8.4408 L11.6733,6.1488 C11.6733,6.0188 11.7773,5.9138 11.9073,5.9138 C12.0363,5.9138 12.1403,6.0188 12.1403,6.1488 L12.1403,8.4408 C12.1403,8.5698 12.0363,8.6748 11.9073,8.6748" id="Fill-39" fill="#222222"></path>
            <path d="M14.6309,8.6748 C14.5019,8.6748 14.3969,8.5698 14.3969,8.4408 L14.3969,6.1488 C14.3969,6.0188 14.5019,5.9138 14.6309,5.9138 C14.7609,5.9138 14.8649,6.0188 14.8649,6.1488 L14.8649,8.4408 C14.8649,8.5698 14.7609,8.6748 14.6309,8.6748" id="Fill-41" fill="#222222"></path>
            <path d="M8.2871,5.0415 C8.2871,4.1265 7.7041,3.3455 6.8891,3.0515 C6.6401,2.5635 6.1741,2.2065 5.6191,2.1035 C5.4961,2.6975 5.5991,3.3465 5.9921,3.9135 L7.5601,6.1715 C7.6301,6.2705 7.7311,6.3275 7.8391,6.3415 C8.1191,5.9825 8.2871,5.5315 8.2871,5.0415" id="Fill-43" fill="#003C9B"></path>
            <path d="M7.8955,1.7554 C7.4585,1.7554 7.1035,2.1104 7.1035,2.5474 C7.1035,2.9844 7.4585,3.3394 7.8955,3.3394 C8.3325,3.3394 8.6865,2.9844 8.6865,2.5474 C8.6865,2.1104 8.3325,1.7554 7.8955,1.7554 M7.8955,3.8084 C7.1995,3.8084 6.6335,3.2424 6.6335,2.5474 C6.6335,1.8524 7.1995,1.2864 7.8955,1.2864 C8.5905,1.2864 9.1565,1.8524 9.1565,2.5474 C9.1565,3.2424 8.5905,3.8084 7.8955,3.8084" id="Fill-45" fill="#222222"></path>
            <path d="M7.8955,0.4688 L7.8315,0.4698 C7.0605,0.4898 6.3895,0.9158 6.0375,1.6108 C5.6785,2.3188 5.7335,3.1298 6.1845,3.7798 L7.7535,6.0378 C7.7995,6.1048 7.8685,6.1118 7.8955,6.1118 C7.9215,6.1118 7.9905,6.1048 8.0375,6.0378 L9.6055,3.7798 C10.0565,3.1298 10.1115,2.3188 9.7525,1.6108 C9.4005,0.9158 8.7295,0.4898 7.9575,0.4698 L7.8955,0.4688 Z M7.8955,6.5808 C7.6855,6.5808 7.4885,6.4778 7.3695,6.3048 L5.7995,4.0468 C5.2495,3.2538 5.1805,2.2628 5.6195,1.3988 C6.0495,0.5478 6.8735,0.0258 7.8205,0.0008 L7.8955,-0.0002 L7.9685,0.0008 L7.9695,0.0008 C8.9165,0.0258 9.7405,0.5478 10.1705,1.3988 C10.6085,2.2628 10.5415,3.2528 9.9905,4.0468 L8.4205,6.3048 C8.3015,6.4778 8.1045,6.5808 7.8955,6.5808 Z" id="Fill-47" fill="#222222"></path>
            <path d="M1.4112,3.8643 C0.7622,3.8643 0.2342,4.3913 0.2342,5.0413 C0.2342,5.6923 0.7622,6.2193 1.4112,6.2193 L6.1722,6.2193 C6.8222,6.2193 7.3492,5.6923 7.3492,5.0413 C7.3492,4.3913 6.8222,3.8643 6.1722,3.8643 L6.1462,3.8643 C6.1462,3.3923 5.7642,3.0103 5.2932,3.0103 C4.8212,3.0103 4.4382,3.3923 4.4382,3.8643 C4.4382,3.0433 3.7732,2.3783 2.9522,2.3783 C2.1322,2.3783 1.4662,3.0433 1.4662,3.8643 L1.4112,3.8643 Z" id="Fill-50" fill="#FFFFFF"></path>
            <path d="M1.4121,4.0987 C0.8911,4.0987 0.4691,4.5217 0.4691,5.0417 C0.4691,5.5617 0.8911,5.9847 1.4121,5.9847 L6.1731,5.9847 C6.6921,5.9847 7.1151,5.5617 7.1151,5.0417 C7.1151,4.5217 6.6921,4.0987 6.1731,4.0987 C6.0431,4.0987 5.9121,3.9937 5.9121,3.8647 C5.9121,3.5227 5.6341,3.2447 5.2921,3.2447 C4.9511,3.2447 4.6741,3.5227 4.6741,3.8647 C4.6741,3.9937 4.5681,4.0987 4.4391,4.0987 C4.3091,4.0987 4.2041,3.9937 4.2041,3.8647 C4.2041,3.1737 3.6431,2.6127 2.9531,2.6127 C2.2621,2.6127 1.7001,3.1737 1.7001,3.8647 C1.7001,3.9937 1.5961,4.0987 1.4661,4.0987 L1.4121,4.0987 Z M6.1731,6.4537 L1.4121,6.4537 C0.6331,6.4537 0.0001,5.8207 0.0001,5.0417 C0.0001,4.3187 0.5451,3.7217 1.2461,3.6397 C1.3571,2.7967 2.0801,2.1437 2.9531,2.1437 C3.6341,2.1437 4.2241,2.5407 4.5031,3.1167 C4.7001,2.9067 4.9811,2.7757 5.2921,2.7757 C5.8171,2.7757 6.2571,3.1497 6.3581,3.6447 C7.0591,3.7447 7.5841,4.3327 7.5841,5.0417 C7.5841,5.8207 6.9501,6.4537 6.1731,6.4537 Z" id="Fill-52" fill="#222222"></path>
            <path d="M1.9903,5.0142 L1.4123,5.0142 C1.2823,5.0142 1.1783,4.9092 1.1783,4.7802 C1.1783,4.6502 1.2823,4.5452 1.4123,4.5452 L1.9903,4.5452 C2.0773,4.5452 2.1473,4.4742 2.1473,4.3882 L2.1473,3.8812 C2.1473,3.4602 2.4673,3.1012 2.8753,3.0622 C3.1033,3.0432 3.3273,3.1172 3.4953,3.2692 C3.6623,3.4212 3.7583,3.6382 3.7583,3.8642 C3.7583,3.9932 3.6533,4.0982 3.5233,4.0982 C3.3943,4.0982 3.2893,3.9932 3.2893,3.8642 C3.2893,3.7682 3.2503,3.6802 3.1783,3.6162 C3.1073,3.5512 3.0123,3.5212 2.9203,3.5292 C2.7493,3.5452 2.6163,3.7002 2.6163,3.8812 L2.6163,4.3882 C2.6163,4.7332 2.3363,5.0142 1.9903,5.0142" id="Fill-54" fill="#0155FC"></path>
        </g>
    </g>
</svg>