<?xml version="1.0" encoding="UTF-8"?>
<svg width="24px" height="24px" viewBox="0 0 24 24" version="1.1" xmlns="http://www.w3.org/2000/svg" xmlns:xlink="http://www.w3.org/1999/xlink">
    <!-- Generator: Sketch 49 (51002) - http://www.bohemiancoding.com/sketch -->
    <title>icons/do/staticroute</title>
    <desc>Created with Sketch.</desc>
    <defs></defs>
    <g id="icons/do/staticroute" stroke="none" stroke-width="1" fill="none" fill-rule="evenodd">
        <g id="Group" transform="translate(-1.000000, 0.000000)">
            <polygon id="Fill-1" fill="#FFFFFF" points="1.235 13.4568 24.211 13.4568 24.211 9.9888 1.235 9.9888"></polygon>
            <path d="M2.7359,11.1616 L2.1729,11.1616 C2.0439,11.1616 1.9379,11.0566 1.9379,10.9276 C1.9379,10.7976 2.0439,10.6926 2.1729,10.6926 L2.7359,10.6926 C2.8649,10.6926 2.9689,10.7976 2.9689,10.9276 C2.9689,11.0566 2.8649,11.1616 2.7359,11.1616" id="Fill-2" fill="#0155FC"></path>
            <path d="M9.0191,11.1616 L4.0481,11.1616 C3.9191,11.1616 3.8141,11.0566 3.8141,10.9276 C3.8141,10.7976 3.9191,10.6926 4.0481,10.6926 L9.0191,10.6926 C9.1481,10.6926 9.2521,10.7976 9.2521,10.9276 C9.2521,11.0566 9.1481,11.1616 9.0191,11.1616" id="Fill-4" fill="#0155FC"></path>
            <path d="M23.2739,11.1616 L10.3629,11.1616 C10.2329,11.1616 10.1279,11.0566 10.1279,10.9276 C10.1279,10.7976 10.2329,10.6926 10.3629,10.6926 L23.2739,10.6926 C23.4029,10.6926 23.5079,10.7976 23.5079,10.9276 C23.5079,11.0566 23.4029,11.1616 23.2739,11.1616" id="Fill-6" fill="#0155FC"></path>
            <path d="M24.2114,10.2236 L1.2344,10.2236 C1.1064,10.2236 1.0004,10.1186 1.0004,9.9896 C1.0004,9.8596 1.1064,9.7546 1.2344,9.7546 L24.2114,9.7546 C24.3404,9.7546 24.4454,9.8596 24.4454,9.9896 C24.4454,10.1186 24.3404,10.2236 24.2114,10.2236" id="Fill-8" fill="#231F20"></path>
            <path d="M24.2114,13.6909 L1.2344,13.6909 C1.1064,13.6909 1.0004,13.5859 1.0004,13.4569 C1.0004,13.3269 1.1064,13.2219 1.2344,13.2219 L24.2114,13.2219 C24.3404,13.2219 24.4454,13.3269 24.4454,13.4569 C24.4454,13.5859 24.3404,13.6909 24.2114,13.6909" id="Fill-10" fill="#231F20"></path>
            <polygon id="Fill-12" fill="#FFFFFF" points="1.235 23.2118 24.212 23.2118 24.212 13.4568 1.235 13.4568"></polygon>
            <path d="M24.2114,23.4458 L1.2344,23.4458 C1.1054,23.4458 0.9994,23.3408 0.9994,23.2118 C0.9994,23.0818 1.1054,22.9768 1.2344,22.9768 L24.2114,22.9768 C24.3404,22.9768 24.4454,23.0818 24.4454,23.2118 C24.4454,23.3408 24.3404,23.4458 24.2114,23.4458" id="Fill-14" fill="#231F20"></path>
            <path d="M4.2114,18.4458 L1.2344,18.4458 C1.1054,18.4458 0.9994,18.3408 0.9994,18.2118 C0.9994,18.0818 1.1054,17.9768 1.2344,17.9768 L4.2114,17.9768 C4.3404,17.9768 4.4454,18.0818 4.4454,18.2118 C4.4454,18.3408 4.3404,18.4458 4.2114,18.4458" id="Fill-15" fill="#231F20"></path>
            <path d="M9.2114,18.4458 L6.2344,18.4458 C6.1054,18.4458 5.9994,18.3408 5.9994,18.2118 C5.9994,18.0818 6.1054,17.9768 6.2344,17.9768 L9.2114,17.9768 C9.3404,17.9768 9.4454,18.0818 9.4454,18.2118 C9.4454,18.3408 9.3404,18.4458 9.2114,18.4458" id="Fill-16" fill="#231F20"></path>
            <path d="M14.2114,18.4458 L11.2344,18.4458 C11.1054,18.4458 10.9994,18.3408 10.9994,18.2118 C10.9994,18.0818 11.1054,17.9768 11.2344,17.9768 L14.2114,17.9768 C14.3404,17.9768 14.4454,18.0818 14.4454,18.2118 C14.4454,18.3408 14.3404,18.4458 14.2114,18.4458" id="Fill-17" fill="#231F20"></path>
            <path d="M19.2114,18.4458 L16.2344,18.4458 C16.1054,18.4458 15.9994,18.3408 15.9994,18.2118 C15.9994,18.0818 16.1054,17.9768 16.2344,17.9768 L19.2114,17.9768 C19.3404,17.9768 19.4454,18.0818 19.4454,18.2118 C19.4454,18.3408 19.3404,18.4458 19.2114,18.4458" id="Fill-18" fill="#231F20"></path>
            <path d="M24.2114,18.4458 L21.2344,18.4458 C21.1054,18.4458 20.9994,18.3408 20.9994,18.2118 C20.9994,18.0818 21.1054,17.9768 21.2344,17.9768 L24.2114,17.9768 C24.3404,17.9768 24.4454,18.0818 24.4454,18.2118 C24.4454,18.3408 24.3404,18.4458 24.2114,18.4458" id="Fill-19" fill="#231F20"></path>
            <path d="M24.2114,13.6909 L1.2344,13.6909 C1.1054,13.6909 0.9994,13.5859 0.9994,13.4569 C0.9994,13.3269 1.1054,13.2219 1.2344,13.2219 L24.2114,13.2219 C24.3404,13.2219 24.4454,13.3269 24.4454,13.4569 C24.4454,13.5859 24.3404,13.6909 24.2114,13.6909" id="Fill-20" fill="#231F20"></path>
            <path d="M12.7232,4.6923 C11.9662,4.6923 11.3532,4.0783 11.3532,3.3223 C11.3532,2.5653 11.9662,1.9523 12.7232,1.9523 C13.4802,1.9523 14.0932,2.5653 14.0932,3.3223 C14.0932,4.0783 13.4802,4.6923 12.7232,4.6923 M12.8152,0.2353 C12.7852,0.2343 12.7532,0.2343 12.7232,0.2343 C12.6932,0.2343 12.6612,0.2343 12.6312,0.2353 C10.1612,0.2983 8.7732,3.1163 10.1832,5.1453 L12.2772,8.1603 C12.4932,8.4713 12.9532,8.4713 13.1692,8.1603 L15.2632,5.1453 C16.6732,3.1163 15.2852,0.2983 12.8152,0.2353" id="Fill-21" fill="#0155FC"></path>
            <path d="M12.7232,2.1865 C12.0972,2.1865 11.5872,2.6965 11.5872,3.3225 C11.5872,3.9485 12.0972,4.4575 12.7232,4.4575 C13.3492,4.4575 13.8592,3.9485 13.8592,3.3225 C13.8592,2.6965 13.3492,2.1865 12.7232,2.1865 M12.7232,4.9265 C11.8382,4.9265 11.1192,4.2075 11.1192,3.3225 C11.1192,2.4375 11.8382,1.7175 12.7232,1.7175 C13.6082,1.7175 14.3272,2.4375 14.3272,3.3225 C14.3272,4.2075 13.6082,4.9265 12.7232,4.9265" id="Fill-22" fill="#231F20"></path>
            <path d="M10.9439,2.7382 C10.9439,2.1872 10.7249,1.6862 10.3689,1.3182 C9.6419,2.1802 9.3889,3.4242 9.8539,4.5462 C10.5019,4.2022 10.9439,3.5212 10.9439,2.7382" id="Fill-23" fill="#003C9B"></path>
            <path d="M19.8931,5.9536 C19.9211,5.8686 19.9361,5.7776 19.9361,5.6826 C19.9361,5.1956 19.5401,4.8006 19.0531,4.8006 C18.5661,4.8006 18.1711,5.1956 18.1711,5.6826 C18.1711,5.7776 18.1861,5.8686 18.2131,5.9536 C17.8191,6.0416 17.5241,6.3936 17.5241,6.8146 C17.5241,7.3026 17.9181,7.6976 18.4061,7.6976 C18.6621,7.6976 18.8921,7.5886 19.0531,7.4146 C19.2141,7.5886 19.4451,7.6976 19.7011,7.6976 C20.1881,7.6976 20.5831,7.3026 20.5831,6.8146 C20.5831,6.3936 20.2891,6.0416 19.8931,5.9536" id="Fill-24" fill="#FFFFFF"></path>
            <path d="M22.9536,5.9536 C22.9806,5.8686 22.9956,5.7776 22.9956,5.6826 C22.9956,5.1956 22.6006,4.8006 22.1136,4.8006 C21.6266,4.8006 21.2306,5.1956 21.2306,5.6826 C21.2306,5.7776 21.2456,5.8686 21.2736,5.9536 C20.8786,6.0416 20.5836,6.3936 20.5836,6.8146 C20.5836,7.3026 20.9786,7.6976 21.4666,7.6976 C21.7226,7.6976 21.9526,7.5886 22.1136,7.4146 C22.2746,7.5886 22.5056,7.6976 22.7616,7.6976 C23.2486,7.6976 23.6426,7.3026 23.6426,6.8146 C23.6426,6.3936 23.3486,6.0416 22.9536,5.9536" id="Fill-25" fill="#FFFFFF"></path>
            <path d="M19.0532,7.1796 C19.1192,7.1796 19.1822,7.2066 19.2262,7.2546 C19.3492,7.3886 19.5192,7.4626 19.7012,7.4626 C20.0582,7.4626 20.3492,7.1726 20.3492,6.8146 C20.3492,6.5136 20.1362,6.2476 19.8432,6.1826 C19.7782,6.1676 19.7232,6.1276 19.6902,6.0706 C19.6572,6.0126 19.6502,5.9446 19.6702,5.8826 C19.6912,5.8176 19.7012,5.7496 19.7012,5.6826 C19.7012,5.3256 19.4102,5.0346 19.0532,5.0346 C18.6972,5.0346 18.4062,5.3256 18.4062,5.6826 C18.4062,5.7496 18.4152,5.8176 18.4362,5.8826 C18.4562,5.9446 18.4492,6.0126 18.4162,6.0706 C18.3842,6.1276 18.3282,6.1676 18.2642,6.1826 C17.9702,6.2476 17.7572,6.5136 17.7572,6.8146 C17.7572,7.1726 18.0482,7.4626 18.4062,7.4626 C18.5882,7.4626 18.7572,7.3886 18.8812,7.2546 C18.9262,7.2066 18.9892,7.1796 19.0532,7.1796 M19.7012,7.9316 C19.4682,7.9316 19.2402,7.8576 19.0532,7.7246 C18.8662,7.8576 18.6392,7.9316 18.4062,7.9316 C17.7892,7.9316 17.2892,7.4306 17.2892,6.8146 C17.2892,6.3746 17.5532,5.9776 17.9432,5.7986 C17.9392,5.7606 17.9362,5.7216 17.9362,5.6826 C17.9362,5.0666 18.4372,4.5656 19.0532,4.5656 C19.6692,4.5656 20.1702,5.0666 20.1702,5.6826 C20.1702,5.7216 20.1682,5.7606 20.1642,5.7986 C20.5532,5.9776 20.8182,6.3746 20.8182,6.8146 C20.8182,7.4306 20.3172,7.9316 19.7012,7.9316" id="Fill-26" fill="#231F20"></path>
            <path d="M22.1138,7.1796 C22.1778,7.1796 22.2408,7.2066 22.2858,7.2546 C22.4098,7.3886 22.5788,7.4626 22.7608,7.4626 C23.1188,7.4626 23.4098,7.1726 23.4098,6.8146 C23.4098,6.5136 23.1968,6.2476 22.9028,6.1826 C22.8388,6.1676 22.7828,6.1276 22.7508,6.0706 C22.7178,6.0126 22.7108,5.9446 22.7308,5.8826 C22.7518,5.8176 22.7608,5.7496 22.7608,5.6826 C22.7608,5.3256 22.4698,5.0346 22.1138,5.0346 C21.7568,5.0346 21.4658,5.3256 21.4658,5.6826 C21.4658,5.7496 21.4758,5.8176 21.4968,5.8826 C21.5158,5.9446 21.5098,6.0126 21.4768,6.0706 C21.4438,6.1276 21.3888,6.1676 21.3238,6.1826 C21.0308,6.2476 20.8178,6.5136 20.8178,6.8146 C20.8178,7.1726 21.1078,7.4626 21.4658,7.4626 C21.6478,7.4626 21.8178,7.3886 21.9408,7.2546 C21.9858,7.2066 22.0488,7.1796 22.1138,7.1796 M22.7608,7.9316 C22.5278,7.9316 22.3008,7.8576 22.1138,7.7246 C21.9268,7.8576 21.6988,7.9316 21.4658,7.9316 C20.8498,7.9316 20.3488,7.4306 20.3488,6.8146 C20.3488,6.3746 20.6138,5.9776 21.0028,5.7986 C20.9988,5.7606 20.9968,5.7216 20.9968,5.6826 C20.9968,5.0666 21.4978,4.5656 22.1138,4.5656 C22.7288,4.5656 23.2308,5.0666 23.2308,5.6826 C23.2308,5.7216 23.2278,5.7606 23.2238,5.7986 C23.6138,5.9776 23.8778,6.3746 23.8778,6.8146 C23.8778,7.4306 23.3778,7.9316 22.7608,7.9316" id="Fill-27" fill="#231F20"></path>
            <path d="M19.0532,10.2236 C18.9242,10.2236 18.8192,10.1186 18.8192,9.9896 L18.8192,7.4136 C18.8192,7.2846 18.9242,7.1796 19.0532,7.1796 C19.1832,7.1796 19.2882,7.2846 19.2882,7.4136 L19.2882,9.9896 C19.2882,10.1186 19.1832,10.2236 19.0532,10.2236" id="Fill-28" fill="#231F20"></path>
            <path d="M22.1138,10.2236 C21.9838,10.2236 21.8788,10.1186 21.8788,9.9896 L21.8788,7.4136 C21.8788,7.2846 21.9838,7.1796 22.1138,7.1796 C22.2428,7.1796 22.3478,7.2846 22.3478,7.4136 L22.3478,9.9896 C22.3478,10.1186 22.2428,10.2236 22.1138,10.2236" id="Fill-29" fill="#231F20"></path>
            <path d="M4.1724,5.9536 C4.1994,5.8686 4.2154,5.7776 4.2154,5.6826 C4.2154,5.1956 3.8194,4.8006 3.3324,4.8006 C2.8454,4.8006 2.4504,5.1956 2.4504,5.6826 C2.4504,5.7776 2.4654,5.8686 2.4924,5.9536 C2.0984,6.0416 1.8034,6.3936 1.8034,6.8146 C1.8034,7.3026 2.1974,7.6976 2.6854,7.6976 C2.9414,7.6976 3.1714,7.5886 3.3324,7.4146 C3.4934,7.5886 3.7244,7.6976 3.9804,7.6976 C4.4674,7.6976 4.8624,7.3026 4.8624,6.8146 C4.8624,6.3936 4.5684,6.0416 4.1724,5.9536" id="Fill-30" fill="#FFFFFF"></path>
            <path d="M7.2329,5.9536 C7.2599,5.8686 7.2749,5.7776 7.2749,5.6826 C7.2749,5.1956 6.8799,4.8006 6.3929,4.8006 C5.9059,4.8006 5.5099,5.1956 5.5099,5.6826 C5.5099,5.7776 5.5249,5.8686 5.5529,5.9536 C5.1579,6.0416 4.8629,6.3936 4.8629,6.8146 C4.8629,7.3026 5.2579,7.6976 5.7459,7.6976 C6.0019,7.6976 6.2319,7.5886 6.3929,7.4146 C6.5539,7.5886 6.7849,7.6976 7.0409,7.6976 C7.5279,7.6976 7.9219,7.3026 7.9219,6.8146 C7.9219,6.3936 7.6279,6.0416 7.2329,5.9536" id="Fill-31" fill="#FFFFFF"></path>
            <path d="M3.3325,7.1796 C3.3975,7.1796 3.4605,7.2066 3.5045,7.2546 C3.6285,7.3886 3.7985,7.4626 3.9805,7.4626 C4.3375,7.4626 4.6285,7.1726 4.6285,6.8146 C4.6285,6.5136 4.4155,6.2476 4.1225,6.1826 C4.0575,6.1676 4.0025,6.1276 3.9695,6.0706 C3.9365,6.0126 3.9305,5.9446 3.9495,5.8826 C3.9705,5.8176 3.9805,5.7496 3.9805,5.6826 C3.9805,5.3256 3.6895,5.0346 3.3325,5.0346 C2.9755,5.0346 2.6855,5.3256 2.6855,5.6826 C2.6855,5.7496 2.6945,5.8176 2.7155,5.8826 C2.7355,5.9446 2.7285,6.0126 2.6955,6.0706 C2.6635,6.1276 2.6075,6.1676 2.5435,6.1826 C2.2495,6.2476 2.0365,6.5136 2.0365,6.8146 C2.0365,7.1726 2.3275,7.4626 2.6855,7.4626 C2.8675,7.4626 3.0365,7.3886 3.1605,7.2546 C3.2045,7.2066 3.2675,7.1796 3.3325,7.1796 M3.9805,7.9316 C3.7475,7.9316 3.5195,7.8576 3.3325,7.7246 C3.1455,7.8576 2.9185,7.9316 2.6855,7.9316 C2.0685,7.9316 1.5685,7.4306 1.5685,6.8146 C1.5685,6.3746 1.8325,5.9776 2.2225,5.7986 C2.2185,5.7606 2.2155,5.7216 2.2155,5.6826 C2.2155,5.0666 2.7165,4.5656 3.3325,4.5656 C3.9485,4.5656 4.4495,5.0666 4.4495,5.6826 C4.4495,5.7216 4.4475,5.7606 4.4435,5.7986 C4.8325,5.9776 5.0975,6.3746 5.0975,6.8146 C5.0975,7.4306 4.5965,7.9316 3.9805,7.9316" id="Fill-32" fill="#231F20"></path>
            <path d="M6.3931,7.1796 C6.4571,7.1796 6.5201,7.2066 6.5651,7.2546 C6.6891,7.3886 6.8571,7.4626 7.0391,7.4626 C7.3981,7.4626 7.6891,7.1726 7.6891,6.8146 C7.6891,6.5136 7.4761,6.2476 7.1821,6.1826 C7.1181,6.1676 7.0621,6.1276 7.0301,6.0706 C6.9971,6.0126 6.9901,5.9446 7.0101,5.8826 C7.0311,5.8176 7.0401,5.7496 7.0401,5.6826 C7.0401,5.3256 6.7491,5.0346 6.3931,5.0346 C6.0361,5.0346 5.7451,5.3256 5.7451,5.6826 C5.7451,5.7496 5.7551,5.8176 5.7761,5.8826 C5.7951,5.9446 5.7891,6.0126 5.7561,6.0706 C5.7231,6.1276 5.6681,6.1676 5.6031,6.1826 C5.3101,6.2476 5.0971,6.5136 5.0971,6.8146 C5.0971,7.1726 5.3871,7.4626 5.7451,7.4626 C5.9271,7.4626 6.0971,7.3886 6.2201,7.2546 C6.2651,7.2066 6.3281,7.1796 6.3931,7.1796 M7.0391,7.9316 C6.8071,7.9316 6.5801,7.8576 6.3931,7.7246 C6.2061,7.8576 5.9781,7.9316 5.7451,7.9316 C5.1291,7.9316 4.6281,7.4306 4.6281,6.8146 C4.6281,6.3746 4.8931,5.9776 5.2821,5.7986 C5.2781,5.7606 5.2761,5.7216 5.2761,5.6826 C5.2761,5.0666 5.7771,4.5656 6.3931,4.5656 C7.0091,4.5656 7.5101,5.0666 7.5101,5.6826 C7.5101,5.7216 7.5071,5.7606 7.5031,5.7986 C7.8931,5.9776 8.1571,6.3746 8.1571,6.8146 C8.1571,7.4306 7.6571,7.9316 7.0391,7.9316" id="Fill-33" fill="#231F20"></path>
            <path d="M3.3325,10.2236 C3.2025,10.2236 3.0985,10.1186 3.0985,9.9896 L3.0985,7.4136 C3.0985,7.2846 3.2025,7.1796 3.3325,7.1796 C3.4615,7.1796 3.5665,7.2846 3.5665,7.4136 L3.5665,9.9896 C3.5665,10.1186 3.4615,10.2236 3.3325,10.2236" id="Fill-34" fill="#231F20"></path>
            <path d="M6.3931,10.2236 C6.2631,10.2236 6.1581,10.1186 6.1581,9.9896 L6.1581,7.4136 C6.1581,7.2846 6.2631,7.1796 6.3931,7.1796 C6.5221,7.1796 6.6271,7.2846 6.6271,7.4136 L6.6271,9.9896 C6.6271,10.1186 6.5221,10.2236 6.3931,10.2236" id="Fill-35" fill="#231F20"></path>
            <path d="M12.7232,8.6279 L10.5482,8.6279 C10.4182,8.6279 10.3142,8.5229 10.3142,8.3939 C10.3142,8.2639 10.4182,8.1589 10.5482,8.1589 L12.7232,8.1589 C12.8522,8.1589 12.9572,8.2639 12.9572,8.3939 C12.9572,8.5229 12.8522,8.6279 12.7232,8.6279" id="Fill-36" fill="#231F20"></path>
            <path d="M9.7398,8.6279 L9.5848,8.6279 C9.4548,8.6279 9.3488,8.5229 9.3488,8.3939 C9.3488,8.2639 9.4548,8.1589 9.5848,8.1589 L9.7398,8.1589 C9.8698,8.1589 9.9738,8.2639 9.9738,8.3939 C9.9738,8.5229 9.8698,8.6279 9.7398,8.6279" id="Fill-37" fill="#231F20"></path>
            <path d="M14.898,8.6279 L12.723,8.6279 C12.594,8.6279 12.489,8.5229 12.489,8.3939 C12.489,8.2639 12.594,8.1589 12.723,8.1589 L14.898,8.1589 C15.028,8.1589 15.132,8.2639 15.132,8.3939 C15.132,8.5229 15.028,8.6279 14.898,8.6279" id="Fill-38" fill="#231F20"></path>
            <path d="M15.8618,8.6279 L15.7058,8.6279 C15.5768,8.6279 15.4708,8.5229 15.4708,8.3939 C15.4708,8.2639 15.5768,8.1589 15.7058,8.1589 L15.8618,8.1589 C15.9918,8.1589 16.0968,8.2639 16.0968,8.3939 C16.0968,8.5229 15.9918,8.6279 15.8618,8.6279" id="Fill-39" fill="#231F20"></path>
            <path d="M4.4243,4.0795 L3.0053,4.0795 C2.8763,4.0795 2.7713,3.9745 2.7713,3.8455 C2.7713,3.7155 2.8763,3.6105 3.0053,3.6105 L4.4243,3.6105 C4.5533,3.6105 4.6583,3.7155 4.6583,3.8455 C4.6583,3.9745 4.5533,4.0795 4.4243,4.0795" id="Fill-40" fill="#231F20"></path>
            <path d="M2.23,4.0795 L2.148,4.0795 C2.019,4.0795 1.914,3.9745 1.914,3.8455 C1.914,3.7155 2.019,3.6105 2.148,3.6105 L2.23,3.6105 C2.36,3.6105 2.464,3.7155 2.464,3.8455 C2.464,3.9745 2.36,4.0795 2.23,4.0795" id="Fill-41" fill="#231F20"></path>
            <path d="M12.7232,0.4687 L12.6392,0.4697 C11.5772,0.4967 10.6572,1.0827 10.1732,2.0357 C9.6802,3.0077 9.7562,4.1197 10.3742,5.0117 L12.4692,8.0267 C12.5862,8.1957 12.8602,8.1957 12.9772,8.0267 L15.0722,5.0117 C15.6902,4.1197 15.7662,3.0077 15.2732,2.0357 C14.7892,1.0827 13.8692,0.4967 12.8092,0.4697 L12.8072,0.4697 L12.7232,0.4687 Z M12.7232,8.6287 C12.4692,8.6287 12.2302,8.5037 12.0842,8.2947 L9.9902,5.2797 C9.2712,4.2437 9.1822,2.9517 9.7552,1.8237 C10.3172,0.7147 11.3902,0.0327 12.6252,0.0017 L12.7232,-0.0003 L12.8212,0.0017 C14.0562,0.0327 15.1292,0.7147 15.6912,1.8237 C16.2642,2.9517 16.1752,4.2437 15.4562,5.2797 L13.3622,8.2947 C13.2162,8.5037 12.9772,8.6287 12.7232,8.6287 Z" id="Fill-42" fill="#231F20"></path>
            <path d="M4.4243,1.6318 C3.8133,1.6318 3.3183,2.1268 3.3183,2.7378 C3.3183,3.3498 3.8133,3.8448 4.4243,3.8448 L8.9003,3.8448 C9.5113,3.8448 10.0063,3.3498 10.0063,2.7378 C10.0063,2.1268 9.5113,1.6318 8.9003,1.6318 L8.8753,1.6318 C8.8753,1.1888 8.5163,0.8288 8.0723,0.8288 C7.6293,0.8288 7.2703,1.1888 7.2703,1.6318 C7.2703,0.8598 6.6443,0.2348 5.8723,0.2348 C5.1013,0.2348 4.4763,0.8598 4.4763,1.6318 L4.4243,1.6318 Z" id="Fill-43" fill="#FFFFFF"></path>
            <path d="M4.4243,1.8662 C3.9443,1.8662 3.5523,2.2572 3.5523,2.7382 C3.5523,3.2192 3.9443,3.6112 4.4243,3.6112 L8.8993,3.6112 C9.3803,3.6112 9.7723,3.2192 9.7723,2.7382 C9.7723,2.2572 9.3803,1.8662 8.8993,1.8662 C8.7703,1.8662 8.6403,1.7612 8.6403,1.6322 C8.6403,1.3182 8.3863,1.0632 8.0723,1.0632 C7.7593,1.0632 7.5043,1.3182 7.5043,1.6322 C7.5043,1.7612 7.3993,1.8662 7.2703,1.8662 C7.1403,1.8662 7.0353,1.7612 7.0353,1.6322 C7.0353,0.9912 6.5143,0.4692 5.8733,0.4692 C5.2323,0.4692 4.7103,0.9912 4.7103,1.6322 C4.7103,1.7612 4.6053,1.8662 4.4763,1.8662 L4.4243,1.8662 Z M8.8993,4.0792 L4.4243,4.0792 C3.6853,4.0792 3.0823,3.4782 3.0823,2.7382 C3.0823,2.0552 3.5953,1.4912 4.2563,1.4082 C4.3653,0.6142 5.0493,0.0002 5.8733,0.0002 C6.5113,0.0002 7.0663,0.3692 7.3333,0.9052 C7.5223,0.7132 7.7833,0.5952 8.0723,0.5952 C8.5693,0.5952 8.9863,0.9462 9.0863,1.4132 C9.7473,1.5122 10.2403,2.0682 10.2403,2.7382 C10.2403,3.4782 9.6393,4.0792 8.8993,4.0792 Z" id="Fill-44" fill="#231F20"></path>
            <path d="M4.9683,2.7265 L4.4243,2.7265 C4.2943,2.7265 4.1903,2.6215 4.1903,2.4925 C4.1903,2.3625 4.2943,2.2575 4.4243,2.2575 L4.9683,2.2575 C5.0413,2.2575 5.1023,2.1975 5.1023,2.1235 L5.1023,1.6475 C5.1023,1.2445 5.4073,0.9005 5.7993,0.8645 C6.0163,0.8415 6.2313,0.9155 6.3913,1.0615 C6.5523,1.2075 6.6443,1.4155 6.6443,1.6315 C6.6443,1.7615 6.5393,1.8665 6.4093,1.8665 C6.2803,1.8665 6.1753,1.7615 6.1753,1.6315 C6.1753,1.5465 6.1393,1.4655 6.0763,1.4085 C6.0123,1.3505 5.9323,1.3215 5.8433,1.3305 C5.6903,1.3455 5.5713,1.4845 5.5713,1.6475 L5.5713,2.1235 C5.5713,2.4565 5.3003,2.7265 4.9683,2.7265" id="Fill-45" fill="#0155FC"></path>
        </g>
        <path d="M1.7359,22.6303 L1.1729,22.6303 C1.0439,22.6303 0.9379,22.5253 0.9379,22.3963 C0.9379,22.2663 1.0439,22.1613 1.1729,22.1613 L1.7359,22.1613 C1.8649,22.1613 1.9689,22.2663 1.9689,22.3963 C1.9689,22.5253 1.8649,22.6303 1.7359,22.6303" id="Fill-46" fill="#0155FC"></path>
        <path d="M8.0191,22.6303 L3.0481,22.6303 C2.9191,22.6303 2.8141,22.5253 2.8141,22.3963 C2.8141,22.2663 2.9191,22.1613 3.0481,22.1613 L8.0191,22.1613 C8.1481,22.1613 8.2521,22.2663 8.2521,22.3963 C8.2521,22.5253 8.1481,22.6303 8.0191,22.6303" id="Fill-47" fill="#0155FC"></path>
        <path d="M22.2739,22.6303 L9.3629,22.6303 C9.2329,22.6303 9.1279,22.5253 9.1279,22.3963 C9.1279,22.2663 9.2329,22.1613 9.3629,22.1613 L22.2739,22.1613 C22.4029,22.1613 22.5079,22.2663 22.5079,22.3963 C22.5079,22.5253 22.4029,22.6303 22.2739,22.6303" id="Fill-48" fill="#0155FC"></path>
    </g>
</svg>