<?xml version="1.0" encoding="UTF-8"?>
<svg width="24px" height="24px" viewBox="0 0 24 24" version="1.1" xmlns="http://www.w3.org/2000/svg" xmlns:xlink="http://www.w3.org/1999/xlink">
    <!-- Generator: Sketch 49 (51002) - http://www.bohemiancoding.com/sketch -->
    <title>icons/do/zigzagroute</title>
    <desc>Created with Sketch.</desc>
    <defs></defs>
    <g id="icons/do/zigzagroute" stroke="none" stroke-width="1" fill="none" fill-rule="evenodd">
        <g id="Group" transform="translate(1.000000, 0.000000)">
            <path d="M19.058,8.2998 L5.018,8.2998 C4.241,8.2998 3.611,8.9298 3.611,9.7068 L3.611,11.4948 C3.61,11.9488 3.829,12.3758 4.2,12.6398 L13.515,19.2898 L3.611,19.2898 L3.611,23.2098 L17.435,23.2098 L17.437,23.2118 L17.439,23.2098 L17.652,23.2098 C18.428,23.2098 19.058,22.5798 19.058,21.8028 L19.058,20.0138 C19.058,19.5598 18.838,19.1328 18.469,18.8688 L9.155,12.2198 L19.058,12.2198 L19.058,8.2998 Z" id="Fill-1" fill="#FFFFFF"></path>
            <path d="M8.1293,19.2895 L3.6103,19.2895 L3.6103,23.2095 L5.6333,23.2095 L7.5253,20.4855 C7.7853,20.1115 7.9863,19.7085 8.1293,19.2895" id="Fill-3" fill="#DDDDDD"></path>
            <path d="M19.058,8.2998 L14.107,8.2998 C14.249,8.7158 14.45,9.1158 14.708,9.4868 L16.606,12.2198 L19.058,12.2198 L19.058,8.2998 Z" id="Fill-5" fill="#DDDDDD"></path>
            <path d="M17.436,23.4448 C17.429,23.4448 17.421,23.4448 17.415,23.4438 L3.611,23.4438 C3.481,23.4438 3.376,23.3388 3.376,23.2098 L3.376,19.2898 C3.376,19.1598 3.481,19.0548 3.611,19.0548 L12.783,19.0548 L4.064,12.8308 C3.633,12.5238 3.376,12.0248 3.376,11.4948 L3.376,9.7068 C3.376,8.8018 4.113,8.0658 5.018,8.0658 L19.058,8.0658 C19.188,8.0658 19.292,8.1708 19.292,8.2998 C19.292,8.4288 19.188,8.5338 19.058,8.5338 L5.018,8.5338 C4.372,8.5338 3.845,9.0598 3.845,9.7068 L3.845,11.4948 C3.845,11.8728 4.029,12.2298 4.335,12.4488 L13.651,19.0988 C13.734,19.1578 13.769,19.2638 13.739,19.3608 C13.707,19.4578 13.617,19.5238 13.515,19.5238 L3.845,19.5238 L3.845,22.9748 L17.435,22.9748 L17.439,22.9748 L17.652,22.9748 C18.298,22.9748 18.824,22.4488 18.824,21.8028 L18.824,20.0138 C18.824,19.6358 18.64,19.2788 18.332,19.0588 L9.019,12.4108 C8.936,12.3518 8.901,12.2448 8.931,12.1488 C8.962,12.0508 9.053,11.9858 9.155,11.9858 L18.623,11.9858 C18.752,11.9858 18.857,12.0908 18.857,12.2198 C18.857,12.3488 18.752,12.4538 18.623,12.4538 L9.887,12.4538 L18.605,18.6778 C19.036,18.9858 19.292,19.4848 19.292,20.0138 L19.292,21.8028 C19.292,22.7078 18.556,23.4438 17.652,23.4438 L17.457,23.4438 C17.451,23.4448 17.443,23.4448 17.436,23.4448" id="Fill-7" fill="#222222"></path>
            <path d="M4.5483,11.729 C4.4183,11.729 4.3143,11.624 4.3143,11.495 L4.3153,9.707 C4.3153,9.318 4.6303,9.003 5.0183,9.003 L11.4283,9.003 C11.5583,9.003 11.6623,9.108 11.6623,9.237 C11.6623,9.367 11.5583,9.472 11.4283,9.472 L5.0183,9.472 C4.8893,9.472 4.7833,9.577 4.7833,9.707 L4.7823,11.495 C4.7823,11.624 4.6783,11.729 4.5483,11.729" id="Fill-9" fill="#0155FC"></path>
            <path d="M12.9447,9.4716 L12.6347,9.4716 C12.5057,9.4716 12.4007,9.3666 12.4007,9.2376 C12.4007,9.1076 12.5057,9.0026 12.6347,9.0026 L12.9447,9.0026 C13.0747,9.0026 13.1787,9.1076 13.1787,9.2376 C13.1787,9.3666 13.0747,9.4716 12.9447,9.4716" id="Fill-11" fill="#0155FC"></path>
            <path d="M17.6508,22.5083 L11.2408,22.5083 C11.1108,22.5083 11.0058,22.4033 11.0058,22.2743 C11.0058,22.1443 11.1108,22.0393 11.2408,22.0393 L17.6508,22.0393 C17.7798,22.0393 17.8848,21.9343 17.8848,21.8043 L17.8858,20.0163 C17.8858,19.8873 17.9908,19.7823 18.1208,19.7823 C18.2508,19.7823 18.3548,19.8873 18.3548,20.0163 L18.3538,21.8043 C18.3538,22.1933 18.0388,22.5083 17.6508,22.5083" id="Fill-13" fill="#0155FC"></path>
            <path d="M10.0326,22.5083 L9.7236,22.5083 C9.5946,22.5083 9.4896,22.4033 9.4896,22.2743 C9.4896,22.1443 9.5946,22.0393 9.7236,22.0393 L10.0326,22.0393 C10.1626,22.0393 10.2666,22.1443 10.2666,22.2743 C10.2666,22.4033 10.1626,22.5083 10.0326,22.5083" id="Fill-15" fill="#0155FC"></path>
            <path d="M3.6108,19.1909 C2.7888,19.1909 2.1228,18.5249 2.1228,17.7029 C2.1228,16.8809 2.7888,16.2139 3.6108,16.2139 C4.4318,16.2139 5.0988,16.8809 5.0988,17.7029 C5.0988,18.5249 4.4318,19.1909 3.6108,19.1909 M3.7108,14.3499 C3.6768,14.3499 3.6438,14.3489 3.6108,14.3489 C3.5778,14.3489 3.5438,14.3499 3.5108,14.3499 C0.8278,14.4189 -0.6802,17.4789 0.8508,19.6839 L3.1258,22.9579 C3.3608,23.2959 3.8608,23.2959 4.0948,22.9579 L6.3698,19.6839 C7.9008,17.4789 6.3928,14.4189 3.7108,14.3499" id="Fill-17" fill="#0155FC"></path>
            <path d="M3.6108,14.5835 L3.5148,14.5845 C2.3578,14.6145 1.3508,15.2545 0.8228,16.2965 C0.2838,17.3595 0.3668,18.5755 1.0438,19.5495 L3.3178,22.8245 C3.3848,22.9215 3.4928,22.9775 3.6108,22.9775 C3.7288,22.9775 3.8358,22.9215 3.9028,22.8245 L6.1768,19.5495 C6.8538,18.5755 6.9368,17.3595 6.3978,16.2965 C5.8708,15.2545 4.8648,14.6155 3.7068,14.5845 L3.6108,14.5835 Z M3.6108,23.4455 C3.3398,23.4455 3.0878,23.3135 2.9328,23.0915 L0.6588,19.8175 C-0.1182,18.6995 -0.2132,17.3035 0.4038,16.0845 C1.0108,14.8865 2.1708,14.1495 3.5058,14.1155 L3.6108,14.1145 L3.7148,14.1155 L3.7158,14.1155 C5.0498,14.1495 6.2098,14.8855 6.8168,16.0845 C7.4338,17.3035 7.3398,18.6995 6.5618,19.8175 L4.2878,23.0915 C4.1338,23.3125 3.8818,23.4455 3.6118,23.4455 L3.6108,23.4455 Z" id="Fill-19" fill="#222222"></path>
            <path d="M3.6108,16.4487 C2.9198,16.4487 2.3568,17.0107 2.3568,17.7027 C2.3568,18.3937 2.9198,18.9567 3.6108,18.9567 C4.3018,18.9567 4.8648,18.3937 4.8648,17.7027 C4.8648,17.0107 4.3018,16.4487 3.6108,16.4487 M3.6108,19.4257 C2.6608,19.4257 1.8878,18.6527 1.8878,17.7027 C1.8878,16.7527 2.6608,15.9797 3.6108,15.9797 C4.5608,15.9797 5.3338,16.7527 5.3338,17.7027 C5.3338,18.6527 4.5608,19.4257 3.6108,19.4257" id="Fill-21" fill="#222222"></path>
            <path d="M18.6225,8.1924 C17.8015,8.1924 17.1345,7.5264 17.1345,6.7044 C17.1345,5.8824 17.8015,5.2154 18.6225,5.2154 C19.4445,5.2154 20.1105,5.8824 20.1105,6.7044 C20.1105,7.5264 19.4445,8.1924 18.6225,8.1924 M18.7225,3.3524 C18.6895,3.3514 18.6565,3.3504 18.6225,3.3504 C18.5895,3.3504 18.5565,3.3514 18.5225,3.3524 C15.8405,3.4204 14.3325,6.4814 15.8635,8.6854 L18.1385,11.9604 C18.3735,12.2974 18.8725,12.2974 19.1075,11.9604 L21.3825,8.6854 C22.9135,6.4814 21.4055,3.4204 18.7225,3.3524" id="Fill-23" fill="#0155FC"></path>
            <path d="M18.6225,3.5849 L18.5295,3.5859 C17.3705,3.6159 16.3635,4.2559 15.8355,5.2979 C15.2965,6.3599 15.3795,7.5769 16.0565,8.5509 L18.3305,11.8259 C18.4655,12.0199 18.7805,12.0219 18.9155,11.8259 L21.1895,8.5509 C21.8665,7.5769 21.9495,6.3609 21.4105,5.2979 C20.8825,4.2559 19.8755,3.6159 18.7165,3.5859 L18.7155,3.5859 L18.6225,3.5849 Z M18.6235,12.4469 C18.3525,12.4469 18.1005,12.3149 17.9455,12.0929 L15.6715,8.8189 C14.8935,7.6999 14.7995,6.3049 15.4165,5.0859 C16.0235,3.8869 17.1835,3.1519 18.5175,3.1179 L18.6225,3.1159 L18.7275,3.1179 C20.0615,3.1519 21.2225,3.8879 21.8295,5.0859 C22.4465,6.3049 22.3515,7.7009 21.5745,8.8189 L19.3005,12.0929 C19.1455,12.3149 18.8935,12.4469 18.6235,12.4469 Z" id="Fill-25" fill="#222222"></path>
            <path d="M18.5473,4.5239 C18.4213,4.5239 18.3183,4.4249 18.3133,4.2979 C18.3083,4.1689 18.4083,4.0599 18.5383,4.0549 L18.6223,4.0539 C18.7523,4.0539 18.8573,4.1589 18.8573,4.2889 C18.8573,4.4179 18.7523,4.5229 18.6223,4.5229 L18.5563,4.5239 L18.5473,4.5239 Z" id="Fill-27" fill="#FFFFFF"></path>
            <path d="M17.9252,10.2441 C17.8512,10.2441 17.7782,10.2091 17.7332,10.1431 L16.4422,8.2841 C15.8632,7.4531 15.7932,6.4161 16.2532,5.5101 C16.5632,4.9001 17.0762,4.4391 17.7002,4.2121 C17.8222,4.1681 17.9562,4.2311 18.0012,4.3521 C18.0452,4.4741 17.9832,4.6091 17.8612,4.6531 C17.3492,4.8391 16.9272,5.2191 16.6712,5.7221 C16.2912,6.4721 16.3492,7.3291 16.8262,8.0161 L18.1172,9.8761 C18.1922,9.9821 18.1652,10.1281 18.0592,10.2021 C18.0182,10.2301 17.9712,10.2441 17.9252,10.2441" id="Fill-29" fill="#FFFFFF"></path>
            <path d="M3.5346,15.5219 C3.4066,15.5219 3.3026,15.4199 3.3006,15.2919 C3.2976,15.1629 3.4006,15.0559 3.5296,15.0529 L3.6106,15.0519 C3.7406,15.0519 3.8456,15.1569 3.8456,15.2869 C3.8456,15.4159 3.7406,15.5209 3.6106,15.5209 L3.5396,15.5219 L3.5346,15.5219 Z" id="Fill-31" fill="#FFFFFF"></path>
            <path d="M2.9135,21.2422 C2.8395,21.2422 2.7665,21.2072 2.7215,21.1412 L1.4295,19.2822 C0.8515,18.4522 0.7815,17.4162 1.2405,16.5092 C1.5495,15.8992 2.0635,15.4382 2.6875,15.2112 C2.8095,15.1652 2.9435,15.2302 2.9885,15.3512 C3.0325,15.4722 2.9705,15.6072 2.8485,15.6512 C2.3365,15.8382 1.9135,16.2172 1.6585,16.7212 C1.2785,17.4712 1.3375,18.3282 1.8135,19.0142 L3.1055,20.8742 C3.1805,20.9802 3.1535,21.1262 3.0475,21.2002 C3.0065,21.2282 2.9595,21.2422 2.9135,21.2422" id="Fill-33" fill="#FFFFFF"></path>
            <path d="M18.6225,5.4507 C17.9315,5.4507 17.3685,6.0127 17.3685,6.7037 C17.3685,7.3957 17.9315,7.9577 18.6225,7.9577 C19.3135,7.9577 19.8765,7.3957 19.8765,6.7037 C19.8765,6.0127 19.3135,5.4507 18.6225,5.4507 M18.6225,8.4267 C17.6725,8.4267 16.8995,7.6537 16.8995,6.7037 C16.8995,5.7547 17.6725,4.9817 18.6225,4.9817 C19.5725,4.9817 20.3455,5.7547 20.3455,6.7037 C20.3455,7.6537 19.5725,8.4267 18.6225,8.4267" id="Fill-35" fill="#222222"></path>
            <path d="M3.6108,23.4438 L1.5098,23.4438 C1.3808,23.4438 1.2758,23.3388 1.2758,23.2098 C1.2758,23.0798 1.3808,22.9748 1.5098,22.9748 L3.6108,22.9748 C3.7408,22.9748 3.8448,23.0798 3.8448,23.2098 C3.8448,23.3388 3.7408,23.4438 3.6108,23.4438" id="Fill-37" fill="#231F20"></path>
            <path d="M0.4321,23.4438 L0.2391,23.4438 C0.1091,23.4438 0.0041,23.3388 0.0041,23.2098 C0.0041,23.0798 0.1091,22.9748 0.2391,22.9748 L0.4321,22.9748 C0.5621,22.9748 0.6661,23.0798 0.6661,23.2098 C0.6661,23.3388 0.5621,23.4438 0.4321,23.4438" id="Fill-40" fill="#222222"></path>
            <path d="M11.058,1.896 C10.33,1.896 9.742,2.485 9.742,3.212 C9.742,3.939 10.33,4.528 11.058,4.528 L16.38,4.528 C17.107,4.528 17.696,3.939 17.696,3.212 C17.696,2.485 17.107,1.896 16.38,1.896 L16.351,1.896 C16.351,1.369 15.923,0.941 15.396,0.941 C14.87,0.941 14.442,1.369 14.442,1.896 C14.442,0.979 13.698,0.234 12.781,0.234 C11.863,0.234 11.119,0.979 11.119,1.896 L11.058,1.896 Z" id="Fill-43" fill="#FFFFFF"></path>
            <path d="M11.058,2.1303 C10.461,2.1303 9.976,2.6153 9.976,3.2123 C9.976,3.8083 10.461,4.2943 11.058,4.2943 L16.38,4.2943 C16.976,4.2943 17.461,3.8083 17.461,3.2123 C17.461,2.6153 16.976,2.1303 16.38,2.1303 C16.25,2.1303 16.117,2.0253 16.117,1.8963 C16.117,1.4993 15.793,1.1753 15.396,1.1753 C14.999,1.1753 14.676,1.4993 14.676,1.8963 C14.676,2.0253 14.572,2.1303 14.442,2.1303 C14.312,2.1303 14.207,2.0253 14.207,1.8963 C14.207,1.1093 13.568,0.4683 12.781,0.4683 C11.994,0.4683 11.353,1.1093 11.353,1.8963 C11.353,2.0253 11.248,2.1303 11.119,2.1303 L11.058,2.1303 Z M16.38,4.7623 L11.058,4.7623 C10.203,4.7623 9.507,4.0673 9.507,3.2123 C9.507,2.4113 10.118,1.7503 10.898,1.6703 C11.01,0.7303 11.811,0.0003 12.781,0.0003 C13.545,0.0003 14.206,0.4553 14.505,1.1093 C14.723,0.8623 15.041,0.7073 15.396,0.7073 C15.976,0.7073 16.461,1.1243 16.565,1.6753 C17.344,1.7763 17.93,2.4273 17.93,3.2123 C17.93,4.0673 17.235,4.7623 16.38,4.7623 Z" id="Fill-45" fill="#222222"></path>
            <path d="M11.685,3.0683 L11.058,3.0683 C10.928,3.0683 10.824,2.9633 10.824,2.8343 C10.824,2.7043 10.928,2.5993 11.058,2.5993 L11.685,2.5993 C11.761,2.5993 11.823,2.5383 11.823,2.4623 L11.823,1.8963 C11.823,1.3673 12.252,0.9383 12.781,0.9383 C12.911,0.9383 13.015,1.0433 13.015,1.1723 C13.015,1.3013 12.911,1.4063 12.781,1.4063 C12.511,1.4063 12.291,1.6263 12.291,1.8963 L12.291,2.4623 C12.291,2.7963 12.019,3.0683 11.685,3.0683" id="Fill-47" fill="#0155FC"></path>
            <path d="M6.2387,5.3584 C6.2637,5.2784 6.2777,5.1934 6.2777,5.1054 C6.2777,4.6504 5.9097,4.2804 5.4537,4.2804 C4.9987,4.2804 4.6297,4.6504 4.6297,5.1054 C4.6297,5.1934 4.6437,5.2784 4.6697,5.3584 C4.3007,5.4404 4.0247,5.7694 4.0247,6.1624 C4.0247,6.6184 4.3937,6.9874 4.8487,6.9874 C5.0887,6.9874 5.3027,6.8854 5.4537,6.7224 C5.6047,6.8854 5.8197,6.9874 6.0587,6.9874 C6.5137,6.9874 6.8837,6.6184 6.8837,6.1624 C6.8837,5.7694 6.6067,5.4404 6.2387,5.3584" id="Fill-49" fill="#FFFFFF"></path>
            <path d="M9.0971,5.3584 C9.1221,5.2784 9.1361,5.1934 9.1361,5.1054 C9.1361,4.6504 8.7681,4.2804 8.3121,4.2804 C7.8571,4.2804 7.4881,4.6504 7.4881,5.1054 C7.4881,5.1934 7.5021,5.2784 7.5281,5.3584 C7.1591,5.4404 6.8831,5.7694 6.8831,6.1624 C6.8831,6.6184 7.2521,6.9874 7.7071,6.9874 C7.9471,6.9874 8.1611,6.8854 8.3121,6.7224 C8.4631,6.8854 8.6781,6.9874 8.9171,6.9874 C9.3721,6.9874 9.7421,6.6184 9.7421,6.1624 C9.7421,5.7694 9.4651,5.4404 9.0971,5.3584" id="Fill-51" fill="#FFFFFF"></path>
            <path d="M5.4535,6.4882 C5.5185,6.4882 5.5805,6.5152 5.6255,6.5632 C5.7385,6.6852 5.8925,6.7532 6.0585,6.7532 C6.3845,6.7532 6.6485,6.4882 6.6485,6.1622 C6.6485,5.8882 6.4545,5.6472 6.1875,5.5872 C6.1235,5.5722 6.0685,5.5322 6.0355,5.4752 C6.0025,5.4182 5.9955,5.3502 6.0155,5.2872 C6.0335,5.2282 6.0435,5.1672 6.0435,5.1052 C6.0435,4.7802 5.7785,4.5152 5.4535,4.5152 C5.1285,4.5152 4.8635,4.7802 4.8635,5.1052 C4.8635,5.1652 4.8735,5.2262 4.8925,5.2872 C4.9125,5.3502 4.9055,5.4182 4.8725,5.4752 C4.8395,5.5322 4.7845,5.5732 4.7205,5.5872 C4.4535,5.6462 4.2595,5.8882 4.2595,6.1622 C4.2595,6.4882 4.5235,6.7532 4.8495,6.7532 C5.0155,6.7532 5.1685,6.6852 5.2815,6.5632 C5.3255,6.5152 5.3885,6.4882 5.4535,6.4882 M6.0585,7.2212 C5.8425,7.2212 5.6305,7.1542 5.4535,7.0312 C5.2775,7.1542 5.0655,7.2212 4.8495,7.2212 C4.2655,7.2212 3.7905,6.7462 3.7905,6.1622 C3.7905,5.7412 4.0315,5.3732 4.3995,5.2032 C4.3965,5.1712 4.3945,5.1382 4.3945,5.1052 C4.3945,4.5212 4.8695,4.0462 5.4535,4.0462 C6.0375,4.0462 6.5125,4.5212 6.5125,5.1052 C6.5125,5.1382 6.5115,5.1712 6.5075,5.2042 C6.8715,5.3762 7.1175,5.7492 7.1175,6.1622 C7.1175,6.7462 6.6425,7.2212 6.0585,7.2212" id="Fill-53" fill="#222222"></path>
            <path d="M8.3119,6.4882 C8.3769,6.4882 8.4389,6.5152 8.4839,6.5632 C8.5969,6.6852 8.7509,6.7532 8.9169,6.7532 C9.2429,6.7532 9.5069,6.4882 9.5069,6.1622 C9.5069,5.8882 9.3129,5.6472 9.0459,5.5872 C8.9819,5.5722 8.9269,5.5322 8.8939,5.4752 C8.8609,5.4182 8.8539,5.3502 8.8739,5.2872 C8.8919,5.2282 8.9019,5.1672 8.9019,5.1052 C8.9019,4.7802 8.6369,4.5152 8.3119,4.5152 C7.9869,4.5152 7.7219,4.7802 7.7219,5.1052 C7.7219,5.1652 7.7319,5.2262 7.7509,5.2872 C7.7709,5.3502 7.7639,5.4182 7.7309,5.4752 C7.6979,5.5322 7.6429,5.5732 7.5789,5.5872 C7.3119,5.6462 7.1179,5.8882 7.1179,6.1622 C7.1179,6.4882 7.3819,6.7532 7.7079,6.7532 C7.8739,6.7532 8.0269,6.6852 8.1399,6.5632 C8.1839,6.5152 8.2469,6.4882 8.3119,6.4882 M8.9169,7.2212 C8.7009,7.2212 8.4889,7.1542 8.3119,7.0312 C8.1359,7.1542 7.9239,7.2212 7.7079,7.2212 C7.1239,7.2212 6.6489,6.7462 6.6489,6.1622 C6.6489,5.7412 6.8899,5.3732 7.2579,5.2032 C7.2549,5.1712 7.2529,5.1382 7.2529,5.1052 C7.2529,4.5212 7.7279,4.0462 8.3119,4.0462 C8.8959,4.0462 9.3709,4.5212 9.3709,5.1052 C9.3709,5.1382 9.3699,5.1712 9.3659,5.2042 C9.7299,5.3762 9.9759,5.7492 9.9759,6.1622 C9.9759,6.7462 9.5009,7.2212 8.9169,7.2212" id="Fill-55" fill="#222222"></path>
            <path d="M5.4535,8.5341 C5.3235,8.5341 5.2195,8.4291 5.2195,8.3001 L5.2195,6.7221 C5.2195,6.5931 5.3235,6.4881 5.4535,6.4881 C5.5835,6.4881 5.6875,6.5931 5.6875,6.7221 L5.6875,8.3001 C5.6875,8.4291 5.5835,8.5341 5.4535,8.5341" id="Fill-57" fill="#222222"></path>
            <path d="M8.3119,8.5341 C8.1819,8.5341 8.0779,8.4291 8.0779,8.3001 L8.0779,6.7221 C8.0779,6.5931 8.1819,6.4881 8.3119,6.4881 C8.4419,6.4881 8.5459,6.5931 8.5459,6.7221 L8.5459,8.3001 C8.5459,8.4291 8.4419,8.5341 8.3119,8.5341" id="Fill-59" fill="#222222"></path>
            <path d="M20.6655,12.4541 L18.6225,12.4541 C18.4925,12.4541 18.3885,12.3491 18.3885,12.2201 C18.3885,12.0901 18.4925,11.9851 18.6225,11.9851 L20.6655,11.9851 C20.7955,11.9851 20.8995,12.0901 20.8995,12.2201 C20.8995,12.3491 20.7955,12.4541 20.6655,12.4541" id="Fill-61" fill="#222222"></path>
            <path d="M21.9946,12.4472 L21.7526,12.4472 C21.6226,12.4472 21.5176,12.3422 21.5176,12.2132 C21.5176,12.0832 21.6226,11.9782 21.7526,11.9782 L21.9946,11.9782 C22.1246,11.9782 22.2286,12.0832 22.2286,12.2132 C22.2286,12.3422 22.1246,12.4472 21.9946,12.4472" id="Fill-63" fill="#222222"></path>
        </g>
    </g>
</svg>