<svg xmlns="http://www.w3.org/2000/svg" width="90" height="90" viewBox="0 0 90 90"><path d="M17.833 50.71c.422-.035.712-.111.87-.229.246-.175.448-.542.607-1.098l2.206-7.963c.082-.322.137-.55.167-.681.029-.132.044-.262.044-.391 0-.293-.102-.497-.304-.611-.202-.114-.567-.177-1.094-.19v-.29h4.913v.29c-.486.042-.835.121-1.046.238-.363.2-.618.563-.764 1.09l-.958 3.507h5.124l.879-3.19c.058-.23.096-.41.114-.546.017-.134.026-.251.026-.351 0-.287-.143-.492-.43-.615-.194-.076-.472-.12-.835-.132v-.29h4.456v.29c-.475.058-.802.157-.98.294-.18.138-.345.482-.497 1.033l-2.206 7.963-.167.685a6.054 6.054 0 0 0-.03.185 1.183 1.183 0 0 0-.014.176c0 .34.101.558.303.655.202.096.567.153 1.095.171V51H24.39v-.29c.474-.035.82-.111 1.037-.229.363-.199.62-.565.773-1.098l1.196-4.254h-5.133l-1.037 3.709-.167.685a6.054 6.054 0 0 0-.031.185 1.183 1.183 0 0 0-.013.176c0 .328.092.54.277.637.184.097.517.16.997.189V51h-4.456v-.29zm48 0c.422-.035.712-.111.87-.229.246-.175.448-.542.607-1.098l2.206-7.963c.082-.322.137-.55.167-.681.029-.132.044-.262.044-.391 0-.287-.094-.485-.282-.594-.187-.108-.518-.177-.993-.206v-.29h4.456v.29c-.474.064-.801.165-.98.303-.178.138-.344.48-.496 1.024l-2.206 7.963a8.34 8.34 0 0 0-.163.694 2.61 2.61 0 0 0-.048.413c0 .293.104.49.312.59.208.099.514.157.918.175V51h-4.412v-.29zm-8.768-5.54l-.22 1.064H47.82l.22-1.063h9.026zm-.755 3.56l-.22 1.064h-9.027l.22-1.064h9.027zM32.178 55l2.031-7.7.022-.11a.638.638 0 0 0 .01-.112c0-.186-.054-.298-.162-.336-.108-.038-.34-.053-.695-.045v-.21a38.352 38.352 0 0 0 1.219-.17c.038-.01.184-.04.438-.096.253-.055.393-.082.418-.082l.013.063-1.593 5.954c.956-.753 1.604-1.28 1.942-1.58.339-.3.508-.527.508-.68 0-.101-.045-.165-.136-.19-.091-.025-.287-.044-.588-.057v-.216h2.38v.216a1.649 1.649 0 0 0-.869.305c-.266.186-.95.75-2.05 1.694.575 1.342.935 2.15 1.079 2.422.144.273.29.41.438.41.127 0 .26-.09.4-.267.093-.114.226-.322.4-.622l.197.133c-.271.495-.511.857-.72 1.086-.21.228-.453.342-.728.342a.682.682 0 0 1-.482-.206c-.144-.137-.337-.458-.578-.962a16.93 16.93 0 0 1-.34-.736 22.477 22.477 0 0 1-.402-.997l-.59.432L33.154 55h-.977z" fill="#222" fill-rule="evenodd"/></svg>