<svg xmlns="http://www.w3.org/2000/svg" width="224" height="90" viewBox="0 0 224 90"><g fill="none" fill-rule="evenodd"><path fill="#222" d="M1.833 49.71c.422-.035.712-.111.87-.229.246-.175.448-.542.607-1.098l2.206-7.963c.082-.322.137-.55.167-.681.029-.132.044-.262.044-.391 0-.293-.102-.497-.304-.611-.202-.114-.567-.177-1.094-.19v-.29h4.913v.29c-.486.042-.835.121-1.046.238-.363.2-.618.563-.764 1.09l-.958 3.507h5.124l.879-3.19c.058-.23.096-.41.114-.546.017-.134.026-.251.026-.351 0-.287-.143-.492-.43-.615-.194-.076-.472-.12-.835-.132v-.29h4.456v.29c-.475.058-.802.157-.98.294-.18.138-.345.482-.497 1.033l-2.206 7.963-.167.685a6.054 6.054 0 0 0-.03.185 1.183 1.183 0 0 0-.014.176c0 .34.101.558.303.655.202.096.567.153 1.095.171V50H8.39v-.29c.474-.035.82-.111 1.037-.229.363-.199.62-.565.773-1.098l1.196-4.254H6.263l-1.037 3.709-.167.685a6.054 6.054 0 0 0-.031.185 1.183 1.183 0 0 0-.013.176c0 .328.092.54.277.637.184.097.517.16.997.189V50H1.833v-.29zm39.232-5.54l-.22 1.064H31.82l.22-1.063h9.026zm-.755 3.56l-.22 1.064h-9.027l.22-1.064h9.027zM16.178 54l2.031-7.7.022-.11a.638.638 0 0 0 .01-.112c0-.186-.054-.298-.162-.336-.108-.038-.34-.053-.695-.045v-.21a38.352 38.352 0 0 0 1.219-.17c.038-.01.184-.04.438-.096.253-.055.393-.082.418-.082l.013.063-1.593 5.954c.956-.753 1.604-1.28 1.942-1.58.339-.3.508-.527.508-.68 0-.101-.045-.165-.136-.19-.091-.025-.287-.044-.588-.057v-.216h2.38v.216a1.649 1.649 0 0 0-.869.305c-.266.186-.95.75-2.05 1.694.575 1.342.935 2.15 1.079 2.422.144.273.29.41.438.41.127 0 .26-.09.4-.267.093-.114.226-.322.4-.622l.197.133c-.271.495-.511.857-.72 1.086-.21.228-.453.342-.728.342a.682.682 0 0 1-.482-.206c-.144-.137-.337-.458-.578-.962a16.93 16.93 0 0 1-.34-.736 22.477 22.477 0 0 1-.402-.997l-.59.432L17.154 54h-.977zm59.188-27.01a.687.687 0 0 1 .004.1v10.583c0 .451.12.738.36.861s.689.196 1.345.22V39h-4.957v-.264c.71-.035 1.172-.132 1.389-.29.217-.158.325-.5.325-1.028v-8.139c0-.281-.035-.495-.105-.641-.07-.147-.223-.22-.457-.22-.153 0-.35.042-.594.127-.243.085-.47.175-.68.268v-.246l3.225-1.643h.105c.024.03.037.051.04.066zm6.185 11.927a.972.972 0 0 1-.29-.708.95.95 0 0 1 .294-.703.972.972 0 0 1 .708-.29c.275 0 .51.096.703.29.193.193.29.428.29.703a.98.98 0 0 1-.286.708.946.946 0 0 1-.707.294.96.96 0 0 1-.712-.294zm8.686-1.657c.322-.944.483-2.309.483-4.096 0-1.424-.097-2.56-.29-3.41-.363-1.582-1.043-2.373-2.04-2.373-.995 0-1.678.814-2.047 2.443-.193.867-.29 2.01-.29 3.428 0 1.33.1 2.394.299 3.19.375 1.489 1.078 2.233 2.11 2.233.86 0 1.452-.472 1.775-1.415zm1.336-8.236c.591 1.143.887 2.455.887 3.938a9.848 9.848 0 0 1-.545 3.296c-.685 1.94-1.872 2.909-3.56 2.909-1.154 0-2.103-.524-2.847-1.573-.797-1.12-1.195-2.64-1.195-4.562 0-1.511.266-2.812.8-3.902.72-1.483 1.828-2.224 3.322-2.224 1.347 0 2.393.706 3.138 2.118zM76.082 59.26c.322-.944.483-2.309.483-4.096 0-1.424-.096-2.56-.29-3.41-.363-1.582-1.043-2.373-2.039-2.373-.996 0-1.678.814-2.048 2.443-.193.867-.29 2.01-.29 3.428 0 1.33.1 2.394.3 3.19.374 1.489 1.077 2.233 2.109 2.233.861 0 1.453-.472 1.775-1.415zm1.336-8.236c.592 1.143.888 2.455.888 3.938a9.848 9.848 0 0 1-.545 3.296c-.686 1.94-1.872 2.909-3.56 2.909-1.154 0-2.103-.524-2.847-1.573-.797-1.12-1.196-2.64-1.196-4.562 0-1.511.267-2.812.8-3.902.72-1.483 1.828-2.224 3.322-2.224 1.348 0 2.394.706 3.138 2.118zm4.133 9.893a.972.972 0 0 1-.29-.708.95.95 0 0 1 .294-.703.972.972 0 0 1 .708-.29c.275 0 .51.096.703.29.193.193.29.428.29.703a.98.98 0 0 1-.286.708.946.946 0 0 1-.707.294.96.96 0 0 1-.712-.294zm8.686-1.657c.322-.944.483-2.309.483-4.096 0-1.424-.097-2.56-.29-3.41-.363-1.582-1.043-2.373-2.04-2.373-.995 0-1.678.814-2.047 2.443-.193.867-.29 2.01-.29 3.428 0 1.33.1 2.394.299 3.19.375 1.489 1.078 2.233 2.11 2.233.86 0 1.452-.472 1.775-1.415zm1.336-8.236c.591 1.143.887 2.455.887 3.938a9.848 9.848 0 0 1-.545 3.296c-.685 1.94-1.872 2.909-3.56 2.909-1.154 0-2.103-.524-2.847-1.573-.797-1.12-1.195-2.64-1.195-4.562 0-1.511.266-2.812.8-3.902.72-1.483 1.828-2.224 3.322-2.224 1.347 0 2.393.706 3.138 2.118zm21.509-13.764c.322-.944.483-2.309.483-4.096 0-1.424-.096-2.56-.29-3.41-.363-1.582-1.043-2.373-2.039-2.373-.996 0-1.678.814-2.048 2.443-.193.867-.29 2.01-.29 3.428 0 1.33.1 2.394.3 3.19.374 1.489 1.077 2.233 2.109 2.233.861 0 1.453-.472 1.775-1.415zm1.336-8.236c.592 1.143.888 2.455.888 3.938a9.848 9.848 0 0 1-.545 3.296c-.686 1.94-1.872 2.909-3.56 2.909-1.154 0-2.103-.524-2.847-1.573-.797-1.12-1.196-2.64-1.196-4.562 0-1.511.267-2.812.8-3.902.72-1.483 1.828-2.224 3.322-2.224 1.348 0 2.394.706 3.138 2.118zm4.133 9.893a.972.972 0 0 1-.29-.708.95.95 0 0 1 .294-.703.972.972 0 0 1 .708-.29c.275 0 .51.096.703.29.193.193.29.428.29.703a.98.98 0 0 1-.286.708.946.946 0 0 1-.707.294.96.96 0 0 1-.712-.294zm8.686-1.657c.322-.944.483-2.309.483-4.096 0-1.424-.097-2.56-.29-3.41-.363-1.582-1.043-2.373-2.04-2.373-.995 0-1.678.814-2.047 2.443-.193.867-.29 2.01-.29 3.428 0 1.33.1 2.394.299 3.19.375 1.489 1.078 2.233 2.11 2.233.86 0 1.452-.472 1.775-1.415zm1.336-8.236c.591 1.143.887 2.455.887 3.938a9.848 9.848 0 0 1-.545 3.296c-.685 1.94-1.872 2.909-3.56 2.909-1.154 0-2.103-.524-2.847-1.573-.797-1.12-1.195-2.64-1.195-4.562 0-1.511.266-2.812.8-3.902.72-1.483 1.828-2.224 3.322-2.224 1.347 0 2.393.706 3.138 2.118zM112.366 48.99a.687.687 0 0 1 .004.1v10.583c0 .451.12.738.36.861s.689.196 1.345.22V61h-4.957v-.264c.71-.035 1.172-.132 1.389-.29.217-.158.325-.5.325-1.028v-8.139c0-.281-.035-.495-.105-.641-.07-.147-.223-.22-.457-.22-.153 0-.35.042-.594.127-.243.085-.47.175-.68.268v-.246l3.225-1.643h.105c.024.03.037.051.04.066zm6.185 11.927a.972.972 0 0 1-.29-.708.95.95 0 0 1 .294-.703.972.972 0 0 1 .708-.29c.275 0 .51.096.703.29.193.193.29.428.29.703a.98.98 0 0 1-.286.708.946.946 0 0 1-.707.294.96.96 0 0 1-.712-.294zm8.686-1.657c.322-.944.483-2.309.483-4.096 0-1.424-.097-2.56-.29-3.41-.363-1.582-1.043-2.373-2.04-2.373-.995 0-1.678.814-2.047 2.443-.193.867-.29 2.01-.29 3.428 0 1.33.1 2.394.299 3.19.375 1.489 1.078 2.233 2.11 2.233.86 0 1.452-.472 1.775-1.415zm1.336-8.236c.591 1.143.887 2.455.887 3.938a9.848 9.848 0 0 1-.545 3.296c-.685 1.94-1.872 2.909-3.56 2.909-1.154 0-2.103-.524-2.847-1.573-.797-1.12-1.195-2.64-1.195-4.562 0-1.511.266-2.812.8-3.902.72-1.483 1.828-2.224 3.322-2.224 1.347 0 2.393.706 3.138 2.118zm22.509-13.764c.322-.944.483-2.309.483-4.096 0-1.424-.096-2.56-.29-3.41-.363-1.582-1.043-2.373-2.039-2.373-.996 0-1.678.814-2.048 2.443-.193.867-.29 2.01-.29 3.428 0 1.33.1 2.394.3 3.19.374 1.489 1.077 2.233 2.109 2.233.861 0 1.453-.472 1.775-1.415zm1.336-8.236c.592 1.143.888 2.455.888 3.938a9.848 9.848 0 0 1-.545 3.296c-.686 1.94-1.872 2.909-3.56 2.909-1.154 0-2.103-.524-2.847-1.573-.797-1.12-1.196-2.64-1.196-4.562 0-1.511.267-2.812.8-3.902.72-1.483 1.828-2.224 3.322-2.224 1.348 0 2.394.706 3.138 2.118zm4.133 9.893a.972.972 0 0 1-.29-.708.95.95 0 0 1 .294-.703.972.972 0 0 1 .708-.29c.275 0 .51.096.703.29.193.193.29.428.29.703a.98.98 0 0 1-.286.708.946.946 0 0 1-.707.294.96.96 0 0 1-.712-.294zm8.686-1.657c.322-.944.483-2.309.483-4.096 0-1.424-.097-2.56-.29-3.41-.363-1.582-1.043-2.373-2.04-2.373-.995 0-1.678.814-2.047 2.443-.193.867-.29 2.01-.29 3.428 0 1.33.1 2.394.299 3.19.375 1.489 1.078 2.233 2.11 2.233.86 0 1.452-.472 1.775-1.415zm1.336-8.236c.591 1.143.887 2.455.887 3.938a9.848 9.848 0 0 1-.545 3.296c-.685 1.94-1.872 2.909-3.56 2.909-1.154 0-2.103-.524-2.847-1.573-.797-1.12-1.195-2.64-1.195-4.562 0-1.511.266-2.812.8-3.902.72-1.483 1.828-2.224 3.322-2.224 1.347 0 2.393.706 3.138 2.118zM151.082 59.26c.322-.944.483-2.309.483-4.096 0-1.424-.096-2.56-.29-3.41-.363-1.582-1.043-2.373-2.039-2.373-.996 0-1.678.814-2.048 2.443-.193.867-.29 2.01-.29 3.428 0 1.33.1 2.394.3 3.19.374 1.489 1.077 2.233 2.109 2.233.861 0 1.453-.472 1.775-1.415zm1.336-8.236c.592 1.143.888 2.455.888 3.938a9.848 9.848 0 0 1-.545 3.296c-.686 1.94-1.872 2.909-3.56 2.909-1.154 0-2.103-.524-2.847-1.573-.797-1.12-1.196-2.64-1.196-4.562 0-1.511.267-2.812.8-3.902.72-1.483 1.828-2.224 3.322-2.224 1.348 0 2.394.706 3.138 2.118zm4.133 9.893a.972.972 0 0 1-.29-.708.95.95 0 0 1 .294-.703.972.972 0 0 1 .708-.29c.275 0 .51.096.703.29.193.193.29.428.29.703a.98.98 0 0 1-.286.708.946.946 0 0 1-.707.294.96.96 0 0 1-.712-.294zm8.686-1.657c.322-.944.483-2.309.483-4.096 0-1.424-.097-2.56-.29-3.41-.363-1.582-1.043-2.373-2.04-2.373-.995 0-1.678.814-2.047 2.443-.193.867-.29 2.01-.29 3.428 0 1.33.1 2.394.299 3.19.375 1.489 1.078 2.233 2.11 2.233.86 0 1.452-.472 1.775-1.415zm1.336-8.236c.591 1.143.887 2.455.887 3.938a9.848 9.848 0 0 1-.545 3.296c-.685 1.94-1.872 2.909-3.56 2.909-1.154 0-2.103-.524-2.847-1.573-.797-1.12-1.195-2.64-1.195-4.562 0-1.511.266-2.812.8-3.902.72-1.483 1.828-2.224 3.322-2.224 1.347 0 2.393.706 3.138 2.118zm22.509-13.764c.322-.944.483-2.309.483-4.096 0-1.424-.096-2.56-.29-3.41-.363-1.582-1.043-2.373-2.039-2.373-.996 0-1.678.814-2.048 2.443-.193.867-.29 2.01-.29 3.428 0 1.33.1 2.394.3 3.19.374 1.489 1.077 2.233 2.109 2.233.861 0 1.453-.472 1.775-1.415zm1.336-8.236c.592 1.143.888 2.455.888 3.938a9.848 9.848 0 0 1-.545 3.296c-.686 1.94-1.872 2.909-3.56 2.909-1.154 0-2.103-.524-2.847-1.573-.797-1.12-1.196-2.64-1.196-4.562 0-1.511.267-2.812.8-3.902.72-1.483 1.828-2.224 3.322-2.224 1.348 0 2.394.706 3.138 2.118zm4.133 9.893a.972.972 0 0 1-.29-.708.95.95 0 0 1 .294-.703.972.972 0 0 1 .708-.29c.275 0 .51.096.703.29.193.193.29.428.29.703a.98.98 0 0 1-.286.708.946.946 0 0 1-.707.294.96.96 0 0 1-.712-.294zm8.686-1.657c.322-.944.483-2.309.483-4.096 0-1.424-.097-2.56-.29-3.41-.363-1.582-1.043-2.373-2.04-2.373-.995 0-1.678.814-2.047 2.443-.193.867-.29 2.01-.29 3.428 0 1.33.1 2.394.299 3.19.375 1.489 1.078 2.233 2.11 2.233.86 0 1.452-.472 1.775-1.415zm1.336-8.236c.591 1.143.887 2.455.887 3.938a9.848 9.848 0 0 1-.545 3.296c-.685 1.94-1.872 2.909-3.56 2.909-1.154 0-2.103-.524-2.847-1.573-.797-1.12-1.195-2.64-1.195-4.562 0-1.511.266-2.812.8-3.902.72-1.483 1.828-2.224 3.322-2.224 1.347 0 2.393.706 3.138 2.118zM189.082 59.26c.322-.944.483-2.309.483-4.096 0-1.424-.096-2.56-.29-3.41-.363-1.582-1.043-2.373-2.039-2.373-.996 0-1.678.814-2.048 2.443-.193.867-.29 2.01-.29 3.428 0 1.33.1 2.394.3 3.19.374 1.489 1.077 2.233 2.109 2.233.861 0 1.453-.472 1.775-1.415zm1.336-8.236c.592 1.143.888 2.455.888 3.938a9.848 9.848 0 0 1-.545 3.296c-.686 1.94-1.872 2.909-3.56 2.909-1.154 0-2.103-.524-2.847-1.573-.797-1.12-1.196-2.64-1.196-4.562 0-1.511.267-2.812.8-3.902.72-1.483 1.828-2.224 3.322-2.224 1.348 0 2.394.706 3.138 2.118zm4.133 9.893a.972.972 0 0 1-.29-.708.95.95 0 0 1 .294-.703.972.972 0 0 1 .708-.29c.275 0 .51.096.703.29.193.193.29.428.29.703a.98.98 0 0 1-.286.708.946.946 0 0 1-.707.294.96.96 0 0 1-.712-.294zm8.686-1.657c.322-.944.483-2.309.483-4.096 0-1.424-.097-2.56-.29-3.41-.363-1.582-1.043-2.373-2.04-2.373-.995 0-1.678.814-2.047 2.443-.193.867-.29 2.01-.29 3.428 0 1.33.1 2.394.299 3.19.375 1.489 1.078 2.233 2.11 2.233.86 0 1.452-.472 1.775-1.415zm1.336-8.236c.591 1.143.887 2.455.887 3.938a9.848 9.848 0 0 1-.545 3.296c-.685 1.94-1.872 2.909-3.56 2.909-1.154 0-2.103-.524-2.847-1.573-.797-1.12-1.195-2.64-1.195-4.562 0-1.511.266-2.812.8-3.902.72-1.483 1.828-2.224 3.322-2.224 1.347 0 2.393.706 3.138 2.118z"/><path fill="#0155FC" fill-rule="nonzero" d="M59 87.511a.5.5 0 1 1 0 1h-5a.5.5 0 0 1-.5-.5V2a.5.5 0 0 1 .5-.5h5a.5.5 0 1 1 0 1h-4.5v85.011H59zm158 0a.5.5 0 0 0 0 1h5a.5.5 0 0 0 .5-.5V2a.5.5 0 0 0-.5-.5h-5a.5.5 0 0 0 0 1h4.5v85.011H217z"/></g></svg>