<svg xmlns="http://www.w3.org/2000/svg" width="102" height="90" viewBox="0 0 102 90"><path d="M6.124 43.492c.094.008.196.013.308.013.908 0 1.677-.21 2.307-.629.63-.418.945-1.126.945-2.122 0-.756-.214-1.269-.642-1.538-.428-.27-.979-.404-1.652-.404-.24 0-.428.029-.563.087-.135.059-.231.19-.29.396l-1.169 4.122.756.075zM.745 49.71c.422-.035.712-.111.87-.229.246-.175.448-.542.607-1.098l2.215-7.963c.046-.158.092-.344.136-.558.044-.214.066-.4.066-.558 0-.276-.1-.465-.3-.567-.198-.103-.52-.166-.966-.19v-.29h4.456c.856 0 1.567.106 2.136.317 1.078.405 1.617 1.152 1.617 2.241 0 1.043-.469 1.852-1.406 2.426-.51.31-1.222.566-2.136.765l1.661 4.412c.164.434.352.753.563.958.21.205.524.316.94.334V50H8.541l-2.215-5.827-1.16-.088-1.028 3.753-.115.448a3.59 3.59 0 0 0-.087.668c0 .275.096.466.29.571.193.106.506.167.94.185V50H.746v-.29zm36.879-2.059v1.23h-9.088v-1.23h9.088zm0-3.63v1.231h-9.088v-1.23h9.088zM13.178 54l2.031-7.7.022-.11a.638.638 0 0 0 .01-.112c0-.186-.054-.298-.162-.336-.108-.038-.34-.053-.695-.045v-.21a38.352 38.352 0 0 0 1.219-.17c.038-.01.184-.04.438-.096.253-.055.393-.082.418-.082l.013.063-1.593 5.954c.956-.753 1.604-1.28 1.942-1.58.339-.3.508-.527.508-.68 0-.101-.045-.165-.136-.19-.091-.025-.287-.044-.588-.057v-.216h2.38v.216a1.649 1.649 0 0 0-.869.305c-.266.186-.95.75-2.05 1.694.575 1.342.935 2.15 1.079 2.422.144.273.29.41.438.41.127 0 .26-.09.4-.267.093-.114.226-.322.4-.622l.197.133c-.271.495-.511.857-.72 1.086-.21.228-.453.342-.728.342a.682.682 0 0 1-.482-.206c-.144-.137-.337-.458-.578-.962a16.93 16.93 0 0 1-.34-.736 22.477 22.477 0 0 1-.402-.997l-.59.432L14.154 54h-.977zm33.655-4.29c.422-.035.712-.111.87-.229.246-.175.448-.542.607-1.098l2.206-7.963c.082-.322.137-.55.167-.681.029-.132.044-.262.044-.391 0-.287-.094-.485-.282-.594-.187-.108-.518-.177-.993-.206v-.29h4.456v.29c-.474.064-.801.165-.98.303-.178.138-.344.48-.496 1.024l-2.206 7.963a8.34 8.34 0 0 0-.163.694 2.61 2.61 0 0 0-.048.413c0 .293.104.49.312.59.208.099.514.157.918.175V50h-4.412v-.29zm13.575-4.233c.938-.211 1.635-.466 2.092-.765-.445-.27-1.148-.527-2.11-.774-.58-.146-.87-.404-.87-.773a.59.59 0 0 1 .176-.448.613.613 0 0 1 .44-.167c.246 0 .572.236.98.707.407.472.91.866 1.507 1.182v-.228c0-.475-.078-.958-.233-1.45-.155-.492-.233-.835-.233-1.029 0-.257.07-.439.207-.545a.716.716 0 0 1 .444-.158c.181 0 .33.063.448.19.117.125.176.297.176.513 0 .118-.085.452-.255 1.002a5.218 5.218 0 0 0-.22 1.75 6.47 6.47 0 0 0 1.468-1.253c.404-.472.73-.708.975-.708.17 0 .32.058.449.172a.586.586 0 0 1 .193.461c0 .393-.26.642-.782.747-.88.176-1.6.451-2.162.826l.15.088c.456.27 1.136.498 2.038.686.516.111.774.372.774.782 0 .223-.081.381-.242.475a.897.897 0 0 1-.444.14c-.246 0-.576-.252-.989-.755-.413-.504-.848-.87-1.305-1.1l-.123-.06v.122c0 .704.084 1.287.25 1.75.168.462.251.74.251.834a.744.744 0 0 1-.198.506.653.653 0 0 1-.514.224.551.551 0 0 1-.457-.211.783.783 0 0 1-.167-.501c0-.047.1-.417.299-1.112.2-.694.267-1.19.202-1.49l-.026-.123a7.294 7.294 0 0 0-1.591 1.363c-.31.351-.598.527-.861.527-.211 0-.368-.061-.47-.185a.607.607 0 0 1-.154-.395c0-.416.295-.689.887-.817zm20.438-4.181l-.36 1.314h-3.114c.396 1.134 1.512 1.224 1.512 2.574 0 2.016-1.998 4.014-4.608 4.014-1.854 0-2.556-1.584-2.556-2.88 0-3.06 2.34-5.022 4.68-5.022h4.446zm-4.698 1.314h-.036c-1.206.108-2.934 1.656-2.934 4.212 0 .576.198 1.836 1.17 1.836 1.782 0 3.096-2.268 3.096-3.726a2.746 2.746 0 0 0-1.296-2.322zm12.014-1.391L87.46 43h-5.083v-.156l2.314-2.457c1.222-1.287 1.69-2.275 1.69-3.38 0-1.183-.702-1.833-1.807-1.833-.936 0-1.391.416-1.911 1.69l-.273-.065c.273-1.521 1.105-2.587 2.704-2.587 1.469 0 2.405 1.001 2.405 2.288 0 1.027-.507 2.002-1.664 3.224l-2.145 2.288h3.042c.546 0 .819-.143 1.248-.871l.182.078zm-3.367 8.217l-.377 1.3c.702-1.053 1.443-1.469 2.223-1.469.962 0 1.495.611 1.495 1.625 0 2.145-1.963 4.251-3.861 4.251-.299 0-.572-.052-.897-.221-.221.91-.52 1.976-.52 2.158 0 .286.195.377.806.377v.208h-2.639v-.208c.559-.013.728-.208.884-.819l1.495-5.616c.143-.52.208-.858.208-.923 0-.312-.364-.351-.572-.351h-.286l-.026-.195 2.028-.286c.039 0 .065.026.065.052 0 0-.013.065-.026.117zm2.171 1.495c0-.741-.221-1.105-.806-1.105-.689 0-1.456.702-1.755 1.482-.377.975-.845 2.652-.845 3.094 0 .286.26.494.624.494.689 0 1.313-.429 1.885-1.235.624-.871.897-1.82.897-2.73zm7.906.156c0 .988-.52 2.132-1.378 2.977-.754.754-1.586 1.079-2.444 1.079-1.222 0-1.91-.676-1.91-1.807 0-1.456.974-2.951 2.34-3.679a3.228 3.228 0 0 1 1.56-.39c1.052 0 1.832.676 1.832 1.82zm-1.092-.325c0-.793-.364-1.222-.923-1.222-.572 0-1.144.403-1.664 1.183-.598.91-.962 1.937-.962 2.964 0 .78.403 1.183 1.014 1.183.572 0 1.066-.377 1.573-1.079.598-.819.962-2.041.962-3.029zm6.503-1.508l-.26 1.82h-.208c-.13-1.079-.52-1.508-1.157-1.508-.455 0-.767.26-.767.741 0 .351.195.728.702 1.326.65.754.884 1.261.884 1.768 0 1.079-.793 1.742-1.872 1.742-.221 0-.416-.013-.715-.13a1.383 1.383 0 0 0-.572-.117c-.143 0-.286.065-.377.273h-.208l.26-2.067h.208c.182 1.235.624 1.768 1.3 1.768.61 0 .988-.364.988-1.001 0-.416-.221-.858-.728-1.495-.56-.702-.82-1.287-.82-1.703 0-.858.612-1.404 1.574-1.404.22 0 .403.039.728.13.247.078.364.091.468.091.195 0 .286-.052.39-.234h.182z" fill="#222" fill-rule="evenodd"/></svg>