<svg xmlns="http://www.w3.org/2000/svg" width="46" height="46" viewBox="0 0 46 46"><g fill="none" fill-rule="evenodd"><path fill="#222" d="M11.382 17.22l-.089.389a3.58 3.58 0 0 0-.386.041 1.74 1.74 0 0 0-.416.112 1.82 1.82 0 0 0-.519.313c-.118.11-.29.277-.519.5a62.8 62.8 0 0 0-1.238 1.254c-.48.498-.889.92-1.227 1.265.251.555.47 1.043.657 1.466.187.422.432.972.735 1.648.078.177.177.35.295.52.118.168.22.282.306.341.079.055.199.09.36.103.161.014.295.023.401.027l-.088.39H5.885l.088-.39c.232-.004.487-.03.764-.08.277-.049.416-.146.416-.292 0-.106-.029-.252-.086-.439a6.223 6.223 0 0 0-.191-.54 86.509 86.509 0 0 0-.369-.896c-.147-.354-.292-.69-.433-1.009a56.72 56.72 0 0 0-2.029 2.177 5.977 5.977 0 0 0-.38.472c-.089.125-.133.218-.133.277 0 .137.093.226.28.265.187.04.4.061.64.065l-.089.39H1.214l.088-.39a7.83 7.83 0 0 0 .393-.044 1.48 1.48 0 0 0 .41-.11c.224-.106.415-.226.575-.362a6.25 6.25 0 0 0 .468-.445c.374-.39.804-.832 1.29-1.327.485-.496.954-.983 1.406-1.463a2391.251 2391.251 0 0 0-1.28-2.866 5.403 5.403 0 0 0-.271-.549.79.79 0 0 0-.325-.271 1.28 1.28 0 0 0-.362-.1 5.085 5.085 0 0 0-.399-.053l.089-.39h3.727l-.088.39a4.045 4.045 0 0 0-.838.103c-.224.057-.336.142-.336.256 0 .126.027.266.08.42.053.153.125.337.215.554l.316.757c.08.195.217.509.41.941.42-.44.793-.833 1.117-1.18.324-.345.599-.66.823-.943.126-.161.216-.282.271-.363a.392.392 0 0 0 .083-.21c0-.113-.094-.197-.28-.25a2.427 2.427 0 0 0-.623-.085l.089-.39h3.12zm10.86 4.34H16.29v-.737h5.95v.737zm0 2.194H16.29v-.737h5.95v.737zm-9.045 2.16a.3.3 0 0 1-.087.206.282.282 0 0 1-.216.095.604.604 0 0 1-.164-.023 1.138 1.138 0 0 1-.177-.068 2.351 2.351 0 0 0-.287.193c-.099.077-.206.17-.322.28.096.25.177.453.243.613.067.159.124.29.171.39a.7.7 0 0 0 .201.27.409.409 0 0 0 .241.079c.04 0 .096-.006.167-.019a1.11 1.11 0 0 0 .165-.04l-.038.168c-.157.064-.28.107-.37.129a1.172 1.172 0 0 1-.27.032c-.108 0-.2-.03-.277-.09a.853.853 0 0 1-.22-.324 5.83 5.83 0 0 1-.185-.444 15.619 15.619 0 0 0-.16-.413l-.295.253-.218.975h-.47l.75-3.253.025-.108a.38.38 0 0 0 .006-.076c0-.06-.01-.107-.03-.14a.19.19 0 0 0-.086-.075.45.45 0 0 0-.134-.03 6.088 6.088 0 0 1-.164-.018l.035-.154.938-.058.025.038-.617 2.63h.01c.19-.205.364-.383.52-.534.156-.15.319-.304.489-.461.121-.111.217-.187.288-.229a.444.444 0 0 1 .228-.062c.086 0 .155.024.207.072a.253.253 0 0 1 .078.196zM38.96 4.02l-.06.26a2.46 2.46 0 0 0-.261.028 1.238 1.238 0 0 0-.635.285 41.109 41.109 0 0 0-1.193 1.176c-.326.333-.603.615-.833.847.171.372.32.699.447.982.126.283.293.652.498 1.105.053.118.12.234.2.347.08.114.15.19.208.23.054.037.135.06.245.069.109.01.2.015.272.018l-.06.26H35.23l.06-.26c.157-.003.33-.02.518-.054.188-.033.282-.098.282-.195 0-.071-.019-.17-.058-.295a4.135 4.135 0 0 0-.13-.361 57.58 57.58 0 0 0-.25-.601 31.23 31.23 0 0 0-.294-.676 39.458 39.458 0 0 0-1.378 1.458 4.015 4.015 0 0 0-.258.317c-.06.084-.09.146-.09.185 0 .093.064.152.19.178.127.026.272.041.435.044l-.06.26h-2.138l.06-.26a4.84 4.84 0 0 0 .266-.03c.108-.015.2-.039.278-.073a1.73 1.73 0 0 0 .39-.243c.109-.091.215-.19.319-.299.254-.26.545-.557.875-.889.33-.332.648-.658.955-.98a1592.081 1592.081 0 0 0-.87-1.92 3.602 3.602 0 0 0-.183-.368.535.535 0 0 0-.22-.182.878.878 0 0 0-.247-.067 3.494 3.494 0 0 0-.27-.036l.06-.26h2.53l-.06.26a2.78 2.78 0 0 0-.568.07c-.152.038-.229.095-.229.172a.86.86 0 0 0 .055.28c.036.103.084.227.146.372l.214.507c.055.13.147.34.278.63.286-.294.539-.558.759-.79.22-.231.406-.442.558-.632.086-.108.147-.189.184-.243a.26.26 0 0 0 .056-.14c0-.077-.063-.133-.19-.168a1.668 1.668 0 0 0-.422-.058l.06-.26h2.118zm-.43 10.784l-.066.26c-.049.003-.125.02-.228.05-.104.03-.185.064-.245.1a2.05 2.05 0 0 0-.251.145 3.32 3.32 0 0 0-.284.27c-.258.264-.533.573-.824.926-.292.353-.596.722-.915 1.106-.141.169-.24.305-.296.41a2.036 2.036 0 0 0-.157.448l-.257 1.09a.485.485 0 0 0-.016.139c0 .066.012.121.037.166a.29.29 0 0 0 .138.114c.06.027.16.053.3.08.14.026.251.04.333.043l-.061.26h-2.71l.06-.26c.08-.005.195-.015.348-.028a1.38 1.38 0 0 0 .334-.059.516.516 0 0 0 .243-.164.639.639 0 0 0 .113-.251l.293-1.229.025-.119a.574.574 0 0 0 .012-.07c0-.064-.012-.146-.037-.248a5.101 5.101 0 0 0-.09-.322 71.643 71.643 0 0 0-.295-.976 27.932 27.932 0 0 0-.312-.948 1.61 1.61 0 0 0-.158-.338.78.78 0 0 0-.193-.204.598.598 0 0 0-.21-.09 1.435 1.435 0 0 0-.24-.04l.066-.261h2.375l-.065.26-.24.013a3.397 3.397 0 0 0-.266.023.668.668 0 0 0-.206.062c-.061.03-.092.069-.092.116 0 .05.018.137.053.259a30.247 30.247 0 0 0 .398 1.257c.088.262.187.56.296.895.397-.466.751-.89 1.063-1.27.312-.381.522-.646.63-.793.085-.113.135-.186.152-.22a.198.198 0 0 0 .024-.084c0-.09-.067-.153-.2-.19-.133-.037-.3-.06-.502-.067l.065-.261h2.057zm.43 10.784l-.06.261a2.46 2.46 0 0 0-.261.028 1.238 1.238 0 0 0-.635.285 41.109 41.109 0 0 0-1.193 1.176c-.326.332-.603.615-.833.847.171.371.32.699.447.982.126.283.293.651.498 1.104.053.119.12.235.2.348.08.113.15.19.208.23.054.036.135.06.245.068.109.01.2.016.272.018l-.06.261H35.23l.06-.26c.157-.003.33-.021.518-.054s.282-.098.282-.196c0-.07-.019-.169-.058-.294a4.135 4.135 0 0 0-.13-.362 57.55 57.55 0 0 0-.25-.6 31.23 31.23 0 0 0-.294-.676c-.195.195-.425.432-.689.711-.264.28-.494.528-.689.747a4.015 4.015 0 0 0-.258.316c-.06.085-.09.146-.09.186 0 .092.064.151.19.178.127.026.272.04.435.043l-.06.261h-2.138l.06-.26a4.84 4.84 0 0 0 .266-.03c.108-.015.2-.04.278-.074.152-.07.283-.152.39-.243.109-.09.215-.19.319-.298.254-.26.545-.557.875-.89.33-.331.648-.658.955-.98a1592.013 1592.013 0 0 0-.87-1.92 3.602 3.602 0 0 0-.183-.367.535.535 0 0 0-.22-.182.878.878 0 0 0-.247-.067 3.494 3.494 0 0 0-.27-.036l.06-.26h2.53l-.06.26a2.78 2.78 0 0 0-.568.07c-.152.037-.229.095-.229.171 0 .084.019.178.055.28.036.103.084.227.146.372l.214.508c.055.13.147.34.278.63.286-.295.539-.558.759-.79.22-.232.406-.443.558-.632a5.11 5.11 0 0 0 .184-.243.26.26 0 0 0 .056-.14c0-.077-.063-.133-.19-.169a1.668 1.668 0 0 0-.422-.057l.06-.26h2.118zm-.43 10.785l-.066.26c-.049.003-.125.02-.228.05-.104.03-.185.064-.245.1-.12.061-.204.11-.251.145a3.32 3.32 0 0 0-.284.27c-.258.264-.533.572-.824.925l-.915 1.107c-.141.168-.24.305-.296.409a2.036 2.036 0 0 0-.157.448l-.257 1.091a.485.485 0 0 0-.016.138c0 .066.012.122.037.166a.29.29 0 0 0 .138.115 2.567 2.567 0 0 0 .633.123l-.061.26h-2.71l.06-.26.348-.028c.152-.013.264-.033.334-.06a.516.516 0 0 0 .243-.163.639.639 0 0 0 .113-.251l.293-1.23.025-.118a.574.574 0 0 0 .012-.071c0-.063-.012-.146-.037-.247a5.101 5.101 0 0 0-.09-.322 71.643 71.643 0 0 0-.295-.976 27.932 27.932 0 0 0-.312-.949 1.61 1.61 0 0 0-.158-.338.78.78 0 0 0-.193-.203.598.598 0 0 0-.21-.091 1.436 1.436 0 0 0-.24-.04l.066-.26h2.375l-.065.26-.24.012a3.398 3.398 0 0 0-.266.024.668.668 0 0 0-.206.061c-.061.03-.092.07-.092.117 0 .05.018.136.053.259a30.247 30.247 0 0 0 .398 1.257c.088.262.187.56.296.894.397-.466.751-.89 1.063-1.27.312-.38.522-.645.63-.792a2.2 2.2 0 0 0 .152-.22.198.198 0 0 0 .024-.085c0-.09-.067-.153-.2-.19a2.304 2.304 0 0 0-.502-.067l.065-.26h2.057zm2.332-11.263c0 .113-.08.356-.242.73-.162.374-.338.82-.53 1.337h-.266c.014-.494.021-.913.021-1.256 0-.343.012-.579.035-.707a.604.604 0 0 1 .192-.342.548.548 0 0 1 .388-.147c.137 0 .238.038.304.112a.397.397 0 0 1 .098.272zm0 10.784c0 .113-.08.357-.242.73-.162.374-.338.82-.53 1.338h-.266c.014-.495.021-.914.021-1.257 0-.343.012-.579.035-.707a.604.604 0 0 1 .192-.342.548.548 0 0 1 .388-.146c.137 0 .238.037.304.111a.397.397 0 0 1 .098.273z"/><path stroke="#0155FC" stroke-linecap="round" stroke-linejoin="round" d="M30 1h-4v44.011h4M40 1h4v44.011h-4"/></g></svg>