<svg width="24" height="24" viewBox="0 0 24 24" xmlns="http://www.w3.org/2000/svg"><title>icons/sys/Accelerometer</title><g fill="none" fill-rule="evenodd"><path d="M11.842 19.568a7.727 7.727 0 1 1 7.727-7.726 7.726 7.726 0 0 1-7.727 7.726m0-17.333a9.607 9.607 0 0 0-9.607 9.607c0 5.306 4.3 9.608 9.607 9.608 5.306 0 9.607-4.302 9.607-9.608a9.607 9.607 0 0 0-9.607-9.607" fill="#FFF"/><path d="M11.842 2.469c-5.168 0-9.373 4.204-9.373 9.373 0 5.168 4.205 9.373 9.373 9.373 5.168 0 9.373-4.205 9.373-9.373 0-5.169-4.205-9.373-9.373-9.373m0 19.215C6.415 21.684 2 17.269 2 11.842 2 6.415 6.415 2 11.842 2c5.427 0 9.842 4.415 9.842 9.842 0 5.427-4.415 9.842-9.842 9.842" fill="#222"/><path d="M10.57 3.5a.233.233 0 0 1-.232-.2.233.233 0 0 1 .197-.267c.11-.016.22-.03.33-.042a.235.235 0 1 1 .05.466 8.055 8.055 0 0 0-.312.04.194.194 0 0 1-.034.002M7.118 19.343a.241.241 0 0 1-.128-.038 8.887 8.887 0 0 1-4.052-7.463c0-3.881 2.593-7.384 6.307-8.518a.234.234 0 0 1 .292.156.234.234 0 0 1-.155.293c-3.518 1.075-5.975 4.392-5.975 8.069a8.42 8.42 0 0 0 3.84 7.07.234.234 0 0 1-.129.431" fill="#0155FC"/><path d="M19.47 13.305a.233.233 0 0 1-.231-.271 7.551 7.551 0 0 0 .094-1.192c0-4.131-3.36-7.492-7.491-7.492a7.97 7.97 0 0 0-1.007.067.238.238 0 0 1-.263-.201.235.235 0 0 1 .2-.264 8.01 8.01 0 0 1 1.07-.071c4.39 0 7.96 3.57 7.96 7.96a7.909 7.909 0 0 1-.1 1.267.234.234 0 0 1-.231.197M9.554 4.694a.235.235 0 0 1-.07-.458c.08-.024.16-.048.242-.07a.235.235 0 0 1 .124.451 9.7 9.7 0 0 0-.227.067.231.231 0 0 1-.07.01m2.289 15.108c-4.39 0-7.96-3.57-7.96-7.96A8.008 8.008 0 0 1 8.4 4.661a.234.234 0 1 1 .203.423 7.536 7.536 0 0 0-4.253 6.758 7.492 7.492 0 1 0 14.093 3.546.236.236 0 0 1 .317-.095.235.235 0 0 1 .095.318 7.957 7.957 0 0 1-7.014 4.191m7.307-5.208a.234.234 0 0 1-.222-.311c.03-.082.055-.165.081-.248a.236.236 0 0 1 .293-.155c.123.038.194.17.155.294a8.054 8.054 0 0 1-.085.263.237.237 0 0 1-.222.157" fill="#222"/><path d="M6.277 11.842a5.564 5.564 0 1 1 11.13 0 5.564 5.564 0 0 1-11.13 0" fill="#DDD"/><path d="M10.04 7.815a.235.235 0 0 1-.216-.144.235.235 0 0 1 .126-.307l.153-.062a.236.236 0 0 1 .304.134.235.235 0 0 1-.135.304l-.14.056a.229.229 0 0 1-.091.019m-2.502 2.561a.232.232 0 0 1-.218-.32A4.878 4.878 0 0 1 8.94 7.943a.235.235 0 0 1 .281.376 4.42 4.42 0 0 0-1.464 1.91.235.235 0 0 1-.218.147" fill="#0155FC"/><path d="M11.842 6.512a5.337 5.337 0 0 0-5.33 5.33 5.337 5.337 0 0 0 5.33 5.33 5.336 5.336 0 0 0 5.33-5.33 5.336 5.336 0 0 0-5.33-5.33m0 11.129a5.806 5.806 0 0 1-5.8-5.8 5.806 5.806 0 0 1 5.8-5.798 5.806 5.806 0 0 1 5.799 5.799 5.806 5.806 0 0 1-5.8 5.799" fill="#222"/><path d="M12.615 9.161v-2.83a5.638 5.638 0 0 0-1.547 0v2.83a2.793 2.793 0 0 0-1.878 1.812H6.344a5.8 5.8 0 0 0-.026 1.548h2.818a2.794 2.794 0 0 0 1.932 2.001v2.83a5.488 5.488 0 0 0 1.547 0v-2.83a2.797 2.797 0 0 0 1.933-2h2.817a5.671 5.671 0 0 0-.026-1.548h-2.845a2.797 2.797 0 0 0-1.879-1.813" fill="#FFF"/><path d="M11.303 17.145c.359.036.72.036 1.079 0v-2.622c0-.105.068-.196.169-.226a2.56 2.56 0 0 0 1.77-1.833.234.234 0 0 1 .227-.176h2.606a5.655 5.655 0 0 0-.02-1.08h-2.641a.232.232 0 0 1-.222-.161 2.555 2.555 0 0 0-1.72-1.661.231.231 0 0 1-.17-.224V6.54a5.258 5.258 0 0 0-1.078 0v2.622a.232.232 0 0 1-.17.224 2.559 2.559 0 0 0-1.72 1.66.232.232 0 0 1-.222.162H6.55a5.355 5.355 0 0 0-.02 1.08h2.606c.107 0 .2.073.228.176a2.56 2.56 0 0 0 1.769 1.833c.1.03.17.12.17.226v2.622zm.539.496c-.268 0-.54-.018-.806-.056a.234.234 0 0 1-.202-.232v-2.66a3.036 3.036 0 0 1-1.875-1.937h-2.64a.236.236 0 0 1-.233-.206 5.8 5.8 0 0 1 .028-1.612.233.233 0 0 1 .23-.198h2.682a3.016 3.016 0 0 1 1.808-1.75V6.333c0-.118.086-.217.202-.233a5.888 5.888 0 0 1 1.613 0 .235.235 0 0 1 .202.233V8.99c.828.292 1.488.93 1.807 1.749h2.68c.116 0 .215.084.233.198a5.974 5.974 0 0 1 .027 1.61.234.234 0 0 1-.233.208h-2.64a3.036 3.036 0 0 1-1.874 1.938v2.659a.235.235 0 0 1-.202.232 5.75 5.75 0 0 1-.807.056z" fill="#222"/><path d="M11.842 13.365a1.524 1.524 0 1 1 1.524-1.523c0 .841-.682 1.523-1.524 1.523" fill="#0155FC"/><path d="M11.256 12.076a.234.234 0 0 1-.234-.234.82.82 0 0 1 .82-.82.234.234 0 1 1 0 .469.353.353 0 0 0-.352.351.234.234 0 0 1-.234.234" fill="#FFF"/><path d="M11.842 10.552a1.29 1.29 0 1 0 .002 2.578 1.29 1.29 0 0 0-.002-2.578m0 3.048a1.76 1.76 0 0 1 0-3.517c.97 0 1.759.789 1.759 1.759a1.76 1.76 0 0 1-1.76 1.758" fill="#222"/></g></svg>