<svg xmlns="http://www.w3.org/2000/svg" width="24" height="24" viewBox="0 0 24 24"><g fill="none" fill-rule="evenodd"><path fill="#0155FC" d="M16.02 3.794a.852.852 0 0 1-.605-.251 5.463 5.463 0 0 0-7.718 0 .855.855 0 1 1-1.211-1.211c2.795-2.795 7.344-2.795 10.139 0a.857.857 0 0 1-.605 1.462m-1.675 3.325a.853.853 0 0 1-.605-.251 3.073 3.073 0 0 0-2.185-.904c-.825 0-1.601.321-2.185.904a.855.855 0 1 1-1.211-1.211 4.778 4.778 0 0 1 3.396-1.406c1.283 0 2.488.5 3.395 1.406a.857.857 0 0 1-.605 1.462"/><path fill="#222" d="M8.631 1.09a.234.234 0 0 1-.097-.448L8.696.57a.235.235 0 1 1 .184.432l-.153.066a.238.238 0 0 1-.096.02"/><path fill="#222" d="M7.091 4.028c-.292 0-.565-.113-.77-.319A1.08 1.08 0 0 1 6 2.937c0-.29.112-.564.32-.77a7.358 7.358 0 0 1 1.166-.952.233.233 0 1 1 .258.39c-.393.26-.76.561-1.093.893a.617.617 0 0 0-.001.879.634.634 0 0 0 .88 0 5.7 5.7 0 0 1 8.05 0 .633.633 0 0 0 .878 0 .622.622 0 0 0 0-.879A6.964 6.964 0 0 0 9.697.72a.234.234 0 0 1-.125-.45 7.42 7.42 0 0 1 7.22 1.897 1.086 1.086 0 0 1-.002 1.543 1.116 1.116 0 0 1-1.542 0 5.227 5.227 0 0 0-7.386 0c-.206.206-.48.32-.77.32"/><path fill="#222" d="M11.555 4.485a4.541 4.541 0 0 0-3.229 1.338.621.621 0 0 0 0 .88.634.634 0 0 0 .879 0 3.302 3.302 0 0 1 2.35-.974c.888 0 1.723.346 2.351.973a.635.635 0 0 0 .878.001.62.62 0 0 0 0-.88 4.54 4.54 0 0 0-3.229-1.338M8.766 7.353c-.292 0-.566-.113-.773-.319a1.097 1.097 0 0 1 0-1.543 5.013 5.013 0 0 1 3.562-1.475c1.345 0 2.609.524 3.561 1.475.207.207.32.48.32.771 0 .292-.114.566-.32.772-.41.412-1.131.412-1.542 0a2.838 2.838 0 0 0-2.019-.836c-.763 0-1.479.297-2.018.836-.206.206-.48.32-.771.32m.362 2.647c-.012.002-.023.006-.034.009a.28.28 0 0 0-.163.436l.583.892c-.988.53-1.698 1.442-1.864 2.527v.062a.312.312 0 0 0 0 .044v.392a1.065 1.065 0 0 0-.55-.156c-.605 0-1.1.503-1.1 1.12v3.356c0 .617.495 1.12 1.1 1.12.202 0 .388-.06.55-.158v.717c0 .46.373.84.825.84h.276v1.678c0 .615.494 1.12 1.099 1.12s1.1-.505 1.1-1.12v-1.678h1.1v1.678c0 .615.495 1.12 1.1 1.12.604 0 1.1-.505 1.1-1.12v-1.678h.275c.451 0 .825-.38.825-.84v-.717c.164.098.348.157.55.157.605 0 1.1-.502 1.1-1.119v-3.357c0-.616-.495-1.12-1.1-1.12-.202 0-.386.06-.55.157v-.383a.34.34 0 0 0 0-.08v-.017c-.16-1.093-.87-2.013-1.865-2.545l.584-.892a.283.283 0 0 0 .007-.317.27.27 0 0 0-.29-.12.268.268 0 0 0-.172.123l-.644.97a4.27 4.27 0 0 0-1.47-.253 4.27 4.27 0 0 0-1.47.254l-.644-.971a.273.273 0 0 0-.258-.13zm2.372 1.407c.517 0 1 .103 1.427.289l.026.009c.86.384 1.485 1.102 1.727 1.94H8.32c.238-.827.851-1.536 1.694-1.922a.293.293 0 0 0 .05-.027 3.583 3.583 0 0 1 1.436-.289zm-1.513.84a.415.415 0 0 0-.412.42c0 .233.184.419.412.419a.415.415 0 0 0 .413-.42.416.416 0 0 0-.413-.419zm3.026 0a.415.415 0 0 0-.413.42c0 .233.184.419.413.419a.414.414 0 0 0 .412-.42.415.415 0 0 0-.412-.419zM8.2 14.207h6.6v6.155c0 .158-.12.281-.275.281h-2.148a.246.246 0 0 0-.112 0H9.077a.242.242 0 0 0-.111 0h-.491a.274.274 0 0 1-.275-.281v-6.155zm-1.1.56a.55.55 0 0 1 .55.56v3.356a.55.55 0 0 1-1.1 0v-3.357a.55.55 0 0 1 .55-.56zm8.8 0a.55.55 0 0 1 .55.56v3.356a.55.55 0 1 1-1.1 0v-3.357a.55.55 0 0 1 .55-.56zm-6.6 6.435h1.1v1.678c0 .313-.244.56-.55.56a.551.551 0 0 1-.55-.56v-1.678zm3.3 0h1.1v1.678a.55.55 0 1 1-1.1 0v-1.678z"/></g></svg>