<svg xmlns="http://www.w3.org/2000/svg" width="24" height="24" viewBox="0 0 24 24"><g fill="none" fill-rule="evenodd"><path fill="#DDD" d="M13.579 3.845h-2.462V.703c0-.258.21-.468.469-.468h1.523c.26 0 .47.21.47.468v3.142z"/><path fill="#222" d="M11.351 3.61h1.992V.705A.235.235 0 0 0 13.11.47h-1.524a.235.235 0 0 0-.235.235V3.61zm2.227.47h-2.46a.235.235 0 0 1-.236-.235V.704c0-.388.316-.703.704-.703h1.524c.388 0 .703.315.703.703v3.14c0 .13-.106.236-.235.236z"/><path fill="#FFF" d="M12.348 23.212c-5.586 0-10.114-4.42-10.114-9.87 0-5.452 4.529-9.872 10.114-9.872 5.585 0 10.112 4.42 10.112 9.871 0 5.451-4.527 9.871-10.113 9.871"/><path fill="#0155FC" d="M13.29 14.284l3.603-5.485-.003-.002-5.485 3.6z"/><path fill="#0155FC" d="M11.405 12.398l-3.603 5.485.004.003 5.484-3.602z"/><path fill="#222" d="M11.774 12.436l1.478 1.479 2.83-4.307-4.308 2.828zm1.516 2.082a.235.235 0 0 1-.166-.068l-1.885-1.886a.234.234 0 0 1 .037-.361L16.76 8.6c.1-.063.23-.047.307.044a.24.24 0 0 1 .021.284l-3.602 5.485a.239.239 0 0 1-.196.105z"/><path fill="#222" d="M11.443 12.768l-2.829 4.307 4.307-2.83-1.478-1.477zM7.805 18.12a.24.24 0 0 1-.199-.368l3.603-5.484a.238.238 0 0 1 .172-.105.246.246 0 0 1 .19.069l1.885 1.886c.05.049.074.119.067.189a.24.24 0 0 1-.104.172l-5.485 3.6a.228.228 0 0 1-.129.04z"/><path fill="#FFF" d="M11.284 14.405c-.603-.602-.614-1.566-.026-2.154.588-.587 1.551-.575 2.154.026.601.603.613 1.567.026 2.154-.588.588-1.552.577-2.154-.025"/><path fill="#222" d="M11.45 14.24c.247.246.573.386.92.39.336.024.663-.126.901-.365.495-.495.485-1.313-.025-1.822a1.316 1.316 0 0 0-.92-.391 1.26 1.26 0 0 0-.902.364c-.496.495-.485 1.313.025 1.823m.937.86h-.023a1.78 1.78 0 0 1-1.246-.529c-.69-.691-.703-1.808-.025-2.486.33-.329.762-.512 1.24-.5.47.005.911.193 1.246.527.691.692.703 1.808.025 2.486a1.704 1.704 0 0 1-1.217.502"/><path fill="#0155FC" d="M11.946 13.976a.233.233 0 0 1-.166-.068.861.861 0 0 1-.253-.604.778.778 0 0 1 .783-.783.235.235 0 1 1 0 .469.309.309 0 0 0-.314.314c0 .1.042.198.116.272a.234.234 0 0 1-.166.4"/><path fill="#DDD" d="M12.348 21.306c-4.508 0-8.16-3.566-8.16-7.965 0-4.398 3.652-7.965 8.16-7.965 4.506 0 8.16 3.567 8.16 7.965 0 4.399-3.653 7.965-8.16 7.965m0-17.836c-5.586 0-10.114 4.42-10.114 9.87 0 5.452 4.529 9.872 10.114 9.872 5.585 0 10.112-4.42 10.112-9.871 0-5.451-4.527-9.871-10.113-9.871"/><path fill="#222" d="M12.348 5.61c-4.37 0-7.927 3.469-7.927 7.73 0 4.264 3.556 7.732 7.926 7.732s7.926-3.468 7.926-7.731c0-4.262-3.556-7.73-7.925-7.73m0 15.93c-4.63 0-8.396-3.68-8.396-8.2 0-4.521 3.766-8.2 8.396-8.2 4.628 0 8.394 3.679 8.394 8.2 0 4.52-3.766 8.2-8.395 8.2"/><path fill="#222" d="M12.348 3.704c-5.448 0-9.88 4.323-9.88 9.637 0 5.313 4.433 9.635 9.88 9.635 5.446 0 9.879-4.322 9.879-9.635 0-5.314-4.433-9.637-9.88-9.637m0 19.741C6.643 23.445 2 18.912 2 13.341 2 7.768 6.642 3.235 12.348 3.235c5.707 0 10.348 4.533 10.348 10.106 0 5.571-4.642 10.104-10.348 10.104"/><path fill="#0155FC" d="M8.257 5.58a.234.234 0 0 1-.103-.445 7.29 7.29 0 0 1 .253-.118.234.234 0 1 1 .192.427 7.47 7.47 0 0 0-.24.113.253.253 0 0 1-.102.023m1.09 16.438a.224.224 0 0 1-.075-.013c-3.788-1.28-6.333-4.761-6.333-8.664 0-2.87 1.412-5.613 3.777-7.341a.236.236 0 0 1 .328.052.234.234 0 0 1-.051.327c-2.28 1.664-3.585 4.2-3.585 6.962 0 3.7 2.417 7.004 6.014 8.22a.235.235 0 1 1-.075.457M11.983 6.69a.234.234 0 0 1-.012-.468 7.83 7.83 0 0 1 .376-.01c.13 0 .235.107.235.236 0 .13-.105.234-.235.234-.118 0-.235.003-.352.009h-.012z"/><path fill="#0155FC" d="M5.263 13.575a.234.234 0 0 1-.234-.233c0-3.225 2.233-6.058 5.432-6.889a.234.234 0 0 1 .117.454c-2.991.777-5.081 3.424-5.081 6.434a.234.234 0 0 1-.234.235"/><path fill="#FFF" d="M12.348 3.47c.538 0 .976.427.976.953a.966.966 0 0 1-.976.953.966.966 0 0 1-.978-.953c0-.526.439-.953.978-.953"/><path fill="#222" d="M12.348 3.704a.731.731 0 0 0-.743.72c0 .395.333.717.742.717a.731.731 0 0 0 .742-.718.731.731 0 0 0-.742-.719m0 1.906a1.2 1.2 0 0 1-1.21-1.187 1.2 1.2 0 0 1 1.21-1.188 1.2 1.2 0 0 1 1.212 1.188 1.2 1.2 0 0 1-1.211 1.187"/><path fill="#FFF" d="M12.348 21.306c.538 0 .976.427.976.953a.966.966 0 0 1-.976.953.966.966 0 0 1-.978-.953c0-.526.439-.953.978-.953"/><path fill="#222" d="M12.348 21.54a.731.731 0 0 0-.743.72c0 .394.333.717.742.717a.732.732 0 0 0 .742-.718.731.731 0 0 0-.742-.719m0 1.905a1.2 1.2 0 0 1-1.21-1.186 1.2 1.2 0 0 1 1.21-1.188 1.2 1.2 0 0 1 1.212 1.188 1.2 1.2 0 0 1-1.211 1.186"/><path fill="#FFF" d="M22.414 13.341a.966.966 0 0 1-.953.977.966.966 0 0 1-.953-.977c0-.539.427-.977.953-.977s.953.438.953.977"/><path fill="#222" d="M21.46 12.599a.732.732 0 0 0-.718.742c0 .409.323.742.719.742a.732.732 0 0 0 .719-.742.732.732 0 0 0-.72-.742m0 1.953a1.2 1.2 0 0 1-1.186-1.211 1.2 1.2 0 0 1 1.187-1.211 1.2 1.2 0 0 1 1.187 1.21 1.2 1.2 0 0 1-1.187 1.212"/><path fill="#FFF" d="M4.14 13.341a.966.966 0 0 1-.953.977.966.966 0 0 1-.953-.977c0-.539.427-.977.953-.977.527 0 .954.438.954.977"/><path fill="#222" d="M3.187 12.599a.732.732 0 0 0-.719.742c0 .409.323.742.72.742a.732.732 0 0 0 .718-.742.732.732 0 0 0-.719-.742m0 1.953A1.2 1.2 0 0 1 2 13.34a1.2 1.2 0 0 1 1.187-1.211 1.2 1.2 0 0 1 1.187 1.21 1.2 1.2 0 0 1-1.187 1.212m9.161-10.847a.233.233 0 0 1-.235-.234V.234c0-.13.104-.234.235-.234.13 0 .233.104.233.234V3.47c0 .13-.104.234-.233.234"/></g></svg>