<svg width="30" height="38" viewBox="0 0 30 38" xmlns="http://www.w3.org/2000/svg"><title>Path</title><path d="M14.874 38c-2.165 0-7.71-9.937-10.576-12.737C1.433 22.463 0 18.959 0 14.753 0 10.544 1.433 7.034 4.298 4.22S10.731 0 15 0c4.27 0 7.837 1.407 10.702 4.22C28.567 7.036 30 10.546 30 14.753s-1.433 7.71-4.298 10.51S17.039 38 14.874 38zM15 22.8c2.496 0 4.578-.842 6.247-2.525 1.669-1.683 2.503-3.79 2.503-6.322s-.834-4.645-2.503-6.342C19.578 5.915 17.496 5.067 15 5.067s-4.578.848-6.247 2.544c-1.669 1.697-2.503 3.81-2.503 6.342 0 2.531.834 4.639 2.503 6.322C10.422 21.958 12.504 22.8 15 22.8z" fill="#0155FC" fill-rule="evenodd"/></svg>