<?xml version="1.0" standalone="no"?>
<!DOCTYPE svg PUBLIC "-//W3C//DTD SVG 1.1//EN" "http://www.w3.org/Graphics/SVG/1.1/DTD/svg11.dtd" >
<svg xmlns="http://www.w3.org/2000/svg" xmlns:xlink="http://www.w3.org/1999/xlink" version="1.1">
<metadata>
Created by FontForge 20161003 at Thu Mar  8 08:40:50 2018
 By www-data
Copyright 2017 BlackFoundry
</metadata>
<defs>
<font id="ClotherBlack" horiz-adv-x="0" >
  <font-face 
    font-family="ClotherBlack"
    font-weight="900"
    font-stretch="normal"
    units-per-em="1000"
    panose-1="2 11 9 3 2 2 3 2 2 3"
    ascent="800"
    descent="-200"
    x-height="470"
    cap-height="685"
    bbox="-762 -585 1502 1264"
    underline-thickness="50"
    underline-position="-155"
    unicode-range="U+000D-FEFC"
  />
<missing-glyph horiz-adv-x="682" 
d="M587 0h-492v685h492v-685zM147 638v-591h388v591h-388z" />
    <glyph glyph-name="fi" unicode="fi" horiz-adv-x="638" 
d="M309 559q-22 0 -37 -14t-15 -34q0 -12 2 -22t7 -19h317v-470h-175v321h-120v-321h-175v321h-99v144l85 5q-9 21 -13 42t-4 43q0 71 53 115.5t138 44.5q52 0 108.5 -20t114.5 -60l-70 -125q-40 26 -67 37.5t-50 11.5z" />
    <glyph glyph-name="fl" unicode="fl" horiz-adv-x="638" 
d="M113 321h-99v144l85 5q-9 21 -13 42t-4 43q0 71 53 115.5t138 44.5q38 0 79.5 -11t84.5 -33l11 34h135v-705h-175v521q-32 20 -55.5 29t-43.5 9q-22 0 -37 -14t-15 -34q0 -12 2 -22t7 -19h80v-149h-58v-321h-175v321z" />
    <glyph glyph-name="allah" unicode="&#xfe8d;&#xfedf;&#xfee0;&#xfeea;" horiz-adv-x="1394" arabic-form="isolated" 
d="M617 849v167h92v-167h-92zM734 802l66 25q12 -35 14 -77t-6 -87q-20 -13 -42.5 -20.5t-43.5 -7.5q-19 0 -34 4.5t-26 14.5q-18 -9 -36.5 -14t-36.5 -5q-36 0 -55.5 21t-19.5 61v95h66v-74q0 -12 5 -16.5t18 -4.5q7 0 14 1.5t13 4.5q-1 4 -1 8v13v60h66v-60q0 -14 5.5 -19
t19.5 -5q7 0 15.5 2t16.5 5q-3 18 -7.5 38t-10.5 37zM1329 705v-705h-155v705h155zM334 94q-24 -16 -51 -23.5t-58 -7.5q-88 0 -144 50t-56 129q0 91 71.5 160t212.5 114v44h155v-286q0 -47 11 -65.5t37 -18.5q22 0 41.5 7.5t34.5 21.5v361h155v-293q0 -48 16.5 -72.5
t49.5 -24.5q38 0 55.5 23.5t17.5 74.5v308h155v-310q0 -147 -52 -216.5t-162 -69.5q-50 0 -85 23.5t-56 71.5q-34 -49 -80.5 -72t-109.5 -23q-52 0 -93.5 24.5t-64.5 69.5zM169 265q0 -21 20.5 -30.5t64.5 -9.5q10 0 22.5 1t32.5 4v114q-72 -13 -106 -31.5t-34 -47.5z" />
    <glyph glyph-name="lam.init_ah.fina" unicode="&#xfedf;&#xfe82;" horiz-adv-x="613" arabic-form="isolated" 
d="M117 751q22 -8 32 -10.5t18 -2.5q16 0 30.5 2.5t35.5 9.5l-10 -90q-18 -9 -34 -13.5t-32 -4.5q-12 0 -26 3.5t-41 13.5q-21 8 -31 10.5t-17 2.5q-16 0 -30.5 -2.5t-35.5 -9.5l10 90q18 9 34 13.5t32 4.5q12 0 25.5 -3t39.5 -14zM21 512l134 95q56 -78 103.5 -196
t61.5 -220q38 13 55.5 41t17.5 79v394h155v-398q0 -154 -87 -235.5t-246 -81.5q-51 0 -96.5 4.5t-75.5 13.5l8 187q26 -5 57.5 -8.5t70.5 -5.5q-21 88 -61.5 172.5t-96.5 158.5z" />
    <glyph glyph-name="lam.medi_ah.fina" unicode="&#xfee0;&#xfe82;" horiz-adv-x="656" arabic-form="final" 
d="M117 751q22 -8 32 -10.5t18 -2.5q16 0 30.5 2.5t35.5 9.5l-10 -90q-18 -9 -34 -13.5t-32 -4.5q-12 0 -26 3.5t-41 13.5q-21 8 -31 10.5t-17 2.5q-16 0 -30.5 -2.5t-35.5 -9.5l10 90q18 9 34 13.5t32 4.5q12 0 25.5 -3t39.5 -14zM485 93q-34 -48 -106 -75.5t-164 -27.5
q-51 0 -96.5 4.5t-75.5 13.5l8 187q29 -6 63 -9.5t65 -4.5q-21 88 -61.5 172.5t-96.5 158.5l134 95q55 -77 102.5 -195t62.5 -219q39 13 56 40.5t17 77.5v394h155v-409q0 -61 21 -83.5t74 -22.5h13v-190h-10q-62 0 -103 23.5t-58 69.5z" />
    <glyph glyph-name="lam.init_alefHamzeAbove.fina" unicode="&#xfedf;&#xfe84;" horiz-adv-x="613" arabic-form="isolated" 
d="M179 181q-21 88 -61.5 172.5t-96.5 158.5l134 95q56 -78 103.5 -196t61.5 -220q38 13 55.5 41t17.5 79v394h155v-398q0 -154 -87 -235.5t-246 -81.5q-51 0 -96.5 4.5t-75.5 13.5l8 187q26 -5 57.5 -8.5t70.5 -5.5zM248 758v-92l-270 -40v92l59 8q-11 18 -17 38.5t-6 42.5
q0 52 31 83t82 31q26 0 50.5 -7t47.5 -21l-21 -73q-19 5 -37.5 8t-32.5 3q-10 0 -18.5 -1t-14.5 -4q2 -34 18 -57.5t39 -23.5q8 0 47.5 6.5t42.5 6.5z" />
    <glyph glyph-name="lam.medi_alefHamzeAbove.fina" unicode="&#xfee0;&#xfe84;" horiz-adv-x="656" arabic-form="final" 
d="M485 93q-34 -48 -106 -75.5t-164 -27.5q-51 0 -96.5 4.5t-75.5 13.5l8 187q29 -6 63 -9.5t65 -4.5q-21 88 -61.5 172.5t-96.5 158.5l134 95q55 -77 102.5 -195t62.5 -219q39 13 56 40.5t17 77.5v394h155v-409q0 -61 21 -83.5t74 -22.5h13v-190h-10q-62 0 -103 23.5
t-58 69.5zM248 758v-92l-270 -40v92l59 8q-11 18 -17 38.5t-6 42.5q0 52 31 83t82 31q26 0 50.5 -7t47.5 -21l-21 -73q-19 5 -37.5 8t-32.5 3q-10 0 -18.5 -1t-14.5 -4q2 -34 18 -57.5t39 -23.5q8 0 47.5 6.5t42.5 6.5z" />
    <glyph glyph-name="lam.init_alefHamzeBelow.fina" unicode="&#xfedf;&#xfe88;" horiz-adv-x="613" arabic-form="isolated" 
d="M180 181q-24 96 -77 197.5t-132 205.5l137 96q75 -93 137 -234t75 -255q38 13 55.5 41.5t17.5 78.5v394h155v-398q0 -154 -86.5 -235.5t-246.5 -81.5q-51 0 -96.5 4.5t-75.5 13.5l8 187q26 -5 57.5 -8.5t71.5 -5.5zM273 -208v-92l-270 -40v92l59 8q-11 18 -17 38.5
t-6 42.5q0 52 31 83t82 31q26 0 50.5 -7t47.5 -21l-21 -73q-32 9 -59.5 11t-43.5 -5q2 -34 18 -57.5t39 -23.5q8 0 47.5 6.5t42.5 6.5z" />
    <glyph glyph-name="lam.medi_alefHamzeBelow.fina" unicode="&#xfee0;&#xfe88;" horiz-adv-x="656" arabic-form="final" 
d="M485 93q-34 -48 -106.5 -75.5t-163.5 -27.5q-51 0 -96.5 4.5t-75.5 13.5l8 187q30 -6 63.5 -9.5t65.5 -4.5q-24 96 -77 197.5t-132 205.5l137 96q75 -93 136 -232.5t75 -254.5q39 12 56.5 40t17.5 78v394h155v-409q0 -61 21 -83.5t74 -22.5h13v-190h-10q-62 0 -103 23.5
t-58 69.5zM273 -208v-92l-270 -40v92l59 8q-11 18 -17 38.5t-6 42.5q0 52 31 83t82 31q26 0 50.5 -7t47.5 -21l-21 -73q-32 9 -59.5 11t-43.5 -5q2 -34 18 -57.5t39 -23.5q8 0 47.5 6.5t42.5 6.5z" />
    <glyph glyph-name="lam.init_alef.fina" unicode="&#xfedf;&#xfe8e;" horiz-adv-x="613" arabic-form="isolated" 
d="M180 181q-24 96 -77 197.5t-132 205.5l137 96q75 -93 137 -234t75 -255q38 13 55.5 41.5t17.5 78.5v394h155v-398q0 -154 -86.5 -235.5t-246.5 -81.5q-51 0 -96.5 4.5t-75.5 13.5l8 187q26 -5 57.5 -8.5t71.5 -5.5z" />
    <glyph glyph-name="lam.medi_alef.fina" unicode="&#xfee0;&#xfe8e;" horiz-adv-x="656" arabic-form="final" 
d="M485 93q-34 -48 -106.5 -75.5t-163.5 -27.5q-51 0 -96.5 4.5t-75.5 13.5l8 187q30 -6 63.5 -9.5t65.5 -4.5q-24 96 -77 197.5t-132 205.5l137 96q75 -93 136 -232.5t75 -254.5q39 12 56.5 40t17.5 78v394h155v-409q0 -61 21 -83.5t74 -22.5h13v-190h-10q-62 0 -103 23.5
t-58 69.5z" />
    <glyph glyph-name="dotlessBeh.init" unicode="&#x66e;" horiz-adv-x="375" 
d="M6 0h-6q-9 0 -15 27t-6 67q0 41 6 68.5t15 27.5h7q54 0 92 5.5t64 16.5q-5 42 -17 86t-30 87l158 57q30 -86 35.5 -183t-14.5 -197q-53 -29 -129 -45.5t-160 -16.5z" />
    <glyph glyph-name="dotlessBeh.medi" unicode="&#x66e;" horiz-adv-x="426" 
d="M4 0h-4q-9 0 -15 27t-6 67q0 41 6 68.5t15 27.5h15q41 0 71.5 7t56.5 22v148h155v-71q0 -54 28 -80t87 -26h13v-190h-10q-65 0 -112 25t-67 70q-30 -44 -92.5 -69.5t-140.5 -25.5z" />
    <glyph glyph-name="dotlessBeh.fina" unicode="&#x66e;" horiz-adv-x="917" 
d="M917 0h-6q-59 0 -108.5 16.5t-83.5 47.5q-76 -34 -172 -54t-188 -20q-163 0 -246 59t-83 175q0 47 16.5 95t47.5 91l110 -55q-11 -28 -15 -45t-4 -34q0 -53 50.5 -74.5t171.5 -21.5q67 0 126.5 8t104.5 22l-38 124l151 43l19 -59q26 -80 54 -104t87 -24h6v-190z" />
    <glyph glyph-name="alefWavyHamzehAbove.fina" unicode="&#x672;" horiz-adv-x="301" 
d="M288 190h13v-190h-33q-105 0 -154 56t-49 176v473h155v-450q0 -37 15 -51t53 -14zM278 801l-142 -21q-36 -5 -74 -1t-95 21q-22 7 -30.5 9t-14.5 2q-9 0 -20 -2t-36 -10l10 86q18 9 34 13.5t32 4.5q12 0 27 -3.5t45 -15.5q20 -8 30 -11t19 -5q-9 17 -14 36t-5 38
q0 52 31 83t82 31q26 0 50.5 -7t47.5 -21l-21 -73q-32 9 -59.5 11t-43.5 -5q2 -34 18 -57.5t39 -23.5q8 0 47.5 6.5t42.5 6.5v-92z" />
    <glyph glyph-name="hehHamzehAbove.fina" unicode="&#x6c2;" horiz-adv-x="553" 
d="M344 286q65 -59 105 -77.5t83 -18.5h21v-190h-13q-75 0 -137 24t-144 94q-51 44 -76.5 56.5t-51.5 12.5q-27 0 -52 -5.5t-49 -17.5l27 191q24 11 54 16.5t59 5.5q39 0 75.5 -17.5t98.5 -73.5zM298 555v-92l-270 -40v92l59 8q-11 18 -17 38.5t-6 42.5q0 52 31 83t82 31
q26 0 50.5 -7t47.5 -21l-21 -73q-32 9 -59.5 11t-43.5 -5q2 -34 18 -57.5t39 -23.5q8 0 47.5 6.5t42.5 6.5z" />
    <glyph glyph-name="hehTehUrdu.fina" unicode="&#x6c3;" horiz-adv-x="553" 
d="M344 286q65 -59 105 -77.5t83 -18.5h21v-190h-13q-75 0 -137 24t-144 94q-51 44 -76.5 56.5t-51.5 12.5q-27 0 -52 -5.5t-49 -17.5l27 191q24 11 54 16.5t59 5.5q39 0 75.5 -17.5t98.5 -73.5zM163 512l-73 -72l-83 82l83 83l73 -73l73 73l83 -83l-83 -82z" />
    <glyph glyph-name="alefWasleh.isol" unicode="&#x671;" horiz-adv-x="285" arabic-form="isolated" 
d="M220 705v-705h-155v705h155zM194 1012q48 0 76 -58t13 -140q-23 -18 -47 -27.5t-48 -9.5q-13 0 -27.5 3.5t-39.5 14.5q-18 8 -25.5 10t-13.5 2q-16 0 -30.5 -2.5t-35.5 -9.5l10 90q16 8 30.5 12.5t27.5 5.5q16 50 45.5 79.5t64.5 29.5zM215 889q0 14 -9 26.5t-20 12.5
t-20.5 -10t-19.5 -31q20 -9 27.5 -11.5t13.5 -2.5q14 0 21 4t7 12z" />
    <glyph glyph-name="alefWasleh.fina" unicode="&#x671;" horiz-adv-x="301" arabic-form="final" 
d="M288 190h13v-190h-33q-105 0 -154 56t-49 176v473h155v-450q0 -37 15 -51t53 -14zM194 1012q48 0 76 -58t13 -140q-23 -18 -47 -27.5t-48 -9.5q-13 0 -27.5 3.5t-39.5 14.5q-18 8 -25.5 10t-13.5 2q-16 0 -30.5 -2.5t-35.5 -9.5l10 90q16 8 30.5 12.5t27.5 5.5
q16 50 45.5 79.5t64.5 29.5zM215 889q0 14 -9 26.5t-20 12.5t-20.5 -10t-19.5 -31q20 -9 27.5 -11.5t13.5 -2.5q14 0 21 4t7 12z" />
    <glyph glyph-name="peh.isol" unicode="&#x67e;" horiz-adv-x="845" arabic-form="isolated" 
d="M407 180q62 0 125.5 7.5t100.5 20.5q-4 34 -15 72t-28 81l158 57q27 -77 31.5 -168.5t-14.5 -187.5q-77 -33 -186.5 -52.5t-219.5 -19.5q-163 0 -246 59t-83 175q0 47 16.5 95t47.5 91l110 -55q-11 -28 -15 -45t-4 -34q0 -53 50.5 -74.5t171.5 -21.5zM413 -169l-73 -72
l-83 82l83 83l73 -73l73 73l83 -83l-83 -82zM496 -309l-83 -82l-83 82l83 83z" />
    <glyph glyph-name="peh.fina" unicode="&#x67e;" horiz-adv-x="917" arabic-form="final" 
d="M917 0h-6q-59 0 -108.5 16.5t-83.5 47.5q-76 -34 -172 -54t-188 -20q-163 0 -246 59t-83 175q0 47 16.5 95t47.5 91l110 -55q-11 -28 -15 -45t-4 -34q0 -53 50.5 -74.5t171.5 -21.5q67 0 126.5 8t104.5 22l-38 124l151 43l19 -59q26 -80 54 -104t87 -24h6v-190zM423 -169
l-73 -72l-83 82l83 83l73 -73l73 73l83 -83l-83 -82zM506 -309l-83 -82l-83 82l83 83z" />
    <glyph glyph-name="peh.init" unicode="&#x67e;" horiz-adv-x="375" arabic-form="initial" 
d="M6 0h-6q-9 0 -15 27t-6 67q0 41 6 68.5t15 27.5h7q54 0 92 5.5t64 16.5q-5 42 -17 86t-30 87l158 57q30 -86 35.5 -183t-14.5 -197q-53 -29 -129 -45.5t-160 -16.5zM223 -169l-73 -72l-83 82l83 83l73 -73l73 73l83 -83l-83 -82zM306 -309l-83 -82l-83 82l83 83z" />
    <glyph glyph-name="peh.medi" unicode="&#x67e;" horiz-adv-x="426" arabic-form="medial" 
d="M4 0h-4q-9 0 -15 27t-6 67q0 41 6 68.5t15 27.5h15q41 0 71.5 7t56.5 22v148h155v-71q0 -54 28 -80t87 -26h13v-190h-10q-65 0 -112 25t-67 70q-30 -44 -92.5 -69.5t-140.5 -25.5zM213 -169l-73 -72l-83 82l83 83l73 -73l73 73l83 -83l-83 -82zM296 -309l-83 -82l-83 82
l83 83z" />
    <glyph glyph-name="tehTa.isol" unicode="&#x679;" horiz-adv-x="845" arabic-form="isolated" 
d="M407 180q62 0 125.5 7.5t100.5 20.5q-4 34 -15 72t-28 81l158 57q27 -77 31.5 -168.5t-14.5 -187.5q-77 -33 -186.5 -52.5t-219.5 -19.5q-163 0 -246 59t-83 175q0 47 16.5 95t47.5 91l110 -55q-11 -28 -15 -45t-4 -34q0 -53 50.5 -74.5t171.5 -21.5zM462 663
q52 0 84.5 -34.5t32.5 -90.5q0 -19 -6 -39.5t-16 -34.5q-34 -8 -82 -12t-110 -4q-33 0 -68 5t-62 14l25 75q12 -3 23.5 -5.5t23.5 -4.5q3 13 7.5 24.5t9.5 21.5v172h77v-103q14 8 29 12t32 4zM499 536q0 22 -13 35t-36 13t-41 -14t-28 -40q56 1 80 2.5t38 3.5z" />
    <glyph glyph-name="tehTa.fina" unicode="&#x679;" horiz-adv-x="917" arabic-form="final" 
d="M917 0h-6q-59 0 -108.5 16.5t-83.5 47.5q-76 -34 -172 -54t-188 -20q-163 0 -246 59t-83 175q0 47 16.5 95t47.5 91l110 -55q-11 -28 -15 -45t-4 -34q0 -53 50.5 -74.5t171.5 -21.5q67 0 126.5 8t104.5 22l-38 124l151 43l19 -59q26 -80 54 -104t87 -24h6v-190zM472 663
q52 0 84.5 -34.5t32.5 -90.5q0 -19 -6 -39.5t-16 -34.5q-34 -8 -82 -12t-110 -4q-33 0 -68 5t-62 14l25 75q12 -3 23.5 -5.5t23.5 -4.5q3 13 7.5 24.5t9.5 21.5v172h77v-103q14 8 29 12t32 4zM509 536q0 22 -13 35t-36 13t-41 -14t-28 -40q56 1 80 2.5t38 3.5z" />
    <glyph glyph-name="tehTa.init" unicode="&#x679;" horiz-adv-x="375" arabic-form="initial" 
d="M6 0h-6q-9 0 -15 27t-6 67q0 41 6 68.5t15 27.5h7q54 0 92 5.5t64 16.5q-5 42 -17 86t-30 87l158 57q30 -86 35.5 -183t-14.5 -197q-53 -29 -129 -45.5t-160 -16.5zM222 723q52 0 84.5 -34.5t32.5 -90.5q0 -19 -6 -39.5t-16 -34.5q-34 -8 -82 -12t-110 -4q-33 0 -68 5
t-62 14l25 75q12 -3 23.5 -5.5t23.5 -4.5q3 13 7.5 24.5t9.5 21.5v172h77v-103q14 8 29 12t32 4zM259 596q0 22 -13 35t-36 13t-41 -14t-28 -40q56 1 80 2.5t38 3.5z" />
    <glyph glyph-name="tehTa.medi" unicode="&#x679;" horiz-adv-x="426" arabic-form="medial" 
d="M4 0h-4q-9 0 -15 27t-6 67q0 41 6 68.5t15 27.5h15q41 0 71.5 7t56.5 22v148h155v-71q0 -54 28 -80t87 -26h13v-190h-10q-65 0 -112 25t-67 70q-30 -44 -92.5 -69.5t-140.5 -25.5zM262 663q52 0 84.5 -34.5t32.5 -90.5q0 -19 -6 -39.5t-16 -34.5q-34 -8 -82 -12t-110 -4
q-33 0 -68 5t-62 14l25 75q12 -3 23.5 -5.5t23.5 -4.5q3 13 7.5 24.5t9.5 21.5v172h77v-103q14 8 29 12t32 4zM299 536q0 22 -13 35t-36 13t-41 -14t-28 -40q56 1 80 2.5t38 3.5z" />
    <glyph glyph-name="cheh.isol" unicode="&#x686;" horiz-adv-x="742" arabic-form="isolated" 
d="M408 -293q-178 0 -283 78t-105 211q0 125 99 214.5t288 133.5q-34 4 -60.5 6t-46.5 2q-60 0 -120 -12t-121 -36l-46 162q66 26 129 38t131 12q91 0 215.5 -33.5t233.5 -86.5l-35 -141q-236 -2 -370 -63.5t-134 -161.5q0 -67 52.5 -100t159.5 -33q66 0 126.5 5.5
t128.5 18.5l-9 -188q-62 -14 -118 -20t-115 -6zM400 86l-62 -61l-71 70l71 71l62 -62l62 62l71 -71l-71 -70zM471 -8l-71 -70l-71 70l71 71z" />
    <glyph glyph-name="cheh.fina" unicode="&#x686;" horiz-adv-x="742" arabic-form="final" 
d="M408 -293q-178 0 -283 78t-105 211q0 125 99 214.5t288 133.5q-34 4 -60.5 6t-46.5 2q-60 0 -120 -12t-121 -36l-46 162q66 26 129 38t131 12q91 0 215.5 -33.5t233.5 -86.5l-31 -125q-32 0 -59 -1t-50 -3q16 -39 53 -58t98 -19h9v-190h-12q-116 0 -182 60t-76 177
q-138 -24 -213.5 -79t-75.5 -128q0 -67 52.5 -100t159.5 -33q66 0 126.5 5.5t128.5 18.5l-9 -188q-62 -14 -118 -20t-115 -6zM370 86l-62 -61l-71 70l71 71l62 -62l62 62l71 -71l-71 -70zM441 -8l-71 -70l-71 70l71 71z" />
    <glyph glyph-name="cheh.init" unicode="&#x686;" horiz-adv-x="742" arabic-form="initial" 
d="M3 0h-3q-9 0 -15 27t-6 67q0 41 6 68.5t15 27.5h6q125 0 233.5 41.5t162.5 114.5q-25 3 -50 4.5t-52 1.5q-61 0 -121.5 -12t-119.5 -36l-46 163q67 26 131.5 38t141.5 12q111 0 227 -29t212 -81l-63 -137q-24 11 -48.5 20.5t-49.5 18.5q-82 -144 -233 -226.5t-328 -82.5z
M392 -169l-73 -72l-83 82l83 83l73 -73l73 73l83 -83l-83 -82zM475 -309l-83 -82l-83 82l83 83z" />
    <glyph glyph-name="cheh.medi" unicode="&#x686;" horiz-adv-x="742" arabic-form="medial" 
d="M3 0h-3q-9 0 -15 27t-6 67q0 41 6 68.5t15 27.5h6q125 0 233.5 41.5t162.5 114.5q-25 3 -50 4.5t-52 1.5q-60 0 -120 -12t-121 -36l-46 163q67 26 131.5 38t141.5 12q111 0 227 -29t212 -81l-63 -137q-24 11 -48.5 20.5t-49.5 18.5q-4 -8 -9 -16t-11 -17q15 -42 63 -64
t126 -22h9v-190h-12q-108 0 -177 44.5t-94 130.5q-88 -84 -207 -129.5t-249 -45.5zM392 -169l-73 -72l-83 82l83 83l73 -73l73 73l83 -83l-83 -82zM475 -309l-83 -82l-83 82l83 83z" />
    <glyph glyph-name="dalTa.isol" unicode="&#x688;" horiz-adv-x="677" arabic-form="isolated" 
d="M601 79q-60 -45 -136 -67t-173 -22q-78 0 -151 12.5t-122 33.5l69 174q49 -15 96.5 -22.5t94.5 -7.5q60 0 98.5 5.5t68.5 18.5q-38 60 -101 118t-130 93l96 165q140 -72 223 -210.5t67 -290.5zM360 860q52 0 84.5 -34.5t32.5 -90.5q0 -19 -6 -39.5t-16 -34.5
q-34 -8 -82 -12t-110 -4q-33 0 -68 5t-62 14l25 75q12 -3 23.5 -5.5t23.5 -4.5q3 13 7.5 24.5t9.5 21.5v172h77v-103q14 8 29 12t32 4zM397 733q0 22 -13 35t-36 13t-41 -14t-28 -40q56 1 80 2.5t38 3.5z" />
    <glyph glyph-name="dalTa.fina" unicode="&#x688;" horiz-adv-x="709" arabic-form="final" 
d="M351 218l-174 270l140 92l154 -251q47 -77 97 -108t133 -31h8v-190h-12q-77 0 -127 15t-92 50q-43 -38 -96.5 -56.5t-119.5 -18.5q-65 0 -129 12.5t-114 33.5l69 174q49 -15 96.5 -22.5t94.5 -7.5q25 0 48.5 1.5t44.5 4.5q-4 5 -8 11.5t-13 20.5zM280 860
q52 0 84.5 -34.5t32.5 -90.5q0 -19 -6 -39.5t-16 -34.5q-34 -8 -82 -12t-110 -4q-33 0 -68 5t-62 14l25 75q12 -3 23.5 -5.5t23.5 -4.5q3 13 7.5 24.5t9.5 21.5v172h77v-103q14 8 29 12t32 4zM317 733q0 22 -13 35t-36 13t-41 -14t-28 -40q56 1 80 2.5t38 3.5z" />
    <glyph glyph-name="zheh.isol" unicode="&#x698;" horiz-adv-x="618" arabic-form="isolated" 
d="M560 102q0 -75 -23.5 -144t-68.5 -124q-49 -60 -114 -93.5t-134 -33.5q-52 0 -92 7.5t-81 26.5l36 140q24 -5 42.5 -7t35.5 -2q71 0 140.5 47t121.5 128q-8 42 -38.5 120t-70.5 161l162 71q41 -93 62.5 -168.5t21.5 -128.5zM414 705l-83 -82l-83 82l83 83zM331 544
l-73 -72l-83 82l83 83l73 -73l73 73l83 -83l-83 -82z" />
    <glyph glyph-name="zheh.fina" unicode="&#x698;" horiz-adv-x="649" arabic-form="final" 
d="M450 81q-23 26 -44.5 62t-42.5 84l-44 101l146 63l44 -105q22 -55 50 -75.5t84 -20.5h6v-190h-7q-26 0 -48.5 3t-42.5 10q-26 -132 -120.5 -219t-210.5 -87q-52 0 -92 7.5t-81 26.5l36 140q24 -5 42.5 -7t35.5 -2q77 0 151 54t138 155zM414 705l-83 -82l-83 82l83 83z
M331 544l-73 -72l-83 82l83 83l73 -73l73 73l83 -83l-83 -82z" />
    <glyph glyph-name="rehTa.isol" unicode="&#x691;" horiz-adv-x="618" arabic-form="isolated" 
d="M560 102q0 -75 -23.5 -144t-68.5 -124q-49 -60 -114 -93.5t-134 -33.5q-52 0 -92 7.5t-81 26.5l36 140q24 -5 42.5 -7t35.5 -2q71 0 140.5 47t121.5 128q-8 42 -38.5 120t-70.5 161l162 71q41 -93 62.5 -168.5t21.5 -128.5zM380 670q52 0 84.5 -34.5t32.5 -90.5
q0 -19 -6 -39.5t-16 -34.5q-34 -8 -82 -12t-110 -4q-33 0 -68 5t-62 14l25 75q12 -3 23.5 -5.5t23.5 -4.5q3 13 7.5 24.5t9.5 21.5v172h77v-103q14 8 29 12t32 4zM417 543q0 22 -13 35t-36 13t-41 -14t-28 -40q56 1 80 2.5t38 3.5z" />
    <glyph glyph-name="rehTa.fina" unicode="&#x691;" horiz-adv-x="649" arabic-form="final" 
d="M450 81q-23 26 -44.5 62t-42.5 84l-44 101l146 63l44 -105q22 -55 50 -75.5t84 -20.5h6v-190h-7q-26 0 -48.5 3t-42.5 10q-26 -132 -120.5 -219t-210.5 -87q-52 0 -92 7.5t-81 26.5l36 140q24 -5 42.5 -7t35.5 -2q77 0 151 54t138 155zM380 670q52 0 84.5 -34.5
t32.5 -90.5q0 -19 -6 -39.5t-16 -34.5q-34 -8 -82 -12t-110 -4q-33 0 -68 5t-62 14l25 75q12 -3 23.5 -5.5t23.5 -4.5q3 13 7.5 24.5t9.5 21.5v172h77v-103q14 8 29 12t32 4zM417 543q0 22 -13 35t-36 13t-41 -14t-28 -40q56 1 80 2.5t38 3.5z" />
    <glyph glyph-name="kaf.isol" unicode="&#x6a9;" horiz-adv-x="870" arabic-form="isolated" 
d="M185 276q0 -51 44.5 -73.5t142.5 -22.5q75 0 149 7.5t99 18.5q-6 17 -27 48t-60 80l-46 57q-33 40 -46.5 66t-13.5 49q0 31 13.5 55t40.5 40q62 38 162.5 69.5t203.5 44.5l33 -153q-72 -13 -136 -31t-126 -43q95 -109 134 -174t39 -124q0 -100 -108 -150t-323 -50
q-157 0 -243.5 61.5t-86.5 172.5q0 47 16.5 95t47.5 91l110 -55q-11 -28 -15 -45t-4 -34z" />
    <glyph glyph-name="kaf.fina" unicode="&#x6a9;" horiz-adv-x="1009" arabic-form="final" 
d="M1000 190h9v-190h-20q-87 0 -153 24.5t-120 75.5q-53 -52 -146 -81t-210 -29q-157 0 -243.5 61.5t-86.5 172.5q0 47 16.5 95t47.5 91l110 -55q-11 -28 -15 -45t-4 -34q0 -51 44.5 -73.5t142.5 -22.5q67 0 130.5 9.5t112.5 26.5l-145 175q-33 39 -46.5 65t-13.5 50
q0 29 15 52.5t46 42.5q63 38 160.5 69.5t195.5 44.5l33 -153q-87 -16 -150.5 -33.5t-118.5 -39.5l116 -140q76 -92 136 -125.5t157 -33.5z" />
    <glyph glyph-name="kaf.init" unicode="&#x6a9;" horiz-adv-x="483" arabic-form="initial" 
d="M404 190q0 -96 -100 -143t-304 -47q-9 0 -15 27t-6 67q0 41 6 68.5t15 27.5q106 0 161 3.5t72 11.5q-6 17 -27 48t-60 80l-46 58q-33 42 -46.5 67.5t-13.5 47.5q0 29 15 52.5t46 42.5q63 38 161.5 69.5t197.5 44.5l33 -153q-76 -15 -139.5 -33t-122.5 -41
q95 -109 134 -174t39 -124z" />
    <glyph glyph-name="kaf.medi" unicode="&#x6a9;" horiz-adv-x="632" arabic-form="medial" 
d="M337 101q-51 -48 -139 -74.5t-198 -26.5q-9 0 -15 27t-6 67q0 41 6 68.5t15 27.5q79 0 138 6.5t100 19.5l-145 175q-33 39 -46.5 65t-13.5 50q0 29 15 52.5t46 42.5q63 38 160.5 69.5t195.5 44.5l33 -153q-87 -16 -150.5 -33.5t-118.5 -39.5l116 -140q76 -92 136 -125.5
t157 -33.5h9v-190h-20q-86 0 -153 24.5t-122 76.5z" />
    <glyph glyph-name="gaf.isol" unicode="&#x6af;" horiz-adv-x="870" arabic-form="isolated" 
d="M445 669l-22 93q63 30 147 56t162 40l22 -95q-75 -13 -161.5 -39t-147.5 -55zM185 276q0 -51 44.5 -73.5t142.5 -22.5q75 0 149 7.5t99 18.5q-6 17 -27 48t-60 80l-46 57q-33 40 -46.5 66t-13.5 49q0 31 13.5 55t40.5 40q62 38 162.5 69.5t203.5 44.5l33 -153
q-76 -15 -139.5 -33t-122.5 -41q95 -109 134 -174t39 -124q0 -100 -108 -150t-323 -50q-157 0 -243.5 61.5t-86.5 172.5q0 47 16.5 95t47.5 91l110 -55q-11 -28 -15 -45t-4 -34z" />
    <glyph glyph-name="gaf.fina" unicode="&#x6af;" horiz-adv-x="1009" arabic-form="final" 
d="M445 669l-22 93q63 30 147 56t162 40l22 -95q-75 -13 -161.5 -39t-147.5 -55zM1000 190h9v-190h-20q-87 0 -153 24.5t-120 75.5q-53 -52 -146 -81t-210 -29q-157 0 -243.5 61.5t-86.5 172.5q0 47 16.5 95t47.5 91l110 -55q-11 -28 -15 -45t-4 -34q0 -51 44.5 -73.5
t142.5 -22.5q67 0 130.5 9.5t112.5 26.5l-145 175q-33 39 -46.5 65t-13.5 50q0 29 15 52.5t46 42.5q63 38 160.5 69.5t195.5 44.5l33 -153q-87 -16 -150.5 -33.5t-118.5 -39.5l116 -140q76 -92 136 -125.5t157 -33.5z" />
    <glyph glyph-name="gaf.init" unicode="&#x6af;" horiz-adv-x="483" arabic-form="initial" 
d="M98 669l-22 93q63 30 147 56t162 40l22 -95q-75 -13 -161.5 -39t-147.5 -55zM404 190q0 -96 -100 -143t-304 -47q-9 0 -15 27t-6 67q0 41 6 68.5t15 27.5q106 0 161 3.5t72 11.5q-6 17 -27 48t-60 80l-46 58q-33 42 -46.5 67.5t-13.5 47.5q0 29 15 52.5t46 42.5
q63 38 161.5 69.5t197.5 44.5l33 -153q-76 -15 -139.5 -33t-122.5 -41q95 -109 134 -174t39 -124z" />
    <glyph glyph-name="gaf.medi" unicode="&#x6af;" horiz-adv-x="632" arabic-form="medial" 
d="M81 669l-22 93q63 30 147 56t162 40l22 -95q-75 -13 -161.5 -39t-147.5 -55zM337 101q-51 -48 -139 -74.5t-198 -26.5q-9 0 -15 27t-6 67q0 41 6 68.5t15 27.5q79 0 138 6.5t100 19.5l-145 175q-33 39 -46.5 65t-13.5 50q0 29 15 52.5t46 42.5q63 38 160.5 69.5
t195.5 44.5l33 -153q-87 -16 -150.5 -33.5t-118.5 -39.5l116 -140q76 -92 136 -125.5t157 -33.5h9v-190h-20q-86 0 -153 24.5t-122 76.5z" />
    <glyph glyph-name="noonGhuna.isol" unicode="&#x6ba;" horiz-adv-x="766" arabic-form="isolated" 
d="M475 399l162 48q50 -120 59.5 -294.5t-35.5 -271.5q-56 -45 -132 -68t-171 -23q-145 0 -228 76t-83 211q0 62 22 127.5t61 118.5l116 -57q-20 -38 -31 -76.5t-11 -71.5q0 -71 41 -104.5t129 -33.5q51 0 97.5 9.5t79.5 25.5q0 81 -20.5 183t-55.5 201z" />
    <glyph glyph-name="noonGhuna.fina" unicode="&#x6ba;" horiz-adv-x="836" arabic-form="final" 
d="M694 48q2 -68 -6.5 -126t-26.5 -101q-56 -45 -132 -68t-171 -23q-145 0 -228 76t-83 211q0 62 22 127.5t61 118.5l116 -57q-20 -38 -31 -76.5t-11 -71.5q0 -71 41 -104.5t129 -33.5q51 0 97.5 9.5t79.5 25.5q0 83 -22.5 190.5t-61.5 217.5l162 48q4 -12 8.5 -26.5
t12.5 -44.5q4 -15 6 -22t4 -13q20 -67 57 -91t111 -24h8v-190h-8q-51 0 -81.5 11t-52.5 37z" />
    <glyph glyph-name="hehUrdu.isol" unicode="&#x6c1;" horiz-adv-x="545" arabic-form="isolated" 
d="M45 200q0 92 54.5 173t159.5 145q120 -40 180.5 -115t60.5 -182q0 -102 -65 -166.5t-168 -64.5q-101 0 -161.5 57.5t-60.5 152.5zM264 329q-31 -23 -48 -48.5t-17 -48.5q0 -24 19 -38t53 -14t54.5 15.5t20.5 40.5q0 26 -20.5 49t-61.5 44z" />
    <glyph glyph-name="hehUrdu.fina" unicode="&#x6c1;" horiz-adv-x="553" arabic-form="final" 
d="M344 286q65 -59 105 -77.5t83 -18.5h21v-190h-13q-75 0 -137 24t-144 94q-51 44 -76.5 56.5t-51.5 12.5q-27 0 -52 -5.5t-49 -17.5l27 191q24 11 54 16.5t59 5.5q39 0 75.5 -17.5t98.5 -73.5z" />
    <glyph glyph-name="hehUrdu.init" unicode="&#x6c1;" horiz-adv-x="405" arabic-form="initial" 
d="M6 0h-6q-9 0 -15 27t-6 67q0 41 6 68.5t15 27.5h7q61 0 108 5.5t78 16.5q-5 36 -14.5 73t-23.5 70l158 57q24 -78 27 -167.5t-15 -182.5q-54 -30 -137 -46t-182 -16zM186 -137q0 -16 7.5 -24t24.5 -9q26 -2 44 -22.5t18 -49.5q0 -31 -23.5 -52t-59.5 -21q-49 0 -81.5 38
t-32.5 98q0 33 9 68.5t24 65.5l88 -25q-8 -16 -13 -35t-5 -32z" />
    <glyph glyph-name="hehUrdu.medi" unicode="&#x6c1;" horiz-adv-x="635" arabic-form="medial" 
d="M19 0h-19q-9 0 -15 27t-6 67q0 41 6 68.5t15 27.5h7q59 0 91 40t52 137l152 -23q-20 -144 6 -232t111 -163q-1 107 51 174t140 67h25v-190h-11q-56 0 -76.5 -55.5t9.5 -142.5l-110 -95q-105 73 -173.5 169.5t-80.5 190.5q-34 -34 -76 -50.5t-98 -16.5z" />
    <glyph glyph-name="hehDocheshm.isol" unicode="&#x6be;" horiz-adv-x="775" arabic-form="isolated" 
d="M291 49q-33 -17 -70 -33t-78 -30l-76 -26l-57 164l60 22q6 2 13 4.5t20 7.5q14 5 20.5 7.5t11.5 4.5q-29 36 -43.5 75.5t-14.5 81.5q0 88 55.5 143t146.5 55q17 0 33 -2.5t30 -7.5l45 83q169 -87 256 -189t87 -210q0 -90 -43.5 -155t-104.5 -65q-71 0 -147.5 18.5
t-143.5 51.5zM294 377q-36 0 -54 -13.5t-18 -41.5q0 -22 16 -45.5t46 -47.5q49 23 68 42.5t19 48.5q0 27 -20.5 42t-56.5 15zM526 147q27 0 40 13.5t13 41.5q0 27 -23 60t-68 72q1 -8 2 -17.5t1 -18.5q0 -37 -14 -72t-41 -67q22 -6 45 -9t45 -3z" />
    <glyph glyph-name="hehDocheshm.fina" unicode="&#x6be;" horiz-adv-x="700" arabic-form="final" 
d="M47 -63l-33 184l124 23q9 66 36 145.5t62 144.5q27 50 54 73t59 23q25 0 47 -11.5t44 -35.5q59 -63 89 -123t30 -114q0 -14 -3 -27.5t-10 -28.5h154v-190h-83q9 -19 13.5 -37t4.5 -39q0 -95 -59.5 -159.5t-145.5 -64.5q-97 0 -173.5 70t-106.5 187zM427 240
q0 23 -19.5 48t-63.5 60q-19 -41 -32 -86.5t-19 -88.5l42 8q53 10 72.5 23t19.5 36zM505 -56q0 37 -38 52.5t-105 2.5l-56 -11q16 -50 48 -74t82 -24q33 0 51 14t18 40z" />
    <glyph glyph-name="hehDocheshm.init" unicode="&#x6be;" horiz-adv-x="752" arabic-form="initial" 
d="M52 0h-52q-9 0 -15 27t-6 67q0 41 6 68.5t15 27.5h22q20 0 38.5 1t35.5 2q-21 31 -31.5 64.5t-10.5 69.5q0 88 55.5 143t146.5 55q17 0 33 -2.5t30 -7.5l45 83q169 -88 256 -189.5t87 -208.5q0 -90 -43.5 -155t-104.5 -65q-70 0 -146 18t-144 51q-50 -24 -105.5 -36.5
t-111.5 -12.5zM271 377q-36 0 -54 -13.5t-18 -41.5q0 -22 16 -46t47 -47q41 18 63.5 41.5t22.5 49.5q0 27 -20.5 42t-56.5 15zM502 148q27 0 40.5 14t13.5 41t-22.5 59.5t-68.5 71.5q1 -8 2 -17.5t1 -18.5q0 -35 -14 -70.5t-40 -68.5q23 -6 45 -8.5t43 -2.5z" />
    <glyph glyph-name="hehDocheshm.medi" unicode="&#x6be;" horiz-adv-x="661" arabic-form="medial" 
d="M102 0h-102q-9 0 -15 27t-6 67q0 41 6 68.5t15 27.5h107q13 61 37 125.5t53 118.5q27 50 54 73t59 23q25 0 47 -11.5t44 -35.5q59 -63 89 -123t30 -114q0 -14 -3 -27.5t-10 -28.5h154v-190h-84q10 -19 14.5 -38.5t4.5 -43.5q0 -94 -58 -156t-147 -62q-107 0 -187 82.5
t-102 217.5zM388 236q0 25 -20 51t-64 61q-17 -39 -30 -82.5t-19 -83.5h44q44 0 66.5 13.5t22.5 40.5zM466 -56q0 30 -26.5 47t-75.5 17h-104q13 -67 46.5 -99t90.5 -32q31 0 50 18.5t19 48.5z" />
    <glyph glyph-name="yehBaree.isol" unicode="&#x6d2;" horiz-adv-x="683" arabic-form="isolated" 
d="M44 250q0 118 78.5 194t190.5 76q30 0 61 -7.5t52 -19.5l-47 -171q-16 4 -34.5 6t-43.5 2q-53 0 -81 -19t-28 -55q0 -32 20 -49t58 -17h333l-14 -190h-270q-126 0 -200.5 67.5t-74.5 182.5z" />
    <glyph glyph-name="yehBaree.fina" unicode="&#x6d2;" horiz-adv-x="603" arabic-form="final" 
d="M44 -83q0 124 81.5 198.5t216.5 74.5h261v-190h-306q-48 0 -73.5 -17.5t-25.5 -50.5q0 -28 18 -43t53 -15h314l-9 -190h-269q-127 0 -194 59.5t-67 173.5z" />
    <glyph glyph-name="yehBareeHamzehAbove.isol" unicode="&#x6d3;" horiz-adv-x="683" arabic-form="isolated" 
d="M44 250q0 118 78.5 194t190.5 76q30 0 61 -7.5t52 -19.5l-47 -171q-16 4 -34.5 6t-43.5 2q-53 0 -81 -19t-28 -55q0 -32 20 -49t58 -17h333l-14 -190h-270q-126 0 -200.5 67.5t-74.5 182.5zM438 690v-92l-270 -40v92l59 8q-11 18 -17 38.5t-6 42.5q0 52 31 83t82 31
q26 0 50.5 -7t47.5 -21l-21 -73q-32 9 -59.5 11t-43.5 -5q2 -34 18 -57.5t39 -23.5q8 0 47.5 6.5t42.5 6.5z" />
    <glyph glyph-name="yehBareeHamzehAbove.fina" unicode="&#x6d3;" horiz-adv-x="603" arabic-form="final" 
d="M44 -83q0 124 81.5 198.5t216.5 74.5h261v-190h-306q-48 0 -73.5 -17.5t-25.5 -50.5q0 -28 18 -43t53 -15h314l-9 -190h-269q-127 0 -194 59.5t-67 173.5zM478 378v-92l-270 -40v92l59 8q-11 18 -17 38.5t-6 42.5q0 52 31 83t82 31q26 0 50.5 -7t47.5 -21l-21 -73
q-32 9 -59.5 11t-43.5 -5q2 -34 18 -57.5t39 -23.5q8 0 47.5 6.5t42.5 6.5z" />
    <glyph glyph-name="yeh.isol" unicode="&#x6cc;" horiz-adv-x="795" arabic-form="isolated" 
d="M380 -210q-139 0 -219.5 74.5t-80.5 199.5q0 47 16.5 95t47.5 91l110 -55q-10 -24 -14.5 -47t-4.5 -44q0 -60 37 -92t108 -32q62 0 129.5 18t88.5 40q-4 13 -19.5 24.5t-61.5 32.5q-51 24 -76 40t-43 34q-24 26 -36.5 57.5t-12.5 70.5q0 92 63 155t163 63
q64 0 119.5 -34.5t82.5 -87.5l-92 -94q-39 38 -68 53t-61 15q-27 0 -42.5 -12.5t-15.5 -32.5t19 -37.5t83 -47.5q100 -47 133.5 -86.5t33.5 -91.5q0 -54 -38 -108t-104 -94q-53 -32 -116.5 -49.5t-128.5 -17.5z" />
    <glyph glyph-name="yeh.fina" unicode="&#x6cc;" horiz-adv-x="830" arabic-form="final" 
d="M481 0h-11l24 190h336v-190h-94q2 -9 2.5 -18t0.5 -19q0 -107 -108.5 -181.5t-270.5 -74.5q-138 0 -219 83t-81 221q0 80 29 161.5t87 164.5l110 -55q-38 -74 -54.5 -127.5t-16.5 -102.5q0 -76 40 -115.5t117 -39.5q80 0 140.5 21.5t94.5 60.5q-17 9 -53 15t-73 6z" />
    <glyph glyph-name="yeh.init" unicode="&#x6cc;" horiz-adv-x="375" arabic-form="initial" 
d="M6 0h-6q-9 0 -15 27t-6 67q0 41 6 68.5t15 27.5h7q54 0 92 5.5t64 16.5q-5 42 -17 86t-30 87l158 57q30 -86 35.5 -183t-14.5 -197q-53 -29 -129 -45.5t-160 -16.5zM223 -169l-73 -72l-83 82l83 83l73 -73l73 73l83 -83l-83 -82z" />
    <glyph glyph-name="yeh.medi" unicode="&#x6cc;" horiz-adv-x="426" arabic-form="medial" 
d="M4 0h-4q-9 0 -15 27t-6 67q0 41 6 68.5t15 27.5h15q41 0 71.5 7t56.5 22v148h155v-71q0 -54 28 -80t87 -26h13v-190h-10q-65 0 -112 25t-67 70q-30 -44 -92.5 -69.5t-140.5 -25.5zM213 -169l-73 -72l-83 82l83 83l73 -73l73 73l83 -83l-83 -82z" />
    <glyph glyph-name="tashdid_zamehTanvin.cmps" unicode="&#xfc5e;" arabic-form="isolated" 
d="M154 776q-20 -13 -42.5 -20.5t-43.5 -7.5q-19 0 -34 4.5t-26 14.5q-18 -9 -36.5 -14t-36.5 -5q-36 0 -55.5 21t-19.5 61v95h66v-74q0 -12 5 -16.5t18 -4.5q7 0 14 1.5t13 4.5q-1 4 -1 8v13v60h66v-60q0 -14 5.5 -19t19.5 -5q7 0 15.5 2t16.5 5q-3 18 -7.5 38t-10.5 37
l66 25q12 -35 14 -77t-6 -87zM-38 1099q0 39 26.5 64.5t67.5 25.5q43 0 69.5 -27.5t26.5 -72.5q0 -62 -47.5 -95.5t-135.5 -33.5h-110v88h121q-9 11 -13.5 23.5t-4.5 27.5zM86 1090q0 13 -8.5 21t-21.5 8t-20.5 -7t-7.5 -19q0 -11 9 -21.5t26 -17.5q12 7 17.5 16t5.5 20z
" />
    <glyph glyph-name="fathehTanvin_tashdid.cmps" unicode="&#xfc5f;" arabic-form="isolated" 
d="M135 977v-92l-270 -40v92zM135 847v-92l-270 -40v92zM144 1056q-20 -13 -42.5 -20.5t-43.5 -7.5q-19 0 -34 4.5t-26 14.5q-18 -9 -36.5 -14t-36.5 -5q-36 0 -55.5 21t-19.5 61v95h66v-74q0 -12 5 -16.5t18 -4.5q7 0 14 1.5t13 4.5q-1 4 -1 8v13v60h66v-60q0 -14 5.5 -19
t19.5 -5q7 0 15.5 2t16.5 5q-3 18 -7.5 38t-10.5 37l66 25q12 -35 14 -77t-6 -87z" />
    <glyph glyph-name="tashdid_fatheh.cmps" unicode="&#xfc60;" arabic-form="isolated" 
d="M154 776q-20 -13 -42.5 -20.5t-43.5 -7.5q-19 0 -34 4.5t-26 14.5q-18 -9 -36.5 -14t-36.5 -5q-36 0 -55.5 21t-19.5 61v95h66v-74q0 -12 5 -16.5t18 -4.5q7 0 14 1.5t13 4.5q-1 4 -1 8v13v60h66v-60q0 -14 5.5 -19t19.5 -5q7 0 15.5 2t16.5 5q-3 18 -7.5 38t-10.5 37
l66 25q12 -35 14 -77t-6 -87zM135 1092v-92l-270 -40v92z" />
    <glyph glyph-name="tashdid_zameh.cmps" unicode="&#xfc61;" arabic-form="isolated" 
d="M154 776q-20 -13 -42.5 -20.5t-43.5 -7.5q-19 0 -34 4.5t-26 14.5q-18 -9 -36.5 -14t-36.5 -5q-36 0 -55.5 21t-19.5 61v95h66v-74q0 -12 5 -16.5t18 -4.5q7 0 14 1.5t13 4.5q-1 4 -1 8v13v60h66v-60q0 -14 5.5 -19t19.5 -5q7 0 15.5 2t16.5 5q-3 18 -7.5 38t-10.5 37
l66 25q12 -35 14 -77t-6 -87zM-11 960h-140v76q20 2 29 6.5t9 12.5t-9.5 12t-28.5 4v86q42 3 69 -17t27 -54q0 -12 -2.5 -21.5t-8.5 -16.5h66q-9 11 -13.5 23.5t-4.5 27.5q0 39 26.5 64.5t67.5 25.5q43 0 69.5 -27.5t26.5 -72.5q0 -62 -47.5 -95.5t-135.5 -33.5zM106 1090
q0 13 -8.5 21t-21.5 8t-20.5 -7t-7.5 -19q0 -11 9 -21.5t26 -17.5q12 7 17.5 16t5.5 20z" />
    <glyph glyph-name="fatheh_tashdid.cmps" unicode="&#xfc62;" arabic-form="isolated" 
d="M135 847v-92l-270 -40v92zM144 926q-20 -13 -42.5 -20.5t-43.5 -7.5q-19 0 -34 4.5t-26 14.5q-18 -9 -36.5 -14t-36.5 -5q-36 0 -55.5 21t-19.5 61v95h66v-74q0 -12 5 -16.5t18 -4.5q7 0 14 1.5t13 4.5q-1 4 -1 8v13v60h66v-60q0 -14 5.5 -19t19.5 -5q7 0 15.5 2t16.5 5
q-3 18 -7.5 38t-10.5 37l66 25q12 -35 14 -77t-6 -87z" />
    <glyph glyph-name="tashdid_superScriptAlef.cmps" unicode="&#xfc63;" arabic-form="isolated" 
d="M154 776q-20 -13 -42.5 -20.5t-43.5 -7.5q-19 0 -34 4.5t-26 14.5q-18 -9 -36.5 -14t-36.5 -5q-36 0 -55.5 21t-19.5 61v95h66v-74q0 -12 5 -16.5t18 -4.5q7 0 14 1.5t13 4.5q-1 4 -1 8v13v60h66v-60q0 -14 5.5 -19t19.5 -5q7 0 15.5 2t16.5 5q-3 18 -7.5 38t-10.5 37
l66 25q12 -35 14 -77t-6 -87zM-43 999v167h92v-167h-92z" />
    <glyph glyph-name="rial" unicode="&#xfdfc;" horiz-adv-x="1264" arabic-form="isolated" 
d="M473 -63q6 27 9 63t3 81v108q-28 -9 -56 -13t-57 -4q-80 0 -128.5 49t-48.5 132q0 48 16 99t49 107l119 -53q-14 -31 -20 -55t-6 -46q0 -30 13 -45t38 -15q19 0 39.5 3t41.5 10v347h155v-262q18 13 39.5 28.5t64.5 47.5v186h155v-96q36 14 69.5 21t66.5 7q27 0 59 -4.5
t57 -11.5l-9 -172q-25 7 -49.5 10.5t-47.5 3.5q-35 0 -71 -8.5t-75 -26.5v-173q0 -37 15 -51t53 -14q16 0 31 2.5t54 19.5q-2 13 -5.5 27t-10.5 31q-4 10 -12 28.5t-11 26.5l158 57q24 -69 27 -150.5t-14 -169.5q-63 -34 -118 -48t-119 -14q-105 0 -154 56t-49 176v102
q-31 -22 -56.5 -39t-47.5 -31v-183q0 -69 -6.5 -135t-18.5 -112q-44 -44 -127.5 -73t-164.5 -29q-128 0 -203 64.5t-75 176.5q0 48 16 99t49 107l119 -53q-14 -31 -20 -55t-6 -46q0 -53 33.5 -79t101.5 -26q39 0 72.5 4.5t62.5 12.5zM989 -169l-73 -72l-83 82l83 83l73 -73
l73 73l83 -83l-83 -82z" />
    <glyph glyph-name="ah.isol" unicode="&#x622;" horiz-adv-x="285" arabic-form="isolated" 
d="M220 705v-705h-155v705h155zM157 886q22 -8 32 -10.5t18 -2.5q16 0 30.5 2.5t35.5 9.5l-10 -90q-18 -9 -34 -13.5t-32 -4.5q-12 0 -26 3.5t-41 13.5q-21 8 -31 10.5t-17 2.5q-16 0 -30.5 -2.5t-35.5 -9.5l10 90q18 9 34 13.5t32 4.5q12 0 25.5 -3t39.5 -14z" />
    <glyph glyph-name="ah.fina" unicode="&#x622;" horiz-adv-x="301" arabic-form="final" 
d="M288 190h13v-190h-33q-105 0 -154 56t-49 176v473h155v-450q0 -37 15 -51t53 -14zM157 886q22 -8 32 -10.5t18 -2.5q16 0 30.5 2.5t35.5 9.5l-10 -90q-18 -9 -34 -13.5t-32 -4.5q-12 0 -26 3.5t-41 13.5q-21 8 -31 10.5t-17 2.5q-16 0 -30.5 -2.5t-35.5 -9.5l10 90
q18 9 34 13.5t32 4.5q12 0 25.5 -3t39.5 -14z" />
    <glyph glyph-name="alefHamzeAbove.isol" unicode="&#x623;" horiz-adv-x="285" arabic-form="isolated" 
d="M220 705v-705h-155v705h155zM278 893v-92l-270 -40v92l59 8q-11 18 -17 38.5t-6 42.5q0 52 31 83t82 31q26 0 50.5 -7t47.5 -21l-21 -73q-32 9 -59.5 11t-43.5 -5q2 -34 18 -57.5t39 -23.5q8 0 47.5 6.5t42.5 6.5z" />
    <glyph glyph-name="alefHamzeAbove.fina" unicode="&#x623;" horiz-adv-x="301" arabic-form="final" 
d="M288 190h13v-190h-33q-105 0 -154 56t-49 176v473h155v-450q0 -37 15 -51t53 -14zM278 893v-92l-270 -40v92l59 8q-11 18 -17 38.5t-6 42.5q0 52 31 83t82 31q26 0 50.5 -7t47.5 -21l-21 -73q-32 9 -59.5 11t-43.5 -5q2 -34 18 -57.5t39 -23.5q8 0 47.5 6.5t42.5 6.5z
" />
    <glyph glyph-name="vavHamzeAbove.isol" unicode="&#x624;" horiz-adv-x="615" arabic-form="isolated" 
d="M488 353q27 -52 41 -116t14 -135q0 -75 -24 -144t-70 -124q-49 -60 -115 -93.5t-135 -33.5q-49 0 -91 8.5t-78 25.5l36 140q16 -4 36.5 -6.5t36.5 -2.5q72 0 135 37t112 107q-26 -13 -52.5 -19.5t-53.5 -6.5q-100 0 -157 61t-57 169q0 110 67 196t158 86
q56 0 108.5 -39.5t88.5 -109.5zM285 315q-32 0 -52 -21t-20 -53q0 -35 17.5 -49.5t59.5 -14.5q27 0 53.5 2.5t51.5 7.5q-13 64 -40 96t-70 32zM426 677v-92l-270 -40v92l59 8q-11 18 -17 38.5t-6 42.5q0 52 31 83t82 31q26 0 50.5 -7t47.5 -21l-21 -73q-32 9 -59.5 11
t-43.5 -5q2 -34 18 -57.5t39 -23.5q8 0 47.5 6.5t42.5 6.5z" />
    <glyph glyph-name="vavHamzeAbove.fina" unicode="&#x624;" horiz-adv-x="655" arabic-form="final" 
d="M655 190v-190h-123q-30 -129 -123.5 -211t-209.5 -82q-50 0 -91.5 8.5t-77.5 25.5l36 140q22 -5 39.5 -7t33.5 -2q67 0 127.5 32.5t108.5 95.5h-85q-104 0 -164 59t-60 161q0 110 67 196t158 86q87 0 157.5 -87.5t88.5 -224.5h118zM213 241q0 -28 17.5 -39.5t59.5 -11.5
h104q-13 62 -40 93.5t-69 31.5q-32 0 -52 -21t-20 -53zM426 677v-92l-270 -40v92l59 8q-11 18 -17 38.5t-6 42.5q0 52 31 83t82 31q26 0 50.5 -7t47.5 -21l-21 -73q-32 9 -59.5 11t-43.5 -5q2 -34 18 -57.5t39 -23.5q8 0 47.5 6.5t42.5 6.5z" />
    <glyph glyph-name="alefHamzeBelow.isol" unicode="&#x625;" horiz-adv-x="285" arabic-form="isolated" 
d="M220 705v-705h-155v705h155zM282 -208v-92l-270 -40v92l59 8q-11 18 -17 38.5t-6 42.5q0 52 31 83t82 31q26 0 50.5 -7t47.5 -21l-21 -73q-32 9 -59.5 11t-43.5 -5q2 -34 18 -57.5t39 -23.5q8 0 47.5 6.5t42.5 6.5z" />
    <glyph glyph-name="alefHamzeBelow.fina" unicode="&#x625;" horiz-adv-x="301" arabic-form="final" 
d="M288 190h13v-190h-33q-105 0 -154 56t-49 176v473h155v-450q0 -37 15 -51t53 -14zM282 -208v-92l-270 -40v92l59 8q-11 18 -17 38.5t-6 42.5q0 52 31 83t82 31q26 0 50.5 -7t47.5 -21l-21 -73q-32 9 -59.5 11t-43.5 -5q2 -34 18 -57.5t39 -23.5q8 0 47.5 6.5t42.5 6.5z
" />
    <glyph glyph-name="yehHamze.isol" unicode="&#x626;" horiz-adv-x="795" arabic-form="isolated" 
d="M380 -210q-139 0 -219.5 74.5t-80.5 199.5q0 47 16.5 95t47.5 91l110 -55q-10 -24 -14.5 -47t-4.5 -44q0 -60 37 -92t108 -32q62 0 129.5 18t88.5 40q-4 13 -19.5 24.5t-61.5 32.5q-51 24 -76 40t-43 34q-24 26 -36.5 57.5t-12.5 70.5q0 92 63 155t163 63
q64 0 119.5 -34.5t82.5 -87.5l-92 -94q-39 38 -68 53t-61 15q-27 0 -42.5 -12.5t-15.5 -32.5t19 -37.5t83 -47.5q100 -47 133.5 -86.5t33.5 -91.5q0 -54 -38 -108t-104 -94q-53 -32 -116.5 -49.5t-128.5 -17.5zM311 427v-92l-270 -40v92l59 8q-11 18 -17 38.5t-6 42.5
q0 52 31 83t82 31q26 0 50.5 -7t47.5 -21l-21 -73q-32 9 -59.5 11t-43.5 -5q2 -34 18 -57.5t39 -23.5q8 0 47.5 6.5t42.5 6.5z" />
    <glyph glyph-name="yehHamze.fina" unicode="&#x626;" horiz-adv-x="830" arabic-form="final" 
d="M481 0h-11l24 190h336v-190h-94q2 -9 2.5 -18t0.5 -19q0 -107 -108.5 -181.5t-270.5 -74.5q-138 0 -219 83t-81 221q0 80 29 161.5t87 164.5l110 -55q-38 -74 -54.5 -127.5t-16.5 -102.5q0 -76 40 -115.5t117 -39.5q80 0 140.5 21.5t94.5 60.5q-17 9 -53 15t-73 6z
M364 509v-92l-270 -40v92l59 8q-11 18 -17 38.5t-6 42.5q0 52 31 83t82 31q26 0 50.5 -7t47.5 -21l-21 -73q-32 9 -59.5 11t-43.5 -5q2 -34 18 -57.5t39 -23.5q8 0 47.5 6.5t42.5 6.5z" />
    <glyph glyph-name="yehHamze.init" unicode="&#x626;" horiz-adv-x="375" arabic-form="initial" 
d="M6 0h-6q-9 0 -15 27t-6 67q0 41 6 68.5t15 27.5h7q54 0 92 5.5t64 16.5q-5 42 -17 86t-30 87l158 57q30 -86 35.5 -183t-14.5 -197q-53 -29 -129 -45.5t-160 -16.5zM308 640v-92l-270 -40v92l59 8q-11 18 -17 38.5t-6 42.5q0 52 31 83t82 31q26 0 50.5 -7t47.5 -21
l-21 -73q-32 9 -59.5 11t-43.5 -5q2 -34 18 -57.5t39 -23.5q8 0 47.5 6.5t42.5 6.5z" />
    <glyph glyph-name="yehHamze.medi" unicode="&#x626;" horiz-adv-x="426" arabic-form="medial" 
d="M4 0h-4q-9 0 -15 27t-6 67q0 41 6 68.5t15 27.5h15q41 0 71.5 7t56.5 22v148h155v-71q0 -54 28 -80t87 -26h13v-190h-10q-65 0 -112 25t-67 70q-30 -44 -92.5 -69.5t-140.5 -25.5zM348 580v-92l-270 -40v92l59 8q-11 18 -17 38.5t-6 42.5q0 52 31 83t82 31q26 0 50.5 -7
t47.5 -21l-21 -73q-32 9 -59.5 11t-43.5 -5q2 -34 18 -57.5t39 -23.5q8 0 47.5 6.5t42.5 6.5z" />
    <glyph glyph-name="alef.isol" unicode="&#x627;" horiz-adv-x="285" arabic-form="isolated" 
d="M220 705v-705h-155v705h155z" />
    <glyph glyph-name="alef.fina" unicode="&#x627;" horiz-adv-x="301" arabic-form="final" 
d="M288 190h13v-190h-33q-105 0 -154 56t-49 176v473h155v-450q0 -37 15 -51t53 -14z" />
    <glyph glyph-name="beh.isol" unicode="&#x628;" horiz-adv-x="845" arabic-form="isolated" 
d="M407 180q62 0 125.5 7.5t100.5 20.5q-4 34 -15 72t-28 81l158 57q27 -77 31.5 -168.5t-14.5 -187.5q-77 -33 -186.5 -52.5t-219.5 -19.5q-163 0 -246 59t-83 175q0 47 16.5 95t47.5 91l110 -55q-11 -28 -15 -45t-4 -34q0 -53 50.5 -74.5t171.5 -21.5zM496 -159l-83 -82
l-83 82l83 83z" />
    <glyph glyph-name="beh.fina" unicode="&#x628;" horiz-adv-x="917" arabic-form="final" 
d="M917 0h-6q-59 0 -108.5 16.5t-83.5 47.5q-76 -34 -172 -54t-188 -20q-163 0 -246 59t-83 175q0 47 16.5 95t47.5 91l110 -55q-11 -28 -15 -45t-4 -34q0 -53 50.5 -74.5t171.5 -21.5q67 0 126.5 8t104.5 22l-38 124l151 43l19 -59q26 -80 54 -104t87 -24h6v-190zM506 -159
l-83 -82l-83 82l83 83z" />
    <glyph glyph-name="beh.init" unicode="&#x628;" horiz-adv-x="375" arabic-form="initial" 
d="M6 0h-6q-9 0 -15 27t-6 67q0 41 6 68.5t15 27.5h7q54 0 92 5.5t64 16.5q-5 42 -17 86t-30 87l158 57q30 -86 35.5 -183t-14.5 -197q-53 -29 -129 -45.5t-160 -16.5zM306 -159l-83 -82l-83 82l83 83z" />
    <glyph glyph-name="beh.medi" unicode="&#x628;" horiz-adv-x="426" arabic-form="medial" 
d="M4 0h-4q-9 0 -15 27t-6 67q0 41 6 68.5t15 27.5h15q41 0 71.5 7t56.5 22v148h155v-71q0 -54 28 -80t87 -26h13v-190h-10q-65 0 -112 25t-67 70q-30 -44 -92.5 -69.5t-140.5 -25.5zM296 -159l-83 -82l-83 82l83 83z" />
    <glyph glyph-name="tehArabic.isol" unicode="&#x629;" horiz-adv-x="545" arabic-form="isolated" 
d="M45 200q0 92 54.5 173t159.5 145q120 -40 180.5 -115t60.5 -182q0 -102 -65 -166.5t-168 -64.5q-101 0 -161.5 57.5t-60.5 152.5zM264 329q-31 -23 -48 -48.5t-17 -48.5q0 -24 19 -38t53 -14t54.5 15.5t20.5 40.5q0 26 -20.5 49t-61.5 44zM263 647l-73 -72l-83 82l83 83
l73 -73l73 73l83 -83l-83 -82z" />
    <glyph glyph-name="tehArabic.fina" unicode="&#x629;" horiz-adv-x="545" arabic-form="final" 
d="M333 94q-24 -16 -51 -23.5t-57 -7.5q-88 0 -144 52.5t-56 136.5q0 96 72 169t212 118v51h155v-335q0 -37 15 -51t53 -14h13v-190h-33q-68 0 -112.5 23t-66.5 71zM169 275q0 -26 21 -38t64 -12q10 0 22.5 1t32.5 4v137q-71 -14 -105.5 -36t-34.5 -56zM337 735l-73 -72
l-83 82l83 83l73 -73l73 73l83 -83l-83 -82z" />
    <glyph glyph-name="teh.isol" unicode="&#x62a;" horiz-adv-x="845" arabic-form="isolated" 
d="M407 180q62 0 125.5 7.5t100.5 20.5q-4 34 -15 72t-28 81l158 57q27 -77 31.5 -168.5t-14.5 -187.5q-77 -33 -186.5 -52.5t-219.5 -19.5q-163 0 -246 59t-83 175q0 47 16.5 95t47.5 91l110 -55q-11 -28 -15 -45t-4 -34q0 -53 50.5 -74.5t171.5 -21.5zM413 537l-73 -72
l-83 82l83 83l73 -73l73 73l83 -83l-83 -82z" />
    <glyph glyph-name="teh.fina" unicode="&#x62a;" horiz-adv-x="917" arabic-form="final" 
d="M917 0h-6q-59 0 -108.5 16.5t-83.5 47.5q-76 -34 -172 -54t-188 -20q-163 0 -246 59t-83 175q0 47 16.5 95t47.5 91l110 -55q-11 -28 -15 -45t-4 -34q0 -53 50.5 -74.5t171.5 -21.5q67 0 126.5 8t104.5 22l-38 124l151 43l19 -59q26 -80 54 -104t87 -24h6v-190zM423 537
l-73 -72l-83 82l83 83l73 -73l73 73l83 -83l-83 -82z" />
    <glyph glyph-name="teh.init" unicode="&#x62a;" horiz-adv-x="375" arabic-form="initial" 
d="M6 0h-6q-9 0 -15 27t-6 67q0 41 6 68.5t15 27.5h7q54 0 92 5.5t64 16.5q-5 42 -17 86t-30 87l158 57q30 -86 35.5 -183t-14.5 -197q-53 -29 -129 -45.5t-160 -16.5zM173 597l-73 -72l-83 82l83 83l73 -73l73 73l83 -83l-83 -82z" />
    <glyph glyph-name="teh.medi" unicode="&#x62a;" horiz-adv-x="426" arabic-form="medial" 
d="M4 0h-4q-9 0 -15 27t-6 67q0 41 6 68.5t15 27.5h15q41 0 71.5 7t56.5 22v148h155v-71q0 -54 28 -80t87 -26h13v-190h-10q-65 0 -112 25t-67 70q-30 -44 -92.5 -69.5t-140.5 -25.5zM213 537l-73 -72l-83 82l83 83l73 -73l73 73l83 -83l-83 -82z" />
    <glyph glyph-name="theh.isol" unicode="&#x62b;" horiz-adv-x="845" arabic-form="isolated" 
d="M407 180q62 0 125.5 7.5t100.5 20.5q-4 34 -15 72t-28 81l158 57q27 -77 31.5 -168.5t-14.5 -187.5q-77 -33 -186.5 -52.5t-219.5 -19.5q-163 0 -246 59t-83 175q0 47 16.5 95t47.5 91l110 -55q-11 -28 -15 -45t-4 -34q0 -53 50.5 -74.5t171.5 -21.5zM496 698l-83 -82
l-83 82l83 83zM413 537l-73 -72l-83 82l83 83l73 -73l73 73l83 -83l-83 -82z" />
    <glyph glyph-name="theh.fina" unicode="&#x62b;" horiz-adv-x="917" arabic-form="final" 
d="M917 0h-6q-59 0 -108.5 16.5t-83.5 47.5q-76 -34 -172 -54t-188 -20q-163 0 -246 59t-83 175q0 47 16.5 95t47.5 91l110 -55q-11 -28 -15 -45t-4 -34q0 -53 50.5 -74.5t171.5 -21.5q67 0 126.5 8t104.5 22l-38 124l151 43l19 -59q26 -80 54 -104t87 -24h6v-190zM506 698
l-83 -82l-83 82l83 83zM423 537l-73 -72l-83 82l83 83l73 -73l73 73l83 -83l-83 -82z" />
    <glyph glyph-name="theh.init" unicode="&#x62b;" horiz-adv-x="375" arabic-form="initial" 
d="M6 0h-6q-9 0 -15 27t-6 67q0 41 6 68.5t15 27.5h7q54 0 92 5.5t64 16.5q-5 42 -17 86t-30 87l158 57q30 -86 35.5 -183t-14.5 -197q-53 -29 -129 -45.5t-160 -16.5zM256 758l-83 -82l-83 82l83 83zM173 597l-73 -72l-83 82l83 83l73 -73l73 73l83 -83l-83 -82z" />
    <glyph glyph-name="theh.medi" unicode="&#x62b;" horiz-adv-x="426" arabic-form="medial" 
d="M4 0h-4q-9 0 -15 27t-6 67q0 41 6 68.5t15 27.5h15q41 0 71.5 7t56.5 22v148h155v-71q0 -54 28 -80t87 -26h13v-190h-10q-65 0 -112 25t-67 70q-30 -44 -92.5 -69.5t-140.5 -25.5zM296 698l-83 -82l-83 82l83 83zM213 537l-73 -72l-83 82l83 83l73 -73l73 73l83 -83
l-83 -82z" />
    <glyph glyph-name="jim.isol" unicode="&#x62c;" horiz-adv-x="742" arabic-form="isolated" 
d="M408 -293q-178 0 -283 78t-105 211q0 125 99 214.5t288 133.5q-34 4 -60.5 6t-46.5 2q-60 0 -120 -12t-121 -36l-46 162q66 26 129 38t131 12q91 0 215.5 -33.5t233.5 -86.5l-35 -141q-236 -2 -370 -63.5t-134 -161.5q0 -67 52.5 -100t159.5 -33q66 0 126.5 5.5
t128.5 18.5l-9 -188q-62 -14 -118 -20t-115 -6zM483 43l-83 -82l-83 82l83 83z" />
    <glyph glyph-name="jim.fina" unicode="&#x62c;" horiz-adv-x="742" arabic-form="final" 
d="M408 -293q-178 0 -283 78t-105 211q0 125 99 214.5t288 133.5q-34 4 -60.5 6t-46.5 2q-60 0 -120 -12t-121 -36l-46 162q66 26 129 38t131 12q91 0 215.5 -33.5t233.5 -86.5l-31 -125q-32 0 -59 -1t-50 -3q16 -39 53 -58t98 -19h9v-190h-12q-116 0 -182 60t-76 177
q-138 -24 -213.5 -79t-75.5 -128q0 -67 52.5 -100t159.5 -33q66 0 126.5 5.5t128.5 18.5l-9 -188q-62 -14 -118 -20t-115 -6zM453 43l-83 -82l-83 82l83 83z" />
    <glyph glyph-name="jim.init" unicode="&#x62c;" horiz-adv-x="742" arabic-form="initial" 
d="M3 0h-3q-9 0 -15 27t-6 67q0 41 6 68.5t15 27.5h6q125 0 233.5 41.5t162.5 114.5q-25 3 -50 4.5t-52 1.5q-61 0 -121.5 -12t-119.5 -36l-46 163q67 26 131.5 38t141.5 12q111 0 227 -29t212 -81l-63 -137q-24 11 -48.5 20.5t-49.5 18.5q-82 -144 -233 -226.5t-328 -82.5z
M475 -159l-83 -82l-83 82l83 83z" />
    <glyph glyph-name="jim.medi" unicode="&#x62c;" horiz-adv-x="742" arabic-form="medial" 
d="M3 0h-3q-9 0 -15 27t-6 67q0 41 6 68.5t15 27.5h6q125 0 233.5 41.5t162.5 114.5q-25 3 -50 4.5t-52 1.5q-60 0 -120 -12t-121 -36l-46 163q67 26 131.5 38t141.5 12q111 0 227 -29t212 -81l-63 -137q-24 11 -48.5 20.5t-49.5 18.5q-4 -8 -9 -16t-11 -17q15 -42 63 -64
t126 -22h9v-190h-12q-108 0 -177 44.5t-94 130.5q-88 -84 -207 -129.5t-249 -45.5zM475 -159l-83 -82l-83 82l83 83z" />
    <glyph glyph-name="hah.isol" unicode="&#x62d;" horiz-adv-x="742" arabic-form="isolated" 
d="M408 -293q-178 0 -283 78t-105 211q0 125 99 214.5t288 133.5q-34 4 -60.5 6t-46.5 2q-60 0 -120 -12t-121 -36l-46 162q66 26 129 38t131 12q91 0 215.5 -33.5t233.5 -86.5l-35 -141q-236 -2 -370 -63.5t-134 -161.5q0 -67 52.5 -100t159.5 -33q66 0 126.5 5.5
t128.5 18.5l-9 -188q-62 -14 -118 -20t-115 -6z" />
    <glyph glyph-name="hah.fina" unicode="&#x62d;" horiz-adv-x="742" arabic-form="final" 
d="M408 -293q-178 0 -283 78t-105 211q0 125 99 214.5t288 133.5q-34 4 -60.5 6t-46.5 2q-60 0 -120 -12t-121 -36l-46 162q66 26 129 38t131 12q91 0 215.5 -33.5t233.5 -86.5l-31 -125q-32 0 -59 -1t-50 -3q16 -39 53 -58t98 -19h9v-190h-12q-116 0 -182 60t-76 177
q-138 -24 -213.5 -79t-75.5 -128q0 -67 52.5 -100t159.5 -33q66 0 126.5 5.5t128.5 18.5l-9 -188q-62 -14 -118 -20t-115 -6z" />
    <glyph glyph-name="hah.init" unicode="&#x62d;" horiz-adv-x="742" arabic-form="initial" 
d="M3 0h-3q-9 0 -15 27t-6 67q0 41 6 68.5t15 27.5h6q125 0 233.5 41.5t162.5 114.5q-25 3 -50 4.5t-52 1.5q-61 0 -121.5 -12t-119.5 -36l-46 163q67 26 131.5 38t141.5 12q111 0 227 -29t212 -81l-63 -137q-24 11 -48.5 20.5t-49.5 18.5q-82 -144 -233 -226.5t-328 -82.5z
" />
    <glyph glyph-name="hah.medi" unicode="&#x62d;" horiz-adv-x="742" arabic-form="medial" 
d="M3 0h-3q-9 0 -15 27t-6 67q0 41 6 68.5t15 27.5h6q125 0 233.5 41.5t162.5 114.5q-25 3 -50 4.5t-52 1.5q-60 0 -120 -12t-121 -36l-46 163q67 26 131.5 38t141.5 12q111 0 227 -29t212 -81l-63 -137q-24 11 -48.5 20.5t-49.5 18.5q-4 -8 -9 -16t-11 -17q15 -42 63 -64
t126 -22h9v-190h-12q-108 0 -177 44.5t-94 130.5q-88 -84 -207 -129.5t-249 -45.5z" />
    <glyph glyph-name="kheh.isol" unicode="&#x62e;" horiz-adv-x="742" arabic-form="isolated" 
d="M408 -293q-178 0 -283 78t-105 211q0 125 99 214.5t288 133.5q-34 4 -60.5 6t-46.5 2q-60 0 -120 -12t-121 -36l-46 162q66 26 129 38t131 12q91 0 215.5 -33.5t233.5 -86.5l-35 -141q-236 -2 -370 -63.5t-134 -161.5q0 -67 52.5 -100t159.5 -33q66 0 126.5 5.5
t128.5 18.5l-9 -188q-62 -14 -118 -20t-115 -6zM436 657l-83 -82l-83 82l83 83z" />
    <glyph glyph-name="kheh.fina" unicode="&#x62e;" horiz-adv-x="742" arabic-form="final" 
d="M408 -293q-178 0 -283 78t-105 211q0 125 99 214.5t288 133.5q-34 4 -60.5 6t-46.5 2q-60 0 -120 -12t-121 -36l-46 162q66 26 129 38t131 12q91 0 215.5 -33.5t233.5 -86.5l-31 -125q-32 0 -59 -1t-50 -3q16 -39 53 -58t98 -19h9v-190h-12q-116 0 -182 60t-76 177
q-138 -24 -213.5 -79t-75.5 -128q0 -67 52.5 -100t159.5 -33q66 0 126.5 5.5t128.5 18.5l-9 -188q-62 -14 -118 -20t-115 -6zM436 657l-83 -82l-83 82l83 83z" />
    <glyph glyph-name="kheh.init" unicode="&#x62e;" horiz-adv-x="742" arabic-form="initial" 
d="M3 0h-3q-9 0 -15 27t-6 67q0 41 6 68.5t15 27.5h6q125 0 233.5 41.5t162.5 114.5q-25 3 -50 4.5t-52 1.5q-61 0 -121.5 -12t-119.5 -36l-46 163q67 26 131.5 38t141.5 12q111 0 227 -29t212 -81l-63 -137q-24 11 -48.5 20.5t-49.5 18.5q-82 -144 -233 -226.5t-328 -82.5z
M436 657l-83 -82l-83 82l83 83z" />
    <glyph glyph-name="kheh.medi" unicode="&#x62e;" horiz-adv-x="742" arabic-form="medial" 
d="M3 0h-3q-9 0 -15 27t-6 67q0 41 6 68.5t15 27.5h6q125 0 233.5 41.5t162.5 114.5q-25 3 -50 4.5t-52 1.5q-60 0 -120 -12t-121 -36l-46 163q67 26 131.5 38t141.5 12q111 0 227 -29t212 -81l-63 -137q-24 11 -48.5 20.5t-49.5 18.5q-4 -8 -9 -16t-11 -17q15 -42 63 -64
t126 -22h9v-190h-12q-108 0 -177 44.5t-94 130.5q-88 -84 -207 -129.5t-249 -45.5zM436 657l-83 -82l-83 82l83 83z" />
    <glyph glyph-name="dal.isol" unicode="&#x62f;" horiz-adv-x="677" arabic-form="isolated" 
d="M601 79q-60 -45 -136 -67t-173 -22q-78 0 -151 12.5t-122 33.5l69 174q49 -15 96.5 -22.5t94.5 -7.5q60 0 98.5 5.5t68.5 18.5q-38 60 -101 118t-130 93l96 165q140 -72 223 -210.5t67 -290.5z" />
    <glyph glyph-name="dal.fina" unicode="&#x62f;" horiz-adv-x="709" arabic-form="final" 
d="M351 218l-174 270l140 92l154 -251q47 -77 97 -108t133 -31h8v-190h-12q-77 0 -127 15t-92 50q-43 -38 -96.5 -56.5t-119.5 -18.5q-65 0 -129 12.5t-114 33.5l69 174q49 -15 96.5 -22.5t94.5 -7.5q25 0 48.5 1.5t44.5 4.5q-4 5 -8 11.5t-13 20.5z" />
    <glyph glyph-name="zal.isol" unicode="&#x630;" horiz-adv-x="677" arabic-form="isolated" 
d="M601 79q-60 -45 -136 -67t-173 -22q-78 0 -151 12.5t-122 33.5l69 174q49 -15 96.5 -22.5t94.5 -7.5q60 0 98.5 5.5t68.5 18.5q-38 60 -101 118t-130 93l96 165q140 -72 223 -210.5t67 -290.5zM394 744l-83 -82l-83 82l83 83z" />
    <glyph glyph-name="zal.fina" unicode="&#x630;" horiz-adv-x="709" arabic-form="final" 
d="M351 218l-174 270l140 92l154 -251q47 -77 97 -108t133 -31h8v-190h-12q-77 0 -127 15t-92 50q-43 -38 -96.5 -56.5t-119.5 -18.5q-65 0 -129 12.5t-114 33.5l69 174q49 -15 96.5 -22.5t94.5 -7.5q25 0 48.5 1.5t44.5 4.5q-4 5 -8 11.5t-13 20.5zM314 744l-83 -82l-83 82
l83 83z" />
    <glyph glyph-name="reh.isol" unicode="&#x631;" horiz-adv-x="618" arabic-form="isolated" 
d="M560 102q0 -75 -23.5 -144t-68.5 -124q-49 -60 -114 -93.5t-134 -33.5q-52 0 -92 7.5t-81 26.5l36 140q24 -5 42.5 -7t35.5 -2q71 0 140.5 47t121.5 128q-8 42 -38.5 120t-70.5 161l162 71q41 -93 62.5 -168.5t21.5 -128.5z" />
    <glyph glyph-name="reh.fina" unicode="&#x631;" horiz-adv-x="649" arabic-form="final" 
d="M450 81q-23 26 -44.5 62t-42.5 84l-44 101l146 63l44 -105q22 -55 50 -75.5t84 -20.5h6v-190h-7q-26 0 -48.5 3t-42.5 10q-26 -132 -120.5 -219t-210.5 -87q-52 0 -92 7.5t-81 26.5l36 140q24 -5 42.5 -7t35.5 -2q77 0 151 54t138 155z" />
    <glyph glyph-name="zeh.isol" unicode="&#x632;" horiz-adv-x="618" arabic-form="isolated" 
d="M560 102q0 -75 -23.5 -144t-68.5 -124q-49 -60 -114 -93.5t-134 -33.5q-52 0 -92 7.5t-81 26.5l36 140q24 -5 42.5 -7t35.5 -2q71 0 140.5 47t121.5 128q-8 42 -38.5 120t-70.5 161l162 71q41 -93 62.5 -168.5t21.5 -128.5zM414 554l-83 -82l-83 82l83 83z" />
    <glyph glyph-name="zeh.fina" unicode="&#x632;" horiz-adv-x="649" arabic-form="final" 
d="M450 81q-23 26 -44.5 62t-42.5 84l-44 101l146 63l44 -105q22 -55 50 -75.5t84 -20.5h6v-190h-7q-26 0 -48.5 3t-42.5 10q-26 -132 -120.5 -219t-210.5 -87q-52 0 -92 7.5t-81 26.5l36 140q24 -5 42.5 -7t35.5 -2q77 0 151 54t138 155zM414 554l-83 -82l-83 82l83 83z
" />
    <glyph glyph-name="sin.isol" unicode="&#x633;" horiz-adv-x="1437" arabic-form="isolated" 
d="M694 13q3 -41 3 -84t-3 -86q-66 -51 -155 -81t-180 -30q-128 0 -203 64t-75 177q0 48 16 99t49 107l119 -53q-14 -31 -20 -55t-6 -46q0 -56 36.5 -80.5t118.5 -24.5q38 0 80.5 9t76.5 24q-1 62 -20 156t-58 227l160 46l26 -88q18 -60 46.5 -87t74.5 -27q44 0 67.5 24.5
t23.5 70.5v92h155v-91q0 -46 21.5 -71t61.5 -25q25 0 46.5 7t47.5 25q-5 42 -17 86t-30 87l158 57q30 -86 35.5 -183t-14.5 -197q-45 -36 -90 -54t-90 -18q-59 0 -101 26.5t-66 78.5q-27 -49 -80.5 -77t-121.5 -28q-29 0 -52 6t-40 17z" />
    <glyph glyph-name="sin.fina" unicode="&#x633;" horiz-adv-x="1502" arabic-form="final" 
d="M1304 91q-20 -47 -64 -74t-100 -27q-58 0 -102.5 25.5t-68.5 73.5q-25 -47 -73 -73t-110 -26q-29 0 -52 6t-40 17q3 -41 3 -84t-3 -86q-66 -51 -155 -81t-180 -30q-128 0 -203 64t-75 177q0 48 16 99t49 107l119 -53q-14 -31 -20 -55t-6 -46q0 -56 36.5 -80.5
t118.5 -24.5q38 0 80.5 9t76.5 24q-1 62 -20 156t-58 227l160 46l26 -87q18 -60 47 -87.5t74 -27.5q44 0 67.5 24.5t23.5 70.5v92h155v-91q0 -46 21.5 -71t61.5 -25q41 0 64.5 25t23.5 69v138h155v-122q0 -56 29 -78t111 -22h10v-190h-10q-65 0 -113.5 23.5t-74.5 67.5z" />
    <glyph glyph-name="sin.init" unicode="&#x633;" horiz-adv-x="1037" arabic-form="initial" 
d="M4 0h-4q-9 0 -15 27t-6 67q0 41 6 68.5t15 27.5h24q61 0 87.5 23.5t26.5 78.5v87h155v-103q0 -48 23 -72t69 -24q42 0 64 24t22 71v92h155v-91q0 -46 21.5 -71t61.5 -25q30 0 55.5 6.5t43.5 18.5q-6 47 -18 92.5t-29 87.5l155 57q29 -87 34.5 -183.5t-13.5 -197.5
q-36 -33 -81.5 -52t-91.5 -19q-71 0 -119.5 24.5t-75.5 73.5q-24 -47 -72.5 -72.5t-111.5 -25.5q-64 0 -111 26t-72 74q-27 -44 -77.5 -67t-120.5 -23z" />
    <glyph glyph-name="sin.medi" unicode="&#x633;" horiz-adv-x="1102" arabic-form="medial" 
d="M4 0h-4q-9 0 -15 27t-6 67q0 41 6 68.5t15 27.5h24q61 0 87.5 23.5t26.5 78.5v87h155v-103q0 -48 23 -72t69 -24q42 0 64 24t22 71v92h155v-91q0 -46 21.5 -71t61.5 -25q41 0 64.5 25t23.5 69v138h155v-122q0 -56 29 -78t111 -22h10v-190h-10q-66 0 -114 23t-74 68
q-20 -47 -64 -74t-100 -27q-60 0 -103.5 24.5t-67.5 72.5q-25 -46 -73 -71.5t-111 -25.5q-64 0 -111 26t-72 74q-27 -44 -77.5 -67t-120.5 -23z" />
    <glyph glyph-name="shin.isol" unicode="&#x634;" horiz-adv-x="1437" arabic-form="isolated" 
d="M694 13q3 -41 3 -84t-3 -86q-66 -51 -155 -81t-180 -30q-128 0 -203 64t-75 177q0 48 16 99t49 107l119 -53q-14 -31 -20 -55t-6 -46q0 -56 36.5 -80.5t118.5 -24.5q38 0 80.5 9t76.5 24q-1 62 -20 156t-58 227l160 46l26 -88q18 -60 46.5 -87t74.5 -27q44 0 67.5 24.5
t23.5 70.5v92h155v-91q0 -46 21.5 -71t61.5 -25q25 0 46.5 7t47.5 25q-5 42 -17 86t-30 87l158 57q30 -86 35.5 -183t-14.5 -197q-45 -36 -90 -54t-90 -18q-59 0 -101 26.5t-66 78.5q-27 -49 -80.5 -77t-121.5 -28q-29 0 -52 6t-40 17zM1026 698l-83 -82l-83 82l83 83z
M943 537l-73 -72l-83 82l83 83l73 -73l73 73l83 -83l-83 -82z" />
    <glyph glyph-name="shin.fina" unicode="&#x634;" horiz-adv-x="1502" arabic-form="final" 
d="M1304 91q-20 -47 -64 -74t-100 -27q-58 0 -102.5 25.5t-68.5 73.5q-25 -47 -73 -73t-110 -26q-29 0 -52 6t-40 17q3 -41 3 -84t-3 -86q-66 -51 -155 -81t-180 -30q-128 0 -203 64t-75 177q0 48 16 99t49 107l119 -53q-14 -31 -20 -55t-6 -46q0 -56 36.5 -80.5
t118.5 -24.5q38 0 80.5 9t76.5 24q-1 62 -20 156t-58 227l160 46l26 -87q18 -60 47 -87.5t74 -27.5q44 0 67.5 24.5t23.5 70.5v92h155v-91q0 -46 21.5 -71t61.5 -25q41 0 64.5 25t23.5 69v138h155v-122q0 -56 29 -78t111 -22h10v-190h-10q-65 0 -113.5 23.5t-74.5 67.5z
M1026 698l-83 -82l-83 82l83 83zM943 537l-73 -72l-83 82l83 83l73 -73l73 73l83 -83l-83 -82z" />
    <glyph glyph-name="shin.init" unicode="&#x634;" horiz-adv-x="1037" arabic-form="initial" 
d="M4 0h-4q-9 0 -15 27t-6 67q0 41 6 68.5t15 27.5h24q61 0 87.5 23.5t26.5 78.5v87h155v-103q0 -48 23 -72t69 -24q42 0 64 24t22 71v92h155v-91q0 -46 21.5 -71t61.5 -25q30 0 55.5 6.5t43.5 18.5q-6 47 -18 92.5t-29 87.5l155 57q29 -87 34.5 -183.5t-13.5 -197.5
q-36 -33 -81.5 -52t-91.5 -19q-71 0 -119.5 24.5t-75.5 73.5q-24 -47 -72.5 -72.5t-111.5 -25.5q-64 0 -111 26t-72 74q-27 -44 -77.5 -67t-120.5 -23zM629 698l-83 -82l-83 82l83 83zM546 537l-73 -72l-83 82l83 83l73 -73l73 73l83 -83l-83 -82z" />
    <glyph glyph-name="shin.medi" unicode="&#x634;" horiz-adv-x="1102" arabic-form="medial" 
d="M4 0h-4q-9 0 -15 27t-6 67q0 41 6 68.5t15 27.5h24q61 0 87.5 23.5t26.5 78.5v87h155v-103q0 -48 23 -72t69 -24q42 0 64 24t22 71v92h155v-91q0 -46 21.5 -71t61.5 -25q41 0 64.5 25t23.5 69v138h155v-122q0 -56 29 -78t111 -22h10v-190h-10q-66 0 -114 23t-74 68
q-20 -47 -64 -74t-100 -27q-60 0 -103.5 24.5t-67.5 72.5q-25 -46 -73 -71.5t-111 -25.5q-64 0 -111 26t-72 74q-27 -44 -77.5 -67t-120.5 -23zM629 698l-83 -82l-83 82l83 83zM546 537l-73 -72l-83 82l83 83l73 -73l73 73l83 -83l-83 -82z" />
    <glyph glyph-name="sad.isol" unicode="&#x635;" horiz-adv-x="1356" arabic-form="isolated" 
d="M677 202q38 144 128 222t217 78q116 0 195 -82.5t79 -210.5q0 -42 -13.5 -89.5t-34.5 -82.5q-52 -19 -145 -28t-235 -9q-51 0 -96.5 2t-77.5 6q3 -41 3 -82.5t-3 -82.5q-66 -51 -155 -81t-180 -30q-128 0 -203 64t-75 177q0 48 16 99t49 107l119 -53q-14 -31 -20 -55
t-6 -46q0 -56 36.5 -80.5t118.5 -24.5q38 0 80.5 9t76.5 24q-1 62 -20 156t-58 227l160 46q14 -49 25 -93t19 -87zM1133 205q0 55 -37 88.5t-96 33.5q-65 0 -113.5 -35t-74.5 -101q12 -1 26.5 -1h45.5q111 0 165.5 3.5t83.5 11.5z" />
    <glyph glyph-name="sad.fina" unicode="&#x635;" horiz-adv-x="1399" arabic-form="final" 
d="M677 202q38 144 128 222t217 78q116 0 195 -82.5t79 -210.5v-10q21 -5 41 -7t42 -2h20v-190h-13q-61 0 -105 5.5t-84 17.5q-55 -12 -136 -17.5t-193 -5.5q-51 0 -96.5 2t-77.5 6q3 -41 3 -82.5t-3 -82.5q-66 -51 -155 -81t-180 -30q-128 0 -203 64t-75 177q0 48 16 99
t49 107l119 -53q-14 -31 -20 -55t-6 -46q0 -56 36.5 -80.5t118.5 -24.5q38 0 80.5 9t76.5 24q-1 62 -20 155.5t-58 226.5l160 46q15 -50 25.5 -94t18.5 -85zM1133 205q0 55 -37 88.5t-96 33.5q-65 0 -113.5 -35t-74.5 -101q12 -1 26.5 -1h45.5q111 0 165.5 3.5t83.5 11.5z
" />
    <glyph glyph-name="sad.init" unicode="&#x635;" horiz-adv-x="1016" arabic-form="initial" 
d="M4 0h-4q-9 0 -15 27t-6 67q0 41 6 68.5t15 27.5h15q40 0 70.5 6.5t55.5 21.5v149h160v-98q0 -31 8 -47.5t26 -24.5q38 147 128.5 226t218.5 79q116 0 195 -82.5t79 -210.5q0 -42 -13.5 -89.5t-34.5 -82.5q-64 -19 -176.5 -28t-305.5 -9q-93 0 -153 19.5t-92 60.5
q-25 -39 -70 -59.5t-107 -20.5zM793 205q0 55 -37 88.5t-96 33.5q-66 0 -114.5 -35t-73.5 -102q111 1 191.5 4.5t129.5 10.5z" />
    <glyph glyph-name="sad.medi" unicode="&#x635;" horiz-adv-x="1059" arabic-form="medial" 
d="M4 0h-4q-9 0 -15 27t-6 67q0 41 6 68.5t15 27.5h15q40 0 70.5 6.5t55.5 21.5v149h160v-98q0 -31 8 -47.5t26 -24.5q38 147 128.5 226t218.5 79q116 0 195 -82.5t79 -210.5v-10q21 -5 41 -7t42 -2h20v-190h-13q-59 0 -104 5.5t-89 18.5q-67 -12 -168.5 -18t-258.5 -6
q-93 0 -153 19.5t-92 60.5q-25 -39 -70 -59.5t-107 -20.5zM793 205q0 55 -37 88.5t-96 33.5q-66 0 -114.5 -35t-73.5 -102q111 1 191.5 4.5t129.5 10.5z" />
    <glyph glyph-name="zad.isol" unicode="&#x636;" horiz-adv-x="1356" arabic-form="isolated" 
d="M677 202q38 144 128 222t217 78q116 0 195 -82.5t79 -210.5q0 -42 -13.5 -89.5t-34.5 -82.5q-52 -19 -145 -28t-235 -9q-51 0 -96.5 2t-77.5 6q3 -41 3 -82.5t-3 -82.5q-66 -51 -155 -81t-180 -30q-128 0 -203 64t-75 177q0 48 16 99t49 107l119 -53q-14 -31 -20 -55
t-6 -46q0 -56 36.5 -80.5t118.5 -24.5q38 0 80.5 9t76.5 24q-1 62 -20 156t-58 227l160 46q14 -49 25 -93t19 -87zM1133 205q0 55 -37 88.5t-96 33.5q-65 0 -113.5 -35t-74.5 -101q12 -1 26.5 -1h45.5q111 0 165.5 3.5t83.5 11.5zM1089 657l-83 -82l-83 82l83 83z" />
    <glyph glyph-name="zad.fina" unicode="&#x636;" horiz-adv-x="1399" arabic-form="final" 
d="M677 202q38 144 128 222t217 78q116 0 195 -82.5t79 -210.5v-10q21 -5 41 -7t42 -2h20v-190h-13q-61 0 -105 5.5t-84 17.5q-55 -12 -136 -17.5t-193 -5.5q-51 0 -96.5 2t-77.5 6q3 -41 3 -82.5t-3 -82.5q-66 -51 -155 -81t-180 -30q-128 0 -203 64t-75 177q0 48 16 99
t49 107l119 -53q-14 -31 -20 -55t-6 -46q0 -56 36.5 -80.5t118.5 -24.5q38 0 80.5 9t76.5 24q-1 62 -20 155.5t-58 226.5l160 46q15 -50 25.5 -94t18.5 -85zM1133 205q0 55 -37 88.5t-96 33.5q-65 0 -113.5 -35t-74.5 -101q12 -1 26.5 -1h45.5q111 0 165.5 3.5t83.5 11.5z
M1089 657l-83 -82l-83 82l83 83z" />
    <glyph glyph-name="zad.init" unicode="&#x636;" horiz-adv-x="1016" arabic-form="initial" 
d="M4 0h-4q-9 0 -15 27t-6 67q0 41 6 68.5t15 27.5h15q40 0 70.5 6.5t55.5 21.5v149h160v-98q0 -31 8 -47.5t26 -24.5q38 147 128.5 226t218.5 79q116 0 195 -82.5t79 -210.5q0 -42 -13.5 -89.5t-34.5 -82.5q-64 -19 -176.5 -28t-305.5 -9q-93 0 -153 19.5t-92 60.5
q-25 -39 -70 -59.5t-107 -20.5zM793 205q0 55 -37 88.5t-96 33.5q-66 0 -114.5 -35t-73.5 -102q111 1 191.5 4.5t129.5 10.5zM739 657l-83 -82l-83 82l83 83z" />
    <glyph glyph-name="zad.medi" unicode="&#x636;" horiz-adv-x="1059" arabic-form="medial" 
d="M4 0h-4q-9 0 -15 27t-6 67q0 41 6 68.5t15 27.5h15q40 0 70.5 6.5t55.5 21.5v149h160v-98q0 -31 8 -47.5t26 -24.5q38 147 128.5 226t218.5 79q116 0 195 -82.5t79 -210.5v-10q21 -5 41 -7t42 -2h20v-190h-13q-59 0 -104 5.5t-89 18.5q-67 -12 -168.5 -18t-258.5 -6
q-93 0 -153 19.5t-92 60.5q-25 -39 -70 -59.5t-107 -20.5zM793 205q0 55 -37 88.5t-96 33.5q-66 0 -114.5 -35t-73.5 -102q111 1 191.5 4.5t129.5 10.5zM739 657l-83 -82l-83 82l83 83z" />
    <glyph glyph-name="ta.isol" unicode="&#x637;" horiz-adv-x="868" arabic-form="isolated" 
d="M534 502q116 0 195 -82.5t79 -210.5q0 -42 -13.5 -89.5t-34.5 -82.5q-64 -19 -176.5 -28t-295.5 -9q-79 0 -152 12t-126 34l69 174q23 -8 47.5 -14t50.5 -11q7 28 16.5 55.5t23.5 55.5v399h155v-255q37 26 77.5 39t84.5 13zM645 205q0 55 -37 88.5t-96 33.5
q-62 0 -108 -35t-71 -102q108 1 186 4.5t126 10.5z" />
    <glyph glyph-name="ta.fina" unicode="&#x637;" horiz-adv-x="911" arabic-form="final" 
d="M288 0q-79 0 -152 12t-126 34l69 174q23 -8 47.5 -14t50.5 -11q7 28 16.5 55.5t23.5 55.5v399h155v-255q37 26 77.5 39t84.5 13q116 0 195 -82.5t79 -210.5v-10q21 -5 41 -7t42 -2h20v-190h-13q-60 0 -105 5.5t-88 18.5q-68 -12 -169.5 -18t-247.5 -6zM645 205
q0 55 -37 88.5t-96 33.5q-62 0 -108 -35t-71 -102q108 1 186 4.5t126 10.5z" />
    <glyph glyph-name="ta.init" unicode="&#x637;" horiz-adv-x="790" arabic-form="initial" 
d="M210 0h-210q-9 0 -15 27t-6 67q0 41 6 68.5t15 27.5h97q8 33 18.5 62t23.5 54v399h155v-255q37 26 77.5 39t84.5 13q116 0 195 -82.5t79 -210.5q0 -42 -13.5 -89.5t-34.5 -82.5q-64 -19 -176.5 -28t-295.5 -9zM567 205q0 55 -37 88.5t-96 33.5q-62 0 -108 -35t-71 -102
q108 1 186 4.5t126 10.5z" />
    <glyph glyph-name="ta.medi" unicode="&#x637;" horiz-adv-x="832" arabic-form="medial" 
d="M209 0h-209q-9 0 -15 27t-6 67q0 41 6 68.5t15 27.5h96q8 33 18.5 62t23.5 54v399h155v-255q37 26 77.5 39t84.5 13q116 0 195 -82.5t79 -210.5v-10q21 -5 41 -7t42 -2h20v-190h-13q-60 0 -105 5.5t-88 18.5q-68 -12 -169.5 -18t-247.5 -6zM566 205q0 55 -37 88.5
t-96 33.5q-62 0 -108 -35t-71 -102q108 1 186 4.5t126 10.5z" />
    <glyph glyph-name="za.isol" unicode="&#x638;" horiz-adv-x="868" arabic-form="isolated" 
d="M534 502q116 0 195 -82.5t79 -210.5q0 -42 -13.5 -89.5t-34.5 -82.5q-64 -19 -176.5 -28t-295.5 -9q-79 0 -152 12t-126 34l69 174q23 -8 47.5 -14t50.5 -11q7 28 16.5 55.5t23.5 55.5v399h155v-255q37 26 77.5 39t84.5 13zM645 205q0 55 -37 88.5t-96 33.5
q-62 0 -108 -35t-71 -102q108 1 186 4.5t126 10.5zM709 657l-83 -82l-83 82l83 83z" />
    <glyph glyph-name="za.fina" unicode="&#x638;" horiz-adv-x="911" arabic-form="final" 
d="M288 0q-79 0 -152 12t-126 34l69 174q23 -8 47.5 -14t50.5 -11q7 28 16.5 55.5t23.5 55.5v399h155v-255q37 26 77.5 39t84.5 13q116 0 195 -82.5t79 -210.5v-10q21 -5 41 -7t42 -2h20v-190h-13q-60 0 -105 5.5t-88 18.5q-68 -12 -169.5 -18t-247.5 -6zM645 205
q0 55 -37 88.5t-96 33.5q-62 0 -108 -35t-71 -102q108 1 186 4.5t126 10.5zM709 657l-83 -82l-83 82l83 83z" />
    <glyph glyph-name="za.init" unicode="&#x638;" horiz-adv-x="790" arabic-form="initial" 
d="M210 0h-210q-9 0 -15 27t-6 67q0 41 6 68.5t15 27.5h97q8 33 18.5 62t23.5 54v399h155v-255q37 26 77.5 39t84.5 13q116 0 195 -82.5t79 -210.5q0 -42 -13.5 -89.5t-34.5 -82.5q-64 -19 -176.5 -28t-295.5 -9zM567 205q0 55 -37 88.5t-96 33.5q-62 0 -108 -35t-71 -102
q108 1 186 4.5t126 10.5zM619 657l-83 -82l-83 82l83 83z" />
    <glyph glyph-name="za.medi" unicode="&#x638;" horiz-adv-x="832" arabic-form="medial" 
d="M209 0h-209q-9 0 -15 27t-6 67q0 41 6 68.5t15 27.5h96q8 33 18.5 62t23.5 54v399h155v-255q37 26 77.5 39t84.5 13q116 0 195 -82.5t79 -210.5v-10q21 -5 41 -7t42 -2h20v-190h-13q-60 0 -105 5.5t-88 18.5q-68 -12 -169.5 -18t-247.5 -6zM566 205q0 55 -37 88.5
t-96 33.5q-62 0 -108 -35t-71 -102q108 1 186 4.5t126 10.5zM619 657l-83 -82l-83 82l83 83z" />
    <glyph glyph-name="eyn.isol" unicode="&#x639;" horiz-adv-x="712" arabic-form="isolated" 
d="M272 418q7 -60 37 -105t65 -45q17 0 61.5 9t118.5 28l17 -156l-140 -33q-130 -31 -180.5 -57.5t-50.5 -70.5q0 -45 53.5 -68t159.5 -23q64 0 123 5.5t126 18.5l-9 -188q-50 -12 -110.5 -19t-116.5 -7q-177 0 -279 71.5t-102 195.5q0 66 35 118t107 93q-36 41 -55 92
t-19 107q0 93 61 152.5t154 59.5q48 0 89 -12t86 -40l-38 -138q-32 10 -65.5 15.5t-62.5 5.5q-19 0 -35.5 -2.5t-29.5 -6.5z" />
    <glyph glyph-name="eyn.fina" unicode="&#x639;" horiz-adv-x="681" arabic-form="final" 
d="M414 -293q-178 0 -279.5 63.5t-101.5 175.5q0 70 43 126t129 97q-23 27 -44 59t-40 72q-18 -7 -34.5 -14t-32.5 -14l-55 157q92 42 189 66t176 24q126 0 189.5 -43t63.5 -129q0 -41 -18 -79.5t-54 -73.5q26 -2 57.5 -3t71.5 -1h7v-190h-8q-123 0 -213 20.5t-158 64.5
q-55 -22 -80.5 -47t-25.5 -59q0 -41 51 -61.5t154 -20.5q64 0 123 5.5t126 18.5l-9 -188q-60 -14 -115 -20t-112 -6zM403 222q26 19 40 40t14 41q0 26 -26 40.5t-74 14.5q-25 0 -48 -2.5t-48 -8.5q26 -47 60.5 -77.5t81.5 -47.5z" />
    <glyph glyph-name="eyn.init" unicode="&#x639;" horiz-adv-x="615" arabic-form="initial" 
d="M16 0h-16q-9 0 -15 27t-6 67q0 41 6 68.5t15 27.5h46h47t36 1q-23 36 -34.5 77t-11.5 86q0 93 61 152.5t154 59.5q48 0 89 -12t86 -40l-38 -138q-32 10 -65.5 15.5t-62.5 5.5q-19 0 -35.5 -2.5t-29.5 -6.5q7 -61 37.5 -107.5t66.5 -46.5q26 0 88.5 15.5t134.5 39.5
l46 -177q-143 -60 -283 -86t-316 -26z" />
    <glyph glyph-name="eyn.medi" unicode="&#x639;" horiz-adv-x="681" arabic-form="medial" 
d="M15 0h-15q-9 0 -15 27t-6 67q0 41 6 68.5t15 27.5h11q45 0 88 1t85 4q-17 23 -33 49.5t-30 55.5q-18 -7 -34.5 -14t-32.5 -14l-55 157q92 42 189 66t176 24q126 0 189.5 -43t63.5 -129q0 -40 -17 -78.5t-50 -74.5q25 -2 55.5 -3t68.5 -1h7v-190h-8q-106 0 -186.5 15.5
t-144.5 47.5q-77 -30 -161.5 -46.5t-165.5 -16.5zM456 303q0 26 -26 40.5t-73 14.5q-25 0 -48 -2.5t-48 -8.5q24 -42 53.5 -70.5t68.5 -46.5q37 14 55 32t18 41z" />
    <glyph glyph-name="gheyn.isol" unicode="&#x63a;" horiz-adv-x="712" arabic-form="isolated" 
d="M272 418q7 -60 37 -105t65 -45q17 0 61.5 9t118.5 28l17 -156l-140 -33q-130 -31 -180.5 -57.5t-50.5 -70.5q0 -45 53.5 -68t159.5 -23q64 0 123 5.5t126 18.5l-9 -188q-50 -12 -110.5 -19t-116.5 -7q-177 0 -279 71.5t-102 195.5q0 66 35 118t107 93q-36 41 -55 92
t-19 107q0 93 61 152.5t154 59.5q48 0 89 -12t86 -40l-38 -138q-32 10 -65.5 15.5t-62.5 5.5q-19 0 -35.5 -2.5t-29.5 -6.5zM419 751l-83 -82l-83 82l83 83z" />
    <glyph glyph-name="gheyn.fina" unicode="&#x63a;" horiz-adv-x="681" arabic-form="final" 
d="M414 -293q-178 0 -279.5 63.5t-101.5 175.5q0 70 43 126t129 97q-23 27 -44 59t-40 72q-18 -7 -34.5 -14t-32.5 -14l-55 157q92 42 189 66t176 24q126 0 189.5 -43t63.5 -129q0 -41 -18 -79.5t-54 -73.5q26 -2 57.5 -3t71.5 -1h7v-190h-8q-123 0 -213 20.5t-158 64.5
q-55 -22 -80.5 -47t-25.5 -59q0 -41 51 -61.5t154 -20.5q64 0 123 5.5t126 18.5l-9 -188q-60 -14 -115 -20t-112 -6zM403 222q26 19 40 40t14 41q0 26 -26 40.5t-74 14.5q-25 0 -48 -2.5t-48 -8.5q26 -47 60.5 -77.5t81.5 -47.5zM479 674l-83 -82l-83 82l83 83z" />
    <glyph glyph-name="gheyn.init" unicode="&#x63a;" horiz-adv-x="615" arabic-form="initial" 
d="M16 0h-16q-9 0 -15 27t-6 67q0 41 6 68.5t15 27.5h46h47t36 1q-23 36 -34.5 77t-11.5 86q0 93 61 152.5t154 59.5q48 0 89 -12t86 -40l-38 -138q-32 10 -65.5 15.5t-62.5 5.5q-19 0 -35.5 -2.5t-29.5 -6.5q7 -61 37.5 -107.5t66.5 -46.5q26 0 88.5 15.5t134.5 39.5
l46 -177q-143 -60 -283 -86t-316 -26zM389 721l-83 -82l-83 82l83 83z" />
    <glyph glyph-name="gheyn.medi" unicode="&#x63a;" horiz-adv-x="681" arabic-form="medial" 
d="M15 0h-15q-9 0 -15 27t-6 67q0 41 6 68.5t15 27.5h11q45 0 88 1t85 4q-17 23 -33 49.5t-30 55.5q-18 -7 -34.5 -14t-32.5 -14l-55 157q92 42 189 66t176 24q126 0 189.5 -43t63.5 -129q0 -40 -17 -78.5t-50 -74.5q25 -2 55.5 -3t68.5 -1h7v-190h-8q-106 0 -186.5 15.5
t-144.5 47.5q-77 -30 -161.5 -46.5t-165.5 -16.5zM456 303q0 26 -26 40.5t-73 14.5q-25 0 -48 -2.5t-48 -8.5q24 -42 53.5 -70.5t68.5 -46.5q37 14 55 32t18 41zM479 674l-83 -82l-83 82l83 83z" />
    <glyph glyph-name="feh.isol" unicode="&#x641;" horiz-adv-x="875" arabic-form="isolated" 
d="M656 787l-83 -82l-83 82l83 83zM760 543q34 -46 52 -100.5t18 -110.5q0 -177 -104.5 -259.5t-326.5 -82.5q-178 0 -273.5 68.5t-95.5 193.5q0 45 16.5 90.5t47.5 87.5l110 -55q-11 -29 -15 -46.5t-4 -34.5q0 -61 54.5 -87.5t177.5 -26.5q118 0 182.5 21.5t84.5 66.5
q-29 -10 -63.5 -15t-73.5 -5q-90 0 -137 41t-47 119q0 97 62.5 172t147.5 75q49 0 99 -30t88 -82zM563 484q-24 0 -38.5 -15t-14.5 -39q0 -22 15.5 -31t51.5 -9q25 0 51 2.5t51 6.5q-15 40 -46 62.5t-70 22.5z" />
    <glyph glyph-name="feh.fina" unicode="&#x641;" horiz-adv-x="947" arabic-form="final" 
d="M750 657l-83 -82l-83 82l83 83zM185 296q0 -63 48 -89.5t164 -26.5q27 0 52 1t47 2q-26 34 -39.5 69t-13.5 71q0 83 61.5 135t163.5 52t163.5 -52t61.5 -135q0 -32 -13 -65t-38 -66q30 -1 51 -1.5t40 -0.5h14v-190h-9q-72 0 -141.5 14.5t-129.5 42.5q-67 -33 -143 -50
t-154 -17q-167 0 -253.5 67t-86.5 196q0 44 17 91.5t47 85.5l110 -55q-11 -28 -15 -45t-4 -34zM668 343q-37 0 -56 -12t-19 -35q0 -24 20.5 -43.5t60.5 -33.5q34 15 51.5 34.5t17.5 42.5t-19 35t-56 12z" />
    <glyph glyph-name="feh.init" unicode="&#x641;" horiz-adv-x="558" arabic-form="initial" 
d="M115 0h-115q-9 0 -15 27t-6 67q0 41 6 68.5t15 27.5h115q119 0 180.5 19t75.5 60q-31 -10 -67 -15.5t-74 -5.5q-90 0 -137 41t-47 119q0 97 62.5 172t147.5 75q51 0 101 -30.5t88 -83.5q33 -46 50.5 -101.5t17.5 -114.5q0 -172 -94 -248.5t-304 -76.5zM242 484
q-22 0 -35.5 -15.5t-13.5 -38.5q0 -22 15.5 -31t51.5 -9q25 0 50.5 2.5t49.5 6.5q-17 41 -47.5 63t-70.5 22zM339 804l-83 -82l-83 82l83 83z" />
    <glyph glyph-name="feh.medi" unicode="&#x641;" horiz-adv-x="573" arabic-form="medial" 
d="M7 0h-7q-9 0 -15 27t-6 67q0 41 6 68.5t15 27.5h16q26 0 49.5 1t45.5 2q-21 31 -31.5 63.5t-10.5 66.5q0 83 61.5 135t163.5 52t163.5 -52t61.5 -135q0 -32 -13.5 -65.5t-39.5 -64.5q21 -1 44.5 -2t48.5 -1h14v-190h-8q-76 0 -148.5 15t-135.5 43q-63 -28 -133 -43
t-141 -15zM294 343q-37 0 -56 -12t-19 -35t18 -41.5t54 -31.5q39 14 58.5 32.5t19.5 40.5q0 23 -19 35t-56 12zM377 657l-83 -82l-83 82l83 83z" />
    <glyph glyph-name="ghaf.isol" unicode="&#x642;" horiz-adv-x="785" arabic-form="isolated" 
d="M487 537l-73 -72l-83 82l83 83l73 -73l73 73l83 -83l-83 -82zM678 296q30 -48 46 -108t16 -125q0 -168 -102.5 -262t-289.5 -94q-147 0 -232.5 71.5t-85.5 190.5q0 52 17 104.5t47 94.5l110 -55q-10 -24 -14.5 -46.5t-4.5 -43.5q0 -61 47.5 -93.5t139.5 -32.5
q97 0 152 30t69 90q-29 -15 -63 -22t-73 -7q-88 0 -136 49.5t-48 140.5q0 97 62.5 172t147.5 75q54 0 106 -34t89 -95zM475 258q-23 0 -39 -17t-16 -41q0 -22 15.5 -31t51.5 -9q23 0 48 2t51 6q-15 44 -43 67t-68 23z" />
    <glyph glyph-name="ghaf.fina" unicode="&#x642;" horiz-adv-x="812" arabic-form="final" 
d="M487 567l-73 -72l-83 82l83 83l73 -73l73 73l83 -83l-83 -82zM812 190v-190h-76q-19 -140 -119.5 -216.5t-268.5 -76.5q-147 0 -232.5 71.5t-85.5 190.5q0 52 17 104.5t47 94.5l110 -55q-10 -24 -14.5 -46.5t-4.5 -43.5q0 -61 47.5 -93.5t139.5 -32.5q90 0 143 25.5
t73 77.5h-111q-91 0 -147.5 53.5t-56.5 142.5q0 106 61 182.5t149 76.5q79 0 148 -74t95 -191h86zM420 230q0 -21 15.5 -30.5t51.5 -9.5h97q-15 48 -43.5 73t-68.5 25q-23 0 -37.5 -16.5t-14.5 -41.5z" />
    <glyph glyph-name="ghaf.init" unicode="&#x642;" horiz-adv-x="585" arabic-form="initial" 
d="M115 0h-115q-9 0 -15 27t-6 67q0 41 6 68.5t15 27.5h115q119 0 180.5 19t75.5 60q-31 -10 -67 -15.5t-74 -5.5q-90 0 -137 41t-47 119q0 97 62.5 172t147.5 75q51 0 101 -30.5t88 -83.5q33 -46 50.5 -101.5t17.5 -114.5q0 -172 -94 -248.5t-304 -76.5zM242 484
q-22 0 -35.5 -15.5t-13.5 -38.5q0 -22 15.5 -31t51.5 -9q25 0 50.5 2.5t49.5 6.5q-17 41 -47.5 63t-70.5 22zM256 794l-73 -72l-83 82l83 83l73 -73l73 73l83 -83l-83 -82z" />
    <glyph glyph-name="ghaf.medi" unicode="&#x642;" horiz-adv-x="573" arabic-form="medial" 
d="M7 0h-7q-9 0 -15 27t-6 67q0 41 6 68.5t15 27.5h16q26 0 49.5 1t45.5 2q-21 31 -31.5 63.5t-10.5 66.5q0 83 61.5 135t163.5 52t163.5 -52t61.5 -135q0 -32 -13.5 -65.5t-39.5 -64.5q21 -1 44.5 -2t48.5 -1h14v-190h-8q-76 0 -148.5 15t-135.5 43q-63 -28 -133 -43
t-141 -15zM294 343q-37 0 -56 -12t-19 -35t18 -41.5t54 -31.5q39 14 58.5 32.5t19.5 40.5q0 23 -19 35t-56 12zM294 647l-73 -72l-83 82l83 83l73 -73l73 73l83 -83l-83 -82z" />
    <glyph glyph-name="kafArabic.isol" unicode="&#x643;" horiz-adv-x="830" arabic-form="isolated" 
d="M738 62q-75 -33 -177.5 -52.5t-201.5 -19.5q-163 0 -246 59t-83 175q0 47 16.5 95t47.5 91l110 -55q-11 -28 -15 -45t-4 -34q0 -53 50.5 -74.5t171.5 -21.5q49 0 101 4.5t90 11.5q6 27 9 63t3 81v365h155v-365q0 -71 -7.5 -146t-19.5 -132zM544 348q0 -42 -34 -62.5
t-103 -20.5q-34 0 -61 2t-45 6l10 84q24 -5 48.5 -8t45.5 -3q18 0 33.5 1.5t26.5 4.5q-8 6 -23 15t-40 23q-42 23 -59 43t-17 46q0 43 41.5 74t131.5 58l20 -88q-39 -9 -67 -19t-45 -20l61 -37q41 -25 58.5 -47.5t17.5 -51.5z" />
    <glyph glyph-name="kafArabic.fina" unicode="&#x643;" horiz-adv-x="846" arabic-form="final" 
d="M833 190h13v-190h-33q-44 0 -78 10t-58 29q-70 -23 -154 -36t-164 -13q-163 0 -246 59t-83 175q0 47 16.5 95t47.5 91l110 -55q-11 -28 -15 -45t-4 -34q0 -53 50.5 -74.5t171.5 -21.5q49 0 104 5t100 13q-1 6 -1 13v21v473h155v-450q0 -37 15 -51t53 -14zM544 348
q0 -42 -34 -62.5t-103 -20.5q-34 0 -61 2t-45 6l10 84q24 -5 48.5 -8t45.5 -3q18 0 33.5 1.5t26.5 4.5q-8 6 -23 15t-40 23q-42 23 -59 43t-17 46q0 43 41.5 74t131.5 58l20 -88q-39 -9 -67 -19t-45 -20l61 -37q41 -25 58.5 -47.5t17.5 -51.5z" />
    <glyph glyph-name="kafArabic.init" unicode="&#x643;" horiz-adv-x="483" arabic-form="initial" 
d="M404 190q0 -96 -100 -143t-304 -47q-9 0 -15 27t-6 67q0 41 6 68.5t15 27.5q106 0 161 3.5t72 11.5q-6 17 -27 48t-60 80l-46 58q-33 42 -46.5 67.5t-13.5 47.5q0 29 15 52.5t46 42.5q63 38 161.5 69.5t197.5 44.5l33 -153q-76 -15 -139.5 -33t-122.5 -41
q95 -109 134 -174t39 -124z" />
    <glyph glyph-name="kafArabic.medi" unicode="&#x643;" horiz-adv-x="632" arabic-form="medial" 
d="M337 101q-51 -48 -139 -74.5t-198 -26.5q-9 0 -15 27t-6 67q0 41 6 68.5t15 27.5q79 0 138 6.5t100 19.5l-145 175q-33 39 -46.5 65t-13.5 50q0 29 15 52.5t46 42.5q63 38 160.5 69.5t195.5 44.5l33 -153q-87 -16 -150.5 -33.5t-118.5 -39.5l116 -140q76 -92 136 -125.5
t157 -33.5h9v-190h-20q-86 0 -153 24.5t-122 76.5z" />
    <glyph glyph-name="lam.isol" unicode="&#x644;" horiz-adv-x="705" arabic-form="isolated" 
d="M473 -3q6 29 9 70t3 104v534h155v-528q0 -90 -6.5 -162t-18.5 -121q-44 -44 -127.5 -73t-164.5 -29q-128 0 -203 64.5t-75 176.5q0 48 16 99t49 107l119 -53q-14 -31 -20 -55t-6 -46q0 -53 33.5 -79t101.5 -26q39 0 72.5 4.5t62.5 12.5z" />
    <glyph glyph-name="lam.fina" unicode="&#x644;" horiz-adv-x="748" arabic-form="final" 
d="M473 -3q6 29 9 69.5t3 103.5v535h155v-409q0 -54 23 -80t72 -26h13v-190h-10q-30 0 -56.5 7t-47.5 20q-3 -38 -7.5 -72t-11.5 -61q-44 -44 -127.5 -73t-164.5 -29q-128 0 -203 64.5t-75 176.5q0 48 16 99t49 107l119 -53q-14 -31 -20 -55t-6 -46q0 -53 33.5 -79
t101.5 -26q39 0 72.5 4.5t62.5 12.5z" />
    <glyph glyph-name="lam.init" unicode="&#x644;" horiz-adv-x="333" arabic-form="initial" 
d="M11 0h-11q-9 0 -15 27t-6 67q0 41 6 68.5t15 27.5h11q48 0 75 29t27 83v403h155v-410q0 -152 -62 -223.5t-195 -71.5z" />
    <glyph glyph-name="lam.medi" unicode="&#x644;" horiz-adv-x="376" arabic-form="medial" 
d="M4 0h-4q-9 0 -15 27t-6 67q0 41 6 68.5t15 27.5h15q25 0 46.5 5.5t51.5 23.5v486h155v-409q0 -54 23 -80t72 -26h13v-190h-10q-57 0 -98.5 24t-60.5 67q-27 -43 -81.5 -67t-121.5 -24z" />
    <glyph glyph-name="mim.isol" unicode="&#x645;" horiz-adv-x="784" arabic-form="isolated" 
d="M190 9q0 -48 14 -117.5t35 -130.5l-160 -45q-22 69 -35.5 147t-13.5 135q0 113 58.5 185t164.5 90q40 116 96 172.5t131 56.5q66 0 127 -43.5t97 -117.5q30 -60 37.5 -132.5t-7.5 -151.5q-40 -31 -96 -49t-113 -18q-74 0 -148 27.5t-132 75.5q-28 -5 -41.5 -25.5
t-13.5 -58.5zM586 196q0 43 -32.5 82t-70.5 39q-29 0 -52 -21.5t-50 -75.5q39 -26 75.5 -38.5t71.5 -12.5q31 0 44.5 6.5t13.5 20.5z" />
    <glyph glyph-name="mim.fina" unicode="&#x645;" horiz-adv-x="830" arabic-form="final" 
d="M190 9q0 -48 14 -117.5t35 -130.5l-160 -45q-22 69 -35.5 147t-13.5 135q0 113 58.5 185t164.5 90q40 116 97 172.5t134 56.5q64 0 113 -42.5t112 -158.5q34 -62 58 -86.5t57 -24.5h6v-190h-7q-34 0 -64 12.5t-67 42.5q-22 -32 -64.5 -48.5t-101.5 -16.5q-73 0 -146.5 27
t-134.5 76q-28 -5 -41.5 -25.5t-13.5 -58.5zM586 196q0 43 -32.5 82t-70.5 39q-28 0 -50.5 -21t-51.5 -76q41 -26 77 -38.5t70 -12.5q31 0 44.5 6.5t13.5 20.5z" />
    <glyph glyph-name="mim.init" unicode="&#x645;" horiz-adv-x="699" arabic-form="initial" 
d="M7 0h-7q-9 0 -15 27t-6 67q0 41 6 68.5t15 27.5h7q64 0 102 25.5t69 82.5q33 59 50.5 87t32.5 48q29 37 60.5 53t73.5 16q66 0 127 -43.5t97 -117.5q30 -60 37.5 -132.5t-7.5 -151.5q-40 -31 -96 -49t-113 -18q-63 0 -127 20.5t-119 57.5q-39 -33 -87 -50.5t-100 -17.5z
M501 198q0 42 -32.5 80.5t-70.5 38.5q-28 0 -51 -21.5t-54 -80.5q37 -23 75 -34.5t75 -11.5q31 0 44.5 6.5t13.5 22.5z" />
    <glyph glyph-name="mim.medi" unicode="&#x645;" horiz-adv-x="743" arabic-form="medial" 
d="M7 0h-7q-9 0 -15 27t-6 67q0 41 6 68.5t15 27.5h7q57 0 92.5 25t80.5 92q43 66 59 88t29 38q31 37 61.5 53t67.5 16q62 0 110 -40.5t112 -154.5q39 -68 62.5 -92.5t55.5 -24.5h6v-190h-7q-34 0 -64 12.5t-67 42.5q-22 -32 -64.5 -48.5t-101.5 -16.5q-67 0 -134 22
t-124 62q-40 -36 -85 -55t-89 -19zM499 197q0 42 -31.5 81t-67.5 39q-27 0 -47.5 -19.5t-59.5 -77.5q40 -26 78 -38.5t76 -12.5q27 0 39.5 6.5t12.5 21.5z" />
    <glyph glyph-name="noon.isol" unicode="&#x646;" horiz-adv-x="766" arabic-form="isolated" 
d="M475 399l162 48q50 -120 59.5 -294.5t-35.5 -271.5q-56 -45 -132 -68t-171 -23q-145 0 -228 76t-83 211q0 62 22 127.5t61 118.5l116 -57q-20 -38 -31 -76.5t-11 -71.5q0 -71 41 -104.5t129 -33.5q51 0 97.5 9.5t79.5 25.5q0 81 -20.5 183t-55.5 201zM457 587l-83 -82
l-83 82l83 83z" />
    <glyph glyph-name="noon.fina" unicode="&#x646;" horiz-adv-x="836" arabic-form="final" 
d="M694 48q2 -68 -6.5 -126t-26.5 -101q-56 -45 -132 -68t-171 -23q-145 0 -228 76t-83 211q0 62 22 127.5t61 118.5l116 -57q-20 -38 -31 -76.5t-11 -71.5q0 -71 41 -104.5t129 -33.5q51 0 97.5 9.5t79.5 25.5q0 83 -22.5 190.5t-61.5 217.5l162 48q4 -12 8.5 -26.5
t12.5 -44.5q4 -15 6 -22t4 -13q20 -67 57 -91t111 -24h8v-190h-8q-51 0 -81.5 11t-52.5 37zM456 547l-83 -82l-83 82l83 83z" />
    <glyph glyph-name="noon.init" unicode="&#x646;" horiz-adv-x="375" arabic-form="initial" 
d="M6 0h-6q-9 0 -15 27t-6 67q0 41 6 68.5t15 27.5h7q54 0 92 5.5t64 16.5q-5 42 -17 86t-30 87l158 57q30 -86 35.5 -183t-14.5 -197q-53 -29 -129 -45.5t-160 -16.5zM256 607l-83 -82l-83 82l83 83z" />
    <glyph glyph-name="noon.medi" unicode="&#x646;" horiz-adv-x="426" arabic-form="medial" 
d="M4 0h-4q-9 0 -15 27t-6 67q0 41 6 68.5t15 27.5h15q41 0 71.5 7t56.5 22v148h155v-71q0 -54 28 -80t87 -26h13v-190h-10q-65 0 -112 25t-67 70q-30 -44 -92.5 -69.5t-140.5 -25.5zM296 547l-83 -82l-83 82l83 83z" />
    <glyph glyph-name="heh.isol" unicode="&#x647;" horiz-adv-x="545" arabic-form="isolated" 
d="M45 200q0 92 54.5 173t159.5 145q120 -40 180.5 -115t60.5 -182q0 -102 -65 -166.5t-168 -64.5q-101 0 -161.5 57.5t-60.5 152.5zM264 329q-31 -23 -48 -48.5t-17 -48.5q0 -24 19 -38t53 -14t54.5 15.5t20.5 40.5q0 26 -20.5 49t-61.5 44z" />
    <glyph glyph-name="heh.fina" unicode="&#x647;" horiz-adv-x="545" arabic-form="final" 
d="M333 94q-24 -16 -51 -23.5t-57 -7.5q-88 0 -144 52.5t-56 136.5q0 96 72 169t212 118v51h155v-335q0 -37 15 -51t53 -14h13v-190h-33q-68 0 -112.5 23t-66.5 71zM169 275q0 -26 21 -38t64 -12q10 0 22.5 1t32.5 4v137q-71 -14 -105.5 -36t-34.5 -56z" />
    <glyph glyph-name="heh.init" unicode="&#x647;" horiz-adv-x="752" arabic-form="initial" 
d="M52 0h-52q-9 0 -15 27t-6 67q0 41 6 68.5t15 27.5h22q20 0 38.5 1t35.5 2q-21 31 -31.5 64.5t-10.5 69.5q0 88 55.5 143t146.5 55q17 0 33 -2.5t30 -7.5l45 83q169 -88 256 -189.5t87 -208.5q0 -90 -43.5 -155t-104.5 -65q-70 0 -146 18t-144 51q-50 -24 -105.5 -36.5
t-111.5 -12.5zM271 377q-36 0 -54 -13.5t-18 -41.5q0 -22 16 -46t47 -47q41 18 63.5 41.5t22.5 49.5q0 27 -20.5 42t-56.5 15zM502 148q27 0 40.5 14t13.5 41t-22.5 59.5t-68.5 71.5q1 -8 2 -17.5t1 -18.5q0 -35 -14 -70.5t-40 -68.5q23 -6 45 -8.5t43 -2.5z" />
    <glyph glyph-name="heh.medi" unicode="&#x647;" horiz-adv-x="661" arabic-form="medial" 
d="M102 0h-102q-9 0 -15 27t-6 67q0 41 6 68.5t15 27.5h107q13 61 37 125.5t53 118.5q27 50 54 73t59 23q25 0 47 -11.5t44 -35.5q59 -63 89 -123t30 -114q0 -14 -3 -27.5t-10 -28.5h154v-190h-84q10 -19 14.5 -38.5t4.5 -43.5q0 -94 -58 -156t-147 -62q-107 0 -187 82.5
t-102 217.5zM388 236q0 25 -20 51t-64 61q-17 -39 -30 -82.5t-19 -83.5h44q44 0 66.5 13.5t22.5 40.5zM466 -56q0 30 -26.5 47t-75.5 17h-104q13 -67 46.5 -99t90.5 -32q31 0 50 18.5t19 48.5z" />
    <glyph glyph-name="vav.isol" unicode="&#x648;" horiz-adv-x="615" arabic-form="isolated" 
d="M488 353q27 -52 41 -116t14 -135q0 -75 -24 -144t-70 -124q-49 -60 -115 -93.5t-135 -33.5q-49 0 -91 8.5t-78 25.5l36 140q16 -4 36.5 -6.5t36.5 -2.5q72 0 135 37t112 107q-26 -13 -52.5 -19.5t-53.5 -6.5q-100 0 -157 61t-57 169q0 110 67 196t158 86
q56 0 108.5 -39.5t88.5 -109.5zM285 315q-32 0 -52 -21t-20 -53q0 -35 17.5 -49.5t59.5 -14.5q27 0 53.5 2.5t51.5 7.5q-13 64 -40 96t-70 32z" />
    <glyph glyph-name="vav.fina" unicode="&#x648;" horiz-adv-x="655" arabic-form="final" 
d="M655 190v-190h-123q-30 -129 -123.5 -211t-209.5 -82q-50 0 -91.5 8.5t-77.5 25.5l36 140q22 -5 39.5 -7t33.5 -2q67 0 127.5 32.5t108.5 95.5h-85q-104 0 -164 59t-60 161q0 110 67 196t158 86q87 0 157.5 -87.5t88.5 -224.5h118zM213 241q0 -28 17.5 -39.5t59.5 -11.5
h104q-13 62 -40 93.5t-69 31.5q-32 0 -52 -21t-20 -53z" />
    <glyph glyph-name="alefMaghsureh.isol" unicode="&#x649;" horiz-adv-x="795" arabic-form="isolated" 
d="M380 -210q-139 0 -219.5 74.5t-80.5 199.5q0 47 16.5 95t47.5 91l110 -55q-10 -24 -14.5 -47t-4.5 -44q0 -60 37 -92t108 -32q62 0 129.5 18t88.5 40q-4 13 -19.5 24.5t-61.5 32.5q-51 24 -76 40t-43 34q-24 26 -36.5 57.5t-12.5 70.5q0 92 63 155t163 63
q64 0 119.5 -34.5t82.5 -87.5l-92 -94q-39 38 -68 53t-61 15q-27 0 -42.5 -12.5t-15.5 -32.5t19 -37.5t83 -47.5q100 -47 133.5 -86.5t33.5 -91.5q0 -54 -38 -108t-104 -94q-53 -32 -116.5 -49.5t-128.5 -17.5z" />
    <glyph glyph-name="alefMaghsureh.fina" unicode="&#x649;" horiz-adv-x="830" arabic-form="final" 
d="M481 0h-11l24 190h336v-190h-94q2 -9 2.5 -18t0.5 -19q0 -107 -108.5 -181.5t-270.5 -74.5q-138 0 -219 83t-81 221q0 80 29 161.5t87 164.5l110 -55q-38 -74 -54.5 -127.5t-16.5 -102.5q0 -76 40 -115.5t117 -39.5q80 0 140.5 21.5t94.5 60.5q-17 9 -53 15t-73 6z" />
    <glyph glyph-name="yehArabic.isol" unicode="&#x64a;" horiz-adv-x="795" arabic-form="isolated" 
d="M380 -210q-139 0 -219.5 74.5t-80.5 199.5q0 47 16.5 95t47.5 91l110 -55q-10 -24 -14.5 -47t-4.5 -44q0 -60 37 -92t108 -32q62 0 129.5 18t88.5 40q-4 13 -19.5 24.5t-61.5 32.5q-51 24 -76 40t-43 34q-24 26 -36.5 57.5t-12.5 70.5q0 92 63 155t163 63
q64 0 119.5 -34.5t82.5 -87.5l-92 -94q-39 38 -68 53t-61 15q-27 0 -42.5 -12.5t-15.5 -32.5t19 -37.5t83 -47.5q100 -47 133.5 -86.5t33.5 -91.5q0 -54 -38 -108t-104 -94q-53 -32 -116.5 -49.5t-128.5 -17.5zM380 -369l-73 -72l-83 82l83 83l73 -73l73 73l83 -83l-83 -82z
" />
    <glyph glyph-name="yehArabic.fina" unicode="&#x64a;" horiz-adv-x="830" arabic-form="final" 
d="M481 0h-11l24 190h336v-190h-94q2 -9 2.5 -18t0.5 -19q0 -107 -108.5 -181.5t-270.5 -74.5q-138 0 -219 83t-81 221q0 80 29 161.5t87 164.5l110 -55q-38 -74 -54.5 -127.5t-16.5 -102.5q0 -76 40 -115.5t117 -39.5q80 0 140.5 21.5t94.5 60.5q-17 9 -53 15t-73 6z
M375 -452l-73 -72l-83 82l83 83l73 -73l73 73l83 -83l-83 -82z" />
    <glyph glyph-name="yehArabic.init" unicode="&#x64a;" horiz-adv-x="375" arabic-form="initial" 
d="M6 0h-6q-9 0 -15 27t-6 67q0 41 6 68.5t15 27.5h7q54 0 92 5.5t64 16.5q-5 42 -17 86t-30 87l158 57q30 -86 35.5 -183t-14.5 -197q-53 -29 -129 -45.5t-160 -16.5zM223 -169l-73 -72l-83 82l83 83l73 -73l73 73l83 -83l-83 -82z" />
    <glyph glyph-name="yehArabic.medi" unicode="&#x64a;" horiz-adv-x="426" arabic-form="medial" 
d="M4 0h-4q-9 0 -15 27t-6 67q0 41 6 68.5t15 27.5h15q41 0 71.5 7t56.5 22v148h155v-71q0 -54 28 -80t87 -26h13v-190h-10q-65 0 -112 25t-67 70q-30 -44 -92.5 -69.5t-140.5 -25.5zM213 -169l-73 -72l-83 82l83 83l73 -73l73 73l83 -83l-83 -82z" />
    <glyph glyph-name=".notdef" horiz-adv-x="682" 
d="M587 0h-492v685h492v-685zM147 638v-591h388v591h-388z" />
    <glyph glyph-name=".null" 
 />
    <glyph glyph-name=".null" 
 />
    <glyph glyph-name="nonmarkingreturn" horiz-adv-x="333" 
 />
    <glyph glyph-name="CR" unicode="&#xd;" 
 />
    <glyph glyph-name="space" unicode=" " horiz-adv-x="155" 
 />
    <glyph glyph-name="exclam" unicode="!" horiz-adv-x="340" 
d="M80 685h180l-12 -445h-156zM272 92q0 -42 -30 -72t-72 -30t-72 30t-30 72t30 72t72 30t72 -30t30 -72z" />
    <glyph glyph-name="quotedbl" unicode="&#x22;" horiz-adv-x="459" 
d="M199 685l-9 -270h-141l-9 270h159zM419 685l-9 -270h-141l-9 270h159z" />
    <glyph glyph-name="numbersign" unicode="#" horiz-adv-x="790" 
d="M510 0h-163l42 145h-104l-42 -145h-163l42 145h-92v134h131l38 127h-109v134h148l42 145h163l-42 -145h104l42 145h163l-42 -145h92v-134h-131l-38 -127h109v-134h-148zM362 406l-38 -127h104l38 127h-104z" />
    <glyph glyph-name="dollar" unicode="$" horiz-adv-x="569" 
d="M342 413q111 -37 156 -83.5t45 -123.5q0 -67 -42 -120.5t-112 -78.5v-117h-180v108q-53 10 -101.5 35t-86.5 61l95 119q38 -35 80.5 -52t91.5 -17q37 0 57.5 14.5t20.5 39.5q0 20 -25 35t-101 41q-111 37 -156 84.5t-45 127.5q0 69 43.5 122.5t116.5 74.5v112h180v-115
q40 -12 75 -32.5t64 -48.5l-101 -119q-34 31 -66.5 46t-67.5 15q-31 0 -49 -12.5t-18 -34.5t26.5 -39t99.5 -42z" />
    <glyph glyph-name="percent" unicode="%" horiz-adv-x="886" 
d="M15 517q0 77 52 127.5t131 50.5t131 -50.5t52 -127.5t-52 -127t-131 -50t-131 50t-52 127zM141 0l461 685h143l-461 -685h-143zM255 517q0 29 -15.5 45.5t-41.5 16.5t-41.5 -16.5t-15.5 -45.5q0 -26 16 -43.5t41 -17.5q24 0 40.5 17.5t16.5 43.5zM871 167q0 -77 -52 -127
t-131 -50t-131 50t-52 127t52 127.5t131 50.5t131 -50.5t52 -127.5zM631 167q0 -26 16 -43.5t41 -17.5q24 0 40.5 17.5t16.5 43.5q0 29 -15.5 45.5t-41.5 16.5t-41.5 -16.5t-15.5 -45.5z" />
    <glyph glyph-name="ampersand" unicode="&#x26;" horiz-adv-x="668" 
d="M237 480q0 -28 20.5 -44.5t54.5 -16.5h330v-150h-80v-50q0 -104 -71.5 -166.5t-188.5 -62.5q-113 0 -186.5 59t-73.5 150q0 49 27 88t78 64q-41 25 -63 61t-22 78q0 89 67 147t170 58q65 0 125.5 -31.5t103.5 -87.5l-101 -101q-29 32 -59.5 49t-58.5 17q-32 0 -52 -16.5
t-20 -44.5zM217 209q0 -26 24 -43t61 -17q41 0 63 20.5t22 59.5v40h-70q-47 0 -73.5 -16t-26.5 -44z" />
    <glyph glyph-name="quotesingle" unicode="'" horiz-adv-x="239" 
d="M199 685l-9 -270h-141l-9 270h159z" />
    <glyph glyph-name="parenleft" unicode="(" horiz-adv-x="487" 
d="M245 255q0 -114 57.5 -212.5t154.5 -149.5l-80 -139q-150 79 -233.5 210.5t-83.5 290.5t83.5 290.5t233.5 210.5l80 -139q-97 -51 -154.5 -149.5t-57.5 -212.5z" />
    <glyph glyph-name="parenright" unicode=")" horiz-adv-x="487" 
d="M242 255q0 114 -57.5 212.5t-154.5 149.5l80 139q150 -79 233.5 -210.5t83.5 -290.5t-83.5 -290.5t-233.5 -210.5l-80 139q97 51 154.5 149.5t57.5 212.5z" />
    <glyph glyph-name="asterisk" unicode="*" horiz-adv-x="503" 
d="M446 480l-117 -84l-75 120l-77 -122l-116 84l85 101l-126 32l44 137l124 -50l-10 133h144l-9 -130l126 51l44 -137l-124 -31z" />
    <glyph glyph-name="plus" unicode="+" horiz-adv-x="500" 
d="M480 407v-139h-150v-173h-160v173h-150v139h150v173h160v-173h150z" />
    <glyph glyph-name="comma" unicode="," horiz-adv-x="304" 
d="M152 194q42 0 72 -30.5t30 -73.5q0 -21 -5.5 -46t-19.5 -66l-44 -128h-119l32 156q-22 14 -35 37.5t-13 48.5q0 42 30 72t72 30z" />
    <glyph glyph-name="hyphen" unicode="-" horiz-adv-x="340" 
d="M300 206h-260v159h260v-159z" />
    <glyph glyph-name="period" unicode="." horiz-adv-x="304" 
d="M254 92q0 -42 -30 -72t-72 -30t-72 30t-30 72t30 72t72 30t72 -30t30 -72z" />
    <glyph glyph-name="slash" unicode="/" horiz-adv-x="488" 
d="M468 685l-279 -685h-169l279 685h169z" />
    <glyph glyph-name="zero" unicode="0" horiz-adv-x="642" 
d="M44 343q0 157 76.5 254.5t200.5 97.5t200.5 -97.5t76.5 -254.5q0 -158 -76.5 -255.5t-200.5 -97.5t-200.5 97.5t-76.5 255.5zM413 343q0 88 -24.5 138t-67.5 50t-67.5 -50t-24.5 -138q0 -89 24.5 -139t67.5 -50t67.5 50t24.5 139z" />
    <glyph glyph-name="one" unicode="1" horiz-adv-x="414" 
d="M154 526h-124v159h304v-685h-180v526z" />
    <glyph glyph-name="two" unicode="2" horiz-adv-x="552" 
d="M268 149h241v-149h-471v129l226 250q29 32 42 56t13 45q0 28 -17 44.5t-45 16.5t-60 -18.5t-63 -52.5l-106 106q45 57 107 88t132 31q98 0 162.5 -58t64.5 -147q0 -49 -18.5 -91.5t-57.5 -85.5z" />
    <glyph glyph-name="three" unicode="3" horiz-adv-x="564" 
d="M351 209q0 28 -26.5 44t-73.5 16h-60v150h55q34 0 54.5 16.5t20.5 44.5t-20 44.5t-52 16.5q-28 0 -58.5 -17t-59.5 -49l-101 101q43 56 103.5 87.5t125.5 31.5q103 0 170 -58t67 -147q0 -41 -20.5 -76t-60.5 -61q54 -24 82.5 -63.5t28.5 -90.5q0 -91 -72 -150t-183 -59
q-70 0 -135.5 26t-115.5 73l90 128q44 -35 83.5 -51.5t77.5 -16.5q35 0 57.5 17t22.5 43z" />
    <glyph glyph-name="four" unicode="4" horiz-adv-x="610" 
d="M329 685h160v-395h95v-149h-95v-141h-160v141h-303v129zM200 290h129v173z" />
    <glyph glyph-name="five" unicode="5" horiz-adv-x="564" 
d="M285 446q106 0 175.5 -63t69.5 -160q0 -101 -72.5 -167t-182.5 -66q-69 0 -133 25.5t-113 71.5l90 128q41 -34 79 -50t77 -16q35 0 57.5 21t22.5 53t-25.5 53t-64.5 21q-19 0 -38 -5t-40 -15l-123 81l30 327h376v-149h-235l-8 -95q12 3 25.5 4t32.5 1z" />
    <glyph glyph-name="six" unicode="6" horiz-adv-x="588" 
d="M559 228q0 -103 -75 -170.5t-190 -67.5q-112 0 -186 70.5t-74 177.5q0 65 27 131.5t88 150.5l119 165h189l-163 -229q114 0 189.5 -65t75.5 -163zM204 228q0 -39 25.5 -64t64.5 -25t64.5 25.5t25.5 63.5q0 39 -25.5 64t-64.5 25t-64.5 -25t-25.5 -64z" />
    <glyph glyph-name="seven" unicode="7" horiz-adv-x="538" 
d="M511 685v-129l-228 -556h-190l220 536h-290v149h488z" />
    <glyph glyph-name="eight" unicode="8" horiz-adv-x="626" 
d="M485 354q44 -28 68.5 -68.5t24.5 -86.5q0 -89 -76.5 -149t-188.5 -60t-188.5 60t-76.5 149q0 46 24.5 86.5t68.5 68.5q-37 27 -56.5 62.5t-19.5 75.5q0 86 71 144.5t177 58.5t177 -58.5t71 -144.5q0 -40 -19.5 -75.5t-56.5 -62.5zM238 480q0 -28 20.5 -46t54.5 -18
t54.5 18t20.5 46q0 27 -21 44t-54 17t-54 -17t-21 -44zM223 211q0 -29 25.5 -48t64.5 -19t64.5 19t25.5 48q0 30 -25.5 49.5t-64.5 19.5t-64.5 -19.5t-25.5 -49.5z" />
    <glyph glyph-name="nine" unicode="9" horiz-adv-x="588" 
d="M554 447q0 -65 -27 -131.5t-88 -150.5l-119 -165h-189l163 229q-114 0 -189.5 65t-75.5 163q0 103 75 170.5t190 67.5q112 0 186 -70.5t74 -177.5zM384 457q0 39 -25.5 64t-64.5 25t-64.5 -25.5t-25.5 -63.5q0 -39 25.5 -64t64.5 -25t64.5 25t25.5 64z" />
    <glyph glyph-name="colon" unicode=":" horiz-adv-x="304" 
d="M254 92q0 -42 -30 -72t-72 -30t-72 30t-30 72t30 72t72 30t72 -30t30 -72zM254 392q0 -42 -30 -72t-72 -30t-72 30t-30 72t30 72t72 30t72 -30t30 -72z" />
    <glyph glyph-name="semicolon" unicode=";" horiz-adv-x="304" 
d="M254 392q0 -42 -30 -72t-72 -30t-72 30t-30 72t30 72t72 30t72 -30t30 -72zM152 194q42 0 72 -30.5t30 -73.5q0 -21 -5.5 -46t-19.5 -66l-44 -128h-119l32 156q-22 14 -35 37.5t-13 48.5q0 42 30 72t72 30z" />
    <glyph glyph-name="less" unicode="&#x3c;" horiz-adv-x="500" 
d="M242 337l229 -97l-61 -145l-390 172v140l390 172l61 -145z" />
    <glyph glyph-name="equal" unicode="=" horiz-adv-x="500" 
d="M480 502v-139h-460v139h460zM480 312v-139h-460v139h460z" />
    <glyph glyph-name="greater" unicode="&#x3e;" horiz-adv-x="500" 
d="M480 407v-140l-390 -172l-61 145l229 97l-229 97l61 145z" />
    <glyph glyph-name="question" unicode="?" horiz-adv-x="494" 
d="M235 695q97 0 160.5 -56t63.5 -141q0 -61 -35.5 -108.5t-97.5 -69.5v-80h-160v162l43 10q39 9 62 30t23 48q0 28 -19 44.5t-51 16.5q-29 0 -55 -14t-53 -44l-101 101q42 50 97.5 75.5t122.5 25.5zM348 92q0 -42 -30 -72t-72 -30t-72 30t-30 72t30 72t72 30t72 -30t30 -72
z" />
    <glyph glyph-name="at" unicode="@" horiz-adv-x="866" 
d="M624 -66l37 -95q-55 -25 -100 -34t-107 -9q-188 0 -306 110t-118 287q0 171 117 284.5t294 113.5q171 0 283 -106t112 -269q0 -102 -51 -164t-130 -62q-38 0 -68 14.5t-48 40.5q-23 -26 -53.5 -40.5t-65.5 -14.5q-87 0 -142.5 54.5t-55.5 140.5q0 88 56.5 147t141.5 59
q29 0 55 -10.5t47 -30.5l5 32h91v-225q0 -34 12 -51.5t35 -17.5q32 0 48 32.5t16 95.5q0 119 -82 198.5t-206 79.5q-128 0 -213.5 -86t-85.5 -215q0 -131 88.5 -215.5t223.5 -84.5q46 0 85.5 9.5t84.5 31.5zM424 269q-31 0 -50.5 -22.5t-19.5 -59.5q0 -33 20 -54.5t50 -21.5
q32 0 52 21.5t20 54.5q0 35 -20 58.5t-52 23.5z" />
    <glyph glyph-name="A" unicode="A" horiz-adv-x="729" 
d="M723 0h-187l-40 107h-273l-40 -107h-177l270 685h177zM360 472l-79 -211h157z" />
    <glyph glyph-name="B" unicode="B" horiz-adv-x="623" 
d="M323 0h-253v685h238q120 0 187.5 -48.5t67.5 -136.5q0 -45 -24.5 -82t-71.5 -63q61 -27 93.5 -67.5t32.5 -89.5q0 -91 -73.5 -144.5t-196.5 -53.5zM388 480q0 25 -20 39.5t-55 14.5h-68v-108h68q34 0 54.5 14.5t20.5 39.5zM418 213q0 29 -23.5 45.5t-66.5 16.5h-83v-124
h83q43 0 66.5 16.5t23.5 45.5z" />
    <glyph glyph-name="C" unicode="C" horiz-adv-x="665" 
d="M216 342q0 -80 50 -134t123 -54q42 0 77 17t74 56l111 -120q-58 -60 -122 -88.5t-140 -28.5q-153 0 -255.5 100.5t-102.5 251.5t102.5 252t255.5 101q72 0 135.5 -27.5t116.5 -80.5l-109 -120q-33 33 -67.5 48.5t-75.5 15.5q-74 0 -123.5 -54t-49.5 -135z" />
    <glyph glyph-name="D" unicode="D" horiz-adv-x="711" 
d="M287 0h-217v685h217q185 0 288.5 -90.5t103.5 -252.5q0 -161 -103.5 -251.5t-288.5 -90.5zM494 342q0 89 -51 134t-151 45h-42v-357h42q100 0 151 45t51 133z" />
    <glyph glyph-name="E" unicode="E" horiz-adv-x="563" 
d="M518 0h-448v685h448v-159h-268v-100h238v-159h-238v-108h268v-159z" />
    <glyph glyph-name="F" unicode="F" horiz-adv-x="552" 
d="M250 0h-180v685h448v-159h-268v-120h238v-159h-238v-247z" />
    <glyph glyph-name="G" unicode="G" horiz-adv-x="748" 
d="M723 342q0 -152 -94.5 -252t-238.5 -100q-154 0 -256.5 100.5t-102.5 251.5t102.5 252t255.5 101q72 0 135.5 -27.5t116.5 -80.5l-109 -120q-33 33 -67.5 48.5t-75.5 15.5q-74 0 -123.5 -54t-49.5 -135q0 -80 50 -134t124 -54q49 0 84.5 23t54.5 66h-159v149h351
q1 -8 1.5 -23.5t0.5 -26.5z" />
    <glyph glyph-name="H" unicode="H" horiz-adv-x="752" 
d="M682 0h-180v271h-252v-271h-180v685h180v-255h252v255h180v-685z" />
    <glyph glyph-name="I" unicode="I" horiz-adv-x="320" 
d="M250 0h-180v685h180v-685z" />
    <glyph glyph-name="J" unicode="J" horiz-adv-x="529" 
d="M217 -10q-60 0 -113 23.5t-99 70.5l109 120q24 -25 49 -37.5t52 -12.5q38 0 58 22.5t20 65.5v443h180v-445q0 -123 -65 -186.5t-191 -63.5z" />
    <glyph glyph-name="K" unicode="K" horiz-adv-x="690" 
d="M685 0h-207l-164 276q-15 -3 -31.5 -4.5t-32.5 -1.5v-270h-180v685h180v-256q39 1 61.5 15t45.5 52l112 189h194l-114 -187q-26 -43 -48 -74.5t-42 -55.5z" />
    <glyph glyph-name="L" unicode="L" horiz-adv-x="548" 
d="M250 159h278v-159h-458v685h180v-526z" />
    <glyph glyph-name="M" unicode="M" horiz-adv-x="940" 
d="M556 0h-176l-126 382l-55 -382h-175l113 685h176l157 -488l157 488h176l113 -685h-181l-55 378z" />
    <glyph glyph-name="N" unicode="N" horiz-adv-x="736" 
d="M666 0h-172l-254 399v-399h-170v685h172l254 -399v399h170v-685z" />
    <glyph glyph-name="O" unicode="O" horiz-adv-x="776" 
d="M31 343q0 150 102.5 251t254.5 101t254.5 -101t102.5 -251q0 -151 -102 -252t-255 -101t-255 101t-102 252zM560 343q0 80 -49.5 134t-122.5 54t-122.5 -54t-49.5 -134q0 -81 49 -135t123 -54t123 54t49 135z" />
    <glyph glyph-name="P" unicode="P" horiz-adv-x="598" 
d="M245 0h-175v685h231q124 0 198 -63t74 -170t-74 -170t-198 -63h-56v-219zM393 452q0 35 -24.5 54.5t-67.5 19.5h-56v-148h56q43 0 67.5 19.5t24.5 54.5z" />
    <glyph glyph-name="Q" unicode="Q" horiz-adv-x="776" 
d="M664 114l79 -93l-124 -107l-87 104q-34 -14 -70 -21t-74 -7q-153 0 -255 101t-102 252q0 150 102.5 251t254.5 101t254.5 -101t102.5 -251q0 -65 -20.5 -123.5t-60.5 -105.5zM388 531q-73 0 -122.5 -54t-49.5 -134q0 -81 49 -135t123 -54q5 0 10.5 0.5l16.5 1.5l-80 95
l124 104l84 -98q8 19 12.5 41t4.5 45q0 80 -49.5 134t-122.5 54z" />
    <glyph glyph-name="R" unicode="R" horiz-adv-x="632" 
d="M245 0h-175v685h242q119 0 192.5 -59t73.5 -156q0 -62 -28 -109t-81 -73l149 -288h-188l-119 239h-66v-239zM398 462q0 29 -22 46.5t-59 17.5h-72v-128h72q37 0 59 17.5t22 46.5z" />
    <glyph glyph-name="S" unicode="S" horiz-adv-x="569" 
d="M283 541q-31 0 -49 -12.5t-18 -34.5t26.5 -39t99.5 -42q111 -37 156 -83.5t45 -123.5q0 -91 -73.5 -153.5t-181.5 -62.5q-75 0 -145 27.5t-122 76.5l95 119q38 -35 80.5 -52t91.5 -17q37 0 57.5 14.5t20.5 39.5q0 20 -25 35t-101 41q-111 37 -156 84.5t-45 127.5
q0 89 69.5 149t172.5 60q65 0 127 -25t110 -71l-101 -119q-34 31 -66.5 46t-67.5 15z" />
    <glyph glyph-name="T" unicode="T" horiz-adv-x="606" 
d="M213 526h-193v159h566v-159h-193v-526h-180v526z" />
    <glyph glyph-name="U" unicode="U" horiz-adv-x="682" 
d="M341 -10q-131 0 -208 78t-77 212v405h180v-403q0 -60 28 -94t77 -34t77 34t28 94v403h180v-405q0 -134 -77 -212t-208 -78z" />
    <glyph glyph-name="V" unicode="V" horiz-adv-x="705" 
d="M520 685h177l-256 -685h-177l-256 685h187l163 -462z" />
    <glyph glyph-name="W" unicode="W" horiz-adv-x="1031" 
d="M799 0h-174l-109 310l-110 -310h-174l-224 685h190l133 -438l102 302l-51 136h273l-48 -134l104 -308l134 442h178z" />
    <glyph glyph-name="X" unicode="X" horiz-adv-x="717" 
d="M704 0h-204l-146 218l-147 -218h-194l245 363l-215 322h204l116 -174l117 174h194l-214 -319z" />
    <glyph glyph-name="Y" unicode="Y" horiz-adv-x="669" 
d="M473 685h190l-238 -412v-273h-180v273l-239 412h200l134 -235z" />
    <glyph glyph-name="Z" unicode="Z" horiz-adv-x="604" 
d="M255 159h314v-159h-534v139l305 387h-292v159h511v-139z" />
    <glyph glyph-name="bracketleft" unicode="[" horiz-adv-x="425" 
d="M260 -91h130v-159h-310v1002h310v-159h-130v-684z" />
    <glyph glyph-name="backslash" unicode="\" horiz-adv-x="488" 
d="M468 0h-169l-279 685h169z" />
    <glyph glyph-name="bracketright" unicode="]" horiz-adv-x="425" 
d="M35 -250v159h130v684h-130v159h310v-1002h-310z" />
    <glyph glyph-name="asciicircum" unicode="^" horiz-adv-x="500" 
d="M320 685l167 -360l-145 -61l-92 211l-92 -211l-145 61l167 360h140z" />
    <glyph glyph-name="underscore" unicode="_" horiz-adv-x="630" 
d="M620 -189h-610v139h610v-139z" />
    <glyph glyph-name="grave" unicode="`" horiz-adv-x="500" 
d="M189 762l200 -147l-57 -90l-217 111z" />
    <glyph glyph-name="a" unicode="a" horiz-adv-x="591" 
d="M536 0h-155l-18 57q-24 -33 -55.5 -50t-69.5 -17q-91 0 -151 70t-60 175t60 175t151 70q38 0 70 -17t55 -49l18 56h155v-470zM197 235q0 -39 24.5 -64.5t60.5 -25.5q37 0 61 25.5t24 64.5t-24 64.5t-61 25.5q-36 0 -60.5 -25.5t-24.5 -64.5z" />
    <glyph glyph-name="b" unicode="b" horiz-adv-x="591" 
d="M353 480q92 0 151.5 -69.5t59.5 -175.5t-59.5 -175.5t-151.5 -69.5q-38 0 -70.5 15t-56.5 45l-16 -50h-155v705h175v-280q23 27 54.5 41t68.5 14zM309 325q-37 0 -61 -25.5t-24 -64.5t24 -64.5t61 -25.5q36 0 60.5 25.5t24.5 64.5t-24.5 64.5t-60.5 25.5z" />
    <glyph glyph-name="c" unicode="c" horiz-adv-x="478" 
d="M198 235q0 -38 22.5 -62t57.5 -24q24 0 43.5 8.5t37.5 26.5l112 -112q-40 -42 -87.5 -62t-105.5 -20q-110 0 -182.5 69.5t-72.5 175.5t72.5 175.5t182.5 69.5q49 0 97 -20t86 -57l-112 -112q-15 15 -33 22.5t-38 7.5q-35 0 -57.5 -24t-22.5 -62z" />
    <glyph glyph-name="d" unicode="d" horiz-adv-x="591" 
d="M536 0h-155l-18 56q-24 -32 -55.5 -49t-69.5 -17q-92 0 -151.5 69.5t-59.5 175.5t59.5 175.5t151.5 69.5q37 0 68.5 -16t54.5 -47v288h175v-705zM197 235q0 -39 24.5 -64.5t60.5 -25.5q37 0 61 25.5t24 64.5t-24 64.5t-61 25.5q-36 0 -60.5 -25.5t-24.5 -64.5z" />
    <glyph glyph-name="e" unicode="e" horiz-adv-x="535" 
d="M388 168l95 -101q-37 -37 -87.5 -57t-106.5 -20q-117 0 -191.5 69t-74.5 176q0 105 71.5 175t178.5 70q104 0 173 -69t69 -173q0 -15 -1.5 -30t-3.5 -24h-328q12 -29 37.5 -44t63.5 -15q34 0 59 10.5t46 32.5zM268 349q-31 0 -53.5 -16t-33.5 -46h179q-10 30 -33 46
t-59 16z" />
    <glyph glyph-name="f" unicode="f" horiz-adv-x="411" 
d="M113 321h-99v144l85 5q-9 21 -13 42t-4 43q0 71 53 115.5t138 44.5q42 0 85.5 -13.5t83.5 -39.5l-70 -125q-16 10 -32.5 16t-30.5 6q-22 0 -37 -14t-15 -34q0 -12 2 -22t7 -19h135v-149h-113v-321h-175v321z" />
    <glyph glyph-name="g" unicode="g" horiz-adv-x="584" 
d="M554 20q0 -103 -78.5 -166.5t-205.5 -63.5q-74 0 -142 19.5t-118 54.5l76 131q43 -28 87.5 -42t86.5 -14q56 0 90 26.5t34 69.5q0 15 -4 30t-13 32q-23 -42 -59.5 -64.5t-80.5 -22.5q-85 0 -143.5 67.5t-58.5 167.5q0 99 58.5 167t143.5 68q37 0 69 -16t56 -47l17 53h155
v-311l4 -10q12 -31 19 -64.5t7 -64.5zM195 245q0 -36 22 -59.5t56 -23.5q35 0 58.5 23.5t23.5 59.5t-23.5 59.5t-58.5 23.5q-34 0 -56 -23.5t-22 -59.5z" />
    <glyph glyph-name="h" unicode="h" horiz-adv-x="585" 
d="M304 321q-22 0 -40.5 -11.5t-33.5 -34.5v-275h-175v705h175v-297q26 34 61 53t73 19q80 0 127.5 -56t47.5 -150v-274h-170v246q0 36 -17 55.5t-48 19.5z" />
    <glyph glyph-name="i" unicode="i" horiz-adv-x="285" 
d="M242 615q0 -41 -29.5 -70.5t-70.5 -29.5t-70.5 29.5t-29.5 70.5t29.5 70.5t70.5 29.5t70.5 -29.5t29.5 -70.5zM55 470h175v-470h-175v470z" />
    <glyph glyph-name="j" unicode="j" horiz-adv-x="295" 
d="M252 615q0 -41 -29.5 -70.5t-70.5 -29.5t-70.5 29.5t-29.5 70.5t29.5 70.5t70.5 29.5t70.5 -29.5t29.5 -70.5zM11 -51q26 0 40 19.5t14 53.5v448h175v-463q0 -104 -54.5 -160.5t-154.5 -56.5q-43 0 -85 14t-73 39l85 125q15 -10 28 -14.5t25 -4.5z" />
    <glyph glyph-name="k" unicode="k" horiz-adv-x="583" 
d="M240 163h-10v-163h-175v705h175v-383h10q39 0 58.5 12.5t35.5 45.5l42 90h181l-42 -88q-24 -51 -44 -84t-39 -55l151 -243h-198l-95 166q-12 -2 -24.5 -2.5t-25.5 -0.5z" />
    <glyph glyph-name="l" unicode="l" horiz-adv-x="285" 
d="M55 705h175v-705h-175v705z" />
    <glyph glyph-name="m" unicode="m" horiz-adv-x="884" 
d="M299 321q-21 0 -38 -11t-31 -33v-277h-175v470h155l20 -62q25 34 59 53t70 19q48 0 85 -20.5t60 -59.5q32 38 74 59t85 21q80 0 127.5 -56t47.5 -150v-274h-175v246q0 36 -15.5 55.5t-44.5 19.5q-21 0 -38 -11t-31 -33v-277h-175v246q0 36 -15.5 55.5t-44.5 19.5z" />
    <glyph glyph-name="n" unicode="n" horiz-adv-x="590" 
d="M304 321q-22 0 -40.5 -11.5t-33.5 -34.5v-275h-175v470h155l20 -62q26 34 61 53t73 19q83 0 131.5 -56t48.5 -150v-274h-175v246q0 36 -17 55.5t-48 19.5z" />
    <glyph glyph-name="o" unicode="o" horiz-adv-x="556" 
d="M533 235q0 -106 -72.5 -175.5t-182.5 -69.5t-182.5 69.5t-72.5 175.5t72.5 175.5t182.5 69.5t182.5 -69.5t72.5 -175.5zM193 235q0 -39 24 -64.5t61 -25.5t61 25.5t24 64.5t-24 64.5t-61 25.5t-61 -25.5t-24 -64.5z" />
    <glyph glyph-name="p" unicode="p" horiz-adv-x="591" 
d="M564 235q0 -106 -59.5 -175.5t-151.5 -69.5q-36 0 -67 14t-56 41v-245h-175v670h155l16 -49q24 29 56.5 44t70.5 15q92 0 151.5 -69.5t59.5 -175.5zM309 325q-37 0 -61 -25.5t-24 -64.5t24 -64.5t61 -25.5q36 0 60.5 25.5t24.5 64.5t-24.5 64.5t-60.5 25.5z" />
    <glyph glyph-name="q" unicode="q" horiz-adv-x="591" 
d="M381 470h155v-670h-175v254q-23 -31 -54 -47.5t-69 -16.5q-92 0 -151.5 69.5t-59.5 175.5t59.5 175.5t151.5 69.5q38 0 70 -17t55 -49zM197 235q0 -39 24.5 -64.5t60.5 -25.5q37 0 61 25.5t24 64.5t-24 64.5t-61 25.5q-36 0 -60.5 -25.5t-24.5 -64.5z" />
    <glyph glyph-name="r" unicode="r" horiz-adv-x="405" 
d="M304 295q-23 0 -41.5 -7.5t-32.5 -21.5v-266h-175v470h155l20 -61q24 34 54 52.5t61 18.5q16 0 28.5 -2.5t26.5 -7.5l-49 -183q-13 4 -24.5 6t-22.5 2z" />
    <glyph glyph-name="s" unicode="s" horiz-adv-x="455" 
d="M41 328q0 66 56.5 109t143.5 43q49 0 98.5 -14.5t88.5 -39.5l-74 -116q-25 18 -58 29.5t-58 11.5q-16 0 -23.5 -4.5t-7.5 -13.5q0 -10 15 -17.5t54 -17.5q82 -21 120.5 -58t38.5 -94q0 -74 -52.5 -115t-147.5 -41q-58 0 -113 16.5t-108 49.5l76 119q33 -24 73.5 -39
t71.5 -15q17 0 26 5t9 14q0 10 -10.5 16.5t-59.5 18.5q-88 22 -123.5 58.5t-35.5 94.5z" />
    <glyph glyph-name="t" unicode="t" horiz-adv-x="475" 
d="M104 321h-90v144l90 5h10l20 134h145v-134h142v-149h-142v-109q0 -30 13.5 -46.5t37.5 -16.5q12 0 25 4.5t28 14.5l80 -125q-31 -25 -73 -39t-84 -14q-96 0 -149 56.5t-53 160.5v114z" />
    <glyph glyph-name="u" unicode="u" horiz-adv-x="584" 
d="M529 0h-155l-19 59q-26 -33 -61 -51t-72 -18q-81 0 -129 55t-48 148v277h175v-249q0 -35 16 -53.5t46 -18.5q22 0 40 10.5t32 31.5v279h175v-470z" />
    <glyph glyph-name="v" unicode="v" horiz-adv-x="540" 
d="M363 470h174l-179 -470h-176l-179 470h186l85 -267z" />
    <glyph glyph-name="w" unicode="w" horiz-adv-x="812" 
d="M657 0h-181l-70 187l-70 -187h-181l-172 470h172l104 -300l72 192l-41 108h236l-40 -106l72 -193l104 299h167z" />
    <glyph glyph-name="x" unicode="x" horiz-adv-x="560" 
d="M556 0h-200l-85 118l-81 -118h-186l175 247l-160 223h200l69 -97l67 97h186l-160 -226z" />
    <glyph glyph-name="y" unicode="y" horiz-adv-x="579" 
d="M554 20q0 -101 -78.5 -165.5t-197.5 -64.5q-71 0 -139.5 19.5t-118.5 54.5l76 131q39 -28 79 -42t82 -14q58 0 92.5 26.5t34.5 69.5q0 14 -3.5 27.5t-10.5 27.5q-20 -38 -57.5 -59t-85.5 -21q-82 0 -131.5 55.5t-49.5 147.5v257h175v-229q0 -35 16 -53.5t45 -18.5
q20 0 36.5 10t30.5 31v260h175v-311l4 -10q12 -31 19 -64.5t7 -64.5z" />
    <glyph glyph-name="z" unicode="z" horiz-adv-x="487" 
d="M248 149h207v-149h-423v129l188 192h-178v149h403v-120z" />
    <glyph glyph-name="braceleft" unicode="{" horiz-adv-x="512" 
d="M432 -91h45v-159h-50q-122 0 -181.5 56t-59.5 171v50q0 69 -24 103t-75 39l-47 5v159l47 5q51 5 75 39t24 103v50q0 115 59.5 171t181.5 56h50v-159h-45q-34 0 -50 -19t-16 -59v-50q0 -76 -40.5 -133t-112.5 -83q72 -26 112.5 -83t40.5 -134v-50q0 -40 16 -59t50 -19z
" />
    <glyph glyph-name="bar" unicode="|" horiz-adv-x="340" 
d="M80 685h180v-885h-180v885z" />
    <glyph glyph-name="braceright" unicode="}" horiz-adv-x="512" 
d="M326 27v-50q0 -115 -59.5 -171t-181.5 -56h-50v159h45q34 0 50 19t16 59v50q0 77 40.5 134t112.5 83q-72 26 -112.5 83t-40.5 133v50q0 40 -16 59t-50 19h-45v159h50q122 0 181.5 -56t59.5 -171v-50q0 -69 24 -103t75 -39l47 -5v-159l-47 -5q-51 -5 -75 -39t-24 -103z
" />
    <glyph glyph-name="asciitilde" unicode="~" horiz-adv-x="500" 
d="M156 442q21 0 41.5 -3.5t57.5 -14.5q29 -9 44 -11.5t28 -2.5q19 0 30 9t20 29l113 -53q-29 -71 -61.5 -101.5t-78.5 -30.5q-22 0 -45 4t-62 16q-29 9 -42.5 11.5t-24.5 2.5q-20 0 -33 -10t-21 -32l-112 44q27 76 61.5 109.5t84.5 33.5z" />
    <glyph glyph-name="uni00A0" unicode="&#xa0;" horiz-adv-x="155" 
 />
    <glyph glyph-name="exclamdown" unicode="&#xa1;" horiz-adv-x="340" 
d="M68 378q0 42 30 72t72 30t72 -30t30 -72t-30 -72t-72 -30t-72 30t-30 72zM248 230l12 -445h-180l12 445h156z" />
    <glyph glyph-name="cent" unicode="&#xa2;" horiz-adv-x="478" 
d="M359 184l112 -112q-24 -25 -49.5 -41.5t-53.5 -26.5v-114h-180v114q-76 25 -120.5 87.5t-44.5 143.5q0 78 42 139t113 88v118h180v-114q28 -9 54 -25t49 -38l-112 -112q-15 15 -33 22.5t-38 7.5q-35 0 -57.5 -24t-22.5 -62t22.5 -62t57.5 -24q24 0 43.5 8.5t37.5 26.5z
" />
    <glyph glyph-name="sterling" unicode="&#xa3;" horiz-adv-x="614" 
d="M323 159h246v-159h-514v149l31 2q43 4 63 25.5t20 61.5q0 9 -0.5 17.5t-2.5 15.5h-111v144h68q-2 18 -3 30.5t-1 24.5q0 98 68.5 161.5t172.5 63.5q65 0 117.5 -23t96.5 -70l-106 -111q-28 28 -49.5 39t-46.5 11q-34 0 -55 -23.5t-21 -63.5q0 -8 0.5 -16.5t1.5 -22.5h184
v-144h-147q2 -10 3 -21.5t1 -26.5q0 -17 -4 -33t-12 -31z" />
    <glyph glyph-name="currency" unicode="&#xa4;" horiz-adv-x="566" 
d="M464 236l72 -72l-82 -81l-71 72q-22 -12 -47 -18t-53 -6t-53 6t-47 18l-71 -72l-82 81l72 72q-12 22 -18.5 48t-6.5 54q0 27 6.5 53t18.5 49l-72 72l82 81l71 -72q22 12 47 18t53 6t53 -6t47 -18l71 72l82 -81l-72 -72q12 -22 18.5 -48t6.5 -54q0 -27 -6.5 -53t-18.5 -49
zM201 338q0 -37 23.5 -63t58.5 -26t58.5 26t23.5 63t-23.5 63t-58.5 26t-58.5 -26t-23.5 -63z" />
    <glyph glyph-name="yen" unicode="&#xa5;" horiz-adv-x="713" 
d="M627 240v-118h-180v-122h-180v122h-180v118h180v53h-180v118h125l-187 274h203l133 -206l134 206h193l-186 -274h125v-118h-180v-53h180z" />
    <glyph glyph-name="brokenbar" unicode="&#xa6;" horiz-adv-x="340" 
d="M80 685h180v-370h-180v370zM80 -200v370h180v-370h-180z" />
    <glyph glyph-name="section" unicode="&#xa7;" horiz-adv-x="487" 
d="M391 166q19 -21 28.5 -47t9.5 -59q0 -72 -56 -120.5t-136 -48.5q-50 0 -96 14.5t-82 41.5l69 108q33 -21 52.5 -28t38.5 -7q21 0 33 9.5t12 26.5q0 20 -20.5 34.5t-67.5 28.5q-75 22 -110.5 62.5t-35.5 102.5q0 38 17.5 74t48.5 62q-19 21 -28.5 47t-9.5 59
q0 72 56 120.5t136 48.5q50 0 96 -14.5t82 -41.5l-69 -108q-33 21 -52.5 28t-38.5 7q-21 0 -33 -9.5t-12 -26.5q0 -20 20.5 -34.5t67.5 -28.5q75 -22 110.5 -62.5t35.5 -102.5q0 -38 -17.5 -74t-48.5 -62zM175 307q0 -22 20.5 -37.5t79.5 -36.5l7.5 -2.5t6.5 -2.5
q12 10 17.5 22.5t5.5 28.5q0 22 -20.5 37.5t-79.5 36.5q-2 1 -6.5 2.5l-7.5 2.5q-12 -10 -17.5 -22.5t-5.5 -28.5z" />
    <glyph glyph-name="dieresis" unicode="&#xa8;" horiz-adv-x="500" 
d="M230 620q0 -34 -25.5 -59.5t-59.5 -25.5t-60 25.5t-26 59.5t26 59.5t60 25.5t59.5 -25.5t25.5 -59.5zM441 620q0 -34 -25.5 -59.5t-60.5 -25.5q-34 0 -59.5 25.5t-25.5 59.5t25.5 59.5t59.5 25.5q35 0 60.5 -25.5t25.5 -59.5z" />
    <glyph glyph-name="copyright" unicode="&#xa9;" horiz-adv-x="755" 
d="M30 342q0 151 99.5 252t248.5 101q148 0 247.5 -101t99.5 -252q0 -150 -100 -251t-247 -101q-148 0 -248 101t-100 251zM645 342q0 120 -76 198.5t-191 78.5t-191.5 -79t-76.5 -198q0 -117 77.5 -196.5t190.5 -79.5q114 0 190.5 79.5t76.5 196.5zM302 343q0 -39 24.5 -66
t60.5 -27q22 0 39 8.5t38 29.5l68 -74q-31 -33 -66.5 -48.5t-78.5 -15.5q-86 0 -142.5 55t-56.5 138t57 138.5t142 55.5q39 0 74.5 -15t65.5 -45l-67 -74q-17 17 -34.5 25t-38.5 8q-37 0 -61 -26.5t-24 -66.5z" />
    <glyph glyph-name="ordfeminine" unicode="&#xaa;" horiz-adv-x="414" 
d="M369 374h-108l-9 26q-17 -16 -37 -24t-43 -8q-64 0 -105.5 46t-41.5 117t41.5 117.5t105.5 46.5q24 0 45 -8.5t36 -24.5l8 23h108v-311zM151 531q0 -23 14.5 -38.5t35.5 -15.5t35 15.5t14 38.5q0 25 -13.5 39.5t-35.5 14.5q-23 0 -36.5 -14.5t-13.5 -39.5zM25 340h369
v-85h-369v85z" />
    <glyph glyph-name="guillemotleft" unicode="&#xab;" horiz-adv-x="695" 
d="M525 235l130 -132l-109 -108l-225 230v20l225 230l109 -108zM234 235l130 -132l-109 -108l-225 230v20l225 230l109 -108z" />
    <glyph glyph-name="logicalnot" unicode="&#xac;" horiz-adv-x="500" 
d="M320 268h-300v139h460v-312h-160v173z" />
    <glyph glyph-name="uni00AD" unicode="&#xad;" 
 />
    <glyph glyph-name="registered" unicode="&#xae;" horiz-adv-x="755" 
d="M30 342q0 151 99.5 252t248.5 101q148 0 247.5 -101t99.5 -252q0 -150 -100 -251t-247 -101q-148 0 -248 101t-100 251zM645 342q0 120 -76 199t-191 79q-116 0 -192 -79t-76 -199q0 -117 77 -197t191 -80q113 0 190 79.5t77 197.5zM344 176h-97v344h126q62 0 100.5 -30
t38.5 -79q0 -31 -13 -54.5t-38 -37.5l71 -143h-105l-54 114h-29v-114zM409 405q0 13 -9 20.5t-24 7.5h-32v-56h32q15 0 24 7.5t9 20.5z" />
    <glyph glyph-name="macron" unicode="&#xaf;" horiz-adv-x="500" 
d="M101 676h298v-118h-298v118z" />
    <glyph glyph-name="degree" unicode="&#xb0;" horiz-adv-x="405" 
d="M385 516q0 -77 -51.5 -128t-130.5 -51t-131 51t-52 128t52 128t131 51q78 0 130 -51t52 -128zM144 516q0 -26 17 -44.5t42 -18.5t41.5 18t16.5 45t-16.5 45t-41.5 18t-42 -18.5t-17 -44.5z" />
    <glyph glyph-name="plusminus" unicode="&#xb1;" horiz-adv-x="500" 
d="M330 139h150v-139h-460v139h150v129h-150v139h150v173h160v-173h150v-139h-150v-129z" />
    <glyph glyph-name="twosuperior" unicode="&#xb2;" horiz-adv-x="306" 
d="M167 526h117v-96h-264v84l117 126q12 14 18 24.5t6 19.5q0 10 -6 15.5t-16 5.5q-11 0 -26.5 -9.5t-30.5 -25.5l-69 69q25 31 60.5 48t74.5 17q57 0 93 -32t36 -82q0 -25 -9.5 -46t-29.5 -43z" />
    <glyph glyph-name="threesuperior" unicode="&#xb3;" horiz-adv-x="309" 
d="M180 551q0 13 -10.5 18.5t-33.5 5.5h-31v84h28q15 0 23 6t8 17q0 10 -8 16t-22 6t-30 -8.5t-29 -22.5l-65 65q23 30 59.5 48t74.5 18q60 0 96.5 -29t36.5 -77q0 -23 -9.5 -42.5t-28.5 -34.5q27 -14 41 -34.5t14 -47.5q0 -52 -39.5 -83t-104.5 -31q-42 0 -78 13t-64 38
l57 84q24 -16 44.5 -24t38.5 -8q14 0 23 6.5t9 16.5z" />
    <glyph glyph-name="acute" unicode="&#xb4;" horiz-adv-x="500" 
d="M172 525l-57 90l200 147l74 -126z" />
    <glyph glyph-name="mu" unicode="&#xb5;" horiz-adv-x="594" 
d="M230 -200h-175v670h175v-249q0 -35 16 -53.5t46 -18.5q22 0 40 10.5t32 31.5v279h175v-470h-155l-19 59q-26 -33 -61 -51t-72 -18h-2v-190z" />
    <glyph glyph-name="paragraph" unicode="&#xb6;" horiz-adv-x="790" 
d="M35 470q0 96 67 155.5t175 59.5h490v-159h-100v-626h-155v626h-80v-626h-155v359q-109 0 -175.5 58t-66.5 153z" />
    <glyph glyph-name="periodcentered" unicode="&#xb7;" horiz-adv-x="336" 
d="M263 318q0 -39 -28 -67t-67 -28t-67 28t-28 67t28 67t67 28t67 -28t28 -67z" />
    <glyph glyph-name="cedilla" unicode="&#xb8;" horiz-adv-x="500" 
d="M371 -124q0 -45 -34 -72t-92 -27q-33 0 -58 5t-54 18l26 79q20 -9 32.5 -12.5t24.5 -3.5t19 5t7 15t-5.5 14.5t-16.5 4.5l-42 48l20 68h93l-15 -50q44 -5 69.5 -30t25.5 -62z" />
    <glyph glyph-name="onesuperior" unicode="&#xb9;" horiz-adv-x="240" 
d="M80 696h-65v103h183v-369h-118v266z" />
    <glyph glyph-name="ordmasculine" unicode="&#xba;" horiz-adv-x="394" 
d="M369 531q0 -70 -49 -116.5t-123 -46.5t-123 46.5t-49 116.5q0 71 49 117.5t123 46.5t123 -46.5t49 -117.5zM147 531q0 -23 14.5 -38.5t35.5 -15.5q22 0 36.5 15.5t14.5 38.5q0 24 -14 39t-37 15t-36.5 -14.5t-13.5 -39.5zM28 340h340v-85h-340v85z" />
    <glyph glyph-name="guillemotright" unicode="&#xbb;" horiz-adv-x="695" 
d="M665 245v-20l-225 -230l-109 108l130 132l-130 132l109 108zM374 245v-20l-225 -230l-109 108l130 132l-130 132l109 108z" />
    <glyph glyph-name="onequarter" unicode="&#xbc;" horiz-adv-x="779" 
d="M80 582h-65v103h183v-369h-118v266zM634 685l-421 -685h-128l421 685h128zM613 369h104v-202h50v-97h-50v-70h-104v70h-159v85zM561 167h52v73z" />
    <glyph glyph-name="onehalf" unicode="&#xbd;" horiz-adv-x="745" 
d="M80 582h-65v103h183v-369h-118v266zM614 685l-421 -685h-128l421 685h128zM606 96h117v-96h-264v84l117 126q12 14 18 24.5t6 19.5q0 10 -6 15.5t-16 5.5q-11 0 -26.5 -9.5t-30.5 -25.5l-69 69q25 31 60.5 48t74.5 17q57 0 93 -32t36 -82q0 -25 -9.5 -46t-29.5 -43z" />
    <glyph glyph-name="threequarters" unicode="&#xbe;" horiz-adv-x="848" 
d="M180 437q0 13 -10.5 18.5t-33.5 5.5h-31v84h28q15 0 23 6t8 17q0 10 -8 16t-22 6t-30 -8.5t-29 -22.5l-65 65q23 30 59.5 48t74.5 18q60 0 96.5 -29t36.5 -77q0 -23 -9.5 -42.5t-28.5 -34.5q27 -14 41 -34.5t14 -47.5q0 -52 -39.5 -83t-104.5 -31q-42 0 -78 13t-64 38
l57 84q24 -16 44.5 -24t38.5 -8q14 0 23 6.5t9 16.5zM695 685l-421 -685h-128l421 685h128zM682 369h104v-202h50v-97h-50v-70h-104v70h-159v85zM630 167h52v73z" />
    <glyph glyph-name="questiondown" unicode="&#xbf;" horiz-adv-x="494" 
d="M146 378q0 42 30 72t72 30t72 -30t30 -72t-30 -72t-72 -30t-72 30t-30 72zM378 -23l101 -101q-42 -50 -97.5 -75.5t-122.5 -25.5q-97 0 -160.5 56t-63.5 141q0 61 35.5 108.5t97.5 69.5v80h160v-162l-43 -10q-39 -9 -62 -30t-23 -48q0 -28 19 -44.5t51 -16.5q29 0 55 14
t53 44z" />
    <glyph glyph-name="Agrave" unicode="&#xc0;" horiz-adv-x="729" 
d="M723 0h-187l-40 107h-273l-40 -107h-177l270 685h177zM360 472l-79 -211h157zM299 977l200 -147l-57 -90l-217 111z" />
    <glyph glyph-name="Aacute" unicode="&#xc1;" horiz-adv-x="729" 
d="M723 0h-187l-40 107h-273l-40 -107h-177l270 685h177zM360 472l-79 -211h157zM302 740l-57 90l200 147l74 -126z" />
    <glyph glyph-name="Acircumflex" unicode="&#xc2;" horiz-adv-x="729" 
d="M723 0h-187l-40 107h-273l-40 -107h-177l270 685h177zM360 472l-79 -211h157zM370 972l182 -157l-67 -80l-116 84l-114 -84l-67 80z" />
    <glyph glyph-name="Atilde" unicode="&#xc3;" horiz-adv-x="729" 
d="M723 0h-187l-40 107h-273l-40 -107h-177l270 685h177zM360 472l-79 -211h157zM436 763q-16 0 -31 3.5t-40 15.5q-18 8 -27 10.5t-17 2.5q-14 0 -24 -9.5t-19 -32.5l-99 46q26 65 55 93t70 28q16 0 31 -3.5t40 -15.5q18 -8 27 -10.5t17 -2.5q14 0 24 9.5t19 32.5l99 -46
q-26 -65 -55 -93t-70 -28z" />
    <glyph glyph-name="Adieresis" unicode="&#xc4;" horiz-adv-x="729" 
d="M723 0h-187l-40 107h-273l-40 -107h-177l270 685h177zM360 472l-79 -211h157zM350 835q0 -34 -25.5 -59.5t-59.5 -25.5t-60 25.5t-26 59.5t26 59.5t60 25.5t59.5 -25.5t25.5 -59.5zM561 835q0 -34 -25.5 -59.5t-60.5 -25.5q-34 0 -59.5 25.5t-25.5 59.5t25.5 59.5
t59.5 25.5q35 0 60.5 -25.5t25.5 -59.5z" />
    <glyph glyph-name="Aring" unicode="&#xc5;" horiz-adv-x="729" 
d="M723 0h-187l-40 107h-273l-40 -107h-177l270 685h177zM360 472l-79 -211h157zM240 857q0 53 37.5 89.5t92.5 36.5t92.5 -36.5t37.5 -89.5t-37.5 -89.5t-92.5 -36.5t-92.5 36.5t-37.5 89.5zM412 857q0 19 -12 31t-30 12t-30 -12t-12 -31t11.5 -31t30.5 -12t30.5 12
t11.5 31z" />
    <glyph glyph-name="AE" unicode="&#xc6;" horiz-adv-x="933" 
d="M660 159h228v-159h-352l-40 107h-273l-40 -107h-177l270 685h612v-159h-372l39 -100h303v-159h-240zM360 472l-79 -211h157z" />
    <glyph glyph-name="Ccedilla" unicode="&#xc7;" horiz-adv-x="665" 
d="M497 -124q0 -45 -34 -72t-92 -27q-33 0 -58 5t-54 18l26 79q20 -9 32.5 -12.5t24.5 -3.5t19 5t7 15t-5.5 14.5t-16.5 4.5l-42 48l14 46q-128 24 -207.5 119.5t-79.5 226.5q0 151 102.5 252t255.5 101q72 0 135.5 -27.5t116.5 -80.5l-109 -120q-33 33 -67.5 48.5
t-75.5 15.5q-74 0 -123.5 -54t-49.5 -135q0 -80 50 -134t123 -54q42 0 77 17t74 56l111 -120q-55 -56 -114 -84.5t-128 -32.5l-7 -22q44 -5 69.5 -30t25.5 -62z" />
    <glyph glyph-name="Egrave" unicode="&#xc8;" horiz-adv-x="563" 
d="M518 0h-448v685h448v-159h-268v-100h238v-159h-238v-108h268v-159zM225 977l200 -147l-57 -90l-217 111z" />
    <glyph glyph-name="Eacute" unicode="&#xc9;" horiz-adv-x="563" 
d="M518 0h-448v685h448v-159h-268v-100h238v-159h-238v-108h268v-159zM223 740l-57 90l200 147l74 -126z" />
    <glyph glyph-name="Ecircumflex" unicode="&#xca;" horiz-adv-x="563" 
d="M518 0h-448v685h448v-159h-268v-100h238v-159h-238v-108h268v-159zM288 972l182 -157l-67 -80l-116 84l-114 -84l-67 80z" />
    <glyph glyph-name="Edieresis" unicode="&#xcb;" horiz-adv-x="563" 
d="M518 0h-448v685h448v-159h-268v-100h238v-159h-238v-108h268v-159zM269 835q0 -34 -25.5 -59.5t-59.5 -25.5t-60 25.5t-26 59.5t26 59.5t60 25.5t59.5 -25.5t25.5 -59.5zM480 835q0 -34 -25.5 -59.5t-60.5 -25.5q-34 0 -59.5 25.5t-25.5 59.5t25.5 59.5t59.5 25.5
q35 0 60.5 -25.5t25.5 -59.5z" />
    <glyph glyph-name="Igrave" unicode="&#xcc;" horiz-adv-x="320" 
d="M250 0h-180v685h180v-685zM99 977l200 -147l-57 -90l-217 111z" />
    <glyph glyph-name="Iacute" unicode="&#xcd;" horiz-adv-x="320" 
d="M250 0h-180v685h180v-685zM82 740l-57 90l200 147l74 -126z" />
    <glyph glyph-name="Icircumflex" unicode="&#xce;" horiz-adv-x="320" 
d="M250 0h-180v685h180v-685zM160 972l182 -157l-67 -80l-116 84l-114 -84l-67 80z" />
    <glyph glyph-name="Idieresis" unicode="&#xcf;" horiz-adv-x="320" 
d="M250 0h-180v685h180v-685zM140 835q0 -34 -25.5 -59.5t-59.5 -25.5t-60 25.5t-26 59.5t26 59.5t60 25.5t59.5 -25.5t25.5 -59.5zM351 835q0 -34 -25.5 -59.5t-60.5 -25.5q-34 0 -59.5 25.5t-25.5 59.5t25.5 59.5t59.5 25.5q35 0 60.5 -25.5t25.5 -59.5z" />
    <glyph glyph-name="Eth" unicode="&#xd0;" horiz-adv-x="751" 
d="M20 262v159h90v264h217q185 0 288.5 -90.5t103.5 -252.5q0 -161 -103.5 -251.5t-288.5 -90.5h-217v262h-90zM410 421v-159h-120v-98h42q100 0 151 45t51 133q0 89 -51 134t-151 45h-42v-100h120z" />
    <glyph glyph-name="Ntilde" unicode="&#xd1;" horiz-adv-x="736" 
d="M666 0h-172l-254 399v-399h-170v685h172l254 -399v399h170v-685zM434 763q-16 0 -31 3.5t-40 15.5q-18 8 -27 10.5t-17 2.5q-14 0 -24 -9.5t-19 -32.5l-99 46q26 65 55 93t70 28q16 0 31 -3.5t40 -15.5q18 -8 27 -10.5t17 -2.5q14 0 24 9.5t19 32.5l99 -46
q-26 -65 -55 -93t-70 -28z" />
    <glyph glyph-name="Ograve" unicode="&#xd2;" horiz-adv-x="776" 
d="M31 343q0 150 102.5 251t254.5 101t254.5 -101t102.5 -251q0 -151 -102 -252t-255 -101t-255 101t-102 252zM560 343q0 80 -49.5 134t-122.5 54t-122.5 -54t-49.5 -134q0 -81 49 -135t123 -54t123 54t49 135zM327 977l200 -147l-57 -90l-217 111z" />
    <glyph glyph-name="Oacute" unicode="&#xd3;" horiz-adv-x="776" 
d="M31 343q0 150 102.5 251t254.5 101t254.5 -101t102.5 -251q0 -151 -102 -252t-255 -101t-255 101t-102 252zM560 343q0 80 -49.5 134t-122.5 54t-122.5 -54t-49.5 -134q0 -81 49 -135t123 -54t123 54t49 135zM310 740l-57 90l200 147l74 -126z" />
    <glyph glyph-name="Ocircumflex" unicode="&#xd4;" horiz-adv-x="776" 
d="M31 343q0 150 102.5 251t254.5 101t254.5 -101t102.5 -251q0 -151 -102 -252t-255 -101t-255 101t-102 252zM560 343q0 80 -49.5 134t-122.5 54t-122.5 -54t-49.5 -134q0 -81 49 -135t123 -54t123 54t49 135zM388 972l182 -157l-67 -80l-116 84l-114 -84l-67 80z" />
    <glyph glyph-name="Otilde" unicode="&#xd5;" horiz-adv-x="776" 
d="M31 343q0 150 102.5 251t254.5 101t254.5 -101t102.5 -251q0 -151 -102 -252t-255 -101t-255 101t-102 252zM560 343q0 80 -49.5 134t-122.5 54t-122.5 -54t-49.5 -134q0 -81 49 -135t123 -54t123 54t49 135zM454 763q-16 0 -31 3.5t-40 15.5q-18 8 -27 10.5t-17 2.5
q-14 0 -24 -9.5t-19 -32.5l-99 46q26 65 55 93t70 28q16 0 31 -3.5t40 -15.5q18 -8 27 -10.5t17 -2.5q14 0 24 9.5t19 32.5l99 -46q-26 -65 -55 -93t-70 -28z" />
    <glyph glyph-name="Odieresis" unicode="&#xd6;" horiz-adv-x="776" 
d="M31 343q0 150 102.5 251t254.5 101t254.5 -101t102.5 -251q0 -151 -102 -252t-255 -101t-255 101t-102 252zM560 343q0 80 -49.5 134t-122.5 54t-122.5 -54t-49.5 -134q0 -81 49 -135t123 -54t123 54t49 135zM368 835q0 -34 -25.5 -59.5t-59.5 -25.5t-60 25.5t-26 59.5
t26 59.5t60 25.5t59.5 -25.5t25.5 -59.5zM579 835q0 -34 -25.5 -59.5t-60.5 -25.5q-34 0 -59.5 25.5t-25.5 59.5t25.5 59.5t59.5 25.5q35 0 60.5 -25.5t25.5 -59.5z" />
    <glyph glyph-name="multiply" unicode="&#xd7;" horiz-adv-x="500" 
d="M354 334l132 -132l-104 -104l-132 132l-132 -132l-104 104l132 132l-132 132l104 104l132 -132l132 132l104 -104z" />
    <glyph glyph-name="Oslash" unicode="&#xd8;" horiz-adv-x="776" 
d="M745 343q0 -151 -102 -252t-255 -101q-48 0 -93.5 11t-85.5 33l-63 -69l-110 104l60 66q-32 44 -48.5 97t-16.5 111q0 150 102.5 251t254.5 101q48 0 93.5 -11t85.5 -33l63 69l110 -104l-60 -66q32 -44 48.5 -97t16.5 -110zM388 531q-73 0 -122.5 -54t-49.5 -134
q0 -18 2.5 -35t7.5 -31l222 243q-15 6 -30 8.5t-30 2.5zM388 154q74 0 123 54t49 135q0 18 -2.5 34.5t-7.5 30.5l-222 -243q15 -6 30 -8.5t30 -2.5z" />
    <glyph glyph-name="Ugrave" unicode="&#xd9;" horiz-adv-x="682" 
d="M341 -10q-131 0 -208 78t-77 212v405h180v-403q0 -60 28 -94t77 -34t77 34t28 94v403h180v-405q0 -134 -77 -212t-208 -78zM260 977l200 -147l-57 -90l-217 111z" />
    <glyph glyph-name="Uacute" unicode="&#xda;" horiz-adv-x="682" 
d="M341 -10q-131 0 -208 78t-77 212v405h180v-403q0 -60 28 -94t77 -34t77 34t28 94v403h180v-405q0 -134 -77 -212t-208 -78zM283 740l-57 90l200 147l74 -126z" />
    <glyph glyph-name="Ucircumflex" unicode="&#xdb;" horiz-adv-x="682" 
d="M341 -10q-131 0 -208 78t-77 212v405h180v-403q0 -60 28 -94t77 -34t77 34t28 94v403h180v-405q0 -134 -77 -212t-208 -78zM341 972l182 -157l-67 -80l-116 84l-114 -84l-67 80z" />
    <glyph glyph-name="Udieresis" unicode="&#xdc;" horiz-adv-x="682" 
d="M341 -10q-131 0 -208 78t-77 212v405h180v-403q0 -60 28 -94t77 -34t77 34t28 94v403h180v-405q0 -134 -77 -212t-208 -78zM321 835q0 -34 -25.5 -59.5t-59.5 -25.5t-60 25.5t-26 59.5t26 59.5t60 25.5t59.5 -25.5t25.5 -59.5zM532 835q0 -34 -25.5 -59.5t-60.5 -25.5
q-34 0 -59.5 25.5t-25.5 59.5t25.5 59.5t59.5 25.5q35 0 60.5 -25.5t25.5 -59.5z" />
    <glyph glyph-name="Yacute" unicode="&#xdd;" horiz-adv-x="669" 
d="M473 685h190l-238 -412v-273h-180v273l-239 412h200l134 -235zM287 740l-57 90l200 147l74 -126z" />
    <glyph glyph-name="Thorn" unicode="&#xde;" horiz-adv-x="598" 
d="M573 341q0 -107 -74 -170t-198 -63h-56v-108h-175v685h175v-111h56q124 0 198 -63t74 -170zM393 341q0 35 -24.5 54.5t-67.5 19.5h-56v-148h56q43 0 67.5 19.5t24.5 54.5z" />
    <glyph glyph-name="germandbls" unicode="&#xdf;" horiz-adv-x="705" 
d="M113 321h-99v144l85 5q-8 20 -12.5 41t-4.5 36q0 72 68.5 120t170.5 48q106 0 172.5 -50t66.5 -130q0 -35 -9 -63.5t-28 -53.5q81 -25 120 -75t39 -131q0 -96 -61 -159t-154 -63q-42 0 -76.5 9.5t-67.5 31.5l55 126q17 -9 32.5 -14t28.5 -5q32 0 49 20t17 57
q0 45 -28.5 72t-76.5 27l-40 113q21 19 30.5 35.5t9.5 36.5q0 29 -19.5 47t-50.5 18t-50.5 -18t-19.5 -47q0 -13 3.5 -24.5t11.5 -25.5l13 -22v-427h-175v321z" />
    <glyph glyph-name="agrave" unicode="&#xe0;" horiz-adv-x="591" 
d="M536 0h-155l-18 57q-24 -33 -55.5 -50t-69.5 -17q-91 0 -151 70t-60 175t60 175t151 70q38 0 70 -17t55 -49l18 56h155v-470zM197 235q0 -39 24.5 -64.5t60.5 -25.5q37 0 61 25.5t24 64.5t-24 64.5t-61 25.5q-36 0 -60.5 -25.5t-24.5 -64.5zM225 762l200 -147l-57 -90
l-217 111z" />
    <glyph glyph-name="aacute" unicode="&#xe1;" horiz-adv-x="591" 
d="M536 0h-155l-18 57q-24 -33 -55.5 -50t-69.5 -17q-91 0 -151 70t-60 175t60 175t151 70q38 0 70 -17t55 -49l18 56h155v-470zM197 235q0 -39 24.5 -64.5t60.5 -25.5q37 0 61 25.5t24 64.5t-24 64.5t-61 25.5q-36 0 -60.5 -25.5t-24.5 -64.5zM228 525l-57 90l200 147
l74 -126z" />
    <glyph glyph-name="acircumflex" unicode="&#xe2;" horiz-adv-x="591" 
d="M536 0h-155l-18 57q-24 -33 -55.5 -50t-69.5 -17q-91 0 -151 70t-60 175t60 175t151 70q38 0 70 -17t55 -49l18 56h155v-470zM197 235q0 -39 24.5 -64.5t60.5 -25.5q37 0 61 25.5t24 64.5t-24 64.5t-61 25.5q-36 0 -60.5 -25.5t-24.5 -64.5zM296 757l182 -157l-67 -80
l-116 84l-114 -84l-67 80z" />
    <glyph glyph-name="atilde" unicode="&#xe3;" horiz-adv-x="591" 
d="M536 0h-155l-18 57q-24 -33 -55.5 -50t-69.5 -17q-91 0 -151 70t-60 175t60 175t151 70q38 0 70 -17t55 -49l18 56h155v-470zM197 235q0 -39 24.5 -64.5t60.5 -25.5q37 0 61 25.5t24 64.5t-24 64.5t-61 25.5q-36 0 -60.5 -25.5t-24.5 -64.5zM362 548q-16 0 -31 3.5
t-40 15.5q-18 8 -27 10.5t-17 2.5q-14 0 -24 -9.5t-19 -32.5l-99 46q26 65 55 93t70 28q16 0 31 -3.5t40 -15.5q18 -8 27 -10.5t17 -2.5q14 0 24 9.5t19 32.5l99 -46q-26 -65 -55 -93t-70 -28z" />
    <glyph glyph-name="adieresis" unicode="&#xe4;" horiz-adv-x="591" 
d="M536 0h-155l-18 57q-24 -33 -55.5 -50t-69.5 -17q-91 0 -151 70t-60 175t60 175t151 70q38 0 70 -17t55 -49l18 56h155v-470zM197 235q0 -39 24.5 -64.5t60.5 -25.5q37 0 61 25.5t24 64.5t-24 64.5t-61 25.5q-36 0 -60.5 -25.5t-24.5 -64.5zM276 620q0 -34 -25.5 -59.5
t-59.5 -25.5t-60 25.5t-26 59.5t26 59.5t60 25.5t59.5 -25.5t25.5 -59.5zM487 620q0 -34 -25.5 -59.5t-60.5 -25.5q-34 0 -59.5 25.5t-25.5 59.5t25.5 59.5t59.5 25.5q35 0 60.5 -25.5t25.5 -59.5z" />
    <glyph glyph-name="aring" unicode="&#xe5;" horiz-adv-x="591" 
d="M536 0h-155l-18 57q-24 -33 -55.5 -50t-69.5 -17q-91 0 -151 70t-60 175t60 175t151 70q38 0 70 -17t55 -49l18 56h155v-470zM197 235q0 -39 24.5 -64.5t60.5 -25.5q37 0 61 25.5t24 64.5t-24 64.5t-61 25.5q-36 0 -60.5 -25.5t-24.5 -64.5zM153 642q0 53 37.5 89.5
t92.5 36.5t92.5 -36.5t37.5 -89.5t-37.5 -89.5t-92.5 -36.5t-92.5 36.5t-37.5 89.5zM325 642q0 19 -12 31t-30 12t-30 -12t-12 -31t11.5 -31t30.5 -12t30.5 12t11.5 31z" />
    <glyph glyph-name="ae" unicode="&#xe6;" horiz-adv-x="903" 
d="M752 156l97 -94q-34 -34 -82.5 -53t-102.5 -19q-44 0 -83.5 13t-71.5 39l-13 -42h-115l-18 57q-24 -33 -55.5 -50t-69.5 -17q-91 0 -151 70t-60 175t60 175t151 70q38 0 70 -17t55 -49l18 56h115l12 -37q29 23 64 35t76 12q101 0 168 -69t67 -173q0 -14 -1.5 -28.5
t-3.5 -23.5h-315q11 -30 36.5 -45.5t63.5 -15.5q29 0 50 7.5t39 23.5zM648 351q-31 0 -53 -16.5t-32 -47.5h173q-10 31 -32 47.5t-56 16.5zM197 235q0 -39 24.5 -64.5t60.5 -25.5q37 0 61 25.5t24 64.5t-24 64.5t-61 25.5q-36 0 -60.5 -25.5t-24.5 -64.5z" />
    <glyph glyph-name="ccedilla" unicode="&#xe7;" horiz-adv-x="478" 
d="M381 -124q0 -45 -34 -72t-92 -27q-33 0 -58 5t-54 18l26 79q20 -9 32.5 -12.5t24.5 -3.5t19 5t7 15t-5.5 14.5t-16.5 4.5l-42 48l15 50q-82 22 -131 86t-49 149q0 106 72.5 175.5t182.5 69.5q49 0 97 -20t86 -57l-112 -112q-15 15 -33 22.5t-38 7.5q-35 0 -57.5 -24
t-22.5 -62t22.5 -62t57.5 -24q24 0 43.5 8.5t37.5 26.5l112 -112q-39 -40 -82.5 -60t-95.5 -22l-7 -22q44 -5 69.5 -30t25.5 -62z" />
    <glyph glyph-name="egrave" unicode="&#xe8;" horiz-adv-x="535" 
d="M388 168l95 -101q-37 -37 -87.5 -57t-106.5 -20q-117 0 -191.5 69t-74.5 176q0 105 71.5 175t178.5 70q104 0 173 -69t69 -173q0 -15 -1.5 -30t-3.5 -24h-328q12 -29 37.5 -44t63.5 -15q34 0 59 10.5t46 32.5zM268 349q-31 0 -53.5 -16t-33.5 -46h179q-10 30 -33 46
t-59 16zM187 762l200 -147l-57 -90l-217 111z" />
    <glyph glyph-name="eacute" unicode="&#xe9;" horiz-adv-x="535" 
d="M388 168l95 -101q-37 -37 -87.5 -57t-106.5 -20q-117 0 -191.5 69t-74.5 176q0 105 71.5 175t178.5 70q104 0 173 -69t69 -173q0 -15 -1.5 -30t-3.5 -24h-328q12 -29 37.5 -44t63.5 -15q34 0 59 10.5t46 32.5zM268 349q-31 0 -53.5 -16t-33.5 -46h179q-10 30 -33 46
t-59 16zM192 525l-57 90l200 147l74 -126z" />
    <glyph glyph-name="ecircumflex" unicode="&#xea;" horiz-adv-x="535" 
d="M388 168l95 -101q-37 -37 -87.5 -57t-106.5 -20q-117 0 -191.5 69t-74.5 176q0 105 71.5 175t178.5 70q104 0 173 -69t69 -173q0 -15 -1.5 -30t-3.5 -24h-328q12 -29 37.5 -44t63.5 -15q34 0 59 10.5t46 32.5zM268 349q-31 0 -53.5 -16t-33.5 -46h179q-10 30 -33 46
t-59 16zM262 757l182 -157l-67 -80l-116 84l-114 -84l-67 80z" />
    <glyph glyph-name="edieresis" unicode="&#xeb;" horiz-adv-x="535" 
d="M388 168l95 -101q-37 -37 -87.5 -57t-106.5 -20q-117 0 -191.5 69t-74.5 176q0 105 71.5 175t178.5 70q104 0 173 -69t69 -173q0 -15 -1.5 -30t-3.5 -24h-328q12 -29 37.5 -44t63.5 -15q34 0 59 10.5t46 32.5zM268 349q-31 0 -53.5 -16t-33.5 -46h179q-10 30 -33 46
t-59 16zM242 620q0 -34 -25.5 -59.5t-59.5 -25.5t-60 25.5t-26 59.5t26 59.5t60 25.5t59.5 -25.5t25.5 -59.5zM453 620q0 -34 -25.5 -59.5t-60.5 -25.5q-34 0 -59.5 25.5t-25.5 59.5t25.5 59.5t59.5 25.5q35 0 60.5 -25.5t25.5 -59.5z" />
    <glyph glyph-name="igrave" unicode="&#xec;" horiz-adv-x="285" 
d="M55 470h175v-470h-175v470zM81 762l200 -147l-57 -90l-217 111z" />
    <glyph glyph-name="iacute" unicode="&#xed;" horiz-adv-x="285" 
d="M55 470h175v-470h-175v470zM64 525l-57 90l200 147l74 -126z" />
    <glyph glyph-name="icircumflex" unicode="&#xee;" horiz-adv-x="285" 
d="M55 470h175v-470h-175v470zM142 757l182 -157l-67 -80l-116 84l-114 -84l-67 80z" />
    <glyph glyph-name="idieresis" unicode="&#xef;" horiz-adv-x="285" 
d="M55 470h175v-470h-175v470zM122 620q0 -34 -25.5 -59.5t-59.5 -25.5t-60 25.5t-26 59.5t26 59.5t60 25.5t59.5 -25.5t25.5 -59.5zM333 620q0 -34 -25.5 -59.5t-60.5 -25.5q-34 0 -59.5 25.5t-25.5 59.5t25.5 59.5t59.5 25.5q35 0 60.5 -25.5t25.5 -59.5z" />
    <glyph glyph-name="eth" unicode="&#xf0;" horiz-adv-x="557" 
d="M534 293q0 -139 -70.5 -221t-189.5 -82q-108 0 -179.5 67t-71.5 168t63 165.5t162 64.5q33 0 60.5 -8.5t51.5 -25.5q-14 34 -31.5 58.5t-40.5 41.5l-40 -51l-62 50l29 38q-21 7 -39.5 11.5t-36.5 7.5l33 118q32 -5 63.5 -13.5t60.5 -20.5l42 54l62 -50l-32 -42
q81 -53 123.5 -137.5t42.5 -192.5zM198 225q0 -33 21.5 -54.5t54.5 -21.5t54.5 21.5t21.5 54.5t-21.5 54.5t-54.5 21.5t-54.5 -21.5t-21.5 -54.5z" />
    <glyph glyph-name="ntilde" unicode="&#xf1;" horiz-adv-x="590" 
d="M304 321q-22 0 -40.5 -11.5t-33.5 -34.5v-275h-175v470h155l20 -62q26 34 61 53t73 19q83 0 131.5 -56t48.5 -150v-274h-175v246q0 36 -17 55.5t-48 19.5zM361 548q-16 0 -31 3.5t-40 15.5q-18 8 -27 10.5t-17 2.5q-14 0 -24 -9.5t-19 -32.5l-99 46q26 65 55 93t70 28
q16 0 31 -3.5t40 -15.5q18 -8 27 -10.5t17 -2.5q14 0 24 9.5t19 32.5l99 -46q-26 -65 -55 -93t-70 -28z" />
    <glyph glyph-name="ograve" unicode="&#xf2;" horiz-adv-x="556" 
d="M533 235q0 -106 -72.5 -175.5t-182.5 -69.5t-182.5 69.5t-72.5 175.5t72.5 175.5t182.5 69.5t182.5 -69.5t72.5 -175.5zM193 235q0 -39 24 -64.5t61 -25.5t61 25.5t24 64.5t-24 64.5t-61 25.5t-61 -25.5t-24 -64.5zM207 762l200 -147l-57 -90l-217 111z" />
    <glyph glyph-name="oacute" unicode="&#xf3;" horiz-adv-x="556" 
d="M533 235q0 -106 -72.5 -175.5t-182.5 -69.5t-182.5 69.5t-72.5 175.5t72.5 175.5t182.5 69.5t182.5 -69.5t72.5 -175.5zM193 235q0 -39 24 -64.5t61 -25.5t61 25.5t24 64.5t-24 64.5t-61 25.5t-61 -25.5t-24 -64.5zM200 525l-57 90l200 147l74 -126z" />
    <glyph glyph-name="ocircumflex" unicode="&#xf4;" horiz-adv-x="556" 
d="M533 235q0 -106 -72.5 -175.5t-182.5 -69.5t-182.5 69.5t-72.5 175.5t72.5 175.5t182.5 69.5t182.5 -69.5t72.5 -175.5zM193 235q0 -39 24 -64.5t61 -25.5t61 25.5t24 64.5t-24 64.5t-61 25.5t-61 -25.5t-24 -64.5zM278 757l182 -157l-67 -80l-116 84l-114 -84l-67 80z
" />
    <glyph glyph-name="otilde" unicode="&#xf5;" horiz-adv-x="556" 
d="M533 235q0 -106 -72.5 -175.5t-182.5 -69.5t-182.5 69.5t-72.5 175.5t72.5 175.5t182.5 69.5t182.5 -69.5t72.5 -175.5zM193 235q0 -39 24 -64.5t61 -25.5t61 25.5t24 64.5t-24 64.5t-61 25.5t-61 -25.5t-24 -64.5zM343 548q-16 0 -31 3.5t-40 15.5q-18 8 -27 10.5
t-17 2.5q-14 0 -24 -9.5t-19 -32.5l-99 46q26 65 55 93t70 28q16 0 31 -3.5t40 -15.5q18 -8 27 -10.5t17 -2.5q14 0 24 9.5t19 32.5l99 -46q-26 -65 -55 -93t-70 -28z" />
    <glyph glyph-name="odieresis" unicode="&#xf6;" horiz-adv-x="556" 
d="M533 235q0 -106 -72.5 -175.5t-182.5 -69.5t-182.5 69.5t-72.5 175.5t72.5 175.5t182.5 69.5t182.5 -69.5t72.5 -175.5zM193 235q0 -39 24 -64.5t61 -25.5t61 25.5t24 64.5t-24 64.5t-61 25.5t-61 -25.5t-24 -64.5zM258 620q0 -34 -25.5 -59.5t-59.5 -25.5t-60 25.5
t-26 59.5t26 59.5t60 25.5t59.5 -25.5t25.5 -59.5zM469 620q0 -34 -25.5 -59.5t-60.5 -25.5q-34 0 -59.5 25.5t-25.5 59.5t25.5 59.5t59.5 25.5q35 0 60.5 -25.5t25.5 -59.5z" />
    <glyph glyph-name="divide" unicode="&#xf7;" horiz-adv-x="500" 
d="M345 532q0 -39 -28 -67t-67 -28t-67 28t-28 67t28 67t67 28t67 -28t28 -67zM480 407v-139h-460v139h460zM345 143q0 -39 -28 -67t-67 -28t-67 28t-28 67t28 67t67 28t67 -28t28 -67z" />
    <glyph glyph-name="oslash" unicode="&#xf8;" horiz-adv-x="556" 
d="M533 235q0 -106 -72.5 -175.5t-182.5 -69.5q-38 0 -72 8.5t-63 25.5l-52 -58l-57 52l49 55q-29 32 -44.5 73.5t-15.5 88.5q0 106 72.5 175.5t182.5 69.5q38 0 72 -8.5t63 -25.5l52 58l57 -52l-49 -55q29 -32 44.5 -73.5t15.5 -88.5zM278 325q-37 0 -61 -25.5t-24 -64.5
q0 -8 1.5 -16t3.5 -16l105 118q-5 2 -11.5 3t-13.5 1zM278 145q37 0 61 25.5t24 64.5q0 8 -1.5 16t-3.5 16l-105 -118q5 -2 11.5 -3t13.5 -1z" />
    <glyph glyph-name="ugrave" unicode="&#xf9;" horiz-adv-x="584" 
d="M529 0h-155l-19 59q-26 -33 -61 -51t-72 -18q-81 0 -129 55t-48 148v277h175v-249q0 -35 16 -53.5t46 -18.5q22 0 40 10.5t32 31.5v279h175v-470zM220 762l200 -147l-57 -90l-217 111z" />
    <glyph glyph-name="uacute" unicode="&#xfa;" horiz-adv-x="584" 
d="M529 0h-155l-19 59q-26 -33 -61 -51t-72 -18q-81 0 -129 55t-48 148v277h175v-249q0 -35 16 -53.5t46 -18.5q22 0 40 10.5t32 31.5v279h175v-470zM234 525l-57 90l200 147l74 -126z" />
    <glyph glyph-name="ucircumflex" unicode="&#xfb;" horiz-adv-x="584" 
d="M529 0h-155l-19 59q-26 -33 -61 -51t-72 -18q-81 0 -129 55t-48 148v277h175v-249q0 -35 16 -53.5t46 -18.5q22 0 40 10.5t32 31.5v279h175v-470zM292 757l182 -157l-67 -80l-116 84l-114 -84l-67 80z" />
    <glyph glyph-name="udieresis" unicode="&#xfc;" horiz-adv-x="584" 
d="M529 0h-155l-19 59q-26 -33 -61 -51t-72 -18q-81 0 -129 55t-48 148v277h175v-249q0 -35 16 -53.5t46 -18.5q22 0 40 10.5t32 31.5v279h175v-470zM272 620q0 -34 -25.5 -59.5t-59.5 -25.5t-60 25.5t-26 59.5t26 59.5t60 25.5t59.5 -25.5t25.5 -59.5zM483 620
q0 -34 -25.5 -59.5t-60.5 -25.5q-34 0 -59.5 25.5t-25.5 59.5t25.5 59.5t59.5 25.5q35 0 60.5 -25.5t25.5 -59.5z" />
    <glyph glyph-name="yacute" unicode="&#xfd;" horiz-adv-x="579" 
d="M554 20q0 -101 -78.5 -165.5t-197.5 -64.5q-71 0 -139.5 19.5t-118.5 54.5l76 131q39 -28 79 -42t82 -14q58 0 92.5 26.5t34.5 69.5q0 14 -3.5 27.5t-10.5 27.5q-20 -38 -57.5 -59t-85.5 -21q-82 0 -131.5 55.5t-49.5 147.5v257h175v-229q0 -35 16 -53.5t45 -18.5
q20 0 36.5 10t30.5 31v260h175v-311l4 -10q12 -31 19 -64.5t7 -64.5zM228 525l-57 90l200 147l74 -126z" />
    <glyph glyph-name="thorn" unicode="&#xfe;" horiz-adv-x="591" 
d="M564 235q0 -106 -59.5 -175.5t-151.5 -69.5q-36 0 -67 14t-56 41v-245h-175v905h175v-280q23 27 54.5 41t68.5 14q92 0 151.5 -69.5t59.5 -175.5zM309 325q-37 0 -61 -25.5t-24 -64.5t24 -64.5t61 -25.5q36 0 60.5 25.5t24.5 64.5t-24.5 64.5t-60.5 25.5z" />
    <glyph glyph-name="ydieresis" unicode="&#xff;" horiz-adv-x="579" 
d="M554 20q0 -101 -78.5 -165.5t-197.5 -64.5q-71 0 -139.5 19.5t-118.5 54.5l76 131q39 -28 79 -42t82 -14q58 0 92.5 26.5t34.5 69.5q0 14 -3.5 27.5t-10.5 27.5q-20 -38 -57.5 -59t-85.5 -21q-82 0 -131.5 55.5t-49.5 147.5v257h175v-229q0 -35 16 -53.5t45 -18.5
q20 0 36.5 10t30.5 31v260h175v-311l4 -10q12 -31 19 -64.5t7 -64.5zM276 620q0 -34 -25.5 -59.5t-59.5 -25.5t-60 25.5t-26 59.5t26 59.5t60 25.5t59.5 -25.5t25.5 -59.5zM487 620q0 -34 -25.5 -59.5t-60.5 -25.5q-34 0 -59.5 25.5t-25.5 59.5t25.5 59.5t59.5 25.5
q35 0 60.5 -25.5t25.5 -59.5z" />
    <glyph glyph-name="Amacron" unicode="&#x100;" horiz-adv-x="729" 
d="M723 0h-187l-40 107h-273l-40 -107h-177l270 685h177zM360 472l-79 -211h157zM221 891h298v-118h-298v118z" />
    <glyph glyph-name="amacron" unicode="&#x101;" horiz-adv-x="591" 
d="M536 0h-155l-18 57q-24 -33 -55.5 -50t-69.5 -17q-91 0 -151 70t-60 175t60 175t151 70q38 0 70 -17t55 -49l18 56h155v-470zM197 235q0 -39 24.5 -64.5t60.5 -25.5q37 0 61 25.5t24 64.5t-24 64.5t-61 25.5q-36 0 -60.5 -25.5t-24.5 -64.5zM147 676h298v-118h-298v118z
" />
    <glyph glyph-name="Abreve" unicode="&#x102;" horiz-adv-x="729" 
d="M723 0h-187l-40 107h-273l-40 -107h-177l270 685h177zM360 472l-79 -211h157zM370 855q20 0 31 14.5t11 40.5v10h121v-20q0 -68 -45.5 -111.5t-117.5 -43.5t-117.5 43.5t-45.5 111.5v20h121v-10q0 -26 11 -40.5t31 -14.5z" />
    <glyph glyph-name="abreve" unicode="&#x103;" horiz-adv-x="591" 
d="M536 0h-155l-18 57q-24 -33 -55.5 -50t-69.5 -17q-91 0 -151 70t-60 175t60 175t151 70q38 0 70 -17t55 -49l18 56h155v-470zM197 235q0 -39 24.5 -64.5t60.5 -25.5q37 0 61 25.5t24 64.5t-24 64.5t-61 25.5q-36 0 -60.5 -25.5t-24.5 -64.5zM296 640q20 0 31 14.5
t11 40.5v10h121v-20q0 -68 -45.5 -111.5t-117.5 -43.5t-117.5 43.5t-45.5 111.5v20h121v-10q0 -26 11 -40.5t31 -14.5z" />
    <glyph glyph-name="Aogonek" unicode="&#x104;" horiz-adv-x="729" 
d="M706 -112l33 -88q-21 -11 -44 -16.5t-48 -5.5q-59 0 -94 28t-35 76q0 36 19 67t54 51h-55l-40 107h-273l-40 -107h-177l270 685h177l270 -685q-35 -19 -55.5 -42.5t-20.5 -44.5q0 -14 8.5 -22.5t21.5 -8.5q7 0 14 1.5t15 4.5zM360 472l-79 -211h157z" />
    <glyph glyph-name="aogonek" unicode="&#x105;" horiz-adv-x="591" 
d="M519 -112l33 -88q-21 -11 -44 -16.5t-48 -5.5q-59 0 -94 28t-35 76q0 36 19 67t54 51h-23l-18 57q-24 -33 -55.5 -50t-69.5 -17q-91 0 -151 70t-60 175t60 175t151 70q38 0 70 -17t55 -49l18 56h155v-470q-35 -19 -55.5 -42.5t-20.5 -44.5q0 -14 8.5 -22.5t21.5 -8.5
q7 0 14 1.5t15 4.5zM197 235q0 -39 24.5 -64.5t60.5 -25.5q37 0 61 25.5t24 64.5t-24 64.5t-61 25.5q-36 0 -60.5 -25.5t-24.5 -64.5z" />
    <glyph glyph-name="Cacute" unicode="&#x106;" horiz-adv-x="665" 
d="M216 342q0 -80 50 -134t123 -54q42 0 77 17t74 56l111 -120q-58 -60 -122 -88.5t-140 -28.5q-153 0 -255.5 100.5t-102.5 251.5t102.5 252t255.5 101q72 0 135.5 -27.5t116.5 -80.5l-109 -120q-33 33 -67.5 48.5t-75.5 15.5q-74 0 -123.5 -54t-49.5 -135zM293 740l-57 90
l200 147l74 -126z" />
    <glyph glyph-name="cacute" unicode="&#x107;" horiz-adv-x="478" 
d="M198 235q0 -38 22.5 -62t57.5 -24q24 0 43.5 8.5t37.5 26.5l112 -112q-40 -42 -87.5 -62t-105.5 -20q-110 0 -182.5 69.5t-72.5 175.5t72.5 175.5t182.5 69.5q49 0 97 -20t86 -57l-112 -112q-15 15 -33 22.5t-38 7.5q-35 0 -57.5 -24t-22.5 -62zM191 525l-57 90l200 147
l74 -126z" />
    <glyph glyph-name="Ccircumflex" unicode="&#x108;" horiz-adv-x="665" 
d="M216 342q0 -80 50 -134t123 -54q42 0 77 17t74 56l111 -120q-58 -60 -122 -88.5t-140 -28.5q-153 0 -255.5 100.5t-102.5 251.5t102.5 252t255.5 101q72 0 135.5 -27.5t116.5 -80.5l-109 -120q-33 33 -67.5 48.5t-75.5 15.5q-74 0 -123.5 -54t-49.5 -135zM368 972
l182 -157l-67 -80l-116 84l-114 -84l-67 80z" />
    <glyph glyph-name="ccircumflex" unicode="&#x109;" horiz-adv-x="478" 
d="M198 235q0 -38 22.5 -62t57.5 -24q24 0 43.5 8.5t37.5 26.5l112 -112q-40 -42 -87.5 -62t-105.5 -20q-110 0 -182.5 69.5t-72.5 175.5t72.5 175.5t182.5 69.5q49 0 97 -20t86 -57l-112 -112q-15 15 -33 22.5t-38 7.5q-35 0 -57.5 -24t-22.5 -62zM264 757l182 -157
l-67 -80l-116 84l-114 -84l-67 80z" />
    <glyph glyph-name="Cdotaccent" unicode="&#x10a;" horiz-adv-x="665" 
d="M216 342q0 -80 50 -134t123 -54q42 0 77 17t74 56l111 -120q-58 -60 -122 -88.5t-140 -28.5q-153 0 -255.5 100.5t-102.5 251.5t102.5 252t255.5 101q72 0 135.5 -27.5t116.5 -80.5l-109 -120q-33 33 -67.5 48.5t-75.5 15.5q-74 0 -123.5 -54t-49.5 -135zM464 840
q0 -38 -28.5 -66.5t-66.5 -28.5t-66.5 29t-28.5 66q0 38 28.5 66.5t66.5 28.5t66.5 -28.5t28.5 -66.5z" />
    <glyph glyph-name="cdotaccent" unicode="&#x10b;" horiz-adv-x="478" 
d="M198 235q0 -38 22.5 -62t57.5 -24q24 0 43.5 8.5t37.5 26.5l112 -112q-40 -42 -87.5 -62t-105.5 -20q-110 0 -182.5 69.5t-72.5 175.5t72.5 175.5t182.5 69.5q49 0 97 -20t86 -57l-112 -112q-15 15 -33 22.5t-38 7.5q-35 0 -57.5 -24t-22.5 -62zM360 625
q0 -38 -28.5 -66.5t-66.5 -28.5t-66.5 29t-28.5 66q0 38 28.5 66.5t66.5 28.5t66.5 -28.5t28.5 -66.5z" />
    <glyph glyph-name="Ccaron" unicode="&#x10c;" horiz-adv-x="665" 
d="M216 342q0 -80 50 -134t123 -54q42 0 77 17t74 56l111 -120q-58 -60 -122 -88.5t-140 -28.5q-153 0 -255.5 100.5t-102.5 251.5t102.5 252t255.5 101q72 0 135.5 -27.5t116.5 -80.5l-109 -120q-33 33 -67.5 48.5t-75.5 15.5q-74 0 -123.5 -54t-49.5 -135zM483 972l67 -80
l-182 -157l-182 157l67 80l116 -84z" />
    <glyph glyph-name="ccaron" unicode="&#x10d;" horiz-adv-x="478" 
d="M198 235q0 -38 22.5 -62t57.5 -24q24 0 43.5 8.5t37.5 26.5l112 -112q-40 -42 -87.5 -62t-105.5 -20q-110 0 -182.5 69.5t-72.5 175.5t72.5 175.5t182.5 69.5q49 0 97 -20t86 -57l-112 -112q-15 15 -33 22.5t-38 7.5q-35 0 -57.5 -24t-22.5 -62zM381 757l67 -80
l-182 -157l-182 157l67 80l116 -84z" />
    <glyph glyph-name="Dcaron" unicode="&#x10e;" horiz-adv-x="711" 
d="M287 0h-217v685h217q185 0 288.5 -90.5t103.5 -252.5q0 -161 -103.5 -251.5t-288.5 -90.5zM494 342q0 89 -51 134t-151 45h-42v-357h42q100 0 151 45t51 133zM458 972l67 -80l-182 -157l-182 157l67 80l116 -84z" />
    <glyph glyph-name="dcaron" unicode="&#x10f;" horiz-adv-x="721" 
d="M536 0h-155l-18 56q-24 -32 -55.5 -49t-69.5 -17q-92 0 -151.5 69.5t-59.5 175.5t59.5 175.5t151.5 69.5q37 0 68.5 -16t54.5 -47v288h175v-705zM197 235q0 -39 24.5 -64.5t60.5 -25.5q37 0 61 25.5t24 64.5t-24 64.5t-61 25.5q-36 0 -60.5 -25.5t-24.5 -64.5zM731 705
l-20 -198h-121v198h141z" />
    <glyph glyph-name="Dcroat" unicode="&#x110;" horiz-adv-x="751" 
d="M20 262v159h90v264h217q185 0 288.5 -90.5t103.5 -252.5q0 -161 -103.5 -251.5t-288.5 -90.5h-217v262h-90zM410 421v-159h-120v-98h42q100 0 151 45t51 133q0 89 -51 134t-151 45h-42v-100h120z" />
    <glyph glyph-name="dcroat" unicode="&#x111;" horiz-adv-x="610" 
d="M536 0h-155l-18 56q-24 -32 -55.5 -49t-69.5 -17q-92 0 -151.5 69.5t-59.5 175.5t59.5 175.5t151.5 69.5q37 0 68.5 -16t54.5 -47v103h-143v115h143v70h175v-70h74v-115h-74v-520zM197 235q0 -39 24.5 -64.5t60.5 -25.5q37 0 61 25.5t24 64.5t-24 64.5t-61 25.5
q-36 0 -60.5 -25.5t-24.5 -64.5z" />
    <glyph glyph-name="Emacron" unicode="&#x112;" horiz-adv-x="563" 
d="M518 0h-448v685h448v-159h-268v-100h238v-159h-238v-108h268v-159zM141 891h298v-118h-298v118z" />
    <glyph glyph-name="emacron" unicode="&#x113;" horiz-adv-x="535" 
d="M388 168l95 -101q-37 -37 -87.5 -57t-106.5 -20q-117 0 -191.5 69t-74.5 176q0 105 71.5 175t178.5 70q104 0 173 -69t69 -173q0 -15 -1.5 -30t-3.5 -24h-328q12 -29 37.5 -44t63.5 -15q34 0 59 10.5t46 32.5zM268 349q-31 0 -53.5 -16t-33.5 -46h179q-10 30 -33 46
t-59 16zM113 676h298v-118h-298v118z" />
    <glyph glyph-name="Ebreve" unicode="&#x114;" horiz-adv-x="563" 
d="M518 0h-448v685h448v-159h-268v-100h238v-159h-238v-108h268v-159zM289 855q20 0 31 14.5t11 40.5v10h121v-20q0 -68 -45.5 -111.5t-117.5 -43.5t-117.5 43.5t-45.5 111.5v20h121v-10q0 -26 11 -40.5t31 -14.5z" />
    <glyph glyph-name="ebreve" unicode="&#x115;" horiz-adv-x="535" 
d="M388 168l95 -101q-37 -37 -87.5 -57t-106.5 -20q-117 0 -191.5 69t-74.5 176q0 105 71.5 175t178.5 70q104 0 173 -69t69 -173q0 -15 -1.5 -30t-3.5 -24h-328q12 -29 37.5 -44t63.5 -15q34 0 59 10.5t46 32.5zM268 349q-31 0 -53.5 -16t-33.5 -46h179q-10 30 -33 46
t-59 16zM262 640q20 0 31 14.5t11 40.5v10h121v-20q0 -68 -45.5 -111.5t-117.5 -43.5t-117.5 43.5t-45.5 111.5v20h121v-10q0 -26 11 -40.5t31 -14.5z" />
    <glyph glyph-name="Edotaccent" unicode="&#x116;" horiz-adv-x="563" 
d="M518 0h-448v685h448v-159h-268v-100h238v-159h-238v-108h268v-159zM385 840q0 -38 -28.5 -66.5t-66.5 -28.5t-66.5 29t-28.5 66q0 38 28.5 66.5t66.5 28.5t66.5 -28.5t28.5 -66.5z" />
    <glyph glyph-name="edotaccent" unicode="&#x117;" horiz-adv-x="535" 
d="M388 168l95 -101q-37 -37 -87.5 -57t-106.5 -20q-117 0 -191.5 69t-74.5 176q0 105 71.5 175t178.5 70q104 0 173 -69t69 -173q0 -15 -1.5 -30t-3.5 -24h-328q12 -29 37.5 -44t63.5 -15q34 0 59 10.5t46 32.5zM268 349q-31 0 -53.5 -16t-33.5 -46h179q-10 30 -33 46
t-59 16zM357 625q0 -38 -28.5 -66.5t-66.5 -28.5t-66.5 29t-28.5 66q0 38 28.5 66.5t66.5 28.5t66.5 -28.5t28.5 -66.5z" />
    <glyph glyph-name="Eogonek" unicode="&#x118;" horiz-adv-x="563" 
d="M501 -112l33 -88q-21 -11 -44 -16.5t-48 -5.5q-59 0 -94 28t-35 76q0 36 19 67t54 51h-316v685h448v-159h-268v-100h238v-159h-238v-108h268v-159q-35 -19 -55.5 -42.5t-20.5 -44.5q0 -14 8.5 -22.5t21.5 -8.5q7 0 14 1.5t15 4.5z" />
    <glyph glyph-name="eogonek" unicode="&#x119;" horiz-adv-x="535" 
d="M431 -112l33 -88q-21 -11 -44 -16.5t-48 -5.5q-59 0 -94 28t-35 76q0 26 11.5 53.5t34.5 54.5q-117 0 -191.5 69t-74.5 176q0 105 71.5 175t178.5 70q104 0 173 -69t69 -173q0 -15 -1.5 -30t-3.5 -24h-328q12 -29 37.5 -44t63.5 -15q34 0 59 10.5t46 32.5l95 -101
l-49 -46q-36 -34 -53 -58.5t-17 -43.5q0 -16 10.5 -26.5t27.5 -10.5q7 0 14 1.5t15 4.5zM268 349q-31 0 -54 -16.5t-33 -45.5h179q-9 30 -32.5 46t-59.5 16z" />
    <glyph glyph-name="Ecaron" unicode="&#x11a;" horiz-adv-x="563" 
d="M518 0h-448v685h448v-159h-268v-100h238v-159h-238v-108h268v-159zM405 972l67 -80l-182 -157l-182 157l67 80l116 -84z" />
    <glyph glyph-name="ecaron" unicode="&#x11b;" horiz-adv-x="535" 
d="M388 168l95 -101q-37 -37 -87.5 -57t-106.5 -20q-117 0 -191.5 69t-74.5 176q0 105 71.5 175t178.5 70q104 0 173 -69t69 -173q0 -15 -1.5 -30t-3.5 -24h-328q12 -29 37.5 -44t63.5 -15q34 0 59 10.5t46 32.5zM268 349q-31 0 -53.5 -16t-33.5 -46h179q-10 30 -33 46
t-59 16zM377 757l67 -80l-182 -157l-182 157l67 80l116 -84z" />
    <glyph glyph-name="Gcircumflex" unicode="&#x11c;" horiz-adv-x="748" 
d="M723 342q0 -152 -94.5 -252t-238.5 -100q-154 0 -256.5 100.5t-102.5 251.5t102.5 252t255.5 101q72 0 135.5 -27.5t116.5 -80.5l-109 -120q-33 33 -67.5 48.5t-75.5 15.5q-74 0 -123.5 -54t-49.5 -135q0 -80 50 -134t124 -54q49 0 84.5 23t54.5 66h-159v149h351
q1 -8 1.5 -23.5t0.5 -26.5zM373 972l182 -157l-67 -80l-116 84l-114 -84l-67 80z" />
    <glyph glyph-name="gcircumflex" unicode="&#x11d;" horiz-adv-x="584" 
d="M554 20q0 -103 -78.5 -166.5t-205.5 -63.5q-74 0 -142 19.5t-118 54.5l76 131q43 -28 87.5 -42t86.5 -14q56 0 90 26.5t34 69.5q0 15 -4 30t-13 32q-23 -42 -59.5 -64.5t-80.5 -22.5q-85 0 -143.5 67.5t-58.5 167.5q0 99 58.5 167t143.5 68q37 0 69 -16t56 -47l17 53h155
v-311l4 -10q12 -31 19 -64.5t7 -64.5zM195 245q0 -36 22 -59.5t56 -23.5q35 0 58.5 23.5t23.5 59.5t-23.5 59.5t-58.5 23.5q-34 0 -56 -23.5t-22 -59.5zM293 757l182 -157l-67 -80l-116 84l-114 -84l-67 80z" />
    <glyph glyph-name="Gbreve" unicode="&#x11e;" horiz-adv-x="748" 
d="M723 342q0 -152 -94.5 -252t-238.5 -100q-154 0 -256.5 100.5t-102.5 251.5t102.5 252t255.5 101q72 0 135.5 -27.5t116.5 -80.5l-109 -120q-33 33 -67.5 48.5t-75.5 15.5q-74 0 -123.5 -54t-49.5 -135q0 -80 50 -134t124 -54q49 0 84.5 23t54.5 66h-159v149h351
q1 -8 1.5 -23.5t0.5 -26.5zM373 855q20 0 31 14.5t11 40.5v10h121v-20q0 -68 -45.5 -111.5t-117.5 -43.5t-117.5 43.5t-45.5 111.5v20h121v-10q0 -26 11 -40.5t31 -14.5z" />
    <glyph glyph-name="gbreve" unicode="&#x11f;" horiz-adv-x="584" 
d="M554 20q0 -103 -78.5 -166.5t-205.5 -63.5q-74 0 -142 19.5t-118 54.5l76 131q43 -28 87.5 -42t86.5 -14q56 0 90 26.5t34 69.5q0 15 -4 30t-13 32q-23 -42 -59.5 -64.5t-80.5 -22.5q-85 0 -143.5 67.5t-58.5 167.5q0 99 58.5 167t143.5 68q37 0 69 -16t56 -47l17 53h155
v-311l4 -10q12 -31 19 -64.5t7 -64.5zM195 245q0 -36 22 -59.5t56 -23.5q35 0 58.5 23.5t23.5 59.5t-23.5 59.5t-58.5 23.5q-34 0 -56 -23.5t-22 -59.5zM295 640q20 0 31 14.5t11 40.5v10h121v-20q0 -68 -45.5 -111.5t-117.5 -43.5t-117.5 43.5t-45.5 111.5v20h121v-10
q0 -26 11 -40.5t31 -14.5z" />
    <glyph glyph-name="Gdotaccent" unicode="&#x120;" horiz-adv-x="748" 
d="M723 342q0 -152 -94.5 -252t-238.5 -100q-154 0 -256.5 100.5t-102.5 251.5t102.5 252t255.5 101q72 0 135.5 -27.5t116.5 -80.5l-109 -120q-33 33 -67.5 48.5t-75.5 15.5q-74 0 -123.5 -54t-49.5 -135q0 -80 50 -134t124 -54q49 0 84.5 23t54.5 66h-159v149h351
q1 -8 1.5 -23.5t0.5 -26.5zM468 840q0 -38 -28.5 -66.5t-66.5 -28.5t-66.5 29t-28.5 66q0 38 28.5 66.5t66.5 28.5t66.5 -28.5t28.5 -66.5z" />
    <glyph glyph-name="gdotaccent" unicode="&#x121;" horiz-adv-x="584" 
d="M554 20q0 -103 -78.5 -166.5t-205.5 -63.5q-74 0 -142 19.5t-118 54.5l76 131q43 -28 87.5 -42t86.5 -14q56 0 90 26.5t34 69.5q0 15 -4 30t-13 32q-23 -42 -59.5 -64.5t-80.5 -22.5q-85 0 -143.5 67.5t-58.5 167.5q0 99 58.5 167t143.5 68q37 0 69 -16t56 -47l17 53h155
v-311l4 -10q12 -31 19 -64.5t7 -64.5zM195 245q0 -36 22 -59.5t56 -23.5q35 0 58.5 23.5t23.5 59.5t-23.5 59.5t-58.5 23.5q-34 0 -56 -23.5t-22 -59.5zM390 625q0 -38 -28.5 -66.5t-66.5 -28.5t-66.5 29t-28.5 66q0 38 28.5 66.5t66.5 28.5t66.5 -28.5t28.5 -66.5z" />
    <glyph glyph-name="Gcommaaccent" unicode="&#x122;" horiz-adv-x="748" 
d="M723 342q0 -152 -94.5 -252t-238.5 -100q-154 0 -256.5 100.5t-102.5 251.5t102.5 252t255.5 101q72 0 135.5 -27.5t116.5 -80.5l-109 -120q-33 33 -67.5 48.5t-75.5 15.5q-74 0 -123.5 -54t-49.5 -135q0 -80 50 -134t124 -54q49 0 84.5 23t54.5 66h-159v149h351
q1 -8 1.5 -23.5t0.5 -26.5zM374 -44q37 0 63 -27t26 -65q0 -24 -8 -46t-27 -47l-65 -89l-80 46l44 72q-19 11 -29.5 30t-10.5 42q0 35 25.5 59.5t61.5 24.5z" />
    <glyph glyph-name="gcommaaccent" unicode="&#x123;" horiz-adv-x="584" 
d="M554 20q0 -103 -78.5 -166.5t-205.5 -63.5q-74 0 -142 19.5t-118 54.5l76 131q43 -28 87.5 -42t86.5 -14q56 0 90 26.5t34 69.5q0 15 -4 30t-13 32q-23 -42 -59.5 -64.5t-80.5 -22.5q-85 0 -143.5 67.5t-58.5 167.5q0 99 58.5 167t143.5 68q37 0 69 -16t56 -47l17 53h155
v-311l4 -10q12 -31 19 -64.5t7 -64.5zM195 245q0 -36 22 -59.5t56 -23.5q35 0 58.5 23.5t23.5 59.5t-23.5 59.5t-58.5 23.5q-34 0 -56 -23.5t-22 -59.5zM294 520q-37 0 -63 27t-26 65q0 24 8 46t27 47l65 89l80 -46l-44 -73q19 -11 29.5 -30t10.5 -41q0 -35 -25.5 -59.5
t-61.5 -24.5z" />
    <glyph glyph-name="Hcircumflex" unicode="&#x124;" horiz-adv-x="752" 
d="M682 0h-180v271h-252v-271h-180v685h180v-255h252v255h180v-685zM376 972l182 -157l-67 -80l-116 84l-114 -84l-67 80z" />
    <glyph glyph-name="hcircumflex" unicode="&#x125;" horiz-adv-x="585" 
d="M304 321q-22 0 -40.5 -11.5t-33.5 -34.5v-275h-175v705h175v-297q26 34 61 53t73 19q80 0 127.5 -56t47.5 -150v-274h-170v246q0 36 -17 55.5t-48 19.5zM305 982l182 -157l-67 -80l-116 84l-114 -84l-67 80z" />
    <glyph glyph-name="Hbar" unicode="&#x126;" horiz-adv-x="752" 
d="M502 271h-252v-271h-180v497h-85v123h85v65h180v-65h252v65h180v-65h85v-123h-85v-497h-180v271zM250 497v-67h252v67h-252z" />
    <glyph glyph-name="hbar" unicode="&#x127;" horiz-adv-x="604" 
d="M323 321q-22 0 -40.5 -11.5t-33.5 -34.5v-275h-175v520h-74v115h74v70h175v-70h143v-115h-143v-112q26 34 61 53t73 19q80 0 127.5 -56t47.5 -150v-274h-170v246q0 36 -17 55.5t-48 19.5z" />
    <glyph glyph-name="Itilde" unicode="&#x128;" horiz-adv-x="320" 
d="M250 0h-180v685h180v-685zM226 763q-16 0 -31 3.5t-40 15.5q-18 8 -27 10.5t-17 2.5q-14 0 -24 -9.5t-19 -32.5l-99 46q26 65 55 93t70 28q16 0 31 -3.5t40 -15.5q18 -8 27 -10.5t17 -2.5q14 0 24 9.5t19 32.5l99 -46q-26 -65 -55 -93t-70 -28z" />
    <glyph glyph-name="itilde" unicode="&#x129;" horiz-adv-x="285" 
d="M55 470h175v-470h-175v470zM208 548q-16 0 -31 3.5t-40 15.5q-18 8 -27 10.5t-17 2.5q-14 0 -24 -9.5t-19 -32.5l-99 46q26 65 55 93t70 28q16 0 31 -3.5t40 -15.5q18 -8 27 -10.5t17 -2.5q14 0 24 9.5t19 32.5l99 -46q-26 -65 -55 -93t-70 -28z" />
    <glyph glyph-name="Imacron" unicode="&#x12a;" horiz-adv-x="320" 
d="M250 0h-180v685h180v-685zM11 891h298v-118h-298v118z" />
    <glyph glyph-name="imacron" unicode="&#x12b;" horiz-adv-x="285" 
d="M55 470h175v-470h-175v470zM-7 676h298v-118h-298v118z" />
    <glyph glyph-name="Ibreve" unicode="&#x12c;" horiz-adv-x="320" 
d="M250 0h-180v685h180v-685zM160 855q20 0 31 14.5t11 40.5v10h121v-20q0 -68 -45.5 -111.5t-117.5 -43.5t-117.5 43.5t-45.5 111.5v20h121v-10q0 -26 11 -40.5t31 -14.5z" />
    <glyph glyph-name="ibreve" unicode="&#x12d;" horiz-adv-x="285" 
d="M55 470h175v-470h-175v470zM142 640q20 0 31 14.5t11 40.5v10h121v-20q0 -68 -45.5 -111.5t-117.5 -43.5t-117.5 43.5t-45.5 111.5v20h121v-10q0 -26 11 -40.5t31 -14.5z" />
    <glyph glyph-name="Iogonek" unicode="&#x12e;" horiz-adv-x="320" 
d="M233 -112l33 -88q-21 -11 -44 -16.5t-48 -5.5q-59 0 -94 28t-35 76q0 36 19 67t54 51h-48v685h180v-685q-35 -19 -55.5 -42.5t-20.5 -44.5q0 -14 8.5 -22.5t21.5 -8.5q7 0 14 1.5t15 4.5z" />
    <glyph glyph-name="iogonek" unicode="&#x12f;" horiz-adv-x="285" 
d="M242 615q0 -41 -29.5 -70.5t-70.5 -29.5t-70.5 29.5t-29.5 70.5t29.5 70.5t70.5 29.5t70.5 -29.5t29.5 -70.5zM213 -112l33 -88q-21 -11 -44 -16.5t-48 -5.5q-59 0 -94 28t-35 76q0 36 19 67t54 51h-43v470h175v-470q-35 -19 -55.5 -42.5t-20.5 -44.5q0 -14 8.5 -22.5
t21.5 -8.5q7 0 14 1.5t15 4.5z" />
    <glyph glyph-name="Idotaccent" unicode="&#x130;" horiz-adv-x="320" 
d="M250 0h-180v685h180v-685zM255 840q0 -38 -28.5 -66.5t-66.5 -28.5t-66.5 29t-28.5 66q0 38 28.5 66.5t66.5 28.5t66.5 -28.5t28.5 -66.5z" />
    <glyph glyph-name="dotlessi" unicode="&#x131;" horiz-adv-x="285" 
d="M55 470h175v-470h-175v470z" />
    <glyph glyph-name="IJ" unicode="&#x132;" horiz-adv-x="662" 
d="M250 310h-180v375h180v-375zM350 -10q-60 0 -113 23.5t-99 70.5l109 120q24 -25 49 -37.5t52 -12.5q38 0 58 22.5t20 65.5v443h180v-445q0 -123 -65 -186.5t-191 -63.5z" />
    <glyph glyph-name="ij" unicode="&#x133;" horiz-adv-x="600" 
d="M242 615q0 -41 -29.5 -70.5t-70.5 -29.5t-70.5 29.5t-29.5 70.5t29.5 70.5t70.5 29.5t70.5 -29.5t29.5 -70.5zM55 470h175v-470h-175v470zM557 615q0 -41 -29.5 -70.5t-70.5 -29.5t-70.5 29.5t-29.5 70.5t29.5 70.5t70.5 29.5t70.5 -29.5t29.5 -70.5zM316 -51
q26 0 40 19.5t14 53.5v448h175v-463q0 -104 -54.5 -160.5t-154.5 -56.5q-43 0 -85 14t-73 39l85 125q15 -10 28 -14.5t25 -4.5z" />
    <glyph glyph-name="Jcircumflex" unicode="&#x134;" horiz-adv-x="529" 
d="M217 -10q-60 0 -113 23.5t-99 70.5l109 120q24 -25 49 -37.5t52 -12.5q38 0 58 22.5t20 65.5v443h180v-445q0 -123 -65 -186.5t-191 -63.5zM381 972l182 -157l-67 -80l-116 84l-114 -84l-67 80z" />
    <glyph glyph-name="jcircumflex" unicode="&#x135;" horiz-adv-x="286" 
d="M2 -51q26 0 40 19.5t14 53.5v448h175v-463q0 -104 -54.5 -160.5t-154.5 -56.5q-43 0 -85 14t-73 39l85 125q15 -10 28 -14.5t25 -4.5zM153 757l182 -157l-67 -80l-116 84l-114 -84l-67 80z" />
    <glyph glyph-name="Kcommaaccent" unicode="&#x136;" horiz-adv-x="690" 
d="M685 0h-207l-164 276q-15 -3 -31.5 -4.5t-32.5 -1.5v-270h-180v685h180v-256q39 1 61.5 15t45.5 52l112 189h194l-114 -187q-26 -43 -48 -74.5t-42 -55.5zM360 -44q37 0 63 -27t26 -65q0 -24 -8 -46t-27 -47l-65 -89l-80 46l44 72q-19 11 -29.5 30t-10.5 42
q0 35 25.5 59.5t61.5 24.5z" />
    <glyph glyph-name="kcommaaccent" unicode="&#x137;" horiz-adv-x="583" 
d="M240 163h-10v-163h-175v705h175v-383h10q39 0 58.5 12.5t35.5 45.5l42 90h181l-42 -88q-24 -51 -44 -84t-39 -55l151 -243h-198l-95 166q-12 -2 -24.5 -2.5t-25.5 -0.5zM315 -44q37 0 63 -27t26 -65q0 -24 -8 -46t-27 -47l-65 -89l-80 46l44 72q-19 11 -29.5 30t-10.5 42
q0 35 25.5 59.5t61.5 24.5z" />
    <glyph glyph-name="kgreenlandic" unicode="&#x138;" horiz-adv-x="583" 
d="M240 163h-10v-163h-175v470h175v-148h10q39 0 58.5 12.5t35.5 45.5l42 90h181l-42 -88q-24 -51 -44 -84t-39 -55l151 -243h-198l-95 166q-12 -2 -24.5 -2.5t-25.5 -0.5z" />
    <glyph glyph-name="Lacute" unicode="&#x139;" horiz-adv-x="548" 
d="M250 159h278v-159h-458v685h180v-526zM97 740l-57 90l200 147l74 -126z" />
    <glyph glyph-name="lacute" unicode="&#x13a;" horiz-adv-x="285" 
d="M55 705h175v-705h-175v705zM75 740l-57 90l200 147l74 -126z" />
    <glyph glyph-name="Lcommaaccent" unicode="&#x13b;" horiz-adv-x="548" 
d="M250 159h278v-159h-458v685h180v-526zM290 -44q37 0 63 -27t26 -65q0 -24 -8 -46t-27 -47l-65 -89l-80 46l44 72q-19 11 -29.5 30t-10.5 42q0 35 25.5 59.5t61.5 24.5z" />
    <glyph glyph-name="lcommaaccent" unicode="&#x13c;" horiz-adv-x="285" 
d="M55 705h175v-705h-175v705zM143 -44q37 0 63 -27t26 -65q0 -24 -8 -46t-27 -47l-65 -89l-80 46l44 72q-19 11 -29.5 30t-10.5 42q0 35 25.5 59.5t61.5 24.5z" />
    <glyph glyph-name="Lcaron" unicode="&#x13d;" horiz-adv-x="548" 
d="M250 159h278v-159h-458v685h180v-526zM483 685l-20 -198h-121v198h141z" />
    <glyph glyph-name="lcaron" unicode="&#x13e;" horiz-adv-x="415" 
d="M55 705h175v-705h-175v705zM425 705l-20 -198h-121v198h141z" />
    <glyph glyph-name="Ldot" unicode="&#x13f;" horiz-adv-x="548" 
d="M250 159h278v-159h-458v685h180v-526zM528 385q0 -39 -28 -67t-67 -28t-67 28t-28 67t28 67t67 28t67 -28t28 -67z" />
    <glyph glyph-name="ldot" unicode="&#x140;" horiz-adv-x="445" 
d="M55 705h175v-705h-175v705zM460 328q0 -39 -28 -67t-67 -28t-67 28t-28 67t28 67t67 28t67 -28t28 -67z" />
    <glyph glyph-name="Lslash" unicode="&#x141;" horiz-adv-x="591" 
d="M293 159h278v-159h-458v251l-63 -20l-45 141l108 35v278h180v-220l110 35l45 -141l-155 -50v-150z" />
    <glyph glyph-name="lslash" unicode="&#x142;" horiz-adv-x="392" 
d="M327 494l60 -129l-103 -48v-317h-175v236l-44 -20l-60 129l104 48v312h175v-231z" />
    <glyph glyph-name="Nacute" unicode="&#x143;" horiz-adv-x="736" 
d="M666 0h-172l-254 399v-399h-170v685h172l254 -399v399h170v-685zM305 740l-57 90l200 147l74 -126z" />
    <glyph glyph-name="nacute" unicode="&#x144;" horiz-adv-x="590" 
d="M304 321q-22 0 -40.5 -11.5t-33.5 -34.5v-275h-175v470h155l20 -62q26 34 61 53t73 19q83 0 131.5 -56t48.5 -150v-274h-175v246q0 36 -17 55.5t-48 19.5zM235 525l-57 90l200 147l74 -126z" />
    <glyph glyph-name="Ncommaaccent" unicode="&#x145;" horiz-adv-x="736" 
d="M666 0h-172l-254 399v-399h-170v685h172l254 -399v399h170v-685zM369 -44q37 0 63 -27t26 -65q0 -24 -8 -46t-27 -47l-65 -89l-80 46l44 72q-19 11 -29.5 30t-10.5 42q0 35 25.5 59.5t61.5 24.5z" />
    <glyph glyph-name="ncommaaccent" unicode="&#x146;" horiz-adv-x="590" 
d="M304 321q-22 0 -40.5 -11.5t-33.5 -34.5v-275h-175v470h155l20 -62q26 34 61 53t73 19q83 0 131.5 -56t48.5 -150v-274h-175v246q0 36 -17 55.5t-48 19.5zM296 -44q37 0 63 -27t26 -65q0 -24 -8 -46t-27 -47l-65 -89l-80 46l44 72q-19 11 -29.5 30t-10.5 42
q0 35 25.5 59.5t61.5 24.5z" />
    <glyph glyph-name="Ncaron" unicode="&#x147;" horiz-adv-x="736" 
d="M666 0h-172l-254 399v-399h-170v685h172l254 -399v399h170v-685zM483 972l67 -80l-182 -157l-182 157l67 80l116 -84z" />
    <glyph glyph-name="ncaron" unicode="&#x148;" horiz-adv-x="590" 
d="M304 321q-22 0 -40.5 -11.5t-33.5 -34.5v-275h-175v470h155l20 -62q26 34 61 53t73 19q83 0 131.5 -56t48.5 -150v-274h-175v246q0 36 -17 55.5t-48 19.5zM410 757l67 -80l-182 -157l-182 157l67 80l116 -84z" />
    <glyph glyph-name="napostrophe" unicode="&#x149;" horiz-adv-x="695" 
d="M409 321q-22 0 -40.5 -11.5t-33.5 -34.5v-275h-175v470h155l20 -62q26 34 61 53t73 19q83 0 131.5 -56t48.5 -150v-274h-175v246q0 36 -17 55.5t-48 19.5zM181 685l-86 -270h-125l31 270h180z" />
    <glyph glyph-name="Eng" unicode="&#x14a;" horiz-adv-x="736" 
d="M666 685v-685q-2 -101 -56.5 -155.5t-152.5 -54.5q-43 0 -85 14t-73 39l85 125q15 -10 28 -14.5t25 -4.5q21 0 36.5 13.5t20.5 37.5l-254 399v-399h-170v685h172l254 -399v399h170z" />
    <glyph glyph-name="eng" unicode="&#x14b;" horiz-adv-x="590" 
d="M544 274v-274q-2 -101 -56.5 -155.5t-152.5 -54.5q-43 0 -85 14t-73 39l85 125q15 -10 28 -14.5t25 -4.5q26 0 40 19.5t14 53.5v224q0 36 -17 55.5t-48 19.5q-22 0 -40.5 -11.5t-33.5 -34.5v-275h-175v470h155l20 -62q26 34 61 53t73 19q83 0 131.5 -56t48.5 -150z" />
    <glyph glyph-name="Omacron" unicode="&#x14c;" horiz-adv-x="776" 
d="M31 343q0 150 102.5 251t254.5 101t254.5 -101t102.5 -251q0 -151 -102 -252t-255 -101t-255 101t-102 252zM560 343q0 80 -49.5 134t-122.5 54t-122.5 -54t-49.5 -134q0 -81 49 -135t123 -54t123 54t49 135zM239 891h298v-118h-298v118z" />
    <glyph glyph-name="omacron" unicode="&#x14d;" horiz-adv-x="556" 
d="M533 235q0 -106 -72.5 -175.5t-182.5 -69.5t-182.5 69.5t-72.5 175.5t72.5 175.5t182.5 69.5t182.5 -69.5t72.5 -175.5zM193 235q0 -39 24 -64.5t61 -25.5t61 25.5t24 64.5t-24 64.5t-61 25.5t-61 -25.5t-24 -64.5zM129 676h298v-118h-298v118z" />
    <glyph glyph-name="Obreve" unicode="&#x14e;" horiz-adv-x="776" 
d="M31 343q0 150 102.5 251t254.5 101t254.5 -101t102.5 -251q0 -151 -102 -252t-255 -101t-255 101t-102 252zM560 343q0 80 -49.5 134t-122.5 54t-122.5 -54t-49.5 -134q0 -81 49 -135t123 -54t123 54t49 135zM388 855q20 0 31 14.5t11 40.5v10h121v-20
q0 -68 -45.5 -111.5t-117.5 -43.5t-117.5 43.5t-45.5 111.5v20h121v-10q0 -26 11 -40.5t31 -14.5z" />
    <glyph glyph-name="obreve" unicode="&#x14f;" horiz-adv-x="556" 
d="M533 235q0 -106 -72.5 -175.5t-182.5 -69.5t-182.5 69.5t-72.5 175.5t72.5 175.5t182.5 69.5t182.5 -69.5t72.5 -175.5zM193 235q0 -39 24 -64.5t61 -25.5t61 25.5t24 64.5t-24 64.5t-61 25.5t-61 -25.5t-24 -64.5zM278 640q20 0 31 14.5t11 40.5v10h121v-20
q0 -68 -45.5 -111.5t-117.5 -43.5t-117.5 43.5t-45.5 111.5v20h121v-10q0 -26 11 -40.5t31 -14.5z" />
    <glyph glyph-name="Ohungarumlaut" unicode="&#x150;" horiz-adv-x="776" 
d="M31 343q0 150 102.5 251t254.5 101t254.5 -101t102.5 -251q0 -151 -102 -252t-255 -101t-255 101t-102 252zM560 343q0 80 -49.5 134t-122.5 54t-122.5 -54t-49.5 -134q0 -81 49 -135t123 -54t123 54t49 135zM313 739l-91 55l103 190l118 -74zM517 739l-91 55l103 190
l118 -74z" />
    <glyph glyph-name="ohungarumlaut" unicode="&#x151;" horiz-adv-x="556" 
d="M533 235q0 -106 -72.5 -175.5t-182.5 -69.5t-182.5 69.5t-72.5 175.5t72.5 175.5t182.5 69.5t182.5 -69.5t72.5 -175.5zM193 235q0 -39 24 -64.5t61 -25.5t61 25.5t24 64.5t-24 64.5t-61 25.5t-61 -25.5t-24 -64.5zM193 524l-91 55l103 190l118 -74zM397 524l-91 55
l103 190l118 -74z" />
    <glyph glyph-name="OE" unicode="&#x152;" horiz-adv-x="953" 
d="M31 342q0 162 103.5 252.5t288.5 90.5h485v-159h-268v-100h238v-159h-238v-108h268v-159h-485q-185 0 -288.5 90.5t-103.5 251.5zM216 342q0 -90 51 -136.5t151 -46.5h42v367h-42q-100 0 -151 -46.5t-51 -137.5z" />
    <glyph glyph-name="oe" unicode="&#x153;" horiz-adv-x="876" 
d="M729 168l95 -101q-37 -37 -87.5 -57t-106.5 -20q-54 0 -101.5 16t-83.5 47q-32 -31 -74.5 -47t-92.5 -16q-110 0 -182.5 69.5t-72.5 175.5t72.5 175.5t182.5 69.5q50 0 92.5 -16t73.5 -46q34 30 77.5 46t92.5 16q104 0 173 -69t69 -173q0 -15 -1.5 -30t-3.5 -24h-328
q12 -29 37.5 -44t63.5 -15q34 0 59 10.5t46 32.5zM609 349q-31 0 -53.5 -16t-33.5 -46h179q-10 30 -33 46t-59 16zM193 235q0 -39 24 -64.5t61 -25.5t61 25.5t24 64.5t-24 64.5t-61 25.5t-61 -25.5t-24 -64.5z" />
    <glyph glyph-name="Racute" unicode="&#x154;" horiz-adv-x="632" 
d="M245 0h-175v685h242q119 0 192.5 -59t73.5 -156q0 -62 -28 -109t-81 -73l149 -288h-188l-119 239h-66v-239zM398 462q0 29 -22 46.5t-59 17.5h-72v-128h72q37 0 59 17.5t22 46.5zM250 740l-57 90l200 147l74 -126z" />
    <glyph glyph-name="racute" unicode="&#x155;" horiz-adv-x="405" 
d="M304 295q-23 0 -41.5 -7.5t-32.5 -21.5v-266h-175v470h155l20 -61q24 34 54 52.5t61 18.5q16 0 28.5 -2.5t26.5 -7.5l-49 -183q-13 4 -24.5 6t-22.5 2zM163 525l-57 90l200 147l74 -126z" />
    <glyph glyph-name="Rcommaaccent" unicode="&#x156;" horiz-adv-x="632" 
d="M245 0h-175v685h242q119 0 192.5 -59t73.5 -156q0 -62 -28 -109t-81 -73l149 -288h-188l-119 239h-66v-239zM398 462q0 29 -22 46.5t-59 17.5h-72v-128h72q37 0 59 17.5t22 46.5zM315 -44q37 0 63 -27t26 -65q0 -24 -8 -46t-27 -47l-65 -89l-80 46l44 72q-19 11 -29.5 30
t-10.5 42q0 35 25.5 59.5t61.5 24.5z" />
    <glyph glyph-name="rcommaaccent" unicode="&#x157;" horiz-adv-x="405" 
d="M304 295q-23 0 -41.5 -7.5t-32.5 -21.5v-266h-175v470h155l20 -61q24 34 54 52.5t61 18.5q16 0 28.5 -2.5t26.5 -7.5l-49 -183q-13 4 -24.5 6t-22.5 2zM143 -44q37 0 63 -27t26 -65q0 -24 -8 -46t-27 -47l-65 -89l-80 46l44 72q-19 11 -29.5 30t-10.5 42q0 35 25.5 59.5
t61.5 24.5z" />
    <glyph glyph-name="Rcaron" unicode="&#x158;" horiz-adv-x="632" 
d="M245 0h-175v685h242q119 0 192.5 -59t73.5 -156q0 -62 -28 -109t-81 -73l149 -288h-188l-119 239h-66v-239zM398 462q0 29 -22 46.5t-59 17.5h-72v-128h72q37 0 59 17.5t22 46.5zM429 972l67 -80l-182 -157l-182 157l67 80l116 -84z" />
    <glyph glyph-name="rcaron" unicode="&#x159;" horiz-adv-x="405" 
d="M304 295q-23 0 -41.5 -7.5t-32.5 -21.5v-266h-175v470h155l20 -61q24 34 54 52.5t61 18.5q16 0 28.5 -2.5t26.5 -7.5l-49 -183q-13 4 -24.5 6t-22.5 2zM328 757l67 -80l-182 -157l-182 157l67 80l116 -84z" />
    <glyph glyph-name="Sacute" unicode="&#x15a;" horiz-adv-x="569" 
d="M283 541q-31 0 -49 -12.5t-18 -34.5t26.5 -39t99.5 -42q111 -37 156 -83.5t45 -123.5q0 -91 -73.5 -153.5t-181.5 -62.5q-75 0 -145 27.5t-122 76.5l95 119q38 -35 80.5 -52t91.5 -17q37 0 57.5 14.5t20.5 39.5q0 20 -25 35t-101 41q-111 37 -156 84.5t-45 127.5
q0 89 69.5 149t172.5 60q65 0 127 -25t110 -71l-101 -119q-34 31 -66.5 46t-67.5 15zM214 740l-57 90l200 147l74 -126z" />
    <glyph glyph-name="sacute" unicode="&#x15b;" horiz-adv-x="455" 
d="M41 328q0 66 56.5 109t143.5 43q49 0 98.5 -14.5t88.5 -39.5l-74 -116q-25 18 -58 29.5t-58 11.5q-16 0 -23.5 -4.5t-7.5 -13.5q0 -10 15 -17.5t54 -17.5q82 -21 120.5 -58t38.5 -94q0 -74 -52.5 -115t-147.5 -41q-58 0 -113 16.5t-108 49.5l76 119q33 -24 73.5 -39
t71.5 -15q17 0 26 5t9 14q0 10 -10.5 16.5t-59.5 18.5q-88 22 -123.5 58.5t-35.5 94.5zM155 525l-57 90l200 147l74 -126z" />
    <glyph glyph-name="Scircumflex" unicode="&#x15c;" horiz-adv-x="569" 
d="M283 541q-31 0 -49 -12.5t-18 -34.5t26.5 -39t99.5 -42q111 -37 156 -83.5t45 -123.5q0 -91 -73.5 -153.5t-181.5 -62.5q-75 0 -145 27.5t-122 76.5l95 119q38 -35 80.5 -52t91.5 -17q37 0 57.5 14.5t20.5 39.5q0 20 -25 35t-101 41q-111 37 -156 84.5t-45 127.5
q0 89 69.5 149t172.5 60q65 0 127 -25t110 -71l-101 -119q-34 31 -66.5 46t-67.5 15zM284 972l182 -157l-67 -80l-116 84l-114 -84l-67 80z" />
    <glyph glyph-name="scircumflex" unicode="&#x15d;" horiz-adv-x="455" 
d="M41 328q0 66 56.5 109t143.5 43q49 0 98.5 -14.5t88.5 -39.5l-74 -116q-25 18 -58 29.5t-58 11.5q-16 0 -23.5 -4.5t-7.5 -13.5q0 -10 15 -17.5t54 -17.5q82 -21 120.5 -58t38.5 -94q0 -74 -52.5 -115t-147.5 -41q-58 0 -113 16.5t-108 49.5l76 119q33 -24 73.5 -39
t71.5 -15q17 0 26 5t9 14q0 10 -10.5 16.5t-59.5 18.5q-88 22 -123.5 58.5t-35.5 94.5zM241 757l182 -157l-67 -80l-116 84l-114 -84l-67 80z" />
    <glyph glyph-name="Scedilla" unicode="&#x15e;" horiz-adv-x="569" 
d="M415 -124q0 -45 -34 -72t-92 -27q-33 0 -58 5t-54 18l26 79q20 -9 32.5 -12.5t24.5 -3.5t19 5t7 15t-5.5 14.5t-16.5 4.5l-42 48l13 44q-60 7 -115.5 33t-98.5 67l95 119q38 -35 80.5 -52t91.5 -17q37 0 57.5 14.5t20.5 39.5q0 20 -25 35t-101 41q-111 37 -156 84.5
t-45 127.5q0 89 69.5 149t172.5 60q65 0 127 -25t110 -71l-101 -119q-34 31 -66.5 46t-67.5 15q-31 0 -49 -12.5t-18 -34.5t26.5 -39t99.5 -42q111 -37 156 -83.5t45 -123.5q0 -82 -60.5 -142t-155.5 -72l-7 -24q44 -5 69.5 -30t25.5 -62z" />
    <glyph glyph-name="scedilla" unicode="&#x15f;" horiz-adv-x="455" 
d="M344 -124q0 -45 -34 -72t-92 -27q-33 0 -58 5t-54 18l26 79q20 -9 32.5 -12.5t24.5 -3.5t19 5t7 15t-5.5 14.5t-16.5 4.5l-42 48l14 46q-38 7 -75.5 21.5t-75.5 38.5l76 119q33 -24 73.5 -39t71.5 -15q17 0 26 5t9 14q0 10 -10.5 16.5t-59.5 18.5q-88 22 -123.5 58.5
t-35.5 94.5q0 66 56.5 109t143.5 43q49 0 98.5 -14.5t88.5 -39.5l-74 -116q-25 18 -58 29.5t-58 11.5q-16 0 -23.5 -4.5t-7.5 -13.5q0 -10 15 -17.5t54 -17.5q82 -21 120.5 -58t38.5 -94q0 -69 -46.5 -110t-132.5 -45l-7 -23q44 -5 69.5 -30t25.5 -62z" />
    <glyph glyph-name="Scaron" unicode="&#x160;" horiz-adv-x="569" 
d="M283 541q-31 0 -49 -12.5t-18 -34.5t26.5 -39t99.5 -42q111 -37 156 -83.5t45 -123.5q0 -91 -73.5 -153.5t-181.5 -62.5q-75 0 -145 27.5t-122 76.5l95 119q38 -35 80.5 -52t91.5 -17q37 0 57.5 14.5t20.5 39.5q0 20 -25 35t-101 41q-111 37 -156 84.5t-45 127.5
q0 89 69.5 149t172.5 60q65 0 127 -25t110 -71l-101 -119q-34 31 -66.5 46t-67.5 15zM399 972l67 -80l-182 -157l-182 157l67 80l116 -84z" />
    <glyph glyph-name="scaron" unicode="&#x161;" horiz-adv-x="455" 
d="M41 328q0 66 56.5 109t143.5 43q49 0 98.5 -14.5t88.5 -39.5l-74 -116q-25 18 -58 29.5t-58 11.5q-16 0 -23.5 -4.5t-7.5 -13.5q0 -10 15 -17.5t54 -17.5q82 -21 120.5 -58t38.5 -94q0 -74 -52.5 -115t-147.5 -41q-58 0 -113 16.5t-108 49.5l76 119q33 -24 73.5 -39
t71.5 -15q17 0 26 5t9 14q0 10 -10.5 16.5t-59.5 18.5q-88 22 -123.5 58.5t-35.5 94.5zM366 757l67 -80l-182 -157l-182 157l67 80l116 -84z" />
    <glyph glyph-name="uni0162" unicode="&#x162;" horiz-adv-x="606" 
d="M213 526h-193v159h566v-159h-193v-526h-180v526zM304 -44q37 0 63 -27t26 -65q0 -24 -8 -46t-27 -47l-65 -89l-80 46l44 72q-19 11 -29.5 30t-10.5 42q0 35 25.5 59.5t61.5 24.5z" />
    <glyph glyph-name="uni0163" unicode="&#x163;" horiz-adv-x="475" 
d="M104 321h-90v144l90 5h10l20 134h145v-134h142v-149h-142v-109q0 -30 13.5 -46.5t37.5 -16.5q12 0 25 4.5t28 14.5l80 -125q-31 -25 -73 -39t-84 -14q-96 0 -149 56.5t-53 160.5v114zM240 -44q37 0 63 -27t26 -65q0 -24 -8 -46t-27 -47l-65 -89l-80 46l44 72
q-19 11 -29.5 30t-10.5 42q0 35 25.5 59.5t61.5 24.5z" />
    <glyph glyph-name="Tcaron" unicode="&#x164;" horiz-adv-x="606" 
d="M213 526h-193v159h566v-159h-193v-526h-180v526zM418 972l67 -80l-182 -157l-182 157l67 80l116 -84z" />
    <glyph glyph-name="tcaron" unicode="&#x165;" horiz-adv-x="475" 
d="M104 321h-90v144l90 5h10l20 134h145v-134h142v-149h-142v-109q0 -30 13.5 -46.5t37.5 -16.5q12 0 25 4.5t28 14.5l80 -125q-31 -25 -73 -39t-84 -14q-96 0 -149 56.5t-53 160.5v114zM459 705l-20 -198h-121v198h141z" />
    <glyph glyph-name="Tbar" unicode="&#x166;" horiz-adv-x="606" 
d="M213 526h-193v159h566v-159h-193v-121h95v-143h-95v-262h-180v262h-95v143h95v121z" />
    <glyph glyph-name="tbar" unicode="&#x167;" horiz-adv-x="475" 
d="M104 331h-90v134l90 5h10l20 134h145v-134h142v-139h-142v-31h142v-99h-141q2 -25 15 -38.5t35 -13.5q12 0 25 4.5t28 14.5l80 -125q-31 -25 -73 -39t-84 -14q-96 0 -149 55.5t-53 155.5h-90v99h90v31z" />
    <glyph glyph-name="Utilde" unicode="&#x168;" horiz-adv-x="682" 
d="M341 -10q-131 0 -208 78t-77 212v405h180v-403q0 -60 28 -94t77 -34t77 34t28 94v403h180v-405q0 -134 -77 -212t-208 -78zM407 763q-16 0 -31 3.5t-40 15.5q-18 8 -27 10.5t-17 2.5q-14 0 -24 -9.5t-19 -32.5l-99 46q26 65 55 93t70 28q16 0 31 -3.5t40 -15.5
q18 -8 27 -10.5t17 -2.5q14 0 24 9.5t19 32.5l99 -46q-26 -65 -55 -93t-70 -28z" />
    <glyph glyph-name="utilde" unicode="&#x169;" horiz-adv-x="584" 
d="M529 0h-155l-19 59q-26 -33 -61 -51t-72 -18q-81 0 -129 55t-48 148v277h175v-249q0 -35 16 -53.5t46 -18.5q22 0 40 10.5t32 31.5v279h175v-470zM358 548q-16 0 -31 3.5t-40 15.5q-18 8 -27 10.5t-17 2.5q-14 0 -24 -9.5t-19 -32.5l-99 46q26 65 55 93t70 28
q16 0 31 -3.5t40 -15.5q18 -8 27 -10.5t17 -2.5q14 0 24 9.5t19 32.5l99 -46q-26 -65 -55 -93t-70 -28z" />
    <glyph glyph-name="Umacron" unicode="&#x16a;" horiz-adv-x="682" 
d="M341 -10q-131 0 -208 78t-77 212v405h180v-403q0 -60 28 -94t77 -34t77 34t28 94v403h180v-405q0 -134 -77 -212t-208 -78zM192 891h298v-118h-298v118z" />
    <glyph glyph-name="umacron" unicode="&#x16b;" horiz-adv-x="584" 
d="M529 0h-155l-19 59q-26 -33 -61 -51t-72 -18q-81 0 -129 55t-48 148v277h175v-249q0 -35 16 -53.5t46 -18.5q22 0 40 10.5t32 31.5v279h175v-470zM143 676h298v-118h-298v118z" />
    <glyph glyph-name="Ubreve" unicode="&#x16c;" horiz-adv-x="682" 
d="M341 -10q-131 0 -208 78t-77 212v405h180v-403q0 -60 28 -94t77 -34t77 34t28 94v403h180v-405q0 -134 -77 -212t-208 -78zM341 855q20 0 31 14.5t11 40.5v10h121v-20q0 -68 -45.5 -111.5t-117.5 -43.5t-117.5 43.5t-45.5 111.5v20h121v-10q0 -26 11 -40.5t31 -14.5z" />
    <glyph glyph-name="ubreve" unicode="&#x16d;" horiz-adv-x="584" 
d="M529 0h-155l-19 59q-26 -33 -61 -51t-72 -18q-81 0 -129 55t-48 148v277h175v-249q0 -35 16 -53.5t46 -18.5q22 0 40 10.5t32 31.5v279h175v-470zM292 640q20 0 31 14.5t11 40.5v10h121v-20q0 -68 -45.5 -111.5t-117.5 -43.5t-117.5 43.5t-45.5 111.5v20h121v-10
q0 -26 11 -40.5t31 -14.5z" />
    <glyph glyph-name="Uring" unicode="&#x16e;" horiz-adv-x="682" 
d="M341 -10q-131 0 -208 78t-77 212v405h180v-403q0 -60 28 -94t77 -34t77 34t28 94v403h180v-405q0 -134 -77 -212t-208 -78zM211 857q0 53 37.5 89.5t92.5 36.5t92.5 -36.5t37.5 -89.5t-37.5 -89.5t-92.5 -36.5t-92.5 36.5t-37.5 89.5zM383 857q0 19 -12 31t-30 12
t-30 -12t-12 -31t11.5 -31t30.5 -12t30.5 12t11.5 31z" />
    <glyph glyph-name="uring" unicode="&#x16f;" horiz-adv-x="584" 
d="M529 0h-155l-19 59q-26 -33 -61 -51t-72 -18q-81 0 -129 55t-48 148v277h175v-249q0 -35 16 -53.5t46 -18.5q22 0 40 10.5t32 31.5v279h175v-470zM162 642q0 53 37.5 89.5t92.5 36.5t92.5 -36.5t37.5 -89.5t-37.5 -89.5t-92.5 -36.5t-92.5 36.5t-37.5 89.5zM334 642
q0 19 -12 31t-30 12t-30 -12t-12 -31t11.5 -31t30.5 -12t30.5 12t11.5 31z" />
    <glyph glyph-name="Uhungarumlaut" unicode="&#x170;" horiz-adv-x="682" 
d="M341 -10q-131 0 -208 78t-77 212v405h180v-403q0 -60 28 -94t77 -34t77 34t28 94v403h180v-405q0 -134 -77 -212t-208 -78zM266 739l-91 55l103 190l118 -74zM470 739l-91 55l103 190l118 -74z" />
    <glyph glyph-name="uhungarumlaut" unicode="&#x171;" horiz-adv-x="584" 
d="M529 0h-155l-19 59q-26 -33 -61 -51t-72 -18q-81 0 -129 55t-48 148v277h175v-249q0 -35 16 -53.5t46 -18.5q22 0 40 10.5t32 31.5v279h175v-470zM212 524l-91 55l103 190l118 -74zM416 524l-91 55l103 190l118 -74z" />
    <glyph glyph-name="Uogonek" unicode="&#x172;" horiz-adv-x="682" 
d="M441 -222q-59 0 -94 28t-35 76q0 32 15.5 60.5t43.5 47.5h-30q-131 0 -208 78t-77 212v405h180v-403q0 -60 28 -94t77 -34t77 34t28 94v403h180v-405q0 -76 -25 -134.5t-75 -98.5q-41 -33 -63 -67.5t-22 -66.5q0 -14 8.5 -22.5t21.5 -8.5q7 0 14 1.5t15 4.5l33 -88
q-21 -11 -44 -16.5t-48 -5.5z" />
    <glyph glyph-name="uogonek" unicode="&#x173;" horiz-adv-x="584" 
d="M512 -112l33 -88q-21 -11 -44 -16.5t-48 -5.5q-59 0 -94 28t-35 76q0 36 19 67t54 51h-23l-19 59q-26 -33 -61 -51t-72 -18q-81 0 -129 55t-48 148v277h175v-249q0 -35 16 -53.5t46 -18.5q22 0 40 10.5t32 31.5v279h175v-470q-35 -19 -55.5 -42.5t-20.5 -44.5
q0 -14 8.5 -22.5t21.5 -8.5q7 0 14 1.5t15 4.5z" />
    <glyph glyph-name="Wcircumflex" unicode="&#x174;" horiz-adv-x="1031" 
d="M799 0h-174l-109 310l-110 -310h-174l-224 685h190l133 -438l102 302l-51 136h273l-48 -134l104 -308l134 442h178zM519 972l182 -157l-67 -80l-116 84l-114 -84l-67 80z" />
    <glyph glyph-name="wcircumflex" unicode="&#x175;" horiz-adv-x="812" 
d="M657 0h-181l-70 187l-70 -187h-181l-172 470h172l104 -300l72 192l-41 108h236l-40 -106l72 -193l104 299h167zM402 757l182 -157l-67 -80l-116 84l-114 -84l-67 80z" />
    <glyph glyph-name="Ycircumflex" unicode="&#x176;" horiz-adv-x="669" 
d="M473 685h190l-238 -412v-273h-180v273l-239 412h200l134 -235zM335 972l182 -157l-67 -80l-116 84l-114 -84l-67 80z" />
    <glyph glyph-name="ycircumflex" unicode="&#x177;" horiz-adv-x="579" 
d="M554 20q0 -101 -78.5 -165.5t-197.5 -64.5q-71 0 -139.5 19.5t-118.5 54.5l76 131q39 -28 79 -42t82 -14q58 0 92.5 26.5t34.5 69.5q0 14 -3.5 27.5t-10.5 27.5q-20 -38 -57.5 -59t-85.5 -21q-82 0 -131.5 55.5t-49.5 147.5v257h175v-229q0 -35 16 -53.5t45 -18.5
q20 0 36.5 10t30.5 31v260h175v-311l4 -10q12 -31 19 -64.5t7 -64.5zM296 757l182 -157l-67 -80l-116 84l-114 -84l-67 80z" />
    <glyph glyph-name="Ydieresis" unicode="&#x178;" horiz-adv-x="669" 
d="M473 685h190l-238 -412v-273h-180v273l-239 412h200l134 -235zM315 835q0 -34 -25.5 -59.5t-59.5 -25.5t-60 25.5t-26 59.5t26 59.5t60 25.5t59.5 -25.5t25.5 -59.5zM526 835q0 -34 -25.5 -59.5t-60.5 -25.5q-34 0 -59.5 25.5t-25.5 59.5t25.5 59.5t59.5 25.5
q35 0 60.5 -25.5t25.5 -59.5z" />
    <glyph glyph-name="Zacute" unicode="&#x179;" horiz-adv-x="604" 
d="M255 159h314v-159h-534v139l305 387h-292v159h511v-139zM245 740l-57 90l200 147l74 -126z" />
    <glyph glyph-name="zacute" unicode="&#x17a;" horiz-adv-x="487" 
d="M248 149h207v-149h-423v129l188 192h-178v149h403v-120zM186 525l-57 90l200 147l74 -126z" />
    <glyph glyph-name="Zdotaccent" unicode="&#x17b;" horiz-adv-x="604" 
d="M255 159h314v-159h-534v139l305 387h-292v159h511v-139zM397 840q0 -38 -28.5 -66.5t-66.5 -28.5t-66.5 29t-28.5 66q0 38 28.5 66.5t66.5 28.5t66.5 -28.5t28.5 -66.5z" />
    <glyph glyph-name="zdotaccent" unicode="&#x17c;" horiz-adv-x="487" 
d="M248 149h207v-149h-423v129l188 192h-178v149h403v-120zM339 625q0 -38 -28.5 -66.5t-66.5 -28.5t-66.5 29t-28.5 66q0 38 28.5 66.5t66.5 28.5t66.5 -28.5t28.5 -66.5z" />
    <glyph glyph-name="Zcaron" unicode="&#x17d;" horiz-adv-x="604" 
d="M255 159h314v-159h-534v139l305 387h-292v159h511v-139zM417 972l67 -80l-182 -157l-182 157l67 80l116 -84z" />
    <glyph glyph-name="zcaron" unicode="&#x17e;" horiz-adv-x="487" 
d="M248 149h207v-149h-423v129l188 192h-178v149h403v-120zM359 757l67 -80l-182 -157l-182 157l67 80l116 -84z" />
    <glyph glyph-name="uni0191" unicode="&#x191;" horiz-adv-x="553" 
d="M17 -51q26 0 40 19.5t14 53.5v663h448v-159h-268v-120h248v-159h-248v-240q0 -104 -56 -160.5t-158 -56.5q-43 0 -85 14t-73 39l85 125q15 -10 28 -14.5t25 -4.5z" />
    <glyph glyph-name="uni0192" unicode="&#x192;" horiz-adv-x="411" 
d="M288 321v-321q-5 -101 -63.5 -155.5t-160.5 -54.5q-42 0 -85 15.5t-78 43.5l84 121q20 -13 37 -19.5t32 -6.5q29 0 44 21.5t15 61.5v294h-99v144l85 5q-9 21 -13 42t-4 43q0 71 53 115.5t138 44.5q42 0 85.5 -13.5t83.5 -39.5l-70 -125q-16 10 -32.5 16t-30.5 6
q-22 0 -37 -14t-15 -34q0 -12 2 -22t7 -19h135v-149h-113z" />
    <glyph glyph-name="uni0218" unicode="&#x218;" horiz-adv-x="569" 
d="M283 541q-31 0 -49 -12.5t-18 -34.5t26.5 -39t99.5 -42q111 -37 156 -83.5t45 -123.5q0 -91 -73.5 -153.5t-181.5 -62.5q-75 0 -145 27.5t-122 76.5l95 119q38 -35 80.5 -52t91.5 -17q37 0 57.5 14.5t20.5 39.5q0 20 -25 35t-101 41q-111 37 -156 84.5t-45 127.5
q0 89 69.5 149t172.5 60q65 0 127 -25t110 -71l-101 -119q-34 31 -66.5 46t-67.5 15zM285 -44q37 0 63 -27t26 -65q0 -24 -8 -46t-27 -47l-65 -89l-80 46l44 72q-19 11 -29.5 30t-10.5 42q0 35 25.5 59.5t61.5 24.5z" />
    <glyph glyph-name="uni0219" unicode="&#x219;" horiz-adv-x="455" 
d="M41 328q0 66 56.5 109t143.5 43q49 0 98.5 -14.5t88.5 -39.5l-74 -116q-25 18 -58 29.5t-58 11.5q-16 0 -23.5 -4.5t-7.5 -13.5q0 -10 15 -17.5t54 -17.5q82 -21 120.5 -58t38.5 -94q0 -74 -52.5 -115t-147.5 -41q-58 0 -113 16.5t-108 49.5l76 119q33 -24 73.5 -39
t71.5 -15q17 0 26 5t9 14q0 10 -10.5 16.5t-59.5 18.5q-88 22 -123.5 58.5t-35.5 94.5zM224 -44q37 0 63 -27t26 -65q0 -24 -8 -46t-27 -47l-65 -89l-80 46l44 72q-19 11 -29.5 30t-10.5 42q0 35 25.5 59.5t61.5 24.5z" />
    <glyph glyph-name="uni021A" unicode="&#x21a;" horiz-adv-x="606" 
d="M213 526h-193v159h566v-159h-193v-526h-180v526zM304 -44q37 0 63 -27t26 -65q0 -24 -8 -46t-27 -47l-65 -89l-80 46l44 72q-19 11 -29.5 30t-10.5 42q0 35 25.5 59.5t61.5 24.5z" />
    <glyph glyph-name="uni021B" unicode="&#x21b;" horiz-adv-x="475" 
d="M104 321h-90v144l90 5h10l20 134h145v-134h142v-149h-142v-109q0 -30 13.5 -46.5t37.5 -16.5q12 0 25 4.5t28 14.5l80 -125q-31 -25 -73 -39t-84 -14q-96 0 -149 56.5t-53 160.5v114zM240 -44q37 0 63 -27t26 -65q0 -24 -8 -46t-27 -47l-65 -89l-80 46l44 72
q-19 11 -29.5 30t-10.5 42q0 35 25.5 59.5t61.5 24.5z" />
    <glyph glyph-name="dotlessj" unicode="&#x237;" horiz-adv-x="286" 
d="M2 -51q26 0 40 19.5t14 53.5v448h175v-463q0 -104 -54.5 -160.5t-154.5 -56.5q-43 0 -85 14t-73 39l85 125q15 -10 28 -14.5t25 -4.5z" />
    <glyph glyph-name="circumflex" unicode="&#x2c6;" horiz-adv-x="500" 
d="M250 757l182 -157l-67 -80l-116 84l-114 -84l-67 80z" />
    <glyph glyph-name="caron" unicode="&#x2c7;" horiz-adv-x="500" 
d="M365 757l67 -80l-182 -157l-182 157l67 80l116 -84z" />
    <glyph glyph-name="breve" unicode="&#x2d8;" horiz-adv-x="500" 
d="M250 640q20 0 31 14.5t11 40.5v10h121v-20q0 -68 -45.5 -111.5t-117.5 -43.5t-117.5 43.5t-45.5 111.5v20h121v-10q0 -26 11 -40.5t31 -14.5z" />
    <glyph glyph-name="dotaccent" unicode="&#x2d9;" horiz-adv-x="500" 
d="M345 625q0 -38 -28.5 -66.5t-66.5 -28.5t-66.5 29t-28.5 66q0 38 28.5 66.5t66.5 28.5t66.5 -28.5t28.5 -66.5z" />
    <glyph glyph-name="ring" unicode="&#x2da;" horiz-adv-x="500" 
d="M120 642q0 53 37.5 89.5t92.5 36.5t92.5 -36.5t37.5 -89.5t-37.5 -89.5t-92.5 -36.5t-92.5 36.5t-37.5 89.5zM292 642q0 19 -12 31t-30 12t-30 -12t-12 -31t11.5 -31t30.5 -12t30.5 12t11.5 31z" />
    <glyph glyph-name="ogonek" unicode="&#x2db;" horiz-adv-x="500" 
d="M125 -118q0 37 21 69.5t59 52.5l125 -4q-35 -19 -55.5 -42.5t-20.5 -44.5q0 -14 8.5 -22.5t21.5 -8.5q7 0 14 1.5t15 4.5l33 -88q-21 -11 -44 -16.5t-48 -5.5q-59 0 -94 28t-35 76z" />
    <glyph glyph-name="tilde" unicode="&#x2dc;" horiz-adv-x="500" 
d="M316 548q-16 0 -31 3.5t-40 15.5q-18 8 -27 10.5t-17 2.5q-14 0 -24 -9.5t-19 -32.5l-99 46q26 65 55 93t70 28q16 0 31 -3.5t40 -15.5q18 -8 27 -10.5t17 -2.5q14 0 24 9.5t19 32.5l99 -46q-26 -65 -55 -93t-70 -28z" />
    <glyph glyph-name="hungarumlaut" unicode="&#x2dd;" horiz-adv-x="500" 
d="M135 524l-91 55l103 190l118 -74zM339 524l-91 55l103 190l118 -74z" />
    <glyph glyph-name="pi" unicode="&#x3c0;" horiz-adv-x="712" 
d="M125 326h-110v144h650v-144h-120v-150q0 -25 9.5 -38.5t26.5 -13.5q7 0 14.5 3t24.5 13l72 -102q-29 -23 -64.5 -35.5t-70.5 -12.5q-82 0 -127 49t-45 138v149h-100v-326h-160v326z" />
    <glyph glyph-name="uni0400" unicode="&#x400;" horiz-adv-x="563" 
d="M518 0h-448v685h448v-159h-268v-100h238v-159h-238v-108h268v-159zM225 977l200 -147l-57 -90l-217 111z" />
    <glyph glyph-name="afii10023" unicode="&#x401;" horiz-adv-x="563" 
d="M518 0h-448v685h448v-159h-268v-100h238v-159h-238v-108h268v-159zM269 835q0 -34 -25.5 -59.5t-59.5 -25.5t-60 25.5t-26 59.5t26 59.5t60 25.5t59.5 -25.5t25.5 -59.5zM480 835q0 -34 -25.5 -59.5t-60.5 -25.5q-34 0 -59.5 25.5t-25.5 59.5t25.5 59.5t59.5 25.5
q35 0 60.5 -25.5t25.5 -59.5z" />
    <glyph glyph-name="afii10051" unicode="&#x402;" horiz-adv-x="769" 
d="M559 430q86 0 138 -56.5t52 -149.5v-163q0 -100 -57.5 -157t-156.5 -57q-40 0 -78 14t-70 39l82 119q10 -9 22 -14t24 -5q27 0 40.5 16t13.5 49v121q0 39 -21.5 62t-58.5 23q-29 0 -54 -15t-42 -44v-212h-180v526h-193v159h566v-159h-193v-179q27 38 72.5 60.5t93.5 22.5
z" />
    <glyph glyph-name="afii10052" unicode="&#x403;" horiz-adv-x="524" 
d="M245 0h-175v685h434v-159h-259v-526zM222 740l-57 90l200 147l74 -126z" />
    <glyph glyph-name="afii10053" unicode="&#x404;" horiz-adv-x="665" 
d="M540 227l111 -120q-58 -60 -122 -88.5t-140 -28.5q-153 0 -255.5 100.5t-102.5 251.5t102.5 252t255.5 101q72 0 135.5 -27.5t116.5 -80.5l-109 -120q-33 33 -67.5 48.5t-75.5 15.5q-54 0 -96.5 -30t-62.5 -81h258v-147h-261q19 -54 63 -86.5t99 -32.5q42 0 77 17t74 56z
" />
    <glyph glyph-name="afii10054" unicode="&#x405;" horiz-adv-x="569" 
d="M283 541q-31 0 -49 -12.5t-18 -34.5t26.5 -39t99.5 -42q111 -37 156 -83.5t45 -123.5q0 -91 -73.5 -153.5t-181.5 -62.5q-75 0 -145 27.5t-122 76.5l95 119q38 -35 80.5 -52t91.5 -17q37 0 57.5 14.5t20.5 39.5q0 20 -25 35t-101 41q-111 37 -156 84.5t-45 127.5
q0 89 69.5 149t172.5 60q65 0 127 -25t110 -71l-101 -119q-34 31 -66.5 46t-67.5 15z" />
    <glyph glyph-name="afii10055" unicode="&#x406;" horiz-adv-x="320" 
d="M250 0h-180v685h180v-685z" />
    <glyph glyph-name="afii10056" unicode="&#x407;" horiz-adv-x="320" 
d="M250 0h-180v685h180v-685zM140 835q0 -34 -25.5 -59.5t-59.5 -25.5t-60 25.5t-26 59.5t26 59.5t60 25.5t59.5 -25.5t25.5 -59.5zM351 835q0 -34 -25.5 -59.5t-60.5 -25.5q-34 0 -59.5 25.5t-25.5 59.5t25.5 59.5t59.5 25.5q35 0 60.5 -25.5t25.5 -59.5z" />
    <glyph glyph-name="afii10057" unicode="&#x408;" horiz-adv-x="529" 
d="M217 -10q-60 0 -113 23.5t-99 70.5l109 120q24 -25 49 -37.5t52 -12.5q38 0 58 22.5t20 65.5v443h180v-445q0 -123 -65 -186.5t-191 -63.5z" />
    <glyph glyph-name="afii10058" unicode="&#x409;" horiz-adv-x="968" 
d="M496 0l-156 461l-157 -461h-177l250 685h177l91 -249h147q124 0 198 -59t74 -158q0 -98 -70 -157t-190 -62h-187zM763 219q0 28 -24 43t-68 15h-89l43 -118h46q43 0 67.5 16t24.5 44z" />
    <glyph glyph-name="afii10059" unicode="&#x40a;" horiz-adv-x="1069" 
d="M1044 219q0 -101 -73.5 -160t-198.5 -59h-270v271h-252v-271h-180v685h180v-255h252v255h180v-249h90q124 0 198 -59t74 -158zM864 219q0 28 -24 43t-68 15h-90v-118h90q43 0 67.5 16t24.5 44z" />
    <glyph glyph-name="afii10060" unicode="&#x40b;" horiz-adv-x="769" 
d="M489 271q-29 0 -54 -15t-42 -44v-212h-180v526h-193v159h566v-159h-193v-179q27 38 72.5 60.5t93.5 22.5q86 0 138 -56.5t52 -149.5v-224h-180v186q0 39 -21.5 62t-58.5 23z" />
    <glyph glyph-name="afii10061" unicode="&#x40c;" horiz-adv-x="690" 
d="M685 0h-207l-164 276q-15 -3 -31.5 -4.5t-32.5 -1.5v-270h-180v685h180v-256q39 1 61.5 15t45.5 52l112 189h194l-114 -187q-26 -43 -48 -74.5t-42 -55.5zM302 740l-57 90l200 147l74 -126z" />
    <glyph glyph-name="uni040D" unicode="&#x40d;" horiz-adv-x="736" 
d="M666 0h-170v418l-254 -418h-172v685h170v-417l254 417h172v-685zM293 977l200 -147l-57 -90l-217 111z" />
    <glyph glyph-name="afii10062" unicode="&#x40e;" horiz-adv-x="677" 
d="M481 685h181l-294 -685h-177l72 171l-248 514h199l137 -308zM349 735q-77 0 -128 41.5t-51 106.5v27h130v-17q0 -28 12.5 -43t36.5 -15t36.5 14.5t12.5 41.5v19h130v-29q0 -65 -50 -105.5t-129 -40.5z" />
    <glyph glyph-name="afii10145" unicode="&#x40f;" horiz-adv-x="742" 
d="M672 685v-685h-216v-170h-170v170h-216v685h180v-526h242v526h180z" />
    <glyph glyph-name="afii10017" unicode="&#x410;" horiz-adv-x="729" 
d="M723 0h-187l-40 107h-273l-40 -107h-177l270 685h177zM360 472l-79 -211h157z" />
    <glyph glyph-name="afii10018" unicode="&#x411;" horiz-adv-x="617" 
d="M315 0h-245v685h459v-159h-284v-90h70q124 0 198 -59t74 -158q0 -101 -73.5 -160t-198.5 -59zM407 219q0 28 -24 43t-68 15h-70v-118h70q43 0 67.5 16t24.5 44z" />
    <glyph glyph-name="afii10019" unicode="&#x412;" horiz-adv-x="623" 
d="M323 0h-253v685h238q120 0 187.5 -48.5t67.5 -136.5q0 -45 -24.5 -82t-71.5 -63q61 -27 93.5 -67.5t32.5 -89.5q0 -91 -73.5 -144.5t-196.5 -53.5zM388 480q0 25 -20 39.5t-55 14.5h-68v-108h68q34 0 54.5 14.5t20.5 39.5zM418 213q0 29 -23.5 45.5t-66.5 16.5h-83v-124
h83q43 0 66.5 16.5t23.5 45.5z" />
    <glyph glyph-name="afii10020" unicode="&#x413;" horiz-adv-x="524" 
d="M245 0h-175v685h434v-159h-259v-526z" />
    <glyph glyph-name="afii10021" unicode="&#x414;" horiz-adv-x="755" 
d="M289 685h177l200 -526h69v-329h-170v170h-375v-170h-170v329h69zM373 467l-110 -308h219z" />
    <glyph glyph-name="afii10022" unicode="&#x415;" horiz-adv-x="563" 
d="M518 0h-448v685h448v-159h-268v-100h238v-159h-238v-108h268v-159z" />
    <glyph glyph-name="afii10024" unicode="&#x416;" horiz-adv-x="1048" 
d="M614 0h-180v270q-21 1 -32 2t-20 3l-167 -275h-210l230 366q-18 21 -39 50t-54 82l-118 187h191l117 -189q23 -39 44 -52.5t58 -14.5v256h180v-256q37 1 58 14.5t44 52.5l117 189h191l-118 -187q-33 -53 -54 -82t-39 -50l230 -366h-210l-167 275q-9 -2 -20 -3t-32 -2
v-270z" />
    <glyph glyph-name="afii10025" unicode="&#x417;" horiz-adv-x="614" 
d="M406 208q0 30 -27 47.5t-74 17.5h-120v147h89q55 0 85 15.5t30 44.5q0 27 -26.5 43.5t-69.5 16.5q-38 0 -84.5 -19t-84.5 -51l-86 119q60 51 129.5 78.5t135.5 27.5q118 0 189.5 -51t71.5 -135q0 -50 -27 -90t-78 -65q61 -24 93 -66t32 -97q0 -90 -77.5 -145.5
t-203.5 -55.5q-81 0 -148.5 27.5t-132.5 86.5l87 120q43 -38 91.5 -58.5t92.5 -20.5q52 0 82.5 17t30.5 46z" />
    <glyph glyph-name="afii10026" unicode="&#x418;" horiz-adv-x="736" 
d="M666 0h-170v418l-254 -418h-172v685h170v-417l254 417h172v-685z" />
    <glyph glyph-name="afii10027" unicode="&#x419;" horiz-adv-x="736" 
d="M666 0h-170v418l-254 -418h-172v685h170v-417l254 417h172v-685zM376 720q-77 0 -128 41.5t-51 106.5v27h130v-17q0 -28 12.5 -43t36.5 -15t36.5 14.5t12.5 41.5v19h130v-29q0 -65 -50 -105.5t-129 -40.5z" />
    <glyph glyph-name="afii10028" unicode="&#x41a;" horiz-adv-x="690" 
d="M685 0h-207l-164 276q-15 -3 -31.5 -4.5t-32.5 -1.5v-270h-180v685h180v-256q39 1 61.5 15t45.5 52l112 189h194l-114 -187q-26 -43 -48 -74.5t-42 -55.5z" />
    <glyph glyph-name="afii10029" unicode="&#x41b;" horiz-adv-x="689" 
d="M683 0h-187l-156 461l-157 -461h-177l250 685h177z" />
    <glyph glyph-name="afii10030" unicode="&#x41c;" horiz-adv-x="940" 
d="M556 0h-176l-126 382l-55 -382h-175l113 685h176l157 -488l157 488h176l113 -685h-181l-55 378z" />
    <glyph glyph-name="afii10031" unicode="&#x41d;" horiz-adv-x="752" 
d="M682 0h-180v271h-252v-271h-180v685h180v-255h252v255h180v-685z" />
    <glyph glyph-name="afii10032" unicode="&#x41e;" horiz-adv-x="776" 
d="M31 343q0 150 102.5 251t254.5 101t254.5 -101t102.5 -251q0 -151 -102 -252t-255 -101t-255 101t-102 252zM560 343q0 80 -49.5 134t-122.5 54t-122.5 -54t-49.5 -134q0 -81 49 -135t123 -54t123 54t49 135z" />
    <glyph glyph-name="afii10033" unicode="&#x41f;" horiz-adv-x="742" 
d="M250 0h-180v685h602v-685h-180v526h-242v-526z" />
    <glyph glyph-name="afii10034" unicode="&#x420;" horiz-adv-x="598" 
d="M245 0h-175v685h231q124 0 198 -63t74 -170t-74 -170t-198 -63h-56v-219zM393 452q0 35 -24.5 54.5t-67.5 19.5h-56v-148h56q43 0 67.5 19.5t24.5 54.5z" />
    <glyph glyph-name="afii10035" unicode="&#x421;" horiz-adv-x="665" 
d="M216 342q0 -80 50 -134t123 -54q42 0 77 17t74 56l111 -120q-58 -60 -122 -88.5t-140 -28.5q-153 0 -255.5 100.5t-102.5 251.5t102.5 252t255.5 101q72 0 135.5 -27.5t116.5 -80.5l-109 -120q-33 33 -67.5 48.5t-75.5 15.5q-74 0 -123.5 -54t-49.5 -135z" />
    <glyph glyph-name="afii10036" unicode="&#x422;" horiz-adv-x="606" 
d="M213 526h-193v159h566v-159h-193v-526h-180v526z" />
    <glyph glyph-name="afii10037" unicode="&#x423;" horiz-adv-x="677" 
d="M481 685h181l-294 -685h-177l72 171l-248 514h199l137 -308z" />
    <glyph glyph-name="afii10038" unicode="&#x424;" horiz-adv-x="871" 
d="M846 342q0 -121 -89.5 -195t-234.5 -78v-89h-173v89q-145 4 -234.5 78t-89.5 195t89.5 195.5t234.5 78.5v89h173v-89q145 -4 234.5 -78.5t89.5 -195.5zM204 342q0 -57 40.5 -92t104.5 -35v255q-65 -1 -105 -35.5t-40 -92.5zM667 342q0 58 -40.5 93t-104.5 35v-255
q65 1 105 35.5t40 91.5z" />
    <glyph glyph-name="afii10039" unicode="&#x425;" horiz-adv-x="717" 
d="M704 0h-204l-146 218l-147 -218h-194l245 363l-215 322h204l116 -174l117 174h194l-214 -319z" />
    <glyph glyph-name="afii10040" unicode="&#x426;" horiz-adv-x="760" 
d="M480 685h180v-526h90v-329h-170v170h-510v685h180v-526h230v526z" />
    <glyph glyph-name="afii10041" unicode="&#x427;" horiz-adv-x="714" 
d="M464 685h180v-685h-180v253q-32 -8 -67 -12.5t-65 -4.5q-120 0 -191 68.5t-71 179.5v201h180v-181q0 -55 30 -82.5t89 -27.5q27 0 50 2.5t45 8.5v280z" />
    <glyph glyph-name="afii10042" unicode="&#x428;" horiz-adv-x="950" 
d="M700 685h180v-685h-810v685h180v-526h135v526h180v-526h135v526z" />
    <glyph glyph-name="afii10043" unicode="&#x429;" horiz-adv-x="980" 
d="M700 685h180v-526h90v-329h-170v170h-730v685h180v-526h135v526h180v-526h135v526z" />
    <glyph glyph-name="afii10044" unicode="&#x42a;" horiz-adv-x="727" 
d="M165 526h-155v159h330v-249h90q124 0 198 -59t74 -158q0 -101 -73.5 -160t-198.5 -59h-265v526zM522 219q0 28 -24 43t-68 15h-90v-118h90q43 0 67.5 16t24.5 44z" />
    <glyph glyph-name="afii10045" unicode="&#x42b;" horiz-adv-x="903" 
d="M833 2h-180v685h180v-685zM607 219q0 -101 -73.5 -160t-198.5 -59h-265v685h175v-249h90q124 0 198 -59t74 -158zM427 219q0 28 -24 43t-68 15h-90v-118h90q43 0 67.5 16t24.5 44z" />
    <glyph glyph-name="afii10046" unicode="&#x42c;" horiz-adv-x="632" 
d="M607 219q0 -101 -73.5 -160t-198.5 -59h-265v685h175v-249h90q124 0 198 -59t74 -158zM427 219q0 28 -24 43t-68 15h-90v-118h90q43 0 67.5 16t24.5 44z" />
    <glyph glyph-name="afii10047" unicode="&#x42d;" horiz-adv-x="681" 
d="M297 695q155 0 254 -99.5t99 -253.5q0 -153 -99 -252.5t-254 -99.5q-81 0 -150.5 29.5t-126.5 87.5l111 117q39 -39 76.5 -56t84.5 -17q61 0 106.5 32.5t63.5 89.5h-271v147h268q-19 54 -63 84t-104 30q-46 0 -83 -15.5t-70 -48.5l-109 117q52 52 121 80t146 28z" />
    <glyph glyph-name="afii10048" unicode="&#x42e;" horiz-adv-x="1075" 
d="M687 695q152 0 254.5 -101t102.5 -251q0 -151 -102 -252t-255 -101q-132 0 -229 78t-121 203h-87v-271h-180v685h180v-255h90q29 118 124.5 191.5t222.5 73.5zM859 343q0 80 -49.5 134t-122.5 54t-122.5 -54t-49.5 -134q0 -81 49 -135t123 -54t123 54t49 135z" />
    <glyph glyph-name="afii10049" unicode="&#x42f;" horiz-adv-x="653" 
d="M51 470q0 98 72.5 156.5t193.5 58.5h266v-685h-175v239h-41l-158 -239h-196l188 270q-72 24 -111 75.5t-39 124.5zM231 462q0 -29 22 -46.5t59 -17.5h96v128h-96q-37 0 -59 -17.5t-22 -46.5z" />
    <glyph glyph-name="afii10065" unicode="&#x430;" horiz-adv-x="591" 
d="M536 0h-155l-18 57q-24 -33 -55.5 -50t-69.5 -17q-91 0 -151 70t-60 175t60 175t151 70q38 0 70 -17t55 -49l18 56h155v-470zM197 235q0 -39 24.5 -64.5t60.5 -25.5q37 0 61 25.5t24 64.5t-24 64.5t-61 25.5q-36 0 -60.5 -25.5t-24.5 -64.5z" />
    <glyph glyph-name="afii10066" unicode="&#x431;" horiz-adv-x="553" 
d="M294 452q103 0 169.5 -64.5t66.5 -165.5q0 -102 -69 -167t-177 -65q-110 0 -180.5 65t-70.5 167q0 29 6.5 56.5t19.5 51.5q-18 32 -27 64.5t-9 65.5q0 89 61.5 143.5t177.5 67.5l221 24l18 -146l-221 -24q-43 -4 -62.5 -19t-19.5 -44q0 -7 1 -12.5t4 -9.5q21 6 43.5 9
t47.5 3zM203 222q0 -37 21 -60.5t55 -23.5q36 0 58.5 23.5t22.5 60.5q0 36 -22.5 59t-58.5 23q-34 0 -55 -23t-21 -59z" />
    <glyph glyph-name="afii10067" unicode="&#x432;" horiz-adv-x="547" 
d="M314 0h-259v470h265q84 0 134.5 -31t50.5 -88q0 -38 -23 -65t-67 -42q55 -11 82.5 -39.5t27.5 -72.5q0 -65 -54.5 -98.5t-156.5 -33.5zM336 326q0 18 -14.5 26.5t-46.5 8.5h-51v-71h51q33 0 47 8.5t14 27.5zM351 150q0 19 -16 28t-52 9h-59v-74h59q36 0 52 9t16 28z" />
    <glyph glyph-name="afii10068" unicode="&#x433;" horiz-adv-x="434" 
d="M228 0h-173v470h369v-145h-196v-325z" />
    <glyph glyph-name="afii10069" unicode="&#x434;" horiz-adv-x="610" 
d="M600 -140h-152v140h-286v-140h-152v269h58l139 341h190l144 -341h59v-269zM300 328l-75 -199h150z" />
    <glyph glyph-name="afii10070" unicode="&#x435;" horiz-adv-x="535" 
d="M388 168l95 -101q-37 -37 -87.5 -57t-106.5 -20q-117 0 -191.5 69t-74.5 176q0 105 71.5 175t178.5 70q104 0 173 -69t69 -173q0 -15 -1.5 -30t-3.5 -24h-328q12 -29 37.5 -44t63.5 -15q34 0 59 10.5t46 32.5zM268 349q-31 0 -53.5 -16t-33.5 -46h179q-10 30 -33 46
t-59 16z" />
    <glyph glyph-name="afii10072" unicode="&#x436;" horiz-adv-x="870" 
d="M520 0h-170v174q-4 0 -11.5 0.5t-11.5 0.5l-113 -175h-202l169 245q-24 23 -50 57t-58 85l-52 83h180l53 -83q26 -42 47 -57.5t46 -15.5h3v156h170v-156h3q25 0 45.5 15t47.5 58l53 83h180l-52 -83q-32 -51 -58 -85t-50 -57l169 -245h-202l-113 175q-4 0 -11.5 -0.5
t-11.5 -0.5v-174z" />
    <glyph glyph-name="afii10073" unicode="&#x437;" horiz-adv-x="508" 
d="M306 149q0 17 -13.5 25t-41.5 8h-92v108h88q26 0 38.5 7.5t12.5 23.5q0 15 -14 23t-37 8q-35 0 -68.5 -12.5t-61.5 -36.5l-87 97q51 40 108 60t117 20q93 0 153 -35.5t60 -91.5q0 -34 -21.5 -62.5t-60.5 -47.5q49 -15 74.5 -43.5t25.5 -67.5q0 -64 -66 -103t-173 -39
q-71 0 -127 20t-105 62l94 97q28 -25 62.5 -37.5t72.5 -12.5q30 0 46 7.5t16 22.5z" />
    <glyph glyph-name="afii10074" unicode="&#x438;" horiz-adv-x="580" 
d="M525 0h-160v230l-150 -230h-160v470h160v-230l150 230h160v-470z" />
    <glyph glyph-name="afii10075" unicode="&#x439;" horiz-adv-x="580" 
d="M525 0h-160v230l-150 -230h-160v470h160v-230l150 230h160v-470zM290 520q-77 0 -128 41.5t-51 106.5v27h130v-17q0 -28 12.5 -43t36.5 -15t36.5 14.5t12.5 41.5v19h130v-29q0 -65 -50 -105.5t-129 -40.5z" />
    <glyph glyph-name="afii10076" unicode="&#x43a;" horiz-adv-x="586" 
d="M583 0h-204l-92 169q-12 -2 -26.5 -3t-30.5 -1v-165h-175v470h175v-156q33 0 56 15.5t47 57.5l49 83h183l-48 -83q-26 -45 -48 -77.5t-41 -55.5z" />
    <glyph glyph-name="afii10077" unicode="&#x43b;" horiz-adv-x="542" 
d="M536 0h-179l-91 279l-91 -279h-169l167 470h190z" />
    <glyph glyph-name="afii10078" unicode="&#x43c;" horiz-adv-x="757" 
d="M455 0h-157l-85 251l-40 -251h-170l101 470h176l99 -263l91 263h176l108 -470h-174l-46 257z" />
    <glyph glyph-name="afii10079" unicode="&#x43d;" horiz-adv-x="593" 
d="M538 0h-173v165h-137v-165h-173v470h173v-156h137v156h173v-470z" />
    <glyph glyph-name="afii10080" unicode="&#x43e;" horiz-adv-x="556" 
d="M533 235q0 -106 -72.5 -175.5t-182.5 -69.5t-182.5 69.5t-72.5 175.5t72.5 175.5t182.5 69.5t182.5 -69.5t72.5 -175.5zM193 235q0 -39 24 -64.5t61 -25.5t61 25.5t24 64.5t-24 64.5t-61 25.5t-61 -25.5t-24 -64.5z" />
    <glyph glyph-name="afii10081" unicode="&#x43f;" horiz-adv-x="595" 
d="M228 0h-173v470h485v-470h-173v325h-139v-325z" />
    <glyph glyph-name="afii10082" unicode="&#x440;" horiz-adv-x="591" 
d="M564 235q0 -106 -59.5 -175.5t-151.5 -69.5q-36 0 -67 14t-56 41v-245h-175v670h155l16 -49q24 29 56.5 44t70.5 15q92 0 151.5 -69.5t59.5 -175.5zM309 325q-37 0 -61 -25.5t-24 -64.5t24 -64.5t61 -25.5q36 0 60.5 25.5t24.5 64.5t-24.5 64.5t-60.5 25.5z" />
    <glyph glyph-name="afii10083" unicode="&#x441;" horiz-adv-x="478" 
d="M198 235q0 -38 22.5 -62t57.5 -24q24 0 43.5 8.5t37.5 26.5l112 -112q-40 -42 -87.5 -62t-105.5 -20q-110 0 -182.5 69.5t-72.5 175.5t72.5 175.5t182.5 69.5q49 0 97 -20t86 -57l-112 -112q-15 15 -33 22.5t-38 7.5q-35 0 -57.5 -24t-22.5 -62z" />
    <glyph glyph-name="afii10084" unicode="&#x442;" horiz-adv-x="493" 
d="M160 325h-140v145h453v-145h-140v-325h-173v325z" />
    <glyph glyph-name="afii10085" unicode="&#x443;" horiz-adv-x="579" 
d="M554 20q0 -101 -78.5 -165.5t-197.5 -64.5q-71 0 -139.5 19.5t-118.5 54.5l76 131q39 -28 79 -42t82 -14q58 0 92.5 26.5t34.5 69.5q0 14 -3.5 27.5t-10.5 27.5q-20 -38 -57.5 -59t-85.5 -21q-82 0 -131.5 55.5t-49.5 147.5v257h175v-229q0 -35 16 -53.5t45 -18.5
q20 0 36.5 10t30.5 31v260h175v-311l4 -10q12 -31 19 -64.5t7 -64.5z" />
    <glyph glyph-name="afii10086" unicode="&#x444;" horiz-adv-x="711" 
d="M691 235q0 -102 -73 -171t-184 -74v-190h-157v190q-111 5 -184 74t-73 171t73 171t184 74v205h157v-205q111 -5 184 -74t73 -171zM529 235q0 43 -28.5 71.5t-71.5 28.5v-200q44 2 72 30t28 70zM182 235q0 -43 28.5 -71.5t71.5 -28.5v200q-43 -1 -71.5 -29.5t-28.5 -70.5z
" />
    <glyph glyph-name="afii10087" unicode="&#x445;" horiz-adv-x="560" 
d="M556 0h-200l-85 118l-81 -118h-186l175 247l-160 223h200l69 -97l67 97h186l-160 -226z" />
    <glyph glyph-name="afii10088" unicode="&#x446;" horiz-adv-x="632" 
d="M356 470h173v-325h89v-285h-160v140h-403v470h173v-325h128v325z" />
    <glyph glyph-name="afii10089" unicode="&#x447;" horiz-adv-x="565" 
d="M335 470h175v-470h-175v185q-30 -27 -61 -39.5t-71 -12.5q-82 0 -130 55t-48 148v134h175v-106q0 -35 16.5 -53.5t46.5 -18.5q23 0 39.5 8t32.5 27v143z" />
    <glyph glyph-name="afii10090" unicode="&#x448;" horiz-adv-x="834" 
d="M611 470h168v-470h-724v470h168v-325h110v325h168v-325h110v325z" />
    <glyph glyph-name="afii10091" unicode="&#x449;" horiz-adv-x="883" 
d="M869 -140h-160v140h-654v470h168v-325h110v325h168v-325h110v325h168v-325h90v-285z" />
    <glyph glyph-name="afii10092" unicode="&#x44a;" horiz-adv-x="605" 
d="M140 325h-140v145h313v-148h80q92 0 147 -43t55 -118t-53.5 -118t-142.5 -43h-259v325zM425 161q0 22 -17 32t-59 10h-36v-84h36q42 0 59 10t17 32z" />
    <glyph glyph-name="afii10093" unicode="&#x44b;" horiz-adv-x="793" 
d="M510 161q0 -75 -53.5 -118t-142.5 -43h-259v470h173v-148h80q92 0 147 -43t55 -118zM340 161q0 22 -17 32t-59 10h-36v-84h36q42 0 59 10t17 32zM563 470h175v-470h-175v470z" />
    <glyph glyph-name="afii10094" unicode="&#x44c;" horiz-adv-x="520" 
d="M510 161q0 -75 -53.5 -118t-142.5 -43h-259v470h173v-148h80q92 0 147 -43t55 -118zM340 161q0 22 -17 32t-59 10h-36v-84h36q42 0 59 10t17 32z" />
    <glyph glyph-name="afii10095" unicode="&#x44d;" horiz-adv-x="499" 
d="M229 480q108 0 177.5 -68.5t69.5 -176.5t-70 -176.5t-180 -68.5q-62 0 -116 21t-92 61l100 97q21 -21 47 -31.5t54 -10.5q32 0 57.5 15t39.5 42h-161v103h160q-13 26 -38.5 41t-57.5 15q-26 0 -49 -9t-42 -26l-100 95q37 37 89 57t112 20z" />
    <glyph glyph-name="afii10096" unicode="&#x44e;" horiz-adv-x="798" 
d="M520 480q110 0 182.5 -69.5t72.5 -175.5t-72.5 -175.5t-182.5 -69.5q-89 0 -156 48t-90 127h-44v-165h-175v470h175v-156h47q24 76 90 121t153 45zM435 235q0 -39 24 -64.5t61 -25.5t61 25.5t24 64.5t-24 64.5t-61 25.5t-61 -25.5t-24 -64.5z" />
    <glyph glyph-name="afii10097" unicode="&#x44f;" horiz-adv-x="560" 
d="M45 310q0 74 56.5 117t150.5 43h258v-470h-173v148h-32l-100 -148h-190l131 179q-50 18 -75.5 51t-25.5 80zM220 309q0 -19 15.5 -28.5t50.5 -9.5h51v76h-51q-35 0 -50.5 -9.5t-15.5 -28.5z" />
    <glyph glyph-name="uni0450" unicode="&#x450;" horiz-adv-x="535" 
d="M388 168l95 -101q-37 -37 -87.5 -57t-106.5 -20q-117 0 -191.5 69t-74.5 176q0 105 71.5 175t178.5 70q104 0 173 -69t69 -173q0 -15 -1.5 -30t-3.5 -24h-328q12 -29 37.5 -44t63.5 -15q34 0 59 10.5t46 32.5zM268 349q-31 0 -53.5 -16t-33.5 -46h179q-10 30 -33 46
t-59 16zM212 762l200 -147l-57 -90l-217 111z" />
    <glyph glyph-name="afii10071" unicode="&#x451;" horiz-adv-x="535" 
d="M388 168l95 -101q-37 -37 -87.5 -57t-106.5 -20q-117 0 -191.5 69t-74.5 176q0 105 71.5 175t178.5 70q104 0 173 -69t69 -173q0 -15 -1.5 -30t-3.5 -24h-328q12 -29 37.5 -44t63.5 -15q34 0 59 10.5t46 32.5zM268 349q-31 0 -53.5 -16t-33.5 -46h179q-10 30 -33 46
t-59 16zM248 620q0 -34 -25.5 -59.5t-59.5 -25.5t-60 25.5t-26 59.5t26 59.5t60 25.5t59.5 -25.5t25.5 -59.5zM459 620q0 -34 -25.5 -59.5t-60.5 -25.5q-34 0 -59.5 25.5t-25.5 59.5t25.5 59.5t59.5 25.5q35 0 60.5 -25.5t25.5 -59.5z" />
    <glyph glyph-name="afii10099" unicode="&#x452;" horiz-adv-x="606" 
d="M395 400q76 0 120.5 -55.5t44.5 -150.5v-190q0 -102 -54 -158t-150 -56q-40 0 -78 14t-70 39l82 119q10 -9 22 -14t24 -5q27 0 40.5 16t13.5 49v158q0 36 -17 55.5t-48 19.5q-22 0 -40.5 -11.5t-33.5 -34.5v-195h-175v470h-76v122h76v93h175v-93h155v-122h-155v-143
q27 35 65 54t79 19z" />
    <glyph glyph-name="afii10100" unicode="&#x453;" horiz-adv-x="434" 
d="M228 0h-173v470h369v-145h-196v-325zM167 525l-57 90l200 147l74 -126z" />
    <glyph glyph-name="afii10101" unicode="&#x454;" horiz-adv-x="478" 
d="M370 169l100 -97q-40 -42 -87.5 -62t-105.5 -20q-110 0 -182.5 69.5t-72.5 175.5t72.5 175.5t182.5 69.5q49 0 97 -20t86 -57l-100 -95q-18 18 -38.5 26.5t-46.5 8.5q-28 0 -51.5 -14.5t-36.5 -39.5h146v-102h-149q12 -28 36.5 -44t54.5 -16q28 0 50 9.5t45 32.5z" />
    <glyph glyph-name="afii10102" unicode="&#x455;" horiz-adv-x="455" 
d="M41 328q0 66 56.5 109t143.5 43q49 0 98.5 -14.5t88.5 -39.5l-74 -116q-25 18 -58 29.5t-58 11.5q-16 0 -23.5 -4.5t-7.5 -13.5q0 -10 15 -17.5t54 -17.5q82 -21 120.5 -58t38.5 -94q0 -74 -52.5 -115t-147.5 -41q-58 0 -113 16.5t-108 49.5l76 119q33 -24 73.5 -39
t71.5 -15q17 0 26 5t9 14q0 10 -10.5 16.5t-59.5 18.5q-88 22 -123.5 58.5t-35.5 94.5z" />
    <glyph glyph-name="afii10103" unicode="&#x456;" horiz-adv-x="285" 
d="M242 615q0 -41 -29.5 -70.5t-70.5 -29.5t-70.5 29.5t-29.5 70.5t29.5 70.5t70.5 29.5t70.5 -29.5t29.5 -70.5zM55 470h175v-470h-175v470z" />
    <glyph glyph-name="afii10104" unicode="&#x457;" horiz-adv-x="382" 
d="M104 470h175v-470h-175v470zM171 620q0 -34 -25.5 -59.5t-59.5 -25.5t-60 25.5t-26 59.5t26 59.5t60 25.5t59.5 -25.5t25.5 -59.5zM382 620q0 -34 -25.5 -59.5t-60.5 -25.5q-34 0 -59.5 25.5t-25.5 59.5t25.5 59.5t59.5 25.5q35 0 60.5 -25.5t25.5 -59.5z" />
    <glyph glyph-name="afii10105" unicode="&#x458;" horiz-adv-x="295" 
d="M252 615q0 -41 -29.5 -70.5t-70.5 -29.5t-70.5 29.5t-29.5 70.5t29.5 70.5t70.5 29.5t70.5 -29.5t29.5 -70.5zM11 -51q26 0 40 19.5t14 53.5v448h175v-463q0 -104 -54.5 -160.5t-154.5 -56.5q-43 0 -85 14t-73 39l85 125q15 -10 28 -14.5t25 -4.5z" />
    <glyph glyph-name="afii10106" unicode="&#x459;" horiz-adv-x="770" 
d="M760 162q0 -75 -55 -118.5t-146 -43.5h-202l-91 279l-91 -279h-169l167 470h190l54 -148h136q95 0 151 -42.5t56 -117.5zM585 161q0 20 -14.5 29t-61.5 9h-46l28 -76h18q47 0 61.5 9t14.5 29z" />
    <glyph glyph-name="afii10107" unicode="&#x45a;" horiz-adv-x="838" 
d="M632 0h-259v171h-145v-171h-173v470h173v-160h145v160h173v-148h80q92 0 147 -43t55 -118t-53.5 -118t-142.5 -43zM658 161q0 22 -17 32t-59 10h-36v-84h36q42 0 59 10t17 32z" />
    <glyph glyph-name="afii10108" unicode="&#x45b;" horiz-adv-x="606" 
d="M325 241q-22 0 -40.5 -11.5t-33.5 -34.5v-195h-175v470h-76v122h76v93h175v-93h155v-122h-155v-143q27 35 65 54t79 19q76 0 120.5 -55.5t44.5 -150.5v-194h-170v166q0 36 -17 55.5t-48 19.5z" />
    <glyph glyph-name="afii10109" unicode="&#x45c;" horiz-adv-x="586" 
d="M583 0h-204l-92 169q-12 -2 -26.5 -3t-30.5 -1v-165h-175v470h175v-156q33 0 56 15.5t47 57.5l49 83h183l-48 -83q-26 -45 -48 -77.5t-41 -55.5zM232 525l-57 90l200 147l74 -126z" />
    <glyph glyph-name="uni045D" unicode="&#x45d;" horiz-adv-x="580" 
d="M237 762l200 -147l-57 -90l-217 111zM525 0h-160v230l-150 -230h-160v470h160v-230l150 230h160v-470z" />
    </font>
</defs>
</svg>
