<svg width="30" height="30" viewBox="0 0 30 30" xmlns="http://www.w3.org/2000/svg"><title>icons/hand/down</title><path d="M10.996 5.716c-.89-.89-1.038-1.127-1.038-1.898 0-.208.059-1.187.089-1.424C10.165 1.415 11.38 1 14.05 1c2.106 0 3.737.267 4.924.8.652.297.8.535.8 1.395 0 1.602-.118 1.987-.77 2.61.266.682.385.95.919 1.81 1.542 2.55 1.839 3.321 1.839 4.716 0 .207-.03.682-.06 1.216.208.711.297 1.156.297 1.483 0 .89-.623 1.66-1.335 1.66-.118 0-.237 0-.385-.059.089.297.118.475.118.653 0 .979-.89 1.839-1.928 1.839-.207 0-.415-.06-.8-.178-.06 1.038-.801 1.75-1.81 1.75-.504 0-.83-.119-1.364-.445v3.292c0 2.7-.149 3.678-.682 4.36a1.25 1.25 0 0 1-1.009.505c-.83 0-1.364-.564-1.602-1.72-.118-.683-.148-1.009-.356-4.45-.118-1.601-.178-2.284-.444-3.945-.98-.8-1.572-1.572-1.72-2.195-.268-1.245-.268-1.245-.416-1.898C8.03 13.28 8 13.102 8 12.51c0-.89.208-1.81.564-2.61.385-.92 1.305-2.403 1.839-3.026.474-.534.563-.712.593-1.157zm2.67 15.424v-1.246c-.446-.03-.713-.089-1.276-.326-.06-.03-.386-.237-1.068-.653.148 1.246.415 4.509.564 7 .089 1.068.415 1.661.949 1.661.237 0 .534-.326.623-.652.148-.505.207-1.958.207-5.784zm6.198-12.013l-.8-1.364c-.712-1.424-.712-1.424-1.009-1.958-.563-.386-.86-.504-1.602-.623a8.936 8.936 0 0 0-1.423-.148c-.386 0-1.78.06-2.136.089-.445.06-.563.089-1.068.326.03.119.06.208.06.237 0 .445-.208.89-.742 1.572-.712.92-1.631 2.492-1.987 3.352-.208.593-.356 1.276-.356 1.869 0 .771.593 3.174.949 3.856.356.682 1.186 1.423 2.55 2.195.653.385 1.01.534 1.247.534.326 0 .563-.356.563-.89 0-.801-.415-1.483-1.216-2.077-.326-.207-.326-.207-.534-.77-.237-.653-.237-.653-.326-.98.712-.593 1.275-1.216 1.898-2.224.534-.771.712-1.513.712-2.759 0-.089-.03-.415-.089-.949v-.118c0-.238.119-.386.326-.386.327 0 .564.534.564 1.246 0 .504-.178 1.75-.297 2.195-.118.385-.207.534-.89 1.839.267.059.356.089.564.207.119-.949.653-1.512 1.453-1.512.12 0 .267.03.505.059 0-.86.652-1.453 1.601-1.453.801 0 1.632.593 2.64 1.868-.089-1.068-.445-2.046-1.157-3.233zm-5.19 10.174c.474.415.83.593 1.186.593.564 0 1.068-.534 1.068-1.127 0-.208-.089-.475-.356-1.275-.208-.534-.208-.534-.593-1.306-.653-1.216-.801-1.453-1.038-1.69-.327-.356-.683-.564-1.009-.564-.415 0-.92.534-.92.95 0 .237.09.355.475.622.95.682 1.424 1.602 1.424 2.759 0 .356 0 .356-.237 1.038zm1.75-6.644c-.445 0-.83.415-.83.89 0 .296.059.474.414 1.038a59.998 59.998 0 0 1 1.246 2.432c.327.682.327.682.534.89.267.237.534.356.742.356.267 0 .652-.238.83-.475a.92.92 0 0 0 .148-.504c0-.504-.355-1.305-1.127-2.64-.86-1.453-1.394-1.987-1.957-1.987zm1.868-1.335c-.356 0-.652.326-.652.742 0 .178.06.296.296.533.297.267.623.742 1.009 1.365.8 1.335.8 1.364 1.068 1.631.207.208.385.297.534.297.385 0 .682-.415.682-.979 0-.742-.445-1.602-1.365-2.61-.563-.593-1.156-.979-1.572-.979zm-7.089-6.614c.06 0 .149-.03.238-.06.77-.326 1.631-.445 3.055-.445 1.364 0 2.55.178 3.292.505.504.207.653.267.742.267.267 0 .356-.356.356-1.72 0-.564-.09-.683-.683-.92-1.186-.416-2.224-.564-3.974-.564-1.424 0-2.492.119-2.966.297-.356.148-.445.356-.445.979v.593c-.03.178-.03.267-.03.385 0 .327.208.683.415.683z" fill="#0155FC" fill-rule="evenodd"/></svg>