<svg width="30" height="30" viewBox="0 0 30 30" xmlns="http://www.w3.org/2000/svg"><title>icons/hand/right</title><path d="M6.013 10.7c-.89-.89-1.127-1.039-1.899-1.039-.207 0-1.186.06-1.423.089-.98.119-1.394 1.335-1.394 4.004 0 2.106.267 3.738.8 4.924.297.653.534.8 1.395.8 1.601 0 1.987-.118 2.61-.77.682.267.949.385 1.809.92 2.55 1.541 3.322 1.838 4.716 1.838.208 0 .682-.03 1.216-.06.712.208 1.157.297 1.483.297.89 0 1.661-.622 1.661-1.334 0-.119 0-.238-.059-.386.297.089.475.119.653.119.978 0 1.838-.89 1.838-1.928 0-.208-.059-.416-.177-.801 1.038-.06 1.75-.801 1.75-1.81 0-.504-.12-.83-.445-1.364h3.292c2.7 0 3.678-.148 4.36-.682a1.25 1.25 0 0 0 .504-1.009c0-.83-.563-1.364-1.72-1.601-.682-.119-1.008-.149-4.45-.356-1.6-.119-2.283-.178-3.944-.445-.8-.979-1.572-1.572-2.195-1.72-1.246-.267-1.246-.267-1.898-.416-.92-.237-1.098-.267-1.69-.267-.89 0-1.81.208-2.611.564-.92.386-2.403 1.305-3.026 1.839-.533.475-.711.563-1.156.593zm15.423 2.669h-1.245c-.03-.445-.09-.712-.327-1.276-.03-.06-.237-.385-.652-1.068 1.246.149 4.508.416 7 .564 1.068.089 1.66.415 1.66.95 0 .236-.325.533-.652.622-.504.148-1.957.208-5.784.208zM9.424 19.568l-1.365-.801c-1.423-.712-1.423-.712-1.957-1.009-.386-.563-.505-.86-.623-1.601a8.936 8.936 0 0 1-.148-1.424c0-.386.059-1.78.088-2.136.06-.444.09-.563.327-1.067.118.03.207.059.237.059.445 0 .89-.208 1.572-.742.92-.711 2.492-1.63 3.352-1.987.593-.207 1.275-.356 1.868-.356.772 0 3.174.593 3.856.95.683.355 1.424 1.186 2.195 2.55.386.653.534 1.009.534 1.246 0 .326-.356.564-.89.564-.8 0-1.483-.416-2.076-1.217-.208-.326-.208-.326-.771-.533-.653-.238-.653-.238-.979-.327-.593.712-1.216 1.276-2.225 1.899-.77.533-1.512.711-2.758.711-.089 0-.415-.03-.95-.089h-.118c-.237 0-.385.12-.385.327 0 .326.534.563 1.245.563.505 0 1.75-.178 2.195-.296.386-.119.534-.208 1.84-.89.059.267.088.356.207.563-.95.12-1.513.653-1.513 1.454 0 .118.03.267.06.504-.86 0-1.454.653-1.454 1.602 0 .8.593 1.631 1.869 2.64-1.068-.09-2.047-.445-3.233-1.157zm10.173-5.19c.416.474.594.83.594 1.186 0 .563-.534 1.067-1.127 1.067-.208 0-.475-.089-1.276-.356-.534-.207-.534-.207-1.305-.593-1.216-.652-1.453-.8-1.69-1.038-.357-.326-.564-.682-.564-1.008 0-.416.534-.92.949-.92.237 0 .356.09.623.475.682.949 1.602 1.423 2.758 1.423.356 0 .356 0 1.038-.237zm-6.644 1.75c0-.446.416-.831.89-.831.297 0 .475.059 1.038.415a62.749 62.749 0 0 0 2.433 1.246c.682.326.682.326.89.534.237.266.355.533.355.741 0 .267-.237.653-.474.83a.92.92 0 0 1-.504.149c-.505 0-1.306-.356-2.64-1.127-1.454-.86-1.988-1.394-1.988-1.958zm-1.334 1.868c0-.356.326-.653.741-.653.178 0 .297.06.534.297.267.296.742.623 1.364 1.008 1.335.801 1.365.801 1.632 1.068.207.208.296.386.296.534 0 .386-.415.682-.978.682-.742 0-1.602-.445-2.61-1.364-.594-.564-.98-1.157-.98-1.572zm-6.615-7.09c0 .06-.03.15-.06.238-.325.771-.444 1.631-.444 3.055 0 1.365.178 2.551.504 3.293.208.504.267.652.267.741 0 .267-.356.356-1.72.356-.564 0-.682-.089-.92-.682-.415-1.187-.563-2.225-.563-3.975 0-1.424.118-2.491.296-2.966.149-.356.356-.445.98-.445h.592c.178-.03.267-.03.386-.03.326 0 .682.208.682.416z" fill="#0155FC" fill-rule="evenodd"/></svg>