<?xml version="1.0" encoding="UTF-8"?>
<svg width="30px" height="38px" viewBox="0 0 30 38" version="1.1" xmlns="http://www.w3.org/2000/svg" xmlns:xlink="http://www.w3.org/1999/xlink">
    <!-- Generator: Sketch 49 (51002) - http://www.bohemiancoding.com/sketch -->
    <title>Path</title>
    <desc>Created with Sketch.</desc>
    <defs></defs>
    <g id="Welcome" stroke="none" stroke-width="1" fill="none" fill-rule="evenodd" stroke-dasharray="1,9" stroke-linecap="round" stroke-linejoin="round">
        <g id="MLM" transform="translate(-1023.000000, -4684.000000)" fill="#0155FC">
            <g id="Как-работает?" transform="translate(230.000000, 2829.000000)">
                <g id="formula" transform="translate(143.000000, 1851.000000)">
                    <g id="Group-5" transform="translate(650.000000, 4.000000)">
                        <path d="M14.8741302,38 C12.7093536,38 7.16333811,28.0627006 4.29799427,25.2626866 C1.43265043,22.4626726 0,18.959225 0,14.7522388 C0,10.5452526 1.43265043,7.03483994 4.29799427,4.22089552 C7.16333811,1.4069511 10.7306377,0 15,0 C19.2693623,0 22.8366619,1.4069511 25.7020057,4.22089552 C28.5673496,7.03483994 30,10.5452526 30,14.7522388 C30,18.959225 28.5673496,22.4626726 25.7020057,25.2626866 C22.8366619,28.0627006 17.0389067,38 14.8741302,38 Z M15,22.8 C17.4960061,22.8 19.578317,21.9583601 21.2469952,20.2750552 C22.9156734,18.5917502 23.75,16.4843884 23.75,13.9529065 C23.75,11.4214247 22.9156734,9.30753853 21.2469952,7.61118469 C19.578317,5.91483086 17.4960061,5.06666667 15,5.06666667 C12.5039939,5.06666667 10.421683,5.91483086 8.75300481,7.61118469 C7.08432659,9.30753853 6.25,11.4214247 6.25,13.9529065 C6.25,16.4843884 7.08432659,18.5917502 8.75300481,20.2750552 C10.421683,21.9583601 12.5039939,22.8 15,22.8 Z" id="Path"></path>
                    </g>
                </g>
            </g>
        </g>
    </g>
</svg>