<?xml version="1.0" encoding="UTF-8" standalone="no"?>
<!-- Created with Inkscape (http://www.inkscape.org/) -->

<svg
   xmlns:dc="http://purl.org/dc/elements/1.1/"
   xmlns:cc="http://creativecommons.org/ns#"
   xmlns:rdf="http://www.w3.org/1999/02/22-rdf-syntax-ns#"
   xmlns:svg="http://www.w3.org/2000/svg"
   xmlns="http://www.w3.org/2000/svg"
   xmlns:sodipodi="http://sodipodi.sourceforge.net/DTD/sodipodi-0.dtd"
   xmlns:inkscape="http://www.inkscape.org/namespaces/inkscape"
   id="svg2"
   version="1.1"
   inkscape:version="0.91 r13725"
   width="145.13548"
   height="713.48212"
   viewBox="0 0 145.13548 713.48212"
   sodipodi:docname="Screenshot (1).svg">
  <metadata
     id="metadata8">
    <rdf:RDF>
      <cc:Work
         rdf:about="">
        <dc:format>image/svg+xml</dc:format>
        <dc:type
           rdf:resource="http://purl.org/dc/dcmitype/StillImage" />
        <dc:title></dc:title>
      </cc:Work>
    </rdf:RDF>
  </metadata>
  <defs
     id="defs6" />
  <sodipodi:namedview
     pagecolor="#ffffff"
     bordercolor="#666666"
     borderopacity="1"
     objecttolerance="10"
     gridtolerance="10"
     guidetolerance="10"
     inkscape:pageopacity="0"
     inkscape:pageshadow="2"
     inkscape:window-width="1871"
     inkscape:window-height="1056"
     id="namedview4"
     showgrid="false"
     fit-margin-top="0"
     fit-margin-left="0"
     fit-margin-right="0"
     fit-margin-bottom="0"
     inkscape:zoom="1.0724556"
     inkscape:cx="-326.44432"
     inkscape:cy="339.42569"
     inkscape:window-x="49"
     inkscape:window-y="24"
     inkscape:window-maximized="1"
     inkscape:current-layer="svg2" />
  <path
     style="fill:none;fill-rule:evenodd;stroke:#000000;stroke-width:1px;stroke-linecap:butt;stroke-linejoin:miter;stroke-opacity:1"
     d="m 24.743586,0.71886728 c -0.07232,-0.0235 -9.822151,-1.189728 -16.1833566,2.10970302 -2.682685,1.391455 -7.097351,4.047943 -7.244186,11.0610057 -0.82045596,39.186266 -0.35437696,72.613645 -0.34966596,109.211984 0.01072,83.29808 -0.228782,168.60699 -0.466219,249.8938 -0.01839,6.29442 1.50225696,11.17118 6.64363096,14.80248 2.76509,1.95295 9.0861556,3.37644 12.4713786,3.38009 39.120843,0.0422 68.580513,-0.0743 108.745762,0 4.19392,0.008 7.74633,1.78743 10.14028,3.96287 2.44655,2.22324 3.42882,4.50711 4.31254,7.69262 1.66226,5.99191 1.51521,19.34812 1.51521,19.34812 l 0.30652,291.30002"
     id="path3338"
     inkscape:connector-curvature="0"
     sodipodi:nodetypes="cssssssssscc" />
  <path
     style="fill:none;fill-rule:evenodd;stroke:#000000;stroke-width:1px;stroke-linecap:butt;stroke-linejoin:miter;stroke-opacity:1"
     d="m 0.93723844,123.07242 c -0.101157,0 2.57564696,-6.1309 5.59463796,-8.62507 2.50233,-2.06732 5.4201816,-3.50813 8.6542046,-3.93373 3.158601,-0.41567 9.557505,-0.23311 9.557505,-0.23311"
     id="path3342"
     inkscape:connector-curvature="0"
     sodipodi:nodetypes="cssc" />
  <path
     sodipodi:nodetypes="cssc"
     inkscape:connector-curvature="0"
     id="path3344"
     d="m 0.76473444,273.07117 c -0.101895,0 2.59444596,-6.1297 5.63547196,-8.62339 2.520592,-2.06691 5.4597406,-3.50745 8.7173686,-3.93297 3.181653,-0.41559 9.627261,-0.23306 9.627261,-0.23306"
     style="fill:none;fill-rule:evenodd;stroke:#000000;stroke-width:1.00354528px;stroke-linecap:butt;stroke-linejoin:miter;stroke-opacity:1" />
</svg>
