<svg xmlns="http://www.w3.org/2000/svg" width="145.135" height="713.482" viewBox="0 0 145.13548 713.48212"><path d="M24.744.719C24.67.695 14.92-.471 8.56 2.829 5.878 4.22 1.463 6.877 1.316 13.889.496 53.077.962 86.504.966 123.103.977 206.4.738 291.709.5 372.995c-.018 6.295 1.502 11.172 6.644 14.803 2.765 1.953 9.086 3.376 12.471 3.38 39.121.042 68.58-.074 108.746 0 4.194.008 7.746 1.787 10.14 3.963 2.447 2.223 3.429 4.507 4.313 7.692 1.662 5.992 1.515 19.349 1.515 19.349l.306 291.3" fill="none" stroke="#000"/><path d="M.937 123.072c-.1 0 2.576-6.13 5.595-8.625 2.502-2.067 5.42-3.508 8.654-3.933 3.159-.416 9.558-.233 9.558-.233" fill="none" stroke="#000"/><path d="M.765 273.071c-.102 0 2.594-6.13 5.635-8.623 2.52-2.067 5.46-3.508 8.718-3.933 3.181-.416 9.627-.233 9.627-.233" fill="none" stroke="#000" stroke-width="1.004"/></svg>