<svg xmlns="http://www.w3.org/2000/svg" width="24" height="24" viewBox="0 0 24 24"><g fill="none" fill-rule="evenodd"><path fill="#0155FC" d="M9.411 16.599V.757a.521.521 0 1 0-1.044 0v5.09-2.412a.522.522 0 1 0-1.044 0v1.864-1.864a.522.522 0 0 0-1.044 0v1.864-1.864a.522.522 0 0 0-1.044 0v3.939c0 .47.254.882.633 1.104.405.237.645.684.645 1.153v6.968"/><path fill="#222" d="M9.411 16.833a.233.233 0 0 1-.234-.234V.757a.288.288 0 0 0-.576 0v5.09c0 .13-.104.234-.234.234a.233.233 0 0 1-.234-.234V3.435a.288.288 0 0 0-.576 0V5.3c0 .13-.104.234-.234.234a.233.233 0 0 1-.234-.234V3.435a.288.288 0 0 0-.575 0V5.3c0 .13-.105.234-.235.234a.233.233 0 0 1-.234-.234V3.435a.288.288 0 0 0-.576 0v3.94c0 .368.198.713.517.9.47.276.761.796.761 1.357V16.6c0 .13-.105.234-.234.234a.234.234 0 0 1-.235-.234V9.632a1.1 1.1 0 0 0-.529-.952A1.52 1.52 0 0 1 5 7.374V3.435a.758.758 0 0 1 1.279-.547c.272-.258.773-.258 1.044 0a.793.793 0 0 1 .81-.153V.757c0-.417.339-.757.756-.757s.756.34.756.757V16.6c0 .13-.104.234-.234.234"/><path fill="#222" d="M9.411 7.208a.233.233 0 0 1-.234-.234v-.859H7.972a.313.313 0 0 0-.313.312c0 .172.141.312.313.312h.446c.13 0 .234.105.234.235s-.104.234-.234.234h-.446a.783.783 0 0 1-.782-.78c0-.432.351-.782.782-.782h1.439c.13 0 .234.105.234.235v1.093c0 .13-.104.234-.234.234"/><path fill="#FFF" d="M6.512 23.212v-7.354a3.407 3.407 0 0 1 3.407-3.408h9.84a.475.475 0 1 1 0 .95h-4.625 2.19a.474.474 0 1 1 0 .948h-1.692 1.693a.474.474 0 1 1 0 .95h-1.693 1.693a.474.474 0 1 1 0 .947h-3.58c-.427 0-.8-.23-1.003-.575a1.207 1.207 0 0 0-1.047-.586h-.771c-.837 0-1.515.678-1.515 1.515v6.613"/><path fill="#222" d="M9.41 23.447a.233.233 0 0 1-.235-.235V16.6a1.75 1.75 0 0 1 1.75-1.75h.77c.517 0 .995.27 1.25.703a.92.92 0 0 0 .8.459h3.58a.24.24 0 1 0 0-.48h-1.694a.235.235 0 1 1 0-.469h1.694a.24.24 0 1 0 0-.48h-1.694a.235.235 0 1 1 0-.469h1.694a.24.24 0 1 0 0-.48h-2.19a.234.234 0 1 1 0-.467h4.625a.24.24 0 0 0 0-.482H9.92a3.178 3.178 0 0 0-3.174 3.175v7.353c0 .13-.105.235-.234.235a.234.234 0 0 1-.235-.235v-7.354a3.646 3.646 0 0 1 3.642-3.642h9.841a.71.71 0 0 1 .71.71.71.71 0 0 1-.71.707h-1.768a.704.704 0 0 1-.141.714.704.704 0 0 1 0 .95.709.709 0 0 1-.526 1.182h-3.58c-.493 0-.955-.264-1.205-.69a.98.98 0 0 0-.846-.47h-.77a1.28 1.28 0 0 0-1.28 1.28v6.613c0 .13-.105.235-.235.235"/><path fill="#0155FC" d="M7.514 20.474a.233.233 0 0 1-.234-.234v-4.381a2.643 2.643 0 0 1 2.639-2.641h1.004a.235.235 0 1 1 0 .469H9.92a2.174 2.174 0 0 0-2.171 2.172v4.38c0 .13-.104.235-.234.235m4.586-6.787h-.209a.233.233 0 0 1-.234-.234c0-.13.104-.235.234-.235h.21c.13 0 .233.105.233.235s-.104.234-.234.234"/><path fill="#222" d="M14.606 14.49a.732.732 0 0 1-.73-.732v-.405a.233.233 0 1 1 .468 0v.405a.263.263 0 0 0 .525 0v-1.073h-.76a.233.233 0 0 1-.234-.235c0-.13.104-.233.234-.233h.994c.13 0 .234.103.234.233v1.309a.732.732 0 0 1-.73.73"/><path fill="#FFF" d="M7.514 12.309a.233.233 0 0 1-.234-.234V9.954a.234.234 0 1 1 .468 0v2.12c0 .13-.104.235-.234.235m0-2.969a.233.233 0 0 1-.234-.234v-.088a.234.234 0 1 1 .468 0v.088c0 .13-.104.234-.234.234"/></g></svg>