<svg xmlns="http://www.w3.org/2000/svg" width="588" height="42" viewBox="0 0 588 42">
    <g fill="none" fill-rule="evenodd">
        <path fill="#222" d="M27.666.455L19.385 24.89 11.057.455H4.96L0 31.625h6.053l3.002-20.796 7.19 20.795h6.052l7.007-20.294 3.185 20.294h6.234L33.718.455zM57.74 7.826L53.096 19.84h9.283L57.74 7.826zm15.697 23.798h-6.46l-2.504-6.416H51.004l-2.502 6.416H42.36L54.826.455h6.143l12.468 31.17zM97.981 16.063c0-3.185-.956-5.635-2.867-7.35-1.91-1.713-4.64-2.57-8.19-2.57h-2.776V25.98h2.776c3.518 0 6.241-.864 8.167-2.593 1.927-1.729 2.89-4.17 2.89-7.326M86.696 31.626h-8.782V.454h8.782c5.521 0 9.851 1.38 12.991 4.14 3.14 2.761 4.71 6.583 4.71 11.467 0 4.854-1.57 8.662-4.71 11.421-3.14 2.761-7.47 4.142-12.99 4.142M127.648 26.073h13.06v5.552h-19.294V.455h6.234zM159.027 26.346c2.7 0 4.952-.979 6.757-2.935 1.805-1.957 2.708-4.406 2.708-7.349 0-2.942-.903-5.399-2.708-7.37-1.805-1.973-4.057-2.959-6.757-2.959-2.7 0-4.953.986-6.757 2.958-1.806 1.972-2.707 4.43-2.707 7.371 0 2.943.9 5.392 2.707 7.35 1.804 1.955 4.057 2.934 6.757 2.934m0 5.733c-4.521 0-8.297-1.524-11.33-4.573-3.034-3.049-4.55-6.863-4.55-11.444 0-4.58 1.516-8.402 4.55-11.466C150.73 1.532 154.506 0 159.027 0c4.52 0 8.297 1.532 11.33 4.596 3.033 3.064 4.55 6.886 4.55 11.466 0 4.581-1.517 8.395-4.55 11.444-3.033 3.05-6.81 4.573-11.33 4.573M194.96 5.733c-2.7 0-4.952.986-6.756 2.958-1.806 1.972-2.707 4.43-2.707 7.371 0 2.943.9 5.392 2.707 7.35 1.804 1.955 4.057 2.934 6.757 2.934 1.486 0 2.85-.296 4.095-.888 1.244-.59 2.472-1.524 3.686-2.798l3.913 4.187c-1.7 1.76-3.52 3.071-5.46 3.935-1.942.865-4.02 1.297-6.234 1.297-4.521 0-8.297-1.524-11.33-4.573-3.034-3.049-4.55-6.863-4.55-11.444 0-4.58 1.516-8.402 4.55-11.467C186.664 1.532 190.44 0 194.96 0c2.123 0 4.14.41 6.052 1.228 1.91.82 3.64 2.018 5.187 3.595l-3.822 4.186c-1.092-1.092-2.252-1.91-3.481-2.457a9.581 9.581 0 0 0-3.936-.819M224.292 7.826L219.65 19.84h9.284l-4.642-12.013zm15.698 23.798h-6.46l-2.504-6.416h-13.469l-2.501 6.416h-6.144L221.38.455h6.143l12.468 31.17zM247.43 6.006h-9.146V.456h24.526v5.55h-9.146v25.618h-6.234zM267.433 31.625h6.234V.455h-6.234zM343.36 31.625h-6.008L323.52 10.692v20.933h-5.916V.454h6.007l13.833 21.022V.456h5.915zM382.81 31.625h-6.052l-7.19-20.796-3.002 20.796h-6.053l4.96-31.17h6.098l8.327 24.435 8.28-24.434h6.053l5.006 31.169h-6.235l-3.184-20.294zM418.252 7.826L413.61 19.84h9.284l-4.642-12.013zm15.698 23.798h-6.461l-2.503-6.416h-13.468l-2.503 6.416h-6.143L415.34.455h6.142l12.468 31.17zM464.183 31.625h-6.007l-13.833-20.933v20.933h-5.915V.454h6.006l13.833 21.022V.456h5.916zM484.04 7.826l-4.642 12.013h9.283L484.04 7.826zm15.698 23.798h-6.462l-2.502-6.416h-13.469l-2.502 6.416h-6.144L481.127.455h6.143l12.468 31.17zM531.757 16.608c0 4.4-1.426 8.077-4.277 11.035-2.852 2.958-6.401 4.436-10.647 4.436-4.52 0-8.297-1.524-11.33-4.573-3.034-3.049-4.551-6.863-4.551-11.444 0-4.58 1.517-8.402 4.55-11.467C508.537 1.532 512.313 0 516.833 0c2.124 0 4.142.41 6.052 1.228 1.912.82 3.64 2.018 5.187 3.595l-3.822 4.186c-1.092-1.092-2.252-1.91-3.48-2.457a9.585 9.585 0 0 0-3.936-.819c-2.7 0-4.953.986-6.758 2.958-1.804 1.972-2.707 4.43-2.707 7.371 0 2.943.903 5.392 2.707 7.35 1.805 1.955 4.058 2.934 6.758 2.934 2.03 0 3.79-.553 5.278-1.66 1.486-1.108 2.517-2.618 3.095-4.529h-9.056v-5.55h15.517c.029.242.053.545.069.91.013.363.02.727.02 1.091M556.885 31.625h-19.612V.454h19.612v5.551h-13.378v6.916H555.7v5.552h-12.194v7.599h13.378zM579.026 10.102c0-1.244-.433-2.237-1.297-2.98-.864-.744-2.04-1.115-3.526-1.115h-4.414v8.19h4.414c1.486 0 2.662-.371 3.526-1.115.864-.743 1.297-1.736 1.297-2.98zm-9.237 21.523h-6.098V.455h10.284c3.398 0 6.135.858 8.213 2.57 2.078 1.715 3.117 3.983 3.117 6.804 0 1.94-.47 3.625-1.41 5.05-.94 1.427-2.29 2.519-4.05 3.277l7.281 13.469h-6.598l-6.325-11.922h-4.414v11.922z"/>
        <path fill="#0155FC" d="M295.637 25.977c-5.594 0-10.142-4.548-10.142-10.14 0-5.592 4.548-10.14 10.142-10.14 5.59 0 10.139 4.548 10.139 10.14 0 5.592-4.55 10.14-10.14 10.14m14.15-17.28c-2.68-5.292-7.795-8.54-13.683-8.69h-.003L295.636 0l-.468.006c-5.888.151-11.003 3.4-13.683 8.69-2.726 5.38-2.306 11.54 1.123 16.478l10.26 14.773a3.367 3.367 0 0 0 5.533 0l10.262-14.773c3.43-4.938 3.85-11.098 1.123-16.478"/>
    </g>
</svg>
