<?xml version="1.0" encoding="UTF-8"?>
<svg width="30px" height="30px" viewBox="0 0 30 30" version="1.1" xmlns="http://www.w3.org/2000/svg" xmlns:xlink="http://www.w3.org/1999/xlink">
    <!-- Generator: Sketch 49 (51002) - http://www.bohemiancoding.com/sketch -->
    <title>icons/hand/right</title>
    <desc>Created with Sketch.</desc>
    <defs></defs>
    <g id="icons/hand/right" stroke="none" stroke-width="1" fill="none" fill-rule="evenodd">
        <path d="M10.9957627,5.71610169 C10.1059322,4.82627119 9.95762712,4.58898305 9.95762712,3.81779661 C9.95762712,3.61016949 10.0169492,2.63135593 10.0466102,2.3940678 C10.1652542,1.41525424 11.3813559,1 14.0508475,1 C16.1567797,1 17.7881356,1.26694915 18.9745763,1.80084746 C19.6271186,2.09745763 19.7754237,2.33474576 19.7754237,3.19491525 C19.7754237,4.79661017 19.6567797,5.18220339 19.0042373,5.80508475 C19.2711864,6.48728814 19.3898305,6.75423729 19.9237288,7.61440678 C21.4661017,10.1652542 21.7627119,10.9364407 21.7627119,12.3305085 C21.7627119,12.5381356 21.7330508,13.0127119 21.7033898,13.5466102 C21.9110169,14.2584746 22,14.7033898 22,15.029661 C22,15.9194915 21.3771186,16.690678 20.6652542,16.690678 C20.5466102,16.690678 20.4279661,16.690678 20.279661,16.6313559 C20.3686441,16.9279661 20.3983051,17.1059322 20.3983051,17.2838983 C20.3983051,18.2627119 19.5084746,19.1228814 18.470339,19.1228814 C18.2627119,19.1228814 18.0550847,19.0635593 17.6694915,18.9449153 C17.6101695,19.9830508 16.8686441,20.6949153 15.8601695,20.6949153 C15.3559322,20.6949153 15.029661,20.5762712 14.4957627,20.25 L14.4957627,23.5423729 C14.4957627,26.2415254 14.3474576,27.220339 13.8135593,27.9025424 C13.5762712,28.2288136 13.190678,28.4067797 12.8050847,28.4067797 C11.9745763,28.4067797 11.440678,27.8432203 11.2033898,26.6864407 C11.0847458,26.0042373 11.0550847,25.6779661 10.8474576,22.2372881 C10.7288136,20.6355932 10.6694915,19.9533898 10.4025424,18.2923729 C9.42372881,17.4915254 8.83050847,16.720339 8.68220339,16.0974576 C8.41525424,14.8516949 8.41525424,14.8516949 8.26694915,14.1991525 C8.02966102,13.279661 8,13.1016949 8,12.5084746 C8,11.6186441 8.20762712,10.6991525 8.56355932,9.89830508 C8.94915254,8.97881356 9.86864407,7.49576271 10.4025424,6.87288136 C10.8771186,6.33898305 10.9661017,6.16101695 10.9957627,5.71610169 Z M13.6652542,21.1398305 L13.6652542,19.8940678 C13.220339,19.8644068 12.9533898,19.8050847 12.3898305,19.5677966 C12.3305085,19.5381356 12.0042373,19.3305085 11.3220339,18.9152542 C11.470339,20.1610169 11.7372881,23.4237288 11.8855932,25.9152542 C11.9745763,26.9830508 12.3008475,27.5762712 12.8347458,27.5762712 C13.0720339,27.5762712 13.3686441,27.25 13.4576271,26.9237288 C13.6059322,26.4194915 13.6652542,24.9661017 13.6652542,21.1398305 Z M19.8644068,9.12711864 L19.0635593,7.76271186 C18.3516949,6.33898305 18.3516949,6.33898305 18.0550847,5.80508475 C17.4915254,5.41949153 17.1949153,5.30084746 16.4533898,5.18220339 C16.0084746,5.09322034 15.3559322,5.03389831 15.029661,5.03389831 C14.6440678,5.03389831 13.25,5.09322034 12.8940678,5.12288136 C12.4491525,5.18220339 12.3305085,5.21186441 11.8262712,5.44915254 C11.8559322,5.56779661 11.8855932,5.65677966 11.8855932,5.68644068 C11.8855932,6.13135593 11.6779661,6.57627119 11.1440678,7.25847458 C10.4322034,8.1779661 9.51271186,9.75 9.15677966,10.6101695 C8.94915254,11.2033898 8.80084746,11.8855932 8.80084746,12.4788136 C8.80084746,13.25 9.3940678,15.6525424 9.75,16.3347458 C10.1059322,17.0169492 10.9364407,17.7584746 12.3008475,18.529661 C12.9533898,18.9152542 13.309322,19.0635593 13.5466102,19.0635593 C13.8728814,19.0635593 14.1101695,18.7076271 14.1101695,18.1737288 C14.1101695,17.3728814 13.6949153,16.690678 12.8940678,16.0974576 C12.5677966,15.8898305 12.5677966,15.8898305 12.3601695,15.3262712 C12.1228814,14.6737288 12.1228814,14.6737288 12.0338983,14.3474576 C12.7457627,13.7542373 13.309322,13.1313559 13.9322034,12.1228814 C14.4661017,11.3516949 14.6440678,10.6101695 14.6440678,9.36440678 C14.6440678,9.27542373 14.6144068,8.94915254 14.5550847,8.41525424 L14.5550847,8.29661017 C14.5550847,8.05932203 14.6737288,7.91101695 14.8813559,7.91101695 C15.2076271,7.91101695 15.4449153,8.44491525 15.4449153,9.15677966 C15.4449153,9.66101695 15.2669492,10.9067797 15.1483051,11.3516949 C15.029661,11.7372881 14.940678,11.8855932 14.2584746,13.190678 C14.5254237,13.25 14.6144068,13.279661 14.8220339,13.3983051 C14.940678,12.4491525 15.4745763,11.8855932 16.2754237,11.8855932 C16.3940678,11.8855932 16.5423729,11.9152542 16.779661,11.9449153 C16.779661,11.0847458 17.4322034,10.4915254 18.3813559,10.4915254 C19.1822034,10.4915254 20.0127119,11.0847458 21.0211864,12.3601695 C20.9322034,11.2923729 20.5762712,10.3135593 19.8644068,9.12711864 Z M14.6737288,19.3008475 C15.1483051,19.7161017 15.5042373,19.8940678 15.8601695,19.8940678 C16.4237288,19.8940678 16.9279661,19.3601695 16.9279661,18.7669492 C16.9279661,18.559322 16.8389831,18.2923729 16.5720339,17.4915254 C16.3644068,16.9576271 16.3644068,16.9576271 15.9788136,16.1864407 C15.3262712,14.970339 15.1779661,14.7330508 14.940678,14.4957627 C14.6144068,14.1398305 14.2584746,13.9322034 13.9322034,13.9322034 C13.5169492,13.9322034 13.0127119,14.4661017 13.0127119,14.8813559 C13.0127119,15.1186441 13.1016949,15.2372881 13.4872881,15.5042373 C14.4364407,16.1864407 14.9110169,17.1059322 14.9110169,18.2627119 C14.9110169,18.6186441 14.9110169,18.6186441 14.6737288,19.3008475 Z M16.4237288,12.6567797 C15.9788136,12.6567797 15.5932203,13.0720339 15.5932203,13.5466102 C15.5932203,13.8432203 15.6525424,14.0211864 16.0084746,14.5847458 C16.2161017,14.940678 17.0466102,16.5720339 17.2542373,17.0169492 C17.5805085,17.6991525 17.5805085,17.6991525 17.7881356,17.9067797 C18.0550847,18.1440678 18.3220339,18.2627119 18.529661,18.2627119 C18.7966102,18.2627119 19.1822034,18.0254237 19.3601695,17.7881356 C19.4491525,17.6398305 19.5084746,17.4915254 19.5084746,17.2838983 C19.5084746,16.779661 19.1525424,15.9788136 18.3813559,14.6440678 C17.5211864,13.190678 16.9872881,12.6567797 16.4237288,12.6567797 Z M18.2923729,11.3220339 C17.9364407,11.3220339 17.6398305,11.6483051 17.6398305,12.0635593 C17.6398305,12.2415254 17.6991525,12.3601695 17.9364407,12.5974576 C18.2330508,12.8644068 18.559322,13.3389831 18.9449153,13.9618644 C19.7457627,15.2966102 19.7457627,15.3262712 20.0127119,15.5932203 C20.220339,15.8008475 20.3983051,15.8898305 20.5466102,15.8898305 C20.9322034,15.8898305 21.2288136,15.4745763 21.2288136,14.9110169 C21.2288136,14.1694915 20.7838983,13.309322 19.8644068,12.3008475 C19.3008475,11.7076271 18.7076271,11.3220339 18.2923729,11.3220339 Z M11.2033898,4.70762712 C11.2627119,4.70762712 11.3516949,4.6779661 11.440678,4.64830508 C12.2118644,4.3220339 13.0720339,4.20338983 14.4957627,4.20338983 C15.8601695,4.20338983 17.0466102,4.38135593 17.7881356,4.70762712 C18.2923729,4.91525424 18.440678,4.97457627 18.529661,4.97457627 C18.7966102,4.97457627 18.8855932,4.61864407 18.8855932,3.25423729 C18.8855932,2.69067797 18.7966102,2.5720339 18.2033898,2.33474576 C17.0169492,1.91949153 15.9788136,1.77118644 14.2288136,1.77118644 C12.8050847,1.77118644 11.7372881,1.88983051 11.2627119,2.06779661 C10.9067797,2.21610169 10.8177966,2.42372881 10.8177966,3.04661017 L10.8177966,3.63983051 C10.7881356,3.81779661 10.7881356,3.90677966 10.7881356,4.02542373 C10.7881356,4.35169492 10.9957627,4.70762712 11.2033898,4.70762712 Z" id="☟" fill="#0155FC" transform="translate(15.000000, 14.703390) scale(-1, 1) rotate(-270.000000) translate(-15.000000, -14.703390) "></path>
    </g>
</svg>