<?xml version="1.0" standalone="no"?>
<!DOCTYPE svg PUBLIC "-//W3C//DTD SVG 1.1//EN" "http://www.w3.org/Graphics/SVG/1.1/DTD/svg11.dtd" >
<svg xmlns="http://www.w3.org/2000/svg" xmlns:xlink="http://www.w3.org/1999/xlink" version="1.1">
<metadata>
Created by FontForge 20161003 at Thu Mar  8 08:40:05 2018
 By www-data
Copyright 2017 BlackFoundry
</metadata>
<defs>
<font id="ClotherBold" horiz-adv-x="0" >
  <font-face 
    font-family="ClotherBold"
    font-weight="700"
    font-stretch="normal"
    units-per-em="1000"
    panose-1="2 11 8 3 2 2 3 2 2 3"
    ascent="800"
    descent="-200"
    x-height="459"
    cap-height="685"
    bbox="-710 -522 1409 1213"
    underline-thickness="50"
    underline-position="-155"
    unicode-range="U+000D-FEFC"
  />
<missing-glyph horiz-adv-x="682" 
d="M587 0h-492v685h492v-685zM147 638v-591h388v591h-388z" />
    <glyph glyph-name="fi" unicode="fi" horiz-adv-x="601" 
d="M282 596q-30 0 -49 -19t-19 -49q0 -14 4 -31t13 -38h304v-459h-133v345h-155v-345h-133v345h-97v109l87 5l-2 5q-11 26 -16 49t-5 44q0 71 49 114.5t128 43.5q44 0 91 -17t93 -50l-57 -94q-31 22 -56 32t-47 10z" />
    <glyph glyph-name="fl" unicode="fl" horiz-adv-x="601" 
d="M328 459v-114h-81v-345h-133v345h-97v109l87 5l-3 7q-10 23 -15 45.5t-5 43.5q0 72 50 116t132 44q41 0 80.5 -11t79.5 -33l9 34h103v-705h-133v555q-32 21 -60 31t-55 10q-32 0 -52.5 -19.5t-20.5 -50.5q0 -15 4 -31.5t13 -35.5h97z" />
    <glyph glyph-name="allah" unicode="&#xfe8d;&#xfedf;&#xfee0;&#xfeea;" horiz-adv-x="1374" arabic-form="isolated" 
d="M618 820v160h74v-160h-74zM743 697q-3 23 -8 42.5t-10 33.5l57 21q11 -34 13 -72t-6 -78q-17 -11 -37 -17.5t-39 -6.5t-33 4.5t-25 13.5q-18 -9 -34.5 -13.5t-34.5 -4.5q-35 0 -52.5 20t-17.5 59v84h55v-71q0 -14 5.5 -19.5t20.5 -5.5q7 0 15 2t15 5q-1 12 -1.5 18.5
t-0.5 11.5v51h56v-52q0 -18 7 -25.5t23 -7.5q7 0 15.5 2t16.5 5zM1304 705v-705h-119v705h119zM1016 612v-365q0 -125 -51 -186t-156 -61q-51 0 -86 22t-54 65q-31 -43 -77.5 -65t-106.5 -22q-54 0 -93.5 24t-59.5 70q-24 -15 -52 -23t-58 -8q-81 0 -132 45t-51 117
q0 86 70 150.5t207 101.5v42h119v-288q0 -48 14.5 -67.5t49.5 -19.5q31 0 56.5 10t42.5 29v385h119v-323q0 -50 20.5 -75.5t62.5 -25.5q49 0 73 25.5t24 77.5v365h119zM150 241q0 -26 23 -39t68 -13q16 0 35 2.5t40 6.5v144q-83 -13 -124.5 -38t-41.5 -63z" />
    <glyph glyph-name="lam.init_ah.fina" unicode="&#xfedf;&#xfe82;" horiz-adv-x="565" arabic-form="isolated" 
d="M5 755q11 0 23 -3t37 -13q20 -8 30 -10.5t17 -2.5q14 0 27 2.5t33 9.5l-8 -73q-17 -9 -31.5 -13t-28.5 -4q-11 0 -23.5 3t-36.5 13q-20 8 -29.5 10.5t-16.5 2.5q-11 0 -23 -2t-37 -10l8 73q16 9 31 13t28 4zM180 134q-16 102 -62 199.5t-125 198.5l101 75
q79 -103 131 -226.5t62 -236.5q43 13 62.5 44t19.5 88v429h119v-435q0 -136 -76.5 -208t-218.5 -72q-39 0 -83 5t-74 13l5 143q28 -7 63.5 -11t75.5 -6z" />
    <glyph glyph-name="lam.medi_ah.fina" unicode="&#xfee0;&#xfe82;" horiz-adv-x="601" arabic-form="final" 
d="M5 755q11 0 23 -3t37 -13q20 -8 30 -10.5t17 -2.5q14 0 27 2.5t33 9.5l-8 -73q-17 -9 -31.5 -13t-28.5 -4q-11 0 -23.5 3t-36.5 13q-20 8 -29.5 10.5t-16.5 2.5q-11 0 -23 -2t-37 -10l8 73q16 9 31 13t28 4zM180 134q-16 102 -62 199.5t-125 198.5l101 75
q80 -104 131.5 -226.5t61.5 -235.5q43 13 62.5 44.5t19.5 87.5v428h119v-453q0 -60 22.5 -84t78.5 -24h12v-144h-10q-61 0 -99.5 23.5t-53.5 69.5q-31 -48 -96.5 -75.5t-148.5 -27.5q-39 0 -83 5t-74 13l5 143q29 -7 66 -11.5t73 -5.5z" />
    <glyph glyph-name="lam.init_alefHamzeAbove.fina" unicode="&#xfedf;&#xfe84;" horiz-adv-x="565" arabic-form="isolated" 
d="M180 134q-16 102 -62 199.5t-125 198.5l101 75q79 -103 131 -226.5t62 -236.5q43 13 62.5 44t19.5 88v429h119v-435q0 -136 -76.5 -208t-218.5 -72q-39 0 -83 5t-74 13l5 143q28 -7 63.5 -11t75.5 -6zM185 746v-73l-239 -36v74l54 8q-10 17 -15.5 36t-5.5 38q0 44 27 71
t72 27q23 0 45 -7t41 -20l-19 -57q-16 5 -33 8t-31 3q-10 0 -19 -1.5t-15 -4.5q2 -32 17.5 -54.5t37.5 -22.5q7 0 42 5t41 6z" />
    <glyph glyph-name="lam.medi_alefHamzeAbove.fina" unicode="&#xfee0;&#xfe84;" horiz-adv-x="601" arabic-form="final" 
d="M180 134q-16 102 -62 199.5t-125 198.5l101 75q80 -104 131.5 -226.5t61.5 -235.5q43 13 62.5 44.5t19.5 87.5v428h119v-453q0 -60 22.5 -84t78.5 -24h12v-144h-10q-61 0 -99.5 23.5t-53.5 69.5q-31 -48 -96.5 -75.5t-148.5 -27.5q-39 0 -83 5t-74 13l5 143
q29 -7 66 -11.5t73 -5.5zM185 746v-73l-239 -36v74l54 8q-10 17 -15.5 36t-5.5 38q0 44 27 71t72 27q23 0 45 -7t41 -20l-19 -57q-16 5 -33 8t-31 3q-10 0 -19 -1.5t-15 -4.5q2 -32 17.5 -54.5t37.5 -22.5q7 0 42 5t41 6z" />
    <glyph glyph-name="lam.init_alefHamzeBelow.fina" unicode="&#xfedf;&#xfe88;" horiz-adv-x="565" arabic-form="isolated" 
d="M180 134q-18 109 -70.5 216t-150.5 229l104 76q92 -114 152.5 -250.5t70.5 -260.5q43 13 63 44.5t20 87.5v429h119v-435q0 -136 -76 -208t-219 -72q-39 0 -83 5t-74 13l5 143q28 -7 63.5 -11t75.5 -6zM262 -190v-74l-239 -36v74l55 8q-11 17 -16.5 36t-5.5 39
q0 44 27.5 71t71.5 27q22 0 44 -7t42 -20l-19 -58q-27 10 -54.5 11.5t-42.5 -5.5q2 -33 17 -55.5t37 -22.5q3 0 10.5 1t30.5 5q16 2 25 3.5t17 2.5z" />
    <glyph glyph-name="lam.medi_alefHamzeBelow.fina" unicode="&#xfee0;&#xfe88;" horiz-adv-x="601" arabic-form="final" 
d="M180 134q-18 109 -70.5 216t-150.5 229l104 76q92 -114 152.5 -250.5t70.5 -259.5q44 13 63.5 44t19.5 88v428h119v-453q0 -60 22.5 -84t78.5 -24h12v-144h-10q-61 0 -99.5 23.5t-53.5 69.5q-31 -48 -96.5 -75.5t-148.5 -27.5q-39 0 -83 5t-74 13l5 143q29 -7 66 -11.5
t73 -5.5zM262 -190v-74l-239 -36v74l55 8q-11 17 -16.5 36t-5.5 39q0 44 27.5 71t71.5 27q22 0 44 -7t42 -20l-19 -58q-27 10 -54.5 11.5t-42.5 -5.5q2 -33 17 -55.5t37 -22.5q3 0 10.5 1t30.5 5q16 2 25 3.5t17 2.5z" />
    <glyph glyph-name="lam.init_alef.fina" unicode="&#xfedf;&#xfe8e;" horiz-adv-x="565" arabic-form="isolated" 
d="M180 134q-18 109 -70.5 216t-150.5 229l104 76q92 -114 152.5 -250.5t70.5 -260.5q43 13 63 44.5t20 87.5v429h119v-435q0 -136 -76 -208t-219 -72q-39 0 -83 5t-74 13l5 143q28 -7 63.5 -11t75.5 -6z" />
    <glyph glyph-name="lam.medi_alef.fina" unicode="&#xfee0;&#xfe8e;" horiz-adv-x="601" arabic-form="final" 
d="M180 134q-18 109 -70.5 216t-150.5 229l104 76q92 -114 152.5 -250.5t70.5 -259.5q44 13 63.5 44t19.5 88v428h119v-453q0 -60 22.5 -84t78.5 -24h12v-144h-10q-61 0 -99.5 23.5t-53.5 69.5q-31 -48 -96.5 -75.5t-148.5 -27.5q-39 0 -83 5t-74 13l5 143q29 -7 66 -11.5
t73 -5.5z" />
    <glyph glyph-name="dotlessBeh.init" unicode="&#x66e;" horiz-adv-x="357" 
d="M0 144h6q53 0 95.5 7t73.5 21q-4 48 -13 92t-24 92l121 42q25 -82 29 -167t-14 -171q-50 -29 -118.5 -44.5t-148.5 -15.5h-7q-9 0 -15 20.5t-6 50.5q0 31 6 52t15 21z" />
    <glyph glyph-name="dotlessBeh.medi" unicode="&#x66e;" horiz-adv-x="403" 
d="M403 144v-144h-14q-62 0 -107 23.5t-63 65.5q-28 -41 -86.5 -65t-128.5 -24h-4q-9 0 -15 20.5t-6 50.5q0 31 6 52t15 21h12q44 0 78 9.5t58 29.5v147h119v-79q0 -54 30.5 -80.5t94.5 -26.5h11z" />
    <glyph glyph-name="dotlessBeh.fina" unicode="&#x66e;" horiz-adv-x="884" 
d="M884 0h-8q-57 0 -102.5 16.5t-75.5 46.5q-69 -34 -162 -53.5t-186 -19.5q-154 0 -232 54.5t-78 162.5q0 42 15 85t42 81l84 -43q-13 -27 -18 -46.5t-5 -39.5q0 -58 53 -84t171 -26q75 0 139.5 10t116.5 30l-41 134l116 33l21 -69q25 -81 53.5 -104.5t90.5 -23.5h6v-144z
" />
    <glyph glyph-name="alefWavyHamzehAbove.fina" unicode="&#x672;" horiz-adv-x="290" 
d="M279 144h11v-144h-25q-96 0 -142.5 50t-46.5 154v501h119v-487q0 -39 20 -56.5t64 -17.5zM256 801l-134 -20q-29 -4 -58.5 -1t-74.5 18q-20 6 -28.5 8t-14.5 2q-11 0 -23 -3t-30 -9l8 71q17 9 31.5 13t28.5 4q11 0 23 -3t36 -14q20 -8 30.5 -11.5t19.5 -4.5
q-10 16 -15 34t-5 37q0 44 27.5 71t71.5 27q23 0 45 -7t41 -20l-19 -58q-27 10 -54.5 11.5t-42.5 -5.5q2 -33 17 -55.5t37 -22.5q3 0 10.5 1t30.5 5q16 2 25 3.5t17 2.5v-74z" />
    <glyph glyph-name="hehHamzehAbove.fina" unicode="&#x6c2;" horiz-adv-x="553" 
d="M342 241q65 -60 105 -78.5t85 -18.5h21v-144h-13q-70 0 -128 23t-136 92q-52 46 -79 59t-55 13t-53 -5.5t-49 -17.5l20 145q24 10 53 16t57 6q39 0 75.5 -17t96.5 -73zM283 496v-74l-239 -35v73l55 8q-11 17 -16.5 36t-5.5 39q0 44 27.5 71t71.5 27q23 0 45 -7t41 -20
l-19 -58q-26 9 -54 11t-43 -5q2 -32 17.5 -55t36.5 -23q3 0 10.5 1t30.5 5q16 2 25 3.5t17 2.5z" />
    <glyph glyph-name="hehTehUrdu.fina" unicode="&#x6c3;" horiz-adv-x="553" 
d="M342 241q65 -60 105 -78.5t85 -18.5h21v-144h-13q-70 0 -128 23t-136 92q-52 46 -79 59t-55 13t-53 -5.5t-49 -17.5l20 145q24 10 53 16t57 6q39 0 75.5 -17t96.5 -73zM163 467l-68 -68l-73 71l73 72l68 -69l68 69l73 -72l-73 -71z" />
    <glyph glyph-name="alefWasleh.isol" unicode="&#x671;" horiz-adv-x="272" arabic-form="isolated" 
d="M195 705v-705h-119v705h119zM176 984q45 0 71.5 -50.5t13.5 -123.5q-19 -16 -40.5 -24.5t-42.5 -8.5q-12 0 -25 3.5t-36 13.5q-19 8 -28 10.5t-16 2.5q-13 0 -26 -2.5t-34 -9.5l8 73q12 7 24 11t27 6q15 45 43 72t61 27zM204 872q0 16 -10.5 29t-24.5 13q-12 0 -22 -10
t-20 -31q29 -13 36.5 -15t14.5 -2q13 0 19.5 4t6.5 12z" />
    <glyph glyph-name="alefWasleh.fina" unicode="&#x671;" horiz-adv-x="290" arabic-form="final" 
d="M279 144h11v-144h-25q-96 0 -142.5 50t-46.5 154v501h119v-487q0 -39 20 -56.5t64 -17.5zM176 984q45 0 71.5 -50.5t13.5 -123.5q-19 -16 -40.5 -24.5t-42.5 -8.5q-12 0 -25 3.5t-36 13.5q-19 8 -28 10.5t-16 2.5q-13 0 -26 -2.5t-34 -9.5l8 73q12 7 24 11t27 6
q15 45 43 72t61 27zM204 872q0 16 -10.5 29t-24.5 13q-12 0 -22 -10t-20 -31q29 -13 36.5 -15t14.5 -2q13 0 19.5 4t6.5 12z" />
    <glyph glyph-name="peh.isol" unicode="&#x67e;" horiz-adv-x="826" arabic-form="isolated" 
d="M158 243q0 -58 56.5 -83.5t183.5 -25.5q72 0 139.5 9.5t106.5 25.5q-3 41 -11 82t-23 89l121 42q23 -75 26 -156.5t-14 -165.5q-68 -32 -169.5 -51t-206.5 -19q-163 0 -245 55t-82 163q0 41 15 84.5t42 80.5l84 -44q-13 -26 -18 -46t-5 -40zM403 -150l-68 -68l-73 71
l73 71l68 -68l68 68l73 -71l-73 -71zM475 -277l-72 -71l-72 71l72 72z" />
    <glyph glyph-name="peh.fina" unicode="&#x67e;" horiz-adv-x="884" arabic-form="final" 
d="M884 0h-8q-57 0 -102.5 16.5t-75.5 46.5q-69 -34 -162 -53.5t-186 -19.5q-154 0 -232 54.5t-78 162.5q0 42 15 85t42 81l84 -43q-13 -27 -18 -46.5t-5 -39.5q0 -58 53 -84t171 -26q75 0 139.5 10t116.5 30l-41 134l116 33l21 -69q25 -81 53.5 -104.5t90.5 -23.5h6v-144z
M400 -150l-68 -68l-73 71l73 71l68 -68l68 68l73 -71l-73 -71zM472 -277l-72 -71l-72 71l72 72z" />
    <glyph glyph-name="peh.init" unicode="&#x67e;" horiz-adv-x="357" arabic-form="initial" 
d="M0 144h6q53 0 95.5 7t73.5 21q-4 48 -13 92t-24 92l121 42q25 -82 29 -167t-14 -171q-50 -29 -118.5 -44.5t-148.5 -15.5h-7q-9 0 -15 20.5t-6 50.5q0 31 6 52t15 21zM208 -150l-68 -68l-73 71l73 71l68 -68l68 68l73 -71l-73 -71zM280 -277l-72 -71l-72 71l72 72z" />
    <glyph glyph-name="peh.medi" unicode="&#x67e;" horiz-adv-x="403" arabic-form="medial" 
d="M403 144v-144h-14q-62 0 -107 23.5t-63 65.5q-28 -41 -86.5 -65t-128.5 -24h-4q-9 0 -15 20.5t-6 50.5q0 31 6 52t15 21h12q44 0 78 9.5t58 29.5v147h119v-79q0 -54 30.5 -80.5t94.5 -26.5h11zM203 -150l-68 -68l-73 71l73 71l68 -68l68 68l73 -71l-73 -71zM275 -277
l-72 -71l-72 71l72 72z" />
    <glyph glyph-name="tehTa.isol" unicode="&#x679;" horiz-adv-x="826" arabic-form="isolated" 
d="M158 243q0 -58 56.5 -83.5t183.5 -25.5q72 0 139.5 9.5t106.5 25.5q-3 41 -11 82t-23 89l121 42q23 -75 26 -156.5t-14 -165.5q-68 -32 -169.5 -51t-206.5 -19q-163 0 -245 55t-82 163q0 41 15 84.5t42 80.5l84 -44q-13 -26 -18 -46t-5 -40zM555 515q0 -17 -5.5 -34
t-14.5 -31q-32 -8 -76 -12t-99 -4q-32 0 -63 4.5t-55 13.5l21 62q15 -4 25.5 -6t20.5 -3q3 11 6.5 21t8.5 19v159h64v-98q14 11 30 16t34 5q46 0 74.5 -31t28.5 -81zM489 509q0 24 -13 37.5t-36 13.5q-24 0 -42 -15t-28 -42q41 0 71 1.5t48 4.5z" />
    <glyph glyph-name="tehTa.fina" unicode="&#x679;" horiz-adv-x="884" arabic-form="final" 
d="M884 0h-8q-57 0 -102.5 16.5t-75.5 46.5q-69 -34 -162 -53.5t-186 -19.5q-154 0 -232 54.5t-78 162.5q0 42 15 85t42 81l84 -43q-13 -27 -18 -46.5t-5 -39.5q0 -58 53 -84t171 -26q75 0 139.5 10t116.5 30l-41 134l116 33l21 -69q25 -81 53.5 -104.5t90.5 -23.5h6v-144z
M552 515q0 -17 -5.5 -34t-14.5 -31q-32 -8 -76 -12t-99 -4q-32 0 -63 4.5t-55 13.5l21 62q15 -4 25.5 -6t20.5 -3q3 11 6.5 21t8.5 19v159h64v-98q14 11 30 16t34 5q46 0 74.5 -31t28.5 -81zM486 509q0 24 -13 37.5t-36 13.5q-24 0 -42 -15t-28 -42q41 0 71 1.5t48 4.5z" />
    <glyph glyph-name="tehTa.init" unicode="&#x679;" horiz-adv-x="357" arabic-form="initial" 
d="M0 144h6q53 0 95.5 7t73.5 21q-4 48 -13 92t-24 92l121 42q25 -82 29 -167t-14 -171q-50 -29 -118.5 -44.5t-148.5 -15.5h-7q-9 0 -15 20.5t-6 50.5q0 31 6 52t15 21zM317 561q0 -17 -5.5 -34t-14.5 -31q-32 -8 -76 -12t-99 -4q-32 0 -63 4.5t-55 13.5l21 62
q15 -4 25.5 -6t20.5 -3q3 11 6.5 21t8.5 19v159h64v-98q14 11 30 16t34 5q46 0 74.5 -31t28.5 -81zM251 555q0 24 -13 37.5t-36 13.5q-24 0 -42 -15t-28 -42q41 0 71 1.5t48 4.5z" />
    <glyph glyph-name="tehTa.medi" unicode="&#x679;" horiz-adv-x="403" arabic-form="medial" 
d="M403 144v-144h-14q-62 0 -107 23.5t-63 65.5q-28 -41 -86.5 -65t-128.5 -24h-4q-9 0 -15 20.5t-6 50.5q0 31 6 52t15 21h12q44 0 78 9.5t58 29.5v147h119v-79q0 -54 30.5 -80.5t94.5 -26.5h11zM355 506q0 -17 -5.5 -34t-14.5 -31q-32 -8 -76 -12t-99 -4q-32 0 -63 4.5
t-55 13.5l21 62q15 -4 25.5 -6t20.5 -3q3 11 6.5 21t8.5 19v159h64v-98q14 11 30 16t34 5q46 0 74.5 -31t28.5 -81zM289 500q0 24 -13 37.5t-36 13.5q-24 0 -42 -15t-28 -42q41 0 71 1.5t48 4.5z" />
    <glyph glyph-name="cheh.isol" unicode="&#x686;" horiz-adv-x="726" arabic-form="isolated" 
d="M617 -113l-7 -142q-52 -13 -106 -19.5t-107 -6.5q-169 0 -267 71.5t-98 194.5q0 129 110 218t316 126q-53 12 -98 18.5t-79 6.5q-59 0 -114.5 -11t-109.5 -33l-36 124q61 23 118.5 34t121.5 11q89 0 208 -33.5t221 -86.5l-28 -109q-238 -2 -372 -67.5t-134 -174.5
q0 -72 57.5 -108t171.5 -36q62 0 117.5 5.5t114.5 17.5zM378 71l-61 -59l-64 62l64 64l61 -61l61 61l64 -64l-64 -62zM442 -23l-64 -63l-64 63l64 64z" />
    <glyph glyph-name="cheh.fina" unicode="&#x686;" horiz-adv-x="726" arabic-form="final" 
d="M617 -113l-7 -142q-52 -13 -106 -19.5t-107 -6.5q-169 0 -267 71.5t-98 194.5q0 129 110 218t316 126q-53 12 -98 18.5t-79 6.5q-59 0 -114.5 -11t-109.5 -33l-36 124q61 23 118.5 34t121.5 11q89 0 208 -33.5t221 -86.5l-25 -97q-35 0 -61.5 -1t-48.5 -4
q12 -59 50.5 -86t113.5 -27h7v-144h-10q-115 0 -176.5 58.5t-70.5 176.5q-150 -24 -231.5 -84t-81.5 -143q0 -72 57.5 -108t171.5 -36q62 0 117.5 5.5t114.5 17.5zM358 71l-61 -59l-64 62l64 64l61 -61l61 61l64 -64l-64 -62zM422 -23l-64 -63l-64 63l64 64z" />
    <glyph glyph-name="cheh.init" unicode="&#x686;" horiz-adv-x="726" arabic-form="initial" 
d="M269 480q102 0 214.5 -30.5t208.5 -83.5l-50 -105q-26 14 -48.5 24t-42.5 17q-80 -142 -225 -222t-323 -80h-3q-9 0 -15 20.5t-6 50.5q0 31 6 52t15 21h6q138 0 254 51t173 143q-37 8 -74.5 12t-77.5 4q-59 0 -114.5 -11t-109.5 -33l-36 124q61 24 119.5 35t128.5 11z
M369 -150l-68 -68l-73 71l73 71l68 -68l68 68l73 -71l-73 -71zM441 -277l-72 -71l-72 71l72 72z" />
    <glyph glyph-name="cheh.medi" unicode="&#x686;" horiz-adv-x="726" arabic-form="medial" 
d="M269 480q102 0 214.5 -30.5t208.5 -83.5l-50 -105q-26 14 -48.5 24t-42.5 17q-5 -10 -11 -19.5t-13 -19.5q10 -62 56 -90.5t136 -28.5h7v-144h-10q-110 0 -174 44.5t-84 133.5q-86 -86 -204 -132t-251 -46h-3q-9 0 -15 20.5t-6 50.5q0 31 6 52t15 21h6q138 0 254 51
t173 143q-37 8 -74.5 12t-77.5 4q-59 0 -114.5 -11t-109.5 -33l-36 124q61 24 119.5 35t128.5 11zM369 -150l-68 -68l-73 71l73 71l68 -68l68 68l73 -71l-73 -71zM441 -277l-72 -71l-72 71l72 72z" />
    <glyph glyph-name="dalTa.isol" unicode="&#x688;" horiz-adv-x="631" arabic-form="isolated" 
d="M213 398l73 124q125 -65 204 -192.5t69 -263.5q-54 -39 -123 -57.5t-159 -18.5q-76 0 -145 12t-113 33l54 134q50 -17 100 -26t100 -9q58 0 97.5 6t70.5 20q-31 68 -92.5 133t-135.5 105zM423 675q0 -17 -5.5 -34t-14.5 -31q-32 -8 -76 -12t-99 -4q-32 0 -63 4.5
t-55 13.5l21 62q15 -4 25.5 -6t20.5 -3q3 11 6.5 21t8.5 19v159h64v-98q14 11 30 16t34 5q46 0 74.5 -31t28.5 -81zM357 669q0 24 -13 37.5t-36 13.5q-24 0 -42 -15t-28 -42q41 0 71 1.5t48 4.5z" />
    <glyph glyph-name="dalTa.fina" unicode="&#x688;" horiz-adv-x="665" arabic-form="final" 
d="M347 202l-151 260l108 68l139 -249q41 -75 87 -106t128 -31h7v-144h-12q-71 0 -116 14.5t-83 47.5q-43 -37 -94.5 -54.5t-115.5 -17.5q-61 0 -121.5 12t-103.5 33l54 134q47 -18 93.5 -26.5t93.5 -8.5q34 0 64.5 3.5t56.5 10.5q-12 17 -20 29.5t-14 24.5zM372 681
q0 -17 -5.5 -34t-14.5 -31q-32 -8 -76 -12t-99 -4q-32 0 -63 4.5t-55 13.5l21 62q15 -4 25.5 -6t20.5 -3q3 11 6.5 21t8.5 19v159h64v-98q14 11 30 16t34 5q46 0 74.5 -31t28.5 -81zM306 675q0 24 -13 37.5t-36 13.5q-24 0 -42 -15t-28 -42q41 0 71 1.5t48 4.5z" />
    <glyph glyph-name="zheh.isol" unicode="&#x698;" horiz-adv-x="582" arabic-form="isolated" 
d="M311 311l125 55q37 -89 55.5 -157.5t18.5 -119.5q0 -71 -23 -135t-65 -116q-47 -56 -109 -87.5t-126 -31.5q-44 0 -79.5 6.5t-70.5 22.5l28 106q24 -5 41.5 -7t34.5 -2q78 0 150.5 52.5t112.5 139.5q-5 47 -29 117.5t-64 156.5zM386 658l-72 -71l-72 71l72 72zM314 525
l-68 -68l-73 71l73 72l68 -69l68 69l73 -72l-73 -71z" />
    <glyph glyph-name="zheh.fina" unicode="&#x698;" horiz-adv-x="613" arabic-form="final" 
d="M428 79q-17 22 -33 51t-32 66l-50 116l113 48l50 -121q24 -57 50 -76t82 -19h5v-144h-8q-29 0 -54 4.5t-47 13.5q-23 -129 -114.5 -214t-202.5 -85q-44 0 -79.5 6.5t-70.5 22.5l28 106q24 -5 41.5 -7t34.5 -2q87 0 163.5 62t123.5 172zM386 658l-72 -71l-72 71l72 72z
M314 525l-68 -68l-73 71l73 72l68 -69l68 69l73 -72l-73 -71z" />
    <glyph glyph-name="rehTa.isol" unicode="&#x691;" horiz-adv-x="582" arabic-form="isolated" 
d="M311 311l125 55q37 -89 55.5 -157.5t18.5 -119.5q0 -71 -23 -135t-65 -116q-47 -56 -109 -87.5t-126 -31.5q-44 0 -79.5 6.5t-70.5 22.5l28 106q24 -5 41.5 -7t34.5 -2q78 0 150.5 52.5t112.5 139.5q-5 47 -29 117.5t-64 156.5zM466 526q0 -17 -5.5 -34t-14.5 -31
q-32 -8 -76 -12t-99 -4q-32 0 -63 4.5t-55 13.5l21 62q15 -4 25.5 -6t20.5 -3q3 11 6.5 21t8.5 19v159h64v-98q14 11 30 16t34 5q46 0 74.5 -31t28.5 -81zM400 520q0 24 -13 37.5t-36 13.5q-24 0 -42 -15t-28 -42q41 0 71 1.5t48 4.5z" />
    <glyph glyph-name="rehTa.fina" unicode="&#x691;" horiz-adv-x="613" arabic-form="final" 
d="M428 79q-17 22 -33 51t-32 66l-50 116l113 48l50 -121q24 -57 50 -76t82 -19h5v-144h-8q-29 0 -54 4.5t-47 13.5q-23 -129 -114.5 -214t-202.5 -85q-44 0 -79.5 6.5t-70.5 22.5l28 106q24 -5 41.5 -7t34.5 -2q87 0 163.5 62t123.5 172zM466 526q0 -17 -5.5 -34t-14.5 -31
q-32 -8 -76 -12t-99 -4q-32 0 -63 4.5t-55 13.5l21 62q15 -4 25.5 -6t20.5 -3q3 11 6.5 21t8.5 19v159h64v-98q14 11 30 16t34 5q46 0 74.5 -31t28.5 -81zM400 520q0 24 -13 37.5t-36 13.5q-24 0 -42 -15t-28 -42q41 0 71 1.5t48 4.5z" />
    <glyph glyph-name="kaf.isol" unicode="&#x6a9;" horiz-adv-x="839" arabic-form="isolated" 
d="M158 243q0 -56 50.5 -82.5t157.5 -26.5q89 0 164.5 13t99.5 31q-4 19 -23 50.5t-57 80.5l-78 106q-24 31 -34.5 51t-10.5 38q0 23 10.5 42t31.5 32q62 44 160 81.5t195 55.5l26 -118q-74 -16 -144.5 -42t-138.5 -62q112 -137 151.5 -202t39.5 -118q0 -90 -101 -136.5
t-298 -46.5q-154 0 -236.5 56.5t-82.5 161.5q0 42 15 84.5t42 80.5l84 -44q-12 -25 -17.5 -45.5t-5.5 -40.5z" />
    <glyph glyph-name="kaf.fina" unicode="&#x6a9;" horiz-adv-x="968" arabic-form="final" 
d="M960 144h8v-144h-17q-78 0 -137.5 23t-110.5 71q-51 -48 -142.5 -76t-202.5 -28q-152 0 -235 57t-83 161q0 42 15 84.5t42 80.5l84 -44q-12 -25 -17.5 -45.5t-5.5 -40.5q0 -56 51 -82.5t157 -26.5q76 0 144.5 12t119.5 35l-184 234q-24 29 -34.5 49.5t-10.5 39.5
q0 22 11.5 40.5t35.5 33.5q63 44 159.5 82.5t188.5 54.5l26 -118q-80 -18 -152 -44t-134 -60l145 -187q73 -93 130.5 -127.5t148.5 -34.5z" />
    <glyph glyph-name="kaf.init" unicode="&#x6a9;" horiz-adv-x="462" arabic-form="initial" 
d="M0 0q-9 0 -15 20.5t-6 50.5q0 31 6 52t15 21q97 0 165.5 9t88.5 25q-4 18 -21.5 47t-58.5 84l-79 106q-25 34 -35 53.5t-10 35.5q0 22 11.5 40.5t35.5 33.5q62 44 159 82t191 55l26 -118q-76 -18 -146 -44t-136 -60q110 -136 150 -201.5t40 -118.5q0 -86 -95.5 -129.5
t-285.5 -43.5z" />
    <glyph glyph-name="kaf.medi" unicode="&#x6a9;" horiz-adv-x="601" arabic-form="medial" 
d="M593 144h8v-144h-17q-79 0 -139.5 23.5t-110.5 72.5q-50 -45 -138 -70.5t-196 -25.5q-9 0 -15 20.5t-6 50.5q0 31 6 52t15 21q86 0 151.5 9.5t110.5 27.5l-183 234q-24 31 -34.5 51t-10.5 38q0 22 11.5 40.5t35.5 33.5q63 44 159.5 82.5t188.5 54.5l26 -118
q-80 -18 -152 -44t-134 -60l145 -187q73 -93 130.5 -127.5t148.5 -34.5z" />
    <glyph glyph-name="gaf.isol" unicode="&#x6af;" horiz-adv-x="839" arabic-form="isolated" 
d="M449 651l-23 74q58 32 136 62t154 49l21 -76q-73 -19 -152 -48.5t-136 -60.5zM158 243q0 -56 50.5 -82.5t157.5 -26.5q89 0 164.5 13t99.5 31q-4 19 -23 50.5t-57 80.5l-78 106q-24 31 -34.5 51t-10.5 38q0 23 10.5 42t31.5 32q63 44 161 82t194 55l26 -118
q-76 -18 -147 -44t-136 -60q112 -137 151.5 -202t39.5 -118q0 -90 -101 -136.5t-298 -46.5q-154 0 -236.5 56.5t-82.5 161.5q0 42 15 84.5t42 80.5l84 -44q-12 -25 -17.5 -45.5t-5.5 -40.5z" />
    <glyph glyph-name="gaf.fina" unicode="&#x6af;" horiz-adv-x="968" arabic-form="final" 
d="M435 651l-24 74q58 32 136.5 62t153.5 49l21 -76q-73 -19 -151.5 -48.5t-135.5 -60.5zM960 144h8v-144h-17q-78 0 -137.5 23t-110.5 71q-51 -48 -142.5 -76t-202.5 -28q-152 0 -235 57t-83 161q0 42 15 84.5t42 80.5l84 -44q-12 -25 -17.5 -45.5t-5.5 -40.5
q0 -56 51 -82.5t157 -26.5q76 0 144.5 12t119.5 35l-184 234q-24 29 -34.5 49.5t-10.5 39.5q0 22 11.5 40.5t35.5 33.5q63 44 159.5 82.5t188.5 54.5l26 -118q-80 -18 -152 -44t-134 -60l145 -187q73 -93 130.5 -127.5t148.5 -34.5z" />
    <glyph glyph-name="gaf.init" unicode="&#x6af;" horiz-adv-x="462" arabic-form="initial" 
d="M99 651l-23 74q58 32 136 62t154 49l21 -76q-74 -19 -153 -48.5t-135 -60.5zM0 0q-9 0 -15 20.5t-6 50.5q0 31 6 52t15 21q97 0 165.5 9t88.5 25q-4 18 -21.5 47t-58.5 84l-79 106q-25 34 -35 53.5t-10 35.5q0 22 11.5 40.5t35.5 33.5q63 44 160 82.5t190 54.5l26 -118
q-76 -18 -146 -44t-136 -60q110 -136 150 -201.5t40 -118.5q0 -86 -95.5 -129.5t-285.5 -43.5z" />
    <glyph glyph-name="gaf.medi" unicode="&#x6af;" horiz-adv-x="601" arabic-form="medial" 
d="M76 651l-23 74q58 32 136 62t154 49l21 -76q-73 -19 -152 -48.5t-136 -60.5zM593 144h8v-144h-17q-79 0 -139.5 23.5t-110.5 72.5q-50 -45 -138 -70.5t-196 -25.5q-9 0 -15 20.5t-6 50.5q0 31 6 52t15 21q86 0 151.5 9.5t110.5 27.5l-183 234q-24 31 -34.5 51t-10.5 38
q0 22 11.5 40.5t35.5 33.5q63 44 159.5 82.5t188.5 54.5l26 -118q-80 -18 -152 -44t-134 -60l145 -187q73 -93 130.5 -127.5t148.5 -34.5z" />
    <glyph glyph-name="noonGhuna.isol" unicode="&#x6ba;" horiz-adv-x="744" arabic-form="isolated" 
d="M556 -12q4 85 -16 189.5t-59 206.5l123 39q51 -113 63.5 -274t-27.5 -260q-50 -42 -125 -64.5t-168 -22.5q-140 0 -218 69.5t-78 194.5q0 56 21.5 117t58.5 112l88 -45q-24 -43 -36 -82t-12 -73q0 -76 46 -112t143 -36q57 0 108 10.5t88 30.5z" />
    <glyph glyph-name="noonGhuna.fina" unicode="&#x6ba;" horiz-adv-x="809" arabic-form="final" 
d="M667 48q2 -66 -4.5 -121t-22.5 -98q-50 -42 -125 -64.5t-168 -22.5q-140 0 -218 69.5t-78 194.5q0 56 21.5 117t58.5 112l88 -45q-24 -43 -36 -82t-12 -73q0 -76 46 -112t143 -36q57 0 108 10.5t88 30.5q4 88 -17.5 197t-63.5 215l124 39q4 -12 9.5 -28t15.5 -49
q6 -18 8.5 -26t4.5 -15q23 -71 57.5 -94t107.5 -23h7v-144h-7q-53 0 -83 11t-52 37z" />
    <glyph glyph-name="hehUrdu.isol" unicode="&#x6c1;" horiz-adv-x="519" arabic-form="isolated" 
d="M244 470q110 -36 167.5 -105t57.5 -166q0 -93 -59.5 -151t-155.5 -58q-93 0 -148.5 52.5t-55.5 138.5q0 84 49 157t145 132zM250 326q-40 -27 -61.5 -58.5t-21.5 -62.5q0 -33 24 -52t66 -19q44 0 69.5 21t25.5 56q0 34 -25.5 62.5t-76.5 52.5z" />
    <glyph glyph-name="hehUrdu.fina" unicode="&#x6c1;" horiz-adv-x="553" arabic-form="final" 
d="M342 241q65 -60 105 -78.5t85 -18.5h21v-144h-13q-70 0 -128 23t-136 92q-52 46 -79 59t-55 13t-53 -5.5t-49 -17.5l20 145q24 10 53 16t57 6q39 0 75.5 -17t96.5 -73z" />
    <glyph glyph-name="hehUrdu.init" unicode="&#x6c1;" horiz-adv-x="376" arabic-form="initial" 
d="M163 320l121 41q20 -69 23 -145.5t-13 -155.5q-51 -29 -124 -44.5t-163 -15.5h-7q-9 0 -15 20.5t-6 50.5q0 31 6 52t15 21h6q59 0 107 7t82 21q-3 36 -11 73t-21 75zM175 -128q0 -13 6 -20t20 -8q22 -2 36.5 -18.5t14.5 -41.5q0 -26 -19 -43.5t-48 -17.5q-39 0 -65.5 31
t-26.5 80q0 28 8 59t22 58l68 -20q-7 -15 -11.5 -32t-4.5 -27z" />
    <glyph glyph-name="hehUrdu.medi" unicode="&#x6c1;" horiz-adv-x="608" arabic-form="medial" 
d="M-21 71q0 31 6 52t15 21h7q64 0 100 44t57 143l117 -18q-20 -142 6 -227.5t112 -160.5q-6 97 44.5 158t139.5 61h25v-144h-11q-72 0 -95.5 -49t6.5 -138l-85 -76q-99 68 -160.5 159t-69.5 182q-33 -39 -77.5 -58.5t-101.5 -19.5h-14q-9 0 -15 20.5t-6 50.5z" />
    <glyph glyph-name="hehDocheshm.isol" unicode="&#x6be;" horiz-adv-x="724" arabic-form="isolated" 
d="M274 43q-35 -17 -74.5 -33t-82.5 -30l-68 -22l-44 125l56 19q9 3 19 6.5t29 10.5q15 5 22 7.5t13 4.5q-38 38 -57 81t-19 88q0 83 52.5 134.5t139.5 51.5q13 0 26.5 -2t27.5 -6l37 70q156 -78 239.5 -177t83.5 -202q0 -79 -38 -134t-94 -55q-65 0 -135.5 16.5
t-132.5 46.5zM269 369q-43 0 -66 -18.5t-23 -53.5q0 -30 22.5 -61t64.5 -57q52 25 73 51t21 65q0 34 -24.5 54t-67.5 20zM391 124q29 -8 57.5 -12t53.5 -4q28 0 41.5 15t13.5 46q0 35 -27 76.5t-79 86.5q3 -12 4.5 -25t1.5 -27q0 -44 -16.5 -82.5t-49.5 -73.5z" />
    <glyph glyph-name="hehDocheshm.fina" unicode="&#x6be;" horiz-adv-x="629" arabic-form="final" 
d="M37 -48l-23 140l108 17q6 66 33 147t66 150q25 44 47 63.5t49 19.5q21 0 39 -10.5t39 -34.5q55 -62 82 -118t27 -110q0 -19 -5 -36.5t-15 -35.5h145v-144h-83q14 -19 21 -39.5t7 -44.5q0 -84 -52.5 -139t-130.5 -55q-93 0 -163.5 67t-95.5 179zM400 211q0 33 -20.5 65.5
t-66.5 73.5q-29 -53 -47.5 -111.5t-23.5 -109.5l62 10q50 8 73 25t23 47zM471 -71q0 43 -39 62.5t-109 8.5l-71 -12q16 -61 51.5 -91t91.5 -30q37 0 56.5 16t19.5 46z" />
    <glyph glyph-name="hehDocheshm.init" unicode="&#x6be;" horiz-adv-x="708" arabic-form="initial" 
d="M-21 71q0 31 6 52t15 21h30q25 0 45 1t38 3q-30 34 -45.5 72.5t-15.5 79.5q0 83 53 134.5t139 51.5q13 0 26.5 -2t27.5 -6l37 70q156 -78 239.5 -177t83.5 -202q0 -79 -38 -134t-93 -55q-66 0 -137 17t-133 47q-47 -22 -99.5 -33t-105.5 -11h-52q-9 0 -15 20.5t-6 50.5z
M254 369q-43 0 -66 -18.5t-23 -53.5q0 -29 22 -59t63 -57q46 21 71 50.5t25 63.5t-25 54t-67 20zM486 109q28 0 42 15t14 45q0 35 -27 76.5t-79 86.5q3 -13 4.5 -26t1.5 -26q0 -42 -17.5 -81.5t-50.5 -73.5q29 -8 57.5 -12t54.5 -4z" />
    <glyph glyph-name="hehDocheshm.medi" unicode="&#x6be;" horiz-adv-x="603" arabic-form="medial" 
d="M548 -88q0 -83 -51.5 -136.5t-131.5 -53.5q-100 0 -173 76t-91 202h-101q-9 0 -15 20.5t-6 50.5q0 31 6 52t15 21h101q11 63 36 133t58 129q25 44 47 63.5t49 19.5q21 0 39 -10.5t39 -34.5q55 -63 82 -119t27 -109q0 -18 -5 -35.5t-16 -36.5h146v-144h-80
q13 -20 19 -41.5t6 -46.5zM374 209q0 33 -21 66t-67 75q-27 -50 -45 -105.5t-24 -105.5h68q42 0 65.5 18.5t23.5 51.5zM445 -71q0 36 -30 56t-85 20h-109q13 -74 50 -110.5t98 -36.5q35 0 55.5 19.5t20.5 51.5z" />
    <glyph glyph-name="yehBaree.isol" unicode="&#x6d2;" horiz-adv-x="652" arabic-form="isolated" 
d="M560 0h-266q-112 0 -178.5 59.5t-66.5 160.5q0 104 69.5 171t169.5 67q27 0 55.5 -6.5t47.5 -17.5l-37 -131q-18 5 -38 7.5t-40 2.5q-53 0 -83 -23.5t-30 -63.5q0 -39 24.5 -60.5t70.5 -21.5h314z" />
    <glyph glyph-name="yehBaree.fina" unicode="&#x6d2;" horiz-adv-x="572" arabic-form="final" 
d="M49 -87q0 105 71.5 168t189.5 63h262v-144h-296q-53 0 -81 -20t-28 -58q0 -36 23.5 -54.5t68.5 -18.5h285l-7 -145h-249q-116 0 -177.5 53.5t-61.5 155.5z" />
    <glyph glyph-name="yehBareeHamzehAbove.isol" unicode="&#x6d3;" horiz-adv-x="652" arabic-form="isolated" 
d="M560 0h-266q-112 0 -178.5 59.5t-66.5 160.5q0 104 69.5 171t169.5 67q27 0 55.5 -6.5t47.5 -17.5l-37 -131q-18 5 -38 7.5t-40 2.5q-53 0 -83 -23.5t-30 -63.5q0 -39 24.5 -60.5t70.5 -21.5h314zM398 613v-74l-239 -35v73l55 8q-11 17 -16.5 36t-5.5 39q0 44 27.5 71
t71.5 27q23 0 45 -7t41 -20l-19 -58q-26 9 -54 11t-43 -5q2 -32 17.5 -55t36.5 -23q3 0 10.5 1t30.5 5q16 2 25 3.5t17 2.5z" />
    <glyph glyph-name="yehBareeHamzehAbove.fina" unicode="&#x6d3;" horiz-adv-x="572" arabic-form="final" 
d="M49 -87q0 105 71.5 168t189.5 63h262v-144h-296q-53 0 -81 -20t-28 -58q0 -36 23.5 -54.5t68.5 -18.5h285l-7 -145h-249q-116 0 -177.5 53.5t-61.5 155.5zM433 315v-74l-239 -35v73l55 8q-11 17 -16.5 36t-5.5 39q0 44 27.5 71t71.5 27q23 0 45 -7t41 -20l-19 -58
q-26 9 -54 11t-43 -5q2 -32 17.5 -55t36.5 -23q3 0 10.5 1t30.5 5q16 2 25 3.5t17 2.5z" />
    <glyph glyph-name="yeh.isol" unicode="&#x6cc;" horiz-adv-x="764" arabic-form="isolated" 
d="M596 -150q-51 -29 -110.5 -44.5t-121.5 -15.5q-137 0 -214 67.5t-77 186.5q0 41 15 84.5t42 80.5l85 -44q-12 -23 -18 -46.5t-6 -47.5q0 -66 44.5 -101t128.5 -35q75 0 148.5 25t96.5 56q-4 16 -21.5 30t-73.5 40q-52 24 -77.5 39t-43.5 32q-28 26 -41.5 57t-13.5 69
q0 83 60 142t153 59q63 0 117.5 -35.5t78.5 -88.5l-72 -71q-38 42 -71.5 60t-72.5 18q-35 0 -56.5 -19t-21.5 -48q0 -26 22.5 -47.5t98.5 -56.5q97 -45 128.5 -80t31.5 -79q0 -50 -37 -100t-101 -87z" />
    <glyph glyph-name="yeh.fina" unicode="&#x6cc;" horiz-adv-x="805" arabic-form="final" 
d="M179 20q0 -76 44 -116t129 -40q88 0 153.5 29.5t95.5 80.5q-18 12 -58.5 19t-86.5 7h-11l24 144h336v-144h-109q3 -8 5 -17.5t2 -20.5q0 -51 -35 -101t-96 -85q-49 -28 -107.5 -42.5t-122.5 -14.5q-131 0 -206.5 73.5t-75.5 197.5q0 71 26.5 146t76.5 148l85 -42
q-36 -68 -52.5 -122t-16.5 -100z" />
    <glyph glyph-name="yeh.init" unicode="&#x6cc;" horiz-adv-x="357" arabic-form="initial" 
d="M0 144h6q53 0 95.5 7t73.5 21q-4 48 -13 92t-24 92l121 42q25 -82 29 -167t-14 -171q-50 -29 -118.5 -44.5t-148.5 -15.5h-7q-9 0 -15 20.5t-6 50.5q0 31 6 52t15 21zM208 -150l-68 -68l-73 71l73 71l68 -68l68 68l73 -71l-73 -71z" />
    <glyph glyph-name="yeh.medi" unicode="&#x6cc;" horiz-adv-x="403" arabic-form="medial" 
d="M403 144v-144h-14q-62 0 -107 23.5t-63 65.5q-28 -41 -86.5 -65t-128.5 -24h-4q-9 0 -15 20.5t-6 50.5q0 31 6 52t15 21h12q44 0 78 9.5t58 29.5v147h119v-79q0 -54 30.5 -80.5t94.5 -26.5h11zM203 -150l-68 -68l-73 71l73 71l68 -68l68 68l73 -71l-73 -71z" />
    <glyph glyph-name="tashdid_zamehTanvin.cmps" unicode="&#xfc5e;" arabic-form="isolated" 
d="M140 773q-18 -11 -38 -17.5t-38 -6.5t-32.5 4.5t-25.5 13.5q-18 -9 -34.5 -13.5t-33.5 -4.5q-35 0 -53 20t-18 58v85h56v-72q0 -14 5.5 -19t20.5 -5q7 0 15 2t15 5q-1 5 -1.5 11t-0.5 18v52h55v-53q0 -18 6.5 -25t23.5 -7q7 0 15.5 2t16.5 5q-3 18 -7.5 37.5t-10.5 38.5
l56 21q12 -33 14 -71.5t-6 -78.5zM-34 1079q0 37 24 61t62 24q40 0 64.5 -25.5t24.5 -66.5q0 -57 -43 -88.5t-123 -31.5h-109v71h122q-11 11 -16.5 25.5t-5.5 30.5zM58 1029q14 7 21 17.5t7 25.5q0 14 -9.5 23.5t-24.5 9.5q-14 0 -22.5 -8t-8.5 -22t9.5 -25.5t27.5 -20.5z
" />
    <glyph glyph-name="fathehTanvin_tashdid.cmps" unicode="&#xfc5f;" arabic-form="isolated" 
d="M120 939v-74l-239 -36v74zM120 826v-74l-239 -36v74zM130 1019q-18 -11 -38 -17.5t-38 -6.5t-32.5 4.5t-25.5 13.5q-18 -9 -34.5 -13.5t-33.5 -4.5q-35 0 -53 20t-18 58v85h56v-72q0 -14 5.5 -19t20.5 -5q7 0 15 2t15 5q-1 5 -1.5 11t-0.5 18v52h55v-53q0 -18 6.5 -25
t23.5 -7q7 0 15.5 2t16.5 5q-3 18 -7.5 37.5t-10.5 38.5l56 21q12 -33 14 -71.5t-6 -78.5z" />
    <glyph glyph-name="tashdid_fatheh.cmps" unicode="&#xfc60;" arabic-form="isolated" 
d="M140 773q-18 -11 -38 -17.5t-38 -6.5t-32.5 4.5t-25.5 13.5q-18 -9 -34.5 -13.5t-33.5 -4.5q-35 0 -53 20t-18 58v85h56v-72q0 -14 5.5 -19t20.5 -5q7 0 15 2t15 5q-1 5 -1.5 11t-0.5 18v52h55v-53q0 -18 6.5 -25t23.5 -7q7 0 15.5 2t16.5 5q-3 18 -7.5 37.5t-10.5 38.5
l56 21q12 -33 14 -71.5t-6 -78.5zM120 1057v-74l-239 -36v74z" />
    <glyph glyph-name="tashdid_zameh.cmps" unicode="&#xfc61;" arabic-form="isolated" 
d="M140 773q-18 -11 -38 -17.5t-38 -6.5t-32.5 4.5t-25.5 13.5q-18 -9 -34.5 -13.5t-33.5 -4.5q-35 0 -53 20t-18 58v85h56v-72q0 -14 5.5 -19t20.5 -5q7 0 15 2t15 5q-1 5 -1.5 11t-0.5 18v52h55v-53q0 -18 6.5 -25t23.5 -7q7 0 15.5 2t16.5 5q-3 18 -7.5 37.5t-10.5 38.5
l56 21q12 -33 14 -71.5t-6 -78.5zM-12 949h-128v63q18 2 26.5 6.5t8.5 12.5q0 9 -9 13.5t-26 4.5v70q37 2 61 -16t24 -49q0 -10 -2.5 -18.5t-8.5 -15.5h67q-11 11 -16.5 25.5t-5.5 30.5q0 37 24 61t62 24q40 0 65 -25.5t25 -66.5q0 -57 -43.5 -88.5t-123.5 -31.5zM71 1026
q14 7 21 17.5t7 25.5q0 14 -9.5 23.5t-24.5 9.5q-14 0 -22.5 -8t-8.5 -22t9.5 -25.5t27.5 -20.5z" />
    <glyph glyph-name="fatheh_tashdid.cmps" unicode="&#xfc62;" arabic-form="isolated" 
d="M120 826v-74l-239 -36v74zM130 909q-18 -11 -38 -17.5t-38 -6.5t-32.5 4.5t-25.5 13.5q-18 -9 -34.5 -13.5t-33.5 -4.5q-35 0 -53 20t-18 58v85h56v-72q0 -14 5.5 -19t20.5 -5q7 0 15 2t15 5q-1 5 -1.5 11t-0.5 18v52h55v-53q0 -18 6.5 -25t23.5 -7q7 0 15.5 2t16.5 5
q-3 18 -7.5 37.5t-10.5 38.5l56 21q12 -33 14 -71.5t-6 -78.5z" />
    <glyph glyph-name="tashdid_superScriptAlef.cmps" unicode="&#xfc63;" arabic-form="isolated" 
d="M140 773q-18 -11 -38 -17.5t-38 -6.5t-32.5 4.5t-25.5 13.5q-18 -9 -34.5 -13.5t-33.5 -4.5q-35 0 -53 20t-18 58v85h56v-72q0 -14 5.5 -19t20.5 -5q7 0 15 2t15 5q-1 5 -1.5 11t-0.5 18v52h55v-53q0 -18 6.5 -25t23.5 -7q7 0 15.5 2t16.5 5q-3 18 -7.5 37.5t-10.5 38.5
l56 21q12 -33 14 -71.5t-6 -78.5zM-34 979v160h72v-160h-72z" />
    <glyph glyph-name="rial" unicode="&#xfdfc;" horiz-adv-x="1206" arabic-form="isolated" 
d="M475 -65q6 29 9 65.5t3 82.5v134q-32 -12 -64 -18t-64 -6q-74 0 -118.5 43.5t-44.5 118.5q0 42 15 89t45 99l91 -41q-16 -36 -23 -62t-7 -47q0 -34 17.5 -51t51.5 -17q24 0 49 5t52 16v359h119v-289q11 8 23.5 17t37.5 28q24 19 36 28t23 16v200h119v-127
q38 18 75.5 26.5t73.5 8.5q26 0 58.5 -5t56.5 -13l-9 -130q-31 9 -54 12.5t-45 3.5q-38 0 -76.5 -10.5t-79.5 -32.5v-220q0 -41 19 -57.5t64 -16.5q26 0 48.5 5t59.5 23q-2 28 -8 56.5t-24 87.5l122 42q21 -70 23 -145t-14 -153q-58 -33 -109 -46.5t-111 -13.5
q-98 0 -143.5 49t-45.5 155v158q-47 -34 -77 -55t-43 -29v-195q0 -62 -6 -121t-17 -104q-47 -42 -124.5 -68.5t-153.5 -26.5q-120 0 -189 59t-69 162q0 44 15.5 93t44.5 98l91 -40q-15 -34 -22.5 -62t-7.5 -52q0 -57 37.5 -86t111.5 -29q41 0 82 7.5t76 21.5zM968 -151
l-68 -67l-73 71l73 71l68 -67l69 67l73 -71l-73 -71z" />
    <glyph glyph-name="ah.isol" unicode="&#x622;" horiz-adv-x="272" arabic-form="isolated" 
d="M195 705v-705h-119v705h119zM87 884q11 0 23 -3t36 -13q21 -8 30.5 -10.5t16.5 -2.5q14 0 27 2.5t33 9.5l-8 -74q-15 -8 -29.5 -12t-29.5 -4q-11 0 -23.5 3t-37.5 13q-20 7 -29 9.5t-16 2.5q-14 0 -27.5 -2.5t-32.5 -9.5l8 74q15 8 30 12.5t29 4.5z" />
    <glyph glyph-name="ah.fina" unicode="&#x622;" horiz-adv-x="290" arabic-form="final" 
d="M279 144h11v-144h-25q-96 0 -142.5 50t-46.5 154v501h119v-487q0 -39 20 -56.5t64 -17.5zM87 884q11 0 23 -3t36 -13q21 -8 30.5 -10.5t16.5 -2.5q14 0 27 2.5t33 9.5l-8 -74q-15 -8 -29.5 -12t-29.5 -4q-11 0 -23.5 3t-37.5 13q-20 7 -29 9.5t-16 2.5q-14 0 -27.5 -2.5
t-32.5 -9.5l8 74q15 8 30 12.5t29 4.5z" />
    <glyph glyph-name="alefHamzeAbove.isol" unicode="&#x623;" horiz-adv-x="272" arabic-form="isolated" 
d="M195 705v-705h-119v705h119zM256 875v-74l-239 -35v73l55 8q-11 17 -16.5 36t-5.5 39q0 44 27.5 71t71.5 27q23 0 45 -7t41 -20l-19 -58q-26 9 -54 11t-43 -5q2 -32 17.5 -55t36.5 -23q3 0 10.5 1t30.5 5q16 2 25 3.5t17 2.5z" />
    <glyph glyph-name="alefHamzeAbove.fina" unicode="&#x623;" horiz-adv-x="290" arabic-form="final" 
d="M279 144h11v-144h-25q-96 0 -142.5 50t-46.5 154v501h119v-487q0 -39 20 -56.5t64 -17.5zM256 875v-74l-239 -35v73l55 8q-11 17 -16.5 36t-5.5 39q0 44 27.5 71t71.5 27q23 0 45 -7t41 -20l-19 -58q-26 9 -54 11t-43 -5q2 -32 17.5 -55t36.5 -23q3 0 10.5 1t30.5 5
q16 2 25 3.5t17 2.5z" />
    <glyph glyph-name="vavHamzeAbove.isol" unicode="&#x624;" horiz-adv-x="575" arabic-form="isolated" 
d="M68 198q0 102 59.5 177.5t140.5 75.5q51 0 99 -35.5t81 -98.5q26 -49 40 -107t14 -121q0 -71 -23 -136t-67 -117q-47 -55 -109 -86t-128 -31q-41 0 -78 7.5t-67 21.5l27 106q19 -4 37.5 -6.5t34.5 -2.5q79 0 147.5 45.5t109.5 126.5q-27 -13 -56 -20t-58 -7
q-98 0 -151 54t-53 154zM264 308q-37 0 -60.5 -27t-23.5 -70q0 -42 22.5 -60t76.5 -18q28 0 55 3t54 9q-13 80 -44.5 121.5t-79.5 41.5zM388 614v-74l-239 -35v73l55 8q-11 17 -16.5 36t-5.5 39q0 44 27.5 71t71.5 27q23 0 45 -7t41 -20l-19 -58q-26 9 -54 11t-43 -5
q2 -32 17.5 -55t36.5 -23q3 0 10.5 1t30.5 5q16 2 25 3.5t17 2.5z" />
    <glyph glyph-name="vavHamzeAbove.fina" unicode="&#x624;" horiz-adv-x="605" arabic-form="final" 
d="M68 198q0 101 59.5 177t140.5 76q85 0 151.5 -88t79.5 -219h106v-144h-112q-27 -123 -117 -202t-201 -79q-42 0 -79 7.5t-66 21.5l27 106q25 -5 41 -7t31 -2q75 0 140.5 40.5t107.5 114.5h-99q-100 0 -155 52t-55 146zM180 211q0 -36 22 -51.5t76 -15.5h110
q-13 80 -45 122t-79 42q-37 0 -60.5 -27t-23.5 -70zM388 614v-74l-239 -35v73l55 8q-11 17 -16.5 36t-5.5 39q0 44 27.5 71t71.5 27q23 0 45 -7t41 -20l-19 -58q-26 9 -54 11t-43 -5q2 -32 17.5 -55t36.5 -23q3 0 10.5 1t30.5 5q16 2 25 3.5t17 2.5z" />
    <glyph glyph-name="alefHamzeBelow.isol" unicode="&#x625;" horiz-adv-x="272" arabic-form="isolated" 
d="M195 705v-705h-119v705h119zM259 -190v-74l-239 -36v74l55 8q-11 17 -16.5 36t-5.5 39q0 44 27.5 71t71.5 27q22 0 44 -7t42 -20l-19 -58q-27 10 -54.5 11.5t-42.5 -5.5q2 -33 17 -55.5t37 -22.5q3 0 10.5 1t30.5 5q16 2 25 3.5t17 2.5z" />
    <glyph glyph-name="alefHamzeBelow.fina" unicode="&#x625;" horiz-adv-x="290" arabic-form="final" 
d="M279 144h11v-144h-25q-96 0 -142.5 50t-46.5 154v501h119v-487q0 -39 20 -56.5t64 -17.5zM259 -190v-74l-239 -36v74l55 8q-11 17 -16.5 36t-5.5 39q0 44 27.5 71t71.5 27q22 0 44 -7t42 -20l-19 -58q-27 10 -54.5 11.5t-42.5 -5.5q2 -33 17 -55.5t37 -22.5q3 0 10.5 1
t30.5 5q16 2 25 3.5t17 2.5z" />
    <glyph glyph-name="yehHamze.isol" unicode="&#x626;" horiz-adv-x="764" arabic-form="isolated" 
d="M596 -150q-51 -29 -110.5 -44.5t-121.5 -15.5q-137 0 -214 67.5t-77 186.5q0 41 15 84.5t42 80.5l85 -44q-12 -23 -18 -46.5t-6 -47.5q0 -66 44.5 -101t128.5 -35q75 0 148.5 25t96.5 56q-4 16 -21.5 30t-73.5 40q-52 24 -77.5 39t-43.5 32q-28 26 -41.5 57t-13.5 69
q0 83 60 142t153 59q63 0 117.5 -35.5t78.5 -88.5l-72 -71q-38 42 -71.5 60t-72.5 18q-35 0 -56.5 -19t-21.5 -48q0 -26 22.5 -47.5t98.5 -56.5q97 -45 128.5 -80t31.5 -79q0 -50 -37 -100t-101 -87zM286 386v-74l-239 -35v73l55 8q-11 17 -16.5 36t-5.5 39q0 44 27.5 71
t71.5 27q23 0 45 -7t41 -20l-19 -58q-26 9 -54 11t-43 -5q2 -32 17.5 -55t36.5 -23q3 0 10.5 1t30.5 5q16 2 25 3.5t17 2.5z" />
    <glyph glyph-name="yehHamze.fina" unicode="&#x626;" horiz-adv-x="805" arabic-form="final" 
d="M179 20q0 -76 44 -116t129 -40q88 0 153.5 29.5t95.5 80.5q-18 12 -58.5 19t-86.5 7h-11l24 144h336v-144h-109q3 -8 5 -17.5t2 -20.5q0 -51 -35 -101t-96 -85q-49 -28 -107.5 -42.5t-122.5 -14.5q-131 0 -206.5 73.5t-75.5 197.5q0 71 26.5 146t76.5 148l85 -42
q-36 -68 -52.5 -122t-16.5 -100zM335 448v-74l-239 -35v73l55 8q-11 17 -16.5 36t-5.5 39q0 44 27.5 71t71.5 27q23 0 45 -7t41 -20l-19 -58q-26 9 -54 11t-43 -5q2 -32 17.5 -55t36.5 -23q3 0 10.5 1t30.5 5q16 2 25 3.5t17 2.5z" />
    <glyph glyph-name="yehHamze.init" unicode="&#x626;" horiz-adv-x="357" arabic-form="initial" 
d="M0 144h6q53 0 95.5 7t73.5 21q-4 48 -13 92t-24 92l121 42q25 -82 29 -167t-14 -171q-50 -29 -118.5 -44.5t-148.5 -15.5h-7q-9 0 -15 20.5t-6 50.5q0 31 6 52t15 21zM285 589v-74l-239 -35v73l55 8q-11 17 -16.5 36t-5.5 39q0 44 27.5 71t71.5 27q23 0 45 -7t41 -20
l-19 -58q-26 9 -54 11t-43 -5q2 -32 17.5 -55t36.5 -23q3 0 10.5 1t30.5 5q16 2 25 3.5t17 2.5z" />
    <glyph glyph-name="yehHamze.medi" unicode="&#x626;" horiz-adv-x="403" arabic-form="medial" 
d="M403 144v-144h-14q-62 0 -107 23.5t-63 65.5q-28 -41 -86.5 -65t-128.5 -24h-4q-9 0 -15 20.5t-6 50.5q0 31 6 52t15 21h12q44 0 78 9.5t58 29.5v147h119v-79q0 -54 30.5 -80.5t94.5 -26.5h11zM323 534v-74l-239 -35v73l55 8q-11 17 -16.5 36t-5.5 39q0 44 27.5 71
t71.5 27q23 0 45 -7t41 -20l-19 -58q-26 9 -54 11t-43 -5q2 -32 17.5 -55t36.5 -23q3 0 10.5 1t30.5 5q16 2 25 3.5t17 2.5z" />
    <glyph glyph-name="alef.isol" unicode="&#x627;" horiz-adv-x="272" arabic-form="isolated" 
d="M195 705v-705h-119v705h119z" />
    <glyph glyph-name="alef.fina" unicode="&#x627;" horiz-adv-x="290" arabic-form="final" 
d="M279 144h11v-144h-25q-96 0 -142.5 50t-46.5 154v501h119v-487q0 -39 20 -56.5t64 -17.5z" />
    <glyph glyph-name="beh.isol" unicode="&#x628;" horiz-adv-x="826" arabic-form="isolated" 
d="M158 243q0 -58 56.5 -83.5t183.5 -25.5q72 0 139.5 9.5t106.5 25.5q-3 41 -11 82t-23 89l121 42q23 -75 26 -156.5t-14 -165.5q-68 -32 -169.5 -51t-206.5 -19q-163 0 -245 55t-82 163q0 41 15 84.5t42 80.5l84 -44q-13 -26 -18 -46t-5 -40zM475 -147l-72 -71l-72 71
l72 71z" />
    <glyph glyph-name="beh.fina" unicode="&#x628;" horiz-adv-x="884" arabic-form="final" 
d="M884 0h-8q-57 0 -102.5 16.5t-75.5 46.5q-69 -34 -162 -53.5t-186 -19.5q-154 0 -232 54.5t-78 162.5q0 42 15 85t42 81l84 -43q-13 -27 -18 -46.5t-5 -39.5q0 -58 53 -84t171 -26q75 0 139.5 10t116.5 30l-41 134l116 33l21 -69q25 -81 53.5 -104.5t90.5 -23.5h6v-144z
M472 -147l-72 -71l-72 71l72 71z" />
    <glyph glyph-name="beh.init" unicode="&#x628;" horiz-adv-x="357" arabic-form="initial" 
d="M0 144h6q53 0 95.5 7t73.5 21q-4 48 -13 92t-24 92l121 42q25 -82 29 -167t-14 -171q-50 -29 -118.5 -44.5t-148.5 -15.5h-7q-9 0 -15 20.5t-6 50.5q0 31 6 52t15 21zM280 -147l-72 -71l-72 71l72 71z" />
    <glyph glyph-name="beh.medi" unicode="&#x628;" horiz-adv-x="403" arabic-form="medial" 
d="M403 144v-144h-14q-62 0 -107 23.5t-63 65.5q-28 -41 -86.5 -65t-128.5 -24h-4q-9 0 -15 20.5t-6 50.5q0 31 6 52t15 21h12q44 0 78 9.5t58 29.5v147h119v-79q0 -54 30.5 -80.5t94.5 -26.5h11zM275 -147l-72 -71l-72 71l72 71z" />
    <glyph glyph-name="tehArabic.isol" unicode="&#x629;" horiz-adv-x="519" arabic-form="isolated" 
d="M244 470q110 -36 167.5 -105t57.5 -166q0 -93 -59.5 -151t-155.5 -58q-93 0 -148.5 52.5t-55.5 138.5q0 84 49 157t145 132zM250 326q-40 -27 -61.5 -58.5t-21.5 -62.5q0 -33 24 -52t66 -19q44 0 69.5 21t25.5 56q0 34 -25.5 62.5t-76.5 52.5zM247 595l-68 -68l-73 71
l73 72l68 -69l68 69l73 -72l-73 -71z" />
    <glyph glyph-name="tehArabic.fina" unicode="&#x629;" horiz-adv-x="523" arabic-form="final" 
d="M512 144h11v-144h-24q-66 0 -107 23t-60 71q-25 -15 -52.5 -23t-57.5 -8q-81 0 -132 47t-51 122q0 90 70.5 156.5t206.5 103.5v47h119v-321q0 -41 17.5 -57.5t59.5 -16.5zM150 248q0 -30 22.5 -44.5t68.5 -14.5q16 0 35 2.5t40 6.5v159q-83 -13 -124.5 -40.5t-41.5 -68.5
zM321 681l-68 -68l-73 71l73 72l68 -69l68 69l73 -72l-73 -71z" />
    <glyph glyph-name="teh.isol" unicode="&#x62a;" horiz-adv-x="826" arabic-form="isolated" 
d="M158 243q0 -58 56.5 -83.5t183.5 -25.5q72 0 139.5 9.5t106.5 25.5q-3 41 -11 82t-23 89l121 42q23 -75 26 -156.5t-14 -165.5q-68 -32 -169.5 -51t-206.5 -19q-163 0 -245 55t-82 163q0 41 15 84.5t42 80.5l84 -44q-13 -26 -18 -46t-5 -40zM403 514l-68 -68l-73 71
l73 72l68 -69l68 69l73 -72l-73 -71z" />
    <glyph glyph-name="teh.fina" unicode="&#x62a;" horiz-adv-x="884" arabic-form="final" 
d="M884 0h-8q-57 0 -102.5 16.5t-75.5 46.5q-69 -34 -162 -53.5t-186 -19.5q-154 0 -232 54.5t-78 162.5q0 42 15 85t42 81l84 -43q-13 -27 -18 -46.5t-5 -39.5q0 -58 53 -84t171 -26q75 0 139.5 10t116.5 30l-41 134l116 33l21 -69q25 -81 53.5 -104.5t90.5 -23.5h6v-144z
M400 514l-68 -68l-73 71l73 72l68 -69l68 69l73 -72l-73 -71z" />
    <glyph glyph-name="teh.init" unicode="&#x62a;" horiz-adv-x="357" arabic-form="initial" 
d="M0 144h6q53 0 95.5 7t73.5 21q-4 48 -13 92t-24 92l121 42q25 -82 29 -167t-14 -171q-50 -29 -118.5 -44.5t-148.5 -15.5h-7q-9 0 -15 20.5t-6 50.5q0 31 6 52t15 21zM165 560l-68 -68l-73 71l73 72l68 -69l68 69l73 -72l-73 -71z" />
    <glyph glyph-name="teh.medi" unicode="&#x62a;" horiz-adv-x="403" arabic-form="medial" 
d="M403 144v-144h-14q-62 0 -107 23.5t-63 65.5q-28 -41 -86.5 -65t-128.5 -24h-4q-9 0 -15 20.5t-6 50.5q0 31 6 52t15 21h12q44 0 78 9.5t58 29.5v147h119v-79q0 -54 30.5 -80.5t94.5 -26.5h11zM203 506l-68 -68l-73 71l73 72l68 -69l68 69l73 -72l-73 -71z" />
    <glyph glyph-name="theh.isol" unicode="&#x62b;" horiz-adv-x="826" arabic-form="isolated" 
d="M158 243q0 -58 56.5 -83.5t183.5 -25.5q72 0 139.5 9.5t106.5 25.5q-3 41 -11 82t-23 89l121 42q23 -75 26 -156.5t-14 -165.5q-68 -32 -169.5 -51t-206.5 -19q-163 0 -245 55t-82 163q0 41 15 84.5t42 80.5l84 -44q-13 -26 -18 -46t-5 -40zM475 647l-72 -71l-72 71
l72 72zM403 514l-68 -68l-73 71l73 72l68 -69l68 69l73 -72l-73 -71z" />
    <glyph glyph-name="theh.fina" unicode="&#x62b;" horiz-adv-x="884" arabic-form="final" 
d="M884 0h-8q-57 0 -102.5 16.5t-75.5 46.5q-69 -34 -162 -53.5t-186 -19.5q-154 0 -232 54.5t-78 162.5q0 42 15 85t42 81l84 -43q-13 -27 -18 -46.5t-5 -39.5q0 -58 53 -84t171 -26q75 0 139.5 10t116.5 30l-41 134l116 33l21 -69q25 -81 53.5 -104.5t90.5 -23.5h6v-144z
M472 647l-72 -71l-72 71l72 72zM400 514l-68 -68l-73 71l73 72l68 -69l68 69l73 -72l-73 -71z" />
    <glyph glyph-name="theh.init" unicode="&#x62b;" horiz-adv-x="357" arabic-form="initial" 
d="M0 144h6q53 0 95.5 7t73.5 21q-4 48 -13 92t-24 92l121 42q25 -82 29 -167t-14 -171q-50 -29 -118.5 -44.5t-148.5 -15.5h-7q-9 0 -15 20.5t-6 50.5q0 31 6 52t15 21zM237 693l-72 -71l-72 71l72 72zM165 560l-68 -68l-73 71l73 72l68 -69l68 69l73 -72l-73 -71z" />
    <glyph glyph-name="theh.medi" unicode="&#x62b;" horiz-adv-x="403" arabic-form="medial" 
d="M403 144v-144h-14q-62 0 -107 23.5t-63 65.5q-28 -41 -86.5 -65t-128.5 -24h-4q-9 0 -15 20.5t-6 50.5q0 31 6 52t15 21h12q44 0 78 9.5t58 29.5v147h119v-79q0 -54 30.5 -80.5t94.5 -26.5h11zM275 639l-72 -71l-72 71l72 72zM203 506l-68 -68l-73 71l73 72l68 -69l68 69
l73 -72l-73 -71z" />
    <glyph glyph-name="jim.isol" unicode="&#x62c;" horiz-adv-x="726" arabic-form="isolated" 
d="M617 -113l-7 -142q-52 -13 -106 -19.5t-107 -6.5q-169 0 -267 71.5t-98 194.5q0 129 110 218t316 126q-53 12 -98 18.5t-79 6.5q-59 0 -114.5 -11t-109.5 -33l-36 124q61 23 118.5 34t121.5 11q89 0 208 -33.5t221 -86.5l-28 -109q-238 -2 -372 -67.5t-134 -174.5
q0 -72 57.5 -108t171.5 -36q62 0 117.5 5.5t114.5 17.5zM450 33l-72 -71l-72 71l72 72z" />
    <glyph glyph-name="jim.fina" unicode="&#x62c;" horiz-adv-x="726" arabic-form="final" 
d="M617 -113l-7 -142q-52 -13 -106 -19.5t-107 -6.5q-169 0 -267 71.5t-98 194.5q0 129 110 218t316 126q-53 12 -98 18.5t-79 6.5q-59 0 -114.5 -11t-109.5 -33l-36 124q61 23 118.5 34t121.5 11q89 0 208 -33.5t221 -86.5l-25 -97q-35 0 -61.5 -1t-48.5 -4
q12 -59 50.5 -86t113.5 -27h7v-144h-10q-115 0 -176.5 58.5t-70.5 176.5q-150 -24 -231.5 -84t-81.5 -143q0 -72 57.5 -108t171.5 -36q62 0 117.5 5.5t114.5 17.5zM430 33l-72 -71l-72 71l72 72z" />
    <glyph glyph-name="jim.init" unicode="&#x62c;" horiz-adv-x="726" arabic-form="initial" 
d="M269 480q102 0 214.5 -30.5t208.5 -83.5l-50 -105q-26 14 -48.5 24t-42.5 17q-80 -142 -225 -222t-323 -80h-3q-9 0 -15 20.5t-6 50.5q0 31 6 52t15 21h6q138 0 254 51t173 143q-37 8 -74.5 12t-77.5 4q-59 0 -114.5 -11t-109.5 -33l-36 124q61 24 119.5 35t128.5 11z
M441 -147l-72 -71l-72 71l72 71z" />
    <glyph glyph-name="jim.medi" unicode="&#x62c;" horiz-adv-x="726" arabic-form="medial" 
d="M269 480q102 0 214.5 -30.5t208.5 -83.5l-50 -105q-26 14 -48.5 24t-42.5 17q-5 -10 -11 -19.5t-13 -19.5q10 -62 56 -90.5t136 -28.5h7v-144h-10q-110 0 -174 44.5t-84 133.5q-86 -86 -204 -132t-251 -46h-3q-9 0 -15 20.5t-6 50.5q0 31 6 52t15 21h6q138 0 254 51
t173 143q-37 8 -74.5 12t-77.5 4q-59 0 -114.5 -11t-109.5 -33l-36 124q61 24 119.5 35t128.5 11zM441 -147l-72 -71l-72 71l72 71z" />
    <glyph glyph-name="hah.isol" unicode="&#x62d;" horiz-adv-x="726" arabic-form="isolated" 
d="M617 -113l-7 -142q-52 -13 -106 -19.5t-107 -6.5q-169 0 -267 71.5t-98 194.5q0 129 110 218t316 126q-53 12 -98 18.5t-79 6.5q-59 0 -114.5 -11t-109.5 -33l-36 124q61 23 118.5 34t121.5 11q89 0 208 -33.5t221 -86.5l-28 -109q-238 -2 -372 -67.5t-134 -174.5
q0 -72 57.5 -108t171.5 -36q62 0 117.5 5.5t114.5 17.5z" />
    <glyph glyph-name="hah.fina" unicode="&#x62d;" horiz-adv-x="726" arabic-form="final" 
d="M617 -113l-7 -142q-52 -13 -106 -19.5t-107 -6.5q-169 0 -267 71.5t-98 194.5q0 129 110 218t316 126q-53 12 -98 18.5t-79 6.5q-59 0 -114.5 -11t-109.5 -33l-36 124q61 23 118.5 34t121.5 11q89 0 208 -33.5t221 -86.5l-25 -97q-35 0 -61.5 -1t-48.5 -4
q12 -59 50.5 -86t113.5 -27h7v-144h-10q-115 0 -176.5 58.5t-70.5 176.5q-150 -24 -231.5 -84t-81.5 -143q0 -72 57.5 -108t171.5 -36q62 0 117.5 5.5t114.5 17.5z" />
    <glyph glyph-name="hah.init" unicode="&#x62d;" horiz-adv-x="726" arabic-form="initial" 
d="M269 480q102 0 214.5 -30.5t208.5 -83.5l-50 -105q-26 14 -48.5 24t-42.5 17q-80 -142 -225 -222t-323 -80h-3q-9 0 -15 20.5t-6 50.5q0 31 6 52t15 21h6q138 0 254 51t173 143q-37 8 -74.5 12t-77.5 4q-59 0 -114.5 -11t-109.5 -33l-36 124q61 24 119.5 35t128.5 11z
" />
    <glyph glyph-name="hah.medi" unicode="&#x62d;" horiz-adv-x="726" arabic-form="medial" 
d="M269 480q102 0 214.5 -30.5t208.5 -83.5l-50 -105q-26 14 -48.5 24t-42.5 17q-5 -10 -11 -19.5t-13 -19.5q10 -62 56 -90.5t136 -28.5h7v-144h-10q-110 0 -174 44.5t-84 133.5q-86 -86 -204 -132t-251 -46h-3q-9 0 -15 20.5t-6 50.5q0 31 6 52t15 21h6q138 0 254 51
t173 143q-37 8 -74.5 12t-77.5 4q-59 0 -114.5 -11t-109.5 -33l-36 124q61 24 119.5 35t128.5 11z" />
    <glyph glyph-name="kheh.isol" unicode="&#x62e;" horiz-adv-x="726" arabic-form="isolated" 
d="M617 -113l-7 -142q-52 -13 -106 -19.5t-107 -6.5q-169 0 -267 71.5t-98 194.5q0 129 110 218t316 126q-53 12 -98 18.5t-79 6.5q-59 0 -114.5 -11t-109.5 -33l-36 124q61 23 118.5 34t121.5 11q89 0 208 -33.5t221 -86.5l-28 -109q-238 -2 -372 -67.5t-134 -174.5
q0 -72 57.5 -108t171.5 -36q62 0 117.5 5.5t114.5 17.5zM404 625l-72 -71l-72 71l72 72z" />
    <glyph glyph-name="kheh.fina" unicode="&#x62e;" horiz-adv-x="726" arabic-form="final" 
d="M617 -113l-7 -142q-52 -13 -106 -19.5t-107 -6.5q-169 0 -267 71.5t-98 194.5q0 129 110 218t316 126q-53 12 -98 18.5t-79 6.5q-59 0 -114.5 -11t-109.5 -33l-36 124q61 23 118.5 34t121.5 11q89 0 208 -33.5t221 -86.5l-25 -97q-35 0 -61.5 -1t-48.5 -4
q12 -59 50.5 -86t113.5 -27h7v-144h-10q-115 0 -176.5 58.5t-70.5 176.5q-150 -24 -231.5 -84t-81.5 -143q0 -72 57.5 -108t171.5 -36q62 0 117.5 5.5t114.5 17.5zM404 625l-72 -71l-72 71l72 72z" />
    <glyph glyph-name="kheh.init" unicode="&#x62e;" horiz-adv-x="726" arabic-form="initial" 
d="M269 480q102 0 214.5 -30.5t208.5 -83.5l-50 -105q-26 14 -48.5 24t-42.5 17q-80 -142 -225 -222t-323 -80h-3q-9 0 -15 20.5t-6 50.5q0 31 6 52t15 21h6q138 0 254 51t173 143q-37 8 -74.5 12t-77.5 4q-59 0 -114.5 -11t-109.5 -33l-36 124q61 24 119.5 35t128.5 11z
M404 625l-72 -71l-72 71l72 72z" />
    <glyph glyph-name="kheh.medi" unicode="&#x62e;" horiz-adv-x="726" arabic-form="medial" 
d="M269 480q102 0 214.5 -30.5t208.5 -83.5l-50 -105q-26 14 -48.5 24t-42.5 17q-5 -10 -11 -19.5t-13 -19.5q10 -62 56 -90.5t136 -28.5h7v-144h-10q-110 0 -174 44.5t-84 133.5q-86 -86 -204 -132t-251 -46h-3q-9 0 -15 20.5t-6 50.5q0 31 6 52t15 21h6q138 0 254 51
t173 143q-37 8 -74.5 12t-77.5 4q-59 0 -114.5 -11t-109.5 -33l-36 124q61 24 119.5 35t128.5 11zM404 625l-72 -71l-72 71l72 72z" />
    <glyph glyph-name="dal.isol" unicode="&#x62f;" horiz-adv-x="631" arabic-form="isolated" 
d="M213 398l73 124q125 -65 204 -192.5t69 -263.5q-54 -39 -123 -57.5t-159 -18.5q-76 0 -145 12t-113 33l54 134q50 -17 100 -26t100 -9q58 0 97.5 6t70.5 20q-31 68 -92.5 133t-135.5 105z" />
    <glyph glyph-name="dal.fina" unicode="&#x62f;" horiz-adv-x="665" arabic-form="final" 
d="M347 202l-151 260l108 68l139 -249q41 -75 87 -106t128 -31h7v-144h-12q-71 0 -116 14.5t-83 47.5q-43 -37 -94.5 -54.5t-115.5 -17.5q-61 0 -121.5 12t-103.5 33l54 134q47 -18 93.5 -26.5t93.5 -8.5q34 0 64.5 3.5t56.5 10.5q-12 17 -20 29.5t-14 24.5z" />
    <glyph glyph-name="zal.isol" unicode="&#x630;" horiz-adv-x="631" arabic-form="isolated" 
d="M213 398l73 124q125 -65 204 -192.5t69 -263.5q-54 -39 -123 -57.5t-159 -18.5q-76 0 -145 12t-113 33l54 134q50 -17 100 -26t100 -9q58 0 97.5 6t70.5 20q-31 68 -92.5 133t-135.5 105zM343 677l-72 -71l-72 71l72 72z" />
    <glyph glyph-name="zal.fina" unicode="&#x630;" horiz-adv-x="665" arabic-form="final" 
d="M347 202l-151 260l108 68l139 -249q41 -75 87 -106t128 -31h7v-144h-12q-71 0 -116 14.5t-83 47.5q-43 -37 -94.5 -54.5t-115.5 -17.5q-61 0 -121.5 12t-103.5 33l54 134q47 -18 93.5 -26.5t93.5 -8.5q34 0 64.5 3.5t56.5 10.5q-12 17 -20 29.5t-14 24.5zM292 682
l-72 -71l-72 71l72 72z" />
    <glyph glyph-name="reh.isol" unicode="&#x631;" horiz-adv-x="582" arabic-form="isolated" 
d="M311 311l125 55q37 -89 55.5 -157.5t18.5 -119.5q0 -71 -23 -135t-65 -116q-47 -56 -109 -87.5t-126 -31.5q-44 0 -79.5 6.5t-70.5 22.5l28 106q24 -5 41.5 -7t34.5 -2q78 0 150.5 52.5t112.5 139.5q-5 47 -29 117.5t-64 156.5z" />
    <glyph glyph-name="reh.fina" unicode="&#x631;" horiz-adv-x="613" arabic-form="final" 
d="M428 79q-17 22 -33 51t-32 66l-50 116l113 48l50 -121q24 -57 50 -76t82 -19h5v-144h-8q-29 0 -54 4.5t-47 13.5q-23 -129 -114.5 -214t-202.5 -85q-44 0 -79.5 6.5t-70.5 22.5l28 106q24 -5 41.5 -7t34.5 -2q87 0 163.5 62t123.5 172z" />
    <glyph glyph-name="zeh.isol" unicode="&#x632;" horiz-adv-x="582" arabic-form="isolated" 
d="M311 311l125 55q37 -89 55.5 -157.5t18.5 -119.5q0 -71 -23 -135t-65 -116q-47 -56 -109 -87.5t-126 -31.5q-44 0 -79.5 6.5t-70.5 22.5l28 106q24 -5 41.5 -7t34.5 -2q78 0 150.5 52.5t112.5 139.5q-5 47 -29 117.5t-64 156.5zM386 528l-72 -71l-72 71l72 72z" />
    <glyph glyph-name="zeh.fina" unicode="&#x632;" horiz-adv-x="613" arabic-form="final" 
d="M428 79q-17 22 -33 51t-32 66l-50 116l113 48l50 -121q24 -57 50 -76t82 -19h5v-144h-8q-29 0 -54 4.5t-47 13.5q-23 -129 -114.5 -214t-202.5 -85q-44 0 -79.5 6.5t-70.5 22.5l28 106q24 -5 41.5 -7t34.5 -2q87 0 163.5 62t123.5 172zM386 528l-72 -71l-72 71l72 72z
" />
    <glyph glyph-name="sin.isol" unicode="&#x633;" horiz-adv-x="1341" arabic-form="isolated" 
d="M640 21q3 -53 3 -94.5t-3 -81.5q-61 -47 -143 -74t-166 -27q-122 0 -191 58.5t-69 162.5q0 44 15 92.5t45 98.5l91 -40q-15 -34 -22.5 -62t-7.5 -52q0 -60 39.5 -87.5t124.5 -27.5q46 0 93 10.5t84 29.5q0 73 -17.5 163.5t-55.5 216.5l123 36l26 -91q18 -61 48 -89.5
t77 -28.5q46 0 72.5 31t26.5 84v81h119v-81q0 -57 23.5 -86t69.5 -29q29 0 53.5 8t48.5 26q-5 54 -14 98.5t-24 89.5l121 42q25 -82 29 -167.5t-14 -174.5q-39 -33 -82 -49.5t-89 -16.5q-56 0 -94.5 25t-60.5 76q-24 -47 -72.5 -74t-108.5 -27q-33 0 -57.5 7.5t-40.5 23.5z
" />
    <glyph glyph-name="sin.fina" unicode="&#x633;" horiz-adv-x="1409" arabic-form="final" 
d="M640 21q3 -53 3 -94.5t-3 -81.5q-61 -47 -143 -74t-166 -27q-122 0 -191 58.5t-69 162.5q0 44 15 92.5t45 98.5l91 -40q-15 -34 -22.5 -62t-7.5 -52q0 -60 39.5 -87.5t124.5 -27.5q46 0 93 10.5t84 29.5q0 73 -17.5 163.5t-55.5 216.5l123 36l26 -90q18 -61 48 -90
t77 -29q46 0 72.5 31t26.5 84v81h119v-81q0 -57 23.5 -86t69.5 -29q44 0 68.5 30.5t24.5 84.5v126h119v-106q0 -69 30 -97t112 -28h10v-144h-10q-65 0 -110.5 22.5t-70.5 67.5q-19 -45 -61 -72.5t-93 -27.5q-55 0 -95 24.5t-62 71.5q-24 -45 -68.5 -70.5t-100.5 -25.5
q-33 0 -57.5 7.5t-40.5 23.5z" />
    <glyph glyph-name="sin.init" unicode="&#x633;" horiz-adv-x="952" arabic-form="initial" 
d="M-21 71q0 31 6 52t15 21h18q59 0 87 28.5t28 87.5v85h119v-96q0 -57 24.5 -86t72.5 -29q44 0 68.5 30t24.5 85v81h120v-81q0 -57 23.5 -86t69.5 -29q32 0 59 7.5t46 21.5q-5 56 -14 101.5t-24 91.5l119 42q25 -84 29 -169.5t-14 -172.5q-34 -32 -76.5 -49t-89.5 -17
q-64 0 -107.5 24t-66.5 72q-22 -45 -66.5 -70.5t-101.5 -25.5t-100 25.5t-65 72.5q-23 -42 -70 -65t-108 -23h-5q-9 0 -15 20.5t-6 50.5z" />
    <glyph glyph-name="sin.medi" unicode="&#x633;" horiz-adv-x="1018" arabic-form="medial" 
d="M-21 71q0 31 6 52t15 21h18q59 0 87 28.5t28 87.5v85h119v-96q0 -57 24.5 -86t72.5 -29q44 0 68.5 30t24.5 85v81h120v-81q0 -57 23.5 -86t69.5 -29q43 0 67.5 30t24.5 85v126h119v-106q0 -70 29.5 -97.5t113.5 -27.5h9v-144h-9q-67 0 -112 22t-70 68q-19 -46 -60.5 -73
t-92.5 -27q-56 0 -96 24t-62 71q-23 -45 -67 -70t-101 -25t-100 25.5t-65 72.5q-23 -42 -70 -65t-108 -23h-5q-9 0 -15 20.5t-6 50.5z" />
    <glyph glyph-name="shin.isol" unicode="&#x634;" horiz-adv-x="1341" arabic-form="isolated" 
d="M640 21q3 -53 3 -94.5t-3 -81.5q-61 -47 -143 -74t-166 -27q-122 0 -191 58.5t-69 162.5q0 44 15 92.5t45 98.5l91 -40q-15 -34 -22.5 -62t-7.5 -52q0 -60 39.5 -87.5t124.5 -27.5q46 0 93 10.5t84 29.5q0 73 -17.5 163.5t-55.5 216.5l123 36l26 -91q18 -61 48 -89.5
t77 -28.5q46 0 72.5 31t26.5 84v81h119v-81q0 -57 23.5 -86t69.5 -29q29 0 53.5 8t48.5 26q-5 54 -14 98.5t-24 89.5l121 42q25 -82 29 -167.5t-14 -174.5q-39 -33 -82 -49.5t-89 -16.5q-56 0 -94.5 25t-60.5 76q-24 -47 -72.5 -74t-108.5 -27q-33 0 -57.5 7.5t-40.5 23.5z
M961 647l-72 -71l-72 71l72 72zM889 514l-68 -68l-73 71l73 72l68 -69l68 69l73 -72l-73 -71z" />
    <glyph glyph-name="shin.fina" unicode="&#x634;" horiz-adv-x="1409" arabic-form="final" 
d="M640 21q3 -53 3 -94.5t-3 -81.5q-61 -47 -143 -74t-166 -27q-122 0 -191 58.5t-69 162.5q0 44 15 92.5t45 98.5l91 -40q-15 -34 -22.5 -62t-7.5 -52q0 -60 39.5 -87.5t124.5 -27.5q46 0 93 10.5t84 29.5q0 73 -17.5 163.5t-55.5 216.5l123 36l26 -90q18 -61 48 -90
t77 -29q46 0 72.5 31t26.5 84v81h119v-81q0 -57 23.5 -86t69.5 -29q44 0 68.5 30.5t24.5 84.5v126h119v-106q0 -69 30 -97t112 -28h10v-144h-10q-65 0 -110.5 22.5t-70.5 67.5q-19 -45 -61 -72.5t-93 -27.5q-55 0 -95 24.5t-62 71.5q-24 -45 -68.5 -70.5t-100.5 -25.5
q-33 0 -57.5 7.5t-40.5 23.5zM961 647l-72 -71l-72 71l72 72zM889 514l-68 -68l-73 71l73 72l68 -69l68 69l73 -72l-73 -71z" />
    <glyph glyph-name="shin.init" unicode="&#x634;" horiz-adv-x="952" arabic-form="initial" 
d="M-21 71q0 31 6 52t15 21h18q59 0 87 28.5t28 87.5v85h119v-96q0 -57 24.5 -86t72.5 -29q44 0 68.5 30t24.5 85v81h120v-81q0 -57 23.5 -86t69.5 -29q32 0 59 7.5t46 21.5q-5 56 -14 101.5t-24 91.5l119 42q25 -84 29 -169.5t-14 -172.5q-34 -32 -76.5 -49t-89.5 -17
q-64 0 -107.5 24t-66.5 72q-22 -45 -66.5 -70.5t-101.5 -25.5t-100 25.5t-65 72.5q-23 -42 -70 -65t-108 -23h-5q-9 0 -15 20.5t-6 50.5zM573 647l-72 -71l-72 71l72 72zM501 514l-68 -68l-73 71l73 72l68 -69l68 69l73 -72l-73 -71z" />
    <glyph glyph-name="shin.medi" unicode="&#x634;" horiz-adv-x="1018" arabic-form="medial" 
d="M-21 71q0 31 6 52t15 21h18q59 0 87 28.5t28 87.5v85h119v-96q0 -57 24.5 -86t72.5 -29q44 0 68.5 30t24.5 85v81h120v-81q0 -57 23.5 -86t69.5 -29q43 0 67.5 30t24.5 85v126h119v-106q0 -70 29.5 -97.5t113.5 -27.5h9v-144h-9q-67 0 -112 22t-70 68q-19 -46 -60.5 -73
t-92.5 -27q-56 0 -96 24t-62 71q-23 -45 -67 -70t-101 -25t-100 25.5t-65 72.5q-23 -42 -70 -65t-108 -23h-5q-9 0 -15 20.5t-6 50.5zM573 647l-72 -71l-72 71l72 72zM501 514l-68 -68l-73 71l73 72l68 -69l68 69l73 -72l-73 -71z" />
    <glyph glyph-name="sad.isol" unicode="&#x635;" horiz-adv-x="1275" arabic-form="isolated" 
d="M641 8q3 -52 2.5 -90.5t-3.5 -72.5q-61 -47 -143 -74t-166 -27q-122 0 -191 58.5t-69 162.5q0 44 15 92.5t45 98.5l91 -40q-15 -34 -22.5 -62t-7.5 -52q0 -60 39.5 -87.5t124.5 -27.5q46 0 93 10.5t84 29.5q0 71 -17.5 163.5t-55.5 216.5l123 36q14 -47 24.5 -91
t20.5 -94q38 141 123.5 217t205.5 76q108 0 181 -76t73 -193q0 -33 -9.5 -70.5t-25.5 -67.5q-54 -23 -141 -33.5t-233 -10.5q-48 0 -90 2t-71 6zM1087 167q0 67 -40.5 108t-106.5 41q-74 0 -128.5 -44t-82.5 -127q13 -1 29 -1h51q113 0 177 5.5t101 17.5z" />
    <glyph glyph-name="sad.fina" unicode="&#x635;" horiz-adv-x="1318" arabic-form="final" 
d="M641 8q3 -52 2.5 -90.5t-3.5 -72.5q-61 -47 -143 -74t-166 -27q-122 0 -191 58.5t-69 162.5q0 44 15 92.5t45 98.5l91 -40q-15 -34 -22.5 -62t-7.5 -52q0 -60 39.5 -87.5t124.5 -27.5q46 0 93 10.5t84 29.5q0 71 -17.5 163.5t-55.5 216.5l123 35q13 -46 24 -90t21 -94
q38 141 123.5 217t205.5 76q108 0 181 -76t73 -193v-15.5t-1 -10.5q22 -6 44.5 -9t46.5 -3h17v-144h-12q-53 0 -95.5 6.5t-82.5 21.5q-53 -15 -130 -21.5t-196 -6.5q-48 0 -90 2t-71 6zM1087 167q0 67 -40.5 108t-106.5 41q-74 0 -128.5 -44t-82.5 -127q13 -1 29 -1h51
q113 0 177 5.5t101 17.5z" />
    <glyph glyph-name="sad.init" unicode="&#x635;" horiz-adv-x="938" arabic-form="initial" 
d="M875 182q0 -32 -9.5 -69.5t-25.5 -68.5q-62 -23 -163.5 -33.5t-279.5 -10.5q-86 0 -141 18.5t-82 57.5q-25 -37 -68.5 -56.5t-101.5 -19.5h-4q-9 0 -15 20.5t-6 50.5q0 31 6 52t15 21h12q41 0 74 9t56 26q-1 5 -1 11.5v20.5v119h123v-90q0 -32 6.5 -51.5t21.5 -29.5
q37 140 122.5 216t205.5 76q109 0 182 -75.5t73 -193.5zM751 167q0 67 -40.5 108t-107.5 41q-74 0 -128 -44.5t-82 -127.5q130 1 217 6.5t141 16.5z" />
    <glyph glyph-name="sad.medi" unicode="&#x635;" horiz-adv-x="981" arabic-form="medial" 
d="M-21 71q0 31 6 52t15 21h12q41 0 74 9t56 26q-1 5 -1 11.5v20.5v119h123v-90q0 -32 6.5 -51.5t21.5 -29.5q37 140 122.5 216t205.5 76q109 0 182 -75.5t73 -193.5q0 -4 -0.5 -12.5t-0.5 -13.5q22 -6 44.5 -9t46.5 -3h16v-144h-11q-55 0 -98 7t-83 22q-63 -15 -155 -22
t-237 -7q-86 0 -141 18.5t-82 57.5q-25 -37 -68.5 -56.5t-101.5 -19.5h-4q-9 0 -15 20.5t-6 50.5zM751 167q0 67 -40.5 108t-107.5 41q-74 0 -128 -44.5t-82 -127.5q130 1 217 6.5t141 16.5z" />
    <glyph glyph-name="zad.isol" unicode="&#x636;" horiz-adv-x="1275" arabic-form="isolated" 
d="M641 8q3 -52 2.5 -90.5t-3.5 -72.5q-61 -47 -143 -74t-166 -27q-122 0 -191 58.5t-69 162.5q0 44 15 92.5t45 98.5l91 -40q-15 -34 -22.5 -62t-7.5 -52q0 -60 39.5 -87.5t124.5 -27.5q46 0 93 10.5t84 29.5q0 71 -17.5 163.5t-55.5 216.5l123 36q14 -47 24.5 -91
t20.5 -94q38 141 123.5 217t205.5 76q108 0 181 -76t73 -193q0 -33 -9.5 -70.5t-25.5 -67.5q-54 -23 -141 -33.5t-233 -10.5q-48 0 -90 2t-71 6zM1087 167q0 67 -40.5 108t-106.5 41q-74 0 -128.5 -44t-82.5 -127q13 -1 29 -1h51q113 0 177 5.5t101 17.5zM1015 596l-72 -71
l-72 71l72 72z" />
    <glyph glyph-name="zad.fina" unicode="&#x636;" horiz-adv-x="1318" arabic-form="final" 
d="M641 8q3 -52 2.5 -90.5t-3.5 -72.5q-61 -47 -143 -74t-166 -27q-122 0 -191 58.5t-69 162.5q0 44 15 92.5t45 98.5l91 -40q-15 -34 -22.5 -62t-7.5 -52q0 -60 39.5 -87.5t124.5 -27.5q46 0 93 10.5t84 29.5q0 71 -17.5 163.5t-55.5 216.5l123 35q13 -46 24 -90t21 -94
q38 141 123.5 217t205.5 76q108 0 181 -76t73 -193v-15.5t-1 -10.5q22 -6 44.5 -9t46.5 -3h17v-144h-12q-53 0 -95.5 6.5t-82.5 21.5q-53 -15 -130 -21.5t-196 -6.5q-48 0 -90 2t-71 6zM1087 167q0 67 -40.5 108t-106.5 41q-74 0 -128.5 -44t-82.5 -127q13 -1 29 -1h51
q113 0 177 5.5t101 17.5zM1015 596l-72 -71l-72 71l72 72z" />
    <glyph glyph-name="zad.init" unicode="&#x636;" horiz-adv-x="938" arabic-form="initial" 
d="M875 182q0 -32 -9.5 -69.5t-25.5 -68.5q-62 -23 -163.5 -33.5t-279.5 -10.5q-86 0 -141 18.5t-82 57.5q-25 -37 -68.5 -56.5t-101.5 -19.5h-4q-9 0 -15 20.5t-6 50.5q0 31 6 52t15 21h12q41 0 74 9t56 26q-1 5 -1 11.5v20.5v119h123v-90q0 -32 6.5 -51.5t21.5 -29.5
q37 140 122.5 216t205.5 76q109 0 182 -75.5t73 -193.5zM751 167q0 67 -40.5 108t-107.5 41q-74 0 -128 -44.5t-82 -127.5q130 1 217 6.5t141 16.5zM669 596l-72 -71l-72 71l72 72z" />
    <glyph glyph-name="zad.medi" unicode="&#x636;" horiz-adv-x="981" arabic-form="medial" 
d="M-21 71q0 31 6 52t15 21h12q41 0 74 9t56 26q-1 5 -1 11.5v20.5v119h123v-90q0 -32 6.5 -51.5t21.5 -29.5q37 140 122.5 216t205.5 76q109 0 182 -75.5t73 -193.5q0 -4 -0.5 -12.5t-0.5 -13.5q22 -6 44.5 -9t46.5 -3h16v-144h-11q-55 0 -98 7t-83 22q-63 -15 -155 -22
t-237 -7q-86 0 -141 18.5t-82 57.5q-25 -37 -68.5 -56.5t-101.5 -19.5h-4q-9 0 -15 20.5t-6 50.5zM751 167q0 67 -40.5 108t-107.5 41q-74 0 -128 -44.5t-82 -127.5q130 1 217 6.5t141 16.5zM670 596l-72 -71l-72 71l72 72z" />
    <glyph glyph-name="ta.isol" unicode="&#x637;" horiz-adv-x="812" arabic-form="isolated" 
d="M748 182q0 -33 -9.5 -70.5t-25.5 -67.5q-63 -23 -164 -33.5t-272 -10.5q-76 0 -147 10t-120 28l50 134q21 -7 44.5 -12t49.5 -9q8 29 18 55.5t21 49.5v449h119v-324q39 35 84 52.5t97 17.5q109 0 182 -75.5t73 -193.5zM624 167q0 67 -40.5 108t-107.5 41
q-71 0 -123.5 -44t-79.5 -128q126 1 211.5 6.5t139.5 16.5z" />
    <glyph glyph-name="ta.fina" unicode="&#x637;" horiz-adv-x="855" arabic-form="final" 
d="M277 0q-76 0 -147 10t-120 28l50 134q21 -7 44.5 -12t49.5 -9q8 29 18 55.5t21 49.5v449h119v-324q39 35 84 52.5t97 17.5q109 0 182 -75.5t73 -193.5v-15.5t-1 -10.5q22 -6 44.5 -9t46.5 -3h17v-144h-12q-55 0 -98 7t-83 22q-61 -15 -151.5 -22t-233.5 -7zM624 167
q0 67 -40.5 108t-107.5 41q-71 0 -123.5 -44t-79.5 -128q126 1 211.5 6.5t139.5 16.5z" />
    <glyph glyph-name="ta.init" unicode="&#x637;" horiz-adv-x="753" arabic-form="initial" 
d="M655 44q-63 -23 -164.5 -33.5t-271.5 -10.5h-219q-9 0 -15 20.5t-6 50.5q0 31 6 52t15 21h94q7 29 17 57t23 55v449h120v-324q39 35 84 52.5t97 17.5q109 0 182 -75.5t73 -193.5q0 -32 -9.5 -69.5t-25.5 -68.5zM565 167q0 67 -40.5 108t-106.5 41q-71 0 -124 -44.5
t-80 -127.5q127 1 212.5 6.5t138.5 16.5z" />
    <glyph glyph-name="ta.medi" unicode="&#x637;" horiz-adv-x="796" arabic-form="medial" 
d="M603 29q-62 -15 -152 -22t-233 -7h-218q-9 0 -15 20.5t-6 50.5q0 31 6 52t15 21h93q7 30 17 58.5t24 55.5v447h119v-324q39 35 84 52.5t97 17.5q109 0 182 -75.5t73 -193.5v-15.5t-1 -10.5q22 -6 44.5 -9t46.5 -3h17v-144h-12q-55 0 -98 7t-83 22zM565 167
q0 67 -40.5 108t-107.5 41q-71 0 -123.5 -44t-79.5 -128q126 1 211.5 6.5t139.5 16.5z" />
    <glyph glyph-name="za.isol" unicode="&#x638;" horiz-adv-x="812" arabic-form="isolated" 
d="M748 182q0 -33 -9.5 -70.5t-25.5 -67.5q-63 -23 -164 -33.5t-272 -10.5q-76 0 -147 10t-120 28l50 134q21 -7 44.5 -12t49.5 -9q8 29 18 55.5t21 49.5v449h119v-324q39 35 84 52.5t97 17.5q109 0 182 -75.5t73 -193.5zM624 167q0 67 -40.5 108t-107.5 41
q-71 0 -123.5 -44t-79.5 -128q126 1 211.5 6.5t139.5 16.5zM648 596l-72 -71l-72 71l72 72z" />
    <glyph glyph-name="za.fina" unicode="&#x638;" horiz-adv-x="855" arabic-form="final" 
d="M277 0q-76 0 -147 10t-120 28l50 134q21 -7 44.5 -12t49.5 -9q8 29 18 55.5t21 49.5v449h119v-324q39 35 84 52.5t97 17.5q109 0 182 -75.5t73 -193.5v-15.5t-1 -10.5q22 -6 44.5 -9t46.5 -3h17v-144h-12q-55 0 -98 7t-83 22q-61 -15 -151.5 -22t-233.5 -7zM624 167
q0 67 -40.5 108t-107.5 41q-71 0 -123.5 -44t-79.5 -128q126 1 211.5 6.5t139.5 16.5zM648 596l-72 -71l-72 71l72 72z" />
    <glyph glyph-name="za.init" unicode="&#x638;" horiz-adv-x="753" arabic-form="initial" 
d="M655 44q-63 -23 -164.5 -33.5t-271.5 -10.5h-219q-9 0 -15 20.5t-6 50.5q0 31 6 52t15 21h94q7 29 17 57t23 55v449h120v-324q39 35 84 52.5t97 17.5q109 0 182 -75.5t73 -193.5q0 -32 -9.5 -69.5t-25.5 -68.5zM565 167q0 67 -40.5 108t-106.5 41q-71 0 -124 -44.5
t-80 -127.5q127 1 212.5 6.5t138.5 16.5zM581 596l-72 -71l-72 71l72 72z" />
    <glyph glyph-name="za.medi" unicode="&#x638;" horiz-adv-x="796" arabic-form="medial" 
d="M603 29q-62 -15 -152 -22t-233 -7h-218q-9 0 -15 20.5t-6 50.5q0 31 6 52t15 21h93q7 30 17 58.5t24 55.5v447h119v-324q39 35 84 52.5t97 17.5q109 0 182 -75.5t73 -193.5v-15.5t-1 -10.5q22 -6 44.5 -9t46.5 -3h17v-144h-12q-55 0 -98 7t-83 22zM565 167
q0 67 -40.5 108t-107.5 41q-71 0 -123.5 -44t-79.5 -128q126 1 211.5 6.5t139.5 16.5zM581 596l-72 -71l-72 71l72 72z" />
    <glyph glyph-name="eyn.isol" unicode="&#x639;" horiz-adv-x="665" arabic-form="isolated" 
d="M233 415q5 -67 41 -120.5t78 -53.5q16 0 55.5 8.5t115.5 28.5l14 -120l-147 -36q-123 -30 -173 -61.5t-50 -82.5q0 -56 58 -85t172 -29q57 0 112 5.5t116 17.5l-7 -142q-46 -12 -102 -19t-108 -7q-167 0 -263 66.5t-96 182.5q0 65 37 116.5t112 90.5q-40 41 -62 94.5
t-22 110.5q0 80 55.5 133t138.5 53q46 0 87.5 -13t81.5 -40l-31 -103q-33 13 -65 19.5t-61 6.5q-26 0 -48 -5.5t-39 -15.5z" />
    <glyph glyph-name="eyn.fina" unicode="&#x639;" horiz-adv-x="640" arabic-form="final" 
d="M388 -281q-166 0 -261.5 58.5t-95.5 159.5q0 66 43 117t133 91q-28 28 -52 62t-45 75q-1 0 -25.5 -10.5t-41.5 -18.5l-43 120q92 44 180.5 67t164.5 23q111 0 169 -39t58 -114q0 -45 -23.5 -84t-71.5 -72q32 -5 71 -7.5t85 -2.5h7v-144h-8q-110 0 -193.5 19.5
t-149.5 60.5q-72 -27 -103.5 -55t-31.5 -66q0 -45 58 -70t167 -25q57 0 112 5.5t116 17.5l-7 -142q-52 -13 -105.5 -19.5t-106.5 -6.5zM449 279q0 29 -28 44t-81 15q-30 0 -60 -4.5t-62 -13.5q27 -49 62.5 -82t83.5 -54q42 22 63.5 46t21.5 49z" />
    <glyph glyph-name="eyn.init" unicode="&#x639;" horiz-adv-x="586" arabic-form="initial" 
d="M323 187q25 0 85.5 14.5t131.5 38.5l36 -134q-142 -55 -277 -80.5t-286 -25.5h-13q-9 0 -15 20.5t-6 50.5q0 31 6 52t15 21h40q25 0 53 1t52 3q-29 39 -45 85.5t-16 94.5q0 80 55.5 133t138.5 53q46 0 87.5 -13t81.5 -40l-31 -103q-33 13 -65.5 19.5t-61.5 6.5
q-25 0 -47 -5.5t-39 -15.5q5 -68 41 -122t79 -54z" />
    <glyph glyph-name="eyn.medi" unicode="&#x639;" horiz-adv-x="650" arabic-form="medial" 
d="M355 463q111 0 169 -39t58 -114q0 -41 -22 -81t-66 -76q33 -5 70 -7t79 -2h7v-144h-8q-97 0 -173.5 15.5t-137.5 46.5q-75 -30 -159 -46t-161 -16h-11q-9 0 -15 20.5t-6 50.5q0 31 6 52t15 21h8q54 0 104.5 3t94.5 8q-24 25 -45.5 56.5t-41.5 70.5q-1 0 -25.5 -10.5
t-41.5 -18.5l-43 120q92 44 181 67t164 23zM459 279q0 28 -28 43.5t-81 15.5q-30 0 -60 -4.5t-62 -13.5q26 -46 58.5 -77.5t74.5 -52.5q48 18 73 40.5t25 48.5z" />
    <glyph glyph-name="gheyn.isol" unicode="&#x63a;" horiz-adv-x="665" arabic-form="isolated" 
d="M233 415q5 -67 41 -120.5t78 -53.5q16 0 55.5 8.5t115.5 28.5l14 -120l-147 -36q-123 -30 -173 -61.5t-50 -82.5q0 -56 58 -85t172 -29q57 0 112 5.5t116 17.5l-7 -142q-46 -12 -102 -19t-108 -7q-167 0 -263 66.5t-96 182.5q0 65 37 116.5t112 90.5q-40 41 -62 94.5
t-22 110.5q0 80 55.5 133t138.5 53q46 0 87.5 -13t81.5 -40l-31 -103q-33 13 -65 19.5t-61 6.5q-26 0 -48 -5.5t-39 -15.5zM385 710l-72 -71l-72 71l72 72z" />
    <glyph glyph-name="gheyn.fina" unicode="&#x63a;" horiz-adv-x="640" arabic-form="final" 
d="M388 -281q-166 0 -261.5 58.5t-95.5 159.5q0 66 43 117t133 91q-28 28 -52 62t-45 75q-1 0 -25.5 -10.5t-41.5 -18.5l-43 120q92 44 180.5 67t164.5 23q111 0 169 -39t58 -114q0 -45 -23.5 -84t-71.5 -72q32 -5 71 -7.5t85 -2.5h7v-144h-8q-110 0 -193.5 19.5
t-149.5 60.5q-72 -27 -103.5 -55t-31.5 -66q0 -45 58 -70t167 -25q57 0 112 5.5t116 17.5l-7 -142q-52 -13 -105.5 -19.5t-106.5 -6.5zM449 279q0 29 -28 44t-81 15q-30 0 -60 -4.5t-62 -13.5q27 -49 62.5 -82t83.5 -54q42 22 63.5 46t21.5 49zM444 607l-72 -71l-72 71
l72 72z" />
    <glyph glyph-name="gheyn.init" unicode="&#x63a;" horiz-adv-x="586" arabic-form="initial" 
d="M323 187q25 0 85.5 14.5t131.5 38.5l36 -134q-142 -55 -277 -80.5t-286 -25.5h-13q-9 0 -15 20.5t-6 50.5q0 31 6 52t15 21h40q25 0 53 1t52 3q-29 39 -45 85.5t-16 94.5q0 80 55.5 133t138.5 53q46 0 87.5 -13t81.5 -40l-31 -103q-33 13 -65.5 19.5t-61.5 6.5
q-25 0 -47 -5.5t-39 -15.5q5 -68 41 -122t79 -54zM355 658l-72 -71l-72 71l72 72z" />
    <glyph glyph-name="gheyn.medi" unicode="&#x63a;" horiz-adv-x="650" arabic-form="medial" 
d="M355 463q111 0 169 -39t58 -114q0 -41 -22 -81t-66 -76q33 -5 70 -7t79 -2h7v-144h-8q-97 0 -173.5 15.5t-137.5 46.5q-75 -30 -159 -46t-161 -16h-11q-9 0 -15 20.5t-6 50.5q0 31 6 52t15 21h8q54 0 104.5 3t94.5 8q-24 25 -45.5 56.5t-41.5 70.5q-1 0 -25.5 -10.5
t-41.5 -18.5l-43 120q92 44 181 67t164 23zM459 279q0 28 -28 43.5t-81 15.5q-30 0 -60 -4.5t-62 -13.5q26 -46 58.5 -77.5t74.5 -52.5q48 18 73 40.5t25 48.5zM453 607l-72 -71l-72 71l72 72z" />
    <glyph glyph-name="feh.isol" unicode="&#x641;" horiz-adv-x="853" arabic-form="isolated" 
d="M635 750l-73 -71l-72 71l72 72zM362 384q0 92 58 164t136 72q93 0 166.5 -96.5t73.5 -217.5q0 -166 -96 -241t-307 -75q-172 0 -262.5 61t-90.5 176q0 40 15 82t42 78l84 -44q-13 -28 -18 -47.5t-5 -40.5q0 -63 60 -92t191 -29q133 0 199 29.5t79 93.5q-31 -11 -67 -16.5
t-76 -5.5q-90 0 -136 38t-46 111zM549 487q-31 0 -53 -24.5t-22 -58.5q0 -29 23 -42.5t73 -13.5q29 0 57 3t55 10q-15 57 -51.5 91.5t-81.5 34.5z" />
    <glyph glyph-name="feh.fina" unicode="&#x641;" horiz-adv-x="909" arabic-form="final" 
d="M718 612l-73 -71l-72 71l72 72zM158 257q0 -65 55 -94t179 -29q32 0 61.5 1.5t55.5 4.5q-33 36 -50.5 75t-17.5 78q0 80 56.5 130t148.5 50t148.5 -50t56.5 -130q0 -36 -16.5 -73t-47.5 -71q25 -2 51 -3.5t52 -1.5h19v-144h-19q-66 0 -128 12t-116 36q-60 -28 -129 -43
t-143 -15q-165 0 -249.5 60.5t-84.5 177.5q0 39 15.5 81.5t41.5 77.5l84 -44q-13 -27 -18 -46.5t-5 -39.5zM646 343q-43 0 -66.5 -18t-23.5 -50q0 -30 25 -56t72 -43q41 18 62 43.5t21 55.5q0 32 -23.5 50t-66.5 18z" />
    <glyph glyph-name="feh.init" unicode="&#x641;" horiz-adv-x="528" arabic-form="initial" 
d="M-21 71q0 31 6 52t15 21h95q128 0 192.5 27.5t75.5 85.5q-32 -11 -68 -16.5t-76 -5.5q-90 0 -136 38t-46 111q0 92 58 164t136 72q94 0 167 -96.5t73 -222.5q0 -158 -90 -229.5t-286 -71.5h-95q-9 0 -15 20.5t-6 50.5zM221 487q-29 0 -50.5 -24.5t-21.5 -58.5
q0 -29 23 -42.5t73 -13.5q28 0 55.5 3t55.5 9q-15 59 -51.5 93t-83.5 34zM301 761l-72 -71l-72 71l72 72z" />
    <glyph glyph-name="feh.medi" unicode="&#x641;" horiz-adv-x="539" arabic-form="medial" 
d="M520 144h19v-144h-18q-70 0 -135 12.5t-121 36.5q-57 -24 -121.5 -36.5t-129.5 -12.5h-14q-9 0 -15 20.5t-6 50.5q0 31 6 52t15 21h24q30 0 54 1t45 3q-29 32 -44.5 69t-15.5 76q0 80 58 130t152 50t151.5 -50t57.5 -130q0 -37 -17 -73.5t-50 -70.5q26 -3 52 -4t53 -1z
M273 343q-45 0 -70 -18t-25 -50q0 -29 24.5 -54t69.5 -42q47 18 71.5 42.5t24.5 53.5q0 32 -25 50t-70 18zM345 612l-72 -71l-72 71l72 72z" />
    <glyph glyph-name="ghaf.isol" unicode="&#x642;" horiz-adv-x="759" arabic-form="isolated" 
d="M468 513l-69 -67l-72 71l72 72l69 -68l69 68l72 -72l-72 -71zM644 272q29 -47 44 -103t15 -116q0 -160 -92.5 -247t-265.5 -87q-143 0 -224 66t-81 181q0 44 15.5 90.5t41.5 82.5l84 -44q-12 -25 -17.5 -48t-5.5 -46q0 -67 52 -102t151 -35q105 0 162 38t68 115
q-30 -14 -64.5 -21t-76.5 -7q-88 0 -135 43.5t-47 124.5q0 92 58 164t136 72q51 0 99 -32t83 -89zM586 133q-14 61 -49 95.5t-81 34.5q-30 0 -52.5 -25.5t-22.5 -60.5q0 -29 22.5 -42t72.5 -13q30 0 57.5 2.5t52.5 8.5z" />
    <glyph glyph-name="ghaf.fina" unicode="&#x642;" horiz-adv-x="792" arabic-form="final" 
d="M468 533l-69 -67l-72 71l72 72l69 -68l69 68l72 -72l-72 -71zM268 169q0 99 57.5 171.5t136.5 72.5q80 0 146 -76t87 -193h97v-144h-92q-15 -132 -106 -201.5t-249 -69.5q-144 0 -224.5 63t-80.5 174q0 44 15.5 90.5t41.5 82.5l84 -44q-12 -25 -17.5 -48t-5.5 -46
q0 -63 51.5 -95.5t151.5 -32.5t156 31.5t71 95.5h-124q-91 0 -143.5 45t-52.5 124zM381 197q0 -28 22.5 -40.5t72.5 -12.5h109q-14 65 -49 102t-82 37q-30 0 -51.5 -25.5t-21.5 -60.5z" />
    <glyph glyph-name="ghaf.init" unicode="&#x642;" horiz-adv-x="539" arabic-form="initial" 
d="M-21 71q0 31 6 52t15 21h95q128 0 192.5 27.5t75.5 85.5q-32 -11 -68 -16.5t-76 -5.5q-90 0 -136 38t-46 111q0 92 58 164t136 72q94 0 167 -96.5t73 -222.5q0 -158 -90 -229.5t-286 -71.5h-95q-9 0 -15 20.5t-6 50.5zM221 487q-29 0 -50.5 -24.5t-21.5 -58.5
q0 -29 23 -42.5t73 -13.5q28 0 55.5 3t55.5 9q-15 59 -51.5 93t-83.5 34zM229 758l-68 -68l-73 71l73 72l68 -69l68 69l73 -72l-73 -71z" />
    <glyph glyph-name="ghaf.medi" unicode="&#x642;" horiz-adv-x="539" arabic-form="medial" 
d="M520 144h19v-144h-18q-70 0 -135 12.5t-121 36.5q-57 -24 -121.5 -36.5t-129.5 -12.5h-14q-9 0 -15 20.5t-6 50.5q0 31 6 52t15 21h24q30 0 54 1t45 3q-29 32 -44.5 69t-15.5 76q0 80 58 130t152 50t151.5 -50t57.5 -130q0 -37 -17 -73.5t-50 -70.5q26 -3 52 -4t53 -1z
M273 343q-45 0 -70 -18t-25 -50q0 -29 24.5 -54t69.5 -42q47 18 71.5 42.5t24.5 53.5q0 32 -25 50t-70 18zM273 609l-68 -68l-73 71l73 72l68 -69l68 69l73 -72l-73 -71z" />
    <glyph glyph-name="kafArabic.isol" unicode="&#x643;" horiz-adv-x="800" arabic-form="isolated" 
d="M743 705v-398q0 -64 -6.5 -129.5t-18.5 -117.5q-66 -32 -162.5 -51t-195.5 -19q-159 0 -239.5 55t-80.5 163q0 41 15 84.5t42 80.5l84 -44q-13 -26 -18 -46t-5 -40q0 -58 55 -83.5t179 -25.5q61 0 120.5 7t99.5 19q6 33 9 69.5t3 77.5v398h119zM540 340q0 -37 -34.5 -55
t-104.5 -18q-30 0 -57.5 2.5t-47.5 6.5l10 71q25 -5 51 -8t48 -3q21 0 39.5 2t31.5 6q-8 7 -24 16.5t-47 26.5q-46 26 -64 44t-18 42q0 37 44.5 67.5t132.5 55.5l16 -71q-45 -11 -76 -22.5t-50 -25.5l82 -50q36 -22 52 -42t16 -45z" />
    <glyph glyph-name="kafArabic.fina" unicode="&#x643;" horiz-adv-x="837" arabic-form="final" 
d="M826 144h11v-144h-24q-45 0 -79 10.5t-56 32.5q-65 -25 -149.5 -39t-172.5 -14q-157 0 -236.5 55t-79.5 163q0 41 15 84.5t42 80.5l84 -44q-13 -26 -18 -46t-5 -40q0 -58 54 -83.5t176 -25.5q64 0 127.5 7.5t110.5 21.5q-1 16 -1.5 24.5t-0.5 16.5v501h119v-487
q0 -39 19.5 -56.5t63.5 -17.5zM540 340q0 -37 -34.5 -55t-104.5 -18q-30 0 -57.5 2.5t-47.5 6.5l10 71q25 -5 51 -8t48 -3q21 0 39.5 2t31.5 6q-8 7 -24 16.5t-47 26.5q-46 26 -64 44t-18 42q0 37 44.5 67.5t132.5 55.5l16 -71q-45 -11 -76 -22.5t-50 -25.5l82 -50
q36 -22 52 -42t16 -45z" />
    <glyph glyph-name="kafArabic.init" unicode="&#x643;" horiz-adv-x="462" arabic-form="initial" 
d="M0 0q-9 0 -15 20.5t-6 50.5q0 31 6 52t15 21q97 0 165.5 9t88.5 25q-4 18 -21.5 47t-58.5 84l-79 106q-25 34 -35 53.5t-10 35.5q0 22 11.5 40.5t35.5 33.5q62 44 159 82t191 55l26 -118q-76 -18 -146 -44t-136 -60q110 -136 150 -201.5t40 -118.5q0 -86 -95.5 -129.5
t-285.5 -43.5z" />
    <glyph glyph-name="kafArabic.medi" unicode="&#x643;" horiz-adv-x="601" arabic-form="medial" 
d="M593 144h8v-144h-17q-79 0 -139.5 23.5t-110.5 72.5q-50 -45 -138 -70.5t-196 -25.5q-9 0 -15 20.5t-6 50.5q0 31 6 52t15 21q86 0 151.5 9.5t110.5 27.5l-183 234q-24 31 -34.5 51t-10.5 38q0 22 11.5 40.5t35.5 33.5q63 44 159.5 82.5t188.5 54.5l26 -118
q-80 -18 -152 -44t-134 -60l145 -187q73 -93 130.5 -127.5t148.5 -34.5z" />
    <glyph glyph-name="lam.isol" unicode="&#x644;" horiz-adv-x="683" arabic-form="isolated" 
d="M475 -25q6 29 9 69t3 98v563h119v-559q0 -77 -6 -139.5t-17 -108.5q-47 -42 -124.5 -68.5t-153.5 -26.5q-119 0 -188.5 59t-69.5 161q0 44 15 92.5t45 99.5l91 -40q-15 -34 -22.5 -62t-7.5 -52q0 -57 37.5 -86t111.5 -29q41 0 82 7.5t76 21.5z" />
    <glyph glyph-name="lam.fina" unicode="&#x644;" horiz-adv-x="719" arabic-form="final" 
d="M475 -25q6 29 9 69t3 98v563h119v-454q0 -54 25 -80.5t77 -26.5h11v-144h-14q-30 0 -56.5 8t-46.5 23q-3 -41 -7.5 -74t-11.5 -59q-47 -42 -124.5 -68.5t-153.5 -26.5q-119 0 -188.5 59t-69.5 161q0 44 15 92.5t45 99.5l91 -40q-15 -34 -22.5 -62t-7.5 -52
q0 -57 37.5 -86t111.5 -29q41 0 82 7.5t76 21.5z" />
    <glyph glyph-name="lam.init" unicode="&#x644;" horiz-adv-x="324" arabic-form="initial" 
d="M-21 71q0 31 6 52t15 21h9q57 0 88 28.5t31 83.5v449h119v-452q0 -128 -58.5 -190.5t-179.5 -62.5h-9q-9 0 -15 20.5t-6 50.5z" />
    <glyph glyph-name="lam.medi" unicode="&#x644;" horiz-adv-x="359" arabic-form="medial" 
d="M359 144v-144h-13q-53 0 -91.5 22.5t-55.5 63.5q-27 -39 -79.5 -62.5t-115.5 -23.5h-4q-9 0 -15 20.5t-6 50.5q0 31 6 52t15 21h12q35 0 64 10t52 29v522h119v-454q0 -54 25 -80.5t77 -26.5h10z" />
    <glyph glyph-name="mim.isol" unicode="&#x645;" horiz-adv-x="736" arabic-form="isolated" 
d="M156 0q0 -46 13.5 -116.5t33.5 -132.5l-122 -35q-21 70 -34 146t-13 129q0 100 50 163t140 78q39 110 93.5 164.5t125.5 54.5q59 0 114.5 -39t89.5 -105q29 -56 37 -122t-6 -135q-34 -28 -84 -44t-103 -16q-76 0 -148 27.5t-126 76.5q-31 -7 -46 -29.5t-15 -64.5z
M493 127q37 0 55.5 8t18.5 25q0 55 -38 102.5t-85 47.5q-36 0 -64.5 -27.5t-59.5 -91.5q44 -32 87 -48t86 -16z" />
    <glyph glyph-name="mim.fina" unicode="&#x645;" horiz-adv-x="784" arabic-form="final" 
d="M156 0q0 -46 13.5 -116.5t33.5 -132.5l-122 -35q-21 70 -34 146t-13 129q0 100 50 163t140 78q39 111 94 165t127 54q63 0 114 -45.5t103 -151.5q33 -65 55 -87.5t61 -22.5h6v-144h-7q-39 0 -69 12.5t-60 40.5q-20 -31 -59.5 -47t-96.5 -16q-75 0 -146.5 27.5
t-128.5 76.5q-31 -7 -46 -29.5t-15 -64.5zM493 127q38 0 56 8t18 25q0 55 -38 102.5t-85 47.5q-36 0 -64 -27t-59 -92q44 -32 87 -48t85 -16z" />
    <glyph glyph-name="mim.init" unicode="&#x645;" horiz-adv-x="679" arabic-form="initial" 
d="M-21 71q0 31 6 52t15 21h6q61 0 98 27.5t72 88.5q69 121 110 156t100 35q60 0 115.5 -39t89.5 -105q29 -56 37 -122t-6 -135q-34 -28 -84 -44t-104 -16q-67 0 -132 22t-117 62q-37 -37 -82 -55.5t-98 -18.5h-5q-9 0 -15 20.5t-6 50.5zM436 127q38 0 56.5 8.5t18.5 25.5
q0 54 -38.5 101.5t-85.5 47.5q-33 0 -59 -24.5t-67 -98.5q41 -29 85.5 -44.5t89.5 -15.5z" />
    <glyph glyph-name="mim.medi" unicode="&#x645;" horiz-adv-x="726" arabic-form="medial" 
d="M-21 71q0 31 6 52t15 21h6q56 0 92 27t80 95q76 119 116.5 152t92.5 33q62 0 112.5 -45t102.5 -148q36 -70 58 -92t60 -22h6v-144h-7q-39 0 -69 12.5t-60 40.5q-20 -31 -59.5 -47t-96.5 -16q-69 0 -137 23.5t-121 65.5q-39 -39 -81.5 -59t-89.5 -20h-5q-9 0 -15 20.5
t-6 50.5zM439 127q36 0 53 8.5t17 25.5q0 54 -37.5 101.5t-82.5 47.5q-33 0 -58 -24t-71 -94q44 -33 89 -49t90 -16z" />
    <glyph glyph-name="noon.isol" unicode="&#x646;" horiz-adv-x="744" arabic-form="isolated" 
d="M556 -12q4 85 -16 189.5t-59 206.5l123 39q51 -113 63.5 -274t-27.5 -260q-50 -42 -125 -64.5t-168 -22.5q-140 0 -218 69.5t-78 194.5q0 56 21.5 117t58.5 112l88 -45q-24 -43 -36 -82t-12 -73q0 -76 46 -112t143 -36q57 0 108 10.5t88 30.5zM435 563l-72 -71l-72 71
l72 72z" />
    <glyph glyph-name="noon.fina" unicode="&#x646;" horiz-adv-x="809" arabic-form="final" 
d="M667 48q2 -66 -4.5 -121t-22.5 -98q-50 -42 -125 -64.5t-168 -22.5q-140 0 -218 69.5t-78 194.5q0 56 21.5 117t58.5 112l88 -45q-24 -43 -36 -82t-12 -73q0 -76 46 -112t143 -36q57 0 108 10.5t88 30.5q4 88 -17.5 197t-63.5 215l124 39q4 -12 9.5 -28t15.5 -49
q6 -18 8.5 -26t4.5 -15q23 -71 57.5 -94t107.5 -23h7v-144h-7q-53 0 -83 11t-52 37zM434 514l-72 -71l-72 71l72 72z" />
    <glyph glyph-name="noon.init" unicode="&#x646;" horiz-adv-x="357" arabic-form="initial" 
d="M0 144h6q53 0 95.5 7t73.5 21q-4 48 -13 92t-24 92l121 42q25 -82 29 -167t-14 -171q-50 -29 -118.5 -44.5t-148.5 -15.5h-7q-9 0 -15 20.5t-6 50.5q0 31 6 52t15 21zM237 563l-72 -71l-72 71l72 72z" />
    <glyph glyph-name="noon.medi" unicode="&#x646;" horiz-adv-x="403" arabic-form="medial" 
d="M403 144v-144h-14q-62 0 -107 23.5t-63 65.5q-28 -41 -86.5 -65t-128.5 -24h-4q-9 0 -15 20.5t-6 50.5q0 31 6 52t15 21h12q44 0 78 9.5t58 29.5v147h119v-79q0 -54 30.5 -80.5t94.5 -26.5h11zM275 509l-72 -71l-72 71l72 72z" />
    <glyph glyph-name="heh.isol" unicode="&#x647;" horiz-adv-x="519" arabic-form="isolated" 
d="M244 470q110 -36 167.5 -105t57.5 -166q0 -93 -59.5 -151t-155.5 -58q-93 0 -148.5 52.5t-55.5 138.5q0 84 49 157t145 132zM250 326q-40 -27 -61.5 -58.5t-21.5 -62.5q0 -33 24 -52t66 -19q44 0 69.5 21t25.5 56q0 34 -25.5 62.5t-76.5 52.5z" />
    <glyph glyph-name="heh.fina" unicode="&#x647;" horiz-adv-x="523" arabic-form="final" 
d="M512 144h11v-144h-24q-66 0 -107 23t-60 71q-25 -15 -52.5 -23t-57.5 -8q-81 0 -132 47t-51 122q0 90 70.5 156.5t206.5 103.5v47h119v-321q0 -41 17.5 -57.5t59.5 -16.5zM150 248q0 -30 22.5 -44.5t68.5 -14.5q16 0 35 2.5t40 6.5v159q-83 -13 -124.5 -40.5t-41.5 -68.5
z" />
    <glyph glyph-name="heh.init" unicode="&#x647;" horiz-adv-x="708" arabic-form="initial" 
d="M-21 71q0 31 6 52t15 21h30q25 0 45 1t38 3q-30 34 -45.5 72.5t-15.5 79.5q0 83 53 134.5t139 51.5q13 0 26.5 -2t27.5 -6l37 70q156 -78 239.5 -177t83.5 -202q0 -79 -38 -134t-93 -55q-66 0 -137 17t-133 47q-47 -22 -99.5 -33t-105.5 -11h-52q-9 0 -15 20.5t-6 50.5z
M254 369q-43 0 -66 -18.5t-23 -53.5q0 -29 22 -59t63 -57q46 21 71 50.5t25 63.5t-25 54t-67 20zM486 109q28 0 42 15t14 45q0 35 -27 76.5t-79 86.5q3 -13 4.5 -26t1.5 -26q0 -42 -17.5 -81.5t-50.5 -73.5q29 -8 57.5 -12t54.5 -4z" />
    <glyph glyph-name="heh.medi" unicode="&#x647;" horiz-adv-x="603" arabic-form="medial" 
d="M548 -88q0 -83 -51.5 -136.5t-131.5 -53.5q-100 0 -173 76t-91 202h-101q-9 0 -15 20.5t-6 50.5q0 31 6 52t15 21h101q11 63 36 133t58 129q25 44 47 63.5t49 19.5q21 0 39 -10.5t39 -34.5q55 -63 82 -119t27 -109q0 -18 -5 -35.5t-16 -36.5h146v-144h-80
q13 -20 19 -41.5t6 -46.5zM374 209q0 33 -21 66t-67 75q-27 -50 -45 -105.5t-24 -105.5h68q42 0 65.5 18.5t23.5 51.5zM445 -71q0 36 -30 56t-85 20h-109q13 -74 50 -110.5t98 -36.5q35 0 55.5 19.5t20.5 51.5z" />
    <glyph glyph-name="vav.isol" unicode="&#x648;" horiz-adv-x="575" arabic-form="isolated" 
d="M68 198q0 102 59.5 177.5t140.5 75.5q51 0 99 -35.5t81 -98.5q26 -49 40 -107t14 -121q0 -71 -23 -136t-67 -117q-47 -55 -109 -86t-128 -31q-41 0 -78 7.5t-67 21.5l27 106q19 -4 37.5 -6.5t34.5 -2.5q79 0 147.5 45.5t109.5 126.5q-27 -13 -56 -20t-58 -7
q-98 0 -151 54t-53 154zM264 308q-37 0 -60.5 -27t-23.5 -70q0 -42 22.5 -60t76.5 -18q28 0 55 3t54 9q-13 80 -44.5 121.5t-79.5 41.5z" />
    <glyph glyph-name="vav.fina" unicode="&#x648;" horiz-adv-x="605" arabic-form="final" 
d="M68 198q0 101 59.5 177t140.5 76q85 0 151.5 -88t79.5 -219h106v-144h-112q-27 -123 -117 -202t-201 -79q-42 0 -79 7.5t-66 21.5l27 106q25 -5 41 -7t31 -2q75 0 140.5 40.5t107.5 114.5h-99q-100 0 -155 52t-55 146zM180 211q0 -36 22 -51.5t76 -15.5h110
q-13 80 -45 122t-79 42q-37 0 -60.5 -27t-23.5 -70z" />
    <glyph glyph-name="alefMaghsureh.isol" unicode="&#x649;" horiz-adv-x="764" arabic-form="isolated" 
d="M596 -150q-51 -29 -110.5 -44.5t-121.5 -15.5q-137 0 -214 67.5t-77 186.5q0 41 15 84.5t42 80.5l85 -44q-12 -23 -18 -46.5t-6 -47.5q0 -66 44.5 -101t128.5 -35q75 0 148.5 25t96.5 56q-4 16 -21.5 30t-73.5 40q-52 24 -77.5 39t-43.5 32q-28 26 -41.5 57t-13.5 69
q0 83 60 142t153 59q63 0 117.5 -35.5t78.5 -88.5l-72 -71q-38 42 -71.5 60t-72.5 18q-35 0 -56.5 -19t-21.5 -48q0 -26 22.5 -47.5t98.5 -56.5q97 -45 128.5 -80t31.5 -79q0 -50 -37 -100t-101 -87z" />
    <glyph glyph-name="alefMaghsureh.fina" unicode="&#x649;" horiz-adv-x="805" arabic-form="final" 
d="M179 20q0 -76 44 -116t129 -40q88 0 153.5 29.5t95.5 80.5q-18 12 -58.5 19t-86.5 7h-11l24 144h336v-144h-109q3 -8 5 -17.5t2 -20.5q0 -51 -35 -101t-96 -85q-49 -28 -107.5 -42.5t-122.5 -14.5q-131 0 -206.5 73.5t-75.5 197.5q0 71 26.5 146t76.5 148l85 -42
q-36 -68 -52.5 -122t-16.5 -100z" />
    <glyph glyph-name="yehArabic.isol" unicode="&#x64a;" horiz-adv-x="764" arabic-form="isolated" 
d="M596 -150q-51 -29 -110.5 -44.5t-121.5 -15.5q-137 0 -214 67.5t-77 186.5q0 41 15 84.5t42 80.5l85 -44q-12 -23 -18 -46.5t-6 -47.5q0 -66 44.5 -101t128.5 -35q75 0 148.5 25t96.5 56q-4 16 -21.5 30t-73.5 40q-52 24 -77.5 39t-43.5 32q-28 26 -41.5 57t-13.5 69
q0 83 60 142t153 59q63 0 117.5 -35.5t78.5 -88.5l-72 -71q-38 42 -71.5 60t-72.5 18q-35 0 -56.5 -19t-21.5 -48q0 -26 22.5 -47.5t98.5 -56.5q97 -45 128.5 -80t31.5 -79q0 -50 -37 -100t-101 -87zM366 -350l-68 -68l-73 71l73 71l68 -68l68 68l73 -71l-73 -71z" />
    <glyph glyph-name="yehArabic.fina" unicode="&#x64a;" horiz-adv-x="805" arabic-form="final" 
d="M179 20q0 -76 44 -116t129 -40q88 0 153.5 29.5t95.5 80.5q-18 12 -58.5 19t-86.5 7h-11l24 144h336v-144h-109q3 -8 5 -17.5t2 -20.5q0 -51 -35 -101t-96 -85q-49 -28 -107.5 -42.5t-122.5 -14.5q-131 0 -206.5 73.5t-75.5 197.5q0 71 26.5 146t76.5 148l85 -42
q-36 -68 -52.5 -122t-16.5 -100zM349 -424l-68 -68l-73 71l73 71l68 -68l68 68l73 -71l-73 -71z" />
    <glyph glyph-name="yehArabic.init" unicode="&#x64a;" horiz-adv-x="357" arabic-form="initial" 
d="M0 144h6q53 0 95.5 7t73.5 21q-4 48 -13 92t-24 92l121 42q25 -82 29 -167t-14 -171q-50 -29 -118.5 -44.5t-148.5 -15.5h-7q-9 0 -15 20.5t-6 50.5q0 31 6 52t15 21zM208 -150l-68 -68l-73 71l73 71l68 -68l68 68l73 -71l-73 -71z" />
    <glyph glyph-name="yehArabic.medi" unicode="&#x64a;" horiz-adv-x="403" arabic-form="medial" 
d="M403 144v-144h-14q-62 0 -107 23.5t-63 65.5q-28 -41 -86.5 -65t-128.5 -24h-4q-9 0 -15 20.5t-6 50.5q0 31 6 52t15 21h12q44 0 78 9.5t58 29.5v147h119v-79q0 -54 30.5 -80.5t94.5 -26.5h11zM203 -150l-68 -68l-73 71l73 71l68 -68l68 68l73 -71l-73 -71z" />
    <glyph glyph-name=".notdef" horiz-adv-x="682" 
d="M587 0h-492v685h492v-685zM147 638v-591h388v591h-388z" />
    <glyph glyph-name=".null" 
 />
    <glyph glyph-name=".null" 
 />
    <glyph glyph-name="nonmarkingreturn" horiz-adv-x="333" 
 />
    <glyph glyph-name="CR" unicode="&#xd;" 
 />
    <glyph glyph-name="space" unicode=" " horiz-adv-x="210" 
 />
    <glyph glyph-name="exclam" unicode="!" horiz-adv-x="326" 
d="M94 685h138l-10 -471h-119zM163 152q34 0 57.5 -23.5t23.5 -57.5t-23.5 -57.5t-57.5 -23.5t-57.5 23.5t-23.5 57.5t23.5 57.5t57.5 23.5z" />
    <glyph glyph-name="quotedbl" unicode="&#x22;" horiz-adv-x="404" 
d="M165 685l-8 -250h-106l-9 250h123zM361 685l-8 -250h-106l-9 250h123z" />
    <glyph glyph-name="numbersign" unicode="#" horiz-adv-x="774" 
d="M476 0h-125l49 162h-135l-49 -162h-125l49 162h-105v105h137l45 150h-126v105h158l49 163h124l-49 -163h136l49 163h124l-49 -163h106v-105h-138l-45 -150h126v-105h-157zM341 417l-45 -150h136l45 150h-136z" />
    <glyph glyph-name="dollar" unicode="$" horiz-adv-x="567" 
d="M339 396q105 -35 149 -81.5t44 -118.5t-47.5 -126t-125.5 -73v-103h-135v102q-55 10 -104.5 36t-89.5 66l74 92q41 -41 88 -61.5t101 -20.5q47 0 75.5 22.5t28.5 59.5q0 30 -26 50t-110 49q-116 39 -161 86t-45 123q0 70 45 121.5t120 68.5v107h135v-108
q42 -10 81.5 -31.5t73.5 -54.5l-78 -92q-38 35 -73.5 51t-73.5 16q-43 0 -69 -19.5t-26 -53.5q0 -33 28 -54.5t121 -52.5z" />
    <glyph glyph-name="percent" unicode="%" horiz-adv-x="879" 
d="M201 344q-77 0 -127.5 49.5t-50.5 125.5t50.5 126t127.5 50t127 -50t50 -126t-50 -125.5t-127 -49.5zM155 0l454 685h114l-454 -685h-114zM201 437q33 0 54.5 23.5t21.5 58.5q0 37 -21 60t-55 23t-55.5 -23t-21.5 -60q0 -36 22 -59t55 -23zM678 340q77 0 127 -50t50 -126
t-50 -125t-127 -49t-127.5 49t-50.5 125t50.5 126t127.5 50zM678 247q-34 0 -55.5 -23t-21.5 -60q0 -35 22 -58.5t55 -23.5t54.5 23.5t21.5 58.5q0 37 -21 60t-55 23z" />
    <glyph glyph-name="ampersand" unicode="&#x26;" horiz-adv-x="650" 
d="M203 492q0 -38 26.5 -61.5t69.5 -23.5h325v-115h-87v-74q0 -103 -67.5 -165.5t-178.5 -62.5q-105 0 -173.5 58t-68.5 147q0 53 29.5 94t85.5 65q-45 24 -70 62t-25 83q0 84 62.5 140t157.5 56q62 0 119 -30t101 -86l-78 -78q-34 38 -67.5 56.5t-67.5 18.5
q-41 0 -67 -23.5t-26 -60.5zM183 201q0 -39 30.5 -64.5t77.5 -25.5q53 0 82.5 30t29.5 84v67h-98q-55 0 -88.5 -25t-33.5 -66z" />
    <glyph glyph-name="quotesingle" unicode="'" horiz-adv-x="208" 
d="M165 685l-8 -250h-106l-9 250h123z" />
    <glyph glyph-name="parenleft" unicode="(" horiz-adv-x="452" 
d="M360 746l62 -105q-100 -58 -159 -162t-59 -222q0 -119 58.5 -222t159.5 -162l-62 -105q-141 79 -219 207.5t-78 281.5t78 281.5t219 207.5z" />
    <glyph glyph-name="parenright" unicode=")" horiz-adv-x="452" 
d="M91 -232l-62 105q101 59 159.5 162t58.5 222q0 118 -59 222t-159 162l62 105q141 -79 219 -207.5t78 -281.5t-78 -281.5t-219 -207.5z" />
    <glyph glyph-name="asterisk" unicode="*" horiz-adv-x="491" 
d="M423 466l-92 -66l-85 132l-85 -133l-91 66l95 116l-144 38l35 107l141 -55l-9 144h112l-8 -141l142 55l35 -107l-142 -38z" />
    <glyph glyph-name="plus" unicode="+" horiz-adv-x="500" 
d="M473 391v-108h-162v-182h-123v182h-162v108h162v182h123v-182h162z" />
    <glyph glyph-name="comma" unicode="," horiz-adv-x="282" 
d="M58 72q0 34 24.5 58.5t58.5 24.5t58 -24.5t24 -59.5q0 -18 -4.5 -38t-14.5 -47l-45 -132h-91l32 147q-19 11 -30.5 30t-11.5 41z" />
    <glyph glyph-name="hyphen" unicode="-" horiz-adv-x="350" 
d="M305 226h-260v122h260v-122z" />
    <glyph glyph-name="period" unicode="." horiz-adv-x="282" 
d="M141 155q34 0 58 -24.5t24 -58.5t-24 -58t-58 -24t-58.5 24t-24.5 58t24.5 58.5t58.5 24.5z" />
    <glyph glyph-name="slash" unicode="/" horiz-adv-x="466" 
d="M440 685l-284 -685h-130l284 685h130z" />
    <glyph glyph-name="zero" unicode="0" horiz-adv-x="629" 
d="M314 -10q-117 0 -189.5 97.5t-72.5 254.5q0 158 72.5 255.5t189.5 97.5q118 0 190 -97.5t72 -255.5t-72 -255t-190 -97zM314 115q56 0 88.5 61t32.5 166t-32.5 166t-88.5 61t-88.5 -61t-32.5 -166q0 -104 32.5 -165.5t88.5 -61.5z" />
    <glyph glyph-name="one" unicode="1" horiz-adv-x="385" 
d="M158 563h-127v122h264v-685h-137v563z" />
    <glyph glyph-name="two" unicode="2" horiz-adv-x="537" 
d="M215 114h277v-114h-451v98l235 269q33 37 48 67t15 58q0 37 -24 60.5t-62 23.5q-33 0 -68 -20t-69 -59l-83 82q46 57 104 86.5t123 29.5q92 0 152.5 -56t60.5 -140q0 -50 -20.5 -95t-65.5 -96z" />
    <glyph glyph-name="three" unicode="3" horiz-adv-x="550" 
d="M369 201q0 41 -33.5 66t-88.5 25h-63v115h59q43 0 69.5 23.5t26.5 61.5q0 37 -26 60.5t-67 23.5q-33 0 -67 -19t-67 -57l-79 79q44 56 101 86t119 30q95 0 157.5 -56t62.5 -140q0 -44 -23.5 -81t-66.5 -62q58 -24 89 -65.5t31 -95.5q0 -89 -67.5 -147t-171.5 -58
q-69 0 -131 26t-110 76l72 96q43 -39 84 -57.5t85 -18.5q46 0 75.5 25t29.5 64z" />
    <glyph glyph-name="four" unicode="4" horiz-adv-x="594" 
d="M343 685h123v-419h97v-115h-97v-151h-124v151h-315v98zM164 266h178v244z" />
    <glyph glyph-name="five" unicode="5" horiz-adv-x="554" 
d="M278 440q103 0 169.5 -62.5t66.5 -159.5q0 -99 -68.5 -163.5t-173.5 -64.5q-69 0 -130 26t-108 75l72 96q40 -38 81.5 -57t84.5 -19q47 0 77.5 30.5t30.5 76.5q0 47 -32.5 77t-82.5 30q-27 0 -51 -7.5t-48 -22.5l-97 61l30 329h358v-115h-249l-14 -142q21 6 41.5 9
t42.5 3z" />
    <glyph glyph-name="six" unicode="6" horiz-adv-x="575" 
d="M287 448q108 0 179 -64.5t71 -161.5q0 -100 -71 -166t-179 -66q-106 0 -176 68t-70 171q0 62 26 125t84 145l131 186h145l-169 -238q5 1 11 1h18zM287 340q-50 0 -83 -33.5t-33 -84.5t33 -84t83 -33t83 33.5t33 83.5q0 51 -33 84.5t-83 33.5z" />
    <glyph glyph-name="seven" unicode="7" horiz-adv-x="509" 
d="M483 685v-99l-241 -586h-144l235 570h-312v115h462z" />
    <glyph glyph-name="eight" unicode="8" horiz-adv-x="608" 
d="M451 357q49 -27 76 -69.5t27 -92.5q0 -87 -72 -146t-178 -59t-178.5 59t-72.5 146q0 50 27 92.5t76 69.5q-39 27 -60.5 64t-21.5 79q0 83 66.5 139t163.5 56t163.5 -56.5t66.5 -138.5q0 -42 -21.5 -79.5t-61.5 -63.5zM304 576q-42 0 -69.5 -24t-27.5 -60q0 -38 27 -62.5
t70 -24.5q42 0 69 24.5t27 62.5q0 36 -27.5 60t-68.5 24zM304 300q-50 0 -83 -27.5t-33 -69.5q0 -41 33 -68t83 -27t82.5 27t32.5 68q0 42 -32.5 69.5t-82.5 27.5z" />
    <glyph glyph-name="nine" unicode="9" horiz-adv-x="575" 
d="M534 455q0 -62 -26 -125t-84 -145l-131 -185h-145l169 238q-12 -1 -18.5 -1.5t-11.5 -0.5q-107 0 -178 64.5t-71 161.5q0 100 71 166.5t178 66.5t177 -68.5t70 -171.5zM287 344q51 0 84 33.5t33 84.5t-33 84t-84 33q-49 0 -82 -33.5t-33 -83.5q0 -51 32.5 -84.5
t82.5 -33.5z" />
    <glyph glyph-name="colon" unicode=":" horiz-adv-x="282" 
d="M141 155q34 0 58 -24.5t24 -58.5t-24 -58t-58 -24t-58.5 24t-24.5 58t24.5 58.5t58.5 24.5zM141 479q34 0 58 -24.5t24 -58.5t-24 -58t-58 -24t-58.5 24t-24.5 58t24.5 58.5t58.5 24.5z" />
    <glyph glyph-name="semicolon" unicode=";" horiz-adv-x="282" 
d="M141 479q34 0 58 -24.5t24 -58.5t-24 -58t-58 -24t-58.5 24t-24.5 58t24.5 58.5t58.5 24.5zM58 72q0 34 24.5 58.5t58.5 24.5t58 -24.5t24 -59.5q0 -18 -4.5 -38t-14.5 -47l-45 -132h-91l32 147q-19 11 -30.5 30t-11.5 41z" />
    <glyph glyph-name="less" unicode="&#x3c;" horiz-adv-x="500" 
d="M194 337l268 -122l-48 -112l-388 179v109l388 181l48 -112z" />
    <glyph glyph-name="equal" unicode="=" horiz-adv-x="500" 
d="M473 484v-108h-447v108h447zM473 298v-108h-447v108h447z" />
    <glyph glyph-name="greater" unicode="&#x3e;" horiz-adv-x="500" 
d="M473 391v-109l-388 -179l-48 112l268 122l-268 123l48 112z" />
    <glyph glyph-name="question" unicode="?" horiz-adv-x="491" 
d="M231 695q94 0 156 -56t62 -142q0 -68 -40.5 -118.5t-108.5 -68.5v-96h-123v168l42 7q47 8 75 36t28 67q0 40 -27 65.5t-71 25.5q-35 0 -66 -16.5t-60 -50.5l-78 78q41 50 94.5 75.5t116.5 25.5zM239 152q33 0 57 -24t24 -57t-24 -57t-57 -24t-57 24t-24 57t24 57t57 24z
" />
    <glyph glyph-name="at" unicode="@" horiz-adv-x="868" 
d="M626 -79l31 -78q-55 -25 -100 -34t-107 -9q-180 0 -296 110t-116 283q0 168 115 281t288 113q168 0 278.5 -105.5t110.5 -265.5q0 -102 -48 -164t-123 -62q-39 0 -68.5 15.5t-44.5 44.5q-24 -29 -56.5 -44.5t-68.5 -15.5q-85 0 -139.5 54.5t-54.5 140.5t55.5 144
t138.5 58q32 0 60.5 -12.5t51.5 -35.5l5 39h74v-233q0 -38 13.5 -57t40.5 -19q36 0 55.5 37.5t19.5 109.5q0 125 -85.5 208t-214.5 83q-133 0 -222 -90t-89 -224q0 -136 91 -224.5t229 -88.5q48 0 89.5 9.5t86.5 31.5zM424 290q-41 0 -66.5 -29t-25.5 -75q0 -44 26 -72.5
t66 -28.5q41 0 67 28.5t26 72.5q0 45 -26.5 74.5t-66.5 29.5z" />
    <glyph glyph-name="A" unicode="A" horiz-adv-x="707" 
d="M695 0h-142l-55 141h-296l-55 -141h-135l274 685h135zM350 523l-102 -264h204z" />
    <glyph glyph-name="B" unicode="B" horiz-adv-x="618" 
d="M310 0h-227v685h217q115 0 179.5 -48t64.5 -134q0 -47 -25.5 -84.5t-73.5 -62.5q61 -25 95 -67t34 -94q0 -90 -71.5 -142.5t-192.5 -52.5zM410 489q0 37 -28 58t-77 21h-88v-158h88q49 0 77 21t28 58zM440 205q0 42 -33 65.5t-92 23.5h-98v-178h98q60 0 92.5 23.5
t32.5 65.5z" />
    <glyph glyph-name="C" unicode="C" horiz-adv-x="668" 
d="M390 569q-89 0 -148.5 -65t-59.5 -162t59.5 -161.5t148.5 -64.5q49 0 90 19.5t81 61.5l86 -92q-56 -58 -120 -86.5t-137 -28.5q-149 0 -249 100.5t-100 251.5t100 252t249 101q70 0 133 -27t114 -79l-84 -92q-36 36 -76.5 54t-86.5 18z" />
    <glyph glyph-name="D" unicode="D" horiz-adv-x="706" 
d="M276 0h-193v685h193q182 0 285.5 -91t103.5 -252q0 -160 -103.5 -251t-285.5 -91zM524 342q0 105 -63 161.5t-180 56.5h-61v-436h61q116 0 179.5 57t63.5 161z" />
    <glyph glyph-name="E" unicode="E" horiz-adv-x="564" 
d="M514 0h-431v685h431v-122h-294v-152h268v-122h-268v-167h294v-122z" />
    <glyph glyph-name="F" unicode="F" horiz-adv-x="548" 
d="M220 0h-137v685h428v-122h-291v-172h264v-122h-264v-269z" />
    <glyph glyph-name="G" unicode="G" horiz-adv-x="750" 
d="M718 330q0 -145 -94 -242.5t-234 -97.5q-149 0 -249 100.5t-100 251.5t100 252t249 101q70 0 133 -27t114 -79l-84 -92q-36 36 -76.5 54t-86.5 18q-89 0 -148.5 -65t-59.5 -162t59.5 -161.5t148.5 -64.5q67 0 116 36.5t68 99.5h-199v122h341q1 -8 1.5 -20t0.5 -24z" />
    <glyph glyph-name="H" unicode="H" horiz-adv-x="744" 
d="M661 0h-137v291h-304v-291h-137v685h137v-272h304v272h137v-685z" />
    <glyph glyph-name="I" unicode="I" horiz-adv-x="303" 
d="M220 0h-137v685h137v-685z" />
    <glyph glyph-name="J" unicode="J" horiz-adv-x="502" 
d="M433 685v-465q0 -113 -58 -171.5t-169 -58.5q-55 0 -104 22t-91 65l84 92q24 -27 52 -40.5t58 -13.5q43 0 67 27.5t24 78.5v464h137z" />
    <glyph glyph-name="K" unicode="K" horiz-adv-x="667" 
d="M233 289h-13v-289h-137v685h137v-274h11q53 0 80 16.5t58 67.5l116 190h147l-116 -189q-25 -41 -46.5 -71.5t-41.5 -53.5l227 -371h-157l-182 298q-19 -5 -39.5 -7t-43.5 -2z" />
    <glyph glyph-name="L" unicode="L" horiz-adv-x="531" 
d="M220 122h287v-122h-424v685h137v-563z" />
    <glyph glyph-name="M" unicode="M" horiz-adv-x="939" 
d="M534 0h-133l-158 457l-66 -457h-133l109 685h134l183 -537l182 537h133l110 -685h-137l-70 446z" />
    <glyph glyph-name="N" unicode="N" horiz-adv-x="732" 
d="M649 0h-132l-304 460v-460h-130v685h132l304 -462v462h130v-685z" />
    <glyph glyph-name="O" unicode="O" horiz-adv-x="780" 
d="M390 -10q-149 0 -249 100.5t-100 251.5t100 252t249 101t249 -101t100 -252t-100 -251.5t-249 -100.5zM390 116q89 0 148.5 64.5t59.5 161.5t-59.5 162t-148.5 65t-148.5 -65t-59.5 -162t59.5 -161.5t148.5 -64.5z" />
    <glyph glyph-name="P" unicode="P" horiz-adv-x="591" 
d="M217 0h-134v685h213q122 0 192 -59.5t70 -163.5q0 -103 -71 -163t-191 -60h-79v-239zM420 462q0 48 -32.5 74.5t-90.5 26.5h-80v-203h80q59 0 91 26.5t32 75.5z" />
    <glyph glyph-name="Q" unicode="Q" horiz-adv-x="780" 
d="M650 102l88 -104l-94 -81l-93 110q-37 -18 -77.5 -27.5t-83.5 -9.5q-149 0 -249 100.5t-100 251.5t100 252t249 101t249 -101t100 -252q0 -69 -23 -130.5t-66 -109.5zM390 569q-89 0 -148.5 -65t-59.5 -162t59.5 -161.5t148.5 -64.5q18 0 36.5 3.5t37.5 9.5l-97 114
l94 80l99 -116q19 29 28.5 63t9.5 72q0 97 -59.5 162t-148.5 65z" />
    <glyph glyph-name="R" unicode="R" horiz-adv-x="621" 
d="M217 0h-134v685h226q112 0 180.5 -56.5t68.5 -149.5q0 -64 -31 -111t-89 -72l160 -296h-145l-139 262h-97v-262zM420 473q0 41 -28.5 65.5t-77.5 24.5h-97v-180h97q49 0 77.5 24.5t28.5 65.5z" />
    <glyph glyph-name="S" unicode="S" horiz-adv-x="567" 
d="M285 576q-43 0 -69 -19.5t-26 -53.5q0 -33 28 -54.5t121 -52.5q105 -35 149 -81.5t44 -118.5q0 -88 -68.5 -147t-170.5 -59q-76 0 -143.5 27.5t-119.5 80.5l74 92q41 -41 88 -61.5t101 -20.5q47 0 75.5 22.5t28.5 59.5q0 30 -26 50t-110 49q-116 39 -161 86t-45 123
q0 85 65 141t164 56q63 0 121 -24t105 -70l-78 -92q-38 35 -73.5 51t-73.5 16z" />
    <glyph glyph-name="T" unicode="T" horiz-adv-x="579" 
d="M221 563h-201v122h539v-122h-201v-563h-137v563z" />
    <glyph glyph-name="U" unicode="U" horiz-adv-x="680" 
d="M611 685v-412q0 -130 -73 -206.5t-198 -76.5t-198 76t-73 207v412h137v-410q0 -76 35 -118t99 -42q63 0 98.5 42.5t35.5 117.5v410h137z" />
    <glyph glyph-name="V" unicode="V" horiz-adv-x="672" 
d="M523 685h136l-256 -685h-134l-256 685h143l184 -515z" />
    <glyph glyph-name="W" unicode="W" horiz-adv-x="1002" 
d="M752 0h-133l-118 323l-118 -323h-133l-237 685h147l166 -502l111 301l-74 201h286l-73 -198l109 -311l167 509h137z" />
    <glyph glyph-name="X" unicode="X" horiz-adv-x="681" 
d="M662 0h-157l-169 249l-169 -249h-149l244 360l-220 325h157l146 -215l145 215h149l-220 -325z" />
    <glyph glyph-name="Y" unicode="Y" horiz-adv-x="634" 
d="M480 685h144l-238 -402v-283h-137v283l-239 402h153l159 -270z" />
    <glyph glyph-name="Z" unicode="Z" horiz-adv-x="587" 
d="M204 121h344v-121h-510v104l334 459h-321v122h487v-105z" />
    <glyph glyph-name="bracketleft" unicode="[" horiz-adv-x="413" 
d="M227 -110h152v-122h-289v973h289v-121h-152v-730z" />
    <glyph glyph-name="backslash" unicode="\" horiz-adv-x="466" 
d="M440 0h-130l-284 685h130z" />
    <glyph glyph-name="bracketright" unicode="]" horiz-adv-x="413" 
d="M33 -232v122h153v730h-153v121h290v-973h-290z" />
    <glyph glyph-name="asciicircum" unicode="^" horiz-adv-x="500" 
d="M304 685l163 -351l-111 -47l-107 239l-106 -239l-111 47l162 351h110z" />
    <glyph glyph-name="underscore" unicode="_" horiz-adv-x="626" 
d="M613 -174h-600v108h600v-108z" />
    <glyph glyph-name="grave" unicode="`" horiz-adv-x="500" 
d="M189 728l184 -138l-45 -71l-199 110z" />
    <glyph glyph-name="a" unicode="a" horiz-adv-x="585" 
d="M519 0h-117l-15 62q-25 -35 -61 -53.5t-77 -18.5q-92 0 -153.5 68.5t-61.5 170.5q0 103 61.5 171.5t153.5 68.5q42 0 77.5 -18.5t60.5 -53.5l15 62h117v-459zM164 229q0 -52 32.5 -86.5t81.5 -34.5t81.5 34.5t32.5 86.5q0 53 -32.5 87.5t-81.5 34.5t-81.5 -34.5
t-32.5 -87.5z" />
    <glyph glyph-name="b" unicode="b" horiz-adv-x="585" 
d="M336 469q92 0 153.5 -68.5t61.5 -171.5q0 -102 -61.5 -170.5t-153.5 -68.5q-41 0 -77 18.5t-61 53.5l-15 -62h-117v705h133v-307q25 35 60 53t77 18zM307 351q-49 0 -81.5 -34.5t-32.5 -87.5q0 -52 32.5 -86.5t81.5 -34.5t81.5 34.5t32.5 86.5q0 53 -32.5 87.5
t-81.5 34.5z" />
    <glyph glyph-name="c" unicode="c" horiz-adv-x="479" 
d="M278 351q-49 0 -81.5 -34.5t-32.5 -87.5q0 -52 32.5 -86.5t81.5 -34.5q27 0 51.5 11.5t47.5 34.5l85 -86q-38 -40 -83.5 -59t-100.5 -19q-105 0 -174.5 68t-69.5 171q0 104 69 172t175 68q48 0 92.5 -18.5t81.5 -52.5l-85 -86q-21 20 -43 29.5t-46 9.5z" />
    <glyph glyph-name="d" unicode="d" horiz-adv-x="585" 
d="M519 0h-117l-15 62q-25 -35 -61 -53.5t-77 -18.5q-92 0 -153.5 68.5t-61.5 170.5q0 103 61.5 171.5t153.5 68.5q42 0 77 -18t60 -53v307h133v-705zM164 229q0 -52 32.5 -86.5t81.5 -34.5t81.5 34.5t32.5 86.5q0 53 -32.5 87.5t-81.5 34.5t-81.5 -34.5t-32.5 -87.5z" />
    <glyph glyph-name="e" unicode="e" horiz-adv-x="532" 
d="M399 147l65 -84q-36 -36 -83.5 -54.5t-102.5 -18.5q-105 0 -174.5 68t-69.5 171q0 102 67 171t167 69t167 -69t67 -171q0 -14 -1 -26t-2 -18h-341q12 -41 44 -65t76 -24q35 0 63.5 12t57.5 39zM268 363q-38 0 -67 -22.5t-41 -61.5h216q-12 39 -40.5 61.5t-67.5 22.5z" />
    <glyph glyph-name="f" unicode="f" horiz-adv-x="387" 
d="M375 459v-114h-128v-345h-133v345h-98v109l87 5l-2 5q-10 27 -15 50t-5 43q0 71 48.5 114.5t128.5 43.5q39 0 78.5 -13.5t75.5 -38.5l-57 -95q-16 13 -35.5 20.5t-37.5 7.5q-30 0 -49 -19t-19 -49q0 -14 4 -31t13 -38h144z" />
    <glyph glyph-name="g" unicode="g" horiz-adv-x="585" 
d="M552 13q0 -99 -77 -161t-200 -62q-64 0 -124.5 19.5t-114.5 56.5l61 99q40 -30 83.5 -45t88.5 -15q68 0 110.5 31.5t42.5 81.5q0 19 -5 34t-16 33q-25 -45 -64.5 -70t-87.5 -25q-92 0 -153.5 68.5t-61.5 170.5q0 103 61.5 171.5t153.5 68.5q41 0 76.5 -18.5t61.5 -53.5
l15 62h117v-328l7 -13q12 -23 19 -50.5t7 -54.5zM164 229q0 -53 32.5 -87t81.5 -34t81.5 34t32.5 87t-32.5 87.5t-81.5 34.5t-81.5 -34.5t-32.5 -87.5z" />
    <glyph glyph-name="h" unicode="h" horiz-adv-x="571" 
d="M299 348q-29 0 -54.5 -16.5t-45.5 -47.5v-284h-133v705h133v-311q27 35 64 55t77 20q82 0 129 -53.5t47 -147.5v-268h-133v249q0 47 -22 73t-62 26z" />
    <glyph glyph-name="i" unicode="i" horiz-adv-x="265" 
d="M132 684q33 0 56.5 -23.5t23.5 -56.5t-23.5 -56.5t-56.5 -23.5q-32 0 -55.5 24t-23.5 56q0 33 23.5 56.5t55.5 23.5zM66 459h133v-459h-133v459z" />
    <glyph glyph-name="j" unicode="j" horiz-adv-x="272" 
d="M139 684q33 0 56.5 -23.5t23.5 -56.5t-23.5 -56.5t-56.5 -23.5t-56.5 23.5t-23.5 56.5t23.5 56.5t56.5 23.5zM11 -89q29 0 45.5 22.5t16.5 61.5v464h133v-475q0 -91 -48 -142.5t-134 -51.5q-38 0 -75 13.5t-65 37.5l66 94q17 -12 32 -18t29 -6z" />
    <glyph glyph-name="k" unicode="k" horiz-adv-x="551" 
d="M219 176h-20v-176h-133v705h133v-408h20q46 0 71 15.5t44 54.5l43 92h138l-43 -90q-24 -49 -43 -79.5t-38 -50.5l151 -239h-152l-109 181q-12 -3 -26.5 -4t-35.5 -1z" />
    <glyph glyph-name="l" unicode="l" horiz-adv-x="265" 
d="M66 705h133v-705h-133v705z" />
    <glyph glyph-name="m" unicode="m" horiz-adv-x="871" 
d="M294 349q-27 0 -51.5 -16.5t-43.5 -48.5v-284h-133v459h117l16 -65q27 36 62.5 55.5t73.5 19.5q50 0 88 -22t59 -63q31 40 73 62.5t87 22.5q80 0 125.5 -53.5t45.5 -147.5v-268h-133v249q0 48 -20.5 74t-58.5 26q-29 0 -52.5 -17t-42.5 -52v-280h-133v249q0 48 -20.5 74
t-58.5 26z" />
    <glyph glyph-name="n" unicode="n" horiz-adv-x="574" 
d="M299 348q-29 0 -54.5 -16.5t-45.5 -47.5v-284h-133v459h117l16 -66q27 36 64 56t77 20q82 0 129 -53.5t47 -147.5v-268h-133v249q0 47 -22 73t-62 26z" />
    <glyph glyph-name="o" unicode="o" horiz-adv-x="556" 
d="M278 469q106 0 175 -68t69 -172q0 -103 -69.5 -171t-174.5 -68t-174.5 68t-69.5 171q0 104 69 172t175 68zM278 351q-49 0 -81.5 -34.5t-32.5 -87.5q0 -52 32.5 -86.5t81.5 -34.5t81.5 34.5t32.5 86.5q0 53 -32.5 87.5t-81.5 34.5z" />
    <glyph glyph-name="p" unicode="p" horiz-adv-x="585" 
d="M551 229q0 -102 -61.5 -170.5t-153.5 -68.5q-42 0 -77 18t-60 53v-261h-133v659h117l15 -62q25 35 60.5 53.5t77.5 18.5q92 0 153.5 -68.5t61.5 -171.5zM307 351q-49 0 -81.5 -34.5t-32.5 -87.5q0 -52 32.5 -86.5t81.5 -34.5t81.5 34.5t32.5 86.5q0 53 -32.5 87.5
t-81.5 34.5z" />
    <glyph glyph-name="q" unicode="q" horiz-adv-x="585" 
d="M402 459h117v-659h-133v261q-25 -35 -60 -53t-77 -18q-92 0 -153.5 68.5t-61.5 170.5q0 103 61.5 171.5t153.5 68.5q42 0 77.5 -18.5t60.5 -53.5zM164 229q0 -52 32.5 -86.5t81.5 -34.5t81.5 34.5t32.5 86.5q0 53 -32.5 87.5t-81.5 34.5t-81.5 -34.5t-32.5 -87.5z" />
    <glyph glyph-name="r" unicode="r" horiz-adv-x="381" 
d="M299 329q-31 0 -56 -12.5t-44 -36.5v-280h-133v459h117l16 -65q25 35 59 55t70 20q13 0 24 -1.5t21 -5.5l-35 -139q-11 3 -21 4.5t-18 1.5z" />
    <glyph glyph-name="s" unicode="s" horiz-adv-x="439" 
d="M202 184q-87 24 -120 58t-33 88q0 61 50 100t128 39q46 0 90.5 -14t80.5 -39l-60 -90q-25 19 -56 30.5t-57 11.5q-24 0 -36.5 -9t-12.5 -26q0 -16 17 -28t68 -26q77 -20 112.5 -55t35.5 -88q0 -67 -49.5 -106.5t-135.5 -39.5q-55 0 -104 16.5t-96 50.5l61 91
q32 -26 68.5 -41t70.5 -15q27 0 42.5 11t15.5 29q0 16 -14 26.5t-66 25.5z" />
    <glyph glyph-name="t" unicode="t" horiz-adv-x="445" 
d="M110 345h-92v109l92 5h7l16 131h110v-131h148v-114h-148v-162q0 -34 15.5 -53.5t43.5 -19.5q15 0 30.5 6.5t32.5 20.5l63 -94q-29 -25 -66.5 -39t-76.5 -14q-83 0 -129 50t-46 140v165z" />
    <glyph glyph-name="u" unicode="u" horiz-adv-x="567" 
d="M501 0h-116l-16 62q-27 -34 -63.5 -53t-75.5 -19q-80 0 -126 52t-46 143v274h133v-254q0 -45 21 -69.5t59 -24.5q29 0 53.5 15.5t43.5 45.5v287h133v-459z" />
    <glyph glyph-name="v" unicode="v" horiz-adv-x="513" 
d="M371 459h132l-180 -459h-134l-180 459h141l109 -307z" />
    <glyph glyph-name="w" unicode="w" horiz-adv-x="786" 
d="M609 0h-137l-79 198l-79 -198h-137l-180 459h131l127 -331l78 201l-52 130h229l-52 -129l78 -199l126 328h128z" />
    <glyph glyph-name="x" unicode="x" horiz-adv-x="520" 
d="M509 0h-154l-102 141l-100 -141h-142l172 239l-159 220h154l88 -122l87 122h142l-158 -220z" />
    <glyph glyph-name="y" unicode="y" horiz-adv-x="567" 
d="M534 13q0 -99 -77 -161t-200 -62q-64 0 -124.5 19.5t-114.5 56.5l61 99q40 -30 83.5 -45t88.5 -15q68 0 110.5 31.5t42.5 81.5q0 21 -4 38.5t-12 34.5q-26 -47 -68 -74t-90 -27q-80 0 -126 52t-46 143v274h133v-254q0 -45 21 -69.5t59 -24.5q29 0 53.5 15.5t43.5 45.5
v287h133v-308l6 -14q13 -30 20 -62t7 -62z" />
    <glyph glyph-name="z" unicode="z" horiz-adv-x="467" 
d="M197 114h235v-114h-398v97l219 248h-209v114h378v-91z" />
    <glyph glyph-name="braceleft" unicode="{" horiz-adv-x="490" 
d="M408 -110h48v-122h-53q-108 0 -161 56t-53 170v42q0 76 -26 113t-83 42l-44 4v121l44 5q57 5 83 42t26 112v44q0 114 53 170t161 56h53v-122h-48q-42 0 -62 -27t-20 -84v-47q0 -76 -36.5 -131t-101.5 -78q65 -23 101.5 -78.5t36.5 -131.5v-46q0 -56 20 -83t62 -27z" />
    <glyph glyph-name="bar" unicode="|" horiz-adv-x="317" 
d="M90 685h137v-885h-137v885z" />
    <glyph glyph-name="braceright" unicode="}" horiz-adv-x="490" 
d="M300 36v-42q0 -114 -53 -170t-161 -56h-53v122h48q42 0 62 27t20 83v46q0 76 36.5 131.5t101.5 78.5q-65 23 -101.5 78t-36.5 131v47q0 57 -20 84t-62 27h-48v122h53q108 0 161 -56t53 -170v-44q0 -75 26 -112t83 -42l44 -5v-121l-44 -4q-57 -5 -83 -42.5t-26 -112.5z
" />
    <glyph glyph-name="asciitilde" unicode="~" horiz-adv-x="500" 
d="M107 276l-87 35q22 62 55 92t79 30q21 0 42.5 -4t60.5 -17q32 -11 47.5 -14t28.5 -3q22 0 35 10.5t24 34.5l87 -40q-25 -63 -55.5 -91t-74.5 -28q-21 0 -44.5 4.5t-64.5 18.5q-31 11 -45.5 14t-26.5 3q-23 0 -37 -10.5t-24 -34.5z" />
    <glyph glyph-name="uni00A0" unicode="&#xa0;" horiz-adv-x="210" 
 />
    <glyph glyph-name="exclamdown" unicode="&#xa1;" horiz-adv-x="326" 
d="M163 310q-34 0 -57.5 23.5t-23.5 58.5q0 33 24 57t57 24t57 -24t24 -57q0 -35 -23.5 -58.5t-57.5 -23.5zM222 248l10 -469h-138l9 469h119z" />
    <glyph glyph-name="cent" unicode="&#xa2;" horiz-adv-x="479" 
d="M377 154l85 -86q-27 -27 -56.5 -45t-62.5 -26v-103h-135v105q-79 21 -126.5 83.5t-47.5 146.5q0 82 45.5 144t121.5 85v111h135v-107q33 -9 62.5 -25t53.5 -39l-85 -86q-21 20 -43 29.5t-46 9.5q-49 0 -81.5 -34.5t-32.5 -87.5q0 -52 32.5 -86.5t81.5 -34.5
q27 0 51.5 11.5t47.5 34.5z" />
    <glyph glyph-name="sterling" unicode="&#xa3;" horiz-adv-x="588" 
d="M277 122h269v-122h-498v112l28 2q48 5 70.5 30t22.5 73q0 16 -2 31t-6 29h-113v122h74q-4 18 -6 37t-2 40q0 95 65.5 157t165.5 62q62 0 113 -23t91 -70l-86 -89q-27 30 -52.5 43t-57.5 13q-43 0 -71 -29t-28 -74q0 -14 1.5 -29t4.5 -38h197v-122h-164q4 -19 5.5 -35.5
t1.5 -33.5q0 -24 -6 -46t-17 -40z" />
    <glyph glyph-name="currency" unicode="&#xa4;" horiz-adv-x="569" 
d="M458 227l72 -72l-66 -65l-71 71q-24 -15 -51.5 -22.5t-57.5 -7.5t-57.5 7.5t-51.5 22.5l-71 -71l-66 65l72 72q-14 25 -21 52.5t-7 57.5t7.5 58t21.5 52l-73 72l66 66l71 -72q24 15 51.5 22.5t57.5 7.5t57.5 -7.5t51.5 -22.5l71 72l66 -66l-72 -72q14 -23 21.5 -51
t7.5 -59q0 -30 -7.5 -58t-21.5 -52zM284 449q-44 0 -73.5 -32t-29.5 -80t29.5 -80t73.5 -32t73.5 32t29.5 80t-29.5 80t-73.5 32z" />
    <glyph glyph-name="yen" unicode="&#xa5;" horiz-adv-x="674" 
d="M593 234v-92h-187v-142h-137v142h-186v92h186v72h-186v92h131l-184 287h153l159 -246l158 246h144l-184 -287h133v-92h-187v-72h187z" />
    <glyph glyph-name="brokenbar" unicode="&#xa6;" horiz-adv-x="317" 
d="M90 685h137v-364h-137v364zM90 -200v363h137v-363h-137z" />
    <glyph glyph-name="section" unicode="&#xa7;" horiz-adv-x="476" 
d="M367 161q22 -21 33 -48.5t11 -61.5q0 -68 -51.5 -114t-127.5 -46q-46 0 -89.5 14.5t-76.5 40.5l56 84q26 -19 50.5 -28t47.5 -9q30 0 47.5 15t17.5 40q0 28 -25 47.5t-80 34.5q-72 20 -108 59.5t-36 99.5q0 40 19 75.5t53 59.5q-22 21 -33 48.5t-11 61.5q0 69 51.5 115
t127.5 46q46 0 89.5 -14.5t76.5 -40.5l-56 -85q-27 19 -51.5 28.5t-46.5 9.5q-29 0 -46.5 -15t-17.5 -41q0 -29 25 -48t80 -34q72 -20 107.5 -59.5t35.5 -99.5q0 -40 -19 -75.5t-53 -59.5zM149 304q0 -27 24 -46.5t81 -37.5l18 -6t11 -4q20 9 31.5 27.5t11.5 43.5
q0 27 -24 46.5t-81 37.5l-18 6t-11 4q-20 -9 -31.5 -27.5t-11.5 -43.5z" />
    <glyph glyph-name="dieresis" unicode="&#xa8;" horiz-adv-x="500" 
d="M152 678q28 0 48.5 -20.5t20.5 -48.5t-20.5 -49t-48.5 -21t-49.5 21t-21.5 49t21 48.5t50 20.5zM347 678q29 0 50 -20.5t21 -48.5t-21 -49t-50 -21q-28 0 -48.5 21t-20.5 49t20.5 48.5t48.5 20.5z" />
    <glyph glyph-name="copyright" unicode="&#xa9;" horiz-adv-x="771" 
d="M386 -10q-148 0 -248 101t-100 251q0 151 99.5 252t248.5 101q148 0 247.5 -101t99.5 -252q0 -150 -100 -251t-247 -101zM386 55q118 0 197.5 82t79.5 205q0 124 -78.5 205.5t-198.5 81.5t-199 -82t-79 -205q0 -122 80 -204.5t198 -82.5zM394 454q-44 0 -73 -32t-29 -80
q0 -47 29.5 -79t72.5 -32q25 0 45.5 10t41.5 31l55 -60q-31 -32 -66 -47.5t-76 -15.5q-83 0 -138.5 55t-55.5 138t55.5 139t138.5 56q38 0 73 -15t64 -44l-55 -60q-19 18 -39 27t-43 9z" />
    <glyph glyph-name="ordfeminine" unicode="&#xaa;" horiz-adv-x="411" 
d="M362 375h-86l-8 32q-17 -19 -40.5 -29t-49.5 -10q-65 0 -107.5 46.5t-42.5 116.5q0 71 42.5 117.5t107.5 46.5q27 0 50 -10.5t40 -29.5l8 31h86v-311zM129 531q0 -32 20 -53.5t50 -21.5q29 0 49 21.5t20 53.5q0 33 -19.5 54t-49.5 21q-31 0 -50.5 -21t-19.5 -54zM30 326
h353v-71h-353v71z" />
    <glyph glyph-name="guillemotleft" unicode="&#xab;" horiz-adv-x="663" 
d="M465 230l151 -151l-84 -82l-224 224v17l224 225l84 -83zM190 230l150 -151l-83 -82l-224 224v17l224 225l83 -83z" />
    <glyph glyph-name="logicalnot" unicode="&#xac;" horiz-adv-x="500" 
d="M349 283h-323v108h447v-290h-124v182z" />
    <glyph glyph-name="uni00AD" unicode="&#xad;" 
 />
    <glyph glyph-name="registered" unicode="&#xae;" horiz-adv-x="771" 
d="M386 -10q-148 0 -248 101t-100 251q0 151 99.5 252t248.5 101q148 0 247.5 -101t99.5 -252q0 -150 -99.5 -251t-247.5 -101zM386 54q118 0 197.5 83t79.5 205q0 124 -78.5 206t-198.5 82t-199 -82t-79 -206q0 -122 80 -205t198 -83zM341 173h-79v348h119q59 0 95.5 -30
t36.5 -79q0 -31 -14.5 -55t-42.5 -38l78 -146h-88l-63 125h-42v-125zM429 408q0 19 -12 30t-33 11h-43v-80h43q21 0 33 10.5t12 28.5z" />
    <glyph glyph-name="macron" unicode="&#xaf;" horiz-adv-x="500" 
d="M112 651h275v-95h-275v95z" />
    <glyph glyph-name="degree" unicode="&#xb0;" horiz-adv-x="399" 
d="M200 695q75 0 124.5 -49.5t49.5 -124.5t-49 -124t-125 -49q-75 0 -125 49t-50 124q0 74 50 124t125 50zM200 602q-32 0 -54 -23.5t-22 -57.5t22 -57.5t54 -23.5t53.5 23t21.5 58t-21.5 58t-53.5 23z" />
    <glyph glyph-name="plusminus" unicode="&#xb1;" horiz-adv-x="500" 
d="M311 108h162v-108h-447v108h162v175h-162v108h162v182h123v-182h162v-108h-162v-175z" />
    <glyph glyph-name="twosuperior" unicode="&#xb2;" horiz-adv-x="307" 
d="M145 512h130v-77h-248v67l119 132q14 17 20.5 29.5t6.5 24.5q0 14 -8.5 22.5t-23.5 8.5q-13 0 -29.5 -10t-33.5 -28l-56 56q23 30 56 46.5t70 16.5q52 0 85.5 -30.5t33.5 -77.5q0 -25 -10 -46.5t-32 -46.5z" />
    <glyph glyph-name="threesuperior" unicode="&#xb3;" horiz-adv-x="310" 
d="M191 548q0 17 -14 26.5t-39 9.5h-31v69h29q18 0 28.5 9t10.5 24t-10 23.5t-28 8.5q-16 0 -32.5 -9t-31.5 -25l-53 53q22 29 55.5 46t68.5 17q54 0 88.5 -28t34.5 -74q0 -23 -10.5 -42.5t-30.5 -33.5q28 -14 42.5 -35t14.5 -48q0 -49 -37 -79t-96 -30q-39 0 -73 13t-60 38
l47 67q23 -18 44 -26.5t41 -8.5q18 0 30 10t12 25z" />
    <glyph glyph-name="acute" unicode="&#xb4;" horiz-adv-x="500" 
d="M174 519l-45 71l184 138l60 -99z" />
    <glyph glyph-name="mu" unicode="&#xb5;" horiz-adv-x="576" 
d="M199 -200h-133v659h133v-254q0 -45 21 -69.5t60 -24.5q29 0 53.5 15.5t43.5 44.5v288h133v-459h-117l-15 62q-28 -34 -64 -53t-75 -19q-12 0 -22 1t-18 3v-194z" />
    <glyph glyph-name="paragraph" unicode="&#xb6;" horiz-adv-x="773" 
d="M40 474q0 96 66.5 153.5t175.5 57.5h471v-122h-120v-663h-121v663h-110v-663h-120v366q-108 0 -175 57.5t-67 150.5z" />
    <glyph glyph-name="periodcentered" unicode="&#xb7;" horiz-adv-x="323" 
d="M161 395q32 0 55 -22.5t23 -54.5t-23 -55t-55 -23t-55 23t-23 55q0 31 23 54t55 23z" />
    <glyph glyph-name="cedilla" unicode="&#xb8;" horiz-adv-x="500" 
d="M355 -126q0 -42 -31 -67t-83 -25q-28 0 -50.5 5t-48.5 16l22 66q19 -9 32.5 -12.5t25.5 -3.5q14 0 22.5 7t8.5 18q0 13 -8 19t-24 6l-38 40l23 75h76l-18 -57q42 -4 66.5 -27t24.5 -60z" />
    <glyph glyph-name="onesuperior" unicode="&#xb9;" horiz-adv-x="243" 
d="M90 711h-69v84h163v-360h-94v276z" />
    <glyph glyph-name="ordmasculine" unicode="&#xba;" horiz-adv-x="392" 
d="M196 695q73 0 120.5 -46.5t47.5 -117.5t-47.5 -117t-120.5 -46q-72 0 -120 46.5t-48 116.5t48 117t120 47zM196 606q-31 0 -50.5 -21t-19.5 -54q0 -32 20 -53.5t50 -21.5t50 21.5t20 53.5q0 33 -19.5 54t-50.5 21zM30 326h333v-71h-333v71z" />
    <glyph glyph-name="guillemotright" unicode="&#xbb;" horiz-adv-x="663" 
d="M629 238v-17l-224 -224l-83 82l151 150l-151 151l83 83zM354 238v-17l-224 -224l-84 82l151 150l-151 151l84 83z" />
    <glyph glyph-name="onequarter" unicode="&#xbc;" horiz-adv-x="752" 
d="M90 601h-69v84h163v-360h-94v276zM616 685l-426 -685h-104l427 685h103zM602 360h83v-208h50v-79h-50v-73h-83v73h-160v68zM529 152h73v101z" />
    <glyph glyph-name="onehalf" unicode="&#xbd;" horiz-adv-x="734" 
d="M90 601h-69v84h163v-360h-94v276zM600 685l-426 -685h-104l427 685h103zM572 77h130v-77h-248v67l119 132q14 17 20.5 29.5t6.5 24.5q0 14 -8.5 22.5t-23.5 8.5q-13 0 -29.5 -10t-33.5 -28l-56 56q23 30 56 46.5t70 16.5q52 0 85.5 -30.5t33.5 -77.5q0 -25 -10 -46.5
t-32 -46.5z" />
    <glyph glyph-name="threequarters" unicode="&#xbe;" horiz-adv-x="820" 
d="M191 438q0 17 -14 26.5t-39 9.5h-31v69h29q18 0 28.5 9t10.5 24t-10 23.5t-28 8.5q-16 0 -32.5 -9t-31.5 -25l-53 53q22 29 55.5 46t68.5 17q54 0 88.5 -28t34.5 -74q0 -23 -10.5 -42.5t-30.5 -33.5q28 -14 42.5 -35t14.5 -48q0 -49 -37 -79t-96 -30q-39 0 -73 13t-60 38
l47 67q23 -18 44 -26.5t41 -8.5q18 0 30 10t12 25zM679 685l-426 -685h-104l427 685h103zM670 360h83v-208h50v-79h-50v-73h-83v73h-160v68zM597 152h73v101z" />
    <glyph glyph-name="questiondown" unicode="&#xbf;" horiz-adv-x="491" 
d="M252 310q-34 0 -57.5 24t-23.5 58q0 33 24 57t57 24t57 -24t24 -57q0 -34 -24 -58t-57 -24zM392 -53l79 -78q-41 -50 -94.5 -75t-117.5 -25q-94 0 -156 56t-62 141q0 67 40.5 117t108.5 68v97h123v-168l-41 -7q-46 -7 -75 -35t-29 -67q0 -40 27 -65.5t71 -25.5
q35 0 66 16.5t60 50.5z" />
    <glyph glyph-name="Agrave" unicode="&#xc0;" horiz-adv-x="707" 
d="M695 0h-142l-55 141h-296l-55 -141h-135l274 685h135zM350 523l-102 -264h204zM290 953l184 -138l-45 -71l-199 110z" />
    <glyph glyph-name="Aacute" unicode="&#xc1;" horiz-adv-x="707" 
d="M695 0h-142l-55 141h-296l-55 -141h-135l274 685h135zM350 523l-102 -264h204zM288 744l-45 71l184 138l60 -99z" />
    <glyph glyph-name="Acircumflex" unicode="&#xc2;" horiz-adv-x="707" 
d="M695 0h-142l-55 141h-296l-55 -141h-135l274 685h135zM350 523l-102 -264h204zM357 949l169 -144l-53 -64l-118 86l-115 -86l-53 64z" />
    <glyph glyph-name="Atilde" unicode="&#xc3;" horiz-adv-x="707" 
d="M695 0h-142l-55 141h-296l-55 -141h-135l274 685h135zM350 523l-102 -264h204zM450 912l78 -36q-23 -57 -48.5 -82t-61.5 -25q-15 0 -29.5 4.5t-39.5 17.5q-18 9 -26.5 12t-16.5 3q-15 0 -24.5 -9.5t-19.5 -32.5l-78 36q21 54 47.5 79t62.5 25q15 0 29.5 -4t39.5 -17
q18 -9 27 -12t17 -3q14 0 23.5 10t19.5 34z" />
    <glyph glyph-name="Adieresis" unicode="&#xc4;" horiz-adv-x="707" 
d="M695 0h-142l-55 141h-296l-55 -141h-135l274 685h135zM350 523l-102 -264h204zM259 903q28 0 48.5 -20.5t20.5 -48.5t-20.5 -49t-48.5 -21t-49.5 21t-21.5 49t21 48.5t50 20.5zM454 903q29 0 50 -20.5t21 -48.5t-21 -49t-50 -21q-28 0 -48.5 21t-20.5 49t20.5 48.5
t48.5 20.5z" />
    <glyph glyph-name="Aring" unicode="&#xc5;" horiz-adv-x="707" 
d="M695 0h-142l-55 141h-296l-55 -141h-135l274 685h135zM350 523l-102 -264h204zM357 733q-50 0 -84.5 33.5t-34.5 81.5t34.5 81.5t84.5 33.5q49 0 83.5 -33.5t34.5 -81.5t-34.5 -81.5t-83.5 -33.5zM357 801q19 0 32 13.5t13 33.5t-13 33.5t-32 13.5q-20 0 -33 -13t-13 -34
t13 -34t33 -13z" />
    <glyph glyph-name="AE" unicode="&#xc6;" horiz-adv-x="908" 
d="M646 122h212v-122h-305l-55 141h-296l-55 -141h-135l274 685h572v-122h-388l61 -152h300v-122h-252zM350 523l-102 -264h204z" />
    <glyph glyph-name="Ccedilla" unicode="&#xc7;" horiz-adv-x="668" 
d="M486 -126q0 -42 -31 -67t-83 -25q-28 0 -50.5 5t-48.5 16l22 66q19 -9 32.5 -12.5t25.5 -3.5q14 0 22.5 7t8.5 18q0 13 -8 19t-24 6l-38 40l16 52q-128 21 -208.5 117.5t-80.5 229.5q0 151 100 252t249 101q70 0 133 -27t114 -79l-84 -92q-36 36 -76.5 54t-86.5 18
q-89 0 -148.5 -65t-59.5 -162t59.5 -161.5t148.5 -64.5q49 0 90 19.5t81 61.5l86 -92q-53 -55 -113.5 -83.5t-129.5 -31.5l-9 -29q42 -4 66.5 -27t24.5 -60z" />
    <glyph glyph-name="Egrave" unicode="&#xc8;" horiz-adv-x="564" 
d="M514 0h-431v685h431v-122h-294v-152h268v-122h-268v-167h294v-122zM224 953l184 -138l-45 -71l-199 110z" />
    <glyph glyph-name="Eacute" unicode="&#xc9;" horiz-adv-x="564" 
d="M514 0h-431v685h431v-122h-294v-152h268v-122h-268v-167h294v-122zM219 744l-45 71l184 138l60 -99z" />
    <glyph glyph-name="Ecircumflex" unicode="&#xca;" horiz-adv-x="564" 
d="M514 0h-431v685h431v-122h-294v-152h268v-122h-268v-167h294v-122zM286 949l169 -144l-53 -64l-118 86l-115 -86l-53 64z" />
    <glyph glyph-name="Edieresis" unicode="&#xcb;" horiz-adv-x="564" 
d="M514 0h-431v685h431v-122h-294v-152h268v-122h-268v-167h294v-122zM189 903q28 0 48.5 -20.5t20.5 -48.5t-20.5 -49t-48.5 -21t-49.5 21t-21.5 49t21 48.5t50 20.5zM384 903q29 0 50 -20.5t21 -48.5t-21 -49t-50 -21q-28 0 -48.5 21t-20.5 49t20.5 48.5t48.5 20.5z" />
    <glyph glyph-name="Igrave" unicode="&#xcc;" horiz-adv-x="303" 
d="M220 0h-137v685h137v-685zM91 953l184 -138l-45 -71l-199 110z" />
    <glyph glyph-name="Iacute" unicode="&#xcd;" horiz-adv-x="303" 
d="M220 0h-137v685h137v-685zM78 744l-45 71l184 138l60 -99z" />
    <glyph glyph-name="Icircumflex" unicode="&#xce;" horiz-adv-x="303" 
d="M220 0h-137v685h137v-685zM152 949l169 -144l-53 -64l-118 86l-115 -86l-53 64z" />
    <glyph glyph-name="Idieresis" unicode="&#xcf;" horiz-adv-x="303" 
d="M220 0h-137v685h137v-685zM54 903q28 0 48.5 -20.5t20.5 -48.5t-20.5 -49t-48.5 -21t-49.5 21t-21.5 49t21 48.5t50 20.5zM249 903q29 0 50 -20.5t21 -48.5t-21 -49t-50 -21q-28 0 -48.5 21t-20.5 49t20.5 48.5t48.5 20.5z" />
    <glyph glyph-name="Eth" unicode="&#xd0;" horiz-adv-x="737" 
d="M18 281v122h96v282h193q182 0 285.5 -91t103.5 -252q0 -160 -103.5 -251t-285.5 -91h-193v281h-96zM398 403v-122h-147v-157h61q116 0 179.5 57t63.5 161q0 105 -63 161.5t-180 56.5h-61v-157h147z" />
    <glyph glyph-name="Ntilde" unicode="&#xd1;" horiz-adv-x="732" 
d="M649 0h-132l-304 460v-460h-130v685h132l304 -462v462h130v-685zM459 912l78 -36q-23 -57 -48.5 -82t-61.5 -25q-15 0 -29.5 4.5t-39.5 17.5q-18 9 -26.5 12t-16.5 3q-15 0 -24.5 -9.5t-19.5 -32.5l-78 36q21 54 47.5 79t62.5 25q15 0 29.5 -4t39.5 -17q18 -9 27 -12
t17 -3q14 0 23.5 10t19.5 34z" />
    <glyph glyph-name="Ograve" unicode="&#xd2;" horiz-adv-x="780" 
d="M390 -10q-149 0 -249 100.5t-100 251.5t100 252t249 101t249 -101t100 -252t-100 -251.5t-249 -100.5zM390 116q89 0 148.5 64.5t59.5 161.5t-59.5 162t-148.5 65t-148.5 -65t-59.5 -162t59.5 -161.5t148.5 -64.5zM325 953l184 -138l-45 -71l-199 110z" />
    <glyph glyph-name="Oacute" unicode="&#xd3;" horiz-adv-x="780" 
d="M390 -10q-149 0 -249 100.5t-100 251.5t100 252t249 101t249 -101t100 -252t-100 -251.5t-249 -100.5zM390 116q89 0 148.5 64.5t59.5 161.5t-59.5 162t-148.5 65t-148.5 -65t-59.5 -162t59.5 -161.5t148.5 -64.5zM314 744l-45 71l184 138l60 -99z" />
    <glyph glyph-name="Ocircumflex" unicode="&#xd4;" horiz-adv-x="780" 
d="M390 -10q-149 0 -249 100.5t-100 251.5t100 252t249 101t249 -101t100 -252t-100 -251.5t-249 -100.5zM390 116q89 0 148.5 64.5t59.5 161.5t-59.5 162t-148.5 65t-148.5 -65t-59.5 -162t59.5 -161.5t148.5 -64.5zM390 949l169 -144l-53 -64l-118 86l-115 -86l-53 64z
" />
    <glyph glyph-name="Otilde" unicode="&#xd5;" horiz-adv-x="780" 
d="M390 -10q-149 0 -249 100.5t-100 251.5t100 252t249 101t249 -101t100 -252t-100 -251.5t-249 -100.5zM390 116q89 0 148.5 64.5t59.5 161.5t-59.5 162t-148.5 65t-148.5 -65t-59.5 -162t59.5 -161.5t148.5 -64.5zM483 912l78 -36q-23 -57 -48.5 -82t-61.5 -25
q-15 0 -29.5 4.5t-39.5 17.5q-18 9 -26.5 12t-16.5 3q-15 0 -24.5 -9.5t-19.5 -32.5l-78 36q21 54 47.5 79t62.5 25q15 0 29.5 -4t39.5 -17q18 -9 27 -12t17 -3q14 0 23.5 10t19.5 34z" />
    <glyph glyph-name="Odieresis" unicode="&#xd6;" horiz-adv-x="780" 
d="M390 -10q-149 0 -249 100.5t-100 251.5t100 252t249 101t249 -101t100 -252t-100 -251.5t-249 -100.5zM390 116q89 0 148.5 64.5t59.5 161.5t-59.5 162t-148.5 65t-148.5 -65t-59.5 -162t59.5 -161.5t148.5 -64.5zM292 903q28 0 48.5 -20.5t20.5 -48.5t-20.5 -49
t-48.5 -21t-49.5 21t-21.5 49t21 48.5t50 20.5zM487 903q29 0 50 -20.5t21 -48.5t-21 -49t-50 -21q-28 0 -48.5 21t-20.5 49t20.5 48.5t48.5 20.5z" />
    <glyph glyph-name="multiply" unicode="&#xd7;" horiz-adv-x="500" 
d="M330 334l139 -139l-80 -80l-139 139l-140 -139l-80 80l139 139l-140 140l81 80l140 -139l139 139l81 -80z" />
    <glyph glyph-name="Oslash" unicode="&#xd8;" horiz-adv-x="780" 
d="M739 342q0 -151 -100 -251.5t-249 -100.5q-52 0 -100.5 13.5t-89.5 39.5l-69 -76l-89 79l70 78q-35 46 -53 101.5t-18 116.5q0 151 100 252t249 101q52 0 100.5 -13.5t89.5 -39.5l69 76l89 -80l-70 -77q35 -46 53 -102t18 -117zM390 569q-89 0 -148.5 -65t-59.5 -162
q0 -31 6.5 -59.5t19.5 -53.5l283 314q-23 13 -48.5 19.5t-52.5 6.5zM390 116q89 0 148.5 64.5t59.5 161.5q0 31 -6.5 59.5t-19.5 53.5l-283 -313q23 -13 48.5 -19.5t52.5 -6.5z" />
    <glyph glyph-name="Ugrave" unicode="&#xd9;" horiz-adv-x="680" 
d="M611 685v-412q0 -130 -73 -206.5t-198 -76.5t-198 76t-73 207v412h137v-410q0 -76 35 -118t99 -42q63 0 98.5 42.5t35.5 117.5v410h137zM263 953l184 -138l-45 -71l-199 110z" />
    <glyph glyph-name="Uacute" unicode="&#xda;" horiz-adv-x="680" 
d="M611 685v-412q0 -130 -73 -206.5t-198 -76.5t-198 76t-73 207v412h137v-410q0 -76 35 -118t99 -42q63 0 98.5 42.5t35.5 117.5v410h137zM284 744l-45 71l184 138l60 -99z" />
    <glyph glyph-name="Ucircumflex" unicode="&#xdb;" horiz-adv-x="680" 
d="M611 685v-412q0 -130 -73 -206.5t-198 -76.5t-198 76t-73 207v412h137v-410q0 -76 35 -118t99 -42q63 0 98.5 42.5t35.5 117.5v410h137zM340 949l169 -144l-53 -64l-118 86l-115 -86l-53 64z" />
    <glyph glyph-name="Udieresis" unicode="&#xdc;" horiz-adv-x="680" 
d="M611 685v-412q0 -130 -73 -206.5t-198 -76.5t-198 76t-73 207v412h137v-410q0 -76 35 -118t99 -42q63 0 98.5 42.5t35.5 117.5v410h137zM242 903q28 0 48.5 -20.5t20.5 -48.5t-20.5 -49t-48.5 -21t-49.5 21t-21.5 49t21 48.5t50 20.5zM437 903q29 0 50 -20.5t21 -48.5
t-21 -49t-50 -21q-28 0 -48.5 21t-20.5 49t20.5 48.5t48.5 20.5z" />
    <glyph glyph-name="Yacute" unicode="&#xdd;" horiz-adv-x="634" 
d="M480 685h144l-238 -402v-283h-137v283l-239 402h153l159 -270zM270 744l-45 71l184 138l60 -99z" />
    <glyph glyph-name="Thorn" unicode="&#xde;" horiz-adv-x="599" 
d="M561 341q0 -102 -71 -162.5t-191 -60.5h-79v-118h-137v685h137v-121h79q122 0 192 -59.5t70 -163.5zM423 341q0 48 -32.5 74.5t-90.5 26.5h-80v-202h80q59 0 91 26.5t32 74.5z" />
    <glyph glyph-name="germandbls" unicode="&#xdf;" horiz-adv-x="672" 
d="M470 412q83 -19 126 -71.5t43 -134.5q0 -93 -59.5 -154.5t-149.5 -61.5q-42 0 -76 10.5t-68 34.5l47 96q20 -14 40 -21t38 -7q42 0 67.5 28.5t25.5 76.5q0 55 -36.5 88t-98.5 35l-29 86q26 20 38 43.5t12 54.5q0 36 -24.5 58.5t-63.5 22.5q-38 0 -63 -20.5t-25 -51.5
q0 -16 4.5 -33t14.5 -36l14 -27v-428h-133v345h-98v109l87 5l-2 4q-9 20 -14.5 43t-5.5 41q0 75 61 121.5t160 46.5q96 0 155.5 -49t59.5 -128q0 -38 -11.5 -69.5t-35.5 -56.5z" />
    <glyph glyph-name="agrave" unicode="&#xe0;" horiz-adv-x="585" 
d="M519 0h-117l-15 62q-25 -35 -61 -53.5t-77 -18.5q-92 0 -153.5 68.5t-61.5 170.5q0 103 61.5 171.5t153.5 68.5q42 0 77.5 -18.5t60.5 -53.5l15 62h117v-459zM164 229q0 -52 32.5 -86.5t81.5 -34.5t81.5 34.5t32.5 86.5q0 53 -32.5 87.5t-81.5 34.5t-81.5 -34.5
t-32.5 -87.5zM222 728l184 -138l-45 -71l-199 110z" />
    <glyph glyph-name="aacute" unicode="&#xe1;" horiz-adv-x="585" 
d="M519 0h-117l-15 62q-25 -35 -61 -53.5t-77 -18.5q-92 0 -153.5 68.5t-61.5 170.5q0 103 61.5 171.5t153.5 68.5q42 0 77.5 -18.5t60.5 -53.5l15 62h117v-459zM164 229q0 -52 32.5 -86.5t81.5 -34.5t81.5 34.5t32.5 86.5q0 53 -32.5 87.5t-81.5 34.5t-81.5 -34.5
t-32.5 -87.5zM224 519l-45 71l184 138l60 -99z" />
    <glyph glyph-name="acircumflex" unicode="&#xe2;" horiz-adv-x="585" 
d="M519 0h-117l-15 62q-25 -35 -61 -53.5t-77 -18.5q-92 0 -153.5 68.5t-61.5 170.5q0 103 61.5 171.5t153.5 68.5q42 0 77.5 -18.5t60.5 -53.5l15 62h117v-459zM164 229q0 -52 32.5 -86.5t81.5 -34.5t81.5 34.5t32.5 86.5q0 53 -32.5 87.5t-81.5 34.5t-81.5 -34.5
t-32.5 -87.5zM290 724l169 -144l-53 -64l-118 86l-115 -86l-53 64z" />
    <glyph glyph-name="atilde" unicode="&#xe3;" horiz-adv-x="585" 
d="M519 0h-117l-15 62q-25 -35 -61 -53.5t-77 -18.5q-92 0 -153.5 68.5t-61.5 170.5q0 103 61.5 171.5t153.5 68.5q42 0 77.5 -18.5t60.5 -53.5l15 62h117v-459zM164 229q0 -52 32.5 -86.5t81.5 -34.5t81.5 34.5t32.5 86.5q0 53 -32.5 87.5t-81.5 34.5t-81.5 -34.5
t-32.5 -87.5zM384 687l78 -36q-23 -57 -48.5 -82t-61.5 -25q-15 0 -29.5 4.5t-39.5 17.5q-18 9 -26.5 12t-16.5 3q-15 0 -24.5 -9.5t-19.5 -32.5l-78 36q21 54 47.5 79t62.5 25q15 0 29.5 -4t39.5 -17q18 -9 27 -12t17 -3q14 0 23.5 10t19.5 34z" />
    <glyph glyph-name="adieresis" unicode="&#xe4;" horiz-adv-x="585" 
d="M519 0h-117l-15 62q-25 -35 -61 -53.5t-77 -18.5q-92 0 -153.5 68.5t-61.5 170.5q0 103 61.5 171.5t153.5 68.5q42 0 77.5 -18.5t60.5 -53.5l15 62h117v-459zM164 229q0 -52 32.5 -86.5t81.5 -34.5t81.5 34.5t32.5 86.5q0 53 -32.5 87.5t-81.5 34.5t-81.5 -34.5
t-32.5 -87.5zM192 678q28 0 48.5 -20.5t20.5 -48.5t-20.5 -49t-48.5 -21t-49.5 21t-21.5 49t21 48.5t50 20.5zM387 678q29 0 50 -20.5t21 -48.5t-21 -49t-50 -21q-28 0 -48.5 21t-20.5 49t20.5 48.5t48.5 20.5z" />
    <glyph glyph-name="aring" unicode="&#xe5;" horiz-adv-x="585" 
d="M519 0h-117l-15 62q-25 -35 -61 -53.5t-77 -18.5q-92 0 -153.5 68.5t-61.5 170.5q0 103 61.5 171.5t153.5 68.5q42 0 77.5 -18.5t60.5 -53.5l15 62h117v-459zM164 229q0 -52 32.5 -86.5t81.5 -34.5t81.5 34.5t32.5 86.5q0 53 -32.5 87.5t-81.5 34.5t-81.5 -34.5
t-32.5 -87.5zM281 508q-50 0 -84.5 33.5t-34.5 81.5t34.5 81.5t84.5 33.5q49 0 83.5 -33.5t34.5 -81.5t-34.5 -81.5t-83.5 -33.5zM281 576q19 0 32 13.5t13 33.5t-13 33.5t-32 13.5q-20 0 -33 -13t-13 -34t13 -34t33 -13z" />
    <glyph glyph-name="ae" unicode="&#xe6;" horiz-adv-x="912" 
d="M779 147l65 -84q-36 -36 -80.5 -54.5t-95.5 -18.5q-49 0 -91 19.5t-72 56.5l-14 -66h-89l-14 65q-25 -36 -61 -55.5t-78 -19.5q-92 0 -153.5 68.5t-61.5 170.5q0 103 61.5 171.5t153.5 68.5q42 0 78 -19.5t61 -55.5l14 65h89l14 -63q29 36 68 54.5t85 18.5
q95 0 159.5 -69t64.5 -171q0 -15 -1 -27t-2 -17h-342q14 -41 46 -65t75 -24q35 0 63.5 12t57.5 39zM648 363q-37 0 -65.5 -22.5t-43.5 -61.5h218q-15 39 -43.5 61.5t-65.5 22.5zM165 229q0 -52 32 -86.5t81 -34.5t81.5 34t32.5 87t-32.5 87.5t-81.5 34.5t-81 -34.5
t-32 -87.5z" />
    <glyph glyph-name="ccedilla" unicode="&#xe7;" horiz-adv-x="479" 
d="M373 -126q0 -42 -31 -67t-83 -25q-28 0 -50.5 5t-48.5 16l22 66q19 -9 32.5 -12.5t25.5 -3.5q14 0 22.5 7t8.5 18q0 13 -8 19t-24 6l-38 40l16 54q-82 18 -132.5 82t-50.5 150q0 104 69 172t175 68q48 0 92.5 -18.5t81.5 -52.5l-85 -86q-21 20 -43 29.5t-46 9.5
q-49 0 -81.5 -34.5t-32.5 -87.5q0 -52 32.5 -86.5t81.5 -34.5q27 0 51.5 11.5t47.5 34.5l85 -86q-36 -37 -78 -56.5t-93 -21.5l-9 -29q42 -4 66.5 -27t24.5 -60z" />
    <glyph glyph-name="egrave" unicode="&#xe8;" horiz-adv-x="532" 
d="M399 147l65 -84q-36 -36 -83.5 -54.5t-102.5 -18.5q-105 0 -174.5 68t-69.5 171q0 102 67 171t167 69t167 -69t67 -171q0 -14 -1 -26t-2 -18h-341q12 -41 44 -65t76 -24q35 0 63.5 12t57.5 39zM268 363q-38 0 -67 -22.5t-41 -61.5h216q-12 39 -40.5 61.5t-67.5 22.5z
M192 728l184 -138l-45 -71l-199 110z" />
    <glyph glyph-name="eacute" unicode="&#xe9;" horiz-adv-x="532" 
d="M399 147l65 -84q-36 -36 -83.5 -54.5t-102.5 -18.5q-105 0 -174.5 68t-69.5 171q0 102 67 171t167 69t167 -69t67 -171q0 -14 -1 -26t-2 -18h-341q12 -41 44 -65t76 -24q35 0 63.5 12t57.5 39zM268 363q-38 0 -67 -22.5t-41 -61.5h216q-12 39 -40.5 61.5t-67.5 22.5z
M193 519l-45 71l184 138l60 -99z" />
    <glyph glyph-name="ecircumflex" unicode="&#xea;" horiz-adv-x="532" 
d="M399 147l65 -84q-36 -36 -83.5 -54.5t-102.5 -18.5q-105 0 -174.5 68t-69.5 171q0 102 67 171t167 69t167 -69t67 -171q0 -14 -1 -26t-2 -18h-341q12 -41 44 -65t76 -24q35 0 63.5 12t57.5 39zM268 363q-38 0 -67 -22.5t-41 -61.5h216q-12 39 -40.5 61.5t-67.5 22.5z
M266 724l169 -144l-53 -64l-118 86l-115 -86l-53 64z" />
    <glyph glyph-name="edieresis" unicode="&#xeb;" horiz-adv-x="532" 
d="M399 147l65 -84q-36 -36 -83.5 -54.5t-102.5 -18.5q-105 0 -174.5 68t-69.5 171q0 102 67 171t167 69t167 -69t67 -171q0 -14 -1 -26t-2 -18h-341q12 -41 44 -65t76 -24q35 0 63.5 12t57.5 39zM268 363q-38 0 -67 -22.5t-41 -61.5h216q-12 39 -40.5 61.5t-67.5 22.5z
M168 678q28 0 48.5 -20.5t20.5 -48.5t-20.5 -49t-48.5 -21t-49.5 21t-21.5 49t21 48.5t50 20.5zM363 678q29 0 50 -20.5t21 -48.5t-21 -49t-50 -21q-28 0 -48.5 21t-20.5 49t20.5 48.5t48.5 20.5z" />
    <glyph glyph-name="igrave" unicode="&#xec;" horiz-adv-x="265" 
d="M66 459h133v-459h-133v459zM71 728l184 -138l-45 -71l-199 110z" />
    <glyph glyph-name="iacute" unicode="&#xed;" horiz-adv-x="265" 
d="M66 459h133v-459h-133v459zM57 519l-45 71l184 138l60 -99z" />
    <glyph glyph-name="icircumflex" unicode="&#xee;" horiz-adv-x="265" 
d="M66 459h133v-459h-133v459zM133 724l169 -144l-53 -64l-118 86l-115 -86l-53 64z" />
    <glyph glyph-name="idieresis" unicode="&#xef;" horiz-adv-x="265" 
d="M66 459h133v-459h-133v459zM35 678q28 0 48.5 -20.5t20.5 -48.5t-20.5 -49t-48.5 -21t-49.5 21t-21.5 49t21 48.5t50 20.5zM230 678q29 0 50 -20.5t21 -48.5t-21 -49t-50 -21q-28 0 -48.5 21t-20.5 49t20.5 48.5t48.5 20.5z" />
    <glyph glyph-name="eth" unicode="&#xf0;" horiz-adv-x="557" 
d="M523 283q0 -136 -66.5 -214.5t-181.5 -78.5q-104 0 -172.5 66t-68.5 167q0 100 63 165t161 65q38 0 70 -12t60 -36q-11 40 -30 72t-46 57l-54 -61l-78 63l46 53q-20 8 -39 14.5t-39 10.5l27 91q32 -6 61.5 -15.5t57.5 -22.5l50 58l78 -64l-42 -48q70 -58 106.5 -142
t36.5 -188zM275 335q-47 0 -77 -31.5t-30 -80.5t30 -80.5t77 -31.5t77.5 32t30.5 81t-30.5 80t-77.5 31z" />
    <glyph glyph-name="ntilde" unicode="&#xf1;" horiz-adv-x="574" 
d="M299 348q-29 0 -54.5 -16.5t-45.5 -47.5v-284h-133v459h117l16 -66q27 36 64 56t77 20q82 0 129 -53.5t47 -147.5v-268h-133v249q0 47 -22 73t-62 26zM383 687l78 -36q-23 -57 -48.5 -82t-61.5 -25q-15 0 -29.5 4.5t-39.5 17.5q-18 9 -26.5 12t-16.5 3q-15 0 -24.5 -9.5
t-19.5 -32.5l-78 36q21 54 47.5 79t62.5 25q15 0 29.5 -4t39.5 -17q18 -9 27 -12t17 -3q14 0 23.5 10t19.5 34z" />
    <glyph glyph-name="ograve" unicode="&#xf2;" horiz-adv-x="556" 
d="M278 469q106 0 175 -68t69 -172q0 -103 -69.5 -171t-174.5 -68t-174.5 68t-69.5 171q0 104 69 172t175 68zM278 351q-49 0 -81.5 -34.5t-32.5 -87.5q0 -52 32.5 -86.5t81.5 -34.5t81.5 34.5t32.5 86.5q0 53 -32.5 87.5t-81.5 34.5zM210 728l184 -138l-45 -71l-199 110z
" />
    <glyph glyph-name="oacute" unicode="&#xf3;" horiz-adv-x="556" 
d="M278 469q106 0 175 -68t69 -172q0 -103 -69.5 -171t-174.5 -68t-174.5 68t-69.5 171q0 104 69 172t175 68zM278 351q-49 0 -81.5 -34.5t-32.5 -87.5q0 -52 32.5 -86.5t81.5 -34.5t81.5 34.5t32.5 86.5q0 53 -32.5 87.5t-81.5 34.5zM202 519l-45 71l184 138l60 -99z" />
    <glyph glyph-name="ocircumflex" unicode="&#xf4;" horiz-adv-x="556" 
d="M278 469q106 0 175 -68t69 -172q0 -103 -69.5 -171t-174.5 -68t-174.5 68t-69.5 171q0 104 69 172t175 68zM278 351q-49 0 -81.5 -34.5t-32.5 -87.5q0 -52 32.5 -86.5t81.5 -34.5t81.5 34.5t32.5 86.5q0 53 -32.5 87.5t-81.5 34.5zM278 724l169 -144l-53 -64l-118 86
l-115 -86l-53 64z" />
    <glyph glyph-name="otilde" unicode="&#xf5;" horiz-adv-x="556" 
d="M278 469q106 0 175 -68t69 -172q0 -103 -69.5 -171t-174.5 -68t-174.5 68t-69.5 171q0 104 69 172t175 68zM278 351q-49 0 -81.5 -34.5t-32.5 -87.5q0 -52 32.5 -86.5t81.5 -34.5t81.5 34.5t32.5 86.5q0 53 -32.5 87.5t-81.5 34.5zM370 687l78 -36q-23 -57 -48.5 -82
t-61.5 -25q-15 0 -29.5 4.5t-39.5 17.5q-18 9 -26.5 12t-16.5 3q-15 0 -24.5 -9.5t-19.5 -32.5l-78 36q21 54 47.5 79t62.5 25q15 0 29.5 -4t39.5 -17q18 -9 27 -12t17 -3q14 0 23.5 10t19.5 34z" />
    <glyph glyph-name="odieresis" unicode="&#xf6;" horiz-adv-x="556" 
d="M278 469q106 0 175 -68t69 -172q0 -103 -69.5 -171t-174.5 -68t-174.5 68t-69.5 171q0 104 69 172t175 68zM278 351q-49 0 -81.5 -34.5t-32.5 -87.5q0 -52 32.5 -86.5t81.5 -34.5t81.5 34.5t32.5 86.5q0 53 -32.5 87.5t-81.5 34.5zM180 678q28 0 48.5 -20.5t20.5 -48.5
t-20.5 -49t-48.5 -21t-49.5 21t-21.5 49t21 48.5t50 20.5zM375 678q29 0 50 -20.5t21 -48.5t-21 -49t-50 -21q-28 0 -48.5 21t-20.5 49t20.5 48.5t48.5 20.5z" />
    <glyph glyph-name="divide" unicode="&#xf7;" horiz-adv-x="500" 
d="M250 607q32 0 55 -23.5t23 -55.5t-23 -55t-55 -23q-33 0 -56 23t-23 55q0 33 23 56t56 23zM473 391v-108h-447v108h447zM250 224q32 0 55 -23t23 -55t-23 -55.5t-55 -23.5q-33 0 -56 23t-23 56q0 32 23 55t56 23z" />
    <glyph glyph-name="oslash" unicode="&#xf8;" horiz-adv-x="556" 
d="M522 229q0 -103 -69.5 -171t-174.5 -68q-30 0 -58.5 6.5t-54.5 18.5l-57 -65l-90 75l58 65q-21 30 -31.5 65t-10.5 74q0 104 69 172t175 68q30 0 58.5 -6.5t54.5 -18.5l57 65l90 -76l-58 -65q21 -29 31.5 -64.5t10.5 -74.5zM278 361q-54 0 -89 -37.5t-35 -94.5
q0 -12 1.5 -22.5t4.5 -21.5l152 171q-8 2 -17 3.5t-17 1.5zM278 98q54 0 89 37t35 94q0 12 -1.5 22.5t-4.5 21.5l-152 -170q9 -3 17.5 -4t16.5 -1z" />
    <glyph glyph-name="ugrave" unicode="&#xf9;" horiz-adv-x="567" 
d="M501 0h-116l-16 62q-27 -34 -63.5 -53t-75.5 -19q-80 0 -126 52t-46 143v274h133v-254q0 -45 21 -69.5t59 -24.5q29 0 53.5 15.5t43.5 45.5v287h133v-459zM215 728l184 -138l-45 -71l-199 110z" />
    <glyph glyph-name="uacute" unicode="&#xfa;" horiz-adv-x="567" 
d="M501 0h-116l-16 62q-27 -34 -63.5 -53t-75.5 -19q-80 0 -126 52t-46 143v274h133v-254q0 -45 21 -69.5t59 -24.5q29 0 53.5 15.5t43.5 45.5v287h133v-459zM220 519l-45 71l184 138l60 -99z" />
    <glyph glyph-name="ucircumflex" unicode="&#xfb;" horiz-adv-x="567" 
d="M501 0h-116l-16 62q-27 -34 -63.5 -53t-75.5 -19q-80 0 -126 52t-46 143v274h133v-254q0 -45 21 -69.5t59 -24.5q29 0 53.5 15.5t43.5 45.5v287h133v-459zM283 724l169 -144l-53 -64l-118 86l-115 -86l-53 64z" />
    <glyph glyph-name="udieresis" unicode="&#xfc;" horiz-adv-x="567" 
d="M501 0h-116l-16 62q-27 -34 -63.5 -53t-75.5 -19q-80 0 -126 52t-46 143v274h133v-254q0 -45 21 -69.5t59 -24.5q29 0 53.5 15.5t43.5 45.5v287h133v-459zM185 678q28 0 48.5 -20.5t20.5 -48.5t-20.5 -49t-48.5 -21t-49.5 21t-21.5 49t21 48.5t50 20.5zM380 678
q29 0 50 -20.5t21 -48.5t-21 -49t-50 -21q-28 0 -48.5 21t-20.5 49t20.5 48.5t48.5 20.5z" />
    <glyph glyph-name="yacute" unicode="&#xfd;" horiz-adv-x="567" 
d="M534 13q0 -99 -77 -161t-200 -62q-64 0 -124.5 19.5t-114.5 56.5l61 99q40 -30 83.5 -45t88.5 -15q68 0 110.5 31.5t42.5 81.5q0 21 -4 38.5t-12 34.5q-26 -47 -68 -74t-90 -27q-80 0 -126 52t-46 143v274h133v-254q0 -45 21 -69.5t59 -24.5q29 0 53.5 15.5t43.5 45.5
v287h133v-308l6 -14q13 -30 20 -62t7 -62zM221 519l-45 71l184 138l60 -99z" />
    <glyph glyph-name="thorn" unicode="&#xfe;" horiz-adv-x="587" 
d="M551 229q0 -103 -61 -171t-154 -68q-41 0 -76 16.5t-61 47.5v-254h-133v905h133v-300q26 31 61 47.5t76 16.5q93 0 154 -68.5t61 -171.5zM306 351q-49 0 -81 -34.5t-32 -87.5q0 -52 32 -86.5t81 -34.5t81.5 34.5t32.5 86.5q0 53 -32.5 87.5t-81.5 34.5z" />
    <glyph glyph-name="ydieresis" unicode="&#xff;" horiz-adv-x="567" 
d="M534 13q0 -99 -77 -161t-200 -62q-64 0 -124.5 19.5t-114.5 56.5l61 99q40 -30 83.5 -45t88.5 -15q68 0 110.5 31.5t42.5 81.5q0 21 -4 38.5t-12 34.5q-26 -47 -68 -74t-90 -27q-80 0 -126 52t-46 143v274h133v-254q0 -45 21 -69.5t59 -24.5q29 0 53.5 15.5t43.5 45.5
v287h133v-308l6 -14q13 -30 20 -62t7 -62zM185 678q28 0 48.5 -20.5t20.5 -48.5t-20.5 -49t-48.5 -21t-49.5 21t-21.5 49t21 48.5t50 20.5zM380 678q29 0 50 -20.5t21 -48.5t-21 -49t-50 -21q-28 0 -48.5 21t-20.5 49t20.5 48.5t48.5 20.5z" />
    <glyph glyph-name="Amacron" unicode="&#x100;" horiz-adv-x="707" 
d="M695 0h-142l-55 141h-296l-55 -141h-135l274 685h135zM350 523l-102 -264h204zM219 876h275v-95h-275v95z" />
    <glyph glyph-name="amacron" unicode="&#x101;" horiz-adv-x="585" 
d="M519 0h-117l-15 62q-25 -35 -61 -53.5t-77 -18.5q-92 0 -153.5 68.5t-61.5 170.5q0 103 61.5 171.5t153.5 68.5q42 0 77.5 -18.5t60.5 -53.5l15 62h117v-459zM164 229q0 -52 32.5 -86.5t81.5 -34.5t81.5 34.5t32.5 86.5q0 53 -32.5 87.5t-81.5 34.5t-81.5 -34.5
t-32.5 -87.5zM153 651h275v-95h-275v95z" />
    <glyph glyph-name="Abreve" unicode="&#x102;" horiz-adv-x="707" 
d="M695 0h-142l-55 141h-296l-55 -141h-135l274 685h135zM350 523l-102 -264h204zM306 909v-10q0 -31 13.5 -47.5t37.5 -16.5t37 16.5t13 46.5v11h96v-21q0 -62 -41 -101.5t-105 -39.5q-65 0 -106 39.5t-41 102.5v20h96z" />
    <glyph glyph-name="abreve" unicode="&#x103;" horiz-adv-x="585" 
d="M519 0h-117l-15 62q-25 -35 -61 -53.5t-77 -18.5q-92 0 -153.5 68.5t-61.5 170.5q0 103 61.5 171.5t153.5 68.5q42 0 77.5 -18.5t60.5 -53.5l15 62h117v-459zM164 229q0 -52 32.5 -86.5t81.5 -34.5t81.5 34.5t32.5 86.5q0 53 -32.5 87.5t-81.5 34.5t-81.5 -34.5
t-32.5 -87.5zM240 684v-10q0 -31 13.5 -47.5t37.5 -16.5t37 16.5t13 46.5v11h96v-21q0 -62 -41 -101.5t-105 -39.5q-65 0 -106 39.5t-41 102.5v20h96z" />
    <glyph glyph-name="Aogonek" unicode="&#x104;" horiz-adv-x="707" 
d="M679 -118l29 -74q-19 -9 -37.5 -13.5t-36.5 -4.5q-51 0 -84 27t-33 70q0 32 19.5 61t55.5 52h-39l-55 141h-296l-55 -141h-135l274 685h135l274 -685q-36 -20 -56 -45t-20 -49q0 -14 8.5 -22t22.5 -8q8 0 15 1.5t14 4.5zM350 523l-102 -264h204z" />
    <glyph glyph-name="aogonek" unicode="&#x105;" horiz-adv-x="585" 
d="M503 -118l29 -74q-19 -9 -37.5 -13.5t-36.5 -4.5q-51 0 -84 27t-33 70q0 30 14.5 56.5t46.5 56.5l-15 62q-25 -35 -61 -53.5t-77 -18.5q-92 0 -153.5 68.5t-61.5 170.5q0 103 61.5 171.5t153.5 68.5q42 0 77.5 -18.5t60.5 -53.5l15 62h117v-459q-36 -20 -56 -45t-20 -49
q0 -14 8.5 -22t22.5 -8q8 0 15 1.5t14 4.5zM164 229q0 -52 32.5 -86.5t81.5 -34.5t81.5 34.5t32.5 86.5q0 53 -32.5 87.5t-81.5 34.5t-81.5 -34.5t-32.5 -87.5z" />
    <glyph glyph-name="Cacute" unicode="&#x106;" horiz-adv-x="668" 
d="M390 569q-89 0 -148.5 -65t-59.5 -162t59.5 -161.5t148.5 -64.5q49 0 90 19.5t81 61.5l86 -92q-56 -58 -120 -86.5t-137 -28.5q-149 0 -249 100.5t-100 251.5t100 252t249 101q70 0 133 -27t114 -79l-84 -92q-36 36 -76.5 54t-86.5 18zM300 744l-45 71l184 138l60 -99z
" />
    <glyph glyph-name="cacute" unicode="&#x107;" horiz-adv-x="479" 
d="M278 351q-49 0 -81.5 -34.5t-32.5 -87.5q0 -52 32.5 -86.5t81.5 -34.5q27 0 51.5 11.5t47.5 34.5l85 -86q-38 -40 -83.5 -59t-100.5 -19q-105 0 -174.5 68t-69.5 171q0 104 69 172t175 68q48 0 92.5 -18.5t81.5 -52.5l-85 -86q-21 20 -43 29.5t-46 9.5zM187 519l-45 71
l184 138l60 -99z" />
    <glyph glyph-name="Ccircumflex" unicode="&#x108;" horiz-adv-x="668" 
d="M390 569q-89 0 -148.5 -65t-59.5 -162t59.5 -161.5t148.5 -64.5q49 0 90 19.5t81 61.5l86 -92q-56 -58 -120 -86.5t-137 -28.5q-149 0 -249 100.5t-100 251.5t100 252t249 101q70 0 133 -27t114 -79l-84 -92q-36 36 -76.5 54t-86.5 18zM374 949l169 -144l-53 -64l-118 86
l-115 -86l-53 64z" />
    <glyph glyph-name="ccircumflex" unicode="&#x109;" horiz-adv-x="479" 
d="M278 351q-49 0 -81.5 -34.5t-32.5 -87.5q0 -52 32.5 -86.5t81.5 -34.5q27 0 51.5 11.5t47.5 34.5l85 -86q-38 -40 -83.5 -59t-100.5 -19q-105 0 -174.5 68t-69.5 171q0 104 69 172t175 68q48 0 92.5 -18.5t81.5 -52.5l-85 -86q-21 20 -43 29.5t-46 9.5zM266 724l169 -144
l-53 -64l-118 86l-115 -86l-53 64z" />
    <glyph glyph-name="Cdotaccent" unicode="&#x10a;" horiz-adv-x="668" 
d="M390 569q-89 0 -148.5 -65t-59.5 -162t59.5 -161.5t148.5 -64.5q49 0 90 19.5t81 61.5l86 -92q-56 -58 -120 -86.5t-137 -28.5q-149 0 -249 100.5t-100 251.5t100 252t249 101q70 0 133 -27t114 -79l-84 -92q-36 36 -76.5 54t-86.5 18zM375 915q31 0 54 -23.5t23 -54.5
t-23 -54.5t-54 -23.5t-54.5 23.5t-23.5 54.5t23.5 54.5t54.5 23.5z" />
    <glyph glyph-name="cdotaccent" unicode="&#x10b;" horiz-adv-x="479" 
d="M278 351q-49 0 -81.5 -34.5t-32.5 -87.5q0 -52 32.5 -86.5t81.5 -34.5q27 0 51.5 11.5t47.5 34.5l85 -86q-38 -40 -83.5 -59t-100.5 -19q-105 0 -174.5 68t-69.5 171q0 104 69 172t175 68q48 0 92.5 -18.5t81.5 -52.5l-85 -86q-21 20 -43 29.5t-46 9.5zM267 690
q31 0 54 -23.5t23 -54.5t-23 -54.5t-54 -23.5t-54.5 23.5t-23.5 54.5t23.5 54.5t54.5 23.5z" />
    <glyph glyph-name="Ccaron" unicode="&#x10c;" horiz-adv-x="668" 
d="M390 569q-89 0 -148.5 -65t-59.5 -162t59.5 -161.5t148.5 -64.5q49 0 90 19.5t81 61.5l86 -92q-56 -58 -120 -86.5t-137 -28.5q-149 0 -249 100.5t-100 251.5t100 252t249 101q70 0 133 -27t114 -79l-84 -92q-36 36 -76.5 54t-86.5 18zM490 949l53 -64l-169 -144
l-170 144l53 64l118 -86z" />
    <glyph glyph-name="ccaron" unicode="&#x10d;" horiz-adv-x="479" 
d="M278 351q-49 0 -81.5 -34.5t-32.5 -87.5q0 -52 32.5 -86.5t81.5 -34.5q27 0 51.5 11.5t47.5 34.5l85 -86q-38 -40 -83.5 -59t-100.5 -19q-105 0 -174.5 68t-69.5 171q0 104 69 172t175 68q48 0 92.5 -18.5t81.5 -52.5l-85 -86q-21 20 -43 29.5t-46 9.5zM384 724l53 -64
l-169 -144l-170 144l53 64l118 -86z" />
    <glyph glyph-name="Dcaron" unicode="&#x10e;" horiz-adv-x="706" 
d="M276 0h-193v685h193q182 0 285.5 -91t103.5 -252q0 -160 -103.5 -251t-285.5 -91zM524 342q0 105 -63 161.5t-180 56.5h-61v-436h61q116 0 179.5 57t63.5 161zM447 949l53 -64l-169 -144l-170 144l53 64l118 -86z" />
    <glyph glyph-name="dcaron" unicode="&#x10f;" horiz-adv-x="680" 
d="M519 0h-117l-15 62q-25 -35 -61 -53.5t-77 -18.5q-92 0 -153.5 68.5t-61.5 170.5q0 103 61.5 171.5t153.5 68.5q42 0 77 -18t60 -53v307h133v-705zM164 229q0 -52 32.5 -86.5t81.5 -34.5t81.5 34.5t32.5 86.5q0 53 -32.5 87.5t-81.5 34.5t-81.5 -34.5t-32.5 -87.5z
M691 705l-17 -191h-94v191h111z" />
    <glyph glyph-name="Dcroat" unicode="&#x110;" horiz-adv-x="737" 
d="M18 281v122h96v282h193q182 0 285.5 -91t103.5 -252q0 -160 -103.5 -251t-285.5 -91h-193v281h-96zM398 403v-122h-147v-157h61q116 0 179.5 57t63.5 161q0 105 -63 161.5t-180 56.5h-61v-157h147z" />
    <glyph glyph-name="dcroat" unicode="&#x111;" horiz-adv-x="600" 
d="M519 0h-117l-15 62q-25 -35 -61 -53.5t-77 -18.5q-92 0 -153.5 68.5t-61.5 170.5q0 103 61.5 171.5t153.5 68.5q42 0 77 -18t60 -53v132h-147v102h147v73h133v-73h76v-102h-76v-530zM164 229q0 -52 32.5 -86.5t81.5 -34.5t81.5 34.5t32.5 86.5q0 53 -32.5 87.5
t-81.5 34.5t-81.5 -34.5t-32.5 -87.5z" />
    <glyph glyph-name="Emacron" unicode="&#x112;" horiz-adv-x="564" 
d="M514 0h-431v685h431v-122h-294v-152h268v-122h-268v-167h294v-122zM149 876h275v-95h-275v95z" />
    <glyph glyph-name="emacron" unicode="&#x113;" horiz-adv-x="532" 
d="M399 147l65 -84q-36 -36 -83.5 -54.5t-102.5 -18.5q-105 0 -174.5 68t-69.5 171q0 102 67 171t167 69t167 -69t67 -171q0 -14 -1 -26t-2 -18h-341q12 -41 44 -65t76 -24q35 0 63.5 12t57.5 39zM268 363q-38 0 -67 -22.5t-41 -61.5h216q-12 39 -40.5 61.5t-67.5 22.5z
M128 651h275v-95h-275v95z" />
    <glyph glyph-name="Ebreve" unicode="&#x114;" horiz-adv-x="564" 
d="M514 0h-431v685h431v-122h-294v-152h268v-122h-268v-167h294v-122zM236 909v-10q0 -31 13.5 -47.5t37.5 -16.5t37 16.5t13 46.5v11h96v-21q0 -62 -41 -101.5t-105 -39.5q-65 0 -106 39.5t-41 102.5v20h96z" />
    <glyph glyph-name="ebreve" unicode="&#x115;" horiz-adv-x="532" 
d="M399 147l65 -84q-36 -36 -83.5 -54.5t-102.5 -18.5q-105 0 -174.5 68t-69.5 171q0 102 67 171t167 69t167 -69t67 -171q0 -14 -1 -26t-2 -18h-341q12 -41 44 -65t76 -24q35 0 63.5 12t57.5 39zM268 363q-38 0 -67 -22.5t-41 -61.5h216q-12 39 -40.5 61.5t-67.5 22.5z
M215 684v-10q0 -31 13.5 -47.5t37.5 -16.5t37 16.5t13 46.5v11h96v-21q0 -62 -41 -101.5t-105 -39.5q-65 0 -106 39.5t-41 102.5v20h96z" />
    <glyph glyph-name="Edotaccent" unicode="&#x116;" horiz-adv-x="564" 
d="M514 0h-431v685h431v-122h-294v-152h268v-122h-268v-167h294v-122zM287 915q31 0 54 -23.5t23 -54.5t-23 -54.5t-54 -23.5t-54.5 23.5t-23.5 54.5t23.5 54.5t54.5 23.5z" />
    <glyph glyph-name="edotaccent" unicode="&#x117;" horiz-adv-x="532" 
d="M399 147l65 -84q-36 -36 -83.5 -54.5t-102.5 -18.5q-105 0 -174.5 68t-69.5 171q0 102 67 171t167 69t167 -69t67 -171q0 -14 -1 -26t-2 -18h-341q12 -41 44 -65t76 -24q35 0 63.5 12t57.5 39zM268 363q-38 0 -67 -22.5t-41 -61.5h216q-12 39 -40.5 61.5t-67.5 22.5z
M262 690q31 0 54 -23.5t23 -54.5t-23 -54.5t-54 -23.5t-54.5 23.5t-23.5 54.5t23.5 54.5t54.5 23.5z" />
    <glyph glyph-name="Eogonek" unicode="&#x118;" horiz-adv-x="564" 
d="M465 -118l29 -74q-19 -9 -37.5 -13.5t-36.5 -4.5q-51 0 -84 27t-33 70q0 32 19.5 61t55.5 52h-295v685h431v-122h-294v-152h268v-122h-268v-167h294v-122h-33q-36 -20 -56 -45t-20 -49q0 -14 8.5 -22t22.5 -8q8 0 15 1.5t14 4.5z" />
    <glyph glyph-name="eogonek" unicode="&#x119;" horiz-adv-x="532" 
d="M420 -118l29 -74q-19 -9 -37.5 -13.5t-36.5 -4.5q-51 0 -84 27t-33 70q0 26 14 54.5t39 50.5q-4 -1 -15 -1.5t-18 -0.5q-105 0 -174.5 68t-69.5 171q0 102 67 171t167 69t167 -69t67 -171q0 -15 -1 -26.5t-2 -17.5h-341q12 -41 44 -65t76 -24q35 0 63.5 12t57.5 39
l65 -84q-50 -50 -77 -91t-27 -66q0 -14 8.5 -22t22.5 -8q8 0 15 1.5t14 4.5zM268 363q-37 0 -66.5 -23t-41.5 -61h216q-12 38 -41.5 61t-66.5 23z" />
    <glyph glyph-name="Ecaron" unicode="&#x11a;" horiz-adv-x="564" 
d="M514 0h-431v685h431v-122h-294v-152h268v-122h-268v-167h294v-122zM403 949l53 -64l-169 -144l-170 144l53 64l118 -86z" />
    <glyph glyph-name="ecaron" unicode="&#x11b;" horiz-adv-x="532" 
d="M399 147l65 -84q-36 -36 -83.5 -54.5t-102.5 -18.5q-105 0 -174.5 68t-69.5 171q0 102 67 171t167 69t167 -69t67 -171q0 -14 -1 -26t-2 -18h-341q12 -41 44 -65t76 -24q35 0 63.5 12t57.5 39zM268 363q-38 0 -67 -22.5t-41 -61.5h216q-12 39 -40.5 61.5t-67.5 22.5z
M382 724l53 -64l-169 -144l-170 144l53 64l118 -86z" />
    <glyph glyph-name="Gcircumflex" unicode="&#x11c;" horiz-adv-x="750" 
d="M718 330q0 -145 -94 -242.5t-234 -97.5q-149 0 -249 100.5t-100 251.5t100 252t249 101q70 0 133 -27t114 -79l-84 -92q-36 36 -76.5 54t-86.5 18q-89 0 -148.5 -65t-59.5 -162t59.5 -161.5t148.5 -64.5q67 0 116 36.5t68 99.5h-199v122h341q1 -8 1.5 -20t0.5 -24z
M377 949l169 -144l-53 -64l-118 86l-115 -86l-53 64z" />
    <glyph glyph-name="gcircumflex" unicode="&#x11d;" horiz-adv-x="585" 
d="M552 13q0 -99 -77 -161t-200 -62q-64 0 -124.5 19.5t-114.5 56.5l61 99q40 -30 83.5 -45t88.5 -15q68 0 110.5 31.5t42.5 81.5q0 19 -5 34t-16 33q-25 -45 -64.5 -70t-87.5 -25q-92 0 -153.5 68.5t-61.5 170.5q0 103 61.5 171.5t153.5 68.5q41 0 76.5 -18.5t61.5 -53.5
l15 62h117v-328l7 -13q12 -23 19 -50.5t7 -54.5zM164 229q0 -53 32.5 -87t81.5 -34t81.5 34t32.5 87t-32.5 87.5t-81.5 34.5t-81.5 -34.5t-32.5 -87.5zM285 724l169 -144l-53 -64l-118 86l-115 -86l-53 64z" />
    <glyph glyph-name="Gbreve" unicode="&#x11e;" horiz-adv-x="750" 
d="M718 330q0 -145 -94 -242.5t-234 -97.5q-149 0 -249 100.5t-100 251.5t100 252t249 101q70 0 133 -27t114 -79l-84 -92q-36 36 -76.5 54t-86.5 18q-89 0 -148.5 -65t-59.5 -162t59.5 -161.5t148.5 -64.5q67 0 116 36.5t68 99.5h-199v122h341q1 -8 1.5 -20t0.5 -24z
M326 909v-10q0 -31 13.5 -47.5t37.5 -16.5t37 16.5t13 46.5v11h96v-21q0 -62 -41 -101.5t-105 -39.5q-65 0 -106 39.5t-41 102.5v20h96z" />
    <glyph glyph-name="gbreve" unicode="&#x11f;" horiz-adv-x="585" 
d="M552 13q0 -99 -77 -161t-200 -62q-64 0 -124.5 19.5t-114.5 56.5l61 99q40 -30 83.5 -45t88.5 -15q68 0 110.5 31.5t42.5 81.5q0 19 -5 34t-16 33q-25 -45 -64.5 -70t-87.5 -25q-92 0 -153.5 68.5t-61.5 170.5q0 103 61.5 171.5t153.5 68.5q41 0 76.5 -18.5t61.5 -53.5
l15 62h117v-328l7 -13q12 -23 19 -50.5t7 -54.5zM164 229q0 -53 32.5 -87t81.5 -34t81.5 34t32.5 87t-32.5 87.5t-81.5 34.5t-81.5 -34.5t-32.5 -87.5zM235 684v-10q0 -31 13.5 -47.5t37.5 -16.5t37 16.5t13 46.5v11h96v-21q0 -62 -41 -101.5t-105 -39.5q-65 0 -106 39.5
t-41 102.5v20h96z" />
    <glyph glyph-name="Gdotaccent" unicode="&#x120;" horiz-adv-x="750" 
d="M718 330q0 -145 -94 -242.5t-234 -97.5q-149 0 -249 100.5t-100 251.5t100 252t249 101q70 0 133 -27t114 -79l-84 -92q-36 36 -76.5 54t-86.5 18q-89 0 -148.5 -65t-59.5 -162t59.5 -161.5t148.5 -64.5q67 0 116 36.5t68 99.5h-199v122h341q1 -8 1.5 -20t0.5 -24z
M377 915q31 0 54 -23.5t23 -54.5t-23 -54.5t-54 -23.5t-54.5 23.5t-23.5 54.5t23.5 54.5t54.5 23.5z" />
    <glyph glyph-name="gdotaccent" unicode="&#x121;" horiz-adv-x="585" 
d="M552 13q0 -99 -77 -161t-200 -62q-64 0 -124.5 19.5t-114.5 56.5l61 99q40 -30 83.5 -45t88.5 -15q68 0 110.5 31.5t42.5 81.5q0 19 -5 34t-16 33q-25 -45 -64.5 -70t-87.5 -25q-92 0 -153.5 68.5t-61.5 170.5q0 103 61.5 171.5t153.5 68.5q41 0 76.5 -18.5t61.5 -53.5
l15 62h117v-328l7 -13q12 -23 19 -50.5t7 -54.5zM164 229q0 -53 32.5 -87t81.5 -34t81.5 34t32.5 87t-32.5 87.5t-81.5 34.5t-81.5 -34.5t-32.5 -87.5zM286 690q31 0 54 -23.5t23 -54.5t-23 -54.5t-54 -23.5t-54.5 23.5t-23.5 54.5t23.5 54.5t54.5 23.5z" />
    <glyph glyph-name="Gcommaaccent" unicode="&#x122;" horiz-adv-x="750" 
d="M718 330q0 -145 -94 -242.5t-234 -97.5q-149 0 -249 100.5t-100 251.5t100 252t249 101q70 0 133 -27t114 -79l-84 -92q-36 36 -76.5 54t-86.5 18q-89 0 -148.5 -65t-59.5 -162t59.5 -161.5t148.5 -64.5q67 0 116 36.5t68 99.5h-199v122h341q1 -8 1.5 -20t0.5 -24z
M309 -118q0 28 21 48.5t50 20.5q30 0 51.5 -22t21.5 -53q0 -19 -6 -36.5t-20 -36.5l-59 -93l-65 31l41 81q-17 10 -26 25.5t-9 34.5z" />
    <glyph glyph-name="gcommaaccent" unicode="&#x123;" horiz-adv-x="585" 
d="M552 13q0 -99 -77 -161t-200 -62q-64 0 -124.5 19.5t-114.5 56.5l61 99q40 -30 83.5 -45t88.5 -15q68 0 110.5 31.5t42.5 81.5q0 19 -5 34t-16 33q-25 -45 -64.5 -70t-87.5 -25q-92 0 -153.5 68.5t-61.5 170.5q0 103 61.5 171.5t153.5 68.5q41 0 76.5 -18.5t61.5 -53.5
l15 62h117v-328l7 -13q12 -23 19 -50.5t7 -54.5zM164 229q0 -53 32.5 -87t81.5 -34t81.5 34t32.5 87t-32.5 87.5t-81.5 34.5t-81.5 -34.5t-32.5 -87.5zM358 588q0 -29 -21 -49.5t-51 -20.5t-51 22t-21 54q0 19 6 36t19 37l56 86l66 -31l-38 -75q17 -10 26 -25.5t9 -33.5z
" />
    <glyph glyph-name="Hcircumflex" unicode="&#x124;" horiz-adv-x="744" 
d="M661 0h-137v291h-304v-291h-137v685h137v-272h304v272h137v-685zM372 949l169 -144l-53 -64l-118 86l-115 -86l-53 64z" />
    <glyph glyph-name="hcircumflex" unicode="&#x125;" horiz-adv-x="571" 
d="M299 348q-29 0 -54.5 -16.5t-45.5 -47.5v-284h-133v705h133v-311q27 35 64 55t77 20q82 0 129 -53.5t47 -147.5v-268h-133v249q0 47 -22 73t-62 26zM290 957l169 -144l-53 -64l-118 86l-115 -86l-53 64z" />
    <glyph glyph-name="Hbar" unicode="&#x126;" horiz-adv-x="744" 
d="M523 291h-304v-291h-137v492h-92v112h92v81h137v-81h304v81h137v-81h94v-112h-94v-492h-137v291zM219 492v-79h304v79h-304z" />
    <glyph glyph-name="hbar" unicode="&#x127;" horiz-adv-x="583" 
d="M311 348q-29 0 -54.5 -16.5t-45.5 -47.5v-284h-133v535h-73v91h73v79h133v-79h151v-91h-151v-141q27 35 64 55t77 20q82 0 129 -53.5t47 -147.5v-268h-133v249q0 47 -22 73t-62 26z" />
    <glyph glyph-name="Itilde" unicode="&#x128;" horiz-adv-x="303" 
d="M220 0h-137v685h137v-685zM245 912l78 -36q-23 -57 -48.5 -82t-61.5 -25q-15 0 -29.5 4.5t-39.5 17.5q-18 9 -26.5 12t-16.5 3q-15 0 -24.5 -9.5t-19.5 -32.5l-78 36q21 54 47.5 79t62.5 25q15 0 29.5 -4t39.5 -17q18 -9 27 -12t17 -3q14 0 23.5 10t19.5 34z" />
    <glyph glyph-name="itilde" unicode="&#x129;" horiz-adv-x="265" 
d="M66 459h133v-459h-133v459zM226 687l78 -36q-23 -57 -48.5 -82t-61.5 -25q-15 0 -29.5 4.5t-39.5 17.5q-18 9 -26.5 12t-16.5 3q-15 0 -24.5 -9.5t-19.5 -32.5l-78 36q21 54 47.5 79t62.5 25q15 0 29.5 -4t39.5 -17q18 -9 27 -12t17 -3q14 0 23.5 10t19.5 34z" />
    <glyph glyph-name="Imacron" unicode="&#x12a;" horiz-adv-x="303" 
d="M220 0h-137v685h137v-685zM14 876h275v-95h-275v95z" />
    <glyph glyph-name="imacron" unicode="&#x12b;" horiz-adv-x="265" 
d="M66 459h133v-459h-133v459zM-5 651h275v-95h-275v95z" />
    <glyph glyph-name="Ibreve" unicode="&#x12c;" horiz-adv-x="303" 
d="M220 0h-137v685h137v-685zM101 909v-10q0 -31 13.5 -47.5t37.5 -16.5t37 16.5t13 46.5v11h96v-21q0 -62 -41 -101.5t-105 -39.5q-65 0 -106 39.5t-41 102.5v20h96z" />
    <glyph glyph-name="ibreve" unicode="&#x12d;" horiz-adv-x="265" 
d="M66 459h133v-459h-133v459zM82 684v-10q0 -31 13.5 -47.5t37.5 -16.5t37 16.5t13 46.5v11h96v-21q0 -62 -41 -101.5t-105 -39.5q-65 0 -106 39.5t-41 102.5v20h96z" />
    <glyph glyph-name="Iogonek" unicode="&#x12e;" horiz-adv-x="303" 
d="M204 -118l29 -74q-19 -9 -37.5 -13.5t-36.5 -4.5q-51 0 -84 27t-33 70q0 32 19.5 61t55.5 52h-34v685h137v-685q-36 -20 -56 -45t-20 -49q0 -14 8.5 -22t22.5 -8q8 0 15 1.5t14 4.5z" />
    <glyph glyph-name="iogonek" unicode="&#x12f;" horiz-adv-x="265" 
d="M132 684q33 0 56.5 -23.5t23.5 -56.5t-23.5 -56.5t-56.5 -23.5q-32 0 -55.5 24t-23.5 56q0 33 23.5 56.5t55.5 23.5zM184 -118l29 -74q-19 -9 -37.5 -13.5t-36.5 -4.5q-51 0 -84 27t-33 70q0 32 19.5 61t55.5 52h-31v459h133v-459h1q-36 -20 -56 -45t-20 -49
q0 -14 8.5 -22t22.5 -8q8 0 15 1.5t14 4.5z" />
    <glyph glyph-name="Idotaccent" unicode="&#x130;" horiz-adv-x="303" 
d="M220 0h-137v685h137v-685zM152 915q31 0 54 -23.5t23 -54.5t-23 -54.5t-54 -23.5t-54.5 23.5t-23.5 54.5t23.5 54.5t54.5 23.5z" />
    <glyph glyph-name="dotlessi" unicode="&#x131;" horiz-adv-x="265" 
d="M66 459h133v-459h-133v459z" />
    <glyph glyph-name="IJ" unicode="&#x132;" horiz-adv-x="628" 
d="M220 311h-137v374h137v-374zM558 685v-465q0 -113 -58 -171.5t-169 -58.5q-55 0 -104 22t-91 65l84 92q24 -27 52 -40.5t58 -13.5q43 0 67 27.5t24 78.5v464h137z" />
    <glyph glyph-name="ij" unicode="&#x133;" horiz-adv-x="541" 
d="M132 684q33 0 56.5 -23.5t23.5 -56.5t-23.5 -56.5t-56.5 -23.5q-32 0 -55.5 24t-23.5 56q0 33 23.5 56.5t55.5 23.5zM66 459h133v-459h-133v459zM408 684q33 0 56.5 -23.5t23.5 -56.5t-23.5 -56.5t-56.5 -23.5t-56.5 23.5t-23.5 56.5t23.5 56.5t56.5 23.5zM280 -89
q29 0 45.5 22.5t16.5 61.5v464h133v-475q0 -91 -48 -142.5t-134 -51.5q-38 0 -75 13.5t-65 37.5l66 94q17 -12 32 -18t29 -6z" />
    <glyph glyph-name="Jcircumflex" unicode="&#x134;" horiz-adv-x="499" 
d="M430 685v-465q0 -113 -58 -171.5t-169 -58.5q-55 0 -104 22t-91 65l84 92q24 -27 52 -40.5t58 -13.5q43 0 67 27.5t24 78.5v464h137zM359 949l169 -144l-53 -64l-118 86l-115 -86l-53 64z" />
    <glyph glyph-name="jcircumflex" unicode="&#x135;" horiz-adv-x="272" 
d="M11 -89q29 0 45.5 22.5t16.5 61.5v464h133v-475q0 -91 -48 -142.5t-134 -51.5q-38 0 -75 13.5t-65 37.5l66 94q17 -12 32 -18t29 -6zM136 724l169 -144l-53 -64l-118 86l-115 -86l-53 64z" />
    <glyph glyph-name="Kcommaaccent" unicode="&#x136;" horiz-adv-x="667" 
d="M233 289h-13v-289h-137v685h137v-274h11q53 0 80 16.5t58 67.5l116 190h147l-116 -189q-25 -41 -46.5 -71.5t-41.5 -53.5l227 -371h-157l-182 298q-19 -5 -39.5 -7t-43.5 -2zM277 -118q0 28 21 48.5t50 20.5q30 0 51.5 -22t21.5 -53q0 -19 -6 -36.5t-20 -36.5l-59 -93
l-65 31l41 81q-17 10 -26 25.5t-9 34.5z" />
    <glyph glyph-name="kcommaaccent" unicode="&#x137;" horiz-adv-x="551" 
d="M219 176h-20v-176h-133v705h133v-408h20q46 0 71 15.5t44 54.5l43 92h138l-43 -90q-24 -49 -43 -79.5t-38 -50.5l151 -239h-152l-109 181q-12 -3 -26.5 -4t-35.5 -1zM219 -118q0 28 21 48.5t50 20.5q30 0 51.5 -22t21.5 -53q0 -19 -6 -36.5t-20 -36.5l-59 -93l-65 31
l41 81q-17 10 -26 25.5t-9 34.5z" />
    <glyph glyph-name="kgreenlandic" unicode="&#x138;" horiz-adv-x="551" 
d="M219 176h-20v-176h-133v459h133v-162h20q46 0 70.5 15t44.5 55l43 92h138l-43 -90q-24 -49 -43 -79.5t-38 -50.5l151 -239h-152l-109 181q-12 -3 -26.5 -4t-35.5 -1z" />
    <glyph glyph-name="Lacute" unicode="&#x139;" horiz-adv-x="531" 
d="M220 122h287v-122h-424v685h137v-563zM103 744l-45 71l184 138l60 -99z" />
    <glyph glyph-name="lacute" unicode="&#x13a;" horiz-adv-x="265" 
d="M66 705h133v-705h-133v705zM68 745l-45 71l184 138l60 -99z" />
    <glyph glyph-name="Lcommaaccent" unicode="&#x13b;" horiz-adv-x="531" 
d="M220 122h287v-122h-424v685h137v-563zM214 -118q0 28 21 48.5t50 20.5q30 0 51.5 -22t21.5 -53q0 -19 -6 -36.5t-20 -36.5l-59 -93l-65 31l41 81q-17 10 -26 25.5t-9 34.5z" />
    <glyph glyph-name="lcommaaccent" unicode="&#x13c;" horiz-adv-x="265" 
d="M66 705h133v-705h-133v705zM62 -118q0 28 21 48.5t50 20.5q30 0 51.5 -22t21.5 -53q0 -19 -6 -36.5t-20 -36.5l-59 -93l-65 31l41 81q-17 10 -26 25.5t-9 34.5z" />
    <glyph glyph-name="Lcaron" unicode="&#x13d;" horiz-adv-x="531" 
d="M220 122h287v-122h-424v685h137v-563zM422 685l-17 -191h-94v191h111z" />
    <glyph glyph-name="lcaron" unicode="&#x13e;" horiz-adv-x="358" 
d="M66 705h133v-705h-133v705zM370 705l-17 -191h-94v191h111z" />
    <glyph glyph-name="Ldot" unicode="&#x13f;" horiz-adv-x="531" 
d="M220 122h287v-122h-424v685h137v-563zM413 447q32 0 55 -22.5t23 -54.5t-23 -55t-55 -23t-55 23t-23 55q0 31 23 54t55 23z" />
    <glyph glyph-name="ldot" unicode="&#x140;" horiz-adv-x="375" 
d="M66 705h133v-705h-133v705zM322 405q32 0 55 -22.5t23 -54.5t-23 -55t-55 -23t-55 23t-23 55q0 31 23 54t55 23z" />
    <glyph glyph-name="Lslash" unicode="&#x141;" horiz-adv-x="564" 
d="M253 122h287v-122h-424v265l-72 -26l-36 108l108 39v299h137v-249l129 47l36 -108l-165 -60v-193z" />
    <glyph glyph-name="lslash" unicode="&#x142;" horiz-adv-x="350" 
d="M302 481l48 -103l-110 -52v-326h-133v264l-59 -28l-48 103l107 50v316h133v-253z" />
    <glyph glyph-name="Nacute" unicode="&#x143;" horiz-adv-x="732" 
d="M649 0h-132l-304 460v-460h-130v685h132l304 -462v462h130v-685zM303 744l-45 71l184 138l60 -99z" />
    <glyph glyph-name="nacute" unicode="&#x144;" horiz-adv-x="574" 
d="M299 348q-29 0 -54.5 -16.5t-45.5 -47.5v-284h-133v459h117l16 -66q27 36 64 56t77 20q82 0 129 -53.5t47 -147.5v-268h-133v249q0 47 -22 73t-62 26zM226 519l-45 71l184 138l60 -99z" />
    <glyph glyph-name="Ncommaaccent" unicode="&#x145;" horiz-adv-x="732" 
d="M649 0h-132l-304 460v-460h-130v685h132l304 -462v462h130v-685zM294 -118q0 28 21 48.5t50 20.5q30 0 51.5 -22t21.5 -53q0 -19 -6 -36.5t-20 -36.5l-59 -93l-65 31l41 81q-17 10 -26 25.5t-9 34.5z" />
    <glyph glyph-name="ncommaaccent" unicode="&#x146;" horiz-adv-x="574" 
d="M299 348q-29 0 -54.5 -16.5t-45.5 -47.5v-284h-133v459h117l16 -66q27 36 64 56t77 20q82 0 129 -53.5t47 -147.5v-268h-133v249q0 47 -22 73t-62 26zM215 -118q0 28 21 48.5t50 20.5q30 0 51.5 -22t21.5 -53q0 -19 -6 -36.5t-20 -36.5l-59 -93l-65 31l41 81
q-17 10 -26 25.5t-9 34.5z" />
    <glyph glyph-name="Ncaron" unicode="&#x147;" horiz-adv-x="732" 
d="M649 0h-132l-304 460v-460h-130v685h132l304 -462v462h130v-685zM482 949l53 -64l-169 -144l-170 144l53 64l118 -86z" />
    <glyph glyph-name="ncaron" unicode="&#x148;" horiz-adv-x="574" 
d="M299 348q-29 0 -54.5 -16.5t-45.5 -47.5v-284h-133v459h117l16 -66q27 36 64 56t77 20q82 0 129 -53.5t47 -147.5v-268h-133v249q0 47 -22 73t-62 26zM405 724l53 -64l-169 -144l-170 144l53 64l118 -86z" />
    <glyph glyph-name="napostrophe" unicode="&#x149;" horiz-adv-x="644" 
d="M368 348q-29 0 -54.5 -16.5t-45.5 -47.5v-284h-133v459h117l16 -66q27 36 64 56t77 20q82 0 129 -53.5t47 -147.5v-268h-133v249q0 47 -22 73t-62 26zM152 685l-83 -250h-95l38 250h140z" />
    <glyph glyph-name="Eng" unicode="&#x14a;" horiz-adv-x="732" 
d="M519 223v462h130v-701q0 -91 -48 -142.5t-134 -51.5q-38 0 -76 13.5t-66 37.5l67 95q17 -12 32 -18t29 -6q30 0 47.5 22.5t17.5 60.5v5h-1l-304 460v-460h-130v685h132z" />
    <glyph glyph-name="eng" unicode="&#x14b;" horiz-adv-x="574" 
d="M340 469q82 0 129 -53.5t47 -147.5v-284q0 -91 -48 -142.5t-134 -51.5q-38 0 -76 13.5t-65 37.5l67 94q17 -12 32 -18t29 -6q29 0 45.5 22.5t16.5 61.5v254q0 47 -22 73t-62 26q-29 0 -54.5 -16.5t-45.5 -47.5v-284h-133v459h117l16 -66q27 36 64 56t77 20z" />
    <glyph glyph-name="Omacron" unicode="&#x14c;" horiz-adv-x="780" 
d="M390 -10q-149 0 -249 100.5t-100 251.5t100 252t249 101t249 -101t100 -252t-100 -251.5t-249 -100.5zM390 116q89 0 148.5 64.5t59.5 161.5t-59.5 162t-148.5 65t-148.5 -65t-59.5 -162t59.5 -161.5t148.5 -64.5zM252 876h275v-95h-275v95z" />
    <glyph glyph-name="omacron" unicode="&#x14d;" horiz-adv-x="556" 
d="M278 469q106 0 175 -68t69 -172q0 -103 -69.5 -171t-174.5 -68t-174.5 68t-69.5 171q0 104 69 172t175 68zM278 351q-49 0 -81.5 -34.5t-32.5 -87.5q0 -52 32.5 -86.5t81.5 -34.5t81.5 34.5t32.5 86.5q0 53 -32.5 87.5t-81.5 34.5zM140 651h275v-95h-275v95z" />
    <glyph glyph-name="Obreve" unicode="&#x14e;" horiz-adv-x="780" 
d="M390 -10q-149 0 -249 100.5t-100 251.5t100 252t249 101t249 -101t100 -252t-100 -251.5t-249 -100.5zM390 116q89 0 148.5 64.5t59.5 161.5t-59.5 162t-148.5 65t-148.5 -65t-59.5 -162t59.5 -161.5t148.5 -64.5zM339 909v-10q0 -31 13.5 -47.5t37.5 -16.5t37 16.5
t13 46.5v11h96v-21q0 -62 -41 -101.5t-105 -39.5q-65 0 -106 39.5t-41 102.5v20h96z" />
    <glyph glyph-name="obreve" unicode="&#x14f;" horiz-adv-x="556" 
d="M278 469q106 0 175 -68t69 -172q0 -103 -69.5 -171t-174.5 -68t-174.5 68t-69.5 171q0 104 69 172t175 68zM278 351q-49 0 -81.5 -34.5t-32.5 -87.5q0 -52 32.5 -86.5t81.5 -34.5t81.5 34.5t32.5 86.5q0 53 -32.5 87.5t-81.5 34.5zM227 684v-10q0 -31 13.5 -47.5
t37.5 -16.5t37 16.5t13 46.5v11h96v-21q0 -62 -41 -101.5t-105 -39.5q-65 0 -106 39.5t-41 102.5v20h96z" />
    <glyph glyph-name="Ohungarumlaut" unicode="&#x150;" horiz-adv-x="780" 
d="M390 -10q-149 0 -249 100.5t-100 251.5t100 252t249 101t249 -101t100 -252t-100 -251.5t-249 -100.5zM390 116q89 0 148.5 64.5t59.5 161.5t-59.5 162t-148.5 65t-148.5 -65t-59.5 -162t59.5 -161.5t148.5 -64.5zM308 743l-69 44l104 180l92 -60zM495 743l-69 44
l104 180l93 -60z" />
    <glyph glyph-name="ohungarumlaut" unicode="&#x151;" horiz-adv-x="556" 
d="M278 469q106 0 175 -68t69 -172q0 -103 -69.5 -171t-174.5 -68t-174.5 68t-69.5 171q0 104 69 172t175 68zM278 351q-49 0 -81.5 -34.5t-32.5 -87.5q0 -52 32.5 -86.5t81.5 -34.5t81.5 34.5t32.5 86.5q0 53 -32.5 87.5t-81.5 34.5zM193 518l-69 44l104 180l92 -60z
M380 518l-69 44l104 180l93 -60z" />
    <glyph glyph-name="OE" unicode="&#x152;" horiz-adv-x="967" 
d="M41 342q0 161 103.5 252t285.5 91h487v-122h-294v-152h268v-122h-268v-167h294v-122h-487q-182 0 -285.5 91t-103.5 251zM182 342q0 -106 63.5 -163.5t179.5 -57.5h61v442h-61q-117 0 -180 -57.5t-63 -163.5z" />
    <glyph glyph-name="oe" unicode="&#x153;" horiz-adv-x="882" 
d="M749 147l65 -84q-36 -36 -80.5 -54.5t-95.5 -18.5q-56 0 -103.5 22.5t-80.5 64.5q-31 -42 -77 -64.5t-99 -22.5q-105 0 -174.5 68t-69.5 171q0 104 69 172t175 68q53 0 98.5 -22.5t77.5 -63.5q31 41 76 63.5t98 22.5q96 0 160 -69.5t64 -170.5q0 -13 -1 -25.5t-2 -18.5
h-342q14 -41 46 -65t75 -24q35 0 63.5 12t57.5 39zM618 363q-38 0 -66 -22.5t-43 -61.5h218q-15 39 -43 61.5t-66 22.5zM278 351q-49 0 -81.5 -34.5t-32.5 -87.5q0 -52 32.5 -86.5t81.5 -34.5t81.5 34.5t32.5 86.5q0 53 -32.5 87.5t-81.5 34.5z" />
    <glyph glyph-name="Racute" unicode="&#x154;" horiz-adv-x="621" 
d="M217 0h-134v685h226q112 0 180.5 -56.5t68.5 -149.5q0 -64 -31 -111t-89 -72l160 -296h-145l-139 262h-97v-262zM420 473q0 41 -28.5 65.5t-77.5 24.5h-97v-180h97q49 0 77.5 24.5t28.5 65.5zM245 744l-45 71l184 138l60 -99z" />
    <glyph glyph-name="racute" unicode="&#x155;" horiz-adv-x="381" 
d="M299 329q-31 0 -56 -12.5t-44 -36.5v-280h-133v459h117l16 -65q25 35 59 55t70 20q13 0 24 -1.5t21 -5.5l-35 -139q-11 3 -21 4.5t-18 1.5zM156 519l-45 71l184 138l60 -99z" />
    <glyph glyph-name="Rcommaaccent" unicode="&#x156;" horiz-adv-x="621" 
d="M217 0h-134v685h226q112 0 180.5 -56.5t68.5 -149.5q0 -64 -31 -111t-89 -72l160 -296h-145l-139 262h-97v-262zM420 473q0 41 -28.5 65.5t-77.5 24.5h-97v-180h97q49 0 77.5 24.5t28.5 65.5zM243 -118q0 28 21 48.5t50 20.5q30 0 51.5 -22t21.5 -53q0 -19 -6 -36.5
t-20 -36.5l-59 -93l-65 31l41 81q-17 10 -26 25.5t-9 34.5z" />
    <glyph glyph-name="rcommaaccent" unicode="&#x157;" horiz-adv-x="381" 
d="M299 329q-31 0 -56 -12.5t-44 -36.5v-280h-133v459h117l16 -65q25 35 59 55t70 20q13 0 24 -1.5t21 -5.5l-35 -139q-11 3 -21 4.5t-18 1.5zM61 -118q0 28 21 48.5t50 20.5q30 0 51.5 -22t21.5 -53q0 -19 -6 -36.5t-20 -36.5l-59 -93l-65 31l41 81q-17 10 -26 25.5
t-9 34.5z" />
    <glyph glyph-name="Rcaron" unicode="&#x158;" horiz-adv-x="621" 
d="M217 0h-134v685h226q112 0 180.5 -56.5t68.5 -149.5q0 -64 -31 -111t-89 -72l160 -296h-145l-139 262h-97v-262zM420 473q0 41 -28.5 65.5t-77.5 24.5h-97v-180h97q49 0 77.5 24.5t28.5 65.5zM418 949l53 -64l-169 -144l-170 144l53 64l118 -86z" />
    <glyph glyph-name="rcaron" unicode="&#x159;" horiz-adv-x="381" 
d="M299 329q-31 0 -56 -12.5t-44 -36.5v-280h-133v459h117l16 -65q25 35 59 55t70 20q13 0 24 -1.5t21 -5.5l-35 -139q-11 3 -21 4.5t-18 1.5zM319 724l53 -64l-169 -144l-170 144l53 64l118 -86z" />
    <glyph glyph-name="Sacute" unicode="&#x15a;" horiz-adv-x="567" 
d="M285 576q-43 0 -69 -19.5t-26 -53.5q0 -33 28 -54.5t121 -52.5q105 -35 149 -81.5t44 -118.5q0 -88 -68.5 -147t-170.5 -59q-76 0 -143.5 27.5t-119.5 80.5l74 92q41 -41 88 -61.5t101 -20.5q47 0 75.5 22.5t28.5 59.5q0 30 -26 50t-110 49q-116 39 -161 86t-45 123
q0 85 65 141t164 56q63 0 121 -24t105 -70l-78 -92q-38 35 -73.5 51t-73.5 16zM214 744l-45 71l184 138l60 -99z" />
    <glyph glyph-name="sacute" unicode="&#x15b;" horiz-adv-x="439" 
d="M202 184q-87 24 -120 58t-33 88q0 61 50 100t128 39q46 0 90.5 -14t80.5 -39l-60 -90q-25 19 -56 30.5t-57 11.5q-24 0 -36.5 -9t-12.5 -26q0 -16 17 -28t68 -26q77 -20 112.5 -55t35.5 -88q0 -67 -49.5 -106.5t-135.5 -39.5q-55 0 -104 16.5t-96 50.5l61 91
q32 -26 68.5 -41t70.5 -15q27 0 42.5 11t15.5 29q0 16 -14 26.5t-66 25.5zM149 519l-45 71l184 138l60 -99z" />
    <glyph glyph-name="Scircumflex" unicode="&#x15c;" horiz-adv-x="567" 
d="M285 576q-43 0 -69 -19.5t-26 -53.5q0 -33 28 -54.5t121 -52.5q105 -35 149 -81.5t44 -118.5q0 -88 -68.5 -147t-170.5 -59q-76 0 -143.5 27.5t-119.5 80.5l74 92q41 -41 88 -61.5t101 -20.5q47 0 75.5 22.5t28.5 59.5q0 30 -26 50t-110 49q-116 39 -161 86t-45 123
q0 85 65 141t164 56q63 0 121 -24t105 -70l-78 -92q-38 35 -73.5 51t-73.5 16zM281 949l169 -144l-53 -64l-118 86l-115 -86l-53 64z" />
    <glyph glyph-name="scircumflex" unicode="&#x15d;" horiz-adv-x="439" 
d="M202 184q-87 24 -120 58t-33 88q0 61 50 100t128 39q46 0 90.5 -14t80.5 -39l-60 -90q-25 19 -56 30.5t-57 11.5q-24 0 -36.5 -9t-12.5 -26q0 -16 17 -28t68 -26q77 -20 112.5 -55t35.5 -88q0 -67 -49.5 -106.5t-135.5 -39.5q-55 0 -104 16.5t-96 50.5l61 91
q32 -26 68.5 -41t70.5 -15q27 0 42.5 11t15.5 29q0 16 -14 26.5t-66 25.5zM229 724l169 -144l-53 -64l-118 86l-115 -86l-53 64z" />
    <glyph glyph-name="Scedilla" unicode="&#x15e;" horiz-adv-x="567" 
d="M400 -126q0 -42 -31 -67t-83 -25q-28 0 -50.5 5t-48.5 16l22 66q19 -9 32.5 -12.5t25.5 -3.5q14 0 22.5 7t8.5 18q0 13 -8 19t-24 6l-38 40l15 50q-61 8 -115.5 34.5t-97.5 70.5l74 92q41 -41 88 -61.5t101 -20.5q47 0 75.5 22.5t28.5 59.5q0 30 -26 50t-110 49
q-116 39 -161 86t-45 123q0 85 65 141t164 56q63 0 121 -24t105 -70l-78 -92q-38 35 -73.5 51t-73.5 16q-43 0 -69 -19.5t-26 -53.5q0 -33 28 -54.5t121 -52.5q105 -35 149 -81.5t44 -118.5q0 -82 -60.5 -139.5t-153.5 -65.5l-9 -30q42 -4 66.5 -27t24.5 -60z" />
    <glyph glyph-name="scedilla" unicode="&#x15f;" horiz-adv-x="439" 
d="M325 -126q0 -42 -31 -67t-83 -25q-28 0 -50.5 5t-48.5 16l22 66q19 -9 32.5 -12.5t25.5 -3.5q14 0 22.5 7t8.5 18q0 13 -8 19t-24 6l-38 40l16 51q-39 7 -75.5 22.5t-69.5 40.5l61 91q32 -26 68.5 -41t70.5 -15q27 0 42.5 11t15.5 29q0 16 -14 26.5t-66 25.5
q-87 24 -120 58t-33 88q0 61 50 100t128 39q46 0 90.5 -14t80.5 -39l-60 -90q-25 19 -56 30.5t-57 11.5q-24 0 -36.5 -9t-12.5 -26q0 -16 17 -28t68 -26q77 -20 112.5 -55t35.5 -88q0 -63 -44 -102t-122 -43l-9 -30q42 -4 66.5 -27t24.5 -60z" />
    <glyph glyph-name="Scaron" unicode="&#x160;" horiz-adv-x="567" 
d="M285 576q-43 0 -69 -19.5t-26 -53.5q0 -33 28 -54.5t121 -52.5q105 -35 149 -81.5t44 -118.5q0 -88 -68.5 -147t-170.5 -59q-76 0 -143.5 27.5t-119.5 80.5l74 92q41 -41 88 -61.5t101 -20.5q47 0 75.5 22.5t28.5 59.5q0 30 -26 50t-110 49q-116 39 -161 86t-45 123
q0 85 65 141t164 56q63 0 121 -24t105 -70l-78 -92q-38 35 -73.5 51t-73.5 16zM398 949l53 -64l-169 -144l-170 144l53 64l118 -86z" />
    <glyph glyph-name="scaron" unicode="&#x161;" horiz-adv-x="439" 
d="M202 184q-87 24 -120 58t-33 88q0 61 50 100t128 39q46 0 90.5 -14t80.5 -39l-60 -90q-25 19 -56 30.5t-57 11.5q-24 0 -36.5 -9t-12.5 -26q0 -16 17 -28t68 -26q77 -20 112.5 -55t35.5 -88q0 -67 -49.5 -106.5t-135.5 -39.5q-55 0 -104 16.5t-96 50.5l61 91
q32 -26 68.5 -41t70.5 -15q27 0 42.5 11t15.5 29q0 16 -14 26.5t-66 25.5zM352 724l53 -64l-169 -144l-170 144l53 64l118 -86z" />
    <glyph glyph-name="uni0162" unicode="&#x162;" horiz-adv-x="579" 
d="M221 563h-201v122h539v-122h-201v-563h-137v563zM218 -118q0 28 21 48.5t50 20.5q30 0 51.5 -22t21.5 -53q0 -19 -6 -36.5t-20 -36.5l-59 -93l-65 31l41 81q-17 10 -26 25.5t-9 34.5z" />
    <glyph glyph-name="uni0163" unicode="&#x163;" horiz-adv-x="445" 
d="M110 345h-92v109l92 5h7l16 131h110v-131h148v-114h-148v-162q0 -34 15.5 -53.5t43.5 -19.5q15 0 30.5 6.5t32.5 20.5l63 -94q-29 -25 -66.5 -39t-76.5 -14q-83 0 -129 50t-46 140v165zM156 -118q0 28 21 48.5t50 20.5q30 0 51.5 -22t21.5 -53q0 -19 -6 -36.5t-20 -36.5
l-59 -93l-65 31l41 81q-17 10 -26 25.5t-9 34.5z" />
    <glyph glyph-name="Tcaron" unicode="&#x164;" horiz-adv-x="579" 
d="M221 563h-201v122h539v-122h-201v-563h-137v563zM404 949l53 -64l-169 -144l-170 144l53 64l118 -86z" />
    <glyph glyph-name="tcaron" unicode="&#x165;" horiz-adv-x="445" 
d="M110 345h-92v109l92 5h7l16 131h110v-131h148v-114h-148v-162q0 -34 15.5 -53.5t43.5 -19.5q15 0 30.5 6.5t32.5 20.5l63 -94q-29 -25 -66.5 -39t-76.5 -14q-83 0 -129 50t-46 140v165zM402 698l-17 -191h-94v191h111z" />
    <glyph glyph-name="Tbar" unicode="&#x166;" horiz-adv-x="579" 
d="M221 563h-201v122h539v-122h-201v-164h110v-112h-110v-287h-137v287h-110v112h110v164z" />
    <glyph glyph-name="tbar" unicode="&#x167;" horiz-adv-x="445" 
d="M110 352h-92v102l92 5h7l16 131h110v-131h148v-107h-148v-62h148v-107h-148q0 -34 15.5 -53.5t43.5 -19.5q15 0 30.5 6.5t32.5 20.5l63 -94q-29 -25 -66.5 -39t-76.5 -14q-83 0 -129 50t-46 140v3h-92v107h92v62z" />
    <glyph glyph-name="Utilde" unicode="&#x168;" horiz-adv-x="680" 
d="M611 685v-412q0 -130 -73 -206.5t-198 -76.5t-198 76t-73 207v412h137v-410q0 -76 35 -118t99 -42q63 0 98.5 42.5t35.5 117.5v410h137zM433 912l78 -36q-23 -57 -48.5 -82t-61.5 -25q-15 0 -29.5 4.5t-39.5 17.5q-18 9 -26.5 12t-16.5 3q-15 0 -24.5 -9.5t-19.5 -32.5
l-78 36q21 54 47.5 79t62.5 25q15 0 29.5 -4t39.5 -17q18 -9 27 -12t17 -3q14 0 23.5 10t19.5 34z" />
    <glyph glyph-name="utilde" unicode="&#x169;" horiz-adv-x="567" 
d="M501 0h-116l-16 62q-27 -34 -63.5 -53t-75.5 -19q-80 0 -126 52t-46 143v274h133v-254q0 -45 21 -69.5t59 -24.5q29 0 53.5 15.5t43.5 45.5v287h133v-459zM376 687l78 -36q-23 -57 -48.5 -82t-61.5 -25q-15 0 -29.5 4.5t-39.5 17.5q-18 9 -26.5 12t-16.5 3
q-15 0 -24.5 -9.5t-19.5 -32.5l-78 36q21 54 47.5 79t62.5 25q15 0 29.5 -4t39.5 -17q18 -9 27 -12t17 -3q14 0 23.5 10t19.5 34z" />
    <glyph glyph-name="Umacron" unicode="&#x16a;" horiz-adv-x="680" 
d="M611 685v-412q0 -130 -73 -206.5t-198 -76.5t-198 76t-73 207v412h137v-410q0 -76 35 -118t99 -42q63 0 98.5 42.5t35.5 117.5v410h137zM202 876h275v-95h-275v95z" />
    <glyph glyph-name="umacron" unicode="&#x16b;" horiz-adv-x="567" 
d="M501 0h-116l-16 62q-27 -34 -63.5 -53t-75.5 -19q-80 0 -126 52t-46 143v274h133v-254q0 -45 21 -69.5t59 -24.5q29 0 53.5 15.5t43.5 45.5v287h133v-459zM145 651h275v-95h-275v95z" />
    <glyph glyph-name="Ubreve" unicode="&#x16c;" horiz-adv-x="680" 
d="M611 685v-412q0 -130 -73 -206.5t-198 -76.5t-198 76t-73 207v412h137v-410q0 -76 35 -118t99 -42q63 0 98.5 42.5t35.5 117.5v410h137zM289 909v-10q0 -31 13.5 -47.5t37.5 -16.5t37 16.5t13 46.5v11h96v-21q0 -62 -41 -101.5t-105 -39.5q-65 0 -106 39.5t-41 102.5v20
h96z" />
    <glyph glyph-name="ubreve" unicode="&#x16d;" horiz-adv-x="567" 
d="M501 0h-116l-16 62q-27 -34 -63.5 -53t-75.5 -19q-80 0 -126 52t-46 143v274h133v-254q0 -45 21 -69.5t59 -24.5q29 0 53.5 15.5t43.5 45.5v287h133v-459zM232 684v-10q0 -31 13.5 -47.5t37.5 -16.5t37 16.5t13 46.5v11h96v-21q0 -62 -41 -101.5t-105 -39.5
q-65 0 -106 39.5t-41 102.5v20h96z" />
    <glyph glyph-name="Uring" unicode="&#x16e;" horiz-adv-x="680" 
d="M611 685v-412q0 -130 -73 -206.5t-198 -76.5t-198 76t-73 207v412h137v-410q0 -76 35 -118t99 -42q63 0 98.5 42.5t35.5 117.5v410h137zM340 733q-50 0 -84.5 33.5t-34.5 81.5t34.5 81.5t84.5 33.5q49 0 83.5 -33.5t34.5 -81.5t-34.5 -81.5t-83.5 -33.5zM340 801
q19 0 32 13.5t13 33.5t-13 33.5t-32 13.5q-20 0 -33 -13t-13 -34t13 -34t33 -13z" />
    <glyph glyph-name="uring" unicode="&#x16f;" horiz-adv-x="567" 
d="M501 0h-116l-16 62q-27 -34 -63.5 -53t-75.5 -19q-80 0 -126 52t-46 143v274h133v-254q0 -45 21 -69.5t59 -24.5q29 0 53.5 15.5t43.5 45.5v287h133v-459zM283 508q-50 0 -84.5 33.5t-34.5 81.5t34.5 81.5t84.5 33.5q49 0 83.5 -33.5t34.5 -81.5t-34.5 -81.5t-83.5 -33.5
zM283 576q19 0 32 13.5t13 33.5t-13 33.5t-32 13.5q-20 0 -33 -13t-13 -34t13 -34t33 -13z" />
    <glyph glyph-name="Uhungarumlaut" unicode="&#x170;" horiz-adv-x="680" 
d="M611 685v-412q0 -130 -73 -206.5t-198 -76.5t-198 76t-73 207v412h137v-410q0 -76 35 -118t99 -42q63 0 98.5 42.5t35.5 117.5v410h137zM258 743l-69 44l104 180l92 -60zM445 743l-69 44l104 180l93 -60z" />
    <glyph glyph-name="uhungarumlaut" unicode="&#x171;" horiz-adv-x="567" 
d="M501 0h-116l-16 62q-27 -34 -63.5 -53t-75.5 -19q-80 0 -126 52t-46 143v274h133v-254q0 -45 21 -69.5t59 -24.5q29 0 53.5 15.5t43.5 45.5v287h133v-459zM202 518l-69 44l104 180l92 -60zM389 518l-69 44l104 180l93 -60z" />
    <glyph glyph-name="Uogonek" unicode="&#x172;" horiz-adv-x="680" 
d="M520 50q-53 -46 -78.5 -81t-25.5 -63q0 -14 8.5 -22t22.5 -8q8 0 15 1.5t14 4.5l29 -74q-19 -9 -37.5 -13.5t-36.5 -4.5q-51 0 -84 27t-33 70q0 28 16.5 55.5t46.5 49.5q-8 -1 -19 -1.5t-18 -0.5q-125 0 -198 76t-73 207v412h137v-410q0 -76 35 -118t99 -42
q63 0 98.5 42.5t35.5 117.5v410h137v-412q0 -71 -23 -127.5t-68 -95.5z" />
    <glyph glyph-name="uogonek" unicode="&#x173;" horiz-adv-x="567" 
d="M485 -118l29 -74q-19 -9 -37.5 -13.5t-36.5 -4.5q-51 0 -84 27t-33 70q0 31 14.5 57t47.5 57l-16 61q-27 -34 -63.5 -53t-75.5 -19q-80 0 -126 52t-46 143v274h133v-254q0 -45 21 -69.5t59 -24.5q29 0 53.5 15.5t43.5 45.5v287h133v-459q-36 -20 -56 -45t-20 -49
q0 -14 8.5 -22t22.5 -8q8 0 15 1.5t14 4.5z" />
    <glyph glyph-name="Wcircumflex" unicode="&#x174;" horiz-adv-x="1002" 
d="M752 0h-133l-118 323l-118 -323h-133l-237 685h147l166 -502l111 301l-74 201h286l-73 -198l109 -311l167 509h137zM503 949l169 -144l-53 -64l-118 86l-115 -86l-53 64z" />
    <glyph glyph-name="wcircumflex" unicode="&#x175;" horiz-adv-x="786" 
d="M609 0h-137l-79 198l-79 -198h-137l-180 459h131l127 -331l78 201l-52 130h229l-52 -129l78 -199l126 328h128zM390 724l169 -144l-53 -64l-118 86l-115 -86l-53 64z" />
    <glyph glyph-name="Ycircumflex" unicode="&#x176;" horiz-adv-x="634" 
d="M480 685h144l-238 -402v-283h-137v283l-239 402h153l159 -270zM317 949l169 -144l-53 -64l-118 86l-115 -86l-53 64z" />
    <glyph glyph-name="ycircumflex" unicode="&#x177;" horiz-adv-x="567" 
d="M534 13q0 -99 -77 -161t-200 -62q-64 0 -124.5 19.5t-114.5 56.5l61 99q40 -30 83.5 -45t88.5 -15q68 0 110.5 31.5t42.5 81.5q0 21 -4 38.5t-12 34.5q-26 -47 -68 -74t-90 -27q-80 0 -126 52t-46 143v274h133v-254q0 -45 21 -69.5t59 -24.5q29 0 53.5 15.5t43.5 45.5
v287h133v-308l6 -14q13 -30 20 -62t7 -62zM283 724l169 -144l-53 -64l-118 86l-115 -86l-53 64z" />
    <glyph glyph-name="Ydieresis" unicode="&#x178;" horiz-adv-x="634" 
d="M480 685h144l-238 -402v-283h-137v283l-239 402h153l159 -270zM220 903q28 0 48.5 -20.5t20.5 -48.5t-20.5 -49t-48.5 -21t-49.5 21t-21.5 49t21 48.5t50 20.5zM415 903q29 0 50 -20.5t21 -48.5t-21 -49t-50 -21q-28 0 -48.5 21t-20.5 49t20.5 48.5t48.5 20.5z" />
    <glyph glyph-name="Zacute" unicode="&#x179;" horiz-adv-x="587" 
d="M204 121h344v-121h-510v104l334 459h-321v122h487v-105zM238 744l-45 71l184 138l60 -99z" />
    <glyph glyph-name="zacute" unicode="&#x17a;" horiz-adv-x="467" 
d="M197 114h235v-114h-398v97l219 248h-209v114h378v-91zM177 519l-45 71l184 138l60 -99z" />
    <glyph glyph-name="Zdotaccent" unicode="&#x17b;" horiz-adv-x="587" 
d="M204 121h344v-121h-510v104l334 459h-321v122h487v-105zM293 915q31 0 54 -23.5t23 -54.5t-23 -54.5t-54 -23.5t-54.5 23.5t-23.5 54.5t23.5 54.5t54.5 23.5z" />
    <glyph glyph-name="zdotaccent" unicode="&#x17c;" horiz-adv-x="467" 
d="M197 114h235v-114h-398v97l219 248h-209v114h378v-91zM233 690q31 0 54 -23.5t23 -54.5t-23 -54.5t-54 -23.5t-54.5 23.5t-23.5 54.5t23.5 54.5t54.5 23.5z" />
    <glyph glyph-name="Zcaron" unicode="&#x17d;" horiz-adv-x="587" 
d="M204 121h344v-121h-510v104l334 459h-321v122h487v-105zM409 949l53 -64l-169 -144l-170 144l53 64l118 -86z" />
    <glyph glyph-name="zcaron" unicode="&#x17e;" horiz-adv-x="467" 
d="M197 114h235v-114h-398v97l219 248h-209v114h378v-91zM350 724l53 -64l-169 -144l-170 144l53 64l118 -86z" />
    <glyph glyph-name="uni0191" unicode="&#x191;" horiz-adv-x="535" 
d="M21 -89q29 0 46 22.5t17 61.5v690h414v-122h-277v-172h257v-122h-257v-285q0 -91 -49.5 -142.5t-137.5 -51.5q-37 0 -74.5 13.5t-65.5 37.5l67 94q17 -12 31.5 -18t28.5 -6z" />
    <glyph glyph-name="uni0192" unicode="&#x192;" horiz-adv-x="387" 
d="M375 459v-114h-128v-355q0 -94 -51 -147t-142 -53q-36 0 -74 14.5t-69 40.5l66 92q19 -14 37 -21.5t34 -7.5q31 0 48.5 24t17.5 67v346h-98v109l87 5l-2 5q-10 27 -15 50t-5 43q0 71 48.5 114.5t128.5 43.5q39 0 78.5 -13.5t75.5 -38.5l-57 -95q-16 13 -35.5 20.5
t-37.5 7.5q-30 0 -49 -19t-19 -49q0 -14 4 -31t13 -38h144z" />
    <glyph glyph-name="uni0218" unicode="&#x218;" horiz-adv-x="567" 
d="M285 576q-43 0 -69 -19.5t-26 -53.5q0 -33 28 -54.5t121 -52.5q105 -35 149 -81.5t44 -118.5q0 -88 -68.5 -147t-170.5 -59q-76 0 -143.5 27.5t-119.5 80.5l74 92q41 -41 88 -61.5t101 -20.5q47 0 75.5 22.5t28.5 59.5q0 30 -26 50t-110 49q-116 39 -161 86t-45 123
q0 85 65 141t164 56q63 0 121 -24t105 -70l-78 -92q-38 35 -73.5 51t-73.5 16zM213 -118q0 28 21 48.5t50 20.5q30 0 51.5 -22t21.5 -53q0 -19 -6 -36.5t-20 -36.5l-59 -93l-65 31l41 81q-17 10 -26 25.5t-9 34.5z" />
    <glyph glyph-name="uni0219" unicode="&#x219;" horiz-adv-x="439" 
d="M202 184q-87 24 -120 58t-33 88q0 61 50 100t128 39q46 0 90.5 -14t80.5 -39l-60 -90q-25 19 -56 30.5t-57 11.5q-24 0 -36.5 -9t-12.5 -26q0 -16 17 -28t68 -26q77 -20 112.5 -55t35.5 -88q0 -67 -49.5 -106.5t-135.5 -39.5q-55 0 -104 16.5t-96 50.5l61 91
q32 -26 68.5 -41t70.5 -15q27 0 42.5 11t15.5 29q0 16 -14 26.5t-66 25.5zM145 -118q0 28 21 48.5t50 20.5q30 0 51.5 -22t21.5 -53q0 -19 -6 -36.5t-20 -36.5l-59 -93l-65 31l41 81q-17 10 -26 25.5t-9 34.5z" />
    <glyph glyph-name="uni021A" unicode="&#x21a;" horiz-adv-x="579" 
d="M221 563h-201v122h539v-122h-201v-563h-137v563zM218 -118q0 28 21 48.5t50 20.5q30 0 51.5 -22t21.5 -53q0 -19 -6 -36.5t-20 -36.5l-59 -93l-65 31l41 81q-17 10 -26 25.5t-9 34.5z" />
    <glyph glyph-name="uni021B" unicode="&#x21b;" horiz-adv-x="445" 
d="M110 345h-92v109l92 5h7l16 131h110v-131h148v-114h-148v-162q0 -34 15.5 -53.5t43.5 -19.5q15 0 30.5 6.5t32.5 20.5l63 -94q-29 -25 -66.5 -39t-76.5 -14q-83 0 -129 50t-46 140v165zM156 -118q0 28 21 48.5t50 20.5q30 0 51.5 -22t21.5 -53q0 -19 -6 -36.5t-20 -36.5
l-59 -93l-65 31l41 81q-17 10 -26 25.5t-9 34.5z" />
    <glyph glyph-name="dotlessj" unicode="&#x237;" horiz-adv-x="272" 
d="M11 -89q29 0 45.5 22.5t16.5 61.5v464h133v-475q0 -91 -48 -142.5t-134 -51.5q-38 0 -75 13.5t-65 37.5l66 94q17 -12 32 -18t29 -6z" />
    <glyph glyph-name="circumflex" unicode="&#x2c6;" horiz-adv-x="500" 
d="M250 724l169 -144l-53 -64l-118 86l-115 -86l-53 64z" />
    <glyph glyph-name="caron" unicode="&#x2c7;" horiz-adv-x="500" 
d="M366 724l53 -64l-169 -144l-170 144l53 64l118 -86z" />
    <glyph glyph-name="breve" unicode="&#x2d8;" horiz-adv-x="500" 
d="M199 684v-10q0 -31 13.5 -47.5t37.5 -16.5t37 16.5t13 46.5v11h96v-21q0 -62 -41 -101.5t-105 -39.5q-65 0 -106 39.5t-41 102.5v20h96z" />
    <glyph glyph-name="dotaccent" unicode="&#x2d9;" horiz-adv-x="500" 
d="M250 690q31 0 54 -23.5t23 -54.5t-23 -54.5t-54 -23.5t-54.5 23.5t-23.5 54.5t23.5 54.5t54.5 23.5z" />
    <glyph glyph-name="ring" unicode="&#x2da;" horiz-adv-x="500" 
d="M250 508q-50 0 -84.5 33.5t-34.5 81.5t34.5 81.5t84.5 33.5q49 0 83.5 -33.5t34.5 -81.5t-34.5 -81.5t-83.5 -33.5zM250 576q19 0 32 13.5t13 33.5t-13 33.5t-32 13.5q-20 0 -33 -13t-13 -34t13 -34t33 -13z" />
    <glyph glyph-name="ogonek" unicode="&#x2db;" horiz-adv-x="500" 
d="M142 -113q0 34 21 64t61 53l96 -4q-36 -20 -56 -45t-20 -49q0 -14 8.5 -22t22.5 -8q8 0 15 1.5t14 4.5l29 -74q-19 -9 -37.5 -13.5t-36.5 -4.5q-51 0 -84 27t-33 70z" />
    <glyph glyph-name="tilde" unicode="&#x2dc;" horiz-adv-x="500" 
d="M343 687l78 -36q-23 -57 -48.5 -82t-61.5 -25q-15 0 -29.5 4.5t-39.5 17.5q-18 9 -26.5 12t-16.5 3q-15 0 -24.5 -9.5t-19.5 -32.5l-78 36q21 54 47.5 79t62.5 25q15 0 29.5 -4t39.5 -17q18 -9 27 -12t17 -3q14 0 23.5 10t19.5 34z" />
    <glyph glyph-name="hungarumlaut" unicode="&#x2dd;" horiz-adv-x="500" 
d="M132 518l-69 44l104 180l92 -60zM319 518l-69 44l104 180l93 -60z" />
    <glyph glyph-name="pi" unicode="&#x3c0;" horiz-adv-x="683" 
d="M133 348h-113v111h613v-111h-120v-199q0 -26 10.5 -40.5t30.5 -14.5q10 0 20 4.5t24 14.5l58 -79q-24 -21 -55 -32.5t-63 -11.5q-71 0 -109.5 41.5t-38.5 117.5v199h-133v-348h-124v348z" />
    <glyph glyph-name="uni0400" unicode="&#x400;" horiz-adv-x="564" 
d="M514 0h-431v685h431v-122h-294v-152h268v-122h-268v-167h294v-122zM224 953l184 -138l-45 -71l-199 110z" />
    <glyph glyph-name="afii10023" unicode="&#x401;" horiz-adv-x="564" 
d="M514 0h-431v685h431v-122h-294v-152h268v-122h-268v-167h294v-122zM189 903q28 0 48.5 -20.5t20.5 -48.5t-20.5 -49t-48.5 -21t-49.5 21t-21.5 49t21 48.5t50 20.5zM384 903q29 0 50 -20.5t21 -48.5t-21 -49t-50 -21q-28 0 -48.5 21t-20.5 49t20.5 48.5t48.5 20.5z" />
    <glyph glyph-name="afii10051" unicode="&#x402;" horiz-adv-x="758" 
d="M530 436q86 0 136.5 -55t50.5 -149v-164q0 -90 -52.5 -142t-142.5 -52q-36 0 -69 12.5t-63 36.5l65 89q12 -10 25 -15.5t28 -5.5q35 0 53.5 20.5t18.5 58.5v136q0 51 -26.5 80t-71.5 29q-37 0 -70 -19.5t-54 -54.5v-241h-137v563h-201v122h539v-122h-201v-209
q29 38 75.5 60t96.5 22z" />
    <glyph glyph-name="afii10052" unicode="&#x403;" horiz-adv-x="515" 
d="M220 0h-137v685h412v-122h-275v-563zM227 744l-45 71l184 138l60 -99z" />
    <glyph glyph-name="afii10053" unicode="&#x404;" horiz-adv-x="668" 
d="M561 197l86 -92q-56 -58 -120 -86.5t-137 -28.5q-149 0 -249 100.5t-100 251.5t100 252t249 101q70 0 133 -27t114 -79l-84 -92q-36 36 -76.5 54t-86.5 18q-73 0 -127.5 -44.5t-72.5 -118.5h317v-122h-319q17 -76 72.5 -122t129.5 -46q49 0 90 19.5t81 61.5z" />
    <glyph glyph-name="afii10054" unicode="&#x405;" horiz-adv-x="567" 
d="M285 576q-43 0 -69 -19.5t-26 -53.5q0 -33 28 -54.5t121 -52.5q105 -35 149 -81.5t44 -118.5q0 -88 -68.5 -147t-170.5 -59q-76 0 -143.5 27.5t-119.5 80.5l74 92q41 -41 88 -61.5t101 -20.5q47 0 75.5 22.5t28.5 59.5q0 30 -26 50t-110 49q-116 39 -161 86t-45 123
q0 85 65 141t164 56q63 0 121 -24t105 -70l-78 -92q-38 35 -73.5 51t-73.5 16z" />
    <glyph glyph-name="afii10055" unicode="&#x406;" horiz-adv-x="303" 
d="M220 0h-137v685h137v-685z" />
    <glyph glyph-name="afii10056" unicode="&#x407;" horiz-adv-x="303" 
d="M220 0h-137v685h137v-685zM54 903q28 0 48.5 -20.5t20.5 -48.5t-20.5 -49t-48.5 -21t-49.5 21t-21.5 49t21 48.5t50 20.5zM249 903q29 0 50 -20.5t21 -48.5t-21 -49t-50 -21q-28 0 -48.5 21t-20.5 49t20.5 48.5t48.5 20.5z" />
    <glyph glyph-name="afii10057" unicode="&#x408;" horiz-adv-x="502" 
d="M433 685v-465q0 -113 -58 -171.5t-169 -58.5q-55 0 -104 22t-91 65l84 92q24 -27 52 -40.5t58 -13.5q43 0 67 27.5t24 78.5v464h137z" />
    <glyph glyph-name="afii10058" unicode="&#x409;" horiz-adv-x="960" 
d="M933 209q0 -97 -70.5 -153t-189.5 -56h-157l-184 517l-185 -517h-135l256 685h135l100 -267h170q119 0 189.5 -56.5t70.5 -152.5zM796 209q0 42 -32 65t-89 23h-127l66 -176h61q57 0 89 23t32 65z" />
    <glyph glyph-name="afii10059" unicode="&#x40a;" horiz-adv-x="1062" 
d="M1034 209q0 -97 -70.5 -153t-189.5 -56h-250v291h-304v-291h-137v685h137v-272h304v272h137v-267h113q119 0 189.5 -56.5t70.5 -152.5zM897 209q0 42 -32 65t-90 23h-114v-176h114q57 0 89.5 23t32.5 65z" />
    <glyph glyph-name="afii10060" unicode="&#x40b;" horiz-adv-x="751" 
d="M475 315q-35 0 -65.5 -19t-51.5 -54v-242h-137v563h-201v122h539v-122h-201v-209q29 38 73.5 60t92.5 22q85 0 135.5 -54.5t50.5 -146.5v-235h-137v209q0 49 -26.5 77.5t-71.5 28.5z" />
    <glyph glyph-name="afii10061" unicode="&#x40c;" horiz-adv-x="667" 
d="M233 289h-13v-289h-137v685h137v-274h11q53 0 80 16.5t58 67.5l116 190h147l-116 -189q-25 -41 -46.5 -71.5t-41.5 -53.5l227 -371h-157l-182 298q-19 -5 -39.5 -7t-43.5 -2zM290 744l-45 71l184 138l60 -99z" />
    <glyph glyph-name="uni040D" unicode="&#x40d;" horiz-adv-x="730" 
d="M646 0h-129v484l-302 -484h-132v685h129v-483l303 483h131v-685zM293 953l184 -138l-45 -71l-199 110z" />
    <glyph glyph-name="afii10062" unicode="&#x40e;" horiz-adv-x="652" 
d="M493 685h138l-298 -685h-135l72 168l-250 517h152l165 -362zM336 741q-72 0 -119 39.5t-47 100.5v24h101v-18q0 -31 17 -48t48 -17q32 0 48.5 16t16.5 47v20h103v-26q0 -62 -47 -100t-121 -38z" />
    <glyph glyph-name="afii10145" unicode="&#x40f;" horiz-adv-x="735" 
d="M651 685v-685h-218v-170h-132v170h-218v685h137v-563h294v563h137z" />
    <glyph glyph-name="afii10017" unicode="&#x410;" horiz-adv-x="707" 
d="M695 0h-142l-55 141h-296l-55 -141h-135l274 685h135zM350 523l-102 -264h204z" />
    <glyph glyph-name="afii10018" unicode="&#x411;" horiz-adv-x="609" 
d="M306 0h-223v685h428v-122h-294v-145h89q119 0 190 -56.5t71 -152.5q0 -97 -70.5 -153t-190.5 -56zM429 209q0 42 -32 65t-89 23h-91v-176h91q57 0 89 23t32 65z" />
    <glyph glyph-name="afii10019" unicode="&#x412;" horiz-adv-x="618" 
d="M310 0h-227v685h217q115 0 179.5 -48t64.5 -134q0 -47 -25.5 -84.5t-73.5 -62.5q61 -25 95 -67t34 -94q0 -90 -71.5 -142.5t-192.5 -52.5zM410 489q0 37 -28 58t-77 21h-88v-158h88q49 0 77 21t28 58zM440 205q0 42 -33 65.5t-92 23.5h-98v-178h98q60 0 92.5 23.5
t32.5 65.5z" />
    <glyph glyph-name="afii10020" unicode="&#x413;" horiz-adv-x="515" 
d="M220 0h-137v685h412v-122h-275v-563z" />
    <glyph glyph-name="afii10021" unicode="&#x414;" horiz-adv-x="740" 
d="M302 685h135l217 -563h65v-292h-132v170h-434v-170h-132v292h64zM366 519l-148 -397h296z" />
    <glyph glyph-name="afii10022" unicode="&#x415;" horiz-adv-x="564" 
d="M514 0h-431v685h431v-122h-294v-152h268v-122h-268v-167h294v-122z" />
    <glyph glyph-name="afii10024" unicode="&#x416;" horiz-adv-x="1010" 
d="M437 289h-1q-19 0 -36.5 1.5t-32.5 4.5l-194 -295h-161l242 362q-21 22 -45 54t-54 80l-120 189h146l119 -190q32 -52 57.5 -68t77.5 -16h2v274h137v-274h1q52 0 77.5 16t57.5 68l119 190h146l-120 -189q-30 -48 -54 -80t-45 -54l242 -362h-161l-193 295
q-16 -3 -33.5 -4.5t-36.5 -1.5v-289h-137v289z" />
    <glyph glyph-name="afii10025" unicode="&#x417;" horiz-adv-x="612" 
d="M433 201q0 43 -37.5 66t-105.5 23h-104v122h94q60 0 95.5 21.5t35.5 58.5t-31.5 59t-83.5 22q-44 0 -92 -21t-87 -57l-70 95q54 50 120.5 77.5t135.5 27.5q110 0 176.5 -50.5t66.5 -133.5q0 -51 -28.5 -91t-81.5 -64q64 -22 98.5 -65.5t34.5 -101.5q0 -89 -73.5 -144
t-192.5 -55q-76 0 -146 29t-125 83l73 94q41 -40 91.5 -62t99.5 -22q63 0 100 24t37 65z" />
    <glyph glyph-name="afii10026" unicode="&#x418;" horiz-adv-x="730" 
d="M646 0h-129v484l-302 -484h-132v685h129v-483l303 483h131v-685z" />
    <glyph glyph-name="afii10027" unicode="&#x419;" horiz-adv-x="730" 
d="M646 0h-129v484l-302 -484h-132v685h129v-483l303 483h131v-685zM373 731q-72 0 -119 39.5t-47 100.5v24h101v-18q0 -31 17 -48t48 -17q32 0 48.5 16t16.5 47v20h103v-26q0 -62 -47 -100t-121 -38z" />
    <glyph glyph-name="afii10028" unicode="&#x41a;" horiz-adv-x="667" 
d="M233 289h-13v-289h-137v685h137v-274h11q53 0 80 16.5t58 67.5l116 190h147l-116 -189q-25 -41 -46.5 -71.5t-41.5 -53.5l227 -371h-157l-182 298q-19 -5 -39.5 -7t-43.5 -2z" />
    <glyph glyph-name="afii10029" unicode="&#x41b;" horiz-adv-x="671" 
d="M659 0h-143l-184 517l-185 -517h-135l256 685h135z" />
    <glyph glyph-name="afii10030" unicode="&#x41c;" horiz-adv-x="939" 
d="M534 0h-133l-158 457l-66 -457h-133l109 685h134l183 -537l182 537h133l110 -685h-137l-70 446z" />
    <glyph glyph-name="afii10031" unicode="&#x41d;" horiz-adv-x="744" 
d="M661 0h-137v291h-304v-291h-137v685h137v-272h304v272h137v-685z" />
    <glyph glyph-name="afii10032" unicode="&#x41e;" horiz-adv-x="780" 
d="M390 -10q-149 0 -249 100.5t-100 251.5t100 252t249 101t249 -101t100 -252t-100 -251.5t-249 -100.5zM390 116q89 0 148.5 64.5t59.5 161.5t-59.5 162t-148.5 65t-148.5 -65t-59.5 -162t59.5 -161.5t148.5 -64.5z" />
    <glyph glyph-name="afii10033" unicode="&#x41f;" horiz-adv-x="736" 
d="M220 0h-137v685h570v-685h-137v563h-296v-563z" />
    <glyph glyph-name="afii10034" unicode="&#x420;" horiz-adv-x="591" 
d="M217 0h-134v685h213q122 0 192 -59.5t70 -163.5q0 -103 -71 -163t-191 -60h-79v-239zM420 462q0 48 -32.5 74.5t-90.5 26.5h-80v-203h80q59 0 91 26.5t32 75.5z" />
    <glyph glyph-name="afii10035" unicode="&#x421;" horiz-adv-x="668" 
d="M390 569q-89 0 -148.5 -65t-59.5 -162t59.5 -161.5t148.5 -64.5q49 0 90 19.5t81 61.5l86 -92q-56 -58 -120 -86.5t-137 -28.5q-149 0 -249 100.5t-100 251.5t100 252t249 101q70 0 133 -27t114 -79l-84 -92q-36 36 -76.5 54t-86.5 18z" />
    <glyph glyph-name="afii10036" unicode="&#x422;" horiz-adv-x="579" 
d="M221 563h-201v122h539v-122h-201v-563h-137v563z" />
    <glyph glyph-name="afii10037" unicode="&#x423;" horiz-adv-x="652" 
d="M493 685h138l-298 -685h-135l72 168l-250 517h152l165 -362z" />
    <glyph glyph-name="afii10038" unicode="&#x424;" horiz-adv-x="855" 
d="M820 347q0 -123 -91 -198t-236 -77v-85h-132v85q-145 2 -235.5 77t-90.5 198t91 198t235 77v83h132v-83q145 -2 236 -77t91 -198zM172 347q0 -72 52.5 -116.5t135.5 -44.5h1v322h-1q-84 0 -136 -44t-52 -117zM683 347q0 73 -52.5 117t-136.5 44h-1v-322h1q84 0 136.5 44
t52.5 117z" />
    <glyph glyph-name="afii10039" unicode="&#x425;" horiz-adv-x="681" 
d="M662 0h-157l-169 249l-169 -249h-149l244 360l-220 325h157l146 -215l145 215h149l-220 -325z" />
    <glyph glyph-name="afii10040" unicode="&#x426;" horiz-adv-x="747" 
d="M506 685h137v-563h94v-292h-132v170h-522v685h137v-563h286v563z" />
    <glyph glyph-name="afii10041" unicode="&#x427;" horiz-adv-x="703" 
d="M483 685h137v-685h-137v276q-37 -16 -78.5 -25t-79.5 -9q-114 0 -181.5 66.5t-67.5 177.5v199h137v-186q0 -66 36 -101.5t101 -35.5q37 0 70.5 8.5t62.5 25.5v289z" />
    <glyph glyph-name="afii10042" unicode="&#x428;" horiz-adv-x="937" 
d="M716 685h137v-685h-770v685h137v-563h180v563h137v-563h179v563z" />
    <glyph glyph-name="afii10043" unicode="&#x429;" horiz-adv-x="957" 
d="M716 685h137v-563h94v-292h-132v170h-732v685h137v-563h180v563h137v-563h179v563z" />
    <glyph glyph-name="afii10044" unicode="&#x42a;" horiz-adv-x="706" 
d="M172 563h-159v122h293v-267h113q119 0 189.5 -56.5t70.5 -152.5q0 -97 -70.5 -153t-189.5 -56h-247v563zM542 209q0 42 -32 65t-90 23h-114v-176h114q57 0 89.5 23t32.5 65z" />
    <glyph glyph-name="afii10045" unicode="&#x42b;" horiz-adv-x="886" 
d="M803 2h-137v685h137v-685zM590 209q0 -97 -70.5 -153t-189.5 -56h-247v685h134v-267h113q119 0 189.5 -56.5t70.5 -152.5zM453 209q0 42 -32 65t-90 23h-114v-176h114q57 0 89.5 23t32.5 65z" />
    <glyph glyph-name="afii10046" unicode="&#x42c;" horiz-adv-x="617" 
d="M590 209q0 -97 -70.5 -153t-189.5 -56h-247v685h134v-267h113q119 0 189.5 -56.5t70.5 -152.5zM453 209q0 42 -32 65t-90 23h-114v-176h114q57 0 89.5 23t32.5 65z" />
    <glyph glyph-name="afii10047" unicode="&#x42d;" horiz-adv-x="668" 
d="M278 695q149 0 249 -101t100 -252t-100 -251.5t-249 -100.5q-73 0 -137 28.5t-120 86.5l86 92q40 -42 81 -61.5t90 -19.5q78 0 135.5 46t74.5 122h-319v122h317q-19 74 -76 118.5t-132 44.5q-46 0 -86.5 -18t-76.5 -54l-84 92q51 52 114 79t133 27z" />
    <glyph glyph-name="afii10048" unicode="&#x42e;" horiz-adv-x="1068" 
d="M678 695q149 0 249 -101t100 -252t-100 -251.5t-249 -100.5q-134 0 -230 83t-115 214h-113v-287h-137v685h137v-276h115q22 127 117.5 206.5t225.5 79.5zM678 116q89 0 148.5 64.5t59.5 161.5t-59.5 162t-148.5 65t-148.5 -65t-59.5 -162t59.5 -161.5t148.5 -64.5z" />
    <glyph glyph-name="afii10049" unicode="&#x42f;" horiz-adv-x="647" 
d="M64 479q0 93 68 149.5t180 56.5h251v-685h-133v262h-82l-173 -262h-150l193 283q-72 20 -113 72t-41 124zM201 473q0 -41 29 -65.5t77 -24.5h123v180h-123q-48 0 -77 -24.5t-29 -65.5z" />
    <glyph glyph-name="afii10065" unicode="&#x430;" horiz-adv-x="585" 
d="M519 0h-117l-15 62q-25 -35 -61 -53.5t-77 -18.5q-92 0 -153.5 68.5t-61.5 170.5q0 103 61.5 171.5t153.5 68.5q42 0 77.5 -18.5t60.5 -53.5l15 62h117v-459zM164 229q0 -52 32.5 -86.5t81.5 -34.5t81.5 34.5t32.5 86.5q0 53 -32.5 87.5t-81.5 34.5t-81.5 -34.5
t-32.5 -87.5z" />
    <glyph glyph-name="afii10066" unicode="&#x431;" horiz-adv-x="556" 
d="M278 469q106 0 175 -68t69 -172q0 -103 -69.5 -171t-174.5 -68t-174.5 68t-69.5 171q0 32 7 61.5t21 55.5q-14 31 -21 59.5t-7 57.5q0 81 51.5 133.5t145.5 67.5l235 37l21 -112l-216 -34q-61 -10 -89.5 -31.5t-28.5 -59.5q0 -7 0.5 -13t2.5 -12q27 15 58 22.5t64 7.5z
M278 351q-49 0 -81.5 -34.5t-32.5 -87.5t32.5 -87t81.5 -34t81.5 34t32.5 87t-32.5 87.5t-81.5 34.5z" />
    <glyph glyph-name="afii10067" unicode="&#x432;" horiz-adv-x="544" 
d="M303 0h-237v459h254q76 0 121.5 -32t45.5 -86q0 -35 -22 -62t-64 -42q51 -14 78.5 -42t27.5 -67q0 -62 -52.5 -95t-151.5 -33zM357 324q0 20 -18 30.5t-53 10.5h-91v-84h91q35 0 53 11t18 32zM374 140q0 24 -20.5 35.5t-62.5 11.5h-96v-93h96q42 0 62.5 11.5t20.5 34.5z
" />
    <glyph glyph-name="afii10068" unicode="&#x433;" horiz-adv-x="423" 
d="M199 0h-133v459h344v-114h-211v-345z" />
    <glyph glyph-name="afii10069" unicode="&#x434;" horiz-adv-x="583" 
d="M570 -143h-118v143h-321v-143h-118v247h56l149 355h143l152 -355h57v-247zM288 349l-97 -245h195z" />
    <glyph glyph-name="afii10070" unicode="&#x435;" horiz-adv-x="532" 
d="M399 147l65 -84q-36 -36 -83.5 -54.5t-102.5 -18.5q-105 0 -174.5 68t-69.5 171q0 102 67 171t167 69t167 -69t67 -171q0 -14 -1 -26t-2 -18h-341q12 -41 44 -65t76 -24q35 0 63.5 12t57.5 39zM268 363q-38 0 -67 -22.5t-41 -61.5h216q-12 39 -40.5 61.5t-67.5 22.5z" />
    <glyph glyph-name="afii10072" unicode="&#x436;" horiz-adv-x="819" 
d="M345 183h-10q-7 0 -15 0.5t-20 1.5l-126 -185h-155l170 239q-22 22 -46.5 54t-55.5 79l-57 87h139l57 -87q28 -43 49.5 -59t51.5 -16h18v162h130v-162h18q30 0 50.5 15.5t49.5 59.5l58 87h138l-57 -87q-33 -50 -57 -81t-45 -51l170 -240h-155l-126 185l-21 -1.5t-13 -0.5
h-10v-183h-130v183z" />
    <glyph glyph-name="afii10073" unicode="&#x437;" horiz-adv-x="507" 
d="M333 139q0 23 -23 34.5t-67 11.5h-85v94h82q40 0 61.5 11.5t21.5 32.5t-20.5 33.5t-55.5 12.5q-36 0 -70 -13t-66 -38l-59 78q48 37 97 55t103 18q89 0 144.5 -34.5t55.5 -90.5q0 -33 -21.5 -61t-61.5 -46q49 -14 75 -42t26 -67q0 -62 -60.5 -100t-160.5 -38
q-68 0 -122.5 19.5t-98.5 59.5l63 79q34 -28 73.5 -43t82.5 -15q41 0 63.5 13t22.5 36z" />
    <glyph glyph-name="afii10074" unicode="&#x438;" horiz-adv-x="569" 
d="M503 0h-122v278l-192 -278h-123v459h123v-277l192 277h122v-459z" />
    <glyph glyph-name="afii10075" unicode="&#x439;" horiz-adv-x="569" 
d="M503 0h-122v278l-192 -278h-123v459h123v-277l192 277h122v-459zM285 516q-72 0 -119 39.5t-47 100.5v24h101v-18q0 -31 17 -48t48 -17q32 0 48.5 16t16.5 47v20h103v-26q0 -62 -47 -100t-121 -38z" />
    <glyph glyph-name="afii10076" unicode="&#x43a;" horiz-adv-x="559" 
d="M216 180h-17v-180h-133v459h133v-165h18q37 0 63 17.5t53 60.5l55 87h141l-55 -87q-24 -41 -46.5 -72t-43.5 -53l164 -247h-156l-115 185q-16 -3 -31 -4t-30 -1z" />
    <glyph glyph-name="afii10077" unicode="&#x43b;" horiz-adv-x="518" 
d="M507 0h-136l-116 318l-116 -318h-129l175 459h143z" />
    <glyph glyph-name="afii10078" unicode="&#x43c;" horiz-adv-x="740" 
d="M429 0h-121l-107 299l-57 -299h-129l105 459h133l117 -305l112 305h133l110 -459h-132l-62 304z" />
    <glyph glyph-name="afii10079" unicode="&#x43d;" horiz-adv-x="576" 
d="M510 0h-131v178h-181v-178h-132v459h132v-167h181v167h131v-459z" />
    <glyph glyph-name="afii10080" unicode="&#x43e;" horiz-adv-x="556" 
d="M278 469q106 0 175 -68t69 -172q0 -103 -69.5 -171t-174.5 -68t-174.5 68t-69.5 171q0 104 69 172t175 68zM278 351q-49 0 -81.5 -34.5t-32.5 -87.5q0 -52 32.5 -86.5t81.5 -34.5t81.5 34.5t32.5 86.5q0 53 -32.5 87.5t-81.5 34.5z" />
    <glyph glyph-name="afii10081" unicode="&#x43f;" horiz-adv-x="579" 
d="M198 0h-132v459h447v-459h-132v345h-183v-345z" />
    <glyph glyph-name="afii10082" unicode="&#x440;" horiz-adv-x="585" 
d="M551 229q0 -102 -61.5 -170.5t-153.5 -68.5q-42 0 -77 18t-60 53v-261h-133v659h117l15 -62q25 35 60.5 53.5t77.5 18.5q92 0 153.5 -68.5t61.5 -171.5zM307 351q-49 0 -81.5 -34.5t-32.5 -87.5q0 -52 32.5 -86.5t81.5 -34.5t81.5 34.5t32.5 86.5q0 53 -32.5 87.5
t-81.5 34.5z" />
    <glyph glyph-name="afii10083" unicode="&#x441;" horiz-adv-x="479" 
d="M278 351q-49 0 -81.5 -34.5t-32.5 -87.5q0 -52 32.5 -86.5t81.5 -34.5q27 0 51.5 11.5t47.5 34.5l85 -86q-38 -40 -83.5 -59t-100.5 -19q-105 0 -174.5 68t-69.5 171q0 104 69 172t175 68q48 0 92.5 -18.5t81.5 -52.5l-85 -86q-21 20 -43 29.5t-46 9.5z" />
    <glyph glyph-name="afii10084" unicode="&#x442;" horiz-adv-x="484" 
d="M176 345h-153v114h438v-114h-153v-345h-132v345z" />
    <glyph glyph-name="afii10085" unicode="&#x443;" horiz-adv-x="567" 
d="M534 13q0 -99 -77 -161t-200 -62q-64 0 -124.5 19.5t-114.5 56.5l61 99q40 -30 83.5 -45t88.5 -15q68 0 110.5 31.5t42.5 81.5q0 21 -4 38.5t-12 34.5q-26 -47 -68 -74t-90 -27q-80 0 -126 52t-46 143v274h133v-254q0 -45 21 -69.5t59 -24.5q29 0 53.5 15.5t43.5 45.5
v287h133v-308l6 -14q13 -30 20 -62t7 -62z" />
    <glyph glyph-name="afii10086" unicode="&#x444;" horiz-adv-x="700" 
d="M666 229q0 -102 -71.5 -169t-182.5 -70v-190h-124v190q-111 3 -182.5 70t-71.5 169t71.5 169.5t182.5 70.5v201h124v-201q111 -3 182.5 -70.5t71.5 -169.5zM542 229q0 55 -36 90.5t-94 37.5v-255q58 2 94 37.5t36 89.5zM158 229q0 -54 36 -89.5t94 -37.5v255
q-58 -2 -94 -37.5t-36 -90.5z" />
    <glyph glyph-name="afii10087" unicode="&#x445;" horiz-adv-x="520" 
d="M509 0h-154l-102 141l-100 -141h-142l172 239l-159 220h154l88 -122l87 122h142l-158 -220z" />
    <glyph glyph-name="afii10088" unicode="&#x446;" horiz-adv-x="602" 
d="M588 -143h-124v143h-398v459h132v-345h174v345h132v-345h84v-257z" />
    <glyph glyph-name="afii10089" unicode="&#x447;" horiz-adv-x="544" 
d="M345 459h133v-459h-133v194q-30 -28 -62.5 -41t-71.5 -13q-78 0 -125.5 51t-47.5 135v133h133v-114q0 -39 21.5 -61.5t58.5 -22.5q28 0 50.5 10.5t43.5 33.5v154z" />
    <glyph glyph-name="afii10090" unicode="&#x448;" horiz-adv-x="812" 
d="M614 459h132v-459h-680v459h132v-345h142v345h132v-345h142v345z" />
    <glyph glyph-name="afii10091" unicode="&#x449;" horiz-adv-x="840" 
d="M830 -143h-123v143h-641v459h132v-345h142v345h132v-345h142v345h132v-345h84v-257z" />
    <glyph glyph-name="afii10092" unicode="&#x44a;" horiz-adv-x="581" 
d="M141 348h-141v111h273v-157h101q87 0 139 -40.5t52 -110.5t-51.5 -110.5t-135.5 -40.5h-237v348zM435 151q0 28 -22 42.5t-63 14.5h-77v-114h77q41 0 63 14.5t22 42.5z" />
    <glyph glyph-name="afii10093" unicode="&#x44b;" horiz-adv-x="753" 
d="M490 151q0 -70 -51.5 -110.5t-135.5 -40.5h-237v459h132v-157h101q87 0 139 -40.5t52 -110.5zM360 151q0 28 -22 42.5t-63 14.5h-77v-114h77q41 0 63 14.5t22 42.5zM552 459h133v-459h-133v459z" />
    <glyph glyph-name="afii10094" unicode="&#x44c;" horiz-adv-x="505" 
d="M490 151q0 -70 -51.5 -110.5t-135.5 -40.5h-237v459h132v-157h101q87 0 139 -40.5t52 -110.5zM360 151q0 28 -22 42.5t-63 14.5h-77v-114h77q41 0 63 14.5t22 42.5z" />
    <glyph glyph-name="afii10095" unicode="&#x44d;" horiz-adv-x="505" 
d="M229 469q105 0 173.5 -68t68.5 -172t-69 -171.5t-175 -67.5q-59 0 -109 20t-86 58l77 76q23 -23 52.5 -35.5t61.5 -12.5q45 0 79.5 25.5t46.5 67.5h-198v84h197q-13 41 -47 65.5t-78 24.5q-29 0 -56 -10.5t-48 -29.5l-77 75q34 34 82.5 52.5t104.5 18.5z" />
    <glyph glyph-name="afii10096" unicode="&#x44e;" horiz-adv-x="786" 
d="M507 469q106 0 175 -68t69 -172q0 -103 -69.5 -171t-174.5 -68q-91 0 -156.5 52t-82.5 136h-69v-178h-133v459h133v-167h72q20 80 84.5 128.5t151.5 48.5zM507 351q-49 0 -81.5 -34.5t-32.5 -87.5q0 -52 32.5 -86.5t81.5 -34.5t81.5 34.5t32.5 86.5q0 53 -32.5 87.5
t-81.5 34.5z" />
    <glyph glyph-name="afii10097" unicode="&#x44f;" horiz-adv-x="546" 
d="M52 310q0 69 53.5 109t141.5 40h235v-459h-131v159h-66l-111 -159h-146l135 180q-54 15 -82.5 48.5t-28.5 81.5zM186 309q0 -26 20.5 -39.5t57.5 -13.5h87v107h-87q-37 0 -57.5 -14t-20.5 -40z" />
    <glyph glyph-name="uni0450" unicode="&#x450;" horiz-adv-x="532" 
d="M399 147l65 -84q-36 -36 -83.5 -54.5t-102.5 -18.5q-105 0 -174.5 68t-69.5 171q0 102 67 171t167 69t167 -69t67 -171q0 -14 -1 -26t-2 -18h-341q12 -41 44 -65t76 -24q35 0 63.5 12t57.5 39zM268 363q-38 0 -67 -22.5t-41 -61.5h216q-12 39 -40.5 61.5t-67.5 22.5z
M208 728l184 -138l-45 -71l-199 110z" />
    <glyph glyph-name="afii10071" unicode="&#x451;" horiz-adv-x="532" 
d="M399 147l65 -84q-36 -36 -83.5 -54.5t-102.5 -18.5q-105 0 -174.5 68t-69.5 171q0 102 67 171t167 69t167 -69t67 -171q0 -14 -1 -26t-2 -18h-341q12 -41 44 -65t76 -24q35 0 63.5 12t57.5 39zM268 363q-38 0 -67 -22.5t-41 -61.5h216q-12 39 -40.5 61.5t-67.5 22.5z
M170 678q28 0 48.5 -20.5t20.5 -48.5t-20.5 -49t-48.5 -21t-49.5 21t-21.5 49t21 48.5t50 20.5zM365 678q29 0 50 -20.5t21 -48.5t-21 -49t-50 -21q-28 0 -48.5 21t-20.5 49t20.5 48.5t48.5 20.5z" />
    <glyph glyph-name="afii10099" unicode="&#x452;" horiz-adv-x="585" 
d="M366 369q75 0 118 -51t43 -140v-203q0 -87 -46.5 -136t-128.5 -49q-35 0 -68 12t-63 36l65 91q11 -11 25 -16.5t28 -5.5q28 0 43 18t15 52v182q0 42 -21 65.5t-60 23.5q-28 0 -52.5 -16.5t-43.5 -47.5v-184h-133v444h-81v97h81v164h133v-164h162v-97h-162v-151
q28 36 66.5 56t79.5 20z" />
    <glyph glyph-name="afii10100" unicode="&#x453;" horiz-adv-x="426" 
d="M199 0h-133v459h344v-114h-211v-345zM174 519l-45 71l184 138l60 -99z" />
    <glyph glyph-name="afii10101" unicode="&#x454;" horiz-adv-x="491" 
d="M388 144l77 -76q-37 -39 -83 -58.5t-102 -19.5q-106 0 -176.5 68t-70.5 171t70.5 171.5t176.5 68.5q48 0 93 -18.5t82 -52.5l-77 -75q-20 20 -44.5 30t-54.5 10q-42 0 -74.5 -24t-45.5 -65h187v-83h-189q11 -43 44.5 -69t77.5 -26q32 0 58.5 12t50.5 36z" />
    <glyph glyph-name="afii10102" unicode="&#x455;" horiz-adv-x="439" 
d="M202 184q-87 24 -120 58t-33 88q0 61 50 100t128 39q46 0 90.5 -14t80.5 -39l-60 -90q-25 19 -56 30.5t-57 11.5q-24 0 -36.5 -9t-12.5 -26q0 -16 17 -28t68 -26q77 -20 112.5 -55t35.5 -88q0 -67 -49.5 -106.5t-135.5 -39.5q-55 0 -104 16.5t-96 50.5l61 91
q32 -26 68.5 -41t70.5 -15q27 0 42.5 11t15.5 29q0 16 -14 26.5t-66 25.5z" />
    <glyph glyph-name="afii10103" unicode="&#x456;" horiz-adv-x="265" 
d="M132 684q33 0 56.5 -23.5t23.5 -56.5t-23.5 -56.5t-56.5 -23.5q-32 0 -55.5 24t-23.5 56q0 33 23.5 56.5t55.5 23.5zM66 459h133v-459h-133v459z" />
    <glyph glyph-name="afii10104" unicode="&#x457;" horiz-adv-x="265" 
d="M66 459h133v-459h-133v459zM35 678q28 0 48.5 -20.5t20.5 -48.5t-20.5 -49t-48.5 -21t-49.5 21t-21.5 49t21 48.5t50 20.5zM230 678q29 0 50 -20.5t21 -48.5t-21 -49t-50 -21q-28 0 -48.5 21t-20.5 49t20.5 48.5t48.5 20.5z" />
    <glyph glyph-name="afii10105" unicode="&#x458;" horiz-adv-x="272" 
d="M139 684q33 0 56.5 -23.5t23.5 -56.5t-23.5 -56.5t-56.5 -23.5t-56.5 23.5t-23.5 56.5t23.5 56.5t56.5 23.5zM11 -89q29 0 45.5 22.5t16.5 61.5v464h133v-475q0 -91 -48 -142.5t-134 -51.5q-38 0 -75 13.5t-65 37.5l66 94q17 -12 32 -18t29 -6z" />
    </font>
</defs>
</svg>
