<svg width="24" height="24" viewBox="0 0 24 24" xmlns="http://www.w3.org/2000/svg"><title>icons/do/nogps</title><g fill="none" fill-rule="evenodd"><path d="M20.478 22.274V19.1a.846.846 0 0 1-.713-.391.159.159 0 0 0-.266 0 .849.849 0 0 1-1.427 0 .16.16 0 0 0-.267 0 .844.844 0 0 1-1.427 0 .159.159 0 0 0-.266 0 .846.846 0 0 1-1.427 0 .159.159 0 0 0-.266 0 .846.846 0 0 1-1.426 0 .16.16 0 0 0-.267 0 .846.846 0 0 1-1.427 0 .159.159 0 0 0-.266 0 .847.847 0 0 1-1.427 0 .16.16 0 0 0-.267 0 .844.844 0 0 1-1.426 0 .16.16 0 0 0-.267 0 .844.844 0 0 1-1.427 0 .158.158 0 0 0-.265 0 .847.847 0 0 1-.714.39v3.174h15.238z" fill="#FFF"/><path d="M20.479 19.335c-.334 0-.643-.151-.847-.408-.408.514-1.286.515-1.694-.001-.407.516-1.285.515-1.692 0-.41.515-1.286.516-1.694 0-.407.516-1.285.515-1.693 0-.41.516-1.285.514-1.693 0-.408.515-1.286.516-1.694 0-.406.516-1.285.515-1.692 0-.408.515-1.285.516-1.694 0a1.073 1.073 0 0 1-.846.409.235.235 0 1 1 0-.47c.21 0 .402-.104.515-.281.146-.226.517-.226.662-.001.226.356.806.355 1.032 0 .146-.225.517-.224.66 0 .227.356.807.355 1.033 0 .146-.225.517-.225.66 0 .228.356.807.355 1.032 0a.394.394 0 0 1 .663 0c.227.354.804.355 1.032 0a.387.387 0 0 1 .33-.18.39.39 0 0 1 .33.18c.228.356.807.355 1.032 0 .146-.225.517-.225.662 0 .226.356.806.355 1.032 0 .146-.225.517-.224.66 0 .227.356.807.355 1.033 0 .145-.225.517-.225.66 0 .228.356.808.355 1.032 0a.394.394 0 0 1 .662 0 .613.613 0 0 0 .517.283c.129 0 .233.105.233.235a.233.233 0 0 1-.233.234m-7.555.702h-.001zm-1.823 0zm8.466 0zm.912.499c-.333 0-.643-.151-.847-.408-.408.514-1.286.515-1.694-.001-.41.515-1.285.515-1.693 0-.408.515-1.285.516-1.693 0-.408.515-1.284.516-1.693 0-.411.516-1.285.514-1.693 0-.408.515-1.286.516-1.694 0-.408.515-1.284.515-1.693 0-.408.515-1.285.516-1.693 0a1.077 1.077 0 0 1-.847.409.234.234 0 0 1 0-.47.61.61 0 0 0 .516-.281c.145-.226.517-.226.662-.001.226.355.805.354 1.032 0 .145-.225.517-.224.66 0 .227.355.806.354 1.033 0 .144-.225.516-.225.66 0 .227.355.807.354 1.033 0a.389.389 0 0 1 .33-.18c.136 0 .26.068.33.18.228.354.806.355 1.033 0a.391.391 0 0 1 .33-.18.39.39 0 0 1 .33.18c.228.355.807.354 1.033 0 .145-.225.516-.225.662 0 .226.355.805.354 1.032 0 .145-.225.517-.224.66 0 .227.355.806.354 1.033 0 .144-.225.516-.225.66 0 .227.355.806.354 1.033 0a.389.389 0 0 1 .33-.18c.136 0 .26.068.33.18a.613.613 0 0 0 .518.283c.129 0 .233.105.233.235a.233.233 0 0 1-.233.234z" fill="#222"/><path d="M11.491 2.772a1.206 1.206 0 0 0 0 2.413h4.877a1.206 1.206 0 1 0 0-2.413h-.026a.875.875 0 0 0-1.749 0 1.523 1.523 0 0 0-3.046 0h-.056z" fill="#FFF"/><path d="M11.491 3.007a.973.973 0 0 0 0 1.944h4.878a.974.974 0 0 0 .972-.972.974.974 0 0 0-.972-.972c-.13 0-.262-.105-.262-.234a.641.641 0 0 0-1.28 0 .234.234 0 0 1-.469 0 1.29 1.29 0 0 0-1.288-1.29 1.29 1.29 0 0 0-1.289 1.29.234.234 0 0 1-.234.234h-.056zM16.37 5.42h-4.878a1.442 1.442 0 1 1-.165-2.872 1.758 1.758 0 1 1 3.329-.531 1.107 1.107 0 0 1 1.898.536c.718.1 1.255.702 1.255 1.426a1.44 1.44 0 0 1-1.439 1.44z" fill="#222"/><path d="M12.083 3.945h-.592a.234.234 0 0 1 0-.47h.592a.167.167 0 0 0 .167-.166v-.52c0-.427.325-.793.741-.832a.821.821 0 0 1 .898.816.235.235 0 0 1-.468 0 .35.35 0 0 0-.385-.35.362.362 0 0 0-.316.367v.519a.637.637 0 0 1-.637.636" fill="#0155FC"/><path d="M11.491 5.42h-1.7a.235.235 0 0 1-.235-.235c0-.13.106-.235.235-.235h1.7c.13 0 .234.105.234.235a.234.234 0 0 1-.234.234M9.1 5.42h-.09a.234.234 0 0 1 0-.47h.09c.129 0 .233.105.233.235a.233.233 0 0 1-.233.234" fill="#222"/><path d="M13.134 11.132a.756.756 0 1 0-1.438 0 .756.756 0 1 0 .719 1.25.755.755 0 1 0 .719-1.251" fill="#FFF"/><path d="M12.415 12.148c.065 0 .127.027.172.075a.522.522 0 1 0 .496-.863.232.232 0 0 1-.152-.112.238.238 0 0 1-.02-.188.522.522 0 1 0-.992 0 .234.234 0 0 1-.173.3.522.522 0 1 0 .497.863.234.234 0 0 1 .172-.075m.555.711a.998.998 0 0 1-.555-.17.99.99 0 0 1-.987-1.71.99.99 0 0 1 .987-1.069.99.99 0 0 1 .99.99c0 .026 0 .052-.004.08a.99.99 0 0 1-.431 1.88" fill="#222"/><path d="M12.415 14.046a.234.234 0 0 1-.234-.234v-1.43a.234.234 0 0 1 .468 0v1.43a.234.234 0 0 1-.234.234" fill="#222"/><path d="M7.759 11.132a.756.756 0 1 0-1.438 0 .756.756 0 1 0 .719 1.25.755.755 0 1 0 .719-1.251" fill="#FFF"/><path d="M7.04 12.148c.065 0 .128.027.172.075a.522.522 0 1 0 .496-.863.236.236 0 0 1-.172-.302.522.522 0 1 0-.993 0 .228.228 0 0 1-.019.19.232.232 0 0 1-.153.112.521.521 0 1 0 .497.863.234.234 0 0 1 .172-.075m.555.711a.995.995 0 0 1-.555-.17.99.99 0 1 1-.987-1.71.99.99 0 0 1 .987-1.069.99.99 0 0 1 .99.99c0 .026 0 .052-.004.08a.99.99 0 0 1-.431 1.88" fill="#222"/><path d="M7.04 14.046a.234.234 0 0 1-.234-.234v-1.43a.234.234 0 0 1 .468 0v1.43a.234.234 0 0 1-.234.234" fill="#222"/><path d="M18.51 11.132a.755.755 0 1 0-1.438 0 .756.756 0 1 0 .718 1.25.755.755 0 0 0 1.31-.512.756.756 0 0 0-.59-.738" fill="#FFF"/><path d="M17.79 12.148c.065 0 .127.027.172.075a.522.522 0 1 0 .496-.863.23.23 0 0 1-.152-.113.232.232 0 0 1-.019-.189.521.521 0 1 0-.993.002.234.234 0 0 1-.173.3.522.522 0 1 0 .496.863.238.238 0 0 1 .173-.075m.555.711a.99.99 0 0 1-.555-.17.991.991 0 0 1-1.544-.82c0-.382.225-.727.558-.89a.99.99 0 1 1 1.973 0 .99.99 0 0 1-.432 1.88" fill="#222"/><path d="M17.79 14.046a.234.234 0 0 1-.234-.234v-1.43a.234.234 0 0 1 .468 0v1.43a.234.234 0 0 1-.234.234" fill="#222"/><path d="M8.722 8.437H5.359a1.005 1.005 0 1 1 0-2.012h3.363a1.005 1.005 0 1 1 0 2.012" fill="#0155FC"/><path d="M14.097 8.437h-3.363a1.005 1.005 0 1 1 0-2.012h3.363a1.005 1.005 0 1 1 0 2.012m-5.375 7.387H5.359a1.006 1.006 0 0 1 0-2.012h3.363a1.005 1.005 0 1 1 0 2.012" fill="#0155FC"/><path d="M14.097 15.824h-3.363a1.006 1.006 0 0 1 0-2.012h3.363a1.005 1.005 0 1 1 0 2.012m5.375-7.387h-3.363a1.005 1.005 0 1 1 0-2.012h3.363a1.005 1.005 0 1 1 0 2.012" fill="#0155FC"/><path d="M19.472 15.824h-3.363a1.006 1.006 0 0 1 0-2.012h3.363a1.005 1.005 0 1 1 0 2.012m-10.75 7.387H5.359a1.005 1.005 0 1 1 0-2.012h3.363a1.005 1.005 0 1 1 0 2.012" fill="#0155FC"/><path d="M8.184 6.424H5.359a1.005 1.005 0 1 0 0 2.012h1.428l1.397-2.012z" fill="#003C9B"/><path d="M14.097 23.211h-3.363a1.005 1.005 0 1 1 0-2.012h3.363a1.005 1.005 0 1 1 0 2.012" fill="#0155FC"/><path d="M8.72 8.67H5.36a.235.235 0 0 1-.235-.233c0-.13.106-.235.235-.235h3.36a.772.772 0 0 0 0-1.543H5.359a.235.235 0 0 1-.235-.235c0-.13.106-.234.235-.234H8.72a1.241 1.241 0 0 1 0 2.48" fill="#222"/><path d="M10.733 6.659a.772.772 0 0 0 0 1.543h3.364a.773.773 0 0 0 .771-.771.773.773 0 0 0-.771-.772h-3.364zm3.364 2.012h-3.364a1.241 1.241 0 0 1 0-2.481h3.364a1.24 1.24 0 0 1 0 2.48zm-1.519 7.387h-.289a.234.234 0 0 1-.234-.233c0-.13.104-.236.234-.236h.29c.13 0 .233.105.233.236a.234.234 0 0 1-.234.233" fill="#222"/><path d="M14.097 16.058h-.593a.233.233 0 0 1-.233-.233c0-.13.104-.236.233-.236h.593a.772.772 0 0 0 0-1.543h-3.363a.773.773 0 0 0-.772.772c0 .425.347.771.772.771h.37c.13 0 .235.105.235.236a.234.234 0 0 1-.234.233h-.371a1.243 1.243 0 0 1-1.241-1.24c0-.684.557-1.24 1.24-1.24h3.364a1.241 1.241 0 0 1 0 2.48m5.375-7.388a.234.234 0 0 1-.234-.233c0-.13.104-.235.234-.235a.772.772 0 0 0 0-1.543h-3.363a.773.773 0 0 0-.772.772c0 .425.347.77.772.77h.808a.235.235 0 0 1 0 .47h-.808a1.242 1.242 0 0 1-1.241-1.24c0-.684.557-1.241 1.24-1.241h3.364a1.241 1.241 0 0 1 0 2.481" fill="#222"/><path d="M17.925 8.67h-.135a.234.234 0 0 1 0-.468h.135a.235.235 0 0 1 0 .469M8.72 16.058h-.807a.234.234 0 0 1 0-.469h.808a.772.772 0 0 0 0-1.543H5.359a.772.772 0 0 0 0 1.543.235.235 0 0 1 0 .47 1.244 1.244 0 0 1-1.242-1.242c0-.684.558-1.24 1.242-1.24H8.72a1.241 1.241 0 0 1 0 2.481" fill="#222"/><path d="M7.04 16.058h-.135a.234.234 0 0 1-.234-.233c0-.13.104-.236.234-.236h.135c.13 0 .234.105.234.236a.234.234 0 0 1-.234.233m9.068-2.012a.772.772 0 0 0 0 1.543h3.363a.773.773 0 0 0 .773-.772.773.773 0 0 0-.773-.77h-3.363zm3.363 2.012h-3.363a1.241 1.241 0 0 1 0-2.48h3.363a1.241 1.241 0 0 1 .001 2.48zM5.358 21.433a.772.772 0 0 0 0 1.544h3.363a.773.773 0 0 0 .772-.771.773.773 0 0 0-.773-.773H5.358zm3.363 2.012H5.357a1.242 1.242 0 0 1-1.24-1.24c0-.683.556-1.24 1.24-1.24H8.72c.684 0 1.241.556 1.241 1.24 0 .685-.557 1.24-1.242 1.24z" fill="#222"/><path d="M6.364 16.83v3.363a1.005 1.005 0 1 1-2.012 0V16.83a1.005 1.005 0 1 1 2.012 0" fill="#0155FC"/><path d="M5.358 16.058a.771.771 0 0 0-.77.771v3.364a.771.771 0 0 0 1.542 0V16.83a.772.772 0 0 0-.772-.77m0 5.374a1.242 1.242 0 0 1-1.24-1.24V16.83a1.241 1.241 0 0 1 2.481 0v3.364c0 .684-.556 1.24-1.24 1.24m5.374-.001a.772.772 0 0 0 0 1.544h3.364a.773.773 0 0 0 .771-.771.773.773 0 0 0-.771-.773h-3.364zm3.364 2.012h-3.364a1.241 1.241 0 0 1 0-2.48h3.364a1.241 1.241 0 0 1 0 2.48z" fill="#222"/><path d="M21.84 23.211h-5.731a1.005 1.005 0 1 1 0-2.012h5.73" fill="#0155FC"/><path d="M21.84 23.446h-5.73a1.242 1.242 0 0 1-1.241-1.24c0-.684.557-1.241 1.24-1.241h5.733a.234.234 0 0 1 0 .469H16.11a.773.773 0 0 0-.772.772c0 .425.347.77.772.77h5.732a.235.235 0 0 1 0 .47" fill="#222"/><path d="M3.982 3.338a1.376 1.376 0 1 1 2.752-.001 1.376 1.376 0 0 1-2.753.001M2.804 5.171L4.91 8.202a.546.546 0 0 0 .896 0l2.106-3.03C9.33 3.131 7.934.298 5.45.234h-.185C2.783.3 1.387 3.131 2.805 5.171" fill="#FFF"/><path d="M5.267.236h.005-.005zm.092.233h-.087a2.826 2.826 0 0 0-2.478 1.576 2.889 2.889 0 0 0 .203 2.993l2.106 3.03a.32.32 0 0 0 .512 0l2.105-3.03a2.889 2.889 0 0 0 .203-2.993A2.824 2.824 0 0 0 5.446.47L5.359.469zm0 8.202a.782.782 0 0 1-.642-.335L2.613 5.305a3.348 3.348 0 0 1-.238-3.472A3.29 3.29 0 0 1 5.26.002L5.359 0l.099.002a3.287 3.287 0 0 1 2.884 1.83 3.348 3.348 0 0 1-.237 3.473l-2.106 3.03a.778.778 0 0 1-.64.336z" fill="#222"/><path d="M5.29 1.408a.234.234 0 1 1-.005-.469l.073-.001c.13 0 .235.105.235.235a.235.235 0 0 1-.235.234H5.29zM3.575 4.87a.23.23 0 0 1-.192-.1 2.42 2.42 0 0 1-.17-2.513 2.376 2.376 0 0 1 1.148-1.11.235.235 0 0 1 .193.428c-.399.18-.718.489-.924.894a1.965 1.965 0 0 0 .136 2.034.232.232 0 0 1-.058.326.235.235 0 0 1-.133.042" fill="#0155FC"/><path d="M5.358 2.195c-.63 0-1.143.513-1.143 1.143s.513 1.143 1.143 1.143 1.143-.513 1.143-1.143-.513-1.143-1.143-1.143m0 2.755a1.614 1.614 0 0 1-1.612-1.612 1.614 1.614 0 0 1 3.225 0c0 .89-.724 1.612-1.613 1.612m16.013 10.102h-.893a.234.234 0 0 1 0-.469h.893c.13 0 .234-.105.234-.234v-1.39a.236.236 0 0 1 .47 0v1.39a.704.704 0 0 1-.704.703m.469-2.642a.235.235 0 0 1-.234-.233v-1.313a.235.235 0 1 1 .469 0v1.313a.234.234 0 0 1-.234.234m-.001-2.306a.235.235 0 0 1-.234-.234v-.188a.235.235 0 1 1 .469 0v.188a.234.234 0 0 1-.234.234m-.001-.891a.235.235 0 0 1-.234-.234V7.9a.235.235 0 0 0-.235-.235h-.892a.235.235 0 1 1 0-.469h.892c.388 0 .704.315.704.703V8.98a.234.234 0 0 1-.234.234" fill="#222"/></g></svg>