<svg width="24" height="24" viewBox="0 0 24 24" xmlns="http://www.w3.org/2000/svg"><title>icons/do/noiseroute</title><g fill="none" fill-rule="evenodd"><path d="M5.234 21.336V2.11c0-1.036.84-1.876 1.876-1.876h10.16c1.035 0 1.875.84 1.875 1.876v19.226c0 1.036-.84 1.875-1.876 1.875H7.11a1.875 1.875 0 0 1-1.876-1.875" fill="#DDD"/><path d="M7.11.469c-.905 0-1.642.736-1.642 1.642v19.225c0 .905.737 1.64 1.642 1.64h10.16c.904 0 1.641-.735 1.641-1.64V2.11c0-.906-.737-1.642-1.642-1.642H7.11zm10.16 22.977H7.11A2.112 2.112 0 0 1 5 21.336V2.11C5 .947 5.946 0 7.11 0h10.16c1.163 0 2.11.947 2.11 2.11v19.226c0 1.164-.947 2.11-2.11 2.11z" fill="#222"/><path d="M8.392 22.508H7.11a1.174 1.174 0 0 1-1.173-1.172.235.235 0 1 1 .469 0c0 .387.316.703.704.703h1.28c.13 0 .235.105.235.235a.234.234 0 0 1-.234.234" fill="#0155FC"/><path d="M7.58 20.356a.937.937 0 0 1-.939-.938V2.579c0-.518.42-.938.938-.938h9.222c.518 0 .938.42.938.938v16.839c0 .518-.42.938-.938.938H7.58z" fill="#FFF"/><path d="M17.74 4.142V2.58a.938.938 0 0 0-.939-.938H7.58a.938.938 0 0 0-.939.938v1.563h11.1z" fill="#FFF"/><path d="M6.876 3.908h10.629v-1.33a.705.705 0 0 0-.704-.702H7.579a.704.704 0 0 0-.703.703v1.329zm10.863.469H6.642a.235.235 0 0 1-.235-.235V2.579c0-.646.526-1.172 1.172-1.172h9.222c.646 0 1.173.526 1.173 1.172v1.563c0 .13-.106.235-.235.235z" fill="#222"/><path d="M7.58 1.875a.704.704 0 0 0-.704.704v16.838c0 .388.315.704.703.704h9.222a.706.706 0 0 0 .704-.703V2.58a.706.706 0 0 0-.704-.705H7.58zM16.8 20.59H7.58a1.174 1.174 0 0 1-1.172-1.172V2.58c0-.647.526-1.173 1.172-1.173h9.222c.646 0 1.173.526 1.173 1.172v16.838c0 .647-.527 1.173-1.173 1.173z" fill="#222"/><path d="M13.618 21.784a1.428 1.428 0 1 1-2.857-.001 1.428 1.428 0 0 1 2.857 0" fill="#DDD"/><path d="M12.19 20.59a1.194 1.194 0 0 0 0 2.387 1.194 1.194 0 0 0 0-2.387m0 2.855a1.664 1.664 0 0 1-1.663-1.662c0-.916.746-1.662 1.663-1.662.916 0 1.662.746 1.662 1.662 0 .917-.746 1.662-1.662 1.662" fill="#222"/><path d="M12.893.938a.704.704 0 1 1-1.407-.001.704.704 0 0 1 1.407.001" fill="#DDD"/><path d="M12.19.469a.47.47 0 1 0 0 .94.47.47 0 0 0 0-.94m0 1.407a.939.939 0 0 1 0-1.876.938.938 0 0 1 0 1.876" fill="#222"/><path d="M11.7 22.018a.235.235 0 0 1-.235-.234c0-.4.325-.724.725-.724a.234.234 0 1 1 0 .468.256.256 0 0 0-.256.256.234.234 0 0 1-.234.234" fill="#F9F9F9"/><path d="M8.51 4.373h-.27a.234.234 0 0 1 0-.469h.27c.13 0 .234.105.234.235a.233.233 0 0 1-.233.234" fill="#222"/><path d="M9.518 22.508h-.141a.234.234 0 0 1-.234-.234c0-.13.104-.235.234-.235h.14a.235.235 0 0 1 0 .47" fill="#0155FC"/><path d="M14.76 3.436a.233.233 0 0 1-.232-.234v-.174a.233.233 0 1 1 .468 0v.174a.235.235 0 0 1-.235.234m.84 0a.234.234 0 0 1-.234-.234v-.434a.234.234 0 0 1 .468 0v.434a.234.234 0 0 1-.234.234m.84 0a.234.234 0 0 1-.234-.234v-.7a.234.234 0 0 1 .468 0v.7a.234.234 0 0 1-.234.234" fill="#222"/><path fill="#FFF" d="M8.421 13.463h9.317v-2.424H8.421z"/><path d="M12.016 11.04l1.064 1.53a1.388 1.388 0 0 0 2.28 0l1.064-1.53h-4.408z" fill="#DDD"/><path d="M17.74 13.697H8.42a.235.235 0 0 1-.235-.234c0-.13.106-.235.235-.235h9.084v-1.955H8.421a.235.235 0 0 1-.235-.234c0-.13.106-.235.235-.235h9.318c.13 0 .234.105.234.235v2.424a.234.234 0 0 1-.234.234" fill="#222"/><path d="M14.22 9.159a1.137 1.137 0 1 1 .001-2.274 1.137 1.137 0 0 1-.001 2.274m.076-3.697l-.076-.001h-.076c-2.05.053-3.2 2.39-2.03 4.074l1.736 2.5a.45.45 0 0 0 .74 0l1.737-2.5c1.17-1.683.018-4.021-2.031-4.073" fill="#0155FC"/><path d="M14.22 5.695l-.071.001a2.29 2.29 0 0 0-2.01 1.277 2.346 2.346 0 0 0 .166 2.428l1.737 2.501a.215.215 0 0 0 .178.092.214.214 0 0 0 .178-.093l1.737-2.5a2.344 2.344 0 0 0 .165-2.428 2.29 2.29 0 0 0-2.008-1.277h-.072zm0 6.768a.684.684 0 0 1-.562-.294l-1.737-2.5a2.803 2.803 0 0 1-.2-2.908 2.756 2.756 0 0 1 2.417-1.534h.164c1.04.027 1.943.6 2.416 1.534.48.95.407 2.036-.198 2.907l-1.738 2.501a.682.682 0 0 1-.562.294z" fill="#222"/><path d="M14.22 7.12a.903.903 0 0 0-.902.902c0 .497.405.902.902.902a.903.903 0 0 0 .902-.902.903.903 0 0 0-.902-.902m0 2.273a1.373 1.373 0 0 1-1.371-1.37c0-.757.615-1.372 1.37-1.372.757 0 1.372.615 1.372 1.371s-.615 1.371-1.371 1.371" fill="#222"/><path d="M10.293 16.085a.882.882 0 1 0-1.68 0 .883.883 0 1 0 .84 1.462.88.88 0 0 0 1.529-.6.882.882 0 0 0-.689-.861" fill="#FFF"/><path d="M13.352 16.085a.883.883 0 1 0-1.68 0 .884.884 0 1 0 .84 1.462.88.88 0 0 0 1.53-.6.883.883 0 0 0-.69-.861" fill="#FFF"/><path d="M16.413 16.085a.882.882 0 1 0-1.681 0 .883.883 0 1 0 .84 1.462.882.882 0 1 0 .841-1.462" fill="#FFF"/><path d="M9.452 17.312c.066 0 .128.027.173.075a.65.65 0 1 0 .617-1.072.237.237 0 0 1-.173-.302.648.648 0 1 0-1.233.002.235.235 0 0 1-.172.3.651.651 0 0 0-.507.632.65.65 0 0 0 1.124.44.233.233 0 0 1 .171-.075m.648.752c-.233 0-.46-.074-.648-.207a1.118 1.118 0 0 1-1.764-.91c0-.44.264-.837.654-1.016a1.118 1.118 0 0 1 1.11-1.233 1.118 1.118 0 0 1 1.111 1.233c.39.18.655.576.655 1.016 0 .616-.5 1.117-1.118 1.117" fill="#222"/><path d="M12.513 17.312c.065 0 .127.027.172.075a.65.65 0 0 0 1.124-.44.651.651 0 0 0-.507-.632.238.238 0 0 1-.153-.113.24.24 0 0 1-.02-.189.648.648 0 0 0-.617-.846.648.648 0 0 0-.615.846.244.244 0 0 1-.02.19.237.237 0 0 1-.153.112.648.648 0 1 0 .617 1.072.235.235 0 0 1 .172-.075m.647.752c-.232 0-.46-.074-.647-.207a1.119 1.119 0 0 1-1.765-.91c0-.44.265-.837.655-1.016a1.118 1.118 0 0 1 1.11-1.233 1.119 1.119 0 0 1 1.11 1.233c.39.18.655.576.655 1.016 0 .616-.501 1.117-1.118 1.117" fill="#222"/><path d="M15.572 17.312c.065 0 .127.027.172.075a.647.647 0 0 0 1.124-.44.651.651 0 0 0-.506-.632.235.235 0 0 1-.173-.3.65.65 0 0 0-.617-.848.648.648 0 0 0-.616.848.235.235 0 0 1-.173.3.648.648 0 1 0 .617 1.072.234.234 0 0 1 .172-.075m.648.752c-.236 0-.46-.072-.648-.207a1.118 1.118 0 0 1-1.764-.91c0-.44.265-.837.654-1.016a1.118 1.118 0 0 1 1.11-1.233 1.118 1.118 0 0 1 1.111 1.233 1.118 1.118 0 0 1-.463 2.133m-6.768 2.292a.233.233 0 0 1-.233-.234v-2.576a.233.233 0 1 1 .468 0v2.576a.235.235 0 0 1-.235.234m3.061 0a.234.234 0 0 1-.234-.234v-2.576a.234.234 0 0 1 .468 0v2.576a.234.234 0 0 1-.234.234" fill="#222"/><path d="M15.572 20.356a.234.234 0 0 1-.234-.234v-2.576a.234.234 0 1 1 .468 0v2.576a.234.234 0 0 1-.234.234" fill="#222"/><path d="M7.688 18.476a.234.234 0 0 1-.234-.234V6.378a.235.235 0 1 1 .468 0v11.864a.234.234 0 0 1-.234.234m0-12.896a.234.234 0 0 1-.234-.234v-.21a.235.235 0 1 1 .468 0v.21a.234.234 0 0 1-.234.234" fill="#0155FC"/></g></svg>