<svg width="24" height="24" viewBox="0 0 24 24" xmlns="http://www.w3.org/2000/svg"><title>icons/do/routeerrors</title><g fill="none" fill-rule="evenodd"><path fill="#FFF" d="M.235 15.495l7.716 7.717h4.14L.235 11.356z"/><path d="M12.09 23.446a.237.237 0 0 1-.166-.068L.07 11.522a.234.234 0 1 1 .332-.332l11.855 11.856a.234.234 0 0 1-.166.4m-4.141 0a.237.237 0 0 1-.165-.068L2.887 18.48a.234.234 0 1 1 .332-.332l4.898 4.898a.234.234 0 0 1-.166.4" fill="#222"/><path d="M8.92 10.257a1.1 1.1 0 0 1-1.1-1.098V.235H4.895v8.924a4.029 4.029 0 0 0 4.024 4.025" fill="#FFF"/><path d="M8.92 13.418A4.264 4.264 0 0 1 4.66 9.16V.234a.235.235 0 0 1 .47 0v8.924c0 2.09 1.7 3.79 3.79 3.79.13 0 .233.106.233.236a.234.234 0 0 1-.234.233" fill="#222"/><path d="M8.92 10.491A1.334 1.334 0 0 1 7.586 9.16V.234a.235.235 0 0 1 .469 0V9.16c0 .476.387.863.863.863.13 0 .234.105.234.235a.234.234 0 0 1-.234.234" fill="#222"/><path d="M23.211 20.284h-5.77a.702.702 0 0 1-.703-.7V.233h-2.926v21.682c0 .715.58 1.295 1.295 1.295h8.104" fill="#FFF"/><path d="M23.211 23.446h-8.104c-.843 0-1.53-.686-1.53-1.53V.235a.235.235 0 1 1 .47 0v21.68c0 .586.476 1.062 1.06 1.062h8.104c.13 0 .234.105.234.235a.234.234 0 0 1-.234.234" fill="#222"/><path d="M23.211 20.519h-5.77a.937.937 0 0 1-.937-.936V.234a.235.235 0 0 1 .469 0v19.349c0 .258.21.467.467.467h5.771c.13 0 .234.105.234.235a.234.234 0 0 1-.234.234" fill="#222"/><path d="M.235 18.314h14.293a4.03 4.03 0 0 0 4.025-4.025 4.03 4.03 0 0 0-4.025-4.025h-.341v-.008H8.919a1.098 1.098 0 0 1 0-2.195h14.293V5.132H8.919a4.03 4.03 0 0 0-4.026 4.025 4.03 4.03 0 0 0 4.026 4.024h.34v.008h5.269a1.1 1.1 0 0 1 1.099 1.099 1.1 1.1 0 0 1-1.1 1.098H.236" fill="#FFF"/><path d="M1.996 15.386l1.149 1.654a1.365 1.365 0 0 0 2.242 0l1.148-1.654h-4.54zM17.937 5.133l1.294 1.862a1.365 1.365 0 0 0 2.241 0l1.293-1.862h-4.828zM7.63 12.97a3.406 3.406 0 0 0-.36-1.783A3.312 3.312 0 0 0 4.9 9.4a4.031 4.031 0 0 0 2.73 3.571" fill="#DDD"/><path d="M14.528 15.62H.235A.234.234 0 0 1 0 15.388c0-.13.104-.235.234-.235h14.293a.864.864 0 0 0 0-1.726h-5.27a.216.216 0 0 1-.061-.01h-.278a4.264 4.264 0 0 1-4.26-4.258 4.264 4.264 0 0 1 4.26-4.26h14.293a.234.234 0 0 1 0 .47H8.919c-2.09 0-3.791 1.7-3.791 3.79a3.796 3.796 0 0 0 3.79 3.79h.34c.023 0 .043.004.064.009h5.206c.734 0 1.332.598 1.332 1.332 0 .734-.598 1.332-1.332 1.332" fill="#222"/><path d="M14.528 16.559h-4.54a.234.234 0 0 1-.234-.234c0-.13.104-.235.234-.235h4.54c.55 0 1.063-.248 1.408-.68a.235.235 0 0 1 .33-.037.236.236 0 0 1 .037.33 2.26 2.26 0 0 1-1.775.856m2.023-1.814h-.028a.235.235 0 0 1-.204-.263c.007-.063.01-.128.01-.194a.235.235 0 0 1 .47 0c0 .085-.006.17-.016.251a.233.233 0 0 1-.232.206" fill="#0155FC"/><path d="M16.822 15.647c-.41.339-.668.851-.668 1.406 0 .296.07.575.197.823a4.03 4.03 0 0 0 2.198-3.773 1.822 1.822 0 0 0-1.727 1.544" fill="#DDD"/><path d="M5.912 8.688a.236.236 0 0 1-.229-.288 3.312 3.312 0 0 1 3.236-2.564h4.798c.13 0 .234.105.234.235a.234.234 0 0 1-.234.234H8.919A2.841 2.841 0 0 0 6.14 8.507a.237.237 0 0 1-.23.181m9.705-2.383h-.328a.234.234 0 0 1-.234-.234c0-.13.104-.235.234-.235h.328c.13 0 .234.105.234.235a.234.234 0 0 1-.234.234" fill="#0155FC"/><path d="M14.528 18.548H.235A.234.234 0 0 1 0 18.314c0-.13.104-.235.234-.235h14.293c2.09 0 3.79-1.7 3.79-3.79a3.796 3.796 0 0 0-3.79-3.791h-.341a.257.257 0 0 1-.062-.008H8.919a1.333 1.333 0 0 1 0-2.664h14.293a.234.234 0 0 1 0 .469H8.919a.865.865 0 0 0-.864.863c0 .476.388.863.864.863h5.268c.022 0 .042.003.063.008h.278a4.265 4.265 0 0 1 4.26 4.26 4.265 4.265 0 0 1-4.26 4.259" fill="#222"/><path d="M20.351 3.736a1.075 1.075 0 1 1 0-2.152 1.076 1.076 0 1 1 0 2.152m.072-3.5l-.072-.001h-.072c-1.94.05-3.03 2.263-1.923 3.857L20 6.46c.17.245.532.245.702 0l1.644-2.368c1.108-1.594.018-3.807-1.923-3.856" fill="#0155FC"/><path d="M20.351.469h-.064a2.156 2.156 0 0 0-1.894 1.204 2.207 2.207 0 0 0 .155 2.286l1.645 2.368c.072.104.244.104.316 0l1.645-2.368c.475-.685.534-1.54.155-2.287A2.156 2.156 0 0 0 20.417.47h-.002l-.064-.001zm0 6.409a.66.66 0 0 1-.543-.284l-1.645-2.368a2.664 2.664 0 0 1-.188-2.765A2.62 2.62 0 0 1 20.273 0h.156a2.619 2.619 0 0 1 2.298 1.46 2.666 2.666 0 0 1-.188 2.766l-1.645 2.368a.66.66 0 0 1-.543.284z" fill="#222"/><path d="M20.351 1.818a.843.843 0 1 0 .001 1.685.843.843 0 0 0 0-1.685m0 2.152a1.312 1.312 0 0 1-1.312-1.31 1.312 1.312 0 0 1 2.622-.001c0 .723-.588 1.31-1.31 1.31" fill="#222"/><path d="M4.265 13.78a1.076 1.076 0 1 1 0-2.152 1.076 1.076 0 0 1 0 2.153m.072-3.5l-.072-.001h-.072c-1.94.05-3.03 2.263-1.923 3.857l1.644 2.368c.17.244.532.244.702 0l1.645-2.368c1.107-1.594.017-3.807-1.924-3.856" fill="#0155FC"/><path d="M4.265 10.514h-.067a2.157 2.157 0 0 0-1.89 1.204 2.205 2.205 0 0 0 .154 2.285l1.645 2.368c.072.105.244.105.316 0l1.646-2.368a2.204 2.204 0 0 0 .154-2.286 2.156 2.156 0 0 0-1.892-1.202l-.066-.001zm0 6.409a.66.66 0 0 1-.543-.284L2.077 14.27a2.664 2.664 0 0 1-.188-2.765 2.62 2.62 0 0 1 2.298-1.46l.078-.001h.078a2.622 2.622 0 0 1 2.3 1.46 2.668 2.668 0 0 1-.19 2.766l-1.645 2.368a.66.66 0 0 1-.543.284z" fill="#222"/><path d="M4.265 11.863a.843.843 0 1 0 .001 1.685.843.843 0 0 0 0-1.685m0 2.152a1.312 1.312 0 0 1-1.312-1.31 1.312 1.312 0 0 1 2.622-.001c0 .723-.588 1.31-1.31 1.31" fill="#222"/><path d="M19.461 16.192a.883.883 0 1 0-1.68 0 .884.884 0 0 0 .193 1.744.876.876 0 0 0 .647-.284.882.882 0 1 0 .84-1.46" fill="#FFF"/><path d="M22.522 16.192a.883.883 0 1 0-1.681 0 .883.883 0 1 0 .84 1.46.882.882 0 1 0 .841-1.46" fill="#FFF"/><path d="M18.622 17.418c.065 0 .128.027.172.075a.649.649 0 1 0 .617-1.072.235.235 0 0 1-.173-.3.65.65 0 1 0-1.264-.2c0 .066.01.134.032.2a.235.235 0 0 1-.173.3.649.649 0 1 0 .617 1.072.234.234 0 0 1 .172-.075m.647.752a1.12 1.12 0 0 1-.647-.207 1.118 1.118 0 0 1-1.765-.91c0-.44.265-.837.654-1.016a1.118 1.118 0 1 1 2.222 0c.389.179.654.576.654 1.016 0 .616-.501 1.117-1.118 1.117" fill="#222"/><path d="M21.681 17.418c.065 0 .128.027.172.075a.649.649 0 1 0 .618-1.072.235.235 0 0 1-.173-.3.65.65 0 0 0-.617-.848.648.648 0 0 0-.616.848.235.235 0 0 1-.173.3.648.648 0 1 0 .617 1.072.234.234 0 0 1 .172-.075m.647.752a1.12 1.12 0 0 1-.647-.207 1.118 1.118 0 0 1-1.764-.91c0-.44.265-.837.654-1.016a1.118 1.118 0 0 1 1.11-1.233 1.118 1.118 0 0 1 1.111 1.233 1.118 1.118 0 0 1-.464 2.133m-3.706 2.292a.234.234 0 0 1-.234-.234v-2.576a.234.234 0 1 1 .468 0v2.576a.234.234 0 0 1-.234.234" fill="#222"/><path d="M21.681 20.462a.234.234 0 0 1-.234-.234v-2.576a.234.234 0 1 1 .468 0v2.576a.234.234 0 0 1-.234.234" fill="#222"/><path d="M11.628 1.388a.882.882 0 1 0-1.681 0 .883.883 0 1 0 .84 1.46.881.881 0 0 0 1.53-.6.882.882 0 0 0-.689-.86" fill="#FFF"/><path d="M10.788 2.614c.065 0 .127.027.172.075a.649.649 0 1 0 .618-1.073.234.234 0 0 1-.173-.3.65.65 0 0 0-.617-.848.65.65 0 0 0-.616.848.238.238 0 0 1-.021.188.232.232 0 0 1-.152.112.648.648 0 1 0 .617 1.073.234.234 0 0 1 .172-.075m.648.751c-.237 0-.461-.072-.648-.206a1.119 1.119 0 0 1-1.764-.91c0-.44.265-.837.654-1.016A1.118 1.118 0 0 1 10.788 0a1.118 1.118 0 0 1 1.11 1.233c.39.18.655.575.655 1.016 0 .615-.501 1.116-1.117 1.116" fill="#222"/><path d="M10.788 5.367a.234.234 0 0 1-.234-.234V2.848a.234.234 0 1 1 .468 0v2.285a.234.234 0 0 1-.234.234" fill="#222"/></g></svg>