<svg width="24" height="24" viewBox="0 0 24 24" xmlns="http://www.w3.org/2000/svg"><title>icons/do/smothroute</title><g fill="none" fill-rule="evenodd"><path d="M8.271 4.298v2.533h.01v.383a4.515 4.515 0 0 0 4.512 4.51l.117-.004h3.934c.68 0 1.232.552 1.232 1.23 0 .678-.553 1.23-1.232 1.23H9.976v.01h-.381a4.515 4.515 0 0 0-4.51 4.51 4.515 4.515 0 0 0 4.51 4.511h8.993l-1.476-3.28H9.593a1.231 1.231 0 0 1 0-2.46h6.868v-.01h.383a4.516 4.516 0 0 0 4.511-4.51 4.516 4.516 0 0 0-4.51-4.512h-3.936l-.117.005a1.232 1.232 0 0 1-1.23-1.23l-.01-2.916" fill="#FFF"/><path d="M9.594 22.508A3.812 3.812 0 0 1 5.786 18.7a3.812 3.812 0 0 1 3.808-3.807h1.31a.235.235 0 0 1 0 .47h-1.31a3.343 3.343 0 0 0-3.34 3.337 3.343 3.343 0 0 0 3.34 3.34.234.234 0 1 1 0 .469m3.421-7.147h-.845a.234.234 0 0 1 0-.469h.845a.235.235 0 0 1 0 .47m-.233-4.342a3.811 3.811 0 0 1-2.452-.904.235.235 0 1 1 .304-.358 3.33 3.33 0 0 0 2.141.793l.09-.003 3.98-.001a.235.235 0 1 1 0 .469l-4.063.004zM9.638 9.127a.232.232 0 0 1-.206-.125 3.06 3.06 0 0 1-.091-.18.235.235 0 0 1 .425-.198c.024.053.05.105.079.157a.234.234 0 0 1-.207.345" fill="#0155FC"/><path d="M8.271 4.298V6.78l.134.194a1.813 1.813 0 0 0 2.98 0l.175-.253-.008-2.423h-3.28zm8.84 15.633h-2.19a3.76 3.76 0 0 0 .637 1.65l1.133 1.63h1.896l-1.476-3.28zm3.035-3.911a3.693 3.693 0 0 0-1.424-.325l-.105-.002-.105.002a3.705 3.705 0 0 0-3.069 1.776h1.018v-.01h.384a4.498 4.498 0 0 0 3.302-1.44" fill="#DDD"/><path d="M17.408 20.166H9.594A1.466 1.466 0 0 1 8.13 18.7c0-.807.657-1.464 1.465-1.464H16.4a.192.192 0 0 1 .063-.01h.383a4.281 4.281 0 0 0 4.276-4.276 4.281 4.281 0 0 0-4.276-4.277l-4.045.005a1.467 1.467 0 0 1-1.473-1.465l-.01-2.914c0-.13.105-.235.234-.236h.002c.128 0 .233.105.234.234l.01 2.915c0 .55.445.997.994.997l.11-.004h3.944a4.75 4.75 0 0 1 4.745 4.745 4.75 4.75 0 0 1-4.745 4.745h-.32a.189.189 0 0 1-.063.01H9.594a.997.997 0 0 0-.997.995c0 .549.448.996.997.996h7.814a.235.235 0 0 1 0 .469" fill="#222"/><path d="M18.587 23.446H9.594A4.75 4.75 0 0 1 4.849 18.7a4.75 4.75 0 0 1 4.745-4.745h.319a.189.189 0 0 1 .063-.01h6.869a.996.996 0 0 0 0-1.991l-4.045.004a4.752 4.752 0 0 1-4.754-4.745v-.32a.218.218 0 0 1-.01-.062V4.299a.235.235 0 1 1 .47 0v2.47c.006.02.01.04.01.063v.382a4.28 4.28 0 0 0 4.275 4.276l.109-.004h3.945c.807 0 1.465.657 1.465 1.464 0 .808-.658 1.465-1.465 1.465h-6.806a.185.185 0 0 1-.063.01h-.382A4.281 4.281 0 0 0 5.317 18.7a4.281 4.281 0 0 0 4.277 4.276h8.993a.235.235 0 0 1 0 .469" fill="#222"/><path d="M9.895 3.574a1.025 1.025 0 1 1 0-2.05 1.025 1.025 0 0 1 0 2.05M9.964.236l-.07-.001h-.067c-1.851.048-2.89 2.158-1.834 3.678L9.56 6.172a.408.408 0 0 0 .669 0l1.568-2.26c1.056-1.52.016-3.63-1.834-3.676m8.654 20.203a1.026 1.026 0 1 1 0-2.051 1.026 1.026 0 0 1 0 2.051m.068-3.338l-.068-.001-.069.001c-1.85.047-2.89 2.158-1.834 3.678l1.568 2.258a.408.408 0 0 0 .67 0l1.567-2.258c1.056-1.52.017-3.631-1.834-3.678" fill="#0155FC"/><path d="M18.616 17.334l-.062.002a2.046 2.046 0 0 0-1.795 1.14 2.092 2.092 0 0 0 .147 2.17l1.568 2.258a.174.174 0 0 0 .285 0l1.568-2.259a2.09 2.09 0 0 0 .147-2.168 2.044 2.044 0 0 0-1.795-1.142h-.063zm0 6.113a.638.638 0 0 1-.526-.276l-1.569-2.258a2.554 2.554 0 0 1-.18-2.648 2.508 2.508 0 0 1 2.201-1.399h.149a2.508 2.508 0 0 1 2.201 1.399c.44.863.37 1.854-.18 2.648l-1.569 2.258a.64.64 0 0 1-.527.276z" fill="#222"/><path d="M18.616 18.621a.792.792 0 1 0 .002 1.583.792.792 0 0 0-.002-1.583m0 2.052c-.694 0-1.26-.565-1.26-1.26a1.262 1.262 0 0 1 2.522 0c0 .695-.567 1.26-1.262 1.26" fill="#222"/><path d="M14.654 4.849a.785.785 0 1 0-1.495 0 .785.785 0 1 0 .748 1.3.785.785 0 1 0 .747-1.3" fill="#FFF"/><path d="M17.378 4.849a.785.785 0 1 0-1.495 0 .785.785 0 1 0 .748 1.3.785.785 0 1 0 .747-1.3" fill="#FFF"/><path d="M13.907 5.914c.064 0 .127.027.171.075a.551.551 0 1 0 .525-.911.237.237 0 0 1-.172-.3.552.552 0 1 0-1.048 0 .238.238 0 0 1-.173.3.554.554 0 0 0-.43.537.552.552 0 0 0 .954.374.234.234 0 0 1 .173-.075m.576.721c-.206 0-.408-.064-.576-.179a1.022 1.022 0 0 1-1.597-.841c0-.396.235-.753.58-.92a1.023 1.023 0 0 1 1.017-1.108 1.022 1.022 0 0 1 1.017 1.108c.345.167.58.524.58.92 0 .562-.458 1.02-1.02 1.02" fill="#222"/><path d="M16.63 5.914c.066 0 .128.027.173.075a.551.551 0 1 0 .525-.911.238.238 0 0 1-.153-.113.237.237 0 0 1-.02-.188.552.552 0 1 0-1.076-.17c0 .058.009.115.028.17a.236.236 0 0 1-.173.301.55.55 0 1 0 .525.911.235.235 0 0 1 .172-.075m.576.721c-.207 0-.408-.064-.576-.179a1.022 1.022 0 0 1-1.597-.841c0-.395.235-.753.58-.92-.003-.029-.003-.058-.003-.088 0-.562.458-1.02 1.02-1.02a1.022 1.022 0 0 1 1.016 1.108c.346.167.58.524.58.92 0 .562-.457 1.02-1.02 1.02m-3.3 2.04a.234.234 0 0 1-.234-.234V6.149a.234.234 0 1 1 .467 0V8.44a.233.233 0 0 1-.233.234" fill="#222"/><path d="M16.63 8.675a.234.234 0 0 1-.233-.234V6.149a.235.235 0 1 1 .468 0V8.44a.234.234 0 0 1-.234.234" fill="#222"/><path d="M10.287 5.042c0-.915-.583-1.696-1.398-1.99a1.795 1.795 0 0 0-1.27-.949 2.322 2.322 0 0 0 .373 1.81L9.56 6.172c.07.099.171.155.28.17.28-.36.447-.81.447-1.3" fill="#003C9B"/><path d="M9.896 1.755a.793.793 0 1 0 0 1.585.793.793 0 0 0 0-1.585m0 2.053a1.263 1.263 0 0 1-1.263-1.26 1.263 1.263 0 0 1 2.523 0c0 .694-.566 1.26-1.26 1.26" fill="#222"/><path d="M9.896.469H9.83a2.046 2.046 0 0 0-1.793 1.142 2.092 2.092 0 0 0 .146 2.169l1.57 2.258a.173.173 0 0 0 .284 0l1.567-2.258c.451-.65.506-1.461.147-2.17A2.046 2.046 0 0 0 9.957.47L9.895.469zm0 6.112a.638.638 0 0 1-.527-.276L7.8 4.047a2.554 2.554 0 0 1-.18-2.648A2.508 2.508 0 0 1 9.822 0h.146a2.508 2.508 0 0 1 2.203 1.4 2.554 2.554 0 0 1-.18 2.648l-1.57 2.258a.638.638 0 0 1-.525.276z" fill="#222"/><path d="M3.411 3.864a1.178 1.178 0 0 0 0 2.355h4.761a1.177 1.177 0 0 0 0-2.355h-.026a.853.853 0 1 0-1.708 0 1.486 1.486 0 1 0-2.972 0h-.055z" fill="#FFF"/><path d="M3.412 4.099a.943.943 0 0 0 0 1.886h4.761a.944.944 0 0 0 0-1.886c-.13 0-.26-.105-.26-.234a.62.62 0 0 0-1.238 0 .235.235 0 0 1-.47 0 1.252 1.252 0 0 0-2.505 0 .234.234 0 0 1-.234.234h-.054zm4.761 2.355h-4.76a1.413 1.413 0 0 1-.167-2.814 1.723 1.723 0 1 1 3.257-.523 1.08 1.08 0 0 1 .79-.341c.524 0 .964.374 1.065.869.701.1 1.226.688 1.226 1.397 0 .779-.634 1.412-1.41 1.412z" fill="#222"/><path d="M3.99 5.014h-.578a.234.234 0 0 1-.234-.234c0-.13.104-.235.234-.235h.578a.157.157 0 0 0 .157-.157v-.507c0-.42.32-.78.728-.819a.807.807 0 0 1 .883.802.235.235 0 0 1-.469 0 .34.34 0 0 0-.369-.335.348.348 0 0 0-.304.352v.507c0 .345-.28.626-.626.626" fill="#0155FC"/></g></svg>