<svg width="24" height="24" viewBox="0 0 24 24" xmlns="http://www.w3.org/2000/svg"><title>icons/do/staticroute</title><g fill="none" fill-rule="evenodd"><path fill="#FFF" d="M.235 13.457h22.976V9.989H.235z"/><path d="M1.736 11.162h-.563a.235.235 0 0 1-.235-.234c0-.13.106-.235.235-.235h.563c.129 0 .233.105.233.235a.233.233 0 0 1-.233.234m6.284 0H3.047a.234.234 0 0 1 0-.47H8.02c.13 0 .233.106.233.236a.233.233 0 0 1-.233.234m14.254 0H9.363a.235.235 0 1 1 0-.47h12.91a.235.235 0 0 1 0 .47" fill="#0155FC"/><path d="M23.211 10.224H.234a.235.235 0 0 1 0-.47h22.977a.235.235 0 0 1 0 .47m0 3.466H.234a.235.235 0 0 1 0-.468h22.977a.235.235 0 0 1 0 .469" fill="#231F20"/><path fill="#FFF" d="M.235 23.212h22.977v-9.755H.235z"/><path d="M23.211 23.446H.234A.235.235 0 0 1 0 23.212c0-.13.106-.235.235-.235h22.977a.235.235 0 0 1 0 .469m-20.001-5H.234A.235.235 0 0 1 0 18.212c0-.13.106-.235.235-.235h2.977a.235.235 0 0 1 0 .469m4.999 0H5.234A.235.235 0 0 1 5 18.212c0-.13.106-.235.235-.235h2.977a.235.235 0 0 1 0 .469m4.999 0h-2.977a.235.235 0 0 1-.235-.234c0-.13.106-.235.235-.235h2.977a.235.235 0 0 1 0 .469m5 0h-2.977a.235.235 0 0 1-.235-.234c0-.13.106-.235.235-.235h2.977a.235.235 0 0 1 0 .469m5 0h-2.977a.235.235 0 0 1-.235-.234c0-.13.106-.235.235-.235h2.977a.235.235 0 0 1 0 .469m0-4.756H.234A.235.235 0 0 1 0 13.458c0-.13.106-.235.235-.235h22.977a.235.235 0 0 1 0 .469" fill="#231F20"/><path d="M11.723 4.692a1.37 1.37 0 1 1 0-2.74 1.37 1.37 0 0 1 0 2.74m.092-4.457h-.184c-2.47.063-3.858 2.881-2.448 4.91l2.094 3.015a.543.543 0 0 0 .892 0l2.094-3.015c1.41-2.029.022-4.847-2.448-4.91" fill="#0155FC"/><path d="M11.723 2.187c-.626 0-1.136.51-1.136 1.135a1.137 1.137 0 0 0 2.272 0c0-.626-.51-1.135-1.136-1.135m0 2.74a1.605 1.605 0 0 1 0-3.21 1.605 1.605 0 0 1 0 3.209" fill="#231F20"/><path d="M9.944 2.738c0-.55-.22-1.052-.575-1.42-.727.862-.98 2.106-.515 3.228a2.047 2.047 0 0 0 1.09-1.808" fill="#003C9B"/><path d="M18.893 5.954a.883.883 0 1 0-1.68 0 .883.883 0 1 0 .84 1.46.88.88 0 0 0 1.53-.6.881.881 0 0 0-.69-.86" fill="#FFF"/><path d="M21.954 5.954a.882.882 0 1 0-1.68 0 .883.883 0 1 0 .84 1.46.88.88 0 0 0 1.529-.6.882.882 0 0 0-.69-.86" fill="#FFF"/><path d="M18.053 7.18c.066 0 .13.027.173.075a.648.648 0 1 0 .617-1.072.234.234 0 0 1-.173-.3.65.65 0 0 0-.617-.848.649.649 0 0 0-.617.848.234.234 0 0 1-.172.3.649.649 0 1 0 .617 1.072.237.237 0 0 1 .172-.075m.648.752c-.233 0-.46-.074-.648-.207a1.118 1.118 0 0 1-1.11-1.926 1.118 1.118 0 1 1 2.221 0 1.118 1.118 0 0 1-.463 2.133" fill="#231F20"/><path d="M21.114 7.18c.064 0 .127.027.172.075a.649.649 0 1 0 .617-1.072.235.235 0 0 1-.172-.3.651.651 0 0 0-.617-.848.65.65 0 0 0-.617.848.238.238 0 0 1-.02.188.237.237 0 0 1-.153.112.648.648 0 1 0 .617 1.072.238.238 0 0 1 .173-.075m.647.752a1.12 1.12 0 0 1-.647-.207 1.118 1.118 0 0 1-1.765-.91c0-.44.265-.837.654-1.016a1.118 1.118 0 1 1 2.228-.116c0 .039-.003.078-.007.116a1.118 1.118 0 0 1-.463 2.133m-3.708 2.292a.234.234 0 0 1-.234-.234V7.414a.234.234 0 0 1 .47 0V9.99a.235.235 0 0 1-.236.234" fill="#231F20"/><path d="M21.114 10.224a.235.235 0 0 1-.235-.234V7.414a.235.235 0 0 1 .469 0V9.99a.234.234 0 0 1-.234.234" fill="#231F20"/><path d="M3.172 5.954a.883.883 0 1 0-1.68 0 .883.883 0 1 0 .84 1.46.88.88 0 0 0 1.53-.6.881.881 0 0 0-.69-.86" fill="#FFF"/><path d="M6.233 5.954a.882.882 0 1 0-1.68 0 .883.883 0 1 0 .84 1.46.88.88 0 0 0 1.529-.6.882.882 0 0 0-.69-.86" fill="#FFF"/><path d="M2.333 7.18c.064 0 .127.027.171.075a.648.648 0 1 0 .618-1.072.237.237 0 0 1-.152-.112.238.238 0 0 1-.02-.188.65.65 0 0 0-.617-.848.648.648 0 0 0-.618.848.234.234 0 0 1-.172.3.649.649 0 1 0 .617 1.072.234.234 0 0 1 .172-.075m.649.752a1.12 1.12 0 0 1-.648-.207 1.118 1.118 0 0 1-1.11-1.926 1.118 1.118 0 1 1 2.221 0c.388.179.654.576.654 1.016 0 .616-.502 1.117-1.117 1.117" fill="#231F20"/><path d="M5.393 7.18c.064 0 .127.027.172.075a.649.649 0 1 0 .617-1.072.235.235 0 0 1-.172-.3.651.651 0 0 0-.617-.848.65.65 0 0 0-.617.848.238.238 0 0 1-.02.188.237.237 0 0 1-.153.112.648.648 0 1 0 .617 1.072.238.238 0 0 1 .173-.075m.646.752c-.232 0-.459-.074-.646-.207a1.118 1.118 0 0 1-1.765-.91c0-.44.265-.837.654-1.016a1.118 1.118 0 1 1 2.228-.116c0 .039-.003.078-.007.116a1.118 1.118 0 0 1-.464 2.133m-3.706 2.292a.234.234 0 0 1-.235-.234V7.414a.234.234 0 1 1 .469 0V9.99a.234.234 0 0 1-.235.234" fill="#231F20"/><path d="M5.393 10.224a.235.235 0 0 1-.235-.234V7.414a.235.235 0 0 1 .47 0V9.99a.234.234 0 0 1-.235.234m6.33-1.596H9.548a.234.234 0 0 1-.234-.234c0-.13.104-.235.234-.235h2.175a.235.235 0 0 1 0 .469m-2.983 0h-.155a.235.235 0 0 1-.236-.234c0-.13.106-.235.236-.235h.155c.13 0 .234.105.234.235a.234.234 0 0 1-.234.234" fill="#231F20"/><path d="M13.898 8.628h-2.175a.234.234 0 0 1 0-.47h2.175c.13 0 .234.106.234.236a.234.234 0 0 1-.234.234m.964 0h-.156a.235.235 0 0 1-.235-.234c0-.13.106-.235.235-.235h.156a.235.235 0 1 1 0 .469M3.424 4.08H2.005a.234.234 0 0 1 0-.47h1.42a.235.235 0 0 1 0 .47m-2.195 0h-.082a.234.234 0 0 1 0-.47h.082c.13 0 .234.106.234.236a.234.234 0 0 1-.234.234" fill="#231F20"/><path d="M11.723.469h-.084a2.81 2.81 0 0 0-2.466 1.567 2.871 2.871 0 0 0 .201 2.976l2.095 3.015a.318.318 0 0 0 .508 0l2.095-3.015a2.871 2.871 0 0 0 .201-2.976A2.81 2.81 0 0 0 11.81.47h-.002l-.084-.001zm0 8.16a.78.78 0 0 1-.639-.334L8.99 5.28a3.33 3.33 0 0 1-.235-3.456 3.27 3.27 0 0 1 2.87-1.822L11.723 0l.098.002a3.27 3.27 0 0 1 2.87 1.822 3.33 3.33 0 0 1-.235 3.456l-2.094 3.015a.78.78 0 0 1-.639.334z" fill="#231F20"/><path d="M3.424 1.632a1.106 1.106 0 1 0 0 2.213H7.9a1.106 1.106 0 1 0 0-2.213h-.025a.803.803 0 1 0-1.605 0 1.397 1.397 0 0 0-2.794 0h-.052z" fill="#FFF"/><path d="M3.424 1.866a.873.873 0 0 0 0 1.745H7.9a.874.874 0 0 0 0-1.745c-.129 0-.259-.105-.259-.234a.568.568 0 1 0-1.136 0 .234.234 0 0 1-.469 0c0-.64-.52-1.163-1.162-1.163-.64 0-1.163.522-1.163 1.163a.234.234 0 0 1-.234.234h-.052zM7.9 4.08H3.424a1.343 1.343 0 0 1-1.342-1.34c0-.684.513-1.248 1.174-1.33A1.633 1.633 0 1 1 6.333.905a1.038 1.038 0 0 1 1.753.508A1.342 1.342 0 0 1 9.24 2.737c0 .74-.6 1.341-1.34 1.341z" fill="#231F20"/><path d="M3.968 2.727h-.544a.234.234 0 0 1-.234-.234c0-.13.104-.236.234-.236h.544c.073 0 .134-.06.134-.134v-.476c0-.403.305-.747.697-.782a.771.771 0 0 1 .845.767.235.235 0 1 1-.469 0 .3.3 0 0 0-.099-.223.295.295 0 0 0-.233-.079.313.313 0 0 0-.272.317v.476a.604.604 0 0 1-.603.603M1.736 22.63h-.563a.235.235 0 0 1-.235-.234c0-.13.106-.235.235-.235h.563c.129 0 .233.105.233.235a.233.233 0 0 1-.233.234m6.284 0H3.047a.234.234 0 0 1 0-.469H8.02c.13 0 .233.105.233.235a.233.233 0 0 1-.233.234m14.254 0H9.363a.235.235 0 1 1 0-.469h12.91a.235.235 0 0 1 0 .47" fill="#0155FC"/></g></svg>