<svg width="24" height="24" viewBox="0 0 24 24" xmlns="http://www.w3.org/2000/svg"><title>icons/do/zigzagroute</title><g fill="none" fill-rule="evenodd"><path d="M20.058 8.3H6.018c-.777 0-1.407.63-1.407 1.407v1.788c-.001.454.218.88.589 1.145l9.315 6.65H4.611v3.92h13.824l.002.002.002-.002h.213c.776 0 1.406-.63 1.406-1.407v-1.79c0-.453-.22-.88-.589-1.144l-9.314-6.65h9.903V8.3z" fill="#FFF"/><path d="M9.13 19.29H4.61v3.92h2.023l1.892-2.725c.26-.373.461-.776.604-1.195M20.058 8.3h-4.951c.142.416.343.816.601 1.187l1.898 2.733h2.452V8.3z" fill="#DDD"/><path d="M18.436 23.445l-.021-.001H4.611a.235.235 0 0 1-.235-.234v-3.92c0-.13.105-.235.235-.235h9.172L5.064 12.83a1.642 1.642 0 0 1-.688-1.336V9.707c0-.905.737-1.641 1.642-1.641h14.04a.234.234 0 1 1 0 .468H6.018c-.646 0-1.173.526-1.173 1.173v1.788c0 .378.184.735.49.954l9.316 6.65a.236.236 0 0 1 .088.262.236.236 0 0 1-.224.163h-9.67v3.45h13.807c.646 0 1.172-.525 1.172-1.171v-1.79c0-.377-.184-.734-.492-.954l-9.313-6.648a.234.234 0 0 1 .136-.425h9.468a.234.234 0 0 1 0 .468h-8.736l8.718 6.224c.431.308.687.807.687 1.336v1.789c0 .905-.736 1.64-1.64 1.64h-.195c-.006.002-.014.002-.021.002" fill="#222"/><path d="M5.548 11.729a.234.234 0 0 1-.234-.234l.001-1.788c0-.389.315-.704.703-.704h6.41c.13 0 .234.105.234.234 0 .13-.104.235-.234.235h-6.41a.235.235 0 0 0-.235.235v1.788a.234.234 0 0 1-.235.234m8.397-2.257h-.31a.234.234 0 0 1 0-.47h.31c.13 0 .234.106.234.236a.234.234 0 0 1-.234.234m4.705 13.036h-6.41a.235.235 0 1 1 0-.469h6.41a.235.235 0 0 0 .235-.235v-1.788a.235.235 0 0 1 .47 0l-.001 1.788a.704.704 0 0 1-.703.704m-7.618 0h-.31a.234.234 0 0 1 0-.469h.31c.13 0 .234.105.234.235a.234.234 0 0 1-.234.234M4.61 19.19a1.488 1.488 0 1 1 0-2.975 1.488 1.488 0 0 1 0 2.976m.1-4.841l-.1-.001h-.1c-2.682.07-4.19 3.13-2.66 5.335l2.276 3.274a.59.59 0 0 0 .969 0l2.275-3.274c1.53-2.205.023-5.265-2.66-5.334" fill="#0155FC"/><path d="M4.61 14.584h-.095a3.07 3.07 0 0 0-2.692 1.713 3.135 3.135 0 0 0 .22 3.252l2.275 3.276a.353.353 0 0 0 .293.152.351.351 0 0 0 .292-.152l2.274-3.276a3.13 3.13 0 0 0 .22-3.252 3.069 3.069 0 0 0-2.69-1.713H4.61zm0 8.861a.825.825 0 0 1-.677-.354l-2.274-3.274a3.601 3.601 0 0 1-.255-3.733 3.535 3.535 0 0 1 3.102-1.968l.105-.002.104.002a3.533 3.533 0 0 1 3.102 1.968 3.599 3.599 0 0 1-.255 3.733l-2.274 3.274a.824.824 0 0 1-.676.354H4.61z" fill="#222"/><path d="M4.61 16.449a1.255 1.255 0 0 0 .001 2.508c.69 0 1.254-.563 1.254-1.254 0-.692-.563-1.254-1.254-1.254m0 2.977c-.95 0-1.723-.773-1.723-1.723 0-.95.773-1.723 1.723-1.723.95 0 1.723.773 1.723 1.723 0 .95-.773 1.723-1.723 1.723" fill="#222"/><path d="M19.622 8.192a1.488 1.488 0 1 1 .001-2.976 1.488 1.488 0 0 1 0 2.976m.1-4.84l-.1-.002-.1.002c-2.682.068-4.19 3.13-2.66 5.333l2.276 3.275a.59.59 0 0 0 .969 0l2.274-3.275c1.531-2.204.023-5.265-2.66-5.333" fill="#0155FC"/><path d="M19.622 3.585h-.093a3.071 3.071 0 0 0-2.694 1.713 3.135 3.135 0 0 0 .221 3.253l2.274 3.275c.136.194.45.196.586 0l2.273-3.275c.677-.974.76-2.19.221-3.253a3.071 3.071 0 0 0-2.694-1.712l-.094-.001zm.002 8.862a.825.825 0 0 1-.678-.354L16.67 8.819a3.599 3.599 0 0 1-.254-3.733 3.532 3.532 0 0 1 3.1-1.968l.105-.002.105.002a3.535 3.535 0 0 1 3.102 1.968 3.601 3.601 0 0 1-.255 3.733L20.3 12.093a.825.825 0 0 1-.677.354z" fill="#222"/><path d="M19.547 4.524a.234.234 0 0 1-.234-.226.234.234 0 0 1 .225-.243l.084-.001a.235.235 0 1 1 0 .469h-.075zm-.622 5.72a.232.232 0 0 1-.192-.1l-1.29-1.86a2.67 2.67 0 0 1-.19-2.774c.31-.61.823-1.07 1.447-1.298a.235.235 0 1 1 .161.441 2.172 2.172 0 0 0-1.19 1.07 2.21 2.21 0 0 0 .155 2.293l1.291 1.86a.233.233 0 0 1-.192.368m-14.39 5.278a.234.234 0 1 1-.005-.469l.08-.001a.235.235 0 1 1 0 .469h-.074zm-.622 5.72a.232.232 0 0 1-.192-.1l-1.292-1.86a2.671 2.671 0 0 1-.188-2.773 2.635 2.635 0 0 1 1.446-1.298.234.234 0 1 1 .162.44 2.17 2.17 0 0 0-1.19 1.07c-.38.75-.321 1.607.155 2.293l1.292 1.86a.233.233 0 0 1-.193.368" fill="#FFF"/><path d="M19.622 5.45a1.255 1.255 0 1 0 1.255 1.254c0-.691-.563-1.253-1.255-1.253m0 2.976c-.95 0-1.723-.773-1.723-1.723a1.724 1.724 0 0 1 3.447 0c0 .95-.773 1.723-1.724 1.723" fill="#222"/><path d="M4.61 23.444h-2.1a.234.234 0 0 1 0-.47h2.1c.13 0 .235.106.235.236a.234.234 0 0 1-.234.234" fill="#231F20"/><path d="M1.432 23.444H1.24a.235.235 0 1 1 0-.47h.193c.13 0 .234.106.234.236a.234.234 0 0 1-.234.234" fill="#222"/><path d="M12.058 1.896a1.315 1.315 0 1 0 0 2.632h5.322a1.316 1.316 0 1 0 0-2.632h-.029a.956.956 0 0 0-1.909 0 1.662 1.662 0 0 0-3.323 0h-.061z" fill="#FFF"/><path d="M12.058 2.13a1.083 1.083 0 0 0 0 2.164h5.322a1.083 1.083 0 0 0 0-2.164c-.13 0-.263-.105-.263-.234a.722.722 0 0 0-1.441 0 .235.235 0 0 1-.469 0c0-.787-.639-1.428-1.426-1.428a1.43 1.43 0 0 0-1.428 1.428.234.234 0 0 1-.234.234h-.061zm5.322 2.632h-5.322a1.552 1.552 0 0 1-1.551-1.55c0-.8.611-1.462 1.391-1.542a1.897 1.897 0 1 1 3.607-.56 1.191 1.191 0 0 1 2.06.566 1.553 1.553 0 0 1 1.365 1.536c0 .855-.695 1.55-1.55 1.55z" fill="#222"/><path d="M12.685 3.068h-.627a.234.234 0 0 1-.234-.234c0-.13.104-.235.234-.235h.627a.137.137 0 0 0 .138-.137v-.566c0-.529.429-.958.958-.958a.234.234 0 1 1 0 .468.49.49 0 0 0-.49.49v.566a.607.607 0 0 1-.606.606" fill="#0155FC"/><path d="M7.239 5.358a.824.824 0 1 0-1.569 0 .824.824 0 1 0 .784 1.364.825.825 0 1 0 .785-1.364" fill="#FFF"/><path d="M10.097 5.358a.824.824 0 1 0-1.569 0 .824.824 0 1 0 .784 1.364.825.825 0 1 0 .785-1.364" fill="#FFF"/><path d="M6.454 6.488c.065 0 .127.027.171.075a.59.59 0 1 0 .562-.976.233.233 0 0 1-.172-.3.591.591 0 1 0-1.152-.182c0 .06.01.121.03.182a.233.233 0 0 1-.172.3.59.59 0 1 0 .561.976.234.234 0 0 1 .171-.075m.606.733c-.216 0-.429-.067-.606-.19a1.058 1.058 0 0 1-1.663-.869c0-.42.241-.789.61-.959a1.054 1.054 0 0 1 1.053-1.157 1.06 1.06 0 0 1 1.054 1.158c.365.172.61.545.61.958a1.06 1.06 0 0 1-1.059 1.06" fill="#222"/><path d="M9.312 6.488c.065 0 .127.027.172.075a.59.59 0 1 0 .562-.976.233.233 0 0 1-.172-.3.591.591 0 1 0-1.152-.182c0 .06.01.121.029.182a.233.233 0 0 1-.172.3.59.59 0 1 0 .561.976.234.234 0 0 1 .172-.075m.605.733c-.216 0-.428-.067-.605-.19a1.058 1.058 0 0 1-1.663-.869c0-.42.24-.789.609-.959a1.054 1.054 0 0 1 1.054-1.157 1.06 1.06 0 0 1 1.054 1.158c.364.172.61.545.61.958a1.06 1.06 0 0 1-1.06 1.06M6.454 8.534A.234.234 0 0 1 6.22 8.3V6.722a.234.234 0 1 1 .468 0V8.3a.234.234 0 0 1-.234.234" fill="#222"/><path d="M9.312 8.534a.234.234 0 0 1-.234-.234V6.722a.234.234 0 1 1 .468 0V8.3a.234.234 0 0 1-.234.234m12.354 3.92h-2.044a.234.234 0 0 1-.233-.234c0-.13.104-.235.233-.235h2.044c.13 0 .233.105.233.235a.234.234 0 0 1-.233.234m1.329-.007h-.242a.235.235 0 1 1 0-.469h.242c.13 0 .234.105.234.235a.234.234 0 0 1-.234.234" fill="#222"/></g></svg>