<?xml version="1.0" encoding="UTF-8"?>
<svg width="24px" height="24px" viewBox="0 0 24 24" version="1.1" xmlns="http://www.w3.org/2000/svg" xmlns:xlink="http://www.w3.org/1999/xlink">
    <!-- Generator: Sketch 49 (51002) - http://www.bohemiancoding.com/sketch -->
    <title>icons/problem/delivery</title>
    <desc>Created with Sketch.</desc>
    <defs></defs>
    <g id="icons/problem/delivery" stroke="none" stroke-width="1" fill="none" fill-rule="evenodd">
        <g id="Page-1" transform="translate(2.000000, 0.000000)">
            <path d="M13.143,12.4316 L12.686,12.4316 L12.686,12.4206 L5.629,12.4206 C4.819,12.4206 4.16,11.7616 4.16,10.9506 C4.16,10.1396 4.819,9.4806 5.629,9.4806 L13.865,9.4806 L13.865,5.5606 L5.629,5.5606 C2.658,5.5606 0.24,7.9786 0.24,10.9506 C0.24,13.9226 2.658,16.3406 5.629,16.3406 L6.086,16.3406 L6.086,16.3516 L13.143,16.3516 C13.954,16.3516 14.613,17.0116 14.613,17.8216 C14.613,18.6326 13.954,19.2916 13.143,19.2916 L0.24,19.2916 L0.24,23.2116 L13.143,23.2116 C16.115,23.2116 18.533,20.7936 18.533,17.8216 C18.533,14.8496 16.115,12.4316 13.143,12.4316" id="Fill-1" fill="#FFFFFF"></path>
            <path d="M13.8647,5.5605 L11.7117,5.5605 C11.3867,6.1405 11.2017,6.8075 11.2017,7.5175 C11.2017,8.2295 11.3877,8.8995 11.7157,9.4805 L13.8647,9.4805 L13.8647,5.5605 Z" id="Fill-3" fill="#DDDDDD"></path>
            <path d="M5.6293,16.3403 L6.0863,16.3403 L6.0863,16.3513 L13.1433,16.3513 C13.4113,16.3513 13.6633,16.4243 13.8803,16.5503 C13.9173,16.4063 13.9373,16.2553 13.9373,16.0993 C13.9373,15.5443 13.6793,15.0313 13.2693,14.6933 C13.1363,13.8193 12.3793,13.1473 11.4693,13.1473 C10.8283,13.1473 10.2633,13.4803 9.9393,13.9833 C9.6143,13.4803 9.0503,13.1473 8.4093,13.1473 C7.7683,13.1473 7.2033,13.4803 6.8793,13.9833 C6.5553,13.4803 5.9903,13.1473 5.3493,13.1473 C4.4393,13.1473 3.6823,13.8193 3.5493,14.6933 C3.2603,14.9323 3.0473,15.2573 2.9463,15.6243 C3.7363,16.0793 4.6533,16.3403 5.6293,16.3403" id="Fill-5" fill="#DDDDDD"></path>
            <path d="M6.8042,23.4575 C5.7082,23.4575 4.6202,23.4545 3.5442,23.4515 C2.4452,23.4485 1.3442,23.4455 0.2402,23.4455 C0.1112,23.4455 0.0052,23.3405 0.0052,23.2115 C0.0052,23.0825 0.1112,22.9775 0.2402,22.9775 C1.3442,22.9775 2.4462,22.9795 3.5452,22.9825 C6.7742,22.9915 10.1132,23.0005 13.4142,22.9305 C14.9612,22.9305 16.3602,22.1815 17.3572,20.8225 C18.3652,19.3765 18.5872,17.6535 17.9822,15.9765 C17.9662,15.9495 17.9402,15.8835 17.9132,15.8175 C17.8922,15.7665 17.8722,15.7145 17.8522,15.6735 C17.0842,13.9125 15.3632,12.7525 13.4602,12.7075 C12.1012,12.6375 10.7102,12.6485 9.3652,12.6605 C8.0132,12.6725 6.6152,12.6855 5.2472,12.6135 C4.3262,12.3875 3.7872,11.5265 3.9502,10.6035 C4.0472,10.0235 4.4952,9.5475 5.1802,9.2985 C5.2012,9.2905 5.2252,9.2865 5.2482,9.2845 C6.9452,9.1975 8.6832,9.2175 10.3642,9.2365 C11.4242,9.2485 12.5222,9.2615 13.5872,9.2465 L13.5912,9.2465 C13.7192,9.2465 13.8242,9.3485 13.8252,9.4775 C13.8272,9.6065 13.7242,9.7125 13.5942,9.7145 C12.5212,9.7285 11.4212,9.7185 10.3592,9.7055 C8.6972,9.6865 6.9822,9.6675 5.3082,9.7515 C5.0462,9.8525 4.5052,10.1245 4.4122,10.6835 C4.2922,11.3625 4.6822,11.9935 5.3172,12.1515 C6.6242,12.2155 8.0162,12.2035 9.3612,12.1915 C10.7142,12.1805 12.1122,12.1685 13.4782,12.2385 C15.5552,12.2885 17.4422,13.5585 18.2762,15.4745 C18.2962,15.5145 18.3232,15.5785 18.3482,15.6435 C18.3692,15.6955 18.3902,15.7485 18.4112,15.7905 C19.0722,17.6155 18.8232,19.5395 17.7382,21.0955 C16.6472,22.5825 15.1152,23.3985 13.4192,23.3985 C11.2172,23.4455 8.9962,23.4575 6.8042,23.4575" id="Fill-7" fill="#231F20"></path>
            <path d="M0.2397,19.5258 C0.1107,19.5258 0.0067,19.4218 0.0057,19.2928 C0.0057,19.1628 0.1097,19.0578 0.2387,19.0568 C4.6497,19.0378 9.0577,19.0378 13.4667,19.0378 C13.8017,18.9518 14.1167,18.6868 14.2757,18.3168 C14.4397,17.9338 14.4127,17.5048 14.2007,17.1398 C13.9397,16.7488 13.4677,16.5528 12.7617,16.5528 C10.1697,16.6468 7.5277,16.5988 4.9737,16.5528 C3.5217,16.2768 2.3757,15.6858 1.5257,14.7918 C0.7467,13.9628 0.2527,12.9758 0.0577,11.8568 C-0.1423,10.3518 0.1787,8.9338 0.9867,7.7458 C2.0527,6.2738 3.5167,5.4398 5.1127,5.3928 C7.0267,5.3288 8.9877,5.3308 10.8847,5.3308 C11.7897,5.3328 12.6927,5.3318 13.5897,5.3258 C13.6917,5.3258 13.8247,5.4298 13.8257,5.5588 C13.8267,5.6888 13.7217,5.7938 13.5927,5.7948 C12.6947,5.8008 11.7907,5.7998 10.8837,5.7998 C8.9887,5.7948 7.0347,5.7968 5.1277,5.8608 C3.6587,5.9038 2.3597,6.6498 1.3707,8.0158 C0.6327,9.0998 0.3377,10.4058 0.5217,11.7858 C0.6987,12.8038 1.1517,13.7098 1.8667,14.4698 C2.6467,15.2908 3.7087,15.8358 5.0227,16.0878 C7.5317,16.1308 10.1667,16.1778 12.7547,16.0838 C13.6237,16.0838 14.2417,16.3558 14.5987,16.8918 C14.8937,17.3998 14.9297,17.9818 14.7067,18.5018 C14.4877,19.0088 14.0557,19.3728 13.5197,19.5008 C9.0587,19.5068 4.6507,19.5068 0.2407,19.5258 L0.2397,19.5258 Z" id="Fill-9" fill="#222222"></path>
            <path d="M9.8442,6.7104 L9.1122,6.7104 C8.9832,6.7104 8.8772,6.6054 8.8772,6.4764 C8.8772,6.3464 8.9832,6.2414 9.1122,6.2414 L9.8442,6.2414 C9.9732,6.2414 10.0782,6.3464 10.0782,6.4764 C10.0782,6.6054 9.9732,6.7104 9.8442,6.7104" id="Fill-12" fill="#0155FC"></path>
            <path d="M1.1557,11.185 C1.0257,11.185 0.9217,11.08 0.9217,10.951 C0.9217,8.354 3.0337,6.242 5.6307,6.242 L7.2807,6.242 C7.4107,6.242 7.5147,6.347 7.5147,6.476 C7.5147,6.605 7.4107,6.71 7.2807,6.71 L5.6307,6.71 C3.2927,6.71 1.3897,8.613 1.3897,10.951 C1.3897,11.08 1.2847,11.185 1.1557,11.185" id="Fill-14" fill="#0155FC"></path>
            <path d="M7.9995,1.7207 C7.3495,1.7207 6.8215,2.2477 6.8215,2.8987 C6.8215,3.5487 7.3495,4.0757 7.9995,4.0757 L12.7605,4.0757 C13.4095,4.0757 13.9365,3.5487 13.9365,2.8987 C13.9365,2.2477 13.4095,1.7207 12.7605,1.7207 L12.7335,1.7207 C12.7335,1.2497 12.3525,0.8667 11.8805,0.8667 C11.4085,0.8667 11.0255,1.2497 11.0255,1.7207 C11.0255,0.8997 10.3605,0.2347 9.5395,0.2347 C8.7195,0.2347 8.0545,0.8997 8.0545,1.7207 L7.9995,1.7207 Z" id="Fill-16" fill="#FFFFFF"></path>
            <path d="M7.9995,1.955 C7.4785,1.955 7.0565,2.378 7.0565,2.898 C7.0565,3.418 7.4785,3.841 7.9995,3.841 L12.7605,3.841 C13.2795,3.841 13.7025,3.418 13.7025,2.898 C13.7025,2.378 13.2795,1.955 12.7605,1.955 C12.6305,1.955 12.4995,1.85 12.4995,1.721 C12.4995,1.379 12.2225,1.101 11.8805,1.101 C11.5385,1.101 11.2615,1.379 11.2615,1.721 C11.2615,1.85 11.1555,1.955 11.0265,1.955 C10.8965,1.955 10.7925,1.85 10.7925,1.721 C10.7925,1.03 10.2305,0.469 9.5405,0.469 C8.8505,0.469 8.2885,1.03 8.2885,1.721 C8.2885,1.85 8.1835,1.955 8.0545,1.955 L7.9995,1.955 Z M12.7605,4.31 L7.9995,4.31 C7.2215,4.31 6.5875,3.677 6.5875,2.898 C6.5875,2.175 7.1335,1.578 7.8345,1.496 C7.9445,0.653 8.6675,0 9.5405,0 C10.2215,0 10.8115,0.398 11.0905,0.973 C11.2885,0.764 11.5695,0.633 11.8805,0.633 C12.4045,0.633 12.8445,1.006 12.9465,1.501 C13.6465,1.601 14.1715,2.189 14.1715,2.898 C14.1715,3.677 13.5385,4.31 12.7605,4.31 Z" id="Fill-18" fill="#222222"></path>
            <path d="M8.5776,2.8706 L7.9996,2.8706 C7.8696,2.8706 7.7656,2.7656 7.7656,2.6366 C7.7656,2.5066 7.8696,2.4016 7.9996,2.4016 L8.5776,2.4016 C8.6646,2.4016 8.7346,2.3306 8.7346,2.2446 L8.7346,1.7376 C8.7346,1.3166 9.0556,0.9576 9.4636,0.9186 C9.6906,0.8986 9.9146,0.9736 10.0826,1.1256 C10.2496,1.2776 10.3456,1.4946 10.3456,1.7206 C10.3456,1.8496 10.2406,1.9546 10.1106,1.9546 C9.9816,1.9546 9.8766,1.8496 9.8766,1.7206 C9.8766,1.6246 9.8376,1.5366 9.7656,1.4726 C9.6946,1.4076 9.6026,1.3746 9.5076,1.3856 C9.3376,1.4016 9.2036,1.5566 9.2036,1.7376 L9.2036,2.2446 C9.2036,2.5896 8.9236,2.8706 8.5776,2.8706" id="Fill-21" fill="#0155FC"></path>
            <path d="M7.9995,4.31 L6.3405,4.31 C6.2105,4.31 6.1055,4.205 6.1055,4.076 C6.1055,3.946 6.2105,3.841 6.3405,3.841 L7.9995,3.841 C8.1285,3.841 8.2335,3.946 8.2335,4.076 C8.2335,4.205 8.1285,4.31 7.9995,4.31" id="Fill-23" fill="#222222"></path>
            <path d="M5.6645,4.31 L5.5775,4.31 C5.4485,4.31 5.3435,4.205 5.3435,4.076 C5.3435,3.946 5.4485,3.841 5.5775,3.841 L5.6645,3.841 C5.7945,3.841 5.8985,3.946 5.8985,4.076 C5.8985,4.205 5.7945,4.31 5.6645,4.31" id="Fill-25" fill="#222222"></path>
            <path d="M6.1889,15.2382 C6.2159,15.1532 6.2319,15.0612 6.2319,14.9672 C6.2319,14.4802 5.8359,14.0852 5.3489,14.0852 C4.8619,14.0852 4.4659,14.4802 4.4659,14.9672 C4.4659,15.0612 4.4819,15.1532 4.5089,15.2382 C4.1149,15.3262 3.8189,15.6782 3.8189,16.0992 C3.8189,16.5862 4.2139,16.9822 4.7019,16.9822 C4.9579,16.9822 5.1879,16.8722 5.3489,16.6982 C5.5099,16.8722 5.7409,16.9822 5.9969,16.9822 C6.4839,16.9822 6.8789,16.5862 6.8789,16.0992 C6.8789,15.6782 6.5849,15.3262 6.1889,15.2382" id="Fill-27" fill="#FFFFFF"></path>
            <path d="M9.2495,15.2382 C9.2765,15.1532 9.2915,15.0612 9.2915,14.9672 C9.2915,14.4802 8.8965,14.0852 8.4095,14.0852 C7.9215,14.0852 7.5265,14.4802 7.5265,14.9672 C7.5265,15.0612 7.5415,15.1532 7.5695,15.2382 C7.1745,15.3262 6.8795,15.6782 6.8795,16.0992 C6.8795,16.5862 7.2735,16.9822 7.7625,16.9822 C8.0185,16.9822 8.2485,16.8722 8.4095,16.6982 C8.5705,16.8722 8.8015,16.9822 9.0575,16.9822 C9.5445,16.9822 9.9385,16.5862 9.9385,16.0992 C9.9385,15.6782 9.6445,15.3262 9.2495,15.2382" id="Fill-29" fill="#FFFFFF"></path>
            <path d="M12.309,15.2382 C12.336,15.1532 12.352,15.0612 12.352,14.9672 C12.352,14.4802 11.956,14.0852 11.469,14.0852 C10.982,14.0852 10.586,14.4802 10.586,14.9672 C10.586,15.0612 10.602,15.1532 10.629,15.2382 C10.235,15.3262 9.939,15.6782 9.939,16.0992 C9.939,16.5862 10.334,16.9822 10.822,16.9822 C11.078,16.9822 11.308,16.8722 11.469,16.6982 C11.63,16.8722 11.861,16.9822 12.117,16.9822 C12.604,16.9822 12.999,16.5862 12.999,16.0992 C12.999,15.6782 12.704,15.3262 12.309,15.2382" id="Fill-31" fill="#FFFFFF"></path>
            <path d="M5.3491,16.4643 C5.4141,16.4643 5.4771,16.4913 5.5211,16.5393 C5.6441,16.6713 5.8171,16.7473 5.9961,16.7473 C6.3541,16.7473 6.6451,16.4563 6.6451,16.0993 C6.6451,15.7973 6.4321,15.5323 6.1381,15.4673 C6.0741,15.4533 6.0181,15.4123 5.9861,15.3543 C5.9531,15.2973 5.9461,15.2283 5.9661,15.1653 C5.9871,15.1023 5.9971,15.0353 5.9971,14.9673 C5.9971,14.6103 5.7061,14.3193 5.3491,14.3193 C4.9921,14.3193 4.7021,14.6103 4.7021,14.9673 C4.7021,15.0343 4.7121,15.1023 4.7331,15.1673 C4.7521,15.2293 4.7451,15.2973 4.7121,15.3553 C4.6801,15.4123 4.6241,15.4533 4.5601,15.4673 C4.2671,15.5323 4.0541,15.7973 4.0541,16.0993 C4.0541,16.4563 4.3441,16.7473 4.7021,16.7473 C4.8811,16.7473 5.0551,16.6713 5.1771,16.5393 C5.2221,16.4913 5.2841,16.4643 5.3491,16.4643 M5.9961,17.2163 C5.7641,17.2163 5.5371,17.1423 5.3491,17.0093 C5.1621,17.1423 4.9351,17.2163 4.7021,17.2163 C4.0861,17.2163 3.5851,16.7153 3.5851,16.0993 C3.5851,15.6583 3.8491,15.2623 4.2391,15.0833 C4.2351,15.0453 4.2331,15.0063 4.2331,14.9673 C4.2331,14.3513 4.7341,13.8503 5.3491,13.8503 C5.9651,13.8503 6.4661,14.3513 6.4661,14.9673 C6.4661,15.0063 6.4641,15.0453 6.4601,15.0833 C6.8491,15.2623 7.1141,15.6583 7.1141,16.0993 C7.1141,16.7153 6.6131,17.2163 5.9961,17.2163" id="Fill-33" fill="#222222"></path>
            <path d="M8.4096,16.4643 C8.4746,16.4643 8.5366,16.4913 8.5816,16.5393 C8.7036,16.6713 8.8776,16.7473 9.0566,16.7473 C9.4146,16.7473 9.7046,16.4563 9.7046,16.0993 C9.7046,15.7973 9.4916,15.5323 9.1986,15.4673 C9.1346,15.4533 9.0786,15.4123 9.0456,15.3543 C9.0136,15.2973 9.0056,15.2283 9.0256,15.1653 C9.0466,15.1023 9.0566,15.0353 9.0566,14.9673 C9.0566,14.6103 8.7666,14.3193 8.4096,14.3193 C8.0526,14.3193 7.7616,14.6103 7.7616,14.9673 C7.7616,15.0353 7.7716,15.1023 7.7926,15.1653 C7.8126,15.2283 7.8056,15.2973 7.7726,15.3543 C7.7406,15.4123 7.6846,15.4533 7.6206,15.4673 C7.3266,15.5323 7.1136,15.7973 7.1136,16.0993 C7.1136,16.4563 7.4046,16.7473 7.7626,16.7473 C7.9416,16.7473 8.1146,16.6713 8.2376,16.5393 C8.2816,16.4913 8.3446,16.4643 8.4096,16.4643 M9.0566,17.2163 C8.8236,17.2163 8.5966,17.1423 8.4096,17.0093 C8.2216,17.1423 7.9946,17.2163 7.7626,17.2163 C7.1456,17.2163 6.6446,16.7153 6.6446,16.0993 C6.6446,15.6583 6.9096,15.2623 7.2986,15.0833 C7.2946,15.0453 7.2926,15.0063 7.2926,14.9673 C7.2926,14.3513 7.7936,13.8503 8.4096,13.8503 C9.0246,13.8503 9.5256,14.3513 9.5256,14.9673 C9.5256,15.0063 9.5236,15.0453 9.5196,15.0833 C9.9096,15.2623 10.1736,15.6583 10.1736,16.0993 C10.1736,16.7153 9.6726,17.2163 9.0566,17.2163" id="Fill-35" fill="#222222"></path>
            <path d="M11.4692,16.4643 C11.5342,16.4643 11.5972,16.4913 11.6412,16.5393 C11.7642,16.6713 11.9372,16.7473 12.1162,16.7473 C12.4742,16.7473 12.7652,16.4563 12.7652,16.0993 C12.7652,15.7973 12.5522,15.5323 12.2582,15.4673 C12.1942,15.4533 12.1392,15.4123 12.1062,15.3553 C12.0732,15.2973 12.0662,15.2293 12.0862,15.1673 C12.1072,15.1023 12.1172,15.0343 12.1172,14.9673 C12.1172,14.6103 11.8262,14.3193 11.4692,14.3193 C11.1122,14.3193 10.8222,14.6103 10.8222,14.9673 C10.8222,15.0353 10.8322,15.1023 10.8532,15.1653 C10.8732,15.2283 10.8652,15.2973 10.8332,15.3543 C10.8002,15.4123 10.7442,15.4533 10.6802,15.4673 C10.3872,15.5323 10.1732,15.7973 10.1732,16.0993 C10.1732,16.4563 10.4642,16.7473 10.8222,16.7473 C11.0012,16.7473 11.1752,16.6713 11.2972,16.5393 C11.3422,16.4913 11.4042,16.4643 11.4692,16.4643 M12.1162,17.2163 C11.8842,17.2163 11.6572,17.1423 11.4692,17.0093 C11.2822,17.1423 11.0552,17.2163 10.8222,17.2163 C10.2052,17.2163 9.7042,16.7153 9.7042,16.0993 C9.7042,15.6583 9.9692,15.2623 10.3592,15.0833 C10.3552,15.0453 10.3532,15.0063 10.3532,14.9673 C10.3532,14.3513 10.8542,13.8503 11.4692,13.8503 C12.0852,13.8503 12.5862,14.3513 12.5862,14.9673 C12.5862,15.0063 12.5842,15.0453 12.5802,15.0833 C12.9692,15.2623 13.2342,15.6583 13.2342,16.0993 C13.2342,16.7153 12.7332,17.2163 12.1162,17.2163" id="Fill-37" fill="#222222"></path>
            <path d="M5.3491,19.5083 C5.2201,19.5083 5.1151,19.4033 5.1151,19.2743 L5.1151,16.6983 C5.1151,16.5693 5.2201,16.4643 5.3491,16.4643 C5.4791,16.4643 5.5831,16.5693 5.5831,16.6983 L5.5831,19.2743 C5.5831,19.4033 5.4791,19.5083 5.3491,19.5083" id="Fill-39" fill="#222222"></path>
            <path d="M8.4096,19.5083 C8.2796,19.5083 8.1756,19.4033 8.1756,19.2743 L8.1756,16.6983 C8.1756,16.5693 8.2796,16.4643 8.4096,16.4643 C8.5386,16.4643 8.6436,16.5693 8.6436,16.6983 L8.6436,19.2743 C8.6436,19.4033 8.5386,19.5083 8.4096,19.5083" id="Fill-41" fill="#222222"></path>
            <path d="M11.4692,19.5083 C11.3402,19.5083 11.2352,19.4033 11.2352,19.2743 L11.2352,16.6983 C11.2352,16.5693 11.3402,16.4643 11.4692,16.4643 C11.5992,16.4643 11.7032,16.5693 11.7032,16.6983 L11.7032,19.2743 C11.7032,19.4033 11.5992,19.5083 11.4692,19.5083" id="Fill-43" fill="#222222"></path>
            <path d="M15.2241,8.6821 C14.5801,8.6821 14.0591,8.1611 14.0591,7.5171 C14.0591,6.8731 14.5801,6.3521 15.2241,6.3521 C15.8681,6.3521 16.3891,6.8731 16.3891,7.5171 C16.3891,8.1611 15.8681,8.6821 15.2241,8.6821 M15.2241,4.4321 C13.5211,4.4321 12.1391,5.8131 12.1391,7.5171 C12.1391,9.2211 13.5211,10.6021 15.2241,10.6021 C16.9281,10.6021 18.3091,9.2211 18.3091,7.5171 C18.3091,5.8131 16.9281,4.4321 15.2241,4.4321" id="Fill-45" fill="#0155FC"></path>
            <path d="M15.2241,4.6665 C13.6531,4.6665 12.3731,5.9455 12.3731,7.5175 C12.3731,9.0885 13.6531,10.3675 15.2241,10.3675 C16.7961,10.3675 18.0761,9.0885 18.0761,7.5175 C18.0761,5.9455 16.7961,4.6665 15.2241,4.6665 M15.2241,10.8365 C13.3941,10.8365 11.9051,9.3475 11.9051,7.5175 C11.9051,5.6865 13.3941,4.1975 15.2241,4.1975 C17.0551,4.1975 18.5441,5.6865 18.5441,7.5175 C18.5441,9.3475 17.0551,10.8365 15.2241,10.8365" id="Fill-47" fill="#222222"></path>
            <path d="M15.0698,5.6176 C14.9468,5.6176 14.8438,5.5226 14.8358,5.3986 C14.8268,5.2696 14.9238,5.1586 15.0538,5.1496 C15.1108,5.1456 15.1678,5.1436 15.2238,5.1436 C15.3538,5.1436 15.4588,5.2486 15.4588,5.3776 C15.4588,5.5076 15.3538,5.6126 15.2238,5.6126 C15.1778,5.6126 15.1318,5.6146 15.0858,5.6176 C15.0798,5.6176 15.0748,5.6176 15.0698,5.6176" id="Fill-49" fill="#FFFFFF"></path>
            <path d="M13.0854,7.7514 C12.9554,7.7514 12.8514,7.6464 12.8514,7.5174 C12.8514,6.6914 13.2714,5.9374 13.9744,5.4994 C14.0844,5.4314 14.2294,5.4644 14.2974,5.5744 C14.3654,5.6844 14.3324,5.8294 14.2224,5.8974 C13.6564,6.2494 13.3194,6.8554 13.3194,7.5174 C13.3194,7.6464 13.2144,7.7514 13.0854,7.7514" id="Fill-51" fill="#FFFFFF"></path>
            <path d="M15.2241,6.5864 C14.7111,6.5864 14.2931,7.0034 14.2931,7.5174 C14.2931,8.0304 14.7111,8.4474 15.2241,8.4474 C15.7381,8.4474 16.1561,8.0304 16.1561,7.5174 C16.1561,7.0034 15.7381,6.5864 15.2241,6.5864 M15.2241,8.9164 C14.4531,8.9164 13.8251,8.2884 13.8251,7.5174 C13.8251,6.7454 14.4531,6.1174 15.2241,6.1174 C15.9961,6.1174 16.6241,6.7454 16.6241,7.5174 C16.6241,8.2884 15.9961,8.9164 15.2241,8.9164" id="Fill-53" fill="#222222"></path>
            <path d="M15.2241,4.6665 C15.0951,4.6665 14.9901,4.5615 14.9901,4.4325 L14.9901,3.2105 C14.9901,3.0815 15.0951,2.9765 15.2241,2.9765 C15.3541,2.9765 15.4581,3.0815 15.4581,3.2105 L15.4581,4.4325 C15.4581,4.5615 15.3541,4.6665 15.2241,4.6665" id="Fill-55" fill="#222222"></path>
            <path d="M15.2241,12.0576 C15.0951,12.0576 14.9901,11.9526 14.9901,11.8236 L14.9901,10.6016 C14.9901,10.4726 15.0951,10.3676 15.2241,10.3676 C15.3541,10.3676 15.4581,10.4726 15.4581,10.6016 L15.4581,11.8236 C15.4581,11.9526 15.3541,12.0576 15.2241,12.0576" id="Fill-57" fill="#222222"></path>
            <path d="M19.5307,7.7514 L18.3097,7.7514 C18.1797,7.7514 18.0757,7.6464 18.0757,7.5174 C18.0757,7.3874 18.1797,7.2824 18.3097,7.2824 L19.5307,7.2824 C19.6597,7.2824 19.7647,7.3874 19.7647,7.5174 C19.7647,7.6464 19.6597,7.7514 19.5307,7.7514" id="Fill-59" fill="#222222"></path>
            <path d="M12.1391,7.7514 L10.9181,7.7514 C10.7891,7.7514 10.6841,7.6464 10.6841,7.5174 C10.6841,7.3874 10.7891,7.2824 10.9181,7.2824 L12.1391,7.2824 C12.2691,7.2824 12.3731,7.3874 12.3731,7.5174 C12.3731,7.6464 12.2691,7.7514 12.1391,7.7514" id="Fill-61" fill="#222222"></path>
        </g>
    </g>
</svg>