<?xml version="1.0" encoding="UTF-8"?>
<svg width="24px" height="24px" viewBox="0 0 24 24" version="1.1" xmlns="http://www.w3.org/2000/svg" xmlns:xlink="http://www.w3.org/1999/xlink">
    <!-- Generator: Sketch 49 (51002) - http://www.bohemiancoding.com/sketch -->
    <title>icons/problem/navigator</title>
    <desc>Created with Sketch.</desc>
    <defs></defs>
    <g id="icons/problem/navigator" stroke="none" stroke-width="1" fill="none" fill-rule="evenodd">
        <g id="Page-1">
            <path d="M21.3364,16.6934 C21.3364,17.2114 20.9164,17.6314 20.3984,17.6314 L3.0484,17.6314 C2.5294,17.6314 2.1094,17.2114 2.1094,16.6934 L2.1094,3.0474 C2.1094,2.5304 2.5294,2.1104 3.0484,2.1104 L20.3984,2.1104 C20.9164,2.1104 21.3364,2.5304 21.3364,3.0474 L21.3364,16.6934 Z" id="Fill-1" fill="#FFFFFF"></path>
            <path d="M12.3227,13.5933 C12.3497,13.5083 12.3647,13.4173 12.3647,13.3223 C12.3647,12.8353 11.9697,12.4403 11.4827,12.4403 C10.9957,12.4403 10.5997,12.8353 10.5997,13.3223 C10.5997,13.4173 10.6147,13.5083 10.6417,13.5933 C10.2477,13.6813 9.9527,14.0333 9.9527,14.4543 C9.9527,14.9423 10.3467,15.3373 10.8347,15.3373 C11.0917,15.3373 11.3217,15.2273 11.4827,15.0533 C11.6437,15.2273 11.8747,15.3373 12.1307,15.3373 C12.6177,15.3373 13.0117,14.9423 13.0117,14.4543 C13.0117,14.0333 12.7177,13.6813 12.3227,13.5933" id="Fill-3" fill="#FFFFFF"></path>
            <path d="M15.3823,13.5933 C15.4093,13.5083 15.4253,13.4173 15.4253,13.3223 C15.4253,12.8353 15.0293,12.4403 14.5423,12.4403 C14.0553,12.4403 13.6593,12.8353 13.6593,13.3223 C13.6593,13.4173 13.6753,13.5083 13.7023,13.5933 C13.3083,13.6813 13.0123,14.0333 13.0123,14.4543 C13.0123,14.9423 13.4073,15.3373 13.8953,15.3373 C14.1513,15.3373 14.3813,15.2273 14.5423,15.0533 C14.7033,15.2273 14.9343,15.3373 15.1903,15.3373 C15.6773,15.3373 16.0723,14.9423 16.0723,14.4543 C16.0723,14.0333 15.7773,13.6813 15.3823,13.5933" id="Fill-5" fill="#FFFFFF"></path>
            <path d="M18.4428,13.5933 C18.4698,13.5083 18.4848,13.4173 18.4848,13.3223 C18.4848,12.8353 18.0898,12.4403 17.6028,12.4403 C17.1148,12.4403 16.7198,12.8353 16.7198,13.3223 C16.7198,13.4173 16.7348,13.5083 16.7618,13.5933 C16.3678,13.6813 16.0728,14.0333 16.0728,14.4543 C16.0728,14.9423 16.4668,15.3373 16.9548,15.3373 C17.2118,15.3373 17.4408,15.2273 17.6028,15.0533 C17.7638,15.2273 17.9948,15.3373 18.2508,15.3373 C18.7378,15.3373 19.1318,14.9423 19.1318,14.4543 C19.1318,14.0333 18.8378,13.6813 18.4428,13.5933" id="Fill-7" fill="#FFFFFF"></path>
            <path d="M11.4829,14.8194 C11.5469,14.8194 11.6099,14.8464 11.6549,14.8944 C11.7769,15.0264 11.9509,15.1024 12.1289,15.1024 C12.4879,15.1024 12.7779,14.8114 12.7779,14.4544 C12.7779,14.1534 12.5649,13.8874 12.2709,13.8224 C12.2079,13.8074 12.1509,13.7674 12.1189,13.7094 C12.0869,13.6524 12.0799,13.5834 12.0989,13.5204 C12.1209,13.4564 12.1299,13.3894 12.1299,13.3224 C12.1299,12.9654 11.8389,12.6744 11.4829,12.6744 C11.1259,12.6744 10.8349,12.9654 10.8349,13.3224 C10.8349,13.3894 10.8449,13.4574 10.8659,13.5224 C10.8859,13.5844 10.8789,13.6524 10.8459,13.7104 C10.8129,13.7674 10.7579,13.8074 10.6929,13.8224 C10.3999,13.8874 10.1869,14.1534 10.1869,14.4544 C10.1869,14.8114 10.4779,15.1024 10.8349,15.1024 C11.0139,15.1024 11.1879,15.0264 11.3099,14.8944 C11.3549,14.8464 11.4169,14.8194 11.4829,14.8194 M12.1289,15.5714 C11.8969,15.5714 11.6699,15.4974 11.4829,15.3644 C11.2949,15.4974 11.0679,15.5714 10.8349,15.5714 C10.2189,15.5714 9.7179,15.0704 9.7179,14.4544 C9.7179,14.0144 9.9829,13.6174 10.3719,13.4384 C10.3679,13.4004 10.3659,13.3614 10.3659,13.3224 C10.3659,12.7064 10.8669,12.2054 11.4829,12.2054 C12.0989,12.2054 12.5999,12.7064 12.5999,13.3224 C12.5999,13.3614 12.5969,13.4004 12.5929,13.4394 C12.9829,13.6174 13.2469,14.0144 13.2469,14.4544 C13.2469,15.0704 12.7459,15.5714 12.1289,15.5714" id="Fill-9" fill="#231F20"></path>
            <path d="M14.5424,14.8194 C14.6074,14.8194 14.6704,14.8464 14.7144,14.8944 C14.8374,15.0264 15.0104,15.1024 15.1894,15.1024 C15.5474,15.1024 15.8384,14.8114 15.8384,14.4544 C15.8384,14.1534 15.6254,13.8874 15.3314,13.8224 C15.2674,13.8074 15.2114,13.7674 15.1794,13.7104 C15.1464,13.6524 15.1394,13.5844 15.1584,13.5224 C15.1804,13.4564 15.1904,13.3884 15.1904,13.3224 C15.1904,12.9654 14.8994,12.6744 14.5424,12.6744 C14.1854,12.6744 13.8944,12.9654 13.8944,13.3224 C13.8944,13.3884 13.9044,13.4564 13.9264,13.5224 C13.9454,13.5844 13.9384,13.6524 13.9054,13.7104 C13.8734,13.7674 13.8174,13.8074 13.7534,13.8224 C13.4594,13.8874 13.2464,14.1534 13.2464,14.4544 C13.2464,14.8114 13.5374,15.1024 13.8954,15.1024 C14.0744,15.1024 14.2474,15.0264 14.3704,14.8944 C14.4144,14.8464 14.4774,14.8194 14.5424,14.8194 M15.1894,15.5714 C14.9564,15.5714 14.7294,15.4974 14.5424,15.3644 C14.3554,15.4974 14.1284,15.5714 13.8954,15.5714 C13.2784,15.5714 12.7774,15.0704 12.7774,14.4544 C12.7774,14.0144 13.0424,13.6174 13.4314,13.4384 C13.4274,13.4004 13.4254,13.3614 13.4254,13.3224 C13.4254,12.7064 13.9264,12.2054 14.5424,12.2054 C15.1584,12.2054 15.6594,12.7064 15.6594,13.3224 C15.6594,13.3614 15.6574,13.4004 15.6534,13.4384 C16.0424,13.6174 16.3074,14.0144 16.3074,14.4544 C16.3074,15.0704 15.8064,15.5714 15.1894,15.5714" id="Fill-11" fill="#231F20"></path>
            <path d="M17.602,14.8194 C17.667,14.8194 17.729,14.8464 17.774,14.8944 C17.899,15.0284 18.069,15.1024 18.25,15.1024 C18.608,15.1024 18.898,14.8114 18.898,14.4544 C18.898,14.1534 18.685,13.8874 18.392,13.8224 C18.328,13.8074 18.272,13.7674 18.24,13.7104 C18.206,13.6524 18.2,13.5844 18.219,13.5224 C18.24,13.4584 18.25,13.3904 18.25,13.3224 C18.25,12.9654 17.959,12.6744 17.602,12.6744 C17.245,12.6744 16.955,12.9654 16.955,13.3224 C16.955,13.3904 16.965,13.4584 16.986,13.5224 C17.005,13.5844 16.998,13.6524 16.965,13.7104 C16.933,13.7674 16.877,13.8074 16.813,13.8224 C16.52,13.8874 16.307,14.1534 16.307,14.4544 C16.307,14.8114 16.597,15.1024 16.955,15.1024 C17.137,15.1024 17.306,15.0284 17.43,14.8944 C17.474,14.8464 17.537,14.8194 17.602,14.8194 M18.25,15.5714 C18.014,15.5714 17.789,15.4994 17.602,15.3644 C17.414,15.4974 17.187,15.5714 16.955,15.5714 C16.339,15.5714 15.838,15.0704 15.838,14.4544 C15.838,14.0144 16.103,13.6174 16.492,13.4384 C16.488,13.4004 16.486,13.3614 16.486,13.3224 C16.486,12.7064 16.987,12.2054 17.602,12.2054 C18.218,12.2054 18.719,12.7064 18.719,13.3224 C18.719,13.3614 18.717,13.4004 18.713,13.4384 C19.102,13.6174 19.367,14.0144 19.367,14.4544 C19.367,15.0704 18.866,15.5714 18.25,15.5714" id="Fill-13" fill="#231F20"></path>
            <path d="M11.4829,17.8633 C11.3529,17.8633 11.2479,17.7583 11.2479,17.6293 L11.2479,15.0533 C11.2479,14.9243 11.3529,14.8193 11.4829,14.8193 C11.6119,14.8193 11.7169,14.9243 11.7169,15.0533 L11.7169,17.6293 C11.7169,17.7583 11.6119,17.8633 11.4829,17.8633" id="Fill-15" fill="#231F20"></path>
            <path d="M14.5424,17.8633 C14.4124,17.8633 14.3084,17.7583 14.3084,17.6293 L14.3084,15.0533 C14.3084,14.9243 14.4124,14.8193 14.5424,14.8193 C14.6724,14.8193 14.7764,14.9243 14.7764,15.0533 L14.7764,17.6293 C14.7764,17.7583 14.6724,17.8633 14.5424,17.8633" id="Fill-17" fill="#231F20"></path>
            <path d="M17.602,17.8633 C17.472,17.8633 17.368,17.7583 17.368,17.6293 L17.368,15.0533 C17.368,14.9243 17.472,14.8193 17.602,14.8193 C17.732,14.8193 17.836,14.9243 17.836,15.0533 L17.836,17.6293 C17.836,17.7583 17.732,17.8633 17.602,17.8633" id="Fill-19" fill="#231F20"></path>
            <polygon id="Fill-21" fill="#FFFFFF" points="18.1528 7.7114 18.1528 2.1104 15.7288 2.1104 15.7288 7.7114 2.1098 7.7114 2.1098 10.1354 5.1568 10.1354 5.1568 17.6314 7.5818 17.6314 7.5818 10.1354 21.3368 10.1354 21.3368 7.7114"></polygon>
            <path d="M13.5405,7.7114 L8.7695,7.7114 C9.3095,8.4444 10.1775,8.9214 11.1545,8.9214 C12.1335,8.9214 13.0015,8.4444 13.5405,7.7114" id="Fill-23" fill="#DDDDDD"></path>
            <path d="M21.3364,16.6934 C21.3364,17.2114 20.9164,17.6314 20.3984,17.6314 L3.0484,17.6314 C2.5294,17.6314 2.1094,17.2114 2.1094,16.6934 L2.1094,3.0474 C2.1094,2.5304 2.5294,2.1104 3.0484,2.1104 L20.3984,2.1104 C20.9164,2.1104 21.3364,2.5304 21.3364,3.0474 L21.3364,16.6934 Z M21.3364,0.2344 L2.1094,0.2344 C1.0744,0.2344 0.2344,1.0744 0.2344,2.1104 L0.2344,21.3364 C0.2344,22.3714 1.0744,23.2114 2.1094,23.2114 L21.3364,23.2114 C22.3714,23.2114 23.2114,22.3714 23.2114,21.3364 L23.2114,2.1104 C23.2114,1.0744 22.3714,0.2344 21.3364,0.2344 Z" id="Fill-25" fill="#FFFFFF"></path>
            <path d="M1.1723,4.3101 C1.0423,4.3101 0.9383,4.2051 0.9383,4.0761 L0.9383,3.5351 C0.9383,3.4051 1.0423,3.3001 1.1723,3.3001 C1.3013,3.3001 1.4063,3.4051 1.4063,3.5351 L1.4063,4.0761 C1.4063,4.2051 1.3013,4.3101 1.1723,4.3101" id="Fill-27" fill="#0155FC"></path>
            <path d="M8.81,22.5083 L2.345,22.5083 C1.569,22.5083 0.938,21.8773 0.938,21.1013 L0.938,5.8083 C0.938,5.6783 1.042,5.5733 1.172,5.5733 C1.301,5.5733 1.407,5.6783 1.407,5.8083 L1.407,21.1013 C1.407,21.6183 1.828,22.0393 2.345,22.0393 L8.81,22.0393 C8.94,22.0393 9.045,22.1443 9.045,22.2743 C9.045,22.4033 8.94,22.5083 8.81,22.5083" id="Fill-29" fill="#0155FC"></path>
            <path d="M21.3364,23.4458 L2.1094,23.4458 C0.9464,23.4458 0.0004,22.4998 0.0004,21.3358 L0.0004,12.4398 C0.0004,12.3108 0.1054,12.2058 0.2334,12.2058 C0.3634,12.2058 0.4684,12.3108 0.4684,12.4398 L0.4684,21.3358 C0.4684,22.2408 1.2044,22.9768 2.1094,22.9768 L21.3364,22.9768 C22.2404,22.9768 22.9774,22.2408 22.9774,21.3358 L22.9774,2.1108 C22.9774,1.2048 22.2404,0.4688 21.3364,0.4688 L2.1094,0.4688 C1.2044,0.4688 0.4684,1.2048 0.4684,2.1108 L0.4684,3.3528 C0.4684,3.4828 0.3634,3.5878 0.2334,3.5878 C0.1054,3.5878 0.0004,3.4828 0.0004,3.3528 L0.0004,2.1108 C0.0004,0.9468 0.9464,-0.0002 2.1094,-0.0002 L21.3364,-0.0002 C22.4994,-0.0002 23.4454,0.9468 23.4454,2.1108 L23.4454,21.3358 C23.4454,22.4998 22.4994,23.4458 21.3364,23.4458" id="Fill-31" fill="#231F20"></path>
            <path d="M0.2338,11.336 C0.1048,11.336 0.0008,11.231 0.0008,11.102 L0.0008,6.331 C0.0008,6.201 0.1048,6.096 0.2338,6.096 C0.3638,6.096 0.4678,6.201 0.4678,6.331 L0.4678,11.102 C0.4678,11.231 0.3638,11.336 0.2338,11.336" id="Fill-33" fill="#231F20"></path>
            <path d="M0.2338,5.4629 C0.1048,5.4629 0.0008,5.3579 0.0008,5.2289 L0.0008,4.7599 C0.0008,4.6299 0.1048,4.5259 0.2338,4.5259 C0.3638,4.5259 0.4678,4.6299 0.4678,4.7599 L0.4678,5.2289 C0.4678,5.3579 0.3638,5.4629 0.2338,5.4629" id="Fill-35" fill="#231F20"></path>
            <path d="M3.0483,2.3447 C2.6603,2.3447 2.3453,2.6597 2.3453,3.0477 L2.3453,16.6937 C2.3453,17.0817 2.6603,17.3967 3.0483,17.3967 L20.3983,17.3967 C20.7863,17.3967 21.1023,17.0817 21.1023,16.6937 L21.1023,3.0477 C21.1023,2.6597 20.7863,2.3447 20.3983,2.3447 L3.0483,2.3447 Z M20.3983,17.8657 L3.0483,17.8657 C2.4023,17.8657 1.8753,17.3397 1.8753,16.6937 L1.8753,3.0477 C1.8753,2.4017 2.4023,1.8757 3.0483,1.8757 L20.3983,1.8757 C21.0443,1.8757 21.5703,2.4017 21.5703,3.0477 L21.5703,16.6937 C21.5703,17.3397 21.0443,17.8657 20.3983,17.8657 Z" id="Fill-37" fill="#231F20"></path>
            <path d="M12.9917,20.4111 C12.9917,21.1121 12.4247,21.6801 11.7227,21.6801 C11.0217,21.6801 10.4547,21.1121 10.4547,20.4111 C10.4547,19.7101 11.0217,19.1421 11.7227,19.1421 C12.4247,19.1421 12.9917,19.7101 12.9917,20.4111" id="Fill-39" fill="#FFFFFF"></path>
            <path d="M11.7231,19.3765 C11.1531,19.3765 10.6881,19.8405 10.6881,20.4115 C10.6881,20.9815 11.1531,21.4455 11.7231,21.4455 C12.2931,21.4455 12.7571,20.9815 12.7571,20.4115 C12.7571,19.8405 12.2931,19.3765 11.7231,19.3765 M11.7231,21.9145 C10.8941,21.9145 10.2201,21.2405 10.2201,20.4115 C10.2201,19.5825 10.8941,18.9075 11.7231,18.9075 C12.5511,18.9075 13.2261,19.5825 13.2261,20.4115 C13.2261,21.2405 12.5511,21.9145 11.7231,21.9145" id="Fill-41" fill="#231F20"></path>
            <path d="M4.979,21.3516 L7.729,21.3516 C8.249,21.3516 8.669,20.9306 8.669,20.4116 C8.669,19.8916 8.249,19.4706 7.729,19.4706 L4.979,19.4706 C4.459,19.4706 4.039,19.8916 4.039,20.4116 C4.039,20.9306 4.459,21.3516 4.979,21.3516" id="Fill-43" fill="#FFFFFF"></path>
            <path d="M15.7172,21.3516 L18.4672,21.3516 C18.9872,21.3516 19.4072,20.9306 19.4072,20.4116 C19.4072,19.8916 18.9872,19.4706 18.4672,19.4706 L15.7172,19.4706 C15.1972,19.4706 14.7772,19.8916 14.7772,20.4116 C14.7772,20.9306 15.1972,21.3516 15.7172,21.3516" id="Fill-45" fill="#FFFFFF"></path>
            <path d="M4.979,19.7051 C4.59,19.7051 4.273,20.0221 4.273,20.4111 C4.273,20.8001 4.59,21.1171 4.979,21.1171 L7.729,21.1171 C8.118,21.1171 8.435,20.8001 8.435,20.4111 C8.435,20.0221 8.118,19.7051 7.729,19.7051 L4.979,19.7051 Z M7.729,21.5861 L4.979,21.5861 C4.331,21.5861 3.804,21.0591 3.804,20.4111 C3.804,19.7631 4.331,19.2361 4.979,19.2361 L7.729,19.2361 C8.376,19.2361 8.904,19.7631 8.904,20.4111 C8.904,21.0591 8.376,21.5861 7.729,21.5861 Z" id="Fill-47" fill="#231F20"></path>
            <path d="M15.7172,19.7051 C15.3272,19.7051 15.0112,20.0221 15.0112,20.4111 C15.0112,20.8001 15.3272,21.1171 15.7172,21.1171 L18.4672,21.1171 C18.8572,21.1171 19.1732,20.8001 19.1732,20.4111 C19.1732,20.0221 18.8572,19.7051 18.4672,19.7051 L15.7172,19.7051 Z M18.4672,21.5861 L15.7172,21.5861 C15.0702,21.5861 14.5422,21.0591 14.5422,20.4111 C14.5422,19.7631 15.0702,19.2361 15.7172,19.2361 L18.4672,19.2361 C19.1142,19.2361 19.6422,19.7631 19.6422,20.4111 C19.6422,21.0591 19.1142,21.5861 18.4672,21.5861 Z" id="Fill-49" fill="#231F20"></path>
            <path d="M5.392,17.397 L7.346,17.397 L7.346,10.135 C7.346,10.006 7.452,9.901 7.58,9.901 L21.102,9.901 L21.102,7.946 L18.153,7.946 C18.023,7.946 17.918,7.841 17.918,7.711 L17.918,2.345 L15.963,2.345 L15.963,7.711 C15.963,7.841 15.859,7.946 15.729,7.946 L2.345,7.946 L2.345,9.901 L5.158,9.901 C5.287,9.901 5.392,10.006 5.392,10.135 L5.392,17.397 Z M7.58,17.866 L5.158,17.866 C5.028,17.866 4.922,17.761 4.922,17.631 L4.922,10.37 L2.11,10.37 C1.981,10.37 1.875,10.265 1.875,10.135 L1.875,7.711 C1.875,7.582 1.981,7.477 2.11,7.477 L15.495,7.477 L15.495,2.11 C15.495,1.981 15.599,1.876 15.729,1.876 L18.153,1.876 C18.283,1.876 18.387,1.981 18.387,2.11 L18.387,7.477 L21.336,7.477 C21.466,7.477 21.571,7.582 21.571,7.711 L21.571,10.135 C21.571,10.265 21.466,10.37 21.336,10.37 L7.816,10.37 L7.816,17.631 C7.816,17.761 7.71,17.866 7.58,17.866 Z" id="Fill-51" fill="#231F20"></path>
            <path d="M11.1547,6.7251 C10.7327,6.7251 10.3907,6.3831 10.3907,5.9611 C10.3907,5.5391 10.7327,5.1981 11.1547,5.1981 C11.5767,5.1981 11.9187,5.5391 11.9187,5.9611 C11.9187,6.3831 11.5767,6.7251 11.1547,6.7251 M11.1547,3.9391 C10.0387,3.9391 9.1337,4.8441 9.1337,5.9611 C9.1337,7.0781 10.0387,7.9831 11.1547,7.9831 C12.2717,7.9831 13.1767,7.0781 13.1767,5.9611 C13.1767,4.8441 12.2717,3.9391 11.1547,3.9391" id="Fill-53" fill="#0155FC"></path>
            <path d="M11.1547,5.4321 C10.8627,5.4321 10.6257,5.6691 10.6257,5.9611 C10.6257,6.2531 10.8627,6.4911 11.1547,6.4911 C11.4467,6.4911 11.6837,6.2531 11.6837,5.9611 C11.6837,5.6691 11.4467,5.4321 11.1547,5.4321 M11.1547,6.9591 C10.6047,6.9591 10.1577,6.5121 10.1577,5.9611 C10.1577,5.4111 10.6047,4.9631 11.1547,4.9631 C11.7057,4.9631 12.1537,5.4111 12.1537,5.9611 C12.1537,6.5121 11.7057,6.9591 11.1547,6.9591 M11.1547,4.1731 C10.1697,4.1731 9.3667,4.9751 9.3667,5.9611 C9.3667,6.9471 10.1697,7.7491 11.1547,7.7491 C12.1407,7.7491 12.9427,6.9471 12.9427,5.9611 C12.9427,4.9751 12.1407,4.1731 11.1547,4.1731 M11.1547,8.2181 C9.9107,8.2181 8.8987,7.2051 8.8987,5.9611 C8.8987,4.7171 9.9107,3.7041 11.1547,3.7041 C12.3997,3.7041 13.4117,4.7171 13.4117,5.9611 C13.4117,7.2051 12.3997,8.2181 11.1547,8.2181" id="Fill-55" fill="#231F20"></path>
            <path d="M11.1547,4.1734 C11.0257,4.1734 10.9217,4.0684 10.9217,3.9394 L10.9217,2.9544 C10.9217,2.8244 11.0257,2.7194 11.1547,2.7194 C11.2847,2.7194 11.3887,2.8244 11.3887,2.9544 L11.3887,3.9394 C11.3887,4.0684 11.2847,4.1734 11.1547,4.1734" id="Fill-57" fill="#231F20"></path>
            <path d="M11.1547,9.2027 C11.0257,9.2027 10.9217,9.0977 10.9217,8.9687 L10.9217,7.9837 C10.9217,7.8537 11.0257,7.7487 11.1547,7.7487 C11.2847,7.7487 11.3887,7.8537 11.3887,7.9837 L11.3887,8.9687 C11.3887,9.0977 11.2847,9.2027 11.1547,9.2027" id="Fill-59" fill="#231F20"></path>
            <path d="M14.1616,6.1958 L13.1776,6.1958 C13.0476,6.1958 12.9426,6.0908 12.9426,5.9618 C12.9426,5.8318 13.0476,5.7268 13.1776,5.7268 L14.1616,5.7268 C14.2916,5.7268 14.3956,5.8318 14.3956,5.9618 C14.3956,6.0908 14.2916,6.1958 14.1616,6.1958" id="Fill-61" fill="#231F20"></path>
            <path d="M9.1333,6.1958 L8.1483,6.1958 C8.0183,6.1958 7.9133,6.0908 7.9133,5.9618 C7.9133,5.8318 8.0183,5.7268 8.1483,5.7268 L9.1333,5.7268 C9.2623,5.7268 9.3663,5.8318 9.3663,5.9618 C9.3663,6.0908 9.2623,6.1958 9.1333,6.1958" id="Fill-63" fill="#231F20"></path>
            <path d="M16.5415,3.2822 L16.9485,3.2822 C17.0775,3.2822 17.1835,3.1772 17.1835,3.0482 C17.1835,2.9182 17.0775,2.8132 16.9485,2.8132 L16.5415,2.8132 C16.4125,2.8132 16.3075,2.9182 16.3075,3.0482 C16.3075,3.1772 16.4125,3.2822 16.5415,3.2822" id="Fill-65" fill="#0155FC"></path>
            <path d="M20.5122,14.6148 C20.6412,14.6148 20.7462,14.5098 20.7462,14.3808 L20.7462,3.5168 C20.7462,3.1288 20.4302,2.8138 20.0432,2.8138 L18.1992,2.8138 C18.0702,2.8138 17.9642,2.9188 17.9642,3.0478 C17.9642,3.1768 18.0702,3.2818 18.1992,3.2818 L20.0432,3.2818 C20.1722,3.2818 20.2782,3.3878 20.2782,3.5168 L20.2782,14.3808 C20.2782,14.5098 20.3822,14.6148 20.5122,14.6148" id="Fill-67" fill="#0155FC"></path>
        </g>
    </g>
</svg>