<?xml version="1.0" encoding="UTF-8"?>
<svg width="24px" height="24px" viewBox="0 0 24 24" version="1.1" xmlns="http://www.w3.org/2000/svg" xmlns:xlink="http://www.w3.org/1999/xlink">
    <!-- Generator: Sketch 49 (51002) - http://www.bohemiancoding.com/sketch -->
    <title>icons/problem/ondemand</title>
    <desc>Created with Sketch.</desc>
    <defs></defs>
    <g id="icons/problem/ondemand" stroke="none" stroke-width="1" fill="none" fill-rule="evenodd">
        <g id="Page-1" transform="translate(1.000000, 0.000000)">
            <path d="M14.0648,13.5982 L13.6578,13.5982 L13.6578,13.5882 L7.3658,13.5882 C6.6428,13.5882 6.0538,13.0002 6.0538,12.2772 C6.0538,11.5542 6.6428,10.9662 7.3658,10.9662 L10.2778,10.9662 L10.2778,7.4712 L7.3658,7.4712 C4.7148,7.4712 2.5588,9.6272 2.5588,12.2772 C2.5588,14.9282 4.7148,17.0842 7.3658,17.0842 L7.7728,17.0842 L7.7728,17.0942 L14.0648,17.0942 C14.7888,17.0942 15.3768,17.6822 15.3768,18.4052 C15.3768,19.1272 14.7888,19.7162 14.0648,19.7162 L2.5588,19.7162 L2.5588,23.2112 L14.0648,23.2112 C16.7158,23.2112 18.8728,21.0552 18.8728,18.4052 C18.8728,15.7542 16.7158,13.5982 14.0648,13.5982" id="Fill-1" fill="#FFFFFF"></path>
            <path d="M7.3656,17.084 L7.7726,17.084 L7.7726,17.094 L14.0646,17.094 C14.2276,17.094 14.3846,17.124 14.5276,17.179 C14.6016,16.98 14.6426,16.766 14.6426,16.542 C14.6426,15.987 14.3856,15.474 13.9746,15.135 C13.8426,14.261 13.0866,13.589 12.1756,13.589 C11.5346,13.589 10.9696,13.922 10.6446,14.425 C10.3206,13.922 9.7566,13.589 9.1156,13.589 C8.4736,13.589 7.9096,13.922 7.5856,14.425 C7.2616,13.922 6.6966,13.589 6.0546,13.589 C5.1446,13.589 4.3876,14.261 4.2556,15.135 C4.1046,15.26 3.9746,15.408 3.8706,15.573 C4.7476,16.503 5.9896,17.084 7.3656,17.084" id="Fill-3" fill="#DDDDDD"></path>
            <path d="M10.2777,7.4707 L7.3657,7.4707 C7.0197,7.4707 6.6837,7.5077 6.3587,7.5767 C6.5517,8.1067 6.8147,8.6157 7.1427,9.0877 L8.4477,10.9667 L10.2777,10.9667 L10.2777,7.4707 Z" id="Fill-5" fill="#DDDDDD"></path>
            <path d="M3.8705,14.1514 C3.7825,14.1514 3.6985,14.1014 3.6585,14.0174 C3.4005,13.4704 3.2695,12.8854 3.2695,12.2774 C3.2695,11.8714 3.3295,11.4714 3.4455,11.0884 C3.4835,10.9644 3.6135,10.8924 3.7385,10.9324 C3.8615,10.9694 3.9325,11.1004 3.8935,11.2244 C3.7915,11.5634 3.7385,11.9184 3.7385,12.2774 C3.7385,12.8164 3.8545,13.3344 4.0825,13.8174 C4.1375,13.9344 4.0875,14.0734 3.9705,14.1294 C3.9375,14.1444 3.9035,14.1514 3.8705,14.1514" id="Fill-7" fill="#0155FC"></path>
            <path d="M4.517,9.9077 C4.46,9.9077 4.404,9.8867 4.358,9.8457 C4.263,9.7587 4.256,9.6107 4.344,9.5147 C4.471,9.3767 4.606,9.2477 4.75,9.1277 C4.851,9.0437 4.997,9.0577 5.08,9.1577 C5.163,9.2577 5.15,9.4057 5.05,9.4877 C4.922,9.5947 4.802,9.7097 4.69,9.8317 C4.643,9.8827 4.58,9.9077 4.517,9.9077" id="Fill-9" fill="#0155FC"></path>
            <path d="M14.0658,23.4458 L2.5588,23.4458 C2.4288,23.4458 2.3248,23.3408 2.3248,23.2118 C2.3248,23.0818 2.4288,22.9768 2.5588,22.9768 L14.0658,22.9768 C16.5868,22.9768 18.6378,20.9258 18.6378,18.4048 C18.6378,15.8838 16.5868,13.8328 14.0658,13.8328 L13.6578,13.8328 C13.6338,13.8328 13.6118,13.8288 13.5898,13.8228 L7.3658,13.8228 C6.5128,13.8228 5.8198,13.1298 5.8198,12.2778 C5.8198,11.4248 6.5128,10.7318 7.3658,10.7318 L10.0438,10.7318 L10.0438,7.7048 L7.3658,7.7048 C4.8438,7.7048 2.7938,9.7568 2.7938,12.2778 C2.7938,14.7988 4.8438,16.8498 7.3658,16.8498 L7.7728,16.8498 C7.7958,16.8498 7.8188,16.8528 7.8398,16.8598 L14.0658,16.8598 C14.9178,16.8598 15.6108,17.5528 15.6108,18.4048 C15.6108,19.2568 14.9178,19.9498 14.0658,19.9498 L2.5588,19.9498 C2.4288,19.9498 2.3248,19.8448 2.3248,19.7158 C2.3248,19.5868 2.4288,19.4818 2.5588,19.4818 L14.0658,19.4818 C14.6598,19.4818 15.1418,18.9988 15.1418,18.4048 C15.1418,17.8108 14.6598,17.3278 14.0658,17.3278 L7.7728,17.3278 C7.7498,17.3278 7.7268,17.3248 7.7058,17.3188 L7.3658,17.3188 C4.5858,17.3188 2.3248,15.0568 2.3248,12.2778 C2.3248,9.4978 4.5858,7.2368 7.3658,7.2368 L10.2778,7.2368 C10.4078,7.2368 10.5118,7.3418 10.5118,7.4708 L10.5118,10.9668 C10.5118,11.0958 10.4078,11.2008 10.2778,11.2008 L7.3658,11.2008 C6.7718,11.2008 6.2888,11.6838 6.2888,12.2778 C6.2888,12.8708 6.7718,13.3538 7.3658,13.3538 L13.6578,13.3538 C13.6808,13.3538 13.7038,13.3578 13.7248,13.3638 L14.0658,13.3638 C16.8448,13.3638 19.1068,15.6248 19.1068,18.4048 C19.1068,21.1848 16.8448,23.4458 14.0658,23.4458" id="Fill-11" fill="#222222"></path>
            <path d="M17.183,11.1958 L14.894,11.1958 C14.765,11.1958 14.66,11.0908 14.66,10.9618 C14.66,10.8318 14.765,10.7268 14.894,10.7268 L17.183,10.7268 C17.312,10.7268 17.417,10.8318 17.417,10.9618 C17.417,11.0908 17.312,11.1958 17.183,11.1958" id="Fill-13" fill="#222222"></path>
            <path d="M18.8725,11.1958 L18.2305,11.1958 C18.1015,11.1958 17.9965,11.0908 17.9965,10.9618 C17.9965,10.8318 18.1015,10.7268 18.2305,10.7268 L18.8725,10.7268 C19.0015,10.7268 19.1065,10.8318 19.1065,10.9618 C19.1065,11.0908 19.0015,11.1958 18.8725,11.1958" id="Fill-15" fill="#222222"></path>
            <path d="M6.8949,15.6802 C6.9229,15.5952 6.9379,15.5042 6.9379,15.4092 C6.9379,14.9222 6.5419,14.5272 6.0549,14.5272 C5.5679,14.5272 5.1729,14.9222 5.1729,15.4092 C5.1729,15.5042 5.1879,15.5952 5.2149,15.6802 C4.8209,15.7682 4.5259,16.1202 4.5259,16.5412 C4.5259,17.0292 4.9199,17.4242 5.4079,17.4242 C5.6639,17.4242 5.8939,17.3152 6.0549,17.1412 C6.2159,17.3152 6.4469,17.4242 6.7029,17.4242 C7.1899,17.4242 7.5849,17.0292 7.5849,16.5412 C7.5849,16.1202 7.2909,15.7682 6.8949,15.6802" id="Fill-17" fill="#FFFFFF"></path>
            <path d="M9.9555,15.6802 C9.9825,15.5952 9.9975,15.5042 9.9975,15.4092 C9.9975,14.9222 9.6025,14.5272 9.1155,14.5272 C8.6285,14.5272 8.2325,14.9222 8.2325,15.4092 C8.2325,15.5042 8.2485,15.5952 8.2755,15.6802 C7.8805,15.7682 7.5855,16.1202 7.5855,16.5412 C7.5855,17.0292 7.9805,17.4242 8.4685,17.4242 C8.7245,17.4242 8.9545,17.3152 9.1155,17.1412 C9.2765,17.3152 9.5075,17.4242 9.7635,17.4242 C10.2505,17.4242 10.6445,17.0292 10.6445,16.5412 C10.6445,16.1202 10.3505,15.7682 9.9555,15.6802" id="Fill-19" fill="#FFFFFF"></path>
            <path d="M13.015,15.6802 C13.043,15.5952 13.058,15.5042 13.058,15.4092 C13.058,14.9222 12.662,14.5272 12.175,14.5272 C11.688,14.5272 11.293,14.9222 11.293,15.4092 C11.293,15.5042 11.308,15.5952 11.335,15.6802 C10.941,15.7682 10.645,16.1202 10.645,16.5412 C10.645,17.0292 11.04,17.4242 11.528,17.4242 C11.784,17.4242 12.014,17.3152 12.175,17.1412 C12.336,17.3152 12.567,17.4242 12.823,17.4242 C13.31,17.4242 13.705,17.0292 13.705,16.5412 C13.705,16.1202 13.411,15.7682 13.015,15.6802" id="Fill-21" fill="#FFFFFF"></path>
            <path d="M6.0551,16.9068 C6.1201,16.9068 6.1831,16.9338 6.2271,16.9818 C6.3521,17.1158 6.5211,17.1898 6.7031,17.1898 C7.0611,17.1898 7.3511,16.8988 7.3511,16.5418 C7.3511,16.2398 7.1381,15.9748 6.8451,15.9088 C6.7811,15.8948 6.7251,15.8538 6.6921,15.7968 C6.6591,15.7398 6.6531,15.6708 6.6721,15.6088 C6.6931,15.5438 6.7031,15.4768 6.7031,15.4098 C6.7031,15.0528 6.4121,14.7608 6.0551,14.7608 C5.6981,14.7608 5.4081,15.0528 5.4081,15.4098 C5.4081,15.4768 5.4181,15.5438 5.4391,15.6088 C5.4581,15.6708 5.4511,15.7398 5.4191,15.7968 C5.3861,15.8538 5.3301,15.8948 5.2661,15.9088 C4.9731,15.9748 4.7601,16.2398 4.7601,16.5418 C4.7601,16.8988 5.0501,17.1898 5.4081,17.1898 C5.5901,17.1898 5.7591,17.1158 5.8831,16.9818 C5.9281,16.9338 5.9901,16.9068 6.0551,16.9068 M6.7031,17.6578 C6.4701,17.6578 6.2431,17.5848 6.0551,17.4508 C5.8681,17.5848 5.6411,17.6578 5.4081,17.6578 C4.7921,17.6578 4.2911,17.1568 4.2911,16.5418 C4.2911,16.1008 4.5551,15.7048 4.9451,15.5258 C4.9411,15.4878 4.9391,15.4488 4.9391,15.4098 C4.9391,14.7938 5.4401,14.2928 6.0551,14.2928 C6.6711,14.2928 7.1721,14.7938 7.1721,15.4098 C7.1721,15.4488 7.1701,15.4878 7.1661,15.5258 C7.5561,15.7048 7.8201,16.1008 7.8201,16.5418 C7.8201,17.1568 7.3191,17.6578 6.7031,17.6578" id="Fill-23" fill="#222222"></path>
            <path d="M9.1156,16.9068 C9.1806,16.9068 9.2426,16.9338 9.2876,16.9818 C9.4116,17.1158 9.5806,17.1898 9.7626,17.1898 C10.1206,17.1898 10.4116,16.8988 10.4116,16.5418 C10.4116,16.2398 10.1986,15.9748 9.9046,15.9088 C9.8406,15.8948 9.7846,15.8538 9.7526,15.7968 C9.7196,15.7398 9.7126,15.6708 9.7326,15.6088 C9.7536,15.5438 9.7636,15.4768 9.7636,15.4098 C9.7636,15.0528 9.4726,14.7608 9.1156,14.7608 C8.7586,14.7608 8.4676,15.0528 8.4676,15.4098 C8.4676,15.4768 8.4776,15.5438 8.4986,15.6088 C8.5186,15.6708 8.5116,15.7398 8.4786,15.7968 C8.4466,15.8538 8.3906,15.8948 8.3266,15.9088 C8.0326,15.9748 7.8196,16.2398 7.8196,16.5418 C7.8196,16.8988 8.1106,17.1898 8.4686,17.1898 C8.6506,17.1898 8.8196,17.1158 8.9436,16.9818 C8.9876,16.9338 9.0506,16.9068 9.1156,16.9068 M9.7626,17.6578 C9.5296,17.6578 9.3026,17.5848 9.1156,17.4508 C8.9286,17.5848 8.7006,17.6578 8.4686,17.6578 C7.8516,17.6578 7.3506,17.1568 7.3506,16.5418 C7.3506,16.1008 7.6156,15.7048 8.0046,15.5258 C8.0006,15.4878 7.9986,15.4488 7.9986,15.4098 C7.9986,14.7938 8.4996,14.2928 9.1156,14.2928 C9.7316,14.2928 10.2326,14.7938 10.2326,15.4098 C10.2326,15.4488 10.2306,15.4878 10.2266,15.5258 C10.6156,15.7048 10.8806,16.1008 10.8806,16.5418 C10.8806,17.1568 10.3796,17.6578 9.7626,17.6578" id="Fill-25" fill="#222222"></path>
            <path d="M12.1752,16.9068 C12.2402,16.9068 12.3032,16.9338 12.3472,16.9818 C12.4712,17.1158 12.6402,17.1898 12.8222,17.1898 C13.1802,17.1898 13.4712,16.8988 13.4712,16.5418 C13.4712,16.2398 13.2582,15.9748 12.9642,15.9088 C12.9002,15.8948 12.8442,15.8538 12.8122,15.7968 C12.7792,15.7388 12.7722,15.6698 12.7922,15.6078 C12.8132,15.5438 12.8232,15.4778 12.8232,15.4098 C12.8232,15.0528 12.5322,14.7608 12.1752,14.7608 C11.8182,14.7608 11.5282,15.0528 11.5282,15.4098 C11.5282,15.4768 11.5382,15.5438 11.5592,15.6088 C11.5782,15.6708 11.5712,15.7398 11.5392,15.7968 C11.5062,15.8538 11.4502,15.8948 11.3862,15.9088 C11.0932,15.9738 10.8802,16.2398 10.8802,16.5418 C10.8802,16.8988 11.1702,17.1898 11.5282,17.1898 C11.7102,17.1898 11.8792,17.1158 12.0032,16.9818 C12.0482,16.9338 12.1102,16.9068 12.1752,16.9068 M12.8222,17.6578 C12.5902,17.6578 12.3622,17.5848 12.1752,17.4508 C11.9882,17.5848 11.7612,17.6578 11.5282,17.6578 C10.9122,17.6578 10.4112,17.1568 10.4112,16.5418 C10.4112,16.1008 10.6752,15.7048 11.0652,15.5258 C11.0612,15.4878 11.0592,15.4488 11.0592,15.4098 C11.0592,14.7938 11.5602,14.2928 12.1752,14.2928 C12.7912,14.2928 13.2922,14.7938 13.2922,15.4098 C13.2922,15.4488 13.2902,15.4878 13.2862,15.5258 C13.6762,15.7048 13.9402,16.1018 13.9402,16.5418 C13.9402,17.1568 13.4392,17.6578 12.8222,17.6578" id="Fill-27" fill="#222222"></path>
            <path d="M6.0551,19.9502 C5.9261,19.9502 5.8211,19.8452 5.8211,19.7162 L5.8211,17.1412 C5.8211,17.0122 5.9261,16.9072 6.0551,16.9072 C6.1851,16.9072 6.2891,17.0122 6.2891,17.1412 L6.2891,19.7162 C6.2891,19.8452 6.1851,19.9502 6.0551,19.9502" id="Fill-29" fill="#222222"></path>
            <path d="M9.1156,19.9502 C8.9856,19.9502 8.8816,19.8452 8.8816,19.7162 L8.8816,17.1412 C8.8816,17.0122 8.9856,16.9072 9.1156,16.9072 C9.2446,16.9072 9.3496,17.0122 9.3496,17.1412 L9.3496,19.7162 C9.3496,19.8452 9.2446,19.9502 9.1156,19.9502" id="Fill-31" fill="#222222"></path>
            <path d="M12.1752,19.9502 C12.0462,19.9502 11.9412,19.8452 11.9412,19.7162 L11.9412,17.1412 C11.9412,17.0122 12.0462,16.9072 12.1752,16.9072 C12.3052,16.9072 12.4092,17.0122 12.4092,17.1412 L12.4092,19.7162 C12.4092,19.8452 12.3052,19.9502 12.1752,19.9502" id="Fill-33" fill="#222222"></path>
            <path d="M12.4691,7.5361 C11.2291,7.5361 10.2241,6.5311 10.2241,5.2921 C10.2241,4.0521 11.2291,3.0471 12.4691,3.0471 C13.7081,3.0471 14.7131,4.0521 14.7131,5.2921 C14.7131,6.5311 13.7081,7.5361 12.4691,7.5361 M12.6181,0.2361 C12.5691,0.2351 12.5191,0.2341 12.4691,0.2341 C12.4181,0.2341 12.3681,0.2351 12.3191,0.2361 C8.2731,0.3401 5.9981,4.9541 8.3081,8.2791 L11.7381,13.2171 C12.0921,13.7261 12.8451,13.7261 13.1991,13.2171 L16.6291,8.2791 C18.9391,4.9541 16.6641,0.3401 12.6181,0.2361" id="Fill-35" fill="#0155FC"></path>
            <path d="M17.2406,3.5972 C16.3956,3.8042 15.6996,4.3942 15.3486,5.1722 C15.1016,5.2942 14.8776,5.4562 14.6836,5.6492 C14.6026,6.1552 14.3526,6.6052 13.9926,6.9382 C13.9616,7.0972 13.9446,7.2602 13.9446,7.4282 C13.9446,8.5062 14.6276,9.4282 15.5846,9.7842 L16.6296,8.2792 C17.6546,6.8032 17.7756,5.0742 17.2406,3.5972" id="Fill-37" fill="#000000" style="mix-blend-mode: multiply;" opacity="0.16"></path>
            <path d="M10.2055,3.9785 C10.2055,3.0085 9.6745,2.1595 8.8865,1.7085 C7.6525,2.9555 7.0905,4.8165 7.5365,6.5915 L7.5935,6.5915 C9.0335,6.5915 10.2055,5.4195 10.2055,3.9785" id="Fill-39" fill="#000000" style="mix-blend-mode: multiply;" opacity="0.16"></path>
            <path d="M12.4691,0.4688 L12.3231,0.4708 C10.5321,0.5168 8.9751,1.5068 8.1581,3.1178 C7.3261,4.7598 7.4541,6.6388 8.5001,8.1448 L11.9301,13.0828 C12.1791,13.4408 12.7581,13.4408 13.0071,13.0828 L16.4371,8.1448 C17.4831,6.6388 17.6111,4.7598 16.7791,3.1178 C15.9621,1.5068 14.4061,0.5168 12.6141,0.4708 L12.4691,0.4688 Z M12.4681,13.8328 C12.1011,13.8328 11.7551,13.6528 11.5451,13.3508 L8.1151,8.4128 C6.9691,6.7628 6.8281,4.7038 7.7401,2.9058 C8.6361,1.1378 10.3451,0.0528 12.3131,0.0018 L12.4691,-0.0002 L12.6221,0.0018 L12.6251,0.0018 C14.5921,0.0528 16.3011,1.1378 17.1981,2.9058 C18.1091,4.7038 17.9681,6.7628 16.8221,8.4128 L13.3921,13.3508 C13.1821,13.6528 12.8361,13.8328 12.4681,13.8328 Z" id="Fill-41" fill="#222222"></path>
            <path d="M12.4691,3.2822 C11.3611,3.2822 10.4591,4.1842 10.4591,5.2922 C10.4591,6.4002 11.3611,7.3022 12.4691,7.3022 C13.5761,7.3022 14.4791,6.4002 14.4791,5.2922 C14.4791,4.1842 13.5761,3.2822 12.4691,3.2822 M12.4691,7.7702 C11.1021,7.7702 9.9901,6.6582 9.9901,5.2922 C9.9901,3.9252 11.1021,2.8132 12.4691,2.8132 C13.8351,2.8132 14.9481,3.9252 14.9481,5.2922 C14.9481,6.6582 13.8351,7.7702 12.4691,7.7702" id="Fill-43" fill="#222222"></path>
            <path d="M10.9506,1.6929 C10.8566,1.6929 10.7676,1.6359 10.7316,1.5439 C10.6846,1.4229 10.7446,1.2869 10.8646,1.2399 C10.9556,1.2049 11.0466,1.1729 11.1386,1.1439 C11.2616,1.1039 11.3936,1.1739 11.4326,1.2979 C11.4716,1.4219 11.4026,1.5529 11.2786,1.5909 C11.1966,1.6169 11.1156,1.6459 11.0356,1.6769 C11.0076,1.6879 10.9786,1.6929 10.9506,1.6929 M9.0846,7.9739 C9.0106,7.9739 8.9376,7.9389 8.8916,7.8729 C7.9476,6.5129 7.8326,4.8159 8.5836,3.3329 C8.8666,2.7749 9.2486,2.2959 9.7196,1.9099 C9.8186,1.8269 9.9676,1.8429 10.0486,1.9429 C10.1306,2.0429 10.1166,2.1909 10.0156,2.2729 C9.5966,2.6169 9.2556,3.0449 9.0016,3.5449 C8.3296,4.8719 8.4326,6.3899 9.2766,7.6059 C9.3506,7.7119 9.3246,7.8579 9.2186,7.9319 C9.1776,7.9599 9.1316,7.9739 9.0846,7.9739" id="Fill-45" fill="#FFFFFF"></path>
            <path d="M2.7152,2.7725 C2.0492,2.7725 1.5092,3.3125 1.5092,3.9785 C1.5092,4.6455 2.0492,5.1855 2.7152,5.1855 L7.5932,5.1855 C8.2592,5.1855 8.7992,4.6455 8.7992,3.9785 C8.7992,3.3125 8.2592,2.7725 7.5932,2.7725 L7.5662,2.7725 C7.5662,2.2895 7.1742,1.8975 6.6922,1.8975 C6.2082,1.8975 5.8172,2.2895 5.8172,2.7725 C5.8172,1.9315 5.1352,1.2495 4.2942,1.2495 C3.4522,1.2495 2.7712,1.9315 2.7712,2.7725 L2.7152,2.7725 Z" id="Fill-47" fill="#FFFFFF"></path>
            <path d="M2.7152,3.0069 C2.1792,3.0069 1.7432,3.4429 1.7432,3.9789 C1.7432,4.5149 2.1792,4.9509 2.7152,4.9509 L7.5932,4.9509 C8.1282,4.9509 8.5652,4.5149 8.5652,3.9789 C8.5652,3.4429 8.1282,3.0069 7.5932,3.0069 C7.4632,3.0069 7.3312,2.9019 7.3312,2.7729 C7.3312,2.4199 7.0442,2.1319 6.6922,2.1319 C6.3382,2.1319 6.0512,2.4199 6.0512,2.7729 C6.0512,2.9019 5.9452,3.0069 5.8172,3.0069 C5.6872,3.0069 5.5822,2.9019 5.5822,2.7729 C5.5822,2.0619 5.0042,1.4839 4.2942,1.4839 C3.5832,1.4839 3.0052,2.0619 3.0052,2.7729 C3.0052,2.9019 2.9012,3.0069 2.7712,3.0069 L2.7152,3.0069 Z M7.5932,5.4199 L2.7152,5.4199 C1.9212,5.4199 1.2752,4.7729 1.2752,3.9789 C1.2752,3.2399 1.8332,2.6289 2.5512,2.5479 C2.6612,1.6839 3.4022,1.0149 4.2942,1.0149 C4.9922,1.0149 5.5972,1.4249 5.8802,2.0169 C6.0822,1.7989 6.3712,1.6629 6.6922,1.6629 C7.2282,1.6629 7.6762,2.0459 7.7782,2.5529 C8.4962,2.6529 9.0332,3.2549 9.0332,3.9789 C9.0332,4.7729 8.3872,5.4199 7.5932,5.4199 Z" id="Fill-49" fill="#222222"></path>
            <path d="M3.308,3.9448 L2.715,3.9448 C2.586,3.9448 2.481,3.8398 2.481,3.7108 C2.481,3.5808 2.586,3.4758 2.715,3.4758 L3.308,3.4758 C3.4,3.4758 3.475,3.4008 3.475,3.3088 L3.475,2.7898 C3.475,2.3618 3.8,1.9958 4.216,1.9568 C4.442,1.9348 4.675,2.0118 4.845,2.1658 C5.016,2.3208 5.114,2.5428 5.114,2.7728 C5.114,2.9018 5.008,3.0068 4.879,3.0068 C4.749,3.0068 4.645,2.9018 4.645,2.7728 C4.645,2.6738 4.603,2.5798 4.53,2.5128 C4.455,2.4458 4.362,2.4158 4.26,2.4238 C4.082,2.4408 3.944,2.6008 3.944,2.7898 L3.944,3.3088 C3.944,3.6598 3.659,3.9448 3.308,3.9448" id="Fill-51" fill="#0155FC"></path>
            <path d="M2.7152,5.4194 L1.0152,5.4194 C0.8862,5.4194 0.7802,5.3144 0.7802,5.1854 C0.7802,5.0554 0.8862,4.9504 1.0152,4.9504 L2.7152,4.9504 C2.8452,4.9504 2.9492,5.0554 2.9492,5.1854 C2.9492,5.3144 2.8452,5.4194 2.7152,5.4194" id="Fill-53" fill="#222222"></path>
            <path d="M0.3236,5.4194 L0.2346,5.4194 C0.1046,5.4194 0.0006,5.3144 0.0006,5.1854 C0.0006,5.0554 0.1046,4.9504 0.2346,4.9504 L0.3236,4.9504 C0.4526,4.9504 0.5576,5.0554 0.5576,5.1854 C0.5576,5.3144 0.4526,5.4194 0.3236,5.4194" id="Fill-55" fill="#222222"></path>
            <path d="M16.4584,6.3208 C15.8474,6.3208 15.3524,6.8168 15.3524,7.4278 C15.3524,8.0388 15.8474,8.5338 16.4584,8.5338 L20.9334,8.5338 C21.5444,8.5338 22.0394,8.0388 22.0394,7.4278 C22.0394,6.8168 21.5444,6.3208 20.9334,6.3208 L20.9084,6.3208 C20.9084,5.8778 20.5494,5.5178 20.1054,5.5178 C19.6624,5.5178 19.3034,5.8778 19.3034,6.3208 C19.3034,5.5498 18.6784,4.9238 17.9064,4.9238 C17.1354,4.9238 16.5094,5.5498 16.5094,6.3208 L16.4584,6.3208 Z" id="Fill-57" fill="#FFFFFF"></path>
            <path d="M16.4584,6.5552 C15.9774,6.5552 15.5864,6.9472 15.5864,7.4282 C15.5864,7.9092 15.9774,8.3002 16.4584,8.3002 L20.9334,8.3002 C21.4144,8.3002 21.8054,7.9092 21.8054,7.4282 C21.8054,6.9472 21.4144,6.5552 20.9334,6.5552 C20.8044,6.5552 20.6744,6.4502 20.6744,6.3212 C20.6744,6.0082 20.4194,5.7532 20.1054,5.7532 C19.7934,5.7532 19.5384,6.0082 19.5384,6.3212 C19.5384,6.4502 19.4334,6.5552 19.3044,6.5552 C19.1744,6.5552 19.0694,6.4502 19.0694,6.3212 C19.0694,5.6802 18.5484,5.1582 17.9064,5.1582 C17.2664,5.1582 16.7444,5.6802 16.7444,6.3212 C16.7444,6.4502 16.6394,6.5552 16.5104,6.5552 L16.4584,6.5552 Z M20.9334,8.7682 L16.4584,8.7682 C15.7194,8.7682 15.1174,8.1672 15.1174,7.4282 C15.1174,6.7442 15.6304,6.1792 16.2904,6.0972 C16.4004,5.3032 17.0834,4.6892 17.9064,4.6892 C18.5454,4.6892 19.1004,5.0582 19.3674,5.5942 C19.5554,5.4032 19.8164,5.2842 20.1054,5.2842 C20.6034,5.2842 21.0194,5.6352 21.1204,6.1022 C21.7804,6.2012 22.2734,6.7582 22.2734,7.4282 C22.2734,8.1672 21.6724,8.7682 20.9334,8.7682 Z" id="Fill-59" fill="#222222"></path>
            <path d="M17.0023,7.4155 L16.4583,7.4155 C16.3283,7.4155 16.2243,7.3105 16.2243,7.1815 C16.2243,7.0515 16.3283,6.9465 16.4583,6.9465 L17.0023,6.9465 C17.0753,6.9465 17.1363,6.8865 17.1363,6.8125 L17.1363,6.3365 C17.1363,5.9345 17.4413,5.5905 17.8333,5.5535 C18.0503,5.5315 18.2663,5.6045 18.4263,5.7505 C18.5863,5.8965 18.6783,6.1045 18.6783,6.3205 C18.6783,6.4505 18.5723,6.5555 18.4433,6.5555 C18.3143,6.5555 18.2093,6.4505 18.2093,6.3205 C18.2093,6.2345 18.1743,6.1555 18.1093,6.0975 C18.0463,6.0395 17.9643,6.0135 17.8773,6.0195 C17.7243,6.0345 17.6053,6.1735 17.6053,6.3365 L17.6053,6.8125 C17.6053,7.1455 17.3343,7.4155 17.0023,7.4155" id="Fill-61" fill="#0155FC"></path>
            <path d="M16.4584,8.7686 L14.8984,8.7686 C14.7694,8.7686 14.6644,8.6636 14.6644,8.5346 C14.6644,8.4046 14.7694,8.2996 14.8984,8.2996 L16.4584,8.2996 C16.5874,8.2996 16.6924,8.4046 16.6924,8.5346 C16.6924,8.6636 16.5874,8.7686 16.4584,8.7686" id="Fill-63" fill="#222222"></path>
            <path d="M14.2641,8.7686 L14.1821,8.7686 C14.0531,8.7686 13.9481,8.6636 13.9481,8.5346 C13.9481,8.4046 14.0531,8.2996 14.1821,8.2996 L14.2641,8.2996 C14.3931,8.2996 14.4981,8.4046 14.4981,8.5346 C14.4981,8.6636 14.3931,8.7686 14.2641,8.7686" id="Fill-65" fill="#222222"></path>
        </g>
    </g>
</svg>