<?xml version="1.0" encoding="UTF-8" standalone="no"?>
<svg
   xmlns:dc="http://purl.org/dc/elements/1.1/"
   xmlns:cc="http://creativecommons.org/ns#"
   xmlns:rdf="http://www.w3.org/1999/02/22-rdf-syntax-ns#"
   xmlns:svg="http://www.w3.org/2000/svg"
   xmlns="http://www.w3.org/2000/svg"
   version="1.1"
   id="svg2"
   viewBox="0 0 1275.5906 566.92913"
   height="160mm"
   width="360mm">
  <defs
     id="defs4" />
  <metadata
     id="metadata7">
    <rdf:RDF>
      <cc:Work
         rdf:about="">
        <dc:format>image/svg+xml</dc:format>
        <dc:type
           rdf:resource="http://purl.org/dc/dcmitype/StillImage" />
        <dc:title></dc:title>
      </cc:Work>
    </rdf:RDF>
  </metadata>
  <g
     transform="translate(0,-485.43307)"
     id="layer1">
    <path
       id="path3352"
       d="m 2.8571429,1050.3622 c 0,0 42.0112701,-134.27264 82.8571431,-189.99999 14.565164,-19.87173 34.525354,-35.99929 55.714284,-48.57143 20.08364,-11.91633 42.36314,-24.01148 65.71429,-24.28571 330.54274,-3.88185 565.64739,-3.54732 885.71424,-2.85715 30.1545,0.065 58.4246,-17.34926 84.2858,-32.85714 22.5911,-13.54692 44.5909,-30.06418 60,-51.42857 14.7426,-20.44025 22.651,-45.50313 28.5714,-70 5.1652,-21.37213 4.761,-43.74754 5.7143,-65.71429 1.0323,-23.78714 0,-71.42857 0,-71.42857"
       style="fill:none;fill-rule:evenodd;stroke:#000000;stroke-width:1px;stroke-linecap:butt;stroke-linejoin:miter;stroke-opacity:1" />
  </g>
</svg>
