<?xml version="1.0" encoding="UTF-8"?>
<svg width="24px" height="24px" viewBox="0 0 24 24" version="1.1" xmlns="http://www.w3.org/2000/svg" xmlns:xlink="http://www.w3.org/1999/xlink">
    <!-- Generator: Sketch 49 (51002) - http://www.bohemiancoding.com/sketch -->
    <title>icons/problem/taxi</title>
    <desc>Created with Sketch.</desc>
    <defs></defs>
    <g id="icons/problem/taxi" stroke="none" stroke-width="1" fill="none" fill-rule="evenodd">
        <g id="Page-1" transform="translate(1.000000, 0.000000)">
            <path d="M12.0542,1.1558 C12.0322,1.0878 12.0202,1.0148 12.0202,0.9398 C12.0202,0.5508 12.3352,0.2348 12.7242,0.2348 C13.1142,0.2348 13.4292,0.5508 13.4292,0.9398 C13.4292,1.0148 13.4172,1.0878 13.3952,1.1558 C13.7102,1.2258 13.9472,1.5068 13.9472,1.8428 C13.9472,2.2328 13.6302,2.5478 13.2412,2.5478 C13.0372,2.5478 12.8532,2.4608 12.7242,2.3218 C12.5962,2.4608 12.4112,2.5478 12.2072,2.5478 C11.8182,2.5478 11.5022,2.2328 11.5022,1.8428 C11.5022,1.5068 11.7392,1.2258 12.0542,1.1558" id="Fill-1" fill="#FFFFFF"></path>
            <path d="M12.7251,2.0874 C12.7891,2.0874 12.8521,2.1144 12.8971,2.1624 C12.9861,2.2594 13.1091,2.3134 13.2421,2.3134 C13.5011,2.3134 13.7121,2.1024 13.7121,1.8434 C13.7121,1.6244 13.5571,1.4314 13.3441,1.3844 C13.2811,1.3704 13.2251,1.3294 13.1921,1.2724 C13.1601,1.2154 13.1521,1.1474 13.1721,1.0844 C13.1871,1.0374 13.1951,0.9894 13.1951,0.9394 C13.1951,0.6804 12.9841,0.4684 12.7251,0.4684 C12.4651,0.4684 12.2541,0.6804 12.2541,0.9394 C12.2541,0.9894 12.2621,1.0374 12.2771,1.0844 C12.2971,1.1474 12.2891,1.2154 12.2561,1.2724 C12.2241,1.3294 12.1681,1.3704 12.1051,1.3844 C11.8921,1.4314 11.7381,1.6244 11.7381,1.8434 C11.7381,2.1024 11.9481,2.3134 12.2071,2.3134 C12.3391,2.3134 12.4621,2.2594 12.5521,2.1624 C12.5971,2.1144 12.6601,2.0874 12.7251,2.0874 M13.2421,2.7824 C13.0561,2.7824 12.8761,2.7274 12.7251,2.6274 C12.5721,2.7274 12.3921,2.7824 12.2071,2.7824 C11.6901,2.7824 11.2681,2.3604 11.2681,1.8434 C11.2681,1.4844 11.4771,1.1604 11.7881,1.0034 C11.7861,0.9824 11.7861,0.9614 11.7861,0.9394 C11.7861,0.4214 12.2061,0.0004 12.7251,0.0004 C13.2431,0.0004 13.6631,0.4214 13.6631,0.9394 C13.6631,0.9614 13.6631,0.9824 13.6621,1.0034 C13.9721,1.1604 14.1801,1.4844 14.1801,1.8434 C14.1801,2.3604 13.7591,2.7824 13.2421,2.7824" id="Fill-3" fill="#231F20"></path>
            <path d="M12.7251,5.0615 C12.5951,5.0615 12.4901,4.9565 12.4901,4.8275 L12.4901,2.5475 C12.4901,2.4185 12.5951,2.3135 12.7251,2.3135 C12.8541,2.3135 12.9591,2.4185 12.9591,2.5475 L12.9591,4.8275 C12.9591,4.9565 12.8541,5.0615 12.7251,5.0615" id="Fill-5" fill="#231F20"></path>
            <path d="M14.4975,1.1558 C14.4755,1.0878 14.4635,1.0148 14.4635,0.9398 C14.4635,0.5508 14.7785,0.2348 15.1685,0.2348 C15.5575,0.2348 15.8725,0.5508 15.8725,0.9398 C15.8725,1.0148 15.8605,1.0878 15.8385,1.1558 C16.1535,1.2258 16.3905,1.5068 16.3905,1.8428 C16.3905,2.2328 16.0745,2.5478 15.6845,2.5478 C15.4805,2.5478 15.2965,2.4608 15.1685,2.3218 C15.0395,2.4608 14.8545,2.5478 14.6505,2.5478 C14.2625,2.5478 13.9465,2.2328 13.9465,1.8428 C13.9465,1.5068 14.1825,1.2258 14.4975,1.1558" id="Fill-7" fill="#FFFFFF"></path>
            <path d="M15.1684,2.0874 C15.2334,2.0874 15.2954,2.1144 15.3394,2.1624 C15.4304,2.2594 15.5524,2.3134 15.6854,2.3134 C15.9434,2.3134 16.1554,2.1024 16.1554,1.8434 C16.1554,1.6244 16.0014,1.4314 15.7884,1.3844 C15.7234,1.3704 15.6684,1.3294 15.6354,1.2724 C15.6024,1.2154 15.5964,1.1474 15.6154,1.0844 C15.6304,1.0364 15.6394,0.9874 15.6394,0.9394 C15.6394,0.6804 15.4274,0.4684 15.1684,0.4684 C14.9084,0.4684 14.6974,0.6804 14.6974,0.9394 C14.6974,0.9874 14.7054,1.0364 14.7214,1.0844 C14.7404,1.1474 14.7334,1.2154 14.7004,1.2724 C14.6684,1.3294 14.6124,1.3704 14.5484,1.3844 C14.3354,1.4314 14.1804,1.6244 14.1804,1.8434 C14.1804,2.1024 14.3924,2.3134 14.6504,2.3134 C14.7834,2.3134 14.9054,2.2594 14.9954,2.1624 C15.0394,2.1144 15.1024,2.0874 15.1684,2.0874 M15.6854,2.7824 C15.5004,2.7824 15.3204,2.7274 15.1684,2.6274 C15.0164,2.7274 14.8354,2.7824 14.6504,2.7824 C14.1334,2.7824 13.7124,2.3604 13.7124,1.8434 C13.7124,1.4844 13.9204,1.1604 14.2314,1.0044 C14.2304,0.9824 14.2294,0.9614 14.2294,0.9394 C14.2294,0.4214 14.6504,0.0004 15.1684,0.0004 C15.6864,0.0004 16.1064,0.4214 16.1064,0.9394 C16.1064,0.9614 16.1064,0.9824 16.1054,1.0044 C16.4164,1.1604 16.6244,1.4844 16.6244,1.8434 C16.6244,2.3604 16.2024,2.7824 15.6854,2.7824" id="Fill-9" fill="#231F20"></path>
            <path d="M15.1684,5.0615 C15.0384,5.0615 14.9344,4.9565 14.9344,4.8275 L14.9344,2.5475 C14.9344,2.4185 15.0384,2.3135 15.1684,2.3135 C15.2974,2.3135 15.4014,2.4185 15.4014,2.5475 L15.4014,4.8275 C15.4014,4.9565 15.2974,5.0615 15.1684,5.0615" id="Fill-11" fill="#231F20"></path>
            <path d="M6.1811,11.3174 L6.6851,11.3174 L6.6851,11.3044 L15.7421,11.3044 C16.6361,11.3044 17.3641,10.5774 17.3641,9.6834 C17.3641,8.7884 16.6361,8.0614 15.7421,8.0614 L0.3891,8.0614 L0.3891,3.7354 L15.7421,3.7354 C19.0211,3.7354 21.6891,6.4034 21.6891,9.6834 C21.6891,12.9624 19.0211,15.6294 15.7421,15.6294 L15.2371,15.6294 L15.2371,15.6424 L6.1811,15.6424 C5.2861,15.6424 4.5591,16.3704 4.5591,17.2644 C4.5591,18.1584 5.2861,18.8864 6.1811,18.8864 L18.0381,18.8864 L18.0381,23.2114 L6.1811,23.2114 C2.9021,23.2114 0.2341,20.5434 0.2341,17.2644 C0.2341,13.9844 2.9021,11.3174 6.1811,11.3174" id="Fill-13" fill="#FFFFFF"></path>
            <path d="M13.6694,7.3574 L13.5404,7.3574 C13.4104,7.3574 13.3064,7.2524 13.3064,7.1234 C13.3064,6.9934 13.4104,6.8884 13.5404,6.8884 L13.6694,6.8884 C13.7984,6.8884 13.9034,6.9934 13.9034,7.1234 C13.9034,7.2524 13.7984,7.3574 13.6694,7.3574" id="Fill-15" fill="#0155FC"></path>
            <path d="M17.936,11.2339 C17.894,11.2339 17.853,11.2229 17.815,11.1999 C17.705,11.1339 17.668,10.9899 17.735,10.8789 C17.952,10.5179 18.067,10.1049 18.067,9.6829 C18.067,8.4009 17.023,7.3579 15.742,7.3579 L14.677,7.3579 C14.548,7.3579 14.443,7.2529 14.443,7.1229 C14.443,6.9939 14.548,6.8889 14.677,6.8889 L15.742,6.8889 C17.282,6.8889 18.536,8.1419 18.536,9.6829 C18.536,10.1899 18.398,10.6869 18.136,11.1209 C18.093,11.1929 18.015,11.2339 17.936,11.2339" id="Fill-17" fill="#0155FC"></path>
            <path d="M16.5132,13.7529 C16.1852,13.1119 15.5192,12.6729 14.7512,12.6729 C14.5192,12.6729 14.2952,12.7129 14.0872,12.7879 C13.6012,12.2869 12.9212,11.9749 12.1692,11.9749 C11.0042,11.9749 10.0112,12.7239 9.6452,13.7649 C8.8552,14.0639 8.2692,14.7799 8.1562,15.6429 L15.2372,15.6429 L15.2372,15.6299 L15.7422,15.6299 C16.5162,15.6299 17.2562,15.4809 17.9362,15.2109 C17.7092,14.5339 17.1822,13.9949 16.5132,13.7529" id="Fill-19" fill="#DDDDDD"></path>
            <path d="M18.0386,18.8862 L18.0386,23.2112 L15.8596,23.2112 L13.8076,20.2562 C13.5106,19.8292 13.2836,19.3662 13.1286,18.8862 L18.0386,18.8862 Z" id="Fill-21" fill="#DDDDDD"></path>
            <path d="M15.2378,15.6299 L15.2378,15.6429 L13.1438,15.6429 C13.2248,15.3989 13.3238,15.1589 13.4418,14.9259 C14.3128,13.2079 15.9758,12.1529 17.8918,12.1039 C17.9398,12.1029 17.9888,12.1019 18.0388,12.1019 C18.0878,12.1019 18.1358,12.1029 18.1848,12.1039 C19.1268,12.1279 20.0078,12.3959 20.7628,12.8659 C19.7068,14.5259 17.8508,15.6299 15.7418,15.6299 L15.2378,15.6299 Z" id="Fill-23" fill="#DDDDDD"></path>
            <path d="M18.0386,23.4458 L6.1816,23.4458 C2.7726,23.4458 0.0006,20.6728 0.0006,17.2638 C0.0006,13.8558 2.7726,11.0828 6.1816,11.0828 L6.6126,11.0828 C6.6356,11.0748 6.6596,11.0708 6.6846,11.0708 L15.7416,11.0708 C16.5066,11.0708 17.1296,10.4478 17.1296,9.6828 C17.1296,8.9178 16.5066,8.2958 15.7416,8.2958 L0.3896,8.2958 C0.2596,8.2958 0.1546,8.1908 0.1546,8.0608 C0.1546,7.9318 0.2596,7.8268 0.3896,7.8268 L15.7416,7.8268 C16.7656,7.8268 17.5976,8.6588 17.5976,9.6828 C17.5976,10.7068 16.7656,11.5388 15.7416,11.5388 L6.7586,11.5388 C6.7346,11.5478 6.7106,11.5518 6.6846,11.5518 L6.1816,11.5518 C3.0306,11.5518 0.4686,14.1138 0.4686,17.2638 C0.4686,20.4138 3.0306,22.9768 6.1816,22.9768 L17.8046,22.9768 L17.8046,19.1208 L6.1816,19.1208 C5.1576,19.1208 4.3256,18.2878 4.3256,17.2648 C4.3256,16.2408 5.1576,15.4078 6.1816,15.4078 L15.1646,15.4078 C15.1876,15.3998 15.2126,15.3958 15.2376,15.3958 L15.7416,15.3958 C18.8916,15.3958 21.4546,12.8328 21.4546,9.6828 C21.4546,6.5328 18.8916,3.9698 15.7416,3.9698 L0.3896,3.9698 C0.2596,3.9698 0.1546,3.8648 0.1546,3.7358 C0.1546,3.6068 0.2596,3.5018 0.3896,3.5018 L15.7416,3.5018 C19.1496,3.5018 21.9226,6.2748 21.9226,9.6828 C21.9226,13.0918 19.1496,15.8638 15.7416,15.8638 L15.3096,15.8638 C15.2876,15.8728 15.2636,15.8768 15.2376,15.8768 L6.1816,15.8768 C5.4166,15.8768 4.7936,16.4998 4.7936,17.2648 C4.7936,18.0288 5.4166,18.6518 6.1816,18.6518 L18.0386,18.6518 C18.1676,18.6518 18.2716,18.7568 18.2716,18.8858 L18.2716,23.2118 C18.2716,23.3408 18.1676,23.4458 18.0386,23.4458" id="Fill-25" fill="#231F20"></path>
            <path d="M3.06,13.708 C2.993,13.708 2.926,13.679 2.88,13.623 C2.797,13.523 2.811,13.376 2.911,13.293 C3.025,13.199 3.143,13.11 3.264,13.025 C3.371,12.953 3.516,12.979 3.59,13.084 C3.664,13.191 3.638,13.337 3.532,13.411 C3.421,13.488 3.314,13.568 3.209,13.654 C3.166,13.69 3.114,13.708 3.06,13.708" id="Fill-27" fill="#0155FC"></path>
            <path d="M13.0464,22.4111 L6.1814,22.4111 C3.3434,22.4111 1.0344,20.1021 1.0344,17.2641 C1.0344,16.2661 1.3214,15.2971 1.8664,14.4621 C1.9374,14.3531 2.0824,14.3231 2.1904,14.3931 C2.2984,14.4641 2.3294,14.6091 2.2594,14.7181 C1.7644,15.4761 1.5034,16.3571 1.5034,17.2641 C1.5034,19.8441 3.6024,21.9421 6.1814,21.9421 L13.0464,21.9421 C13.1754,21.9421 13.2804,22.0471 13.2804,22.1771 C13.2804,22.3061 13.1754,22.4111 13.0464,22.4111" id="Fill-29" fill="#0155FC"></path>
            <path d="M8.1841,1.8647 L7.8561,1.8647 C7.5701,1.8647 7.3381,2.0967 7.3381,2.3827 C7.3381,2.6677 7.5701,2.8997 7.8561,2.8997 L8.1841,2.8997 C8.4691,2.8997 8.7011,2.6677 8.7011,2.3827 C8.7011,2.0967 8.4691,1.8647 8.1841,1.8647" id="Fill-31" fill="#FFFFFF"></path>
            <path d="M7.8559,2.0991 C7.6999,2.0991 7.5729,2.2261 7.5729,2.3821 C7.5729,2.5381 7.6999,2.6651 7.8559,2.6651 L8.1839,2.6651 C8.3389,2.6651 8.4669,2.5381 8.4669,2.3821 C8.4669,2.2261 8.3389,2.0991 8.1839,2.0991 L7.8559,2.0991 Z M8.1839,3.1341 L7.8559,3.1341 C7.4419,3.1341 7.1039,2.7971 7.1039,2.3821 C7.1039,1.9681 7.4419,1.6301 7.8559,1.6301 L8.1839,1.6301 C8.5979,1.6301 8.9349,1.9681 8.9349,2.3821 C8.9349,2.7971 8.5979,3.1341 8.1839,3.1341 Z" id="Fill-33" fill="#231F20"></path>
            <path d="M10.3628,5.334 C10.3628,6.026 9.8008,6.588 9.1088,6.588 C8.4168,6.588 7.8548,6.026 7.8548,5.334 C7.8548,4.641 8.4168,4.08 9.1088,4.08 C9.8008,4.08 10.3628,4.641 10.3628,5.334" id="Fill-35" fill="#DDDDDD"></path>
            <path d="M9.1089,4.314 C8.5469,4.314 8.0889,4.772 8.0889,5.334 C8.0889,5.896 8.5469,6.354 9.1089,6.354 C9.6709,6.354 10.1289,5.896 10.1289,5.334 C10.1289,4.772 9.6709,4.314 9.1089,4.314 M9.1089,6.822 C8.2889,6.822 7.6199,6.155 7.6199,5.334 C7.6199,4.513 8.2889,3.845 9.1089,3.845 C9.9299,3.845 10.5969,4.513 10.5969,5.334 C10.5969,6.155 9.9299,6.822 9.1089,6.822" id="Fill-37" fill="#231F20"></path>
            <path d="M0.3139,5.334 L10.9689,5.334 C11.2639,5.334 11.5019,5.095 11.5019,4.801 L11.5019,4.109 C11.5019,3.441 10.9609,2.9 10.2929,2.9 L8.0199,2.9 L5.9939,0.874 C5.5849,0.464 5.0299,0.234 4.4509,0.234 L0.3139,0.234" id="Fill-39" fill="#0155FC"></path>
            <polygon id="Fill-41" fill="#FFFFFF" points="0.314 2.9423 3.603 2.9423 3.603 0.2343 0.314 0.2343"></polygon>
            <path d="M8.02,2.8999 L5.994,0.8739 C5.584,0.4639 5.03,0.2339 4.451,0.2339 L0.314,0.2339 L2.354,2.2749 C2.754,2.6749 3.296,2.8999 3.862,2.8999 L8.02,2.8999 Z" id="Fill-43" fill="#FFFFFF"></path>
            <path d="M5.7554,2.1963 C5.6954,2.1963 5.6354,2.1733 5.5894,2.1283 L5.1644,1.7033 C4.9744,1.5123 4.7204,1.4063 4.4504,1.4063 L3.4824,1.4063 C3.3524,1.4063 3.2474,1.3013 3.2474,1.1723 C3.2474,1.0433 3.3524,0.9383 3.4824,0.9383 L4.4504,0.9383 C4.8464,0.9383 5.2174,1.0923 5.4974,1.3713 L5.9224,1.7963 C6.0134,1.8873 6.0134,2.0363 5.9224,2.1283 C5.8764,2.1733 5.8164,2.1963 5.7554,2.1963" id="Fill-44" fill="#0155FC"></path>
            <path d="M2.7202,1.4067 L2.5772,1.4067 C2.4492,1.4067 2.3432,1.3017 2.3432,1.1727 C2.3432,1.0427 2.4492,0.9377 2.5772,0.9377 L2.7202,0.9377 C2.8502,0.9377 2.9542,1.0427 2.9542,1.1727 C2.9542,1.3017 2.8502,1.4067 2.7202,1.4067" id="Fill-45" fill="#0155FC"></path>
            <path d="M0.8804,0.4687 L2.5214,2.1097 C2.8794,2.4687 3.3564,2.6657 3.8624,2.6657 L7.4534,2.6657 L5.8274,1.0397 C5.4594,0.6717 4.9714,0.4687 4.4504,0.4687 L0.8804,0.4687 Z M8.0194,3.1347 L3.8624,3.1347 C3.2304,3.1347 2.6354,2.8877 2.1894,2.4417 L0.1484,0.3997 C0.0804,0.3327 0.0614,0.2327 0.0974,0.1447 C0.1344,0.0567 0.2194,-0.0003 0.3144,-0.0003 L4.4504,-0.0003 C5.0964,-0.0003 5.7024,0.2517 6.1594,0.7077 L8.1854,2.7347 C8.2524,2.8017 8.2724,2.9017 8.2354,2.9897 C8.1994,3.0767 8.1134,3.1347 8.0194,3.1347 Z" id="Fill-46" fill="#231F20"></path>
            <path d="M10.9692,5.5684 L0.3142,5.5684 C0.1852,5.5684 0.0792,5.4634 0.0792,5.3344 C0.0792,5.2044 0.1852,5.0994 0.3142,5.0994 L10.9692,5.0994 C11.1342,5.0994 11.2682,4.9654 11.2682,4.8004 L11.2682,4.1094 C11.2682,3.5714 10.8302,3.1344 10.2932,3.1344 L8.0192,3.1344 C7.9572,3.1344 7.8972,3.1104 7.8542,3.0654 L5.8272,1.0394 C5.4592,0.6714 4.9712,0.4684 4.4502,0.4684 L0.3142,0.4684 C0.1852,0.4684 0.0792,0.3634 0.0792,0.2344 C0.0792,0.1054 0.1852,0.0004 0.3142,0.0004 L4.4502,0.0004 C5.0962,0.0004 5.7022,0.2514 6.1592,0.7084 L8.1162,2.6654 L10.2932,2.6654 C11.0892,2.6654 11.7382,3.3134 11.7382,4.1094 L11.7382,4.8004 C11.7382,5.2244 11.3932,5.5684 10.9692,5.5684" id="Fill-47" fill="#231F20"></path>
            <path d="M10.1089,5.334 L7.7839,5.334 C7.4889,5.334 7.2509,5.095 7.2509,4.801 L7.2509,4.109 C7.2509,3.441 7.7919,2.9 8.4599,2.9 L10.1089,2.9 L10.2939,2.9 C10.9619,2.9 11.5029,3.441 11.5029,4.109 L11.5029,4.801 C11.5029,5.095 11.2639,5.334 10.9689,5.334 L10.1089,5.334 Z" id="Fill-48" fill="#0155FC"></path>
            <path d="M8.4595,3.1343 C7.9225,3.1343 7.4845,3.5713 7.4845,4.1093 L7.4845,4.8013 C7.4845,4.9653 7.6185,5.0993 7.7835,5.0993 L10.9695,5.0993 C11.1345,5.0993 11.2685,4.9653 11.2685,4.8013 L11.2685,4.1093 C11.2685,3.5713 10.8305,3.1343 10.2935,3.1343 L8.4595,3.1343 Z M10.9695,5.5683 L7.7835,5.5683 C7.3595,5.5683 7.0165,5.2243 7.0165,4.8013 L7.0165,4.1093 C7.0165,3.3133 7.6635,2.6653 8.4595,2.6653 L10.2935,2.6653 C11.0895,2.6653 11.7375,3.3133 11.7375,4.1093 L11.7375,4.8013 C11.7375,5.2243 11.3935,5.5683 10.9695,5.5683 Z" id="Fill-49" fill="#231F20"></path>
            <path d="M6.396,5.334 C6.396,6.026 5.834,6.588 5.142,6.588 C4.45,6.588 3.888,6.026 3.888,5.334 C3.888,4.641 4.45,4.08 5.142,4.08 C5.834,4.08 6.396,4.641 6.396,5.334" id="Fill-50" fill="#DDDDDD"></path>
            <path d="M5.1421,4.314 C4.5801,4.314 4.1221,4.772 4.1221,5.334 C4.1221,5.896 4.5801,6.354 5.1421,6.354 C5.7041,6.354 6.1621,5.896 6.1621,5.334 C6.1621,4.772 5.7041,4.314 5.1421,4.314 M5.1421,6.822 C4.3221,6.822 3.6541,6.155 3.6541,5.334 C3.6541,4.513 4.3221,3.845 5.1421,3.845 C5.9631,3.845 6.6301,4.513 6.6301,5.334 C6.6301,6.155 5.9631,6.822 5.1421,6.822" id="Fill-51" fill="#231F20"></path>
            <path d="M5.5327,5.334 C5.5327,5.55 5.3577,5.725 5.1417,5.725 C4.9267,5.725 4.7517,5.55 4.7517,5.334 C4.7517,5.118 4.9267,4.943 5.1417,4.943 C5.3577,4.943 5.5327,5.118 5.5327,5.334" id="Fill-52" fill="#231F20"></path>
            <path d="M9.5473,4.5322 L9.2053,4.5322 C9.0763,4.5322 8.9723,4.4272 8.9723,4.2982 C8.9723,4.1682 9.0763,4.0632 9.2053,4.0632 L9.5473,4.0632 C9.6763,4.0632 9.7803,4.1682 9.7803,4.2982 C9.7803,4.4272 9.6763,4.5322 9.5473,4.5322" id="Fill-53" fill="#231F20"></path>
            <path d="M8.3179,5.5684 C8.1889,5.5684 8.0839,5.4634 8.0839,5.3344 L8.0839,4.8284 C8.0839,4.6654 7.9509,4.5324 7.7879,4.5324 L7.2509,4.5324 C7.1219,4.5324 7.0159,4.4274 7.0159,4.2974 C7.0159,4.1684 7.1219,4.0634 7.2509,4.0634 L7.7879,4.0634 C8.2099,4.0634 8.5519,4.4064 8.5519,4.8284 L8.5519,5.3344 C8.5519,5.4634 8.4469,5.5684 8.3179,5.5684" id="Fill-54" fill="#231F20"></path>
            <path d="M10.435,5.5684 C10.305,5.5684 10.201,5.4634 10.201,5.3344 L10.201,4.8284 C10.201,4.4064 10.543,4.0634 10.965,4.0634 L11.502,4.0634 C11.632,4.0634 11.738,4.1684 11.738,4.2974 C11.738,4.4274 11.632,4.5324 11.502,4.5324 L10.965,4.5324 C10.802,4.5324 10.669,4.6654 10.669,4.8284 L10.669,5.3344 C10.669,5.4634 10.564,5.5684 10.435,5.5684" id="Fill-55" fill="#231F20"></path>
            <path d="M2.5874,1.8647 L2.2604,1.8647 C1.9744,1.8647 1.7424,2.0967 1.7424,2.3827 C1.7424,2.6677 1.9744,2.8997 2.2604,2.8997 L2.5874,2.8997 C2.8734,2.8997 3.1054,2.6677 3.1054,2.3827 C3.1054,2.0967 2.8734,1.8647 2.5874,1.8647" id="Fill-56" fill="#FFFFFF"></path>
            <path d="M2.2593,2.0991 C2.1043,2.0991 1.9763,2.2261 1.9763,2.3821 C1.9763,2.5381 2.1043,2.6651 2.2593,2.6651 L2.5873,2.6651 C2.7433,2.6651 2.8703,2.5381 2.8703,2.3821 C2.8703,2.2261 2.7433,2.0991 2.5873,2.0991 L2.2593,2.0991 Z M2.5873,3.1341 L2.2593,3.1341 C1.8453,3.1341 1.5083,2.7971 1.5083,2.3821 C1.5083,1.9681 1.8453,1.6301 2.2593,1.6301 L2.5873,1.6301 C3.0013,1.6301 3.3393,1.9681 3.3393,2.3821 C3.3393,2.7971 3.0013,3.1341 2.5873,3.1341 Z" id="Fill-57" fill="#231F20"></path>
            <path d="M2.4233,3.1343 L0.3143,3.1343 C0.1853,3.1343 0.0793,3.0293 0.0793,2.9003 C0.0793,2.7703 0.1853,2.6653 0.3143,2.6653 L2.4233,2.6653 C2.5533,2.6653 2.6583,2.7703 2.6583,2.9003 C2.6583,3.0293 2.5533,3.1343 2.4233,3.1343" id="Fill-58" fill="#231F20"></path>
            <path d="M3.0337,3.9702 C2.9047,3.9702 2.7997,3.8652 2.7997,3.7362 L2.7997,2.9002 C2.7997,2.7702 2.9047,2.6652 3.0337,2.6652 C3.1637,2.6652 3.2677,2.7702 3.2677,2.9002 L3.2677,3.7362 C3.2677,3.8652 3.1637,3.9702 3.0337,3.9702" id="Fill-59" fill="#231F20"></path>
            <path d="M3.0337,5.3852 C2.9047,5.3852 2.7997,5.2802 2.7997,5.1512 L2.7997,4.5372 C2.7997,4.4082 2.9047,4.3032 3.0337,4.3032 C3.1637,4.3032 3.2677,4.4082 3.2677,4.5372 L3.2677,5.1512 C3.2677,5.2802 3.1637,5.3852 3.0337,5.3852" id="Fill-60" fill="#231F20"></path>
            <path d="M0.3891,3.9702 L0.3141,3.9702 C0.1851,3.9702 0.0791,3.8652 0.0791,3.7362 C0.0791,3.6062 0.1851,3.5012 0.3141,3.5012 L0.3891,3.5012 C0.5181,3.5012 0.6221,3.6062 0.6221,3.7362 C0.6221,3.8652 0.5181,3.9702 0.3891,3.9702" id="Fill-61" fill="#FFFFFF"></path>
            <path d="M2.2231,3.9702 L1.2811,3.9702 C1.1521,3.9702 1.0461,3.8652 1.0461,3.7362 C1.0461,3.6062 1.1521,3.5012 1.2811,3.5012 L2.2231,3.5012 C2.3521,3.5012 2.4571,3.6062 2.4571,3.7362 C2.4571,3.8652 2.3521,3.9702 2.2231,3.9702" id="Fill-62" fill="#FFFFFF"></path>
            <path d="M16.4272,17.2476 C16.4272,16.3576 17.1482,15.6366 18.0382,15.6366 C18.9282,15.6366 19.6502,16.3576 19.6502,17.2476 C19.6502,18.1376 18.9282,18.8586 18.0382,18.8586 C17.1482,18.8586 16.4272,18.1376 16.4272,17.2476 M15.0512,19.3926 L17.5142,22.9376 C17.7682,23.3036 18.3092,23.3036 18.5632,22.9376 L21.0262,19.3926 C22.6832,17.0056 21.0512,13.6926 18.1462,13.6186 C18.1102,13.6176 18.0742,13.6176 18.0382,13.6176 C18.0022,13.6176 17.9662,13.6176 17.9302,13.6186 C15.0262,13.6926 13.3932,17.0056 15.0512,19.3926" id="Fill-63" fill="#FFFFFF"></path>
            <path d="M17.9302,13.6186 L17.9362,13.6186 L17.9302,13.6186 Z M17.9362,13.8526 C16.6752,13.8856 15.5772,14.5816 15.0022,15.7166 C14.4162,16.8736 14.5062,18.1976 15.2422,19.2586 L17.7052,22.8036 C17.7832,22.9136 17.9042,22.9766 18.0382,22.9776 C18.1722,22.9776 18.2932,22.9136 18.3702,22.8036 L20.8332,19.2586 C21.5702,18.1976 21.6592,16.8736 21.0742,15.7166 C20.4982,14.5816 19.4022,13.8856 18.1402,13.8526 L18.0382,13.8516 L17.9362,13.8526 Z M18.0382,23.4466 L18.0372,23.4466 C17.7512,23.4466 17.4842,23.3066 17.3222,23.0716 L14.8592,19.5256 C14.0222,18.3206 13.9182,16.8176 14.5842,15.5046 C15.2392,14.2136 16.4882,13.4206 17.9242,13.3846 L18.0382,13.3826 L18.1522,13.3846 C19.5892,13.4206 20.8382,14.2136 21.4932,15.5046 C22.1572,16.8176 22.0552,18.3216 21.2182,19.5256 L18.7552,23.0716 C18.5922,23.3066 18.3242,23.4466 18.0382,23.4466 Z" id="Fill-64" fill="#231F20"></path>
            <path d="M18.0386,15.8711 C17.2796,15.8711 16.6616,16.4891 16.6616,17.2481 C16.6616,18.0071 17.2796,18.6241 18.0386,18.6241 C18.7976,18.6241 19.4146,18.0071 19.4146,17.2481 C19.4146,16.4891 18.7976,15.8711 18.0386,15.8711 M18.0386,19.0931 C17.0206,19.0931 16.1926,18.2661 16.1926,17.2481 C16.1926,16.2301 17.0206,15.4021 18.0386,15.4021 C19.0556,15.4021 19.8846,16.2301 19.8846,17.2481 C19.8846,18.2661 19.0556,19.0931 18.0386,19.0931" id="Fill-65" fill="#231F20"></path>
            <path d="M18.6352,14.9258 C18.6172,14.9258 18.6012,14.9238 18.5832,14.9198 C18.4422,14.8878 18.2932,14.8688 18.1462,14.8638 C18.0162,14.8588 17.9142,14.7508 17.9192,14.6208 C17.9232,14.4948 18.0282,14.3948 18.1542,14.3948 L18.1622,14.3948 C18.3392,14.4018 18.5162,14.4248 18.6872,14.4628 C18.8132,14.4908 18.8932,14.6168 18.8642,14.7428 C18.8392,14.8518 18.7422,14.9258 18.6352,14.9258" id="Fill-66" fill="#0155FC"></path>
            <path d="M20.1958,19.0503 C20.1498,19.0503 20.1028,19.0363 20.0618,19.0083 C19.9558,18.9343 19.9288,18.7883 20.0038,18.6823 C20.5248,17.9313 20.5888,16.9933 20.1728,16.1733 C20.0358,15.9033 19.8568,15.6673 19.6418,15.4703 C19.5468,15.3833 19.5388,15.2353 19.6268,15.1393 C19.7148,15.0443 19.8618,15.0363 19.9568,15.1233 C20.2158,15.3583 20.4288,15.6403 20.5908,15.9613 C21.0858,16.9383 21.0088,18.0553 20.3878,18.9493 C20.3428,19.0153 20.2698,19.0503 20.1958,19.0503" id="Fill-67" fill="#0155FC"></path>
            <path d="M10.4692,14.6494 C9.7512,14.6494 9.1702,15.2314 9.1702,15.9484 C9.1702,16.6664 9.7512,17.2474 10.4692,17.2474 L15.7222,17.2474 C16.4402,17.2474 17.0212,16.6664 17.0212,15.9484 C17.0212,15.2314 16.4402,14.6494 15.7222,14.6494 L15.6942,14.6494 C15.6942,14.1294 15.2722,13.7074 14.7512,13.7074 C14.2312,13.7074 13.8092,14.1294 13.8092,14.6494 C13.8092,13.7444 13.0742,13.0094 12.1692,13.0094 C11.2642,13.0094 10.5302,13.7444 10.5302,14.6494 L10.4692,14.6494 Z" id="Fill-68" fill="#FFFFFF"></path>
            <path d="M10.4692,14.8838 C9.8812,14.8838 9.4052,15.3618 9.4052,15.9488 C9.4052,16.5358 9.8812,17.0138 10.4692,17.0138 L15.7222,17.0138 C16.3092,17.0138 16.7862,16.5358 16.7862,15.9488 C16.7862,15.3618 16.3092,14.8838 15.7222,14.8838 C15.5932,14.8838 15.4592,14.7788 15.4592,14.6498 C15.4592,14.2588 15.1422,13.9418 14.7512,13.9418 C14.3612,13.9418 14.0432,14.2588 14.0432,14.6498 C14.0432,14.7788 13.9392,14.8838 13.8092,14.8838 C13.6802,14.8838 13.5742,14.7788 13.5742,14.6498 C13.5742,13.8748 12.9442,13.2438 12.1692,13.2438 C11.3942,13.2438 10.7642,13.8748 10.7642,14.6498 C10.7642,14.7788 10.6582,14.8838 10.5302,14.8838 L10.4692,14.8838 Z M15.7222,17.4828 L10.4692,17.4828 C9.6232,17.4828 8.9352,16.7948 8.9352,15.9488 C8.9352,15.1568 9.5382,14.5038 10.3092,14.4238 C10.4202,13.4958 11.2122,12.7758 12.1692,12.7758 C12.9232,12.7758 13.5752,13.2238 13.8722,13.8678 C14.0882,13.6258 14.4022,13.4728 14.7512,13.4728 C15.3242,13.4728 15.8042,13.8848 15.9062,14.4288 C16.6772,14.5298 17.2552,15.1738 17.2552,15.9488 C17.2552,16.7948 16.5682,17.4828 15.7222,17.4828 Z" id="Fill-69" fill="#231F20"></path>
            <path d="M11.1069,15.894 L10.4689,15.894 C10.3389,15.894 10.2349,15.789 10.2349,15.66 C10.2349,15.53 10.3389,15.425 10.4689,15.425 L11.1069,15.425 C11.2159,15.425 11.3049,15.336 11.3049,15.227 L11.3049,14.668 C11.3049,14.216 11.6479,13.831 12.0859,13.789 C12.3299,13.769 12.5719,13.847 12.7519,14.011 C12.9299,14.174 13.0339,14.407 13.0339,14.649 C13.0339,14.779 12.9289,14.884 12.7989,14.884 C12.6689,14.884 12.5649,14.779 12.5649,14.649 C12.5649,14.539 12.5179,14.432 12.4349,14.357 C12.3519,14.281 12.2429,14.248 12.1299,14.256 C11.9299,14.275 11.7739,14.456 11.7739,14.668 L11.7739,15.227 C11.7739,15.595 11.4749,15.894 11.1069,15.894" id="Fill-70" fill="#0155FC"></path>
            <path d="M10.4692,17.4824 L8.8712,17.4824 C8.7412,17.4824 8.6362,17.3774 8.6362,17.2484 C8.6362,17.1184 8.7412,17.0134 8.8712,17.0134 L10.4692,17.0134 C10.5982,17.0134 10.7032,17.1184 10.7032,17.2484 C10.7032,17.3774 10.5982,17.4824 10.4692,17.4824" id="Fill-71" fill="#231F20"></path>
            <path d="M8.1264,17.4824 L8.0304,17.4824 C7.9004,17.4824 7.7964,17.3774 7.7964,17.2484 C7.7964,17.1184 7.9004,17.0134 8.0304,17.0134 L8.1264,17.0134 C8.2554,17.0134 8.3594,17.1184 8.3594,17.2484 C8.3594,17.3774 8.2554,17.4824 8.1264,17.4824" id="Fill-72" fill="#231F20"></path>
            <path d="M5.1421,6.8223 L3.2301,6.8223 C3.1001,6.8223 2.9951,6.7173 2.9951,6.5883 C2.9951,6.4583 3.1001,6.3533 3.2301,6.3533 L5.1421,6.3533 C5.2721,6.3533 5.3761,6.4583 5.3761,6.5883 C5.3761,6.7173 5.2721,6.8223 5.1421,6.8223" id="Fill-73" fill="#231F20"></path>
            <path d="M2.3647,6.8223 L2.2227,6.8223 C2.0937,6.8223 1.9887,6.7173 1.9887,6.5883 C1.9887,6.4583 2.0937,6.3533 2.2227,6.3533 L2.3647,6.3533 C2.4937,6.3533 2.5987,6.4583 2.5987,6.5883 C2.5987,6.7173 2.4937,6.8223 2.3647,6.8223" id="Fill-74" fill="#231F20"></path>
            <path d="M9.1089,6.8223 L7.7109,6.8223 C7.5809,6.8223 7.4759,6.7173 7.4759,6.5883 C7.4759,6.4583 7.5809,6.3533 7.7109,6.3533 L9.1089,6.3533 C9.2389,6.3533 9.3429,6.4583 9.3429,6.5883 C9.3429,6.7173 9.2389,6.8223 9.1089,6.8223" id="Fill-75" fill="#231F20"></path>
            <path d="M6.897,6.8223 L6.804,6.8223 C6.674,6.8223 6.569,6.7173 6.569,6.5883 C6.569,6.4583 6.674,6.3533 6.804,6.3533 L6.897,6.3533 C7.027,6.3533 7.131,6.4583 7.131,6.5883 C7.131,6.7173 7.027,6.8223 6.897,6.8223" id="Fill-76" fill="#231F20"></path>
        </g>
    </g>
</svg>