<svg xmlns="http://www.w3.org/2000/svg" width="1493.458" height="240.169" viewBox="0 0 1493.4579 240.16856"><title>line</title><path d="M1493.415 3.764c-21.14-1.838-45.725 225.194-75.242 235.129-48.94 16.471-40.616-231.168-91.543-238.265-46.256-6.445-45.813 229.678-87.782 235.757-52.244 7.567-41.77-229.978-90.29-234.502-47.815-4.46-39.938 247.698-94.678 234.502-36.987-8.917-47.128-248.952-83.393-234.502-51.449 20.5-43.724 245.225-92.17 234.502C839.7 227.837 837.3 1.477 790.534 3.764c-38.211 1.868-44.809 246.906-84.647 232.62-54.783-19.644-41.711-245.7-91.543-231.993-44.795 12.321-41.775 244.481-89.35 234.502-48.472-10.168-42.797-233.797-87.467-235.756-46.888-2.057-37.304 238.106-89.036 235.756-40.994-1.863-42.407-229.907-84.96-237.01-49.544-8.271-45.484 240.844-93.111 237.01C124.383 235.186 128.1-27.531 74.415 5.02 42.62 24.3 30.471 240.177.025 238.6" fill="none" stroke="#000"/></svg>