<?xml version="1.0" standalone="no"?>
<!DOCTYPE svg PUBLIC "-//W3C//DTD SVG 1.1//EN" "http://www.w3.org/Graphics/SVG/1.1/DTD/svg11.dtd" >
<svg xmlns="http://www.w3.org/2000/svg">
<metadata>Generated by IcoMoon</metadata>
<defs>
<font id="icomoon" horiz-adv-x="1024">
<font-face units-per-em="1024" ascent="960" descent="-64" />
<missing-glyph horiz-adv-x="1024" />
<glyph unicode="&#x20;" horiz-adv-x="512" d="" />
<glyph unicode="&#xe900;" d="M855.808 605.867h-599.040c-33.152 0-60.032-26.88-60.032-60.032v-76.288c-0.043-19.371 9.301-37.547 25.131-48.853l397.44-283.733h-422.571v-167.253h599.083c33.109 0 59.989 26.88 59.989 60.032v76.373c0 19.328-9.387 37.547-25.131 48.811l-397.397 283.733h422.528v167.211z" />
<glyph unicode="&#xe901;" d="M389.547 136.96h-192.853v-167.253h86.315l80.725 116.267c11.093 15.915 19.669 33.109 25.771 50.987zM855.808 605.867h-211.243c6.059-17.749 14.635-34.816 25.643-50.645l80.981-116.608h104.619v167.253z" />
<glyph unicode="&#xe902;" d="M786.603-40.32l-0.896 0.043h-588.971c0 0 0 0 0 0-5.523 0-10.002 4.465-10.027 9.982v167.255c0 5.547 4.48 10.027 10.027 10.027h391.339l-372.011 265.6c-17.857 12.859-29.348 33.588-29.355 57.002v76.246c0 38.613 31.445 70.016 70.059 70.016h599.040c5.514 0 9.984-4.47 9.984-9.984s-4.47-9.984-9.984-9.984h-599.040c-27.563 0-50.048-22.443-50.048-50.048v-76.288c0-16.128 7.851-31.36 20.907-40.704l397.483-283.733c2.561-1.849 4.209-4.826 4.209-8.188 0-1.068-0.166-2.096-0.474-3.062l0.020 0.071c-1.352-4.065-5.117-6.946-9.556-6.955h-412.588v-147.2h589.099c27.563 0 50.005 22.4 50.005 49.963v76.373c0 16.085-7.851 31.317-20.992 40.704l-397.355 283.648c-2.564 1.831-4.216 4.797-4.216 8.149 0 5.514 4.47 9.984 9.984 9.984 0.012 0 0.025 0 0.037 0h403.966c5.514 0 9.984-4.47 9.984-9.984s-4.47-9.984-9.984-9.984h-372.736l371.968-265.557c18.389-13.141 29.312-34.432 29.312-57.003v-76.331c0-38.613-31.403-69.973-69.973-69.973h-8.32c-0.256-0.085-0.597-0.085-0.896-0.085z" />
<glyph unicode="&#xe903;" d="M236.715 459.563c-5.514 0-9.984 4.47-9.984 9.984v0l0.043 76.288c0 16.597 13.44 30.037 29.995 30.037h273.493c5.547 0 9.984-4.48 9.984-9.984 0-5.547-4.437-10.027-9.984-10.027h-273.493c-5.538 0-10.027-4.489-10.027-10.027v0-76.288c0 0 0 0 0 0 0-5.514-4.47-9.984-9.984-9.984-0.015 0-0.030 0-0.045 0h0.002zM594.987 555.861h-13.227c-5.538 0-10.027 4.489-10.027 10.027s4.489 10.027 10.027 10.027v0h13.227c5.547 0 9.984-4.523 9.984-10.069 0-5.514-4.47-9.984-9.984-9.984v0zM795.733-0.341h-273.493c-0.196-0.014-0.424-0.021-0.654-0.021-5.538 0-10.027 4.489-10.027 10.027s4.489 10.027 10.027 10.027c0.23 0 0.458-0.008 0.684-0.023l-0.031 0.002h273.493c5.538 0 10.027 4.489 10.027 10.027v0 76.288c0 5.538 4.489 10.027 10.027 10.027s10.027-4.489 10.027-10.027v0l-0.043-76.288c0 0 0 0 0 0 0-16.574-13.424-30.013-29.992-30.037h-0.002zM470.741-0.341h-13.227c-5.526 0-10.005 4.48-10.005 10.005s4.48 10.005 10.005 10.005v0h13.227c5.547 0 9.984-4.48 9.984-10.027 0-5.514-4.47-9.984-9.984-9.984v0zM196.693 141.227c-0.49-0.014-1.067-0.021-1.646-0.021-35.063 0-63.488 28.425-63.488 63.488s28.425 63.488 63.488 63.488c0.579 0 1.156-0.008 1.73-0.023l-0.085 0.002c35.063 0 63.488-28.425 63.488-63.488s-28.425-63.488-63.488-63.488v0zM200.96 347.733l-4.267 0.043h-4.267c-114.432-2.987-178.773-133.547-113.493-227.627l97.109-139.691c4.607-6.568 12.144-10.808 20.672-10.808s16.065 4.24 20.618 10.727l0.054 0.080 97.067 139.691c65.28 94.080 0.981 224.64-113.493 227.584z" />
<glyph unicode="&#xe904;" d="M196.693 337.749h-4.053c-50.222-1.048-93.395-30.205-114.516-72.333l-0.343-0.755c-9.49-17.899-15.061-39.131-15.061-61.663 0-28.886 9.157-55.634 24.726-77.499l-0.277 0.41 97.067-139.776c2.755-3.941 7.271-6.486 12.382-6.486 0.042 0 0.084 0 0.126 0.001h-0.006c0.036 0 0.079 0 0.122 0 5.097 0 9.6 2.546 12.304 6.437l0.032 0.049 97.024 139.776c15.313 21.442 24.484 48.186 24.484 77.072 0 22.543-5.585 43.781-15.448 62.406l0.35-0.725c-21.443 42.865-64.581 72.016-114.632 73.086l-0.141 0.002h-4.139zM196.693-40.32c-11.915 0.005-22.445 5.929-28.811 14.992l-0.075 0.112-97.024 139.691c-17.58 24.651-28.108 55.388-28.108 88.584 0 25.827 6.373 50.166 17.631 71.53l-0.403-0.839c24.778 49.328 74.522 82.837 132.202 83.966l0.15 0.002 4.48 0.085 4.437-0.085c57.836-1.111 107.589-34.627 131.957-83.101l0.395-0.867c10.864-20.525 17.242-44.866 17.242-70.697 0-33.196-10.533-63.931-28.44-89.047l0.318 0.469-97.024-139.691c-6.427-9.169-16.942-15.092-28.841-15.104h-0.087z" />
<glyph unicode="&#xe905;" d="M196.693 258.176c-28.63-1.191-51.388-24.689-51.388-53.503 0-28.829 22.782-52.337 51.325-53.501l0.106-0.003c29.44 0 53.504 24.021 53.504 53.504 0 29.525-24.021 53.504-53.504 53.504zM196.736 131.157c-40.533 0-73.515 32.981-73.515 73.515s32.981 73.515 73.515 73.515c40.533 0 73.515-32.981 73.515-73.515s-32.981-73.515-73.515-73.515z" />
<glyph unicode="&#xe906;" d="M837.205 610.475c-35.054 0.012-63.467 28.432-63.467 63.488 0 35.063 28.425 63.488 63.488 63.488 0.008 0 0.015 0 0.023 0h-0.001c35.063 0 63.488-28.425 63.488-63.488s-28.425-63.488-63.488-63.488v0zM841.515 816.981l-4.267 0.085-4.267-0.085c-114.432-2.901-178.773-133.547-113.493-227.541l97.109-139.733c4.607-6.568 12.144-10.808 20.672-10.808s16.065 4.24 20.618 10.727l0.054 0.080 97.024 139.733c65.323 94.037 0.981 224.64-113.493 227.541z" />
<glyph unicode="&#xe907;" d="M837.205 807.040h-3.968c-50.253-1.025-93.46-30.187-114.601-72.333l-0.343-0.755c-9.486-17.896-15.056-39.124-15.056-61.653 0-28.909 9.171-55.676 24.762-77.55l-0.277 0.409 97.024-139.733c5.803-8.277 19.2-8.363 25.003 0l96.981 139.733c28.885 41.557 32.427 93.44 9.429 138.795-21.495 42.883-64.699 72.029-114.809 73.043l-0.135 0.002-4.011 0.043zM837.291 428.928c-0.008 0-0.018 0-0.028 0-11.921 0-22.457 5.925-28.825 14.992l-0.075 0.112-97.109 139.691c-17.574 24.639-28.098 55.362-28.098 88.543 0 25.845 6.385 50.198 17.663 71.569l-0.403-0.837c24.743 49.323 74.461 82.834 132.116 83.966l0.15 0.002 4.48 0.085 4.48-0.085c57.83-1.131 107.574-34.639 131.957-83.101l0.395-0.867c10.855-20.524 17.228-44.863 17.228-70.691 0-33.196-10.528-63.933-28.427-89.055l0.318 0.47-96.981-139.691c-6.44-9.175-16.97-15.099-28.885-15.104h-0.001z" />
<glyph unicode="&#xe908;" d="M834.005 766.976c-0.002 0-0.004 0-0.006 0-5.394 0-9.789 4.277-9.978 9.625v0.017c-0.005 0.117-0.008 0.254-0.008 0.391 0 5.382 4.258 9.769 9.589 9.976l0.019 0.001 3.584 0.043c0.196 0.014 0.424 0.021 0.654 0.021 5.538 0 10.027-4.489 10.027-10.027s-4.489-10.027-10.027-10.027c-0.23 0-0.458 0.008-0.684 0.023l0.031-0.002h-3.2zM807.467 522.923c-0.015 0-0.033 0-0.052 0-3.36 0-6.33 1.675-8.119 4.235l-0.021 0.032-55.040 79.36c-13.097 18.307-20.942 41.15-20.942 65.825 0 19.197 4.748 37.285 13.134 53.153l-0.299-0.62c13.227 26.027 35.115 45.653 61.739 55.381 1.146 0.494 2.48 0.782 3.882 0.782 5.538 0 10.027-4.489 10.027-10.027 0-4.471-2.926-8.259-6.968-9.552l-0.071-0.020c-22.338-8.442-40.144-24.588-50.53-45.124l-0.243-0.53c-6.695-12.622-10.626-27.594-10.626-43.485 0-20.366 6.457-39.224 17.435-54.639l-0.196 0.289 55.083-79.36c1.15-1.601 1.839-3.6 1.839-5.76 0-5.49-4.451-9.941-9.941-9.941-0.032 0-0.063 0-0.094 0h0.005zM193.493 297.728c-0.032 0-0.069-0.001-0.107-0.001-5.526 0-10.006 4.48-10.006 10.006 0 5.489 4.419 9.945 9.894 10.005h0.006l3.413 0.043c0.196 0.014 0.424 0.021 0.654 0.021 5.538 0 10.027-4.489 10.027-10.027s-4.489-10.027-10.027-10.027c-0.23 0-0.458 0.008-0.684 0.023l0.031-0.002h-3.157zM166.955 53.675c-0.015 0-0.033 0-0.052 0-3.36 0-6.33 1.675-8.119 4.235l-0.021 0.032-55.125 79.36c-13.055 18.292-20.873 41.103-20.873 65.74 0 19.213 4.754 37.315 13.151 53.194l-0.299-0.62c12.918 25.571 34.557 45.161 60.922 55.125l0.774 0.257c1.027 0.39 2.215 0.616 3.456 0.616 5.524 0 10.003-4.478 10.003-10.003 0-4.284-2.693-7.938-6.478-9.364l-0.069-0.023c-22.342-8.434-40.151-24.582-50.531-45.124l-0.243-0.53c-16.213-32-13.696-68.565 6.613-97.835l55.125-79.36c1.15-1.601 1.839-3.6 1.839-5.761 0-5.49-4.451-9.941-9.941-9.941-0.047 0-0.093 0-0.14 0.001h0.007z" />
<glyph unicode="&#xe909;" d="M837.205 727.467c-29.573 0-53.547-23.974-53.547-53.547s23.974-53.547 53.547-53.547c29.573 0 53.547 23.974 53.547 53.547 0 0.015 0 0.030 0 0.045v-0.002c0 29.483-24.021 53.461-53.547 53.461zM837.205 600.448c-40.533 0-73.515 32.981-73.515 73.515 0.99 39.855 33.534 71.786 73.536 71.786s72.546-31.931 73.534-71.694l0.002-0.092c0-40.533-32.981-73.515-73.557-73.515z" />
<glyph unicode="&#xe90a;" d="M196.693-40.277h-89.6c-5.538 0-10.027 4.489-10.027 10.027s4.489 10.027 10.027 10.027v0h89.6c5.547 0 10.027-4.523 10.027-10.069 0-5.514-4.47-9.984-9.984-9.984v0z" />
<glyph unicode="&#xe90b;" d="M61.099-40.277h-8.192c-5.538 0-10.027 4.489-10.027 10.027s4.489 10.027 10.027 10.027h8.235c5.547 0 9.984-4.523 9.984-10.069 0-5.514-4.47-9.984-9.984-9.984v0z" />
<glyph unicode="&#xe90c;" d="M514.475 879.104c-31.010 0-56.149-25.139-56.149-56.149s25.139-56.149 56.149-56.149h227.072c31.010 0 56.149 25.139 56.149 56.149s-25.139 56.149-56.149 56.149v0h-1.237c-1.244 21.523-19.001 38.505-40.725 38.505s-39.481-16.983-40.72-38.396l-0.005-0.11c-0.972 38.408-32.339 69.173-70.891 69.173s-69.919-30.765-70.889-69.083l-0.002-0.090h-2.603z" />
<glyph unicode="&#xe90d;" d="M514.475 869.12c-24.651-1.093-44.223-21.344-44.223-46.165s19.571-45.072 44.124-46.162l0.098-0.003h227.072c24.651 1.093 44.223 21.344 44.223 46.165s-19.571 45.072-44.124 46.162l-0.098 0.003c-5.547 0-11.221 4.48-11.221 9.984-1.074 16.138-14.426 28.821-30.741 28.821s-29.668-12.683-30.736-28.727l-0.005-0.093c-0.353-5.249-4.698-9.373-10.005-9.373s-9.652 4.124-10.004 9.342l-0.002 0.031c0 33.579-27.264 60.928-60.843 60.928-33.63-0.049-60.879-27.298-60.928-60.923v-0.005c0-5.514-4.47-9.984-9.984-9.984h-2.603zM741.547 756.821h-227.072c-36.523 0.024-66.127 29.613-66.176 66.129v0.005c0 34.133 26.069 62.379 59.349 65.792-4.657 9.906-7.375 21.514-7.375 33.757 0 44.701 36.237 80.939 80.939 80.939s80.939-36.237 80.939-80.939c0-3.477-0.219-6.902-0.645-10.263l0.041 0.4c9.351 10.493 22.904 17.069 37.992 17.069 24.67 0 45.234-17.58 49.848-40.895l0.053-0.323c32.9-4.127 58.115-31.868 58.24-65.523v-0.013c0-36.48-29.653-66.133-66.133-66.133z" />
<glyph unicode="&#xe90e;" d="M541.227 829.099h-26.752c-5.514 0-9.984 4.47-9.984 9.984v0c0 5.547 4.437 10.027 9.984 10.027h26.752c0.013 0 0.028 0 0.043 0 3.228 0 5.845 2.617 5.845 5.845 0 0 0 0 0 0v0 24.149c0 22.571 18.304 40.875 40.875 40.875 5.514 0 9.984-4.47 9.984-9.984s-4.47-9.984-9.984-9.984v0c-11.546 0-20.907-9.36-20.907-20.907v0-24.149c-0.024-14.27-11.586-25.832-25.854-25.856h-0.002z" />
<glyph unicode="&#xe90f;" d="M308.864 731.392c1.069 3.213 1.685 6.912 1.685 10.755 0 19.417-15.74 35.157-35.157 35.157s-35.157-15.74-35.157-35.157c0-3.843 0.617-7.542 1.756-11.003l-0.071 0.248c-15.856-3.625-27.507-17.609-27.507-34.315 0-19.417 15.74-35.157 35.157-35.157 10.185 0 19.359 4.331 25.78 11.252l0.021 0.022c6.455-7.004 15.673-11.377 25.913-11.377 19.44 0 35.2 15.76 35.2 35.2 0 16.754-11.705 30.775-27.384 34.329l-0.236 0.045z" />
<glyph unicode="&#xe910;" d="M430.805 731.392c1.069 3.213 1.685 6.912 1.685 10.755 0 19.417-15.74 35.157-35.157 35.157s-35.157-15.74-35.157-35.157c0-3.843 0.617-7.542 1.756-11.003l-0.071 0.248c-15.856-3.625-27.507-17.609-27.507-34.315 0-19.417 15.74-35.157 35.157-35.157 10.185 0 19.359 4.331 25.78 11.252l0.021 0.022c6.455-7.004 15.673-11.377 25.913-11.377 19.44 0 35.2 15.76 35.2 35.2 0 16.754-11.705 30.775-27.384 34.329l-0.236 0.045z" />
<glyph unicode="&#xe911;" d="M275.371 683.179c2.773 0 5.419-1.152 7.296-3.2 4.614-4.988 11.193-8.1 18.499-8.1 13.903 0 25.173 11.27 25.173 25.173 0 11.961-8.341 21.973-19.524 24.537l-0.169 0.033c-4.509 1.005-7.83 4.972-7.83 9.714 0 1.103 0.18 2.164 0.511 3.156l-0.020-0.070c0.811 2.367 1.279 5.094 1.279 7.93 0 13.926-11.29 25.216-25.216 25.216s-25.216-11.29-25.216-25.216c0-0.058 0-0.116 0.001-0.174v0.009c0-2.56 0.427-5.163 1.28-7.765 0.311-0.921 0.491-1.982 0.491-3.086 0-4.742-3.321-8.709-7.763-9.702l-0.066-0.012c-11.379-2.576-19.747-12.602-19.747-24.582 0-13.903 11.27-25.173 25.173-25.173 7.312 0 13.895 3.117 18.494 8.095l0.015 0.017c1.823 1.964 4.415 3.191 7.294 3.2h0.002zM301.184 651.904c-9.216 0-18.304 2.859-25.856 8.107-7.199-5.073-16.152-8.109-25.813-8.109-24.931 0-45.141 20.21-45.141 45.141 0 0.016 0 0.032 0 0.047v-0.003c0 17.92 10.283 33.664 26.027 40.917-0.137 1.318-0.215 2.847-0.215 4.395 0 24.837 20.134 44.971 44.971 44.971 0.061 0 0.121 0 0.182 0h-0.009c24.951-0.035 45.164-20.271 45.164-45.227 0-1.472-0.070-2.928-0.208-4.364l0.014 0.183c15.573-7.339 26.027-23.253 26.027-40.875 0-24.963-20.224-45.202-45.182-45.227h-0.002z" />
<glyph unicode="&#xe912;" d="M397.312 683.179c2.773 0 5.419-1.152 7.339-3.2 4.614-4.988 11.193-8.1 18.499-8.1 13.903 0 25.173 11.27 25.173 25.173 0 11.961-8.341 21.973-19.524 24.537l-0.169 0.033c-4.509 1.005-7.83 4.972-7.83 9.714 0 1.103 0.18 2.164 0.511 3.156l-0.020-0.070c0.811 2.367 1.279 5.094 1.279 7.93 0 13.926-11.29 25.216-25.216 25.216s-25.216-11.29-25.216-25.216c0-0.058 0-0.116 0.001-0.174v0.009c0-2.56 0.427-5.163 1.237-7.765 0.311-0.921 0.491-1.982 0.491-3.086 0-4.742-3.321-8.709-7.763-9.702l-0.066-0.012c-11.379-2.576-19.747-12.602-19.747-24.582 0-13.903 11.27-25.173 25.173-25.173 7.312 0 13.895 3.117 18.494 8.095l0.015 0.017c1.829 1.971 4.434 3.2 7.325 3.2 0.005 0 0.010 0 0.014 0h-0.001zM423.125 651.904c-9.216 0-18.261 2.859-25.813 8.107-7.199-5.073-16.152-8.109-25.813-8.109-24.931 0-45.141 20.21-45.141 45.141 0 0.016 0 0.032 0 0.047v-0.003c0 17.92 10.24 33.664 25.984 40.917-0.137 1.318-0.215 2.847-0.215 4.395 0 24.837 20.134 44.971 44.971 44.971 0.076 0 0.151 0 0.227-0.001h-0.012c24.951-0.035 45.164-20.271 45.164-45.227 0-1.472-0.070-2.928-0.208-4.364l0.014 0.183c15.531-7.339 26.027-23.253 26.027-40.875 0-24.978-20.249-45.227-45.227-45.227v0zM275.371 595.883c-5.514 0-9.984 4.47-9.984 9.984v0 67.328c0 5.514 4.47 9.984 9.984 9.984s9.984-4.47 9.984-9.984v-67.328c0-5.514-4.47-9.984-9.984-9.984v0z" />
<glyph unicode="&#xe913;" d="M397.312 595.883c-5.514 0-9.984 4.47-9.984 9.984v0 67.328c0 5.514 4.47 9.984 9.984 9.984s9.984-4.47 9.984-9.984v-67.328c0-5.514-4.47-9.984-9.984-9.984v0zM924.416 428.629h-87.211c-5.496 0.024-9.941 4.485-9.941 9.984 0 0 0 0 0 0v0c0 5.547 4.437 10.027 9.941 10.027h87.211c5.547 0 9.941-4.48 9.941-10.027 0 0 0 0 0 0 0-5.499-4.446-9.96-9.939-9.984h-0.002zM981.12 428.928h-10.325c-0.196-0.014-0.424-0.021-0.654-0.021-5.538 0-10.027 4.489-10.027 10.027s4.489 10.027 10.027 10.027c0.23 0 0.458-0.008 0.684-0.023l-0.031 0.002h10.325c5.547 0 9.984-4.48 9.984-10.027 0-5.514-4.47-9.984-9.984-9.984v0z" />
<glyph unicode="&#xe914;" d="M556.971 910.677c-0.933 2.776-1.472 5.972-1.472 9.295 0 16.613 13.467 30.080 30.080 30.080s30.080-13.467 30.080-30.080c0-3.322-0.539-6.519-1.533-9.507l0.061 0.212c13.612-3.067 23.627-15.054 23.627-29.38 0-16.613-13.467-30.080-30.080-30.080-8.745 0-16.618 3.732-22.114 9.69l-0.019 0.021c-5.515-5.979-13.388-9.71-22.133-9.71-16.613 0-30.080 13.467-30.080 30.080 0 14.326 10.015 26.313 23.425 29.341l0.201 0.038z" />
<glyph unicode="&#xe915;" d="M585.6 870.955c2.731 0 5.419-1.152 7.339-3.2 3.674-3.962 8.908-6.434 14.719-6.434 11.075 0 20.053 8.978 20.053 20.053 0 9.532-6.651 17.511-15.566 19.549l-0.135 0.026c-2.786 0.654-5.081 2.391-6.46 4.731l-0.026 0.047c-0.829 1.435-1.318 3.156-1.318 4.992 0 1.082 0.17 2.124 0.484 3.101l-0.020-0.072c0.701 1.961 1.105 4.224 1.105 6.581 0 11.122-9.016 20.139-20.139 20.139s-20.139-9.016-20.139-20.139c0-0.138 0.001-0.277 0.004-0.414v0.021c0-2.133 0.341-4.181 0.981-6.187 0.302-0.91 0.476-1.957 0.476-3.045 0-1.832-0.493-3.548-1.354-5.024l0.026 0.047c-1.385-2.405-3.688-4.15-6.419-4.766l-0.066-0.013c-9.049-2.064-15.7-10.043-15.7-19.575 0-11.075 8.978-20.053 20.053-20.053 5.811 0 11.045 2.472 14.707 6.421l0.012 0.013c1.853 1.968 4.473 3.195 7.38 3.2h0.001zM607.659 841.301c-0.010 0-0.023 0-0.035 0-8.201 0-15.825 2.469-22.17 6.705l0.146-0.092c-6.203-4.121-13.823-6.575-22.016-6.575-22.13 0-40.079 17.905-40.149 40.019v0.007c0 15.317 8.96 29.141 22.187 35.84-0.085 0.853-0.085 1.792-0.085 2.731 1.233 21.154 18.689 37.842 40.043 37.842s38.809-16.688 40.038-37.733l0.005-0.108v-2.731c13.168-6.758 22.022-20.244 22.022-35.798 0-22.092-17.862-40.013-39.933-40.106h-0.009z" />
<glyph unicode="&#xe916;" d="M585.6 744.064c0 0 0 0 0 0-5.523 0-10.002 4.465-10.027 9.982v97.282c0 5.538 4.489 10.027 10.027 10.027s10.027-4.489 10.027-10.027v0-97.28c0 0 0 0 0 0 0-5.514-4.47-9.984-9.984-9.984-0.015 0-0.030 0-0.045 0h0.002z" />
<glyph unicode="&#xe917;" d="M661.248 910.677c-0.933 2.776-1.472 5.972-1.472 9.295 0 16.613 13.467 30.080 30.080 30.080s30.080-13.467 30.080-30.080c0-3.322-0.539-6.519-1.533-9.507l0.061 0.212c13.612-3.067 23.627-15.054 23.627-29.38 0-16.613-13.467-30.080-30.080-30.080-8.745 0-16.618 3.732-22.114 9.69l-0.019 0.021c-5.513-5.892-13.336-9.564-22.016-9.564-16.609 0-30.078 13.441-30.123 30.040v0.004c0 14.293 10.069 26.283 23.467 29.269z" />
<glyph unicode="&#xe918;" d="M689.835 870.955c2.773 0 5.419-1.152 7.296-3.2 3.672-3.94 8.891-6.397 14.685-6.397 11.075 0 20.053 8.978 20.053 20.053 0 9.474-6.57 17.413-15.402 19.511l-0.136 0.027c-4.545 0.997-7.897 4.989-7.897 9.763 0 1.085 0.173 2.129 0.493 3.107l-0.020-0.071c0.609 1.836 0.96 3.949 0.96 6.144 0 11.085-8.956 20.078-20.026 20.138h-0.006c-11.076-0.060-20.032-9.054-20.032-20.138 0-2.195 0.351-4.309 1.001-6.287l-0.040 0.142c0.292-0.904 0.461-1.945 0.461-3.025 0-1.837-0.488-3.559-1.34-5.046l0.026 0.049c-1.394-2.414-3.714-4.161-6.462-4.767l-0.066-0.012c-9.134-2.018-15.866-10.046-15.866-19.646 0-11.099 8.997-20.096 20.096-20.096 5.871 0 11.154 2.517 14.828 6.532l0.014 0.015c1.829 1.971 4.434 3.2 7.325 3.2 0.020 0 0.039 0 0.059 0h-0.003zM711.893 841.301c-8.212 0.006-15.846 2.474-22.206 6.706l0.148-0.092c-5.042-2.455-10.968-3.89-17.23-3.89-22.15 0-40.107 17.956-40.107 40.107 0 13.646 6.815 25.7 17.227 32.945l0.131 0.087-0.043 2.731c0.726 21.557 18.376 38.757 40.043 38.757s39.317-17.2 40.041-38.69l0.002-0.066v-2.773c13.050-6.807 21.806-20.238 21.806-35.714 0-22.025-17.735-39.908-39.704-40.147h-0.023z" />
<glyph unicode="&#xe919;" d="M689.835 744.064c-5.514 0-9.984 4.47-9.984 9.984v0 97.28c-0.014 0.195-0.021 0.423-0.021 0.652 0 5.514 4.47 9.984 9.984 9.984s9.984-4.47 9.984-9.984c0-0.23-0.008-0.457-0.023-0.683l0.002 0.031v-97.28c0-0.013 0-0.028 0-0.043 0-5.49-4.451-9.941-9.941-9.941 0 0 0 0 0 0v0z" />
<glyph unicode="&#xe91a;" d="M306.389 477.141h21.504v0.555h386.432c38.144 0 69.205 31.019 69.205 69.12 0 38.229-31.061 69.248-69.205 69.248h-655.019v184.576h655.061c140.083-0.17 253.593-113.695 253.739-253.767v-0.014c-0.17-140.059-113.676-253.55-253.724-253.696h-21.561v-0.555h-386.432c-38.187 0-69.205-31.061-69.205-69.205s31.019-69.205 69.205-69.205h505.899v-184.533h-505.899c-140.068 0.17-253.569 113.671-253.739 253.722v0.016c0.146 140.077 113.661 253.593 253.725 253.739h0.014z" />
<glyph unicode="&#xe91b;" d="M625.92 646.101h-5.547c-5.514 0-9.984 4.47-9.984 9.984v0c0 5.547 4.437 10.027 9.984 10.027h5.547c5.538 0 10.027-4.489 10.027-10.027s-4.489-10.027-10.027-10.027v0zM807.936 480.683c-0.009 0-0.020 0-0.030 0-5.514 0-9.984 4.47-9.984 9.984 0 1.908 0.535 3.69 1.463 5.206l-0.025-0.044c8.897 14.56 14.165 32.178 14.165 51.026 0 0.001 0 0.002 0 0.003v0c-0.073 54.757-44.443 99.127-99.193 99.2h-45.447c-5.538 0-10.027 4.489-10.027 10.027s4.489 10.027 10.027 10.027h45.44c65.824-0.073 119.162-53.426 119.211-119.249v-0.005c0-21.632-5.888-42.837-17.067-61.355-1.777-2.906-4.932-4.817-8.533-4.821h-0.001z" />
<glyph unicode="&#xe91c;" d="M747.221 373.205c-14.282 27.554-42.585 46.057-75.21 46.057-10.146 0-19.874-1.79-28.886-5.070l0.587 0.187c-20.703 21.402-49.682 34.688-81.763 34.688-0.025 0-0.050 0-0.075 0h0.004c-49.475-0.074-91.578-31.559-107.44-75.576l-0.251-0.797c-33.88-13.108-58.477-43.233-63.472-79.608l-0.058-0.52h302.123v0.555h21.547c33.024 0 64.597 6.4 93.611 17.92-9.966 28.992-32.040 51.541-60.022 61.94l-0.693 0.225zM812.331 154.197v-184.533h-93.013l-87.509 126.080c-11.845 16.8-21.691 36.165-28.563 56.887l-0.45 1.566h209.493z" />
<glyph unicode="&#xe91d;" d="M692.821 293.12v-0.555h-89.344c3.413 10.411 7.68 20.651 12.715 30.592 37.12 73.301 108.117 118.315 189.867 120.405l6.272 0.085c0.492 0.004 1.073 0.006 1.655 0.006 42.423 0 82.010-12.14 115.478-33.135l-0.908 0.532c-45.705-71.299-124.522-117.884-214.223-117.931h-21.511z" />
<glyph unicode="&#xe91e;" d="M812.331-40.363h-505.899c-145.615 0.146-263.619 118.15-263.765 263.751v0.014c0.17 145.567 118.117 263.529 263.662 263.723h18.45c0.907 0.324 1.953 0.512 3.044 0.512 0.010 0 0.020 0 0.030 0h386.43c32.688 0.049 59.173 26.534 59.221 59.217v0.005c-0.073 32.669-26.549 59.13-59.217 59.179h-654.981c-5.538 0-10.027 4.489-10.027 10.027s4.489 10.027 10.027 10.027h655.019c42.626-1.443 76.632-36.345 76.632-79.189s-34.007-77.746-76.5-79.186l-0.132-0.004h-383.275c-0.936-0.375-2.021-0.594-3.156-0.597h-21.463c-134.558-0.121-243.609-109.157-243.755-243.698v-0.014c0.146-134.563 109.191-243.609 243.741-243.755h495.929v164.565h-495.915c-43.715 0.049-79.141 35.474-79.189 79.185v0.005c0 43.691 35.499 79.232 79.189 79.232h383.275c0.92 0.325 1.981 0.512 3.086 0.512 0.010 0 0.020 0 0.030 0h21.502c134.554 0.17 243.585 109.201 243.755 243.739v0.016c-0.17 134.554-109.201 243.585-243.739 243.755h-655.035c-0.277-0.027-0.599-0.043-0.924-0.043-5.538 0-10.027 4.489-10.027 10.027s4.489 10.027 10.027 10.027c0.325 0 0.647-0.015 0.964-0.046l-0.040 0.003h655.019c145.548-0.194 263.486-118.131 263.68-263.661v-0.019c-0.146-145.585-118.102-263.571-263.661-263.765h-18.451c-0.869-0.352-1.878-0.556-2.934-0.556-0.049 0-0.097 0-0.145 0.001h-386.382c-32.688-0.049-59.173-26.534-59.221-59.217v-0.005c0.073-32.669 26.549-59.13 59.217-59.179h505.904c5.504 0 9.941-4.48 9.941-9.984v-184.576c0-0.013 0-0.028 0-0.043 0-5.49-4.451-9.941-9.941-9.941 0 0 0 0 0 0v0z" />
<glyph unicode="&#xe91f;" d="M173.227 375.125c-0.009 0-0.019 0-0.030 0-5.514 0-9.984 4.47-9.984 9.984 0 3.104 1.417 5.878 3.639 7.709l0.017 0.014c4.864 4.011 9.899 7.808 15.061 11.435 1.563 1.054 3.488 1.683 5.561 1.683 5.538 0 10.027-4.489 10.027-10.027 0-3.331-1.624-6.283-4.124-8.106l-0.029-0.020c-5.32-3.69-9.809-7.095-14.156-10.667l0.374 0.299c-1.695-1.433-3.904-2.304-6.318-2.304-0.014 0-0.028 0-0.042 0h0.002zM599.296 3.797h-292.907c-121.226 0.146-219.46 98.379-219.605 219.592v0.014c0 42.581 12.245 83.925 35.499 119.552 1.813 2.753 4.889 4.545 8.384 4.545 5.526 0 10.006-4.48 10.006-10.006 0-2.031-0.605-3.921-1.645-5.499l0.023 0.038c-20.218-30.554-32.256-68.059-32.256-108.374 0-0.090 0-0.179 0-0.269v0.014c0.121-110.184 89.41-199.473 199.583-199.595h292.919c5.538 0 10.027-4.489 10.027-10.027s-4.489-10.027-10.027-10.027v0z" />
<glyph unicode="&#xe920;" d="M391.851 880.427h-13.995c-11.781-0.534-21.13-10.215-21.13-22.080s9.349-21.546 21.083-22.078l0.048-0.002h13.995c11.781 0.534 21.13 10.215 21.13 22.080s-9.349 21.546-21.083 22.078l-0.048 0.002z" />
<glyph unicode="&#xe921;" d="M377.856 870.4c-6.353-0.39-11.357-5.637-11.357-12.053s5.005-11.664 11.323-12.052l0.034-0.002h13.995c6.659 0.024 12.051 5.416 12.075 12.072v0.002c-0.024 6.659-5.416 12.051-12.072 12.075h-13.997zM391.851 826.283h-13.995c-17.017 0.905-30.473 14.924-30.473 32.085s13.456 31.18 30.393 32.082l0.080 0.003h13.995c17.017-0.905 30.473-14.924 30.473-32.085s-13.456-31.18-30.393-32.082l-0.080-0.003z" />
<glyph unicode="&#xe922;" d="M484.821 732.416c-0.012-29.564-23.981-53.525-53.547-53.525-29.573 0-53.547 23.974-53.547 53.547 0 0.007 0 0.015 0 0.022v-0.001c0.012 29.564 23.981 53.525 53.547 53.525 29.573 0 53.547-23.974 53.547-53.547 0-0.007 0-0.015 0-0.022v0.001z" />
<glyph unicode="&#xe923;" d="M431.317 775.936c-23.979 0-43.52-19.541-43.52-43.52s19.541-43.52 43.52-43.52 43.52 19.541 43.52 43.52-19.541 43.52-43.52 43.52zM431.317 668.928c0 0 0 0 0 0-35.081 0-63.525 28.414-63.573 63.483v0.005c1.568 33.862 29.402 60.721 63.509 60.721s61.942-26.86 63.504-60.581l0.005-0.141c0-35.029-28.416-63.488-63.445-63.488z" />
<glyph unicode="&#xe924;" d="M56.064 732.416h454.613c12.56 0 22.741 10.182 22.741 22.741v0 29.525c0 28.501-23.083 51.584-51.627 51.584h-96.939l-86.443 86.443c-16.832 16.87-40.105 27.307-65.816 27.307-0.021 0-0.043 0-0.064 0h-176.466z" />
<glyph unicode="&#xe925;" d="M56.064 834.475h140.331v115.541h-140.331z" />
<glyph unicode="&#xe926;" d="M384.853 836.267l-86.443 86.443c-16.838 16.87-40.117 27.307-65.834 27.307 0 0 0 0-0.001 0h-176.512l87.040-87.040c17.067-17.067 40.192-26.709 64.341-26.709h177.408z" />
<glyph unicode="&#xe927;" d="M288.213 866.304c-2.76 0.002-5.261 1.109-7.084 2.903l-18.132 18.132c-7.745 7.826-18.487 12.672-30.362 12.672-0.036 0-0.072 0-0.108 0h-41.295c-0.277-0.027-0.599-0.043-0.924-0.043-5.538 0-10.027 4.489-10.027 10.027s4.489 10.027 10.027 10.027c0.325 0 0.647-0.015 0.964-0.046l-0.040 0.003h41.301c16.896 0 32.725-6.571 44.672-18.475l18.133-18.133c1.8-1.818 2.912-4.321 2.912-7.083s-1.112-5.264-2.913-7.084l0.001 0.001c-1.83-1.794-4.339-2.901-7.107-2.901-0.007 0-0.013 0-0.020 0h0.001zM158.72 899.968h-6.101c-5.538 0-10.027 4.489-10.027 10.027s4.489 10.027 10.027 10.027v0h6.101c5.547 0 9.984-4.523 9.984-10.069 0-5.514-4.47-9.984-9.984-9.984v0z" />
<glyph unicode="&#xe928;" d="M80.213 939.989l70.016-69.973c15.275-15.36 35.627-23.765 57.216-23.765h153.216l-69.376 69.376c-14.945 15.048-35.647 24.363-58.524 24.363-0.080 0-0.16 0-0.24 0h-152.308zM384.853 826.24h-177.451c-0.068 0-0.148 0-0.229 0-27.804 0-52.969 11.303-71.149 29.565l-0.004 0.004-86.955 87.125c-1.785 1.809-2.887 4.296-2.887 7.040 0 5.518 4.457 9.994 9.967 10.026h176.387c27.563 0 53.419-10.752 72.96-30.208l86.4-86.485c1.785-1.809 2.887-4.296 2.887-7.040 0-5.518-4.457-9.994-9.967-10.026h-0.003z" />
<glyph unicode="&#xe929;" d="M510.72 722.432h-454.699c0 0 0 0 0 0-5.523 0-10.002 4.465-10.027 9.982v0.002c0 5.547 4.523 10.027 10.027 10.027h454.699c0 0 0 0 0 0 7.054 0 12.776 5.706 12.8 12.755v29.442c0 22.999-18.644 41.643-41.643 41.643v0h-97.024c-0.025 0-0.055 0-0.085 0-2.728 0-5.192 1.128-6.952 2.942l-0.002 0.002-86.528 86.4c-14.941 15.023-35.626 24.32-58.482 24.32-0.095 0-0.19 0-0.285 0h-176.454c-5.519 0.024-9.984 4.504-9.984 10.027 0 0.030 0 0.060 0 0.090v-0.005c0 5.504 4.523 9.984 10.027 9.984h176.427c0.1 0 0.218 0.001 0.337 0.001 28.384 0 54.071-11.549 72.618-30.204l83.461-83.504h92.885c33.963 0 61.653-27.648 61.653-61.611v-29.525c-0.048-18.093-14.715-32.744-32.808-32.768h-0.002z" />
<glyph unicode="&#xe92a;" d="M473.984 732.416h-99.2c-12.56 0-22.741 10.182-22.741 22.741v0 29.525c0 28.501 23.040 51.584 51.584 51.584h78.251c28.501 0 51.584-23.083 51.584-51.584v-29.525c-0.024-12.565-10.216-22.741-22.784-22.741 0 0 0 0 0 0h-36.693z" />
<glyph unicode="&#xe92b;" d="M403.627 826.283c-22.984 0-41.618-18.62-41.643-41.598v-29.527c0.048-7.032 5.76-12.715 12.8-12.715 0 0 0 0 0 0h135.893c0.013 0 0.028 0 0.043 0 7.031 0 12.733 5.687 12.757 12.712v29.485c-0.024 22.98-18.659 41.6-41.643 41.6h-78.208zM510.72 722.432h-135.979c-18.055 0.024-32.683 14.667-32.683 32.725v0 29.483c0 33.963 27.605 61.611 61.568 61.611h78.251c33.963 0 61.611-27.648 61.611-61.611v-29.525c-0.024-18.079-14.686-32.725-32.768-32.725v0z" />
<glyph unicode="&#xe92c;" d="M315.563 732.416c-0.012-29.564-23.981-53.525-53.547-53.525-29.573 0-53.547 23.974-53.547 53.547 0 0.007 0 0.015 0 0.022v-0.001c0.012 29.564 23.981 53.525 53.547 53.525 29.573 0 53.547-23.974 53.547-53.547 0-0.007 0-0.015 0-0.022v0.001z" />
<glyph unicode="&#xe92d;" d="M262.059 775.936c-23.979 0-43.52-19.541-43.52-43.52s19.541-43.52 43.52-43.52 43.52 19.541 43.52 43.52-19.541 43.52-43.52 43.52zM262.059 668.928c-33.862 1.568-60.721 29.402-60.721 63.509s26.86 61.942 60.581 63.504l0.141 0.005c34.372-0.919 61.884-29.001 61.884-63.509s-27.513-62.59-61.8-63.508l-0.085-0.002z" />
<glyph unicode="&#xe92e;" d="M278.741 732.416c0-9.214-7.469-16.683-16.683-16.683s-16.683 7.469-16.683 16.683v0c0 9.214 7.469 16.683 16.683 16.683s16.683-7.469 16.683-16.683v0zM450.005 766.635h-14.592c0 0 0 0 0 0-5.49 0-9.941 4.451-9.941 9.941 0 0.015 0 0.030 0 0.045v-0.002c0 5.547 4.437 10.027 9.941 10.027h14.592c5.547 0 9.941-4.48 9.941-10.027 0-0.013 0-0.028 0-0.043 0-5.49-4.451-9.941-9.941-9.941 0 0 0 0 0 0v0zM397.568 722.432c-5.514 0-9.984 4.47-9.984 9.984v0 21.589c-0.024 6.965-5.664 12.605-12.627 12.629h-22.957c-5.538 0-10.027 4.489-10.027 10.027v0c0 5.504 4.523 9.984 10.027 9.984h22.912c18.005 0 32.597-14.635 32.597-32.64v-21.589c0-5.514-4.47-9.984-9.984-9.984v0zM487.893 722.432c-5.514 0-9.984 4.47-9.984 9.984v0 21.589c0 18.005 14.592 32.64 32.597 32.64h22.912c5.547 0 10.069-4.48 10.069-9.984 0-5.547-4.523-10.027-10.069-10.027h-22.912c-6.965-0.024-12.605-5.664-12.629-12.627v-21.591c0-5.514-4.47-9.984-9.984-9.984v0z" />
<glyph unicode="&#xe92f;" d="M153.045 880.427h-13.952c-11.781-0.534-21.13-10.215-21.13-22.080s9.349-21.546 21.083-22.078l0.048-0.002h13.952c0.29-0.014 0.629-0.021 0.971-0.021 12.206 0 22.101 9.895 22.101 22.101s-9.895 22.101-22.101 22.101c-0.341 0-0.681-0.008-1.019-0.023l0.048 0.002z" />
<glyph unicode="&#xe930;" d="M139.093 870.4c0 0 0 0 0 0-6.662 0-12.069-5.377-12.117-12.027v-0.005c0-6.656 5.461-12.075 12.075-12.075h13.995c6.669 0 12.075 5.406 12.075 12.075s-5.406 12.075-12.075 12.075h-13.952zM153.045 826.283h-13.952c-17.72 0-32.085 14.365-32.085 32.085s14.365 32.085 32.085 32.085v0h13.995c17.017-0.905 30.473-14.924 30.473-32.085s-13.456-31.18-30.393-32.082l-0.080-0.003z" />
<glyph unicode="&#xe931;" d="M146.048 826.283h-89.984c-5.504 0.024-9.96 4.48-9.984 9.982v0.002c0 5.547 4.523 10.027 10.027 10.027h90.027c5.538 0 10.027-4.489 10.027-10.027s-4.489-10.027-10.027-10.027v0zM172.117 790.613c-5.514 0-9.984 4.47-9.984 9.984v0 35.669c-0.027 0.277-0.043 0.599-0.043 0.924 0 5.538 4.489 10.027 10.027 10.027s10.027-4.489 10.027-10.027c0-0.325-0.015-0.647-0.046-0.964l0.003 0.040v-35.669c0-5.514-4.47-9.984-9.984-9.984v0zM172.117 730.24c-5.514 0-9.984 4.47-9.984 9.984v0 26.197c0 5.514 4.47 9.984 9.984 9.984s9.984-4.47 9.984-9.984v0-26.197c0-5.514-4.47-9.984-9.984-9.984v0z" />
<glyph unicode="&#xe932;" d="M59.307 790.613h-3.243c0 0 0 0 0 0-5.523 0-10.002 4.465-10.027 9.982v0.002c0 5.547 4.523 10.027 10.027 10.027h3.2c5.547 0 9.941-4.48 9.941-10.027 0-0.013 0-0.028 0-0.043 0-5.49-4.451-9.941-9.941-9.941 0 0 0 0 0 0v0zM137.515 790.613h-40.192c0 0 0 0 0 0-5.523 0-10.002 4.465-10.027 9.982v0.002c0 5.547 4.523 10.027 10.027 10.027h40.192c5.538 0 10.027-4.489 10.027-10.027s-4.489-10.027-10.027-10.027v0zM743.552 224.085c0 0.006 0 0.014 0 0.021 0 37.962 30.774 68.736 68.736 68.736 37.954 0 68.724-30.762 68.736-68.713v-0.001c0-37.962-30.774-68.736-68.736-68.736s-68.736 30.774-68.736 68.736v0zM684.843 132.565l105.088-151.253c4.978-7.14 13.15-11.754 22.4-11.754s17.422 4.614 22.342 11.665l0.058 0.089 105.045 151.253c70.699 101.845 1.067 243.2-122.88 246.357l-4.608 0.043h-4.608c-123.904-3.2-193.579-144.555-122.837-246.4z" />
<glyph unicode="&#xe933;" d="M807.68 378.923v0zM807.936 368.939c-54.712-1.117-101.758-32.845-124.81-78.709l-0.374-0.821c-10.317-19.491-16.373-42.607-16.373-67.137 0-31.468 9.967-60.609 26.916-84.437l-0.303 0.449 105.088-151.253c3.184-4.47 8.349-7.351 14.187-7.351s11.002 2.88 14.151 7.298l0.036 0.053 105.088 151.253c16.661 23.386 26.638 52.539 26.638 84.023 0 24.517-6.050 47.62-16.738 67.899l0.383-0.797c-23.426 46.686-70.472 78.413-125.036 79.528l-0.148 0.002-4.352 0.043h-4.352zM812.288-40.405c-0.020 0-0.044 0-0.068 0-12.588 0-23.71 6.281-30.402 15.879l-0.080 0.121-105.088 151.296c-18.954 26.548-30.305 59.659-30.305 95.42 0 27.821 6.87 54.037 19.005 77.045l-0.434-0.902c27.947 55.083 81.237 88.917 142.507 90.453l4.864 0.085 4.864-0.085c61.312-1.536 114.603-35.371 142.549-90.453 11.676-22.099 18.53-48.301 18.53-76.104 0-35.754-11.335-68.861-30.607-95.923l0.343 0.508-105.088-151.339c-6.816-9.722-17.971-16-30.592-16v0z" />
<glyph unicode="&#xe934;" d="M812.331 282.837c-32.427 0-58.752-26.368-58.752-58.752 0-32.448 26.304-58.752 58.752-58.752s58.752 26.304 58.752 58.752c0 32.448-26.304 58.752-58.752 58.752v0zM812.331 145.365c-43.475 0.024-78.714 35.249-78.763 78.715v0.005c0 43.435 35.328 78.763 78.763 78.763 43.392 0 78.763-35.328 78.763-78.763-0.073-43.462-35.298-78.672-78.758-78.72h-0.005z" />
<glyph unicode="&#xe935;" d="M837.76 323.157c-0.787 0.001-1.552 0.094-2.286 0.27l0.067-0.014c-5.508 1.298-11.911 2.156-18.474 2.385l-0.171 0.005c-5.464 0.096-9.857 4.548-9.857 10.027 0 5.538 4.49 10.028 10.028 10.028 0.060 0 0.12-0.001 0.18-0.002h0.332c7.552-0.341 15.104-1.28 22.4-2.944 4.566-0.981 7.938-4.983 7.938-9.772 0-5.514-4.47-9.984-9.984-9.984-0.061 0-0.121 0.001-0.182 0.002h0.009zM904.363 147.2c-0.027 0-0.058 0-0.090 0-5.49 0-9.941 4.451-9.941 9.941 0 2.16 0.689 4.16 1.859 5.79l-0.020-0.030c11.781 16.551 18.835 37.179 18.835 59.454 0 17.392-4.3 33.78-11.895 48.159l0.271-0.563c-5.945 11.656-13.526 21.581-22.583 29.928l-0.073 0.066c-2.017 1.836-3.278 4.472-3.278 7.403 0 5.522 4.476 9.998 9.998 9.998 2.591 0 4.952-0.986 6.728-2.602l-0.008 0.007c11.051-10.027 20.139-22.059 27.051-35.755 8.703-16.438 13.812-35.934 13.812-56.623 0-26.554-8.417-51.143-22.729-71.243l0.255 0.377c-1.808-2.617-4.791-4.309-8.17-4.309-0.008 0-0.016 0-0.024 0h0.001z" />
<glyph unicode="&#xe936;" d="M489.387 334.933c-0.458 0.014-0.997 0.021-1.538 0.021-30.61 0-55.424-24.814-55.424-55.424s24.814-55.424 55.424-55.424c0.541 0 1.080 0.008 1.616 0.023l-0.079-0.002h224.085c30.61 0 55.424 24.814 55.424 55.424s-24.814 55.424-55.424 55.424v0h-1.195c-0.727 21.65-18.453 38.925-40.213 38.925s-39.486-17.274-40.212-38.858l-0.002-0.066c-0.966 37.895-31.914 68.246-69.952 68.246s-68.987-30.351-69.95-68.156l-0.002-0.089h-2.56z" />
<glyph unicode="&#xe937;" d="M489.387 324.949c-25.096 0-45.44-20.344-45.44-45.44s20.344-45.44 45.44-45.44h224.085c24.257 1.084 43.513 21.013 43.513 45.44s-19.256 44.356-43.416 45.437l-0.097 0.003c-5.504 0-11.221 4.48-11.221 9.984 0 16.683-13.525 30.208-30.208 30.208s-30.208-13.525-30.208-30.208v0c0-5.514-4.47-9.984-9.984-9.984v0c0 0 0 0 0 0-5.523 0-10.002 4.465-10.027 9.982v0.002c0 33.067-26.88 59.989-59.947 59.989s-59.947-26.88-59.947-59.989c-0.024-5.504-4.48-9.96-9.982-9.984h-2.562zM713.472 214.059h-224.085c-36.128 0.049-65.402 29.323-65.451 65.446v0.005c0 33.792 25.728 61.653 58.624 65.067 5.060 39.753 38.674 70.176 79.395 70.176 32.012 0 59.632-18.802 72.42-45.965l0.207-0.488c9.233 10.354 22.611 16.843 37.504 16.843 24.373 0 44.687-17.377 49.228-40.418l0.052-0.318c32.55-4.085 57.495-31.54 57.6-64.842v-0.011c0-36.139-29.355-65.493-65.451-65.493z" />
<glyph unicode="&#xe938;" d="M516.565 281.856h-27.221c-5.514 0-9.984 4.47-9.984 9.984v0c0 5.547 4.437 10.027 9.984 10.027h27.221c4.666 0 8.448 3.782 8.448 8.448v0 23.851c0 0.060-0.001 0.13-0.001 0.2 0 19.233 14.461 35.089 33.104 37.287l0.177 0.017c1.007 0.096 2.176 0.151 3.359 0.151 9.666 0 18.478-3.652 25.133-9.652l-0.033 0.030c7.374-6.778 11.991-16.457 12.032-27.214v-0.007c0-5.538-4.489-10.027-10.027-10.027s-10.027 4.489-10.027 10.027v0c-0.002 9.307-7.547 16.85-16.853 16.85-0.586 0-1.165-0.030-1.736-0.088l0.072 0.006c-8.533-0.811-15.189-8.533-15.189-17.579v-23.851c0-15.717-12.741-28.459-28.459-28.459v0z" />
<glyph unicode="&#xe939;" d="M489.387 214.101h-68.267c-0.196-0.014-0.424-0.021-0.654-0.021-5.538 0-10.027 4.489-10.027 10.027s4.489 10.027 10.027 10.027c0.23 0 0.458-0.008 0.684-0.023l-0.031 0.002h68.181c5.538 0 10.027-4.489 10.027-10.027s-4.489-10.027-10.027-10.027v0zM389.376 214.101h-4.096c-5.514 0-9.984 4.47-9.984 9.984v0c0 5.547 4.437 10.027 9.984 10.027h4.096c5.547 0 9.941-4.48 9.941-10.027 0-0.013 0-0.028 0-0.043 0-5.49-4.451-9.941-9.941-9.941 0 0 0 0 0 0v0zM262.059 668.928h-81.579c-0.196-0.014-0.424-0.021-0.654-0.021-5.538 0-10.027 4.489-10.027 10.027s4.489 10.027 10.027 10.027c0.23 0 0.458-0.008 0.684-0.023l-0.031 0.002h81.579c5.547 0 9.984-4.48 9.984-10.027 0-5.514-4.47-9.984-9.984-9.984v0zM143.573 668.928h-6.059c-5.526 0-10.005 4.48-10.005 10.005s4.48 10.005 10.005 10.005h6.059c5.538 0 10.027-4.489 10.027-10.027s-4.489-10.027-10.027-10.027v0zM431.317 668.928h-59.691c-0.196-0.014-0.424-0.021-0.654-0.021-5.538 0-10.027 4.489-10.027 10.027s4.489 10.027 10.027 10.027c0.23 0 0.458-0.008 0.684-0.023l-0.031 0.002h59.648c5.547 0 9.984-4.48 9.984-10.027 0-5.514-4.47-9.984-9.984-9.984v0zM336.939 668.928h-3.968c-0.196-0.014-0.424-0.021-0.654-0.021-5.538 0-10.027 4.489-10.027 10.027s4.489 10.027 10.027 10.027c0.23 0 0.458-0.008 0.684-0.023l-0.031 0.002h3.968c5.547 0 9.984-4.48 9.984-10.027 0-5.514-4.47-9.984-9.984-9.984v0z" />
<glyph unicode="&#xe93a;" d="M10.027 385.835h980.309v147.968h-980.309z" />
<glyph unicode="&#xe93b;" d="M74.069 483.755h-24.021c0 0 0 0 0 0-5.523 0-10.002 4.465-10.027 9.982v0.002c0 5.547 4.523 10.027 10.027 10.027h24.021c5.504 0 9.941-4.48 9.941-10.027 0-0.013 0-0.028 0-0.043 0-5.49-4.451-9.941-9.941-9.941 0 0 0 0 0 0v0zM342.187 483.755h-212.181c-5.538 0-10.027 4.489-10.027 10.027s4.489 10.027 10.027 10.027v0h212.181c5.547 0 9.941-4.523 9.941-10.069 0-0.013 0-0.028 0-0.043 0-5.49-4.451-9.941-9.941-9.941 0 0 0 0 0 0v0zM950.357 483.755h-550.869c-5.538 0-10.027 4.489-10.027 10.027s4.489 10.027 10.027 10.027h550.827c5.538 0 10.027-4.489 10.027-10.027s-4.489-10.027-10.027-10.027v0z" />
<glyph unicode="&#xe93c;" d="M990.336 523.776h-980.352c-5.538 0-10.027 4.489-10.027 10.027s4.489 10.027 10.027 10.027h980.352c5.538 0 10.027-4.489 10.027-10.027s-4.489-10.027-10.027-10.027v0zM990.336 375.893h-980.352c-5.126 0.488-9.103 4.772-9.103 9.984s3.977 9.496 9.062 9.981l0.040 0.003h980.352c5.249-0.353 9.373-4.698 9.373-10.005s-4.124-9.652-9.342-10.004l-0.031-0.002z" />
<glyph unicode="&#xe93d;" d="M10.027-30.379h980.352v416.213h-980.352z" />
<glyph unicode="&#xe93e;" d="M990.336-40.363h-980.352c-5.504 0.024-9.96 4.48-9.984 9.982v0.002c0 5.547 4.523 10.027 10.027 10.027h980.352c5.249-0.353 9.373-4.698 9.373-10.005s-4.124-9.652-9.342-10.004l-0.031-0.002zM137.003 172.971h-127.019c-5.504 0.024-9.96 4.48-9.984 9.982v0.002c0 5.547 4.523 10.027 10.027 10.027h127.019c5.249-0.353 9.373-4.698 9.373-10.005s-4.124-9.652-9.342-10.004l-0.031-0.002zM350.336 172.971h-127.019c-5.504 0.024-9.96 4.48-9.984 9.982v0.002c0 5.547 4.523 10.027 10.027 10.027h127.019c5.249-0.353 9.373-4.698 9.373-10.005s-4.124-9.652-9.342-10.004l-0.031-0.002zM563.669 172.971h-127.019c0 0 0 0 0 0-5.523 0-10.002 4.465-10.027 9.982v0.002c0 5.547 4.523 10.027 10.027 10.027h127.019c5.249-0.353 9.373-4.698 9.373-10.005s-4.124-9.652-9.342-10.004l-0.031-0.002zM777.003 172.971h-127.019c0 0 0 0 0 0-5.523 0-10.002 4.465-10.027 9.982v0.002c0 5.547 4.523 10.027 10.027 10.027h127.019c5.249-0.353 9.373-4.698 9.373-10.005s-4.124-9.652-9.342-10.004l-0.031-0.002zM990.336 172.971h-127.019c0 0 0 0 0 0-5.523 0-10.002 4.465-10.027 9.982v0.002c0 5.547 4.523 10.027 10.027 10.027h127.019c5.249-0.353 9.373-4.698 9.373-10.005s-4.124-9.652-9.342-10.004l-0.031-0.002zM990.336 375.893h-980.352c-5.475 0.024-9.912 4.431-9.984 9.892v0.007c0 5.547 4.523 10.027 10.027 10.027h980.352c5.249-0.353 9.373-4.698 9.373-10.005s-4.124-9.652-9.342-10.004l-0.031-0.002z" />
<glyph unicode="&#xe93f;" d="M500.181 759.808c-32.283 0-58.453 26.17-58.453 58.453s26.17 58.453 58.453 58.453v0c32.283 0 58.453-26.17 58.453-58.453s-26.17-58.453-58.453-58.453v0zM504.107 949.973h-7.851c-105.387-2.688-164.608-122.923-104.448-209.493l89.344-128.64c4.24-6.048 11.178-9.953 19.029-9.953s14.79 3.905 18.98 9.879l0.049 0.074 89.344 128.64c60.16 86.571 0.939 206.805-104.448 209.493z" />
<glyph unicode="&#xe940;" d="M500.181 866.688c-26.709 0-48.469-21.76-48.469-48.427 1.121-25.903 22.392-46.478 48.469-46.478s47.348 20.575 48.466 46.377l0.003 0.101c0 26.709-21.76 48.427-48.469 48.427zM500.181 749.781c-37.82 0-68.48 30.66-68.48 68.48s30.66 68.48 68.48 68.48v0c37.078-0.955 66.771-31.239 66.771-68.459s-29.693-67.504-66.682-68.457l-0.088-0.002z" />
<glyph unicode="&#xe941;" d="M424.277 843.179c0 23.467-9.387 44.885-24.533 60.587-31.019-36.779-41.813-89.856-21.973-137.728 27.855 14.954 46.481 43.869 46.507 77.138v0.003z" />
<glyph unicode="&#xe942;" d="M806.101 705.963c1.163 3.469 1.835 7.463 1.835 11.614 0 20.807-16.868 37.675-37.675 37.675s-37.675-16.868-37.675-37.675c0-4.151 0.671-8.145 1.911-11.88l-0.077 0.266c-17.036-3.851-29.566-18.858-29.566-36.792 0-20.807 16.868-37.675 37.675-37.675 10.958 0 20.824 4.678 27.708 12.147l0.024 0.026c6.891-7.532 16.763-12.238 27.734-12.238 20.736 0 37.547 16.81 37.547 37.547 0 0.102 0 0.204-0.001 0.307v-0.016c-0.001 17.871-12.473 32.829-29.188 36.645l-0.252 0.048z" />
<glyph unicode="&#xe943;" d="M936.704 705.963c1.136 3.428 1.792 7.375 1.792 11.474 0 20.784-16.848 37.632-37.632 37.632s-37.632-16.848-37.632-37.632c0-4.1 0.656-8.046 1.868-11.74l-0.076 0.266c-17.036-3.851-29.566-18.858-29.566-36.792 0-20.807 16.868-37.675 37.675-37.675 10.958 0 20.824 4.678 27.708 12.147l0.024 0.026c6.888-7.504 16.742-12.19 27.691-12.19 20.736 0 37.547 16.81 37.547 37.547 0 0.086 0 0.171-0.001 0.257v-0.013c-0.018 17.865-12.482 32.814-29.187 36.645l-0.253 0.049z" />
<glyph unicode="&#xe944;" d="M770.261 653.653c2.816 0 5.547-1.152 7.381-3.2 5.067-5.478 12.293-8.897 20.317-8.897 15.27 0 27.648 12.378 27.648 27.648 0 13.14-9.167 24.139-21.454 26.952l-0.186 0.036c-4.525 1.012-7.857 4.994-7.857 9.755 0 1.088 0.174 2.135 0.496 3.116l-0.020-0.071c0.836 2.524 1.318 5.43 1.318 8.448 0 15.285-12.365 27.682-27.639 27.733h-0.005c-15.28-0.018-27.659-12.409-27.659-27.691 0-3.034 0.488-5.954 1.39-8.686l-0.056 0.196c0.303-0.912 0.479-1.963 0.479-3.054 0-4.746-3.312-8.719-7.75-9.733l-0.067-0.013c-12.558-2.802-21.806-13.85-21.806-27.058 0-15.293 12.398-27.691 27.691-27.691 8.084 0 15.359 3.464 20.422 8.989l0.019 0.021c1.84 1.962 4.445 3.188 7.336 3.2h0.002zM797.909 621.568c-9.941 0-19.627 3.157-27.648 8.832-5.658-2.556-12.267-4.045-19.224-4.045-26.345 0-47.701 21.357-47.701 47.701 0 15.764 7.647 29.742 19.434 38.428l0.131 0.092c-0.204 1.656-0.32 3.572-0.32 5.516 0 26.345 21.357 47.701 47.701 47.701s47.701-21.357 47.701-47.701c0-1.944-0.116-3.86-0.342-5.743l0.022 0.227c16.491-7.747 27.704-24.218 27.704-43.307 0-26.259-21.218-47.563-47.445-47.701h-0.013z" />
<glyph unicode="&#xe945;" d="M900.864 653.653c2.731 0 5.419-1.152 7.339-3.2 5.081-5.546 12.356-9.010 20.44-9.010 15.293 0 27.691 12.398 27.691 27.691 0 13.208-9.247 24.256-21.621 27.023l-0.185 0.035c-4.502 1.049-7.805 5.028-7.805 9.777 0 1.080 0.171 2.119 0.486 3.093l-0.020-0.071c0.826 2.512 1.302 5.403 1.302 8.406 0 15.288-12.351 27.691-27.62 27.776h-0.008c-15.278-0.051-27.643-12.448-27.643-27.733 0-3.018 0.482-5.924 1.374-8.644l-0.056 0.196c0.292-0.904 0.461-1.945 0.461-3.025 0-1.837-0.488-3.559-1.34-5.046l0.026 0.049c-1.414-2.396-3.725-4.136-6.46-4.765l-0.068-0.013c-12.473-2.848-21.64-13.847-21.64-26.987 0-15.27 12.378-27.648 27.648-27.648 8.024 0 15.25 3.418 20.301 8.878l0.017 0.018c1.853 1.968 4.473 3.195 7.38 3.2h0.001zM928.469 621.568c-10.354 0.016-19.932 3.323-27.749 8.93l0.143-0.098c-7.674-5.503-17.255-8.799-27.605-8.799-26.318 0-47.658 21.314-47.701 47.622v0.004c0 18.773 11.307 35.712 27.904 43.349-0.214 1.697-0.336 3.661-0.336 5.653 0 26.345 21.357 47.701 47.701 47.701s47.701-21.357 47.701-47.701c0-0.247-0.002-0.494-0.006-0.741v0.037c0-1.664-0.128-3.328-0.299-4.949 16.491-7.747 27.704-24.218 27.704-43.307 0-26.259-21.218-47.563-47.445-47.701h-0.013zM770.261 523.776c-5.514 0-9.984 4.47-9.984 9.984v0 109.909c0 5.538 4.489 10.027 10.027 10.027s10.027-4.489 10.027-10.027v0-109.909c-0.024-5.519-4.504-9.984-10.027-9.984-0.015 0-0.030 0-0.045 0h0.002z" />
<glyph unicode="&#xe946;" d="M900.864 523.776c0 0 0 0 0 0-5.523 0-10.002 4.465-10.027 9.982v109.911c0.353 5.249 4.698 9.373 10.005 9.373s9.652-4.124 10.004-9.342l0.002-0.031v-109.909c0-5.514-4.47-9.984-9.984-9.984v0z" />
<glyph unicode="&#xe947;" d="M135.339 705.963c1.163 3.469 1.835 7.463 1.835 11.614 0 20.807-16.868 37.675-37.675 37.675s-37.675-16.868-37.675-37.675c0-4.151 0.671-8.145 1.911-11.88l-0.077 0.266c-17.036-3.851-29.566-18.858-29.566-36.792 0-20.807 16.868-37.675 37.675-37.675 10.958 0 20.824 4.678 27.708 12.147l0.024 0.026c6.891-7.532 16.763-12.238 27.734-12.238 20.736 0 37.547 16.81 37.547 37.547 0 0.102 0 0.204-0.001 0.307v-0.016c-0.001 17.871-12.473 32.829-29.188 36.645l-0.252 0.048z" />
<glyph unicode="&#xe948;" d="M265.941 705.963c1.136 3.428 1.792 7.375 1.792 11.474 0 20.784-16.848 37.632-37.632 37.632s-37.632-16.848-37.632-37.632c0-4.1 0.656-8.046 1.868-11.74l-0.076 0.266c-17.036-3.851-29.566-18.858-29.566-36.792 0-20.807 16.868-37.675 37.675-37.675 10.958 0 20.824 4.678 27.708 12.147l0.024 0.026c6.888-7.504 16.742-12.19 27.691-12.19 20.736 0 37.547 16.81 37.547 37.547 0 0.086 0 0.171-0.001 0.257v-0.013c-0.018 17.865-12.482 32.814-29.187 36.645l-0.253 0.049z" />
<glyph unicode="&#xe949;" d="M99.541 653.653c2.731 0 5.419-1.152 7.296-3.2 5.067-5.471 12.288-8.885 20.306-8.885 15.27 0 27.648 12.378 27.648 27.648 0 13.121-9.14 24.107-21.4 26.939l-0.186 0.036c-2.786 0.654-5.081 2.391-6.46 4.731l-0.026 0.047c-0.827 1.437-1.314 3.16-1.314 4.997 0 1.080 0.169 2.12 0.481 3.097l-0.020-0.072c0.836 2.524 1.318 5.43 1.318 8.448 0 15.285-12.365 27.682-27.639 27.733h-0.005c-0.021 0-0.045 0-0.070 0-15.27 0-27.648-12.378-27.648-27.648 0-3.050 0.494-5.985 1.406-8.729l-0.056 0.195c0.303-0.912 0.479-1.963 0.479-3.054 0-4.746-3.312-8.719-7.75-9.733l-0.067-0.013c-12.558-2.802-21.806-13.85-21.806-27.058 0-15.293 12.398-27.691 27.691-27.691 8.084 0 15.359 3.464 20.422 8.989l0.019 0.021c1.829 1.971 4.434 3.2 7.325 3.2 0.005 0 0.010 0 0.014 0h-0.001zM127.189 621.568c-10.369 0.007-19.963 3.315-27.791 8.93l0.143-0.098c-5.658-2.556-12.267-4.045-19.224-4.045-26.345 0-47.701 21.357-47.701 47.701 0 15.764 7.647 29.742 19.434 38.428l0.131 0.092c-0.204 1.656-0.32 3.572-0.32 5.516 0 26.345 21.357 47.701 47.701 47.701s47.701-21.357 47.701-47.701c0-1.944-0.116-3.86-0.342-5.743l0.022 0.227c16.555-7.637 27.904-24.576 27.904-43.349 0-26.283-21.419-47.659-47.659-47.659z" />
<glyph unicode="&#xe94a;" d="M230.101 653.653c2.731 0 5.419-1.152 7.339-3.2 5.081-5.546 12.356-9.010 20.44-9.010 15.293 0 27.691 12.398 27.691 27.691 0 13.208-9.247 24.256-21.621 27.023l-0.185 0.035c-4.502 1.049-7.805 5.028-7.805 9.777 0 1.080 0.171 2.119 0.486 3.093l-0.020-0.071c0.826 2.512 1.302 5.403 1.302 8.406 0 15.288-12.351 27.691-27.62 27.776h-0.008c-15.278-0.051-27.643-12.448-27.643-27.733 0-3.018 0.482-5.924 1.374-8.644l-0.056 0.196c0.292-0.904 0.461-1.945 0.461-3.025 0-1.837-0.488-3.559-1.34-5.046l0.026 0.049c-1.414-2.396-3.725-4.136-6.46-4.765l-0.068-0.013c-12.473-2.848-21.64-13.847-21.64-26.987 0-15.27 12.378-27.648 27.648-27.648 8.024 0 15.25 3.418 20.301 8.878l0.017 0.018c1.853 1.968 4.473 3.195 7.38 3.2h0.001zM257.664 621.568c-9.899 0-19.584 3.157-27.563 8.832-7.674-5.503-17.255-8.799-27.605-8.799-26.318 0-47.658 21.314-47.701 47.622v0.004c0 18.773 11.307 35.712 27.904 43.349-0.214 1.697-0.336 3.661-0.336 5.653 0 26.345 21.357 47.701 47.701 47.701s47.701-21.357 47.701-47.701c0-0.247-0.002-0.494-0.006-0.741v0.037c0-1.664-0.128-3.328-0.299-4.949 16.49-7.747 27.704-24.218 27.704-43.307 0-26.274-21.242-47.587-47.49-47.701h-0.011zM99.541 523.776c-0.013 0-0.028 0-0.043 0-5.514 0-9.984 4.47-9.984 9.984 0 0 0 0 0 0v0 109.909c0 5.526 4.48 10.005 10.005 10.005s10.005-4.48 10.005-10.005v0-109.909c0 0 0 0 0 0 0-5.514-4.47-9.984-9.984-9.984-0.015 0-0.030 0-0.045 0h0.002z" />
<glyph unicode="&#xe94b;" d="M230.101 523.776c0 0 0 0 0 0-5.523 0-10.002 4.465-10.027 9.982v109.911c0 5.538 4.489 10.027 10.027 10.027s10.027-4.489 10.027-10.027v0-109.909c0 0 0 0 0 0 0-5.514-4.47-9.984-9.984-9.984-0.015 0-0.030 0-0.045 0h0.002zM500.181 591.872h-92.8c-5.514 0-9.984 4.47-9.984 9.984v0c0 5.547 4.437 10.027 9.984 10.027h92.8c5.249-0.353 9.373-4.698 9.373-10.005s-4.124-9.652-9.342-10.004l-0.031-0.002zM372.907 591.872h-6.613c-0.013 0-0.028 0-0.043 0-5.523 0-10.002 4.465-10.027 9.982v0.002c0 5.547 4.523 10.027 10.069 10.027h6.613c5.547 0 9.984-4.48 9.984-10.027 0-5.514-4.47-9.984-9.984-9.984v0z" />
<glyph unicode="&#xe94c;" d="M592.981 591.872h-92.8c-5.538 0-10.027 4.489-10.027 10.027s4.489 10.027 10.027 10.027v0h92.8c5.547 0 9.984-4.523 9.984-10.069 0-5.514-4.47-9.984-9.984-9.984v0zM634.112 591.872h-6.656c0 0 0 0 0 0-5.523 0-10.002 4.465-10.027 9.982v0.002c0 5.547 4.523 10.027 10.027 10.027h6.656c0.196 0.014 0.424 0.021 0.654 0.021 5.538 0 10.027-4.489 10.027-10.027s-4.489-10.027-10.027-10.027c-0.23 0-0.458 0.008-0.684 0.023l0.031-0.002zM146.091 785.92h-60.544c-5.538 0-10.027 4.489-10.027 10.027s4.489 10.027 10.027 10.027h60.587c5.538 0 10.027-4.489 10.027-10.027s-4.489-10.027-10.027-10.027v0zM52.48 785.92h-3.499c-5.538 0-10.027 4.489-10.027 10.027s4.489 10.027 10.027 10.027h3.499c5.547 0 9.984-4.523 9.984-10.069 0-5.514-4.47-9.984-9.984-9.984v0z" />
<glyph unicode="&#xe94d;" d="M500.181 939.989h-3.584c-45.995-0.919-85.547-27.599-104.902-66.168l-0.314-0.691c-8.679-16.383-13.774-35.814-13.774-56.435 0-26.43 8.37-50.905 22.605-70.918l-0.255 0.377 89.387-128.64c2.502-3.297 6.424-5.404 10.837-5.404s8.335 2.107 10.813 5.371l0.024 0.034 89.387 128.64c13.98 19.637 22.35 44.112 22.35 70.541 0 20.621-5.095 40.052-14.096 57.102l0.321-0.668c-19.66 39.205-59.152 65.856-104.961 66.814l-0.127 0.002h-0.085l-3.584 0.043zM500.181 591.829c-11.243 0.014-21.178 5.6-27.194 14.145l-0.070 0.106-89.344 128.64c-16.276 22.805-26.023 51.244-26.023 81.96 0 23.933 5.917 46.484 16.369 66.269l-0.373-0.774c22.907 45.664 68.937 76.688 122.314 77.737l0.139 0.002 4.181 0.085 4.181-0.085c53.517-1.051 99.546-32.075 122.088-76.936l0.365-0.803c10.079-19.012 15.996-41.562 15.996-65.496 0-30.716-9.747-59.156-26.317-82.395l0.294 0.434-89.344-128.64c-6.086-8.651-16.021-14.237-27.262-14.251h-0.002z" />
<glyph unicode="&#xe94e;" d="M146.091 890.368c-26.074 0-47.211-21.137-47.211-47.211s21.137-47.211 47.211-47.211h190.976c26.074 0 47.211 21.137 47.211 47.211s-21.137 47.211-47.211 47.211h-1.067c0.014 0.36 0.021 0.784 0.021 1.209 0 18.922-15.339 34.261-34.261 34.261s-34.261-15.339-34.261-34.261c0-0.425 0.008-0.848 0.023-1.27l-0.002 0.061c0 32.919-26.686 59.605-59.605 59.605s-59.605-26.686-59.605-59.605h-2.219z" />
<glyph unicode="&#xe94f;" d="M146.091 880.384c-20.022-0.699-35.988-17.098-35.988-37.227s15.966-36.528 35.924-37.225l0.064-0.002h190.976c19.634 1.187 35.107 17.4 35.107 37.227s-15.473 36.040-35.003 37.222l-0.104 0.005c-5.504 0-11.051 4.48-11.051 9.984 0 13.384-10.85 24.235-24.235 24.235s-24.235-10.85-24.235-24.235v0c0-5.526-4.48-10.005-10.005-10.005s-10.005 4.48-10.005 10.005v0c0 27.307-22.187 49.621-49.579 49.621-27.307 0-49.621-22.272-49.621-49.621 0-5.514-4.47-9.984-9.984-9.984v0h-2.219zM337.067 785.92h-190.976c-31.583 0.024-57.186 25.597-57.259 57.166v0.007c0 29.184 21.888 53.248 50.091 56.747-4.658 9.095-7.389 19.841-7.389 31.225 0 38.48 31.194 69.675 69.675 69.675s69.675-31.194 69.675-69.675c0-3.414-0.246-6.77-0.72-10.053l0.044 0.375c8.035 8.139 19.19 13.18 31.523 13.18 21.117 0 38.782-14.78 43.216-34.559l0.056-0.295c27.916-4.061 49.132-27.782 49.237-56.48v-0.011c0-31.573-25.6-57.216-57.173-57.216z" />
<glyph unicode="&#xe950;" d="M169.301 843.648h-23.211c-5.514 0-9.984 4.47-9.984 9.984v0c0 5.547 4.437 10.069 9.984 10.069h23.211c3.115 0 5.717 2.56 5.717 5.717v20.309c0 17.195 13.013 31.872 29.739 33.365 0.947 0.097 2.046 0.152 3.157 0.152 18.161 0 32.885-14.717 32.896-32.876v-0.001c0.014-0.196 0.021-0.424 0.021-0.654 0-5.538-4.489-10.027-10.027-10.027s-10.027 4.489-10.027 10.027c0 0.23 0.008 0.458 0.023 0.684l-0.002-0.031c0 0.004 0 0.008 0 0.012 0 3.765-1.626 7.15-4.213 9.492l-0.011 0.010c-2.249 2.129-5.294 3.438-8.644 3.438-0.457 0-0.908-0.024-1.352-0.072l0.055 0.005c-6.586-0.893-11.608-6.48-11.608-13.24 0-0.1 0.001-0.2 0.003-0.3v0.015-20.309c-0.024-14.199-11.529-25.704-25.726-25.728h-0.002zM74.069-5.547h-24.021c0 0 0 0 0 0-5.523 0-10.002 4.465-10.027 9.982v0.002c0 5.547 4.523 10.027 10.027 10.027h24.021c5.504 0 9.941-4.48 9.941-10.027 0-0.013 0-0.028 0-0.043 0-5.49-4.451-9.941-9.941-9.941 0 0 0 0 0 0v0zM342.187-5.547h-212.181c-5.526 0-10.005 4.48-10.005 10.005s4.48 10.005 10.005 10.005v0h212.181c5.547 0 9.941-4.48 9.941-10.027 0-0.013 0-0.028 0-0.043 0-5.49-4.451-9.941-9.941-9.941 0 0 0 0 0 0v0zM950.357-5.547h-550.869c-0.196-0.014-0.424-0.021-0.654-0.021-5.538 0-10.027 4.489-10.027 10.027s4.489 10.027 10.027 10.027c0.23 0 0.458-0.008 0.684-0.023l-0.031 0.002h550.827c5.538 0 10.027-4.489 10.027-10.027s-4.489-10.027-10.027-10.027v0z" />
<glyph unicode="&#xe951;" d="M352.896 776.619v-108.075h0.427v-16.341c0.121-106.255 86.25-192.354 192.505-192.427h0.007l4.992 0.171h167.851c29.013 0 52.565-23.552 52.565-52.48s-23.595-52.48-52.565-52.48h-293.035v-0.427h-16.256c-106.225-0.121-192.305-86.201-192.427-192.415v-0.012c0.097-106.244 86.186-192.348 192.415-192.469h383.713l-62.976 139.947h-320.811c-28.082 1.168-50.406 24.217-50.406 52.48s22.324 51.312 50.301 52.477l0.105 0.003h293.035v0.427h16.341c106.234 0.121 192.324 86.196 192.469 192.413v0.014c-0.097 106.252-86.181 192.366-192.413 192.512h-167.95l-4.992-0.213c-28.964 0.048-52.431 23.516-52.48 52.475v0.005l-0.427 124.416z" />
<glyph unicode="&#xe952;" d="M409.344-0.341c-89.693 0.097-162.378 72.781-162.475 162.465v0.009c0.121 89.675 72.796 162.335 162.465 162.432h55.903c5.538 0 10.027-4.489 10.027-10.027s-4.489-10.027-10.027-10.027h-55.893c-78.63-0.073-142.361-63.759-142.507-142.365v-0.014c0.073-78.675 63.832-142.434 142.5-142.507h0.007c5.526 0 10.005-4.48 10.005-10.005s-4.48-10.005-10.005-10.005v0zM555.307 304.555h-36.053c-5.526 0-10.005 4.48-10.005 10.005s4.48 10.005 10.005 10.005v0h36.053c5.538 0 10.027-4.489 10.027-10.027s-4.489-10.027-10.027-10.027v0zM545.365 489.771c-40.013 0.134-76.598 14.7-104.848 38.761l0.229-0.19c-2.343 1.852-3.832 4.694-3.832 7.884 0 5.538 4.489 10.027 10.027 10.027 2.616 0 4.998-1.002 6.783-2.643l-0.007 0.007c24.454-20.891 56.394-33.661 91.312-33.835h0.037l3.84 0.128 169.813 0.043c0.196 0.014 0.424 0.021 0.654 0.021 5.538 0 10.027-4.489 10.027-10.027s-4.489-10.027-10.027-10.027c-0.23 0-0.458 0.008-0.684 0.023l0.031-0.002-173.355-0.171zM411.221 570.581c-0.002 0-0.004 0-0.006 0-3.799 0-7.097 2.14-8.757 5.279l-0.026 0.054c-1.034 1.804-2.33 4.322-3.545 6.887l-0.338 0.793c-0.421 1.066-0.665 2.3-0.665 3.591 0 5.538 4.489 10.027 10.027 10.027 3.755 0 7.028-2.064 8.746-5.119l0.026-0.050c1.024-2.261 2.133-4.48 3.371-6.699 0.752-1.37 1.195-3.001 1.195-4.736 0-5.514-4.47-9.984-9.984-9.984-0.015 0-0.030 0-0.045 0h0.002z" />
<glyph unicode="&#xe953;" d="M352.896 776.619v-105.899l5.717-8.277c14.152-20.224 37.338-33.285 63.573-33.285s49.421 13.061 63.408 33.036l0.165 0.249 7.467 10.795-0.341 103.381h-139.947zM730.069 109.611h-93.44c3.598-26.652 13.248-50.521 27.522-70.917l-0.343 0.517 48.341-69.547h80.896l-62.976 139.947zM859.563 276.48c-17.829 8.241-38.633 13.29-60.551 13.862l-4.686 0.089-4.48-0.085c-55.323-1.463-103.407-31.13-130.553-75.096l-0.391-0.68h43.435v0.427h16.384c0.043 0 0.095 0 0.146 0 55.548 0 105.585 23.6 140.629 61.32l0.11 0.12z" />
<glyph unicode="&#xe954;" d="M742.741 99.584h-333.397c-34.508 0.049-62.464 28.034-62.464 62.549 0 0 0 0 0 0v0c0 34.432 28.032 62.464 62.507 62.464h290.347c0.779 0.271 1.676 0.427 2.61 0.427 0.027 0 0.055 0 0.082 0h16.337c100.711 0.121 182.321 81.731 182.443 182.431v0.012c-0.097 100.73-81.716 182.364-182.431 182.485h-0.012l-172.587-0.213c-0.076 0-0.166-0.001-0.256-0.001-34.539 0-62.544 27.975-62.592 62.503v0.005l-0.427 124.331c0 5.547 4.48 10.027 9.984 10.069h0.085c5.461 0 9.941-4.48 9.984-9.984l0.427-124.373c0-23.467 18.987-42.539 42.411-42.539l4.693 0.171h168.277c111.763-0.121 202.332-90.69 202.453-202.442v-0.012c-0.121-111.763-90.69-202.332-202.442-202.453h-13.665c-0.772-0.271-1.663-0.427-2.59-0.427-0.034 0-0.069 0-0.103 0.001h-293.072c0 0 0 0 0 0-23.463 0-42.49-18.997-42.539-42.449v-0.005c0-23.424 19.115-42.496 42.539-42.496h333.397c5.249-0.353 9.373-4.698 9.373-10.005s-4.124-9.652-9.342-10.004l-0.031-0.002z" />
<glyph unicode="&#xe955;" d="M793.045-40.363h-383.701c-111.778 0.121-202.356 90.715-202.453 202.487v0.009c0.121 111.763 90.69 202.332 202.442 202.453h13.622c0.772 0.271 1.663 0.427 2.59 0.427 0.034 0 0.069 0 0.103-0.001h293.072c22.883 0.748 41.15 19.478 41.15 42.475s-18.266 41.727-41.081 42.473l-0.068 0.002-172.587-0.171c-0.025 0-0.055 0-0.086 0-111.872 0-202.582 90.605-202.752 202.437v13.669c-0.257 0.788-0.412 1.696-0.427 2.638v108.040c0 5.538 4.489 10.027 10.027 10.027s10.027-4.489 10.027-10.027v-105.387c0.256-0.853 0.427-1.707 0.427-2.688v-16.299c0.097-100.706 81.697-182.321 182.388-182.443h0.012l4.651 0.171h168.32c34.432 0 62.507-28.032 62.507-62.464 0-34.475-28.075-62.507-62.507-62.507h-290.389c-0.764-0.271-1.645-0.428-2.563-0.428-0.044 0-0.088 0-0.132 0.001h-16.292c-100.715-0.097-182.34-81.692-182.485-182.386v-0.014c0.121-100.726 81.756-182.346 182.476-182.443h383.711c5.249-0.353 9.373-4.698 9.373-10.005s-4.124-9.652-9.342-10.004l-0.031-0.002z" />
<glyph unicode="&#xe956;" d="M422.187 807.509c-24.153 0-43.733 19.58-43.733 43.733s19.58 43.733 43.733 43.733v0c24.153 0 43.733-19.58 43.733-43.733s-19.58-43.733-43.733-43.733v0zM425.131 949.931l-2.987 0.043h-2.859c-78.976-2.048-123.307-92.075-78.251-156.928l66.859-96.384c3.188-4.523 8.389-7.441 14.272-7.441s11.084 2.918 14.235 7.386l0.037 0.055 66.901 96.427c45.056 64.853 0.683 154.88-78.251 156.843zM794.325 87.936c-0.407-0.014-0.886-0.021-1.366-0.021-24.177 0-43.776 19.599-43.776 43.776s19.599 43.776 43.776 43.776c0.481 0 0.959-0.008 1.436-0.023l-0.070 0.002c23.582-0.76 42.41-20.058 42.41-43.755s-18.828-42.995-42.34-43.753l-0.070-0.002zM797.227 230.357l-2.901 0.043-2.944-0.043c-78.933-2.005-123.307-92.075-78.251-156.928l66.901-96.341c3.186-4.54 8.397-7.471 14.293-7.471s11.107 2.931 14.256 7.416l0.037 0.056 66.859 96.341c45.056 64.853 0.725 154.923-78.251 156.928z" />
<glyph unicode="&#xe957;" d="M794.283 220.416l-2.645-0.085c-33.472-0.669-62.258-20.078-76.358-48.138l-0.229-0.502c-6.33-11.942-10.046-26.107-10.046-41.14 0-19.278 6.112-37.129 16.503-51.721l-0.185 0.274 66.901-96.341c1.36-1.923 3.575-3.164 6.080-3.164s4.72 1.24 6.064 3.141l0.016 0.023 66.901 96.384c10.199 14.305 16.307 32.141 16.307 51.404 0 15.017-3.712 29.168-10.269 41.583l0.234-0.486c-14.292 28.61-43.092 48.059-76.499 48.724l-0.088 0.001h-2.688zM794.283-40.405c-0.008 0-0.018 0-0.027 0-9.259 0-17.439 4.623-22.357 11.687l-0.059 0.089-66.944 96.341c-12.459 17.479-19.919 39.271-19.919 62.805 0 18.333 4.527 35.609 12.525 50.771l-0.286-0.595c17.551 35.047 52.854 58.868 93.8 59.689l0.109 0.002h6.357c41.055-0.823 76.358-24.643 93.629-59.074l0.28-0.617c18.773-36.821 15.787-79.104-7.68-112.981l-66.944-96.341c-4.994-7.154-13.187-11.776-22.46-11.776-0.009 0-0.018 0-0.027 0h0.001z" />
<glyph unicode="&#xe958;" d="M794.283 165.504c-0.345 0.013-0.75 0.020-1.157 0.020-18.663 0-33.792-15.129-33.792-33.792s15.129-33.792 33.792-33.792c0.437 0 0.872 0.008 1.305 0.025l-0.062-0.002c18.12 0.688 32.55 15.543 32.55 33.769 0 18.256-14.477 33.131-32.576 33.771l-0.059 0.002zM794.283 77.952c-29.611 0-53.76 24.107-53.76 53.76 1.183 28.801 24.818 51.702 53.803 51.702s52.62-22.901 53.799-51.595l0.003-0.107c0-29.653-24.192-53.76-53.845-53.76z" />
<glyph unicode="&#xe959;" d="M625.237 753.109c1.015 3.056 1.6 6.574 1.6 10.228 0 18.498-14.995 33.493-33.493 33.493s-33.493-14.995-33.493-33.493c0-3.655 0.585-7.172 1.667-10.465l-0.067 0.237c-15.062-3.487-26.118-16.788-26.118-32.671 0-18.498 14.995-33.493 33.493-33.493 9.682 0 18.405 4.109 24.52 10.677l0.019 0.020c6.134-6.596 14.862-10.71 24.55-10.71 18.498 0 33.493 14.995 33.493 33.493 0 15.903-11.083 29.217-25.946 32.64l-0.225 0.044z" />
<glyph unicode="&#xe95a;" d="M741.461 753.109c1.015 3.056 1.6 6.574 1.6 10.228 0 18.498-14.995 33.493-33.493 33.493s-33.493-14.995-33.493-33.493c0-3.655 0.585-7.172 1.667-10.465l-0.067 0.237c-15.062-3.487-26.118-16.788-26.118-32.671 0-18.498 14.995-33.493 33.493-33.493 9.682 0 18.405 4.109 24.52 10.677l0.019 0.020c6.134-6.596 14.862-10.71 24.55-10.71 18.498 0 33.493 14.995 33.493 33.493 0 15.903-11.083 29.217-25.946 32.64l-0.225 0.044z" />
<glyph unicode="&#xe95b;" d="M593.365 707.669c2.731 0 5.419-1.152 7.296-3.2 4.31-4.673 10.464-7.589 17.298-7.589 12.984 0 23.509 10.525 23.509 23.509 0 11.176-7.798 20.53-18.25 22.919l-0.158 0.030c-4.496 1.091-7.782 5.082-7.782 9.84 0 1.056 0.162 2.075 0.462 3.032l-0.019-0.072c0.757 2.21 1.195 4.757 1.195 7.406 0 13.007-10.545 23.552-23.552 23.552s-23.552-10.545-23.552-23.552c0-2.649 0.437-5.195 1.244-7.572l-0.049 0.166c0.272-0.874 0.429-1.878 0.429-2.92 0-4.776-3.298-8.783-7.741-9.866l-0.070-0.014c-10.546-2.483-18.286-11.785-18.347-22.905v-0.007c0.103-12.929 10.608-23.37 23.551-23.37 6.756 0 12.847 2.844 17.142 7.401l0.011 0.012c1.829 1.971 4.434 3.2 7.325 3.2 0.020 0 0.039 0 0.059 0h-0.003zM617.941 676.907c-8.789 0-17.408 2.731-24.576 7.637-6.871-4.731-15.372-7.556-24.534-7.556-24.024 0-43.511 19.428-43.605 43.43v0.009c0 16.896 10.027 32.128 24.747 39.253-0.096 1.086-0.151 2.35-0.151 3.627 0 24.069 19.482 43.588 43.537 43.648h0.006c24.057-0.033 43.547-19.543 43.547-43.605 0-1.292-0.056-2.57-0.166-3.833l0.012 0.164c14.72-7.125 24.747-22.357 24.747-39.253 0-23.979-19.541-43.52-43.52-43.52z" />
<glyph unicode="&#xe95c;" d="M709.547 707.669c2.816 0 5.461-1.152 7.381-3.2 4.31-4.673 10.464-7.589 17.298-7.589 12.984 0 23.509 10.525 23.509 23.509 0 11.176-7.798 20.53-18.25 22.919l-0.158 0.030c-2.807 0.658-5.118 2.411-6.502 4.773l-0.026 0.048c-0.829 1.435-1.318 3.156-1.318 4.992 0 1.082 0.17 2.124 0.484 3.101l-0.020-0.072c0.757 2.21 1.194 4.756 1.194 7.404 0 13.007-10.545 23.552-23.552 23.552s-23.552-10.545-23.552-23.552c0-0.053 0-0.106 0.001-0.159v0.008c0-2.475 0.384-4.907 1.195-7.253 0.294-0.903 0.464-1.943 0.464-3.022 0-4.773-3.321-8.77-7.777-9.807l-0.068-0.013c-10.524-2.465-18.24-11.77-18.24-22.877 0-12.96 10.506-23.467 23.467-23.467 6.774 0 12.878 2.87 17.161 7.461l0.013 0.014c1.835 1.97 4.443 3.198 7.338 3.2v0zM734.165 676.907c-8.832 0-17.408 2.731-24.576 7.637-6.871-4.731-15.372-7.556-24.534-7.556-24.024 0-43.511 19.428-43.605 43.43v0.009c0 16.853 10.027 32.128 24.747 39.253-0.128 1.237-0.128 2.475-0.128 3.755 0 23.979 19.541 43.52 43.52 43.52 24.039-0.058 43.504-19.558 43.504-43.605 0-1.292-0.056-2.57-0.166-3.833l0.012 0.164c14.763-7.125 24.747-22.357 24.747-39.253 0-23.979-19.499-43.52-43.52-43.52zM593.365 589.867c-5.514 0-9.984 4.47-9.984 9.984v0 97.792c-0.014 0.195-0.021 0.423-0.021 0.652 0 5.514 4.47 9.984 9.984 9.984s9.984-4.47 9.984-9.984c0-0.23-0.008-0.457-0.023-0.683l0.002 0.031v-97.749c0-0.013 0-0.028 0-0.043 0-5.49-4.451-9.941-9.941-9.941 0 0 0 0 0 0v0z" />
<glyph unicode="&#xe95d;" d="M709.547 589.867c-5.496 0.024-9.941 4.485-9.941 9.984 0 0 0 0 0 0v0 97.792c-0.027 0.277-0.043 0.599-0.043 0.924 0 5.538 4.489 10.027 10.027 10.027s10.027-4.489 10.027-10.027c0-0.325-0.015-0.647-0.046-0.964l0.003 0.040v-97.749c0-5.514-4.47-9.984-9.984-9.984v0z" />
<glyph unicode="&#xe95e;" d="M438.912 744.875c0 39.040-24.875 72.363-59.648 84.907-10.813 20.878-30.379 35.938-53.707 40.414l-0.48 0.077c-1.332-6.093-2.095-13.092-2.095-20.268 0-21.335 6.744-41.096 18.217-57.265l-0.207 0.307 66.901-96.384c2.987-4.224 7.296-6.613 11.947-7.253 11.947 15.36 19.072 34.56 19.072 55.467z" />
<glyph unicode="&#xe95f;" d="M422.229 885.12c-0.358 0.014-0.779 0.021-1.201 0.021-18.686 0-33.835-15.148-33.835-33.835s15.148-33.835 33.835-33.835c0.422 0 0.843 0.008 1.262 0.023l-0.061-0.002c18.162 0.665 32.633 15.549 32.633 33.813s-14.471 33.148-32.573 33.812l-0.061 0.002zM422.229 797.525c0 0 0 0 0 0-29.717 0-53.815 24.054-53.888 53.753v0.007c1.439 28.61 24.986 51.262 53.824 51.262s52.385-22.652 53.819-51.134l0.005-0.128c0-29.611-24.149-53.76-53.76-53.76z" />
<glyph unicode="&#xe960;" d="M422.229 939.989h-2.816c-33.456-0.72-62.208-20.153-76.273-48.222l-0.229-0.504c-6.333-11.945-10.051-26.113-10.051-41.15 0-19.255 6.097-37.087 16.466-51.669l-0.186 0.275 66.987-96.341c1.351-1.923 3.56-3.165 6.059-3.165s4.708 1.242 6.043 3.142l0.016 0.024 66.859 96.341c19.243 27.733 21.589 62.336 6.272 92.587-14.322 28.55-43.088 47.954-76.453 48.639l-2.736 0.044zM422.229 679.211c-0.021 0-0.045 0-0.070 0-9.259 0-17.439 4.623-22.357 11.687l-0.059 0.089-66.944 96.341c-12.459 17.479-19.919 39.271-19.919 62.805 0 18.333 4.527 35.609 12.525 50.771l-0.286-0.595c17.557 35.060 52.88 58.885 93.845 59.689l0.107 0.002h6.229c41.097-0.798 76.442-24.644 93.714-59.116l0.28-0.617c7.712-14.567 12.239-31.843 12.239-50.176 0-23.534-7.46-45.326-20.145-63.139l0.226 0.334-66.987-96.341c-4.973-7.149-13.146-11.771-22.399-11.776h-0.001z" />
<glyph unicode="&#xe961;" d="M145.536 795.136c-27.121-0.815-48.797-22.996-48.797-50.24s21.676-49.425 48.722-50.238l0.075-0.002h203.136c27.747 0 50.24 22.493 50.24 50.24s-22.493 50.24-50.24 50.24v0h-1.109c0 20.124-16.314 36.437-36.437 36.437s-36.437-16.314-36.437-36.437v0c0 35.016-28.386 63.403-63.403 63.403s-63.403-28.386-63.403-63.403h-2.347z" />
<glyph unicode="&#xe962;" d="M145.579 785.109c-22.221 0-40.235-18.014-40.235-40.235s18.014-40.235 40.235-40.235h203.136c21.433 1.018 38.424 18.642 38.424 40.235s-16.991 39.217-38.333 40.231l-0.091 0.003c-5.547 0-11.093 4.48-11.093 9.984-0.818 13.949-12.329 24.951-26.411 24.951s-25.593-11.002-26.407-24.88l-0.003-0.072c0-5.538-4.489-10.027-10.027-10.027s-10.027 4.489-10.027 10.027v0c0 29.514-23.926 53.44-53.44 53.44s-53.44-23.926-53.44-53.44v0c0-5.514-4.47-9.984-9.984-9.984v0h-2.304zM348.715 684.629h-203.093c-33 0.387-59.603 27.229-59.603 60.284 0 30.542 22.712 55.78 52.167 59.746l0.31 0.034c-4.67 9.39-7.403 20.451-7.403 32.151 0 40.601 32.914 73.515 73.515 73.515s73.515-32.914 73.515-73.515c0-3.469-0.24-6.881-0.705-10.222l0.044 0.386c8.427 8.965 20.363 14.549 33.603 14.549 0.036 0 0.073 0 0.109 0h-0.006c22.357 0 41.131-15.957 45.44-37.077 29.909-4.267 52.309-29.355 52.309-59.605 0-33.237-27.051-60.245-60.16-60.245z" />
<glyph unicode="&#xe963;" d="M170.24 746.069h-24.661c-5.514 0-9.984 4.47-9.984 9.984v0c0 5.547 4.437 10.027 9.984 10.027h24.661c3.7 0 6.699 2.999 6.699 6.699v0 21.632c0 17.92 13.653 33.28 31.061 34.944 0.972 0.097 2.101 0.153 3.243 0.153 18.995 0 34.398-15.381 34.432-34.368v-0.003c-0.353-5.249-4.698-9.373-10.005-9.373s-9.652 4.124-10.004 9.342l-0.002 0.031c-0.091 7.943-6.55 14.346-14.506 14.346-0.436 0-0.867-0.019-1.293-0.057l0.055 0.004c-7.354-0.963-12.973-7.19-12.973-14.729 0-0.102 0.001-0.203 0.003-0.305v0.015-21.632c0-14.72-11.947-26.709-26.709-26.709z" />
<glyph unicode="&#xe964;" d="M10.027 298.88l329.216-329.259h176.64l-505.856 505.856z" />
<glyph unicode="&#xe965;" d="M515.84-40.363c-2.76 0.002-5.261 1.109-7.084 2.903l-505.77 505.855c-1.813 1.813-2.934 4.317-2.934 7.083 0 5.532 4.484 10.016 10.016 10.016 2.766 0 5.27-1.121 7.083-2.934l505.813-505.856c1.821-1.809 2.947-4.314 2.947-7.083 0-5.514-4.47-9.984-9.984-9.984-0.016 0-0.032 0-0.048 0h0.002zM339.2-40.363c-2.744 0.014-5.228 1.119-7.041 2.903l-208.98 208.98c-1.813 1.813-2.934 4.317-2.934 7.083 0 5.532 4.484 10.016 10.016 10.016 2.766 0 5.27-1.121 7.083-2.934l208.981-208.981c1.821-1.809 2.947-4.314 2.947-7.083 0-5.514-4.47-9.984-9.984-9.984-0.016 0-0.032 0-0.048 0h0.002z" />
<glyph unicode="&#xe966;" d="M380.587 522.368c0 0 0 0 0 0-25.891 0-46.885 20.964-46.933 46.843v380.762h-124.8v-380.757c0.097-94.792 76.902-171.612 171.679-171.733h0.012z" />
<glyph unicode="&#xe967;" d="M380.587 387.499c-100.314 0.097-181.614 81.367-181.76 181.661v380.857c0 5.538 4.489 10.027 10.027 10.027s10.027-4.489 10.027-10.027v0-380.757c0-89.173 72.533-161.707 161.707-161.707 5.547 0 9.941-4.523 9.941-10.069-0.024-5.496-4.485-9.941-9.984-9.941 0 0 0 0 0 0v0z" />
<glyph unicode="&#xe968;" d="M380.587 512.384c0 0 0 0 0 0-31.39 0-56.844 25.41-56.917 56.782v380.85c0.353 5.249 4.698 9.373 10.005 9.373s9.652-4.124 10.004-9.342l0.002-0.031v-380.843c0-20.309 16.512-36.821 36.821-36.821 5.547 0 9.984-4.48 9.984-10.027 0-5.514-4.47-9.984-9.984-9.984v0z" />
<glyph unicode="&#xe969;" d="M990.336 94.549h-246.187c-0.013 0-0.028 0-0.043 0-16.512 0-29.903 13.361-29.952 29.862v825.648h-124.843v-925.099c0-30.507 24.747-55.253 55.253-55.253h345.771z" />
<glyph unicode="&#xe96a;" d="M990.336-40.363h-345.771c-35.968 0-65.28 29.269-65.28 65.28v925.056c0 5.538 4.489 10.027 10.027 10.027s10.027-4.489 10.027-10.027v-925.013c0-25.003 20.309-45.312 45.227-45.312h345.771c5.547 0 9.984-4.48 9.984-10.027 0-5.514-4.47-9.984-9.984-9.984v0z" />
<glyph unicode="&#xe96b;" d="M990.336 84.523h-246.187c-22.065 0-39.954 17.875-39.979 39.934v825.559c0.353 5.249 4.698 9.373 10.005 9.373s9.652-4.124 10.004-9.342l0.002-0.031v-825.557c0-11.008 8.96-19.925 19.925-19.925h246.229c5.547 0 9.984-4.48 9.984-10.027 0-5.514-4.47-9.984-9.984-9.984v0z" />
<glyph unicode="&#xe96c;" d="M10.027 178.603h609.835c94.797 0.121 171.612 76.936 171.733 171.722v0.012c-0.121 94.797-76.936 171.612-171.722 171.733h-14.561v0.341h-224.768c-25.258 0.786-45.434 21.45-45.434 46.827s20.176 46.040 45.362 46.825l0.072 0.002h609.835v124.971h-609.835c-94.815-0.097-171.655-76.921-171.776-171.722v-0.012c0.146-94.794 76.976-171.594 171.767-171.691h14.516v-0.341h224.811c25.887-0.024 46.866-21.003 46.891-46.888v-0.002c-0.049-25.884-21.043-46.848-46.933-46.848 0 0 0 0 0 0h-609.749z" />
<glyph unicode="&#xe96d;" d="M85.163 303.531l49.024-70.571c10.658-15.197 28.098-25.010 47.829-25.010s37.171 9.812 47.705 24.823l0.124 0.186 48.981 70.571h-193.707zM765.312 740.992l55.211-79.445c10.66-15.18 28.090-24.979 47.808-24.979s37.148 9.799 47.684 24.793l0.124 0.186 55.168 79.445h-205.995zM325.547 406.613c0.234 3.088 0.367 6.689 0.367 10.32 0 23.991-5.813 46.624-16.108 66.567l0.381-0.813c-19.835 39.398-56.472 67.844-100.241 76.107l-0.879 0.138c4.482-70.903 51.298-129.804 115.272-151.998l1.208-0.365z" />
<glyph unicode="&#xe96e;" d="M619.861 293.547h-609.835c-0.013 0-0.028 0-0.043 0-5.484 0-9.935 4.422-9.984 9.894v0.005c0 5.547 4.437 10.027 9.984 10.027h609.835c19.582 0.972 35.091 17.086 35.091 36.821s-15.509 35.849-35.004 36.818l-0.087 0.003h-224.853c-0.935 0.018-1.828 0.173-2.668 0.445l0.065-0.018h-11.861c-100.314 0.097-181.614 81.367-181.76 181.661v0.014c0.097 100.344 81.416 181.663 181.751 181.76h609.844c5.538 0 10.027-4.489 10.027-10.027s-4.489-10.027-10.027-10.027h-609.792c-89.173 0-161.749-72.533-161.749-161.707 0.146-89.25 72.457-161.561 161.693-161.707h14.521c0.981 0 1.835-0.171 2.731-0.384h222.123c31.317 0 56.832-25.515 56.832-56.832s-25.515-56.832-56.832-56.832z" />
<glyph unicode="&#xe96f;" d="M619.861 253.483h-193.707c-5.514 0-9.984 4.47-9.984 9.984v0c0 5.547 4.437 10.027 9.984 10.027h193.707c23.467 0 45.355 10.581 60.075 29.013 1.853 2.303 4.671 3.764 7.831 3.764 2.372 0 4.552-0.824 6.269-2.201l-0.020 0.015c2.294-1.861 3.747-4.679 3.747-7.837 0-2.367-0.817-4.544-2.184-6.263l0.016 0.021c-17.818-22.335-45.033-36.523-75.562-36.523-0.060 0-0.12 0-0.18 0h0.009zM706.176 330.88h-1.195c-4.977 0.639-8.785 4.85-8.785 9.949 0 0.448 0.029 0.89 0.086 1.323l-0.005-0.051c0.299 2.688 0.427 5.461 0.427 8.277 0 5.538 4.489 10.027 10.027 10.027s10.027-4.489 10.027-10.027v0c0-3.627-0.256-7.253-0.683-10.709-0.597-4.972-4.79-8.789-9.874-8.789-0.009 0-0.017 0-0.026 0h0.001z" />
<glyph unicode="&#xe970;" d="M717.739 292.395c-17.493-14.464-28.501-36.309-28.501-59.989 0-12.629 2.987-24.533 8.405-35.115 56.202 29.055 93.956 86.739 93.956 153.242 0 2.722-0.063 5.429-0.188 8.121l0.014-0.381c-37.434-1.567-67.926-29.379-73.628-65.437l-0.057-0.441z" />
<glyph unicode="&#xe971;" d="M252.245 589.312c-5.539 0.029-10.018 4.526-10.018 10.069 0 0.787 0.090 1.552 0.261 2.287l-0.013-0.068c15.011 63.151 70.935 109.398 137.661 109.398 0.144 0 0.287 0 0.431-0.001h204.693c5.547 0 9.984-4.48 9.984-10.027 0-5.514-4.47-9.984-9.984-9.984h-204.715c-0.137 0.001-0.299 0.001-0.46 0.001-57.277 0-105.276-39.727-117.946-93.13l-0.165-0.823c-1.112-4.462-5.082-7.717-9.813-7.723h-0.001zM666.24 690.987h-13.995c-5.514 0-9.984 4.47-9.984 9.984v0c0 5.547 4.437 10.027 9.984 10.027h13.995c5.547 0 9.984-4.48 9.984-10.027 0-5.514-4.47-9.984-9.984-9.984v0z" />
<glyph unicode="&#xe972;" d="M619.861 168.619h-609.835c-0.013 0-0.028 0-0.043 0-5.514 0-9.984 4.47-9.984 9.984 0 0 0 0 0 0v0c0 5.547 4.437 10.027 9.984 10.027h609.835c89.173 0 161.707 72.533 161.707 161.707-0.121 89.268-72.442 161.604-161.693 161.749h-14.563c-0.942 0.006-1.853 0.13-2.722 0.358l0.076-0.017h-222.080c-30.449 1.217-54.672 26.196-54.672 56.832s24.223 55.615 54.562 56.829l0.11 0.003h609.835c5.526 0 10.005-4.48 10.005-10.005s-4.48-10.005-10.005-10.005v0h-609.835c-20.335-0.024-36.816-16.49-36.864-36.817v-0.005c0-20.309 16.555-36.821 36.864-36.821h224.768c0.939 0 1.792-0.128 2.688-0.341h11.861c100.334-0.121 181.639-81.425 181.76-181.748v-0.012c-0.146-100.316-81.441-181.596-181.748-181.717h-0.012z" />
<glyph unicode="&#xe973;" d="M868.309 800.597c-25.355 0-45.909 20.554-45.909 45.909s20.554 45.909 45.909 45.909v0c25.355 0 45.909-20.554 45.909-45.909s-20.554-45.909-45.909-45.909v0zM871.381 949.931l-3.072 0.043h-3.072c-82.773-2.133-129.28-96.555-82.048-164.565l70.144-101.035c7.253-10.453 22.699-10.453 29.952 0l70.144 101.035c47.275 68.011 0.768 162.432-82.048 164.523z" />
<glyph unicode="&#xe974;" d="M868.309 939.989h-2.731c-35.337-0.687-65.725-21.195-80.57-50.84l-0.241-0.531c-6.653-12.579-10.558-27.495-10.558-43.323 0-20.311 6.431-39.12 17.367-54.503l-0.196 0.29 70.187-101.035c3.072-4.437 10.411-4.437 13.483 0l70.187 101.035c20.267 29.227 22.784 65.707 6.613 97.579-15.094 30.116-45.439 50.582-80.632 51.284l-0.093 0.001h-0.085l-2.731 0.043zM868.309 666.539c-0.007 0-0.016 0-0.025 0-9.551 0-17.991 4.755-23.083 12.027l-0.060 0.091-70.187 101.035c-13.022 18.245-20.821 40.998-20.821 65.572 0 19.148 4.735 37.191 13.098 53.021l-0.298-0.619c18.331 36.589 55.185 61.459 97.932 62.334l0.116 0.002h6.656c42.858-0.858 79.713-25.716 97.755-61.65l0.293-0.643c8.064-15.216 12.798-33.265 12.798-52.419 0-24.582-7.798-47.344-21.055-65.945l0.236 0.348-70.187-101.035c-5.152-7.362-13.592-12.117-23.143-12.117-0.009 0-0.017 0-0.026 0h0.001z" />
<glyph unicode="&#xe975;" d="M868.309 882.432c-0.363 0.013-0.789 0.021-1.217 0.021-19.865 0-35.968-16.103-35.968-35.968s16.103-35.968 35.968-35.968c0.443 0 0.884 0.008 1.323 0.024l-0.064-0.002c19.324 0.687 34.729 16.518 34.729 35.947s-15.405 35.26-34.667 35.945l-0.063 0.002zM868.352 790.613c0 0 0 0 0 0-30.886 0-55.93 25.014-55.979 55.889v0.005c1.195 29.971 25.782 53.815 55.937 53.815 30.14 0 54.717-23.82 55.932-53.662l0.004-0.11c0-30.848-25.088-55.893-55.893-55.893z" />
<glyph unicode="&#xe976;" d="M181.973 372.053c-25.355 0-45.909 20.554-45.909 45.909s20.554 45.909 45.909 45.909v0c25.367 0 45.931-20.564 45.931-45.931s-20.564-45.931-45.931-45.931v0zM185.045 521.344l-3.072 0.043h-3.072c-82.773-2.133-129.28-96.555-82.048-164.565l70.144-101.035c7.253-10.411 22.699-10.411 29.952 0l70.187 101.035c47.232 68.011 0.725 162.432-82.091 164.523z" />
<glyph unicode="&#xe977;" d="M181.973 511.403h-2.859c-35.266-0.764-65.573-21.251-80.399-50.84l-0.241-0.531c-6.665-12.582-10.578-27.504-10.578-43.34 0-20.288 6.422-39.077 17.344-54.443l-0.196 0.29 70.187-101.035c3.072-4.48 10.411-4.48 13.483 0l70.229 101.035c10.738 15.077 17.168 33.872 17.168 54.168 0 15.848-3.92 30.78-10.844 43.88l0.247-0.512c-15.094 30.116-45.439 50.582-80.632 51.284l-2.909 0.044zM181.973 237.952c-0.007 0-0.016 0-0.025 0-9.551 0-17.991 4.755-23.083 12.027l-0.060 0.091-70.187 101.077c-13.022 18.245-20.821 40.998-20.821 65.572 0 19.148 4.735 37.191 13.098 53.021l-0.298-0.619c18.342 36.571 55.193 61.425 97.933 62.291l0.115 0.002 3.328 0.043h3.328c42.882-0.855 79.763-25.71 97.84-61.65l0.293-0.643c8.032-15.199 12.748-33.22 12.748-52.343 0-24.613-7.811-47.401-21.090-66.021l0.235 0.348-70.187-101.035c-5.152-7.362-13.592-12.117-23.143-12.117-0.009 0-0.017 0-0.026 0h0.001z" />
<glyph unicode="&#xe978;" d="M181.973 453.845c-0.363 0.013-0.789 0.021-1.217 0.021-19.865 0-35.968-16.103-35.968-35.968s16.103-35.968 35.968-35.968c0.443 0 0.884 0.008 1.323 0.024l-0.064-0.002c19.324 0.687 34.729 16.518 34.729 35.947s-15.405 35.26-34.667 35.945l-0.063 0.002zM182.016 362.027c0 0 0 0 0 0-30.886 0-55.93 25.014-55.979 55.889v0.005c1.195 29.971 25.782 53.815 55.937 53.815 30.14 0 54.717-23.82 55.932-53.662l0.004-0.11c0-30.848-25.088-55.893-55.893-55.893z" />
<glyph unicode="&#xe979;" d="M830.336 269.141c1.163 3.469 1.835 7.463 1.835 11.614 0 20.807-16.868 37.675-37.675 37.675s-37.675-16.868-37.675-37.675c0-4.151 0.671-8.145 1.911-11.88l-0.077 0.266c-16.756-4.080-29.001-18.958-29.001-36.696 0-20.661 16.613-37.443 37.21-37.714h0.026c0.017 0 0.036 0 0.056 0 10.891 0 20.694 4.658 27.525 12.091l0.024 0.027c6.894-7.427 16.71-12.059 27.608-12.059 20.784 0 37.632 16.848 37.632 37.632 0 17.866-12.45 32.824-29.147 36.671l-0.253 0.049z" />
<glyph unicode="&#xe97a;" d="M960.939 269.141c1.15 3.45 1.813 7.421 1.813 11.548 0 20.807-16.868 37.675-37.675 37.675s-37.675-16.868-37.675-37.675c0-4.126 0.663-8.098 1.889-11.814l-0.076 0.266c-17.036-3.851-29.566-18.858-29.566-36.792 0-20.807 16.868-37.675 37.675-37.675 10.958 0 20.824 4.678 27.708 12.147l0.024 0.026c6.893-7.42 16.705-12.047 27.597-12.047 20.784 0 37.632 16.848 37.632 37.632 0 17.846-12.423 32.791-29.092 36.659l-0.254 0.050z" />
<glyph unicode="&#xe97b;" d="M794.539 216.832c2.773 0 5.461-1.152 7.339-3.2 5.081-5.546 12.356-9.010 20.44-9.010 15.293 0 27.691 12.398 27.691 27.691 0 13.208-9.247 24.256-21.621 27.023l-0.185 0.035c-4.522 1.034-7.845 5.022-7.845 9.786 0 1.076 0.17 2.113 0.483 3.085l-0.020-0.071c0.97 2.707 1.53 5.831 1.53 9.086 0 15.317-12.417 27.733-27.733 27.733s-27.733-12.417-27.733-27.733c0-0.194 0.002-0.388 0.006-0.581v0.029c0-2.816 0.427-5.717 1.365-8.533 0.294-0.901 0.464-1.937 0.464-3.014 0-4.764-3.323-8.752-7.778-9.773l-0.067-0.013c-12.558-2.802-21.806-13.85-21.806-27.058 0-15.293 12.398-27.691 27.691-27.691 8.084 0 15.359 3.464 20.422 8.989l0.019 0.021c1.829 1.971 4.434 3.2 7.325 3.2 0.005 0 0.010 0 0.014 0h-0.001zM822.144 184.747c-10.354 0.016-19.932 3.323-27.749 8.93l0.143-0.098c-7.674-5.503-17.255-8.799-27.605-8.799-26.318 0-47.658 21.314-47.701 47.622v0.004c0 18.773 11.307 35.712 27.904 43.349-0.19 1.599-0.299 3.452-0.299 5.33 0 26.345 21.357 47.701 47.701 47.701s47.701-21.357 47.701-47.701c0-1.878-0.109-3.73-0.32-5.551l0.021 0.222c16.597-7.637 27.904-24.576 27.904-43.349 0-26.283-21.376-47.659-47.701-47.659z" />
<glyph unicode="&#xe97c;" d="M925.056 216.832c2.773 0 5.461-1.152 7.339-3.2 5.080-5.539 12.351-8.998 20.43-8.998 15.293 0 27.691 12.398 27.691 27.691 0 13.189-9.221 24.224-21.567 27.011l-0.185 0.035c-4.522 1.034-7.845 5.022-7.845 9.786 0 1.076 0.17 2.113 0.483 3.085l-0.020-0.071c0.836 2.524 1.318 5.43 1.318 8.448 0 15.285-12.365 27.682-27.639 27.733h-0.005c-15.263-0.009-27.632-12.384-27.632-27.648 0-3.050 0.494-5.985 1.406-8.729l-0.056 0.195c0.294-0.901 0.464-1.937 0.464-3.014 0-4.764-3.323-8.752-7.778-9.773l-0.067-0.013c-12.473-2.848-21.64-13.847-21.64-26.987 0-15.27 12.378-27.648 27.648-27.648 8.024 0 15.25 3.418 20.301 8.878l0.017 0.018c1.829 1.971 4.434 3.2 7.325 3.2 0.005 0 0.010 0 0.014 0h-0.001zM952.661 184.747c-10.354 0.016-19.932 3.323-27.749 8.93l0.143-0.098c-7.666-5.484-17.231-8.769-27.563-8.769-26.308 0-47.641 21.297-47.701 47.59v0.006c0 18.773 11.307 35.712 27.904 43.349-0.161 1.472-0.253 3.179-0.253 4.907 0 26.314 21.306 47.651 47.608 47.701h0.005c26.325-0.026 47.656-21.373 47.656-47.701 0-1.728-0.092-3.435-0.271-5.116l0.018 0.209c16.49-7.747 27.704-24.218 27.704-43.307 0-26.274-21.242-47.587-47.49-47.701h-0.011zM794.539 86.955c-5.514 0-9.984 4.47-9.984 9.984v0 109.909c0 5.514 4.47 9.984 9.984 9.984s9.984-4.47 9.984-9.984v0-109.909c0-5.514-4.47-9.984-9.984-9.984v0z" />
<glyph unicode="&#xe97d;" d="M925.056 86.955c-5.514 0-9.984 4.47-9.984 9.984v0 109.909c0 5.514 4.47 9.984 9.984 9.984s9.984-4.47 9.984-9.984v-109.909c0-5.514-4.47-9.984-9.984-9.984v0z" />
<glyph unicode="&#xe97e;" d="M496.128 900.779c1.123 3.409 1.771 7.333 1.771 11.408 0 20.784-16.848 37.632-37.632 37.632s-37.632-16.848-37.632-37.632c0-4.075 0.648-7.999 1.846-11.674l-0.075 0.266c-17.036-3.851-29.566-18.858-29.566-36.792 0-20.807 16.868-37.675 37.675-37.675 10.958 0 20.824 4.678 27.708 12.147l0.024 0.026c6.894-7.492 16.746-12.17 27.691-12.17 20.76 0 37.589 16.829 37.589 37.589 0 0.063 0 0.127 0 0.19v-0.010c-0.013 17.854-12.457 32.797-29.144 36.644l-0.253 0.049z" />
<glyph unicode="&#xe97f;" d="M460.288 848.469c2.773 0 5.419-1.152 7.339-3.2 5.077-5.507 12.327-8.945 20.381-8.945 15.293 0 27.691 12.398 27.691 27.691 0 13.171-9.196 24.195-21.518 27l-0.186 0.036c-4.525 1.012-7.857 4.994-7.857 9.755 0 1.088 0.174 2.135 0.496 3.116l-0.020-0.071c0.836 2.524 1.318 5.43 1.318 8.448 0 15.285-12.365 27.682-27.639 27.733h-0.005c-15.26-0.075-27.601-12.463-27.601-27.733 0-3.018 0.482-5.924 1.374-8.644l-0.056 0.196c0.283-0.89 0.446-1.914 0.446-2.976 0-1.856-0.498-3.596-1.368-5.094l0.026 0.049c-1.385-2.405-3.688-4.15-6.419-4.766l-0.066-0.013c-12.449-2.867-21.59-13.854-21.59-26.976 0-15.27 12.378-27.648 27.648-27.648 7.999 0 15.204 3.396 20.252 8.826l0.016 0.017c1.829 1.971 4.434 3.2 7.325 3.2 0.005 0 0.010 0 0.014 0h-0.001zM487.936 816.427c-10.112 0-19.669 3.072-27.648 8.789-7.659-5.46-17.208-8.73-27.52-8.73-26.302 0-47.637 21.269-47.744 47.546v0.010c0 18.773 11.307 35.712 27.904 43.349-0.161 1.472-0.253 3.179-0.253 4.907 0 26.314 21.306 47.651 47.608 47.701h0.005c26.307-0.050 47.613-21.388 47.613-47.701 0-1.728-0.092-3.435-0.271-5.116l0.018 0.209c16.64-7.68 27.947-24.533 27.947-43.349 0-26.24-21.376-47.616-47.659-47.616z" />
<glyph unicode="&#xe980;" d="M460.288 731.008c-5.514 0-9.984 4.47-9.984 9.984v0 97.493c0 5.514 4.47 9.984 9.984 9.984s9.984-4.47 9.984-9.984v-97.493c0-5.514-4.47-9.984-9.984-9.984v0z" />
<glyph unicode="&#xe981;" glyph-name="right" d="M205.244 594.773c-30.379 30.379-38.468 35.465-64.819 35.465-7.066 0-40.482-2.048-48.572-3.038-33.451-4.062-47.582-45.568-47.582-136.67 0-71.885 9.114-127.59 27.307-168.073 10.138-22.289 18.227-27.307 47.616-27.307 54.647 0 67.823 4.028 89.088 26.283 23.279-9.114 32.393-13.141 61.747-31.403 87.040-52.599 113.391-62.737 160.973-62.737 7.1 0 23.279 1.024 41.506 2.048 24.303-7.1 39.492-10.138 50.62-10.138 30.379 0 56.695 21.231 56.695 45.534 0 4.062 0 8.124-2.014 13.175 10.138-3.038 16.213-4.062 22.289-4.062 33.382 0 62.737 30.379 62.737 65.809 0 7.1-2.014 14.199-6.042 27.341 35.43 2.048 59.733 27.341 59.733 61.781 0 17.203-4.096 28.331-15.189 46.558h112.367c92.16 0 125.542 5.052 148.821 23.279 10.489 7.862 17.204 20.265 17.204 34.236 0 0.072 0 0.144-0.001 0.216v-0.011c0 28.331-19.217 46.558-58.709 54.647-23.279 4.062-34.406 5.086-151.893 12.151-54.613 4.062-77.926 6.076-134.622 15.189-27.307 33.417-53.658 53.658-74.923 58.709-42.53 9.114-42.53 9.114-64.785 14.199-31.403 8.090-37.478 9.114-57.685 9.114-30.379 0-61.781-7.1-89.122-19.251-31.403-13.175-82.022-44.544-103.287-62.771-18.193-16.213-24.269-19.217-39.458-20.241zM731.682 503.671h-42.496c-1.024 15.189-3.072 24.303-11.162 43.554-1.024 2.048-8.090 13.141-22.255 36.454 42.53-5.086 153.873-14.199 238.933-19.251 36.454-3.038 56.661-14.165 56.661-32.427 0-8.055-11.093-18.193-22.255-21.231-17.203-5.052-66.799-7.1-197.427-7.1zM321.673 292.079l-46.592 27.341c-48.572 24.303-48.572 24.303-66.799 34.441-13.175 19.217-17.237 29.355-21.265 54.647-2.812 14.383-4.632 31.135-5.045 48.236l-0.007 0.37c0 13.175 2.014 60.757 3.004 72.909 2.048 15.155 3.072 19.217 11.162 36.42 4.028-1.024 7.066-2.014 8.090-2.014 15.189 0 30.379 7.1 53.658 25.327 31.403 24.269 85.060 55.637 114.415 67.823 20.241 7.066 43.52 12.151 63.761 12.151 26.351 0 108.339-20.241 131.618-32.427 23.313-12.117 48.606-40.482 74.923-87.040 13.175-22.289 18.227-34.441 18.227-42.53 0-11.127-12.151-19.251-30.379-19.251-27.307 0-50.62 14.199-70.861 41.54-7.1 11.127-7.1 11.127-26.317 18.193-22.289 8.124-22.289 8.124-33.417 11.162-20.241-24.303-41.506-43.554-75.947-64.819-26.283-18.193-51.61-24.269-94.14-24.269-3.038 0-14.165 1.024-32.427 3.038h-4.028c-8.090 0-13.141-4.096-13.141-11.162 0-11.127 18.227-19.217 42.496-19.217 17.237 0 59.733 6.076 74.923 10.103 13.175 4.062 18.227 7.1 62.805 30.379 2.014-9.114 3.004-12.151 7.066-19.217-32.427-4.096-51.644-22.289-51.644-49.63 0-4.028 1.024-9.114 2.048-17.203-29.355 0-49.63-22.289-49.63-54.682 0-27.307 20.241-55.671 63.795-90.112-36.454 3.072-69.871 15.189-110.353 39.492zM668.911 469.231c14.199-16.179 20.275-28.331 20.275-40.482 0-19.217-18.227-36.42-38.468-36.42-7.1 0-16.213 3.038-43.554 12.151-18.227 7.066-18.227 7.066-44.544 20.241-41.506 22.255-49.596 27.307-57.685 35.43-12.186 11.127-19.251 23.279-19.251 34.406 0 14.199 18.227 31.403 32.393 31.403 8.090 0 12.151-3.072 21.265-16.213 23.279-32.393 54.682-48.572 94.14-48.572 12.151 0 12.151 0 35.43 8.090zM442.129 409.498c0 15.223 14.199 28.365 30.379 28.365 10.138 0 16.213-2.014 35.43-14.165 15.739-9.147 42.956-23.327 70.508-36.932l12.538-5.598c23.279-11.127 23.279-11.127 30.379-18.227 8.090-9.079 12.117-18.193 12.117-25.293 0-9.114-8.090-22.289-16.179-28.331-4.833-3.188-10.762-5.086-17.134-5.086-0.024 0-0.049 0-0.073 0h0.004c-17.237 0-44.578 12.151-90.112 38.468-49.63 29.355-67.857 47.582-67.857 66.833zM396.595 345.737c0 12.151 11.127 22.289 25.293 22.289 6.076 0 10.138-2.048 18.227-10.138 9.114-10.103 25.327-21.265 46.558-34.406 45.568-27.341 46.592-27.341 55.706-36.454 7.066-7.1 10.103-13.175 10.103-18.227 0-13.175-14.165-23.279-33.382-23.279-25.327 0-54.682 15.189-89.088 46.558-20.275 19.251-33.451 39.492-33.451 53.658zM170.803 587.742c0-2.048-1.024-5.12-2.048-8.124-11.093-26.317-15.155-55.671-15.155-104.277 0-46.592 6.076-87.074 17.203-112.401 7.1-17.203 9.114-22.255 9.114-25.293 0-9.114-12.151-12.151-58.709-12.151-19.251 0-23.279 3.038-31.403 23.279-14.165 40.516-19.217 75.947-19.217 135.68 0 48.606 4.028 85.026 10.103 101.239 5.086 12.151 12.151 15.189 33.451 15.189h20.207c6.076 1.024 9.114 1.024 13.175 1.024 11.127 0 23.279-7.1 23.279-14.199z" />
<glyph unicode="&#xe982;" glyph-name="pin" horiz-adv-x="808" d="M400.815-64c-58.341 0-207.764 267.776-284.995 343.229-77.204 75.453-115.82 169.876-115.82 283.217 0 113.421 38.616 208.007 115.82 283.837s173.352 113.718 288.391 113.718c115.065 0 211.187-37.915 288.391-113.718 77.204-75.884 115.82-170.469 115.82-283.837s-38.616-207.764-115.82-283.217-233.445-343.229-291.786-343.229zM404.211 345.6c67.261 0 123.365 22.69 168.34 68.042s67.449 102.131 67.449 170.361-22.474 125.171-67.449 170.9c-44.975 45.703-101.080 68.554-168.34 68.554s-123.365-22.851-168.34-68.554c-44.975-45.73-67.449-102.669-67.449-170.9 0-68.204 22.474-125.009 67.449-170.361s101.080-68.042 168.34-68.042z" />
<glyph unicode="&#xe983;" d="M642.773 379.819h-17.365v0.427h-268.459c-30.876 0.024-55.906 25.024-55.979 55.886v0.007c0 30.891 25.131 55.979 55.979 55.979h124.245v149.12h-124.245c-113.209-0.121-204.953-91.85-205.099-205.042v-0.014c0.121-113.224 91.875-204.977 205.087-205.099h17.377v-0.427h268.459c30.891 0 55.979-25.088 55.979-55.936 0-30.805-25.088-55.936-55.979-55.936h-490.923v-149.12h490.923c113.218 0.121 204.971 91.845 205.141 205.040v0.016c-0.146 113.229-91.909 204.977-205.13 205.099h-0.012z" />
<glyph unicode="&#xe984;" d="M356.949 231.083h17.365v-0.427h268.459c6.955 0 13.653-1.28 19.755-3.627 3.157 8.491 4.907 17.621 4.907 27.179-0.092 24.129-11.114 45.665-28.37 59.926l-0.132 0.106c-5.991 37.491-38.098 65.796-76.816 65.796-27.235 0-51.199-14.005-65.082-35.206l-0.182-0.296c-13.999 21.611-37.993 35.708-65.28 35.708s-51.281-14.097-65.096-35.406l-0.184-0.302c-14.016 21.624-38.031 35.728-65.34 35.728-38.773 0-70.905-28.433-76.685-65.585l-0.056-0.436c-6.375-5.317-11.804-11.479-16.194-18.369l-0.19-0.319c37.38-39.728 90.301-64.469 148.999-64.469 0.042 0 0.085 0 0.127 0h-0.007zM481.195 641.28h-124.245c-14.763 0-29.099-1.621-42.965-4.565 8.235-22.613 19.456-44.331 33.451-64.427l55.68-80.213h78.080v149.205z" />
<glyph unicode="&#xe985;" d="M207.787 356.224c-3.968 0.003-7.397 2.311-9.019 5.658l-0.026 0.060c-10.464 21.774-16.578 47.339-16.578 74.332 0 18.063 2.738 35.487 7.821 51.878l-0.331-1.239c1.26 4.146 5.049 7.111 9.53 7.111 1.061 0 2.083-0.166 3.042-0.474l-0.070 0.020c4.119-1.276 7.059-5.052 7.059-9.514 0-1.051-0.163-2.064-0.465-3.015l0.019 0.070c-4.195-13.445-6.612-28.904-6.613-44.927v-0.001c0-23.040 4.949-45.099 14.677-65.707 0.589-1.238 0.933-2.691 0.933-4.224 0-5.521-4.462-9.999-9.976-10.027h-0.003zM235.392 537.259c-0.017 0-0.037 0-0.056 0-5.514 0-9.984 4.47-9.984 9.984 0 2.623 1.011 5.009 2.665 6.79l-0.006-0.006c5.403 5.867 11.058 11.265 17.042 16.283l0.281 0.229c1.718 1.455 3.959 2.34 6.407 2.34 3.082 0 5.836-1.402 7.66-3.604l0.013-0.017c3.541-4.267 2.987-10.581-1.28-14.080-5.552-4.663-10.566-9.461-15.255-14.562l-0.105-0.116c-1.832-1.996-4.452-3.243-7.364-3.243-0.006 0-0.012 0-0.018 0h0.001z" />
<glyph unicode="&#xe986;" d="M642.816-40.363h-490.965c-5.514 0-9.984 4.47-9.984 9.984v0c0 5.547 4.437 10.027 9.984 10.027h490.965c107.687 0.121 194.951 87.386 195.072 195.061v0.011c-0.121 107.687-87.386 194.951-195.061 195.072h-17.419c-1.038 0.011-2.035 0.166-2.978 0.446l0.077-0.020h-265.557c-36.405 0.024-65.914 29.518-65.963 65.915v0.005c0 36.395 29.568 65.963 65.963 65.963h114.261v129.152h-114.261c-107.702-0.121-194.975-87.41-195.072-195.105v-0.009c0.121-107.687 87.386-194.951 195.061-195.072h17.377c0.981 0 1.963-0.128 2.859-0.427h265.643c36.352 0 65.92-29.568 65.92-65.92s-29.568-65.92-65.92-65.92h-490.965c-5.514 0-9.984 4.47-9.984 9.984s4.47 9.984 9.984 9.984h490.965c25.379 0 45.952 20.573 45.952 45.952s-20.573 45.952-45.952 45.952v0h-268.501c-1.023 0.011-2.005 0.166-2.933 0.446l0.074-0.019h-14.507c-118.713 0.146-214.913 96.33-215.083 215.024v0.016c0.121 118.723 96.32 214.937 215.026 215.083h124.302c5.547 0 9.984-4.48 9.984-9.984v-149.163c0-5.514-4.47-9.984-9.984-9.984v0h-124.245c-25.344 0-45.952-20.608-45.952-45.952 0-25.301 20.608-45.909 45.952-45.909h268.459c0.981 0 1.963-0.171 2.859-0.427h14.507c118.732-0.121 214.956-96.315 215.125-215.024v-0.016c-0.121-118.747-96.339-214.98-215.069-215.125h-0.014zM775.808 482.304h-97.664c-5.538 0-10.027 4.489-10.027 10.027s4.489 10.027 10.027 10.027v0h97.664c5.538 0 10.027-4.489 10.027-10.027s-4.489-10.027-10.027-10.027v0zM847.872 482.304h-27.392c-5.538 0-10.027 4.489-10.027 10.027s4.489 10.027 10.027 10.027v0h27.392c5.538 0 10.027-4.489 10.027-10.027s-4.489-10.027-10.027-10.027v0z" />
<glyph unicode="&#xe987;" d="M336.853 290.987c1.163 3.469 1.835 7.463 1.835 11.614 0 20.807-16.868 37.675-37.675 37.675s-37.675-16.868-37.675-37.675c0-4.151 0.671-8.145 1.911-11.88l-0.077 0.266c-17.011-3.87-29.517-18.865-29.517-36.781 0-20.807 16.868-37.675 37.675-37.675 10.933 0 20.778 4.657 27.66 12.095l0.023 0.025c6.891-7.532 16.763-12.238 27.734-12.238 20.736 0 37.547 16.81 37.547 37.547 0 0.102 0 0.204-0.001 0.307v-0.016c-0.001 17.871-12.473 32.829-29.188 36.645l-0.252 0.048z" />
<glyph unicode="&#xe988;" d="M467.456 290.987c1.136 3.428 1.792 7.375 1.792 11.474 0 20.784-16.848 37.632-37.632 37.632s-37.632-16.848-37.632-37.632c0-4.1 0.656-8.046 1.868-11.74l-0.076 0.266c-17.011-3.87-29.517-18.865-29.517-36.781 0-20.807 16.868-37.675 37.675-37.675 10.933 0 20.778 4.657 27.66 12.095l0.023 0.025c6.888-7.504 16.742-12.19 27.691-12.19 20.736 0 37.547 16.81 37.547 37.547 0 0.086 0 0.171-0.001 0.257v-0.013c-0.018 17.865-12.482 32.814-29.187 36.645l-0.253 0.049z" />
<glyph unicode="&#xe989;" d="M597.973 290.987c1.163 3.469 1.835 7.463 1.835 11.614 0 20.807-16.868 37.675-37.675 37.675s-37.675-16.868-37.675-37.675c0-4.151 0.671-8.145 1.911-11.88l-0.077 0.266c-17.096-3.823-29.683-18.868-29.683-36.852 0-20.831 16.887-37.717 37.717-37.717 10.993 0 20.887 4.703 27.781 12.206l0.025 0.027c6.891-7.532 16.763-12.238 27.734-12.238 20.736 0 37.547 16.81 37.547 37.547 0 0.102 0 0.204-0.001 0.307v-0.016c-0.001 17.871-12.473 32.829-29.188 36.645l-0.252 0.048z" />
<glyph unicode="&#xe98a;" d="M301.013 238.635c2.773 0 5.461-1.152 7.339-3.2 5.063-5.439 12.264-8.831 20.256-8.831 15.27 0 27.648 12.378 27.648 27.648 0 13.103-9.115 24.077-21.35 26.927l-0.187 0.037c-2.805 0.638-5.118 2.379-6.502 4.731l-0.026 0.047c-0.827 1.437-1.314 3.16-1.314 4.997 0 1.080 0.169 2.12 0.481 3.097l-0.020-0.072c0.836 2.524 1.318 5.43 1.318 8.448 0 15.285-12.365 27.682-27.639 27.733h-0.005c-15.26-0.075-27.601-12.463-27.601-27.733 0-3.018 0.482-5.924 1.374-8.644l-0.056 0.196c0.284-0.899 0.447-1.933 0.447-3.005 0-1.842-0.482-3.571-1.327-5.068l0.027 0.052c-1.41-2.4-3.723-4.141-6.46-4.766l-0.068-0.013c-12.449-2.867-21.59-13.854-21.59-26.976 0-15.27 12.378-27.648 27.648-27.648 7.999 0 15.204 3.396 20.252 8.826l0.016 0.017c1.835 1.97 4.443 3.198 7.338 3.2v0zM328.661 206.635c-9.941 0-19.627 3.072-27.648 8.789-7.666-5.484-17.231-8.769-27.563-8.769-26.293 0-47.617 21.272-47.701 47.545v0.008c0 18.816 11.264 35.712 27.904 43.349-0.161 1.472-0.253 3.179-0.253 4.907 0 26.314 21.306 47.651 47.608 47.701h0.005c26.325-0.026 47.656-21.373 47.656-47.701 0-1.728-0.092-3.435-0.271-5.116l0.018 0.209c16.64-7.637 27.904-24.533 27.904-43.349 0-26.24-21.333-47.616-47.659-47.616z" />
<glyph unicode="&#xe98b;" d="M431.616 238.635c2.773 0 5.419-1.152 7.339-3.2 5.091-5.581 12.395-9.070 20.513-9.070 15.317 0 27.733 12.417 27.733 27.733 0 13.258-9.303 24.343-21.738 27.083l-0.184 0.034c-4.506 1.027-7.817 5-7.817 9.746 0 1.091 0.175 2.142 0.499 3.125l-0.020-0.071c0.836 2.524 1.318 5.43 1.318 8.448 0 15.285-12.365 27.682-27.639 27.733h-0.005c-15.278-0.051-27.643-12.448-27.643-27.733 0-3.018 0.482-5.924 1.374-8.644l-0.056 0.196c0.303-0.912 0.479-1.963 0.479-3.054 0-4.746-3.312-8.719-7.75-9.733l-0.067-0.013c-12.618-2.774-21.921-13.86-21.921-27.118 0-15.317 12.417-27.733 27.733-27.733 8.118 0 15.422 3.488 20.494 9.048l0.020 0.022c1.829 1.971 4.434 3.2 7.325 3.2 0.005 0 0.010 0 0.014 0h-0.001zM459.221 206.635c-9.941 0-19.627 3.072-27.605 8.789-7.674-5.503-17.255-8.799-27.605-8.799-26.303 0-47.634 21.289-47.701 47.577v0.006c0 18.816 11.307 35.712 27.904 43.349-0.19 1.599-0.299 3.452-0.299 5.33 0 26.345 21.357 47.701 47.701 47.701s47.701-21.357 47.701-47.701c0-1.878-0.109-3.73-0.32-5.551l0.021 0.222c16.597-7.637 27.904-24.533 27.904-43.349 0-26.24-21.376-47.616-47.701-47.616z" />
<glyph unicode="&#xe98c;" d="M562.133 238.635c2.773 0 5.461-1.152 7.339-3.2 5.091-5.581 12.395-9.070 20.513-9.070 15.317 0 27.733 12.417 27.733 27.733 0 13.258-9.303 24.343-21.738 27.083l-0.184 0.034c-4.502 1.087-7.794 5.080-7.794 9.843 0 1.071 0.166 2.103 0.475 3.072l-0.020-0.072c0.827 2.512 1.304 5.403 1.304 8.406 0 15.28-12.358 27.674-27.624 27.733h-0.006c-15.26-0.075-27.601-12.463-27.601-27.733 0-3.018 0.482-5.924 1.374-8.644l-0.056 0.196c0.284-0.899 0.447-1.933 0.447-3.005 0-1.842-0.482-3.571-1.327-5.068l0.027 0.052c-1.41-2.4-3.723-4.141-6.46-4.766l-0.068-0.013c-12.449-2.867-21.59-13.854-21.59-26.976 0-15.27 12.378-27.648 27.648-27.648 7.999 0 15.204 3.396 20.252 8.826l0.016 0.017c1.835 1.97 4.443 3.198 7.338 3.2v0zM589.739 206.635c-9.899 0-19.627 3.072-27.605 8.789-7.666-5.484-17.231-8.769-27.563-8.769-26.293 0-47.617 21.272-47.701 47.545v0.008c0 18.816 11.264 35.712 27.904 43.349-0.161 1.472-0.253 3.179-0.253 4.907 0 26.314 21.306 47.651 47.608 47.701h0.005c26.325-0.026 47.656-21.373 47.656-47.701 0-1.728-0.092-3.435-0.271-5.116l0.018 0.209c16.64-7.637 27.904-24.576 27.904-43.349 0-26.24-21.333-47.616-47.701-47.616zM301.013 108.8c-5.514 0-9.984 4.47-9.984 9.984v0 109.867c0 5.514 4.47 9.984 9.984 9.984s9.984-4.47 9.984-9.984v0-109.867c0-5.514-4.47-9.984-9.984-9.984v0zM431.616 108.8c-5.514 0-9.984 4.47-9.984 9.984v0 109.867c0 5.514 4.47 9.984 9.984 9.984s9.984-4.47 9.984-9.984v-109.867c0-5.514-4.47-9.984-9.984-9.984v0z" />
<glyph unicode="&#xe98d;" d="M562.133 108.8c-5.514 0-9.984 4.47-9.984 9.984v0 109.867c0 5.514 4.47 9.984 9.984 9.984s9.984-4.47 9.984-9.984v0-109.867c0-5.514-4.47-9.984-9.984-9.984v0z" />
<glyph unicode="&#xe98e;" d="M574.72 638.464c-0.013 0-0.028 0-0.043 0-52.902 0-95.787 42.885-95.787 95.787 0 52.887 42.861 95.762 95.742 95.787h0.002c0.006 0 0.014 0 0.021 0 52.902 0 95.787-42.885 95.787-95.787 0-52.894-42.873-95.774-95.764-95.787h-0.001zM581.077 949.931c-1.905 0.042-4.15 0.066-6.4 0.066s-4.495-0.024-6.734-0.071l0.334 0.006c-172.629-4.437-269.611-201.301-171.051-343.211l146.347-210.688c6.953-9.877 18.305-16.251 31.147-16.251s24.194 6.374 31.066 16.131l0.080 0.12 146.347 210.688c98.56 141.867 1.493 338.731-171.093 343.168z" />
<glyph unicode="&#xe98f;" d="M778.24 806.528c-36.239-9.174-65.375-33.887-80.374-66.454l-0.308-0.746c-10.925-5.484-20.285-12.282-28.375-20.354l0.002 0.002c-3.593-21.922-14.209-40.899-29.42-54.983l-0.062-0.057c-1.29-6.246-2.028-13.424-2.028-20.774 0-45.866 28.753-85.016 69.216-100.409l0.737-0.246 44.587 64.256c24.645 34.748 39.398 78.021 39.398 124.74 0 26.934-4.903 52.722-13.865 76.522l0.494-1.496zM478.123 790.272c0 41.387-22.656 77.611-56.32 96.853-52.608-53.205-76.587-132.608-57.6-208.341h2.475c61.526 0.097 111.373 49.959 111.445 111.481v0.007z" />
<glyph unicode="&#xe990;" d="M574.72 939.989l-6.272-0.085c-76.373-1.963-142.848-44.203-177.707-112.939-35.499-70.059-30.037-150.187 14.592-214.485l146.347-210.688c10.667-15.275 35.328-15.275 45.952 0l146.347 210.688c44.629 64.256 50.091 144.427 14.592 214.485-34.859 68.736-101.248 110.976-177.707 112.981l-6.144 0.043zM574.635 369.792c-15.659 0-30.421 7.68-39.381 20.565l-146.347 210.688c-48.896 70.4-54.912 158.293-16 234.965 38.229 75.435 111.147 121.728 195.115 123.904l6.699 0.085 6.656-0.085c83.925-2.133 156.843-48.469 195.115-123.904 38.869-76.715 32.853-164.565-16.043-234.965l-146.347-210.688c-8.96-12.885-23.723-20.565-39.424-20.565z" />
<glyph unicode="&#xe991;" d="M574.72 819.968c-47.317 0-85.76-38.485-85.76-85.76s38.443-85.76 85.76-85.76c47.189 0 85.76 38.485 85.76 85.76s-38.571 85.76-85.76 85.76zM574.72 628.48c-58.399 0.024-105.741 47.335-105.813 105.721v0.007c0.073 58.401 47.409 105.722 105.809 105.771h0.005c58.383-0.097 105.68-47.424 105.728-105.809v-0.005c-0.121-58.334-47.39-105.588-105.719-105.685h-0.009z" />
<glyph unicode="&#xe992;" d="M509.867 887.765c-5.506 0.042-9.952 4.515-9.952 10.026 0 4.189 2.568 7.777 6.216 9.277l0.067 0.024c2.477 1.037 6.37 2.429 10.317 3.701l1.416 0.395c0.893 0.29 1.92 0.457 2.987 0.457 5.519 0 9.993-4.474 9.993-9.993 0-4.452-2.912-8.225-6.935-9.516l-0.071-0.020c-4.729-1.491-8.167-2.738-11.554-4.086l1.186 0.417c-1.073-0.432-2.318-0.683-3.62-0.683-0.002 0-0.004 0-0.007 0v0zM430.293 619.819c-0.008 0-0.018 0-0.028 0-3.38 0-6.37 1.673-8.186 4.236l-0.021 0.031c-21.355 29.961-34.143 67.315-34.143 107.655 0 31.443 7.769 61.071 21.492 87.070l-0.49-1.019c12.199 23.993 28.49 44.196 48.155 60.462l0.315 0.253c1.704 1.411 3.912 2.267 6.32 2.267 3.107 0 5.881-1.425 7.704-3.657l0.014-0.018c3.499-4.267 2.901-10.581-1.408-14.080-17.824-14.78-32.363-32.836-42.823-53.321l-0.441-0.951c-11.826-22.343-18.768-48.84-18.768-76.959 0-36.069 11.423-69.47 30.849-96.782l-0.348 0.515c1.144-1.603 1.829-3.601 1.829-5.76 0-5.514-4.47-9.984-9.984-9.984-0.013 0-0.026 0-0.039 0h0.002z" />
<glyph unicode="&#xe993;" d="M158.507 841.728c-28.442 0-51.499-23.057-51.499-51.499s23.057-51.499 51.499-51.499v0h208.128c28.43 0 51.477 23.047 51.477 51.477s-23.047 51.477-51.477 51.477h-1.152c-0.7 20.068-17.137 36.071-37.312 36.071s-36.612-16.003-37.31-36.008l-0.002-0.064c0 35.888-29.093 64.981-64.981 64.981s-64.981-29.093-64.981-64.981h-2.389z" />
<glyph unicode="&#xe994;" d="M158.507 831.701c-22.104-1.034-39.633-19.206-39.633-41.472s17.529-40.438 39.54-41.469l0.093-0.003h208.128c22.885 0.048 41.424 18.587 41.472 41.467v0.005c-0.048 22.885-18.587 41.424-41.467 41.472h-0.005c-5.547 0-11.179 4.48-11.179 9.984-0.832 14.433-12.739 25.822-27.307 25.822s-26.475-11.389-27.303-25.749l-0.003-0.073c-0.353-5.249-4.698-9.373-10.005-9.373s-9.652 4.124-10.004 9.342l-0.002 0.031c0 0 0 0 0 0 0 30.368-24.594 54.991-54.95 55.040h-0.005c-30.379-0.024-54.997-24.657-54.997-55.040v0c0-5.514-4.47-9.984-9.984-9.984v0h-2.389zM366.635 728.747h-208.128c-1.933-0.216-4.174-0.339-6.444-0.339-33.932 0-61.44 27.508-61.44 61.44 0 33.738 27.193 61.124 60.857 61.437h0.030c4.958 37.063 36.351 65.357 74.363 65.408h0.005c29.781 0 55.595-17.493 67.669-42.752 8.665 9.243 20.951 15.001 34.582 15.001 22.797 0 41.832-16.107 46.345-37.562l0.054-0.309c30.635-4.267 53.547-29.952 53.547-60.843 0-33.877-27.563-61.44-61.44-61.44z" />
<glyph unicode="&#xe995;" d="M183.808 791.68h-25.301c-5.538 0-10.027 4.489-10.027 10.027s4.489 10.027 10.027 10.027h25.301c0 0 0 0 0 0 3.92 0 7.101 3.166 7.125 7.080v22.189c0 18.219 13.867 33.835 31.616 35.499 0.972 0.096 2.101 0.15 3.243 0.15 19.333 0 35.012-15.642 35.072-34.96v-0.006c-0.024-5.519-4.504-9.984-10.027-9.984 0 0 0 0 0 0v0c-5.514 0-9.984 4.47-9.984 9.984v0c-0.009 4.389-1.894 8.336-4.895 11.083l-0.011 0.010c-2.663 2.422-6.218 3.905-10.119 3.905-0.493 0-0.981-0.024-1.463-0.070l0.061 0.005c-7.646-1.006-13.486-7.481-13.486-15.321 0-0.119 0.001-0.237 0.004-0.356v0.018-22.144c0-14.987-12.149-27.136-27.136-27.136v0z" />
</font>
</defs>
</svg>
