<?xml version="1.0" encoding="UTF-8" standalone="no"?>
<svg
   xmlns:dc="http://purl.org/dc/elements/1.1/"
   xmlns:cc="http://creativecommons.org/ns#"
   xmlns:rdf="http://www.w3.org/1999/02/22-rdf-syntax-ns#"
   xmlns:svg="http://www.w3.org/2000/svg"
   xmlns="http://www.w3.org/2000/svg"
   xmlns:sodipodi="http://sodipodi.sourceforge.net/DTD/sodipodi-0.dtd"
   xmlns:inkscape="http://www.inkscape.org/namespaces/inkscape"
   width="1493.4579"
   height="240.16856"
   viewBox="0 0 1493.4579 240.16856"
   version="1.1"
   id="svg2"
   inkscape:version="0.91 r13725"
   sodipodi:docname="bg.svg">
  <metadata
     id="metadata17">
    <rdf:RDF>
      <cc:Work
         rdf:about="">
        <dc:format>image/svg+xml</dc:format>
        <dc:type
           rdf:resource="http://purl.org/dc/dcmitype/StillImage" />
        <dc:title>line</dc:title>
      </cc:Work>
    </rdf:RDF>
  </metadata>
  <sodipodi:namedview
     pagecolor="#ffffff"
     bordercolor="#666666"
     borderopacity="1"
     objecttolerance="10"
     gridtolerance="10"
     guidetolerance="10"
     inkscape:pageopacity="0"
     inkscape:pageshadow="2"
     inkscape:window-width="1871"
     inkscape:window-height="1056"
     id="namedview15"
     showgrid="false"
     fit-margin-top="0"
     fit-margin-left="0"
     fit-margin-right="0"
     fit-margin-bottom="0"
     inkscape:zoom="0.28193544"
     inkscape:cx="1797.7452"
     inkscape:cy="-98.75518"
     inkscape:window-x="49"
     inkscape:window-y="24"
     inkscape:window-maximized="1"
     inkscape:current-layer="svg2" />
  <!-- Generator: Sketch 49 (51002) - http://www.bohemiancoding.com/sketch -->
  <title
     id="title4">line</title>
  <desc
     id="desc6">Created with Sketch.</desc>
  <defs
     id="defs8" />
  <path
     style="fill:none;fill-rule:evenodd;stroke:#000000;stroke-width:1px;stroke-linecap:butt;stroke-linejoin:miter;stroke-opacity:1"
     d="M 1493.4145,3.7635545 C 1472.2744,1.9259135 1447.6898,228.95839 1418.1732,238.89278 1369.2334,255.36443 1377.557,7.7253015 1326.6295,0.6284981 1280.3736,-5.8173119 1280.817,230.30588 1238.8479,236.38473 1186.6045,243.95172 1197.0781,6.4072555 1148.5583,1.8825206 1100.7426,-2.5765586 1108.6203,249.58121 1053.8796,236.38473 1016.8929,227.46825 1006.7516,-12.566872 970.48714,1.8825206 919.03814,22.382096 926.76254,247.10787 878.31644,236.38474 839.70024,227.83737 837.30124,1.4772539 790.53492,3.7635544 752.32394,5.6316046 745.72621,250.6697 705.8884,236.38473 651.10452,216.74043 664.17682,-9.3164956 614.34476,4.3905657 569.54993,16.712059 572.56991,248.87222 524.99565,238.89278 476.52279,228.72483 482.19769,5.0960562 437.52758,3.1365432 390.63955,1.0797384 400.22398,241.24345 348.49198,238.89278 307.49845,237.03006 306.08463,8.9860635 263.53195,1.8825206 213.98782,-6.3881421 218.04796,242.72706 170.42078,238.89278 124.38304,235.18646 128.10114,-27.531259 74.415245,5.0208399 42.619165,24.300192 30.471405,240.1774 0.0258452,238.60155"
     id="path3345"
     inkscape:connector-curvature="0"
     sodipodi:nodetypes="cssssssssssssssssc" />
</svg>
