<?xml version="1.0" standalone="no"?>
<!DOCTYPE svg PUBLIC "-//W3C//DTD SVG 1.1//EN" "http://www.w3.org/Graphics/SVG/1.1/DTD/svg11.dtd" >
<svg xmlns="http://www.w3.org/2000/svg" xmlns:xlink="http://www.w3.org/1999/xlink" version="1.1">
<metadata>
Created by FontForge 20161003 at Thu Mar  8 08:39:18 2018
 By www-data
Copyright 2017 BlackFoundry
</metadata>
<defs>
<font id="ClotherLight" horiz-adv-x="0" >
  <font-face 
    font-family="ClotherLight"
    font-weight="300"
    font-stretch="normal"
    units-per-em="1000"
    panose-1="2 11 4 3 2 2 3 2 2 3"
    ascent="800"
    descent="-200"
    x-height="440"
    cap-height="685"
    bbox="-607 -433 1255 1119"
    underline-thickness="50"
    underline-position="-155"
    unicode-range="U+000D-FEFC"
  />
<missing-glyph horiz-adv-x="682" 
d="M587 0h-492v685h492v-685zM147 638v-591h388v591h-388z" />
    <glyph glyph-name="fi" unicode="fi" horiz-adv-x="532" 
d="M131 563q0 -19 6 -43t21 -66l5 -14h279v-440h-50v395h-225v-395h-50v395h-94v40l90 5l-5 14q-15 38 -21 63.5t-6 45.5q0 69 41 110.5t109 41.5q29 0 56.5 -10.5t48.5 -28.5l-30 -33q-14 13 -34.5 20t-40.5 7q-44 0 -72 -30t-28 -77zM457 584q0 -16 -11.5 -28t-28.5 -12
q-16 0 -28 12t-12 28q0 17 12 28.5t28 11.5q17 0 28.5 -11.5t11.5 -28.5z" />
    <glyph glyph-name="fl" unicode="fl" horiz-adv-x="532" 
d="M295 440v-45h-128v-395h-50v395h-94v40l90 5l-8 19q-12 28 -18 53t-6 45q0 74 44 116t121 42q44 0 81.5 -10.5t70.5 -32.5l4 33h40v-705h-50v618l1 7q-34 23 -70.5 34t-76.5 11q-53 0 -84 -30.5t-31 -82.5q0 -20 6 -45t18 -53l8 -19h132z" />
    <glyph glyph-name="allah" unicode="&#xfe8d;&#xfedf;&#xfee0;&#xfeea;" horiz-adv-x="1337" arabic-form="isolated" 
d="M621 764v147h38v-147h-38zM710 717l37 14q11 -30 12.5 -61t-5.5 -61q-14 -9 -28.5 -13.5t-27.5 -4.5q-19 0 -33 4.5t-23 13.5q-18 -10 -32 -14t-27 -4q-32 0 -47.5 18t-15.5 55v63h36v-66q0 -18 6.5 -25t24.5 -7q10 0 19.5 3t18.5 9q-3 8 -4 18.5t-1 25.5v34h36v-37
q0 -27 9.5 -38.5t30.5 -11.5q7 0 14.5 2t16.5 5q-2 21 -6.5 41t-10.5 37zM1255 705v-705h-48v705h48zM336 94q-23 -15 -54.5 -23t-63.5 -8q-68 0 -108.5 35.5t-40.5 95.5q0 76 67 129t196 77v40h48v-293q0 -50 21.5 -71t72.5 -21q49 0 86 14.5t60 43.5v432h48v-383
q0 -55 28 -81t88 -26q72 0 108 28t36 84v478h48v-474q0 -85 -49 -128t-144 -43q-51 0 -87.5 19t-51.5 54q-30 -34 -75 -53.5t-95 -19.5q-60 0 -94 23.5t-44 70.5zM115 196q0 -38 26.5 -58t76.5 -20q32 0 61 6.5t53 18.5v199q-105 -13 -161 -52t-56 -94z" />
    <glyph glyph-name="lam.init_ah.fina" unicode="&#xfedf;&#xfe82;" horiz-adv-x="471" arabic-form="isolated" 
d="M-39 717q18 -7 27 -9.5t16 -2.5q11 0 21.5 2.5t26.5 9.5l-4 -42q-14 -7 -24.5 -10.5t-22.5 -3.5q-9 0 -19 2.5t-29 10.5t-28 10.5t-16 2.5t-16 -2t-32 -10l4 42q14 7 25.5 10.5t21.5 3.5q9 0 19 -2.5t30 -11.5zM371 705v-507q0 -102 -56 -155t-164 -53q-30 0 -67 5.5
t-60 14.5v55q30 -9 66.5 -14.5t60.5 -5.5h18t11 1q-8 137 -61.5 255.5t-183.5 270.5l39 35q129 -157 187 -288t61 -267q53 12 77 49t24 106v498h48z" />
    <glyph glyph-name="lam.medi_ah.fina" unicode="&#xfee0;&#xfe82;" horiz-adv-x="492" arabic-form="final" 
d="M-39 717q18 -7 27 -9.5t16 -2.5q11 0 21.5 2.5t26.5 9.5l-4 -42q-14 -7 -24.5 -10.5t-22.5 -3.5q-9 0 -19 2.5t-29 10.5t-28 10.5t-16 2.5t-16 -2t-32 -10l4 42q14 7 25.5 10.5t21.5 3.5q9 0 19 -2.5t30 -11.5zM345 95q-22 -49 -74 -77t-120 -28q-30 0 -67 5.5t-60 14.5
v55q30 -9 66.5 -14.5t60.5 -5.5h18t11 1q-8 137 -61.5 255.5t-183.5 270.5l39 35q129 -157 187 -288t61 -267q53 12 77 50t24 110v493h48v-539q0 -60 25.5 -85.5t87.5 -25.5h8v-55h-8q-58 0 -92 23t-47 72z" />
    <glyph glyph-name="lam.init_alefHamzeAbove.fina" unicode="&#xfedf;&#xfe84;" horiz-adv-x="471" arabic-form="isolated" 
d="M371 705v-507q0 -102 -56 -155t-164 -53q-30 0 -67 5.5t-60 14.5v55q30 -9 66.5 -14.5t60.5 -5.5h18t11 1q-8 137 -61.5 255.5t-183.5 270.5l39 35q129 -157 187 -288t61 -267q53 12 77 49t24 106v498h48zM60 725v-38l-180 -27v38l47 8q-10 14 -14.5 29t-4.5 32
q0 30 20.5 48.5t53.5 18.5q19 0 35.5 -6.5t25.5 -18.5l-15 -27q-11 5 -25 8t-28 3q-9 0 -18 -1.5t-16 -4.5q1 -29 16 -50t34 -21q5 0 33 4t36 5z" />
    <glyph glyph-name="lam.medi_alefHamzeAbove.fina" unicode="&#xfee0;&#xfe84;" horiz-adv-x="492" arabic-form="final" 
d="M345 95q-22 -49 -74 -77t-120 -28q-30 0 -67 5.5t-60 14.5v55q30 -9 66.5 -14.5t60.5 -5.5h18t11 1q-8 137 -61.5 255.5t-183.5 270.5l39 35q129 -157 187 -288t61 -267q53 12 77 50t24 110v493h48v-539q0 -60 25.5 -85.5t87.5 -25.5h8v-55h-8q-58 0 -92 23t-47 72z
M60 725v-38l-180 -27v38l47 8q-10 14 -14.5 29t-4.5 32q0 30 20.5 48.5t53.5 18.5q19 0 35.5 -6.5t25.5 -18.5l-15 -27q-11 5 -25 8t-28 3q-9 0 -18 -1.5t-16 -4.5q1 -29 16 -50t34 -21q5 0 33 4t36 5z" />
    <glyph glyph-name="lam.init_alefHamzeBelow.fina" unicode="&#xfedf;&#xfe88;" horiz-adv-x="471" arabic-form="isolated" 
d="M371 705v-507q0 -102 -56 -155t-164 -53q-30 0 -67 5.5t-60 14.5v55q30 -9 66.5 -14.5t60.5 -5.5h18t11 1q-8 137 -61.5 255.5t-183.5 270.5l39 35q129 -157 187 -288t61 -267q53 12 77 49t24 106v498h48zM241 -156v-38l-180 -27v38l47 8q-10 14 -14.5 29t-4.5 32
q0 30 20.5 48.5t53.5 18.5q19 0 35.5 -6.5t25.5 -18.5l-15 -27q-18 9 -44.5 10.5t-42.5 -5.5q1 -29 16 -50t34 -21q5 0 33 4t36 5z" />
    <glyph glyph-name="lam.medi_alefHamzeBelow.fina" unicode="&#xfee0;&#xfe88;" horiz-adv-x="492" arabic-form="final" 
d="M345 95q-22 -49 -74 -77t-120 -28q-30 0 -67 5.5t-60 14.5v55q30 -9 66.5 -14.5t60.5 -5.5h18t11 1q-8 137 -61.5 255.5t-183.5 270.5l39 35q129 -157 187 -288t61 -267q53 12 77 50t24 110v493h48v-539q0 -60 25.5 -85.5t87.5 -25.5h8v-55h-8q-58 0 -92 23t-47 72z
M241 -156v-38l-180 -27v38l47 8q-10 14 -14.5 29t-4.5 32q0 30 20.5 48.5t53.5 18.5q19 0 35.5 -6.5t25.5 -18.5l-15 -27q-18 9 -44.5 10.5t-42.5 -5.5q1 -29 16 -50t34 -21q5 0 33 4t36 5z" />
    <glyph glyph-name="lam.init_alef.fina" unicode="&#xfedf;&#xfe8e;" horiz-adv-x="471" arabic-form="isolated" 
d="M371 705v-507q0 -102 -56 -155t-164 -53q-30 0 -67 5.5t-60 14.5v55q30 -9 66.5 -14.5t60.5 -5.5h18t11 1q-8 137 -61.5 255.5t-183.5 270.5l39 35q129 -157 187 -288t61 -267q53 12 77 49t24 106v498h48z" />
    <glyph glyph-name="lam.medi_alef.fina" unicode="&#xfee0;&#xfe8e;" horiz-adv-x="492" arabic-form="final" 
d="M345 95q-22 -49 -74 -77t-120 -28q-30 0 -67 5.5t-60 14.5v55q30 -9 66.5 -14.5t60.5 -5.5h18t11 1q-8 137 -61.5 255.5t-183.5 270.5l39 35q129 -157 187 -288t61 -267q53 12 77 50t24 110v493h48v-539q0 -60 25.5 -85.5t87.5 -25.5h8v-55h-8q-58 0 -92 23t-47 72z" />
    <glyph glyph-name="dotlessBeh.init" unicode="&#x66e;" horiz-adv-x="322" 
d="M11 0h-11q-9 0 -15 8t-6 19q0 12 6 20t15 8h5q58 0 107 9.5t89 28.5q0 92 -4.5 128.5t-13.5 79.5l48 11q15 -75 15.5 -135t-13.5 -118q-45 -30 -99.5 -44.5t-122.5 -14.5z" />
    <glyph glyph-name="dotlessBeh.medi" unicode="&#x66e;" horiz-adv-x="358" 
d="M4 0h-4q-9 0 -15 8t-6 19q0 12 6 20t15 8h7q50 0 89.5 15t62.5 43v144h48v-95q0 -55 35.5 -81t110.5 -26h5v-55h-20q-55 0 -97 20t-57 54q-28 -32 -77.5 -53t-102.5 -21z" />
    <glyph glyph-name="dotlessBeh.fina" unicode="&#x66e;" horiz-adv-x="820" 
d="M820 0h-11q-53 0 -91.5 16.5t-56.5 47.5q-60 -34 -148.5 -54t-179.5 -20q-136 0 -204.5 46.5t-68.5 138.5q0 31 11 63.5t33 63.5l32 -21q-16 -27 -23 -50.5t-7 -48.5q0 -68 57 -102.5t170 -34.5q86 0 161 14t145 43l-46 155l45 15l26 -89q25 -84 53.5 -106t96.5 -22h6
v-55z" />
    <glyph glyph-name="alefWavyHamzehAbove.fina" unicode="&#x672;" horiz-adv-x="269" 
d="M262 55h7v-55h-7q-79 0 -120.5 38.5t-41.5 112.5v554h48v-558q0 -45 29 -68.5t85 -23.5zM216 803l-120 -18q-15 -2 -29.5 0t-37.5 11q-13 6 -20 7.5t-13 1.5q-7 0 -16 -2t-32 -10l4 40q14 7 25.5 10.5t21.5 3.5q7 0 15 -2.5t23 -9.5q17 -9 27 -11.5t19 -1.5
q-10 14 -14.5 29t-4.5 32q0 30 20.5 48.5t53.5 18.5q19 0 35.5 -6.5t25.5 -18.5l-15 -27q-18 9 -44.5 10.5t-42.5 -5.5q1 -29 16 -50t34 -21q5 0 33 4t36 5v-38z" />
    <glyph glyph-name="hehHamzehAbove.fina" unicode="&#x6c2;" horiz-adv-x="553" 
d="M340 153q63 -60 104 -79t88 -19h21v-55h-13q-60 0 -110 21t-120 87q-54 50 -84 64.5t-62 14.5q-29 0 -54.5 -5.5t-49.5 -17.5l6 56q24 10 52.5 16t53.5 6q39 0 74.5 -17t93.5 -72zM255 378v-38l-180 -27v38l47 8q-10 14 -14.5 29t-4.5 32q0 30 20.5 48.5t53.5 18.5
q19 0 35.5 -6.5t25.5 -18.5l-15 -27q-18 9 -44.5 10.5t-42.5 -5.5q1 -29 16 -50t34 -21q5 0 33 4t36 5z" />
    <glyph glyph-name="hehTehUrdu.fina" unicode="&#x6c3;" horiz-adv-x="553" 
d="M340 153q63 -60 104 -79t88 -19h21v-55h-13q-60 0 -110 21t-120 87q-54 50 -84 64.5t-62 14.5q-29 0 -54.5 -5.5t-49.5 -17.5l6 56q24 10 52.5 16t53.5 6q39 0 74.5 -17t93.5 -72zM156 367l-52 -49l-52 49l52 50zM276 367l-52 -49l-52 49l52 50z" />
    <glyph glyph-name="alefWasleh.isol" unicode="&#x671;" horiz-adv-x="248" arabic-form="isolated" 
d="M148 705v-705h-48v705h48zM144 930q41 0 64 -35.5t13 -90.5q-12 -12 -26.5 -18.5t-30.5 -6.5q-10 0 -21.5 2.5t-32.5 11.5t-31.5 11.5t-20.5 2.5q-12 0 -23.5 -3t-26.5 -9l4 42q8 5 17.5 8.5t20.5 5.5q14 37 39 58t55 21zM186 841q0 18 -14 32.5t-32 14.5
q-15 0 -26.5 -10t-22.5 -30q5 -1 11 -3.5t17 -6.5q17 -8 26.5 -10.5t18.5 -2.5q11 0 16.5 4t5.5 12z" />
    <glyph glyph-name="alefWasleh.fina" unicode="&#x671;" horiz-adv-x="269" arabic-form="final" 
d="M262 55h7v-55h-7q-79 0 -120.5 38.5t-41.5 112.5v554h48v-558q0 -45 29 -68.5t85 -23.5zM144 930q41 0 64 -35.5t13 -90.5q-12 -12 -26.5 -18.5t-30.5 -6.5q-10 0 -21.5 2.5t-32.5 11.5t-31.5 11.5t-20.5 2.5q-12 0 -23.5 -3t-26.5 -9l4 42q8 5 17.5 8.5t20.5 5.5
q14 37 39 58t55 21zM186 841q0 18 -14 32.5t-32 14.5q-15 0 -26.5 -10t-22.5 -30q5 -1 11 -3.5t17 -6.5q17 -8 26.5 -10.5t18.5 -2.5q11 0 16.5 4t5.5 12z" />
    <glyph glyph-name="peh.isol" unicode="&#x67e;" horiz-adv-x="789" arabic-form="isolated" 
d="M383 45q88 0 164.5 12.5t120.5 35.5q0 92 -4.5 128.5t-13.5 79.5l48 11q15 -75 15.5 -135t-13.5 -118q-47 -32 -132.5 -50.5t-184.5 -18.5q-163 0 -243 47t-80 142q0 30 12 63t33 60l33 -22q-16 -24 -24 -48.5t-8 -51.5q0 -68 68.5 -101.5t208.5 -33.5zM377 -126l-52 -49
l-52 49l52 50zM497 -126l-52 -49l-52 49l52 50zM437 -216l-52 -49l-52 49l52 50z" />
    <glyph glyph-name="peh.fina" unicode="&#x67e;" horiz-adv-x="820" arabic-form="final" 
d="M820 0h-11q-53 0 -91.5 16.5t-56.5 47.5q-60 -34 -148.5 -54t-179.5 -20q-136 0 -204.5 46.5t-68.5 138.5q0 31 11 63.5t33 63.5l32 -21q-16 -27 -23 -50.5t-7 -48.5q0 -68 57 -102.5t170 -34.5q86 0 161 14t145 43l-46 155l45 15l26 -89q25 -84 53.5 -106t96.5 -22h6
v-55zM347 -126l-52 -49l-52 49l52 50zM467 -126l-52 -49l-52 49l52 50zM407 -216l-52 -49l-52 49l52 50z" />
    <glyph glyph-name="peh.init" unicode="&#x67e;" horiz-adv-x="322" arabic-form="initial" 
d="M11 0h-11q-9 0 -15 8t-6 19q0 12 6 20t15 8h5q58 0 107 9.5t89 28.5q0 92 -4.5 128.5t-13.5 79.5l48 11q15 -75 15.5 -135t-13.5 -118q-45 -30 -99.5 -44.5t-122.5 -14.5zM171 -126l-52 -49l-52 49l52 50zM291 -126l-52 -49l-52 49l52 50zM231 -216l-52 -49l-52 49l52 50
z" />
    <glyph glyph-name="peh.medi" unicode="&#x67e;" horiz-adv-x="358" arabic-form="medial" 
d="M4 0h-4q-9 0 -15 8t-6 19q0 12 6 20t15 8h7q50 0 89.5 15t62.5 43v144h48v-95q0 -55 35.5 -81t110.5 -26h5v-55h-20q-55 0 -97 20t-57 54q-28 -32 -77.5 -53t-102.5 -21zM177 -126l-52 -49l-52 49l52 50zM297 -126l-52 -49l-52 49l52 50zM237 -216l-52 -49l-52 49l52 50z
" />
    <glyph glyph-name="tehTa.isol" unicode="&#x679;" horiz-adv-x="789" arabic-form="isolated" 
d="M383 45q88 0 164.5 12.5t120.5 35.5q0 92 -4.5 128.5t-13.5 79.5l48 11q15 -75 15.5 -135t-13.5 -118q-47 -32 -132.5 -50.5t-184.5 -18.5q-163 0 -243 47t-80 142q0 30 12 63t33 60l33 -22q-16 -24 -24 -48.5t-8 -51.5q0 -68 68.5 -101.5t208.5 -33.5zM434 556
q33 0 54.5 -24t21.5 -61q0 -16 -3.5 -28t-11.5 -22q-29 -7 -66 -11t-79 -4q-28 0 -51 3.5t-43 11.5l13 39q14 -4 24 -6t20 -3q3 8 5 14t5 11v137h39v-92q16 18 34 26.5t38 8.5zM471 456q0 26 -13 41t-35 15q-25 0 -44.5 -16t-28.5 -46q41 0 72 1.5t49 4.5z" />
    <glyph glyph-name="tehTa.fina" unicode="&#x679;" horiz-adv-x="820" arabic-form="final" 
d="M820 0h-11q-53 0 -91.5 16.5t-56.5 47.5q-60 -34 -148.5 -54t-179.5 -20q-136 0 -204.5 46.5t-68.5 138.5q0 31 11 63.5t33 63.5l32 -21q-16 -27 -23 -50.5t-7 -48.5q0 -68 57 -102.5t170 -34.5q86 0 161 14t145 43l-46 155l45 15l26 -89q25 -84 53.5 -106t96.5 -22h6
v-55zM404 556q33 0 54.5 -24t21.5 -61q0 -16 -3.5 -28t-11.5 -22q-29 -7 -66 -11t-79 -4q-28 0 -51 3.5t-43 11.5l13 39q14 -4 24 -6t20 -3q3 8 5 14t5 11v137h39v-92q16 18 34 26.5t38 8.5zM441 456q0 26 -13 41t-35 15q-25 0 -44.5 -16t-28.5 -46q41 0 72 1.5t49 4.5z" />
    <glyph glyph-name="tehTa.init" unicode="&#x679;" horiz-adv-x="322" arabic-form="initial" 
d="M11 0h-11q-9 0 -15 8t-6 19q0 12 6 20t15 8h5q58 0 107 9.5t89 28.5q0 92 -4.5 128.5t-13.5 79.5l48 11q15 -75 15.5 -135t-13.5 -118q-45 -30 -99.5 -44.5t-122.5 -14.5zM201 574q33 0 54.5 -24t21.5 -61q0 -16 -3.5 -28t-11.5 -22q-29 -7 -66 -11t-79 -4q-28 0 -51 3.5
t-43 11.5l13 39q14 -4 24 -6t20 -3q3 8 5 14t5 11v137h39v-92q16 18 34 26.5t38 8.5zM238 474q0 26 -13 41t-35 15q-25 0 -44.5 -16t-28.5 -46q41 0 72 1.5t49 4.5z" />
    <glyph glyph-name="tehTa.medi" unicode="&#x679;" horiz-adv-x="358" arabic-form="medial" 
d="M4 0h-4q-9 0 -15 8t-6 19q0 12 6 20t15 8h7q50 0 89.5 15t62.5 43v144h48v-95q0 -55 35.5 -81t110.5 -26h5v-55h-20q-55 0 -97 20t-57 54q-28 -32 -77.5 -53t-102.5 -21zM234 529q33 0 54.5 -24t21.5 -61q0 -16 -3.5 -28t-11.5 -22q-29 -7 -66 -11t-79 -4q-28 0 -51 3.5
t-43 11.5l13 39q14 -4 24 -6t20 -3q3 8 5 14t5 11v137h39v-92q16 18 34 26.5t38 8.5zM271 429q0 26 -13 41t-35 15q-25 0 -44.5 -16t-28.5 -46q41 0 72 1.5t49 4.5z" />
    <glyph glyph-name="cheh.isol" unicode="&#x686;" horiz-adv-x="697" arabic-form="isolated" 
d="M378 -258q-153 0 -236.5 57.5t-83.5 161.5q0 135 123.5 221t349.5 104q-75 34 -150 53.5t-136 19.5q-57 0 -101 -8.5t-89 -27.5l-17 48q49 19 96 28t104 9q85 0 191.5 -33.5t198.5 -87.5l-13 -46q-242 -2 -377 -75t-135 -199q0 -84 67 -127t198 -43q55 0 99 5.5t87 16.5
l-4 -52q-33 -11 -80.5 -18t-91.5 -7zM329 38l-52 -49l-52 49l52 50zM449 38l-52 -49l-52 49l52 50zM389 -52l-52 -49l-52 49l52 50z" />
    <glyph glyph-name="cheh.fina" unicode="&#x686;" horiz-adv-x="697" arabic-form="final" 
d="M378 -258q-153 0 -236.5 57.5t-83.5 161.5q0 135 123.5 221t349.5 104q-75 34 -150 53.5t-136 19.5q-57 0 -101 -8.5t-89 -27.5l-17 48q49 19 96 28t104 9q85 0 191.5 -33.5t198.5 -87.5l-13 -42q-27 0 -53.5 -1t-56.5 -4q6 -101 47 -143t140 -42h5v-55h-7
q-112 0 -165 54.5t-60 176.5q-173 -22 -267.5 -91t-94.5 -173q0 -84 67 -127t198 -43q55 0 99 5.5t87 16.5l-4 -52q-33 -11 -80.5 -18t-91.5 -7zM329 38l-52 -49l-52 49l52 50zM449 38l-52 -49l-52 49l52 50zM389 -52l-52 -49l-52 49l52 50z" />
    <glyph glyph-name="cheh.init" unicode="&#x686;" horiz-adv-x="697" arabic-form="initial" 
d="M4 0h-4q-9 0 -15 8t-6 19q0 12 6 20t15 8h7q158 0 283.5 65t193.5 187q-61 26 -121 39t-118 13q-57 0 -101 -8.5t-89 -27.5l-17 48q49 19 96 28t104 9q85 0 191.5 -33.5t198.5 -87.5l-24 -43q-16 10 -34.5 20.5t-43.5 23.5q-72 -138 -208 -213t-314 -75zM318 -126
l-52 -49l-52 49l52 50zM438 -126l-52 -49l-52 49l52 50zM378 -216l-52 -49l-52 49l52 50z" />
    <glyph glyph-name="cheh.medi" unicode="&#x686;" horiz-adv-x="697" arabic-form="medial" 
d="M4 0h-4q-9 0 -15 8t-6 19q0 12 6 20t15 8h7q158 0 283.5 65t193.5 187q-61 26 -121 39t-118 13q-57 0 -101 -8.5t-89 -27.5l-17 48q49 19 96 28t104 9q85 0 191.5 -33.5t198.5 -87.5l-24 -43q-16 10 -34.5 20.5t-43.5 23.5q-7 -15 -15 -27.5t-16 -23.5q5 -100 47.5 -141
t149.5 -41h5v-55h-7q-110 0 -164.5 45t-66.5 144q-80 -92 -196 -140.5t-259 -48.5zM318 -126l-52 -49l-52 49l52 50zM438 -126l-52 -49l-52 49l52 50zM378 -216l-52 -49l-52 49l52 50z" />
    <glyph glyph-name="dalTa.isol" unicode="&#x688;" horiz-adv-x="541" arabic-form="isolated" 
d="M477 43q-41 -28 -95.5 -40.5t-131.5 -12.5q-69 0 -130 11.5t-100 32.5l25 55q49 -22 104.5 -33t113.5 -11t98 6.5t73 21.5q-21 88 -80.5 165.5t-143.5 126.5l27 44q97 -52 167 -156.5t73 -209.5zM241 643q33 0 54.5 -24t21.5 -61q0 -16 -3.5 -28t-11.5 -22
q-29 -7 -66 -11t-79 -4q-28 0 -51 3.5t-43 11.5l13 39q14 -4 24 -6t20 -3q3 8 5 14t5 11v137h39v-92q16 18 34 26.5t38 8.5zM278 543q0 26 -13 41t-35 15q-25 0 -44.5 -16t-28.5 -46q41 0 72 1.5t49 4.5z" />
    <glyph glyph-name="dalTa.fina" unicode="&#x688;" horiz-adv-x="578" arabic-form="final" 
d="M341 171l-107 242l46 20l108 -247q16 -35 33 -60t36 -41q20 -16 44.5 -23t71.5 -7h5v-55h-12q-59 0 -92.5 12.5t-61.5 41.5q-46 -34 -94 -49t-108 -15q-50 0 -104 12.5t-86 31.5l25 55q45 -22 89.5 -33t88.5 -11q45 0 82.5 9.5t80.5 33.5q-11 15 -22 36t-23 47zM250 659
q33 0 54.5 -24t21.5 -61q0 -16 -3.5 -28t-11.5 -22q-29 -7 -66 -11t-79 -4q-28 0 -51 3.5t-43 11.5l13 39q14 -4 24 -6t20 -3q3 8 5 14t5 11v137h39v-92q16 18 34 26.5t38 8.5zM287 559q0 26 -13 41t-35 15q-25 0 -44.5 -16t-28.5 -46q41 0 72 1.5t49 4.5z" />
    <glyph glyph-name="zheh.isol" unicode="&#x698;" horiz-adv-x="512" arabic-form="isolated" 
d="M412 65q0 -63 -20.5 -119t-60.5 -101q-41 -48 -97 -75.5t-111 -27.5q-27 0 -53 4.5t-50 13.5l11 38q20 -4 37 -5.5t34 -1.5q94 0 169 62.5t98 166.5q-1 60 -14.5 119t-46.5 141l49 22q29 -78 42 -134t13 -103zM334 567l-52 -49l-52 49l52 50zM274 477l-52 -49l-52 49
l52 50zM394 477l-52 -49l-52 49l52 50z" />
    <glyph glyph-name="zheh.fina" unicode="&#x698;" horiz-adv-x="544" arabic-form="final" 
d="M386 88q-3 6 -6.5 14t-15.5 34l-61 145l46 19l64 -154q25 -61 48 -76t78 -15h5v-55h-11q-45 0 -72.5 10.5t-47.5 34.5q-6 -60 -28.5 -112.5t-60.5 -94.5q-42 -45 -95 -70.5t-106 -25.5q-27 0 -53 4.5t-50 13.5l11 38q20 -4 37 -5.5t34 -1.5q110 0 186.5 78t97.5 219z
M334 567l-52 -49l-52 49l52 50zM274 477l-52 -49l-52 49l52 50zM394 477l-52 -49l-52 49l52 50z" />
    <glyph glyph-name="rehTa.isol" unicode="&#x691;" horiz-adv-x="512" arabic-form="isolated" 
d="M412 65q0 -63 -20.5 -119t-60.5 -101q-41 -48 -97 -75.5t-111 -27.5q-27 0 -53 4.5t-50 13.5l11 38q20 -4 37 -5.5t34 -1.5q94 0 169 62.5t98 166.5q-1 60 -14.5 119t-46.5 141l49 22q29 -78 42 -134t13 -103zM331 574q33 0 54.5 -24t21.5 -61q0 -16 -3.5 -28t-11.5 -22
q-29 -7 -66 -11t-79 -4q-28 0 -51 3.5t-43 11.5l13 39q14 -4 24 -6t20 -3q3 8 5 14t5 11v137h39v-92q16 18 34 26.5t38 8.5zM368 474q0 26 -13 41t-35 15q-25 0 -44.5 -16t-28.5 -46q41 0 72 1.5t49 4.5z" />
    <glyph glyph-name="rehTa.fina" unicode="&#x691;" horiz-adv-x="544" arabic-form="final" 
d="M386 88q-3 6 -6.5 14t-15.5 34l-61 145l46 19l64 -154q25 -61 48 -76t78 -15h5v-55h-11q-45 0 -72.5 10.5t-47.5 34.5q-6 -60 -28.5 -112.5t-60.5 -94.5q-42 -45 -95 -70.5t-106 -25.5q-27 0 -53 4.5t-50 13.5l11 38q20 -4 37 -5.5t34 -1.5q110 0 186.5 78t97.5 219z
M331 574q33 0 54.5 -24t21.5 -61q0 -16 -3.5 -28t-11.5 -22q-29 -7 -66 -11t-79 -4q-28 0 -51 3.5t-43 11.5l13 39q14 -4 24 -6t20 -3q3 8 5 14t5 11v137h39v-92q16 18 34 26.5t38 8.5zM368 474q0 26 -13 41t-35 15q-25 0 -44.5 -16t-28.5 -46q41 0 72 1.5t49 4.5z" />
    <glyph glyph-name="kaf.isol" unicode="&#x6a9;" horiz-adv-x="779" arabic-form="isolated" 
d="M106 180q0 -67 63 -101t187 -34q125 0 201.5 21t94.5 59q0 23 -15 55t-51 82l-142 203q-10 14 -13.5 21.5t-3.5 14.5q0 9 4.5 17t14.5 16q64 57 157 107.5t176 73.5l13 -46q-86 -27 -170 -71.5t-146 -97.5q168 -235 193 -279t25 -79q0 -72 -87 -112t-249 -40
q-147 0 -222.5 48t-75.5 141q0 31 12 63t33 60l33 -22q-15 -22 -23.5 -48t-8.5 -52z" />
    <glyph glyph-name="kaf.fina" unicode="&#x6a9;" horiz-adv-x="887" arabic-form="final" 
d="M882 55h5v-55h-10q-58 0 -104.5 18t-87.5 57q-50 -37 -141 -61t-187 -24q-145 0 -221 48.5t-76 140.5q0 31 12 63t33 60l33 -22q-15 -22 -23.5 -48t-8.5 -52q0 -66 64 -100.5t187 -34.5q90 0 165.5 17t129.5 50q-7 8 -13 16l-12 16l-226 321q-10 14 -13.5 21.5t-3.5 14.5
q0 9 4.5 17t14.5 16q64 57 157 107.5t176 73.5l13 -46q-86 -27 -170 -71.5t-146 -97.5l198 -277q67 -93 119.5 -130.5t131.5 -37.5z" />
    <glyph glyph-name="kaf.init" unicode="&#x6a9;" horiz-adv-x="423" arabic-form="initial" 
d="M338 142q0 -67 -87.5 -104.5t-250.5 -37.5q-9 0 -15 8t-6 19q0 12 6 20t15 8q134 0 206 16.5t90 53.5q0 23 -14 52.5t-52 84.5l-142 203q-10 14 -13.5 21.5t-3.5 14.5q0 9 4.5 17t14.5 16q64 57 157 107.5t176 73.5l13 -46q-86 -27 -170 -71.5t-146 -97.5
q168 -235 193 -279t25 -79z" />
    <glyph glyph-name="kaf.medi" unicode="&#x6a9;" horiz-adv-x="540" arabic-form="medial" 
d="M337 76q-49 -33 -142.5 -54.5t-194.5 -21.5q-9 0 -15 8t-6 19q0 12 6 20t15 8q103 0 179 14.5t125 42.5q-10 12 -15 19t-9 13l-226 321q-10 14 -13.5 21.5t-3.5 14.5q0 9 4.5 17t14.5 16q64 57 157 107.5t176 73.5l13 -46q-86 -27 -170 -71.5t-146 -97.5l198 -277
q67 -93 119.5 -130.5t131.5 -37.5h5v-55h-10q-58 0 -105 18.5t-88 57.5z" />
    <glyph glyph-name="gaf.isol" unicode="&#x6af;" horiz-adv-x="779" arabic-form="isolated" 
d="M459 616l-26 36q54 39 122 77t130 64l19 -38q-59 -25 -124.5 -62t-120.5 -77zM106 180q0 -67 63 -101t187 -34q125 0 201.5 21t94.5 59q0 23 -15 55t-51 82l-142 203q-10 14 -13.5 21.5t-3.5 14.5q0 9 4.5 17t14.5 16q64 57 157 107.5t176 73.5l13 -46
q-86 -27 -170 -71.5t-146 -97.5q168 -235 193 -279t25 -79q0 -72 -87 -112t-249 -40q-147 0 -222.5 48t-75.5 141q0 31 12 63t33 60l33 -22q-15 -22 -23.5 -48t-8.5 -52z" />
    <glyph glyph-name="gaf.fina" unicode="&#x6af;" horiz-adv-x="887" arabic-form="final" 
d="M416 616l-26 36q54 39 122 77t130 64l19 -38q-59 -25 -124.5 -62t-120.5 -77zM882 55h5v-55h-10q-58 0 -104.5 18t-87.5 57q-50 -37 -141 -61t-187 -24q-145 0 -221 48.5t-76 140.5q0 31 12 63t33 60l33 -22q-15 -22 -23.5 -48t-8.5 -52q0 -66 64 -100.5t187 -34.5
q91 0 166.5 17t128.5 50q-7 8 -13 16l-12 16l-226 321q-10 14 -13.5 21.5t-3.5 14.5q0 9 4.5 17t14.5 16q64 57 157 107.5t176 73.5l13 -46q-86 -27 -170 -71.5t-146 -97.5l198 -277q67 -93 119.5 -130.5t131.5 -37.5z" />
    <glyph glyph-name="gaf.init" unicode="&#x6af;" horiz-adv-x="423" arabic-form="initial" 
d="M103 616l-26 36q54 39 122 77t130 64l19 -38q-59 -25 -124.5 -62t-120.5 -77zM338 142q0 -67 -87.5 -104.5t-250.5 -37.5q-9 0 -15 8t-6 19q0 12 6 20t15 8q134 0 206 16.5t90 53.5q0 23 -14 52.5t-52 84.5l-142 203q-10 14 -13.5 21.5t-3.5 14.5q0 9 4.5 17t14.5 16
q64 57 157 107.5t176 73.5l13 -46q-86 -27 -170 -71.5t-146 -97.5q168 -235 193 -279t25 -79z" />
    <glyph glyph-name="gaf.medi" unicode="&#x6af;" horiz-adv-x="540" arabic-form="medial" 
d="M69 616l-26 36q54 39 122 77t130 64l19 -38q-59 -25 -124.5 -62t-120.5 -77zM337 76q-50 -33 -143.5 -54.5t-193.5 -21.5q-9 0 -15 8t-6 19q0 12 6 20t15 8q103 0 179 14.5t125 42.5q-10 12 -15 19t-9 13l-226 321q-10 14 -13.5 21.5t-3.5 14.5q0 9 4.5 17t14.5 16
q64 57 157 107.5t176 73.5l13 -46q-86 -27 -170 -71.5t-146 -97.5l198 -277q67 -93 119.5 -130.5t131.5 -37.5h5v-55h-10q-58 0 -105 18.5t-88 57.5z" />
    <glyph glyph-name="noonGhuna.isol" unicode="&#x6ba;" horiz-adv-x="703" arabic-form="isolated" 
d="M493 355l48 22q52 -105 69.5 -238t-10.5 -235q-40 -37 -112.5 -58t-159.5 -21q-130 0 -199 56.5t-69 163.5q0 44 19 94.5t56 102.5l33 -21q-34 -57 -47.5 -95.5t-13.5 -74.5q0 -88 55.5 -129.5t172.5 -41.5q70 0 129 13t102 39q13 97 -6.5 208.5t-66.5 214.5z" />
    <glyph glyph-name="noonGhuna.fina" unicode="&#x6ba;" horiz-adv-x="757" arabic-form="final" 
d="M614 50q6 -57 2.5 -109t-16.5 -97q-40 -37 -112.5 -58t-159.5 -21q-130 0 -199 56.5t-69 163.5q0 44 19 94.5t56 102.5l33 -21q-34 -57 -47.5 -95.5t-13.5 -74.5q0 -88 55.5 -129.5t172.5 -41.5q70 0 129 13t102 39q13 97 -6.5 208.5t-66.5 214.5l48 22q19 -49 31 -81
t22 -60q29 -80 57 -100.5t100 -20.5h6v-55h-6q-54 0 -84.5 11.5t-52.5 38.5z" />
    <glyph glyph-name="hehUrdu.isol" unicode="&#x6c1;" horiz-adv-x="470" arabic-form="isolated" 
d="M60 146q0 66 39 123.5t117 107.5q93 -27 143.5 -85t50.5 -134q0 -75 -50 -121.5t-130 -46.5q-77 0 -123.5 43t-46.5 113zM220 320q-57 -35 -85.5 -77t-28.5 -90q0 -50 33.5 -79t91.5 -29q63 0 98 31t35 87q0 52 -36.5 91.5t-107.5 65.5z" />
    <glyph glyph-name="hehUrdu.fina" unicode="&#x6c1;" horiz-adv-x="553" arabic-form="final" 
d="M340 153q63 -60 104 -79t88 -19h21v-55h-13q-60 0 -110 21t-120 87q-54 50 -84 64.5t-62 14.5q-29 0 -54.5 -5.5t-49.5 -17.5l6 56q24 10 52.5 16t53.5 6q39 0 74.5 -17t93.5 -72z" />
    <glyph glyph-name="hehUrdu.init" unicode="&#x6c1;" horiz-adv-x="319" arabic-form="initial" 
d="M11 0h-11q-9 0 -15 8t-6 19q0 12 6 20t15 8h5q58 0 107 9.5t89 28.5q0 48 -5 84t-16 74l48 11q14 -53 15.5 -102.5t-10.5 -100.5q-45 -30 -99.5 -44.5t-122.5 -14.5zM156 -112q0 -8 3 -12t11 -5q12 -1 20.5 -11.5t8.5 -25.5q0 -16 -10.5 -27t-25.5 -11q-20 0 -34.5 17.5
t-14.5 43.5q0 21 6.5 43.5t17.5 41.5l29 -11q-5 -12 -8 -24t-3 -19z" />
    <glyph glyph-name="hehUrdu.medi" unicode="&#x6c1;" horiz-adv-x="555" arabic-form="medial" 
d="M7 0h-7q-9 0 -15 8t-6 19q0 12 6 20t15 8h7q76 0 120.5 50t64.5 156l49 -7q-19 -141 6.5 -221.5t115.5 -159.5q-16 84 29 133t138 49h25v-55h-11q-100 0 -131 -39t-1 -127l-34 -39q-88 57 -136.5 139.5t-47.5 173.5q-30 -53 -78 -80.5t-109 -27.5z" />
    <glyph glyph-name="hehDocheshm.isol" unicode="&#x6be;" horiz-adv-x="623" arabic-form="isolated" 
d="M242 29q-28 -13 -64 -26t-111 -35l-53 -16l-16 51l46 13q76 22 98.5 29t39.5 14q-64 38 -97.5 86.5t-33.5 102.5q0 73 47 117t125 44q10 0 19 -1t17 -3l21 45q127 -55 205 -150t78 -190q0 -57 -27 -93.5t-71 -36.5q-51 0 -110 13t-113 36zM221 354q-57 0 -89.5 -28.5
t-32.5 -77.5q0 -48 36.5 -90.5t103.5 -73.5q55 28 79.5 67t24.5 97q0 48 -33.5 77t-88.5 29zM457 32q28 0 43 18.5t15 53.5q0 57 -42.5 123t-115.5 118q17 -22 25.5 -46.5t8.5 -51.5q0 -62 -22.5 -108t-70.5 -79q40 -13 81 -20.5t78 -7.5z" />
    <glyph glyph-name="hehDocheshm.fina" unicode="&#x6be;" horiz-adv-x="490" arabic-form="final" 
d="M18 -19l-4 54l81 7v10q0 67 27 147.5t72 151.5q22 35 34.5 47t26.5 12q13 0 24 -8t29 -33q48 -63 68 -111t20 -101q0 -25 -8.5 -50.5t-25.5 -51.5h128v-55h-83q23 -20 35 -45t12 -56q0 -62 -37 -98t-101 -36q-83 0 -142.5 60.5t-74.5 162.5zM253 356q-50 -71 -80 -155
t-30 -149v-5l102 9q49 4 76 30.5t27 69.5q0 49 -23 97t-72 103zM406 -101q0 53 -42.5 81.5t-116.5 21.5l-100 -9q11 -83 55 -128t114 -45q43 0 66.5 20.5t23.5 58.5z" />
    <glyph glyph-name="hehDocheshm.init" unicode="&#x6be;" horiz-adv-x="623" arabic-form="initial" 
d="M53 0h-53q-9 0 -15 8t-6 19q0 12 6 20t15 8h46q35 0 66 3t57 9q-58 39 -88 84.5t-30 96.5q0 73 47 117t125 44q10 0 19 -1t17 -3l21 45q127 -55 205 -150t78 -190q0 -57 -27 -93.5t-71 -36.5q-54 0 -115.5 14t-116.5 39q-38 -16 -84 -24.5t-96 -8.5zM221 354
q-57 0 -89.5 -28.5t-32.5 -77.5q0 -46 34.5 -87.5t97.5 -73.5q55 24 83.5 65t28.5 96q0 48 -33.5 77t-88.5 29zM457 32q28 0 43 18.5t15 53.5q0 57 -42.5 123t-115.5 118q17 -21 25.5 -46t8.5 -52q0 -57 -26 -104t-76 -80q42 -15 85.5 -23t82.5 -8z" />
    <glyph glyph-name="hehDocheshm.medi" unicode="&#x6be;" horiz-adv-x="490" arabic-form="medial" 
d="M98 0h-98q-9 0 -15 8t-6 19q0 12 6 20t15 8h95q1 67 27.5 146.5t71.5 149.5q22 35 34.5 47t26.5 12q13 0 24 -8t29 -33q48 -63 68 -111t20 -101q0 -25 -8.5 -50.5t-25.5 -51.5h128v-55h-83q23 -20 35 -45t12 -56q0 -62 -37 -98t-101 -36q-86 0 -146 64t-72 171zM348 156
q0 49 -23 97t-72 103q-49 -70 -79.5 -154t-30.5 -147h116q39 0 64 28.5t25 72.5zM406 -101q0 47 -38 74t-104 27h-118q10 -87 54.5 -133.5t115.5 -46.5q43 0 66.5 20.5t23.5 58.5z" />
    <glyph glyph-name="yehBaree.isol" unicode="&#x6d2;" horiz-adv-x="591" arabic-form="isolated" 
d="M60 163q0 75 52 123.5t127 48.5q24 0 47.5 -5t36.5 -13l-18 -50q-16 6 -36.5 9.5t-41.5 3.5q-53 0 -86 -31t-33 -80q0 -54 33.5 -84t95.5 -30h274l-6 -55h-260q-83 0 -134 44.5t-51 118.5z" />
    <glyph glyph-name="yehBaree.fina" unicode="&#x6d2;" horiz-adv-x="513" arabic-form="final" 
d="M60 -96q0 67 51.5 109t135.5 42h266v-55h-276q-63 0 -96 -25.5t-33 -73.5q0 -51 33.5 -77.5t98.5 -26.5h228l-4 -55h-207q-95 0 -146 42t-51 120z" />
    <glyph glyph-name="yehBareeHamzehAbove.isol" unicode="&#x6d3;" horiz-adv-x="591" arabic-form="isolated" 
d="M60 163q0 75 52 123.5t127 48.5q24 0 47.5 -5t36.5 -13l-18 -50q-16 6 -36.5 9.5t-41.5 3.5q-53 0 -86 -31t-33 -80q0 -54 33.5 -84t95.5 -30h274l-6 -55h-260q-83 0 -134 44.5t-51 118.5zM321 461v-38l-180 -27v38l47 8q-10 14 -14.5 29t-4.5 32q0 30 20.5 48.5
t53.5 18.5q19 0 35.5 -6.5t25.5 -18.5l-15 -27q-18 9 -44.5 10.5t-42.5 -5.5q1 -29 16 -50t34 -21q5 0 33 4t36 5z" />
    <glyph glyph-name="yehBareeHamzehAbove.fina" unicode="&#x6d3;" horiz-adv-x="513" arabic-form="final" 
d="M60 -96q0 67 51.5 109t135.5 42h266v-55h-276q-63 0 -96 -25.5t-33 -73.5q0 -51 33.5 -77.5t98.5 -26.5h228l-4 -55h-207q-95 0 -146 42t-51 120zM345 191v-38l-180 -27v38l47 8q-10 14 -14.5 29t-4.5 32q0 30 20.5 48.5t53.5 18.5q19 0 35.5 -6.5t25.5 -18.5l-15 -27
q-18 9 -44.5 10.5t-42.5 -5.5q1 -29 16 -50t34 -21q5 0 33 4t36 5z" />
    <glyph glyph-name="yeh.isol" unicode="&#x6cc;" horiz-adv-x="704" arabic-form="isolated" 
d="M335 -210q-135 0 -205 55t-70 162q0 30 12 63t33 60l33 -22q-16 -24 -24 -48.5t-8 -51.5q0 -80 58.5 -121.5t170.5 -41.5q103 0 186 38t111 92q-3 22 -26 41.5t-99 52.5q-54 24 -80 38.5t-44 29.5q-33 25 -49 55t-16 65q0 67 54 117t132 50q62 0 113 -36t72 -91l-32 -25
q-36 50 -78 73.5t-95 23.5q-52 0 -85 -33t-33 -79q0 -38 30.5 -68t128.5 -73q90 -38 117.5 -64t27.5 -57q0 -42 -34.5 -85t-93.5 -73q-45 -23 -97.5 -35t-109.5 -12z" />
    <glyph glyph-name="yeh.fina" unicode="&#x6cc;" horiz-adv-x="758" arabic-form="final" 
d="M409 0h-11l24 55h336v-55h-143q9 -8 13.5 -18t4.5 -22q0 -37 -34 -83t-89 -80q-44 -27 -95.5 -41t-106.5 -14q-118 0 -183 54t-65 151q0 52 21 114.5t57 119.5l35 -18q-30 -55 -47.5 -109.5t-17.5 -95.5q0 -79 52.5 -120.5t153.5 -40.5q103 1 178.5 47t97.5 119
q-21 17 -70 27t-111 10z" />
    <glyph glyph-name="yeh.init" unicode="&#x6cc;" horiz-adv-x="322" arabic-form="initial" 
d="M11 0h-11q-9 0 -15 8t-6 19q0 12 6 20t15 8h5q58 0 107 9.5t89 28.5q0 92 -4.5 128.5t-13.5 79.5l48 11q15 -75 15.5 -135t-13.5 -118q-45 -30 -99.5 -44.5t-122.5 -14.5zM171 -126l-52 -49l-52 49l52 50zM291 -126l-52 -49l-52 49l52 50z" />
    <glyph glyph-name="yeh.medi" unicode="&#x6cc;" horiz-adv-x="358" arabic-form="medial" 
d="M4 0h-4q-9 0 -15 8t-6 19q0 12 6 20t15 8h7q50 0 89.5 15t62.5 43v144h48v-95q0 -55 35.5 -81t110.5 -26h5v-55h-20q-55 0 -97 20t-57 54q-28 -32 -77.5 -53t-102.5 -21zM177 -126l-52 -49l-52 49l52 50zM297 -126l-52 -49l-52 49l52 50z" />
    <glyph glyph-name="tashdid_zamehTanvin.cmps" unicode="&#xfc5e;" arabic-form="isolated" 
d="M114 769q-14 -9 -28.5 -13.5t-27.5 -4.5q-19 0 -33 4.5t-23 13.5q-18 -10 -32 -14t-27 -4q-32 0 -47.5 18t-15.5 55v63h36v-66q0 -18 6.5 -25t24.5 -7q10 0 19.5 3t18.5 9q-3 8 -4 18.5t-1 25.5v34h36v-37q0 -27 9.5 -38.5t30.5 -11.5q7 0 14.5 2t16.5 5q-2 21 -6.5 41
t-10.5 37l37 14q11 -30 12.5 -61t-5.5 -61zM-28 1043q0 33 21 54.5t53 21.5q34 0 55 -21.5t21 -55.5q0 -48 -36.5 -75t-101.5 -27h-105v38h125q-15 12 -23.5 29.5t-8.5 35.5zM86 1040q0 18 -11 29.5t-29 11.5q-17 0 -27.5 -10.5t-10.5 -27.5q0 -20 10.5 -34.5t31.5 -23.5
q19 8 27.5 21t8.5 34z" />
    <glyph glyph-name="fathehTanvin_tashdid.cmps" unicode="&#xfc5f;" arabic-form="isolated" 
d="M91 865v-38l-180 -27v38zM91 785v-38l-180 -27v38zM104 949q-14 -9 -28.5 -13.5t-27.5 -4.5q-19 0 -33 4.5t-23 13.5q-18 -10 -32 -14t-27 -4q-32 0 -47.5 18t-15.5 55v63h36v-66q0 -18 6.5 -25t24.5 -7q10 0 19.5 3t18.5 9q-3 8 -4 18.5t-1 25.5v34h36v-37
q0 -27 9.5 -38.5t30.5 -11.5q7 0 14.5 2t16.5 5q-2 21 -6.5 41t-10.5 37l37 14q11 -30 12.5 -61t-5.5 -61z" />
    <glyph glyph-name="tashdid_fatheh.cmps" unicode="&#xfc60;" arabic-form="isolated" 
d="M114 769q-14 -9 -28.5 -13.5t-27.5 -4.5q-19 0 -33 4.5t-23 13.5q-18 -10 -32 -14t-27 -4q-32 0 -47.5 18t-15.5 55v63h36v-66q0 -18 6.5 -25t24.5 -7q10 0 19.5 3t18.5 9q-3 8 -4 18.5t-1 25.5v34h36v-37q0 -27 9.5 -38.5t30.5 -11.5q7 0 14.5 2t16.5 5q-2 21 -6.5 41
t-10.5 37l37 14q11 -30 12.5 -61t-5.5 -61zM91 990v-38l-180 -27v38z" />
    <glyph glyph-name="tashdid_zameh.cmps" unicode="&#xfc61;" arabic-form="isolated" 
d="M114 769q-14 -9 -28.5 -13.5t-27.5 -4.5q-19 0 -33 4.5t-23 13.5q-18 -10 -32 -14t-27 -4q-32 0 -47.5 18t-15.5 55v63h36v-66q0 -18 6.5 -25t24.5 -7q10 0 19.5 3t18.5 9q-3 8 -4 18.5t-1 25.5v34h36v-37q0 -27 9.5 -38.5t30.5 -11.5q7 0 14.5 2t16.5 5q-2 21 -6.5 41
t-10.5 37l37 14q11 -30 12.5 -61t-5.5 -61zM-16 930h-105v38q14 1 21.5 6t7.5 14q0 10 -7.5 15t-21.5 5v38q28 2 46.5 -12.5t18.5 -38.5q0 -9 -2.5 -15.5t-7.5 -11.5h70q-15 12 -23.5 29.5t-8.5 35.5q0 33 21 54.5t53 21.5q34 0 55 -21.5t21 -55.5q0 -48 -36.5 -75
t-101.5 -27zM86 1030q0 18 -11 29.5t-29 11.5q-17 0 -27.5 -10.5t-10.5 -27.5q0 -20 10.5 -34.5t31.5 -23.5q19 8 27.5 21t8.5 34z" />
    <glyph glyph-name="fatheh_tashdid.cmps" unicode="&#xfc62;" arabic-form="isolated" 
d="M91 785v-38l-180 -27v38zM104 879q-14 -9 -28.5 -13.5t-27.5 -4.5q-19 0 -33 4.5t-23 13.5q-18 -10 -32 -14t-27 -4q-32 0 -47.5 18t-15.5 55v63h36v-66q0 -18 6.5 -25t24.5 -7q10 0 19.5 3t18.5 9q-3 8 -4 18.5t-1 25.5v34h36v-37q0 -27 9.5 -38.5t30.5 -11.5
q7 0 14.5 2t16.5 5q-2 21 -6.5 41t-10.5 37l37 14q11 -30 12.5 -61t-5.5 -61z" />
    <glyph glyph-name="tashdid_superScriptAlef.cmps" unicode="&#xfc63;" arabic-form="isolated" 
d="M114 769q-14 -9 -28.5 -13.5t-27.5 -4.5q-19 0 -33 4.5t-23 13.5q-18 -10 -32 -14t-27 -4q-32 0 -47.5 18t-15.5 55v63h36v-66q0 -18 6.5 -25t24.5 -7q10 0 19.5 3t18.5 9q-3 8 -4 18.5t-1 25.5v34h36v-37q0 -27 9.5 -38.5t30.5 -11.5q7 0 14.5 2t16.5 5q-2 21 -6.5 41
t-10.5 37l37 14q11 -30 12.5 -61t-5.5 -61zM-19 942v147h38v-147h-38z" />
    <glyph glyph-name="rial" unicode="&#xfdfc;" horiz-adv-x="1094" arabic-form="isolated" 
d="M248 372q0 -43 26 -64.5t77 -21.5q34 0 69 11t73 34v374h48v-342q13 9 27.5 20.5t44.5 35.5q31 25 47.5 37.5t30.5 22.5v226h48v-194q47 29 90 42.5t86 13.5q26 0 57.5 -6t53.5 -15l-7 -48q-47 13 -66 16t-38 3q-41 0 -83.5 -15.5t-92.5 -48.5v-306q0 -50 26 -71t88 -21
q40 0 74.5 8t79.5 30q0 92 -4.5 128.5t-13.5 79.5l48 11q15 -75 15.5 -135t-13.5 -118q-52 -34 -93.5 -46.5t-92.5 -12.5q-84 0 -123 36.5t-39 114.5v268q-11 -8 -63.5 -49.5t-86.5 -63.5v-219q0 -48 -5 -95.5t-15 -88.5q-56 -39 -120 -60t-129 -21q-104 0 -162 48.5
t-58 133.5q0 37 13.5 82t36.5 84l36 -16q-17 -35 -27.5 -73t-10.5 -66q0 -68 45 -103t133 -35q53 0 106.5 14t96.5 39q6 38 9 75.5t3 81.5v191q-41 -21 -80 -31.5t-79 -10.5q-61 0 -97.5 34t-36.5 91q0 31 13 70.5t37 81.5l36 -16q-19 -41 -28.5 -72t-9.5 -53zM921 -126
l-52 -49l-52 49l52 50zM1041 -126l-52 -49l-52 49l52 50z" />
    <glyph glyph-name="ah.isol" unicode="&#x622;" horiz-adv-x="248" arabic-form="isolated" 
d="M148 705v-705h-48v705h48zM128 833q18 -7 27 -9.5t16 -2.5q11 0 21.5 2.5t26.5 9.5l-4 -42q-14 -7 -24.5 -10.5t-22.5 -3.5q-9 0 -19 2.5t-29 10.5t-28 10.5t-16 2.5t-16 -2t-32 -10l4 42q14 7 25.5 10.5t21.5 3.5q9 0 19 -2.5t30 -11.5z" />
    <glyph glyph-name="ah.fina" unicode="&#x622;" horiz-adv-x="269" arabic-form="final" 
d="M262 55h7v-55h-7q-79 0 -120.5 38.5t-41.5 112.5v554h48v-558q0 -45 29 -68.5t85 -23.5zM128 833q18 -7 27 -9.5t16 -2.5q11 0 21.5 2.5t26.5 9.5l-4 -42q-14 -7 -24.5 -10.5t-22.5 -3.5q-9 0 -19 2.5t-29 10.5t-28 10.5t-16 2.5t-16 -2t-32 -10l4 42q14 7 25.5 10.5
t21.5 3.5q9 0 19 -2.5t30 -11.5z" />
    <glyph glyph-name="alefHamzeAbove.isol" unicode="&#x623;" horiz-adv-x="248" arabic-form="isolated" 
d="M148 705v-705h-48v705h48zM216 841v-38l-180 -27v38l47 8q-10 14 -14.5 29t-4.5 32q0 30 20.5 48.5t53.5 18.5q19 0 35.5 -6.5t25.5 -18.5l-15 -27q-18 9 -44.5 10.5t-42.5 -5.5q1 -29 16 -50t34 -21q5 0 33 4t36 5z" />
    <glyph glyph-name="alefHamzeAbove.fina" unicode="&#x623;" horiz-adv-x="269" arabic-form="final" 
d="M262 55h7v-55h-7q-79 0 -120.5 38.5t-41.5 112.5v554h48v-558q0 -45 29 -68.5t85 -23.5zM216 841v-38l-180 -27v38l47 8q-10 14 -14.5 29t-4.5 32q0 30 20.5 48.5t53.5 18.5q19 0 35.5 -6.5t25.5 -18.5l-15 -27q-18 9 -44.5 10.5t-42.5 -5.5q1 -29 16 -50t34 -21
q5 0 33 4t36 5z" />
    <glyph glyph-name="vavHamzeAbove.isol" unicode="&#x624;" horiz-adv-x="497" arabic-form="isolated" 
d="M372 246q23 -41 36.5 -89.5t13.5 -91.5q0 -64 -20.5 -121.5t-60.5 -101.5q-42 -48 -98 -74t-115 -26q-24 0 -51.5 5t-46.5 13l11 38q20 -4 36 -5.5t35 -1.5q92 0 166 60t99 161q-29 -11 -59 -16.5t-61 -5.5q-95 0 -140 40.5t-45 124.5t46 140.5t107 56.5q42 0 80 -27.5
t67 -78.5zM224 295q-46 0 -77 -38.5t-31 -102.5q0 -57 32.5 -82t109.5 -25q32 0 58.5 4.5t58.5 14.5q-12 105 -52.5 167t-98.5 62zM316 488v-38l-180 -27v38l47 8q-10 14 -14.5 29t-4.5 32q0 30 20.5 48.5t53.5 18.5q19 0 35.5 -6.5t25.5 -18.5l-15 -27q-18 9 -44.5 10.5
t-42.5 -5.5q1 -29 16 -50t34 -21q5 0 33 4t36 5z" />
    <glyph glyph-name="vavHamzeAbove.fina" unicode="&#x624;" horiz-adv-x="506" arabic-form="final" 
d="M372 246q23 -41 36.5 -89.5t13.5 -91.5v-10h84v-55h-90q-20 -113 -102.5 -185.5t-185.5 -72.5q-24 0 -51.5 5t-46.5 13l11 38q20 -4 36 -5.5t35 -1.5q88 0 161 57t101 152h-118q-93 0 -138.5 38.5t-45.5 116.5q0 84 46 140.5t107 56.5q42 0 80 -27.5t67 -78.5zM116 154
q0 -53 32.5 -76t108.5 -23h119q-10 109 -51.5 174.5t-100.5 65.5q-46 0 -77 -38.5t-31 -102.5zM316 488v-38l-180 -27v38l47 8q-10 14 -14.5 29t-4.5 32q0 30 20.5 48.5t53.5 18.5q19 0 35.5 -6.5t25.5 -18.5l-15 -27q-18 9 -44.5 10.5t-42.5 -5.5q1 -29 16 -50t34 -21
q5 0 33 4t36 5z" />
    <glyph glyph-name="alefHamzeBelow.isol" unicode="&#x625;" horiz-adv-x="248" arabic-form="isolated" 
d="M148 705v-705h-48v705h48zM216 -156v-38l-180 -27v38l47 8q-10 14 -14.5 29t-4.5 32q0 30 20.5 48.5t53.5 18.5q19 0 35.5 -6.5t25.5 -18.5l-15 -27q-18 9 -44.5 10.5t-42.5 -5.5q1 -29 16 -50t34 -21q5 0 33 4t36 5z" />
    <glyph glyph-name="alefHamzeBelow.fina" unicode="&#x625;" horiz-adv-x="269" arabic-form="final" 
d="M262 55h7v-55h-7q-79 0 -120.5 38.5t-41.5 112.5v554h48v-558q0 -45 29 -68.5t85 -23.5zM216 -156v-38l-180 -27v38l47 8q-10 14 -14.5 29t-4.5 32q0 30 20.5 48.5t53.5 18.5q19 0 35.5 -6.5t25.5 -18.5l-15 -27q-18 9 -44.5 10.5t-42.5 -5.5q1 -29 16 -50t34 -21
q5 0 33 4t36 5z" />
    <glyph glyph-name="yehHamze.isol" unicode="&#x626;" horiz-adv-x="704" arabic-form="isolated" 
d="M335 -210q-135 0 -205 55t-70 162q0 30 12 63t33 60l33 -22q-16 -24 -24 -48.5t-8 -51.5q0 -80 58.5 -121.5t170.5 -41.5q103 0 186 38t111 92q-3 22 -26 41.5t-99 52.5q-54 24 -80 38.5t-44 29.5q-33 25 -49 55t-16 65q0 67 54 117t132 50q62 0 113 -36t72 -91l-32 -25
q-36 50 -78 73.5t-95 23.5q-52 0 -85 -33t-33 -79q0 -38 30.5 -68t128.5 -73q90 -38 117.5 -64t27.5 -57q0 -42 -34.5 -85t-93.5 -73q-45 -23 -97.5 -35t-109.5 -12zM240 306v-38l-180 -27v38l47 8q-10 14 -14.5 29t-4.5 32q0 30 20.5 48.5t53.5 18.5q19 0 35.5 -6.5
t25.5 -18.5l-15 -27q-18 9 -44.5 10.5t-42.5 -5.5q1 -29 16 -50t34 -21q5 0 33 4t36 5z" />
    <glyph glyph-name="yehHamze.fina" unicode="&#x626;" horiz-adv-x="758" arabic-form="final" 
d="M409 0h-11l24 55h336v-55h-143q9 -8 13.5 -18t4.5 -22q0 -37 -34 -83t-89 -80q-44 -27 -95.5 -41t-106.5 -14q-118 0 -183 54t-65 151q0 52 21 114.5t57 119.5l35 -18q-30 -55 -47.5 -109.5t-17.5 -95.5q0 -79 52.5 -120.5t153.5 -40.5q103 1 178.5 47t97.5 119
q-21 17 -70 27t-111 10zM281 326v-38l-180 -27v38l47 8q-10 14 -14.5 29t-4.5 32q0 30 20.5 48.5t53.5 18.5q19 0 35.5 -6.5t25.5 -18.5l-15 -27q-18 9 -44.5 10.5t-42.5 -5.5q1 -29 16 -50t34 -21q5 0 33 4t36 5z" />
    <glyph glyph-name="yehHamze.init" unicode="&#x626;" horiz-adv-x="322" arabic-form="initial" 
d="M11 0h-11q-9 0 -15 8t-6 19q0 12 6 20t15 8h5q58 0 107 9.5t89 28.5q0 92 -4.5 128.5t-13.5 79.5l48 11q15 -75 15.5 -135t-13.5 -118q-45 -30 -99.5 -44.5t-122.5 -14.5zM243 488v-38l-180 -27v38l47 8q-10 14 -14.5 29t-4.5 32q0 30 20.5 48.5t53.5 18.5
q19 0 35.5 -6.5t25.5 -18.5l-15 -27q-18 9 -44.5 10.5t-42.5 -5.5q1 -29 16 -50t34 -21q5 0 33 4t36 5z" />
    <glyph glyph-name="yehHamze.medi" unicode="&#x626;" horiz-adv-x="358" arabic-form="medial" 
d="M4 0h-4q-9 0 -15 8t-6 19q0 12 6 20t15 8h7q50 0 89.5 15t62.5 43v144h48v-95q0 -55 35.5 -81t110.5 -26h5v-55h-20q-55 0 -97 20t-57 54q-28 -32 -77.5 -53t-102.5 -21zM276 443v-38l-180 -27v38l47 8q-10 14 -14.5 29t-4.5 32q0 30 20.5 48.5t53.5 18.5q19 0 35.5 -6.5
t25.5 -18.5l-15 -27q-18 9 -44.5 10.5t-42.5 -5.5q1 -29 16 -50t34 -21q5 0 33 4t36 5z" />
    <glyph glyph-name="alef.isol" unicode="&#x627;" horiz-adv-x="248" arabic-form="isolated" 
d="M148 705v-705h-48v705h48z" />
    <glyph glyph-name="alef.fina" unicode="&#x627;" horiz-adv-x="269" arabic-form="final" 
d="M262 55h7v-55h-7q-79 0 -120.5 38.5t-41.5 112.5v554h48v-558q0 -45 29 -68.5t85 -23.5z" />
    <glyph glyph-name="beh.isol" unicode="&#x628;" horiz-adv-x="789" arabic-form="isolated" 
d="M383 45q88 0 164.5 12.5t120.5 35.5q0 92 -4.5 128.5t-13.5 79.5l48 11q15 -75 15.5 -135t-13.5 -118q-47 -32 -132.5 -50.5t-184.5 -18.5q-163 0 -243 47t-80 142q0 30 12 63t33 60l33 -22q-16 -24 -24 -48.5t-8 -51.5q0 -68 68.5 -101.5t208.5 -33.5zM437 -126l-52 -49
l-52 49l52 50z" />
    <glyph glyph-name="beh.fina" unicode="&#x628;" horiz-adv-x="820" arabic-form="final" 
d="M820 0h-11q-53 0 -91.5 16.5t-56.5 47.5q-60 -34 -148.5 -54t-179.5 -20q-136 0 -204.5 46.5t-68.5 138.5q0 31 11 63.5t33 63.5l32 -21q-16 -27 -23 -50.5t-7 -48.5q0 -68 57 -102.5t170 -34.5q86 0 161 14t145 43l-46 155l45 15l26 -89q25 -84 53.5 -106t96.5 -22h6
v-55zM407 -126l-52 -49l-52 49l52 50z" />
    <glyph glyph-name="beh.init" unicode="&#x628;" horiz-adv-x="322" arabic-form="initial" 
d="M11 0h-11q-9 0 -15 8t-6 19q0 12 6 20t15 8h5q58 0 107 9.5t89 28.5q0 92 -4.5 128.5t-13.5 79.5l48 11q15 -75 15.5 -135t-13.5 -118q-45 -30 -99.5 -44.5t-122.5 -14.5zM231 -126l-52 -49l-52 49l52 50z" />
    <glyph glyph-name="beh.medi" unicode="&#x628;" horiz-adv-x="358" arabic-form="medial" 
d="M4 0h-4q-9 0 -15 8t-6 19q0 12 6 20t15 8h7q50 0 89.5 15t62.5 43v144h48v-95q0 -55 35.5 -81t110.5 -26h5v-55h-20q-55 0 -97 20t-57 54q-28 -32 -77.5 -53t-102.5 -21zM237 -126l-52 -49l-52 49l52 50z" />
    <glyph glyph-name="tehArabic.isol" unicode="&#x629;" horiz-adv-x="470" arabic-form="isolated" 
d="M60 146q0 66 39 123.5t117 107.5q93 -27 143.5 -85t50.5 -134q0 -75 -50 -121.5t-130 -46.5q-77 0 -123.5 43t-46.5 113zM220 320q-57 -35 -85.5 -77t-28.5 -90q0 -50 33.5 -79t91.5 -29q63 0 98 31t35 87q0 52 -36.5 91.5t-107.5 65.5zM208 484l-52 -49l-52 49l52 50z
M328 484l-52 -49l-52 49l52 50z" />
    <glyph glyph-name="tehArabic.fina" unicode="&#x629;" horiz-adv-x="481" arabic-form="final" 
d="M336 94q-23 -15 -54.5 -23t-63.5 -8q-68 0 -108.5 35.5t-40.5 95.5q0 76 67 129t196 77v40h48v-293q0 -50 21.5 -71t72.5 -21h7v-55h-7q-60 0 -94 23.5t-44 70.5zM115 196q0 -38 26.5 -58t76.5 -20q32 0 61 6.5t53 18.5v199q-105 -13 -161 -52t-56 -94zM284 565l-52 -49
l-52 49l52 50zM404 565l-52 -49l-52 49l52 50z" />
    <glyph glyph-name="teh.isol" unicode="&#x62a;" horiz-adv-x="789" arabic-form="isolated" 
d="M383 45q88 0 164.5 12.5t120.5 35.5q0 92 -4.5 128.5t-13.5 79.5l48 11q15 -75 15.5 -135t-13.5 -118q-47 -32 -132.5 -50.5t-184.5 -18.5q-163 0 -243 47t-80 142q0 30 12 63t33 60l33 -22q-16 -24 -24 -48.5t-8 -51.5q0 -68 68.5 -101.5t208.5 -33.5zM377 459l-52 -49
l-52 49l52 50zM497 459l-52 -49l-52 49l52 50z" />
    <glyph glyph-name="teh.fina" unicode="&#x62a;" horiz-adv-x="820" arabic-form="final" 
d="M820 0h-11q-53 0 -91.5 16.5t-56.5 47.5q-60 -34 -148.5 -54t-179.5 -20q-136 0 -204.5 46.5t-68.5 138.5q0 31 11 63.5t33 63.5l32 -21q-16 -27 -23 -50.5t-7 -48.5q0 -68 57 -102.5t170 -34.5q86 0 161 14t145 43l-46 155l45 15l26 -89q25 -84 53.5 -106t96.5 -22h6
v-55zM347 459l-52 -49l-52 49l52 50zM467 459l-52 -49l-52 49l52 50z" />
    <glyph glyph-name="teh.init" unicode="&#x62a;" horiz-adv-x="322" arabic-form="initial" 
d="M11 0h-11q-9 0 -15 8t-6 19q0 12 6 20t15 8h5q58 0 107 9.5t89 28.5q0 92 -4.5 128.5t-13.5 79.5l48 11q15 -75 15.5 -135t-13.5 -118q-45 -30 -99.5 -44.5t-122.5 -14.5zM144 477l-52 -49l-52 49l52 50zM264 477l-52 -49l-52 49l52 50z" />
    <glyph glyph-name="teh.medi" unicode="&#x62a;" horiz-adv-x="358" arabic-form="medial" 
d="M4 0h-4q-9 0 -15 8t-6 19q0 12 6 20t15 8h7q50 0 89.5 15t62.5 43v144h48v-95q0 -55 35.5 -81t110.5 -26h5v-55h-20q-55 0 -97 20t-57 54q-28 -32 -77.5 -53t-102.5 -21zM177 432l-52 -49l-52 49l52 50zM297 432l-52 -49l-52 49l52 50z" />
    <glyph glyph-name="theh.isol" unicode="&#x62b;" horiz-adv-x="789" arabic-form="isolated" 
d="M383 45q88 0 164.5 12.5t120.5 35.5q0 92 -4.5 128.5t-13.5 79.5l48 11q15 -75 15.5 -135t-13.5 -118q-47 -32 -132.5 -50.5t-184.5 -18.5q-163 0 -243 47t-80 142q0 30 12 63t33 60l33 -22q-16 -24 -24 -48.5t-8 -51.5q0 -68 68.5 -101.5t208.5 -33.5zM437 549l-52 -49
l-52 49l52 50zM377 459l-52 -49l-52 49l52 50zM497 459l-52 -49l-52 49l52 50z" />
    <glyph glyph-name="theh.fina" unicode="&#x62b;" horiz-adv-x="820" arabic-form="final" 
d="M820 0h-11q-53 0 -91.5 16.5t-56.5 47.5q-60 -34 -148.5 -54t-179.5 -20q-136 0 -204.5 46.5t-68.5 138.5q0 31 11 63.5t33 63.5l32 -21q-16 -27 -23 -50.5t-7 -48.5q0 -68 57 -102.5t170 -34.5q86 0 161 14t145 43l-46 155l45 15l26 -89q25 -84 53.5 -106t96.5 -22h6
v-55zM407 549l-52 -49l-52 49l52 50zM347 459l-52 -49l-52 49l52 50zM467 459l-52 -49l-52 49l52 50z" />
    <glyph glyph-name="theh.init" unicode="&#x62b;" horiz-adv-x="322" arabic-form="initial" 
d="M11 0h-11q-9 0 -15 8t-6 19q0 12 6 20t15 8h5q58 0 107 9.5t89 28.5q0 92 -4.5 128.5t-13.5 79.5l48 11q15 -75 15.5 -135t-13.5 -118q-45 -30 -99.5 -44.5t-122.5 -14.5zM204 567l-52 -49l-52 49l52 50zM144 477l-52 -49l-52 49l52 50zM264 477l-52 -49l-52 49l52 50z
" />
    <glyph glyph-name="theh.medi" unicode="&#x62b;" horiz-adv-x="358" arabic-form="medial" 
d="M4 0h-4q-9 0 -15 8t-6 19q0 12 6 20t15 8h7q50 0 89.5 15t62.5 43v144h48v-95q0 -55 35.5 -81t110.5 -26h5v-55h-20q-55 0 -97 20t-57 54q-28 -32 -77.5 -53t-102.5 -21zM237 522l-52 -49l-52 49l52 50zM177 432l-52 -49l-52 49l52 50zM297 432l-52 -49l-52 49l52 50z
" />
    <glyph glyph-name="jim.isol" unicode="&#x62c;" horiz-adv-x="697" arabic-form="isolated" 
d="M378 -258q-153 0 -236.5 57.5t-83.5 161.5q0 135 123.5 221t349.5 104q-75 34 -150 53.5t-136 19.5q-57 0 -101 -8.5t-89 -27.5l-17 48q49 19 96 28t104 9q85 0 191.5 -33.5t198.5 -87.5l-13 -46q-242 -2 -377 -75t-135 -199q0 -84 67 -127t198 -43q55 0 99 5.5t87 16.5
l-4 -52q-33 -11 -80.5 -18t-91.5 -7zM389 13l-52 -49l-52 49l52 50z" />
    <glyph glyph-name="jim.fina" unicode="&#x62c;" horiz-adv-x="697" arabic-form="final" 
d="M378 -258q-153 0 -236.5 57.5t-83.5 161.5q0 135 123.5 221t349.5 104q-75 34 -150 53.5t-136 19.5q-57 0 -101 -8.5t-89 -27.5l-17 48q49 19 96 28t104 9q85 0 191.5 -33.5t198.5 -87.5l-13 -42q-27 0 -53.5 -1t-56.5 -4q6 -101 47 -143t140 -42h5v-55h-7
q-112 0 -165 54.5t-60 176.5q-173 -22 -267.5 -91t-94.5 -173q0 -84 67 -127t198 -43q55 0 99 5.5t87 16.5l-4 -52q-33 -11 -80.5 -18t-91.5 -7zM389 13l-52 -49l-52 49l52 50z" />
    <glyph glyph-name="jim.init" unicode="&#x62c;" horiz-adv-x="697" arabic-form="initial" 
d="M4 0h-4q-9 0 -15 8t-6 19q0 12 6 20t15 8h7q158 0 283.5 65t193.5 187q-61 26 -121 39t-118 13q-57 0 -101 -8.5t-89 -27.5l-17 48q49 19 96 28t104 9q85 0 191.5 -33.5t198.5 -87.5l-24 -43q-16 10 -34.5 20.5t-43.5 23.5q-72 -138 -208 -213t-314 -75zM378 -126
l-52 -49l-52 49l52 50z" />
    <glyph glyph-name="jim.medi" unicode="&#x62c;" horiz-adv-x="697" arabic-form="medial" 
d="M4 0h-4q-9 0 -15 8t-6 19q0 12 6 20t15 8h7q158 0 283.5 65t193.5 187q-61 26 -121 39t-118 13q-57 0 -101 -8.5t-89 -27.5l-17 48q49 19 96 28t104 9q85 0 191.5 -33.5t198.5 -87.5l-24 -43q-16 10 -34.5 20.5t-43.5 23.5q-7 -15 -15 -27.5t-16 -23.5q5 -100 47.5 -141
t149.5 -41h5v-55h-7q-110 0 -164.5 45t-66.5 144q-80 -92 -196 -140.5t-259 -48.5zM378 -126l-52 -49l-52 49l52 50z" />
    <glyph glyph-name="hah.isol" unicode="&#x62d;" horiz-adv-x="697" arabic-form="isolated" 
d="M378 -258q-153 0 -236.5 57.5t-83.5 161.5q0 135 123.5 221t349.5 104q-75 34 -150 53.5t-136 19.5q-57 0 -101 -8.5t-89 -27.5l-17 48q49 19 96 28t104 9q85 0 191.5 -33.5t198.5 -87.5l-13 -46q-242 -2 -377 -75t-135 -199q0 -84 67 -127t198 -43q55 0 99 5.5t87 16.5
l-4 -52q-33 -11 -80.5 -18t-91.5 -7z" />
    <glyph glyph-name="hah.fina" unicode="&#x62d;" horiz-adv-x="697" arabic-form="final" 
d="M378 -258q-153 0 -236.5 57.5t-83.5 161.5q0 135 123.5 221t349.5 104q-75 34 -150 53.5t-136 19.5q-57 0 -101 -8.5t-89 -27.5l-17 48q49 19 96 28t104 9q85 0 191.5 -33.5t198.5 -87.5l-13 -42q-27 0 -53.5 -1t-56.5 -4q6 -101 47 -143t140 -42h5v-55h-7
q-112 0 -165 54.5t-60 176.5q-173 -22 -267.5 -91t-94.5 -173q0 -84 67 -127t198 -43q55 0 99 5.5t87 16.5l-4 -52q-33 -11 -80.5 -18t-91.5 -7z" />
    <glyph glyph-name="hah.init" unicode="&#x62d;" horiz-adv-x="697" arabic-form="initial" 
d="M4 0h-4q-9 0 -15 8t-6 19q0 12 6 20t15 8h7q158 0 283.5 65t193.5 187q-61 26 -121 39t-118 13q-57 0 -101 -8.5t-89 -27.5l-17 48q49 19 96 28t104 9q85 0 191.5 -33.5t198.5 -87.5l-24 -43q-16 10 -34.5 20.5t-43.5 23.5q-72 -138 -208 -213t-314 -75z" />
    <glyph glyph-name="hah.medi" unicode="&#x62d;" horiz-adv-x="697" arabic-form="medial" 
d="M4 0h-4q-9 0 -15 8t-6 19q0 12 6 20t15 8h7q158 0 283.5 65t193.5 187q-61 26 -121 39t-118 13q-57 0 -101 -8.5t-89 -27.5l-17 48q49 19 96 28t104 9q85 0 191.5 -33.5t198.5 -87.5l-24 -43q-16 10 -34.5 20.5t-43.5 23.5q-7 -15 -15 -27.5t-16 -23.5q5 -100 47.5 -141
t149.5 -41h5v-55h-7q-110 0 -164.5 45t-66.5 144q-80 -92 -196 -140.5t-259 -48.5z" />
    <glyph glyph-name="kheh.isol" unicode="&#x62e;" horiz-adv-x="697" arabic-form="isolated" 
d="M378 -258q-153 0 -236.5 57.5t-83.5 161.5q0 135 123.5 221t349.5 104q-75 34 -150 53.5t-136 19.5q-57 0 -101 -8.5t-89 -27.5l-17 48q49 19 96 28t104 9q85 0 191.5 -33.5t198.5 -87.5l-13 -46q-242 -2 -377 -75t-135 -199q0 -84 67 -127t198 -43q55 0 99 5.5t87 16.5
l-4 -52q-33 -11 -80.5 -18t-91.5 -7zM343 563l-52 -49l-52 49l52 50z" />
    <glyph glyph-name="kheh.fina" unicode="&#x62e;" horiz-adv-x="697" arabic-form="final" 
d="M378 -258q-153 0 -236.5 57.5t-83.5 161.5q0 135 123.5 221t349.5 104q-75 34 -150 53.5t-136 19.5q-57 0 -101 -8.5t-89 -27.5l-17 48q49 19 96 28t104 9q85 0 191.5 -33.5t198.5 -87.5l-13 -42q-27 0 -53.5 -1t-56.5 -4q6 -101 47 -143t140 -42h5v-55h-7
q-112 0 -165 54.5t-60 176.5q-173 -22 -267.5 -91t-94.5 -173q0 -84 67 -127t198 -43q55 0 99 5.5t87 16.5l-4 -52q-33 -11 -80.5 -18t-91.5 -7zM343 563l-52 -49l-52 49l52 50z" />
    <glyph glyph-name="kheh.init" unicode="&#x62e;" horiz-adv-x="697" arabic-form="initial" 
d="M4 0h-4q-9 0 -15 8t-6 19q0 12 6 20t15 8h7q158 0 283.5 65t193.5 187q-61 26 -121 39t-118 13q-57 0 -101 -8.5t-89 -27.5l-17 48q49 19 96 28t104 9q85 0 191.5 -33.5t198.5 -87.5l-24 -43q-16 10 -34.5 20.5t-43.5 23.5q-72 -138 -208 -213t-314 -75zM343 563l-52 -49
l-52 49l52 50z" />
    <glyph glyph-name="kheh.medi" unicode="&#x62e;" horiz-adv-x="697" arabic-form="medial" 
d="M4 0h-4q-9 0 -15 8t-6 19q0 12 6 20t15 8h7q158 0 283.5 65t193.5 187q-61 26 -121 39t-118 13q-57 0 -101 -8.5t-89 -27.5l-17 48q49 19 96 28t104 9q85 0 191.5 -33.5t198.5 -87.5l-24 -43q-16 10 -34.5 20.5t-43.5 23.5q-7 -15 -15 -27.5t-16 -23.5q5 -100 47.5 -141
t149.5 -41h5v-55h-7q-110 0 -164.5 45t-66.5 144q-80 -92 -196 -140.5t-259 -48.5zM343 563l-52 -49l-52 49l52 50z" />
    <glyph glyph-name="dal.isol" unicode="&#x62f;" horiz-adv-x="541" arabic-form="isolated" 
d="M477 43q-41 -28 -95.5 -40.5t-131.5 -12.5q-69 0 -130 11.5t-100 32.5l25 55q49 -22 104.5 -33t113.5 -11t98 6.5t73 21.5q-21 88 -80.5 165.5t-143.5 126.5l27 44q97 -52 167 -156.5t73 -209.5z" />
    <glyph glyph-name="dal.fina" unicode="&#x62f;" horiz-adv-x="578" arabic-form="final" 
d="M341 171l-107 242l46 20l108 -247q16 -35 33 -60t36 -41q20 -16 44.5 -23t71.5 -7h5v-55h-12q-59 0 -92.5 12.5t-61.5 41.5q-46 -34 -94 -49t-108 -15q-50 0 -104 12.5t-86 31.5l25 55q45 -22 89.5 -33t88.5 -11q45 0 82.5 9.5t80.5 33.5q-11 15 -22 36t-23 47z" />
    <glyph glyph-name="zal.isol" unicode="&#x630;" horiz-adv-x="541" arabic-form="isolated" 
d="M477 43q-41 -28 -95.5 -40.5t-131.5 -12.5q-69 0 -130 11.5t-100 32.5l25 55q49 -22 104.5 -33t113.5 -11t98 6.5t73 21.5q-21 88 -80.5 165.5t-143.5 126.5l27 44q97 -52 167 -156.5t73 -209.5zM244 546l-52 -49l-52 49l52 50z" />
    <glyph glyph-name="zal.fina" unicode="&#x630;" horiz-adv-x="578" arabic-form="final" 
d="M341 171l-107 242l46 20l108 -247q16 -35 33 -60t36 -41q20 -16 44.5 -23t71.5 -7h5v-55h-12q-59 0 -92.5 12.5t-61.5 41.5q-46 -34 -94 -49t-108 -15q-50 0 -104 12.5t-86 31.5l25 55q45 -22 89.5 -33t88.5 -11q45 0 82.5 9.5t80.5 33.5q-11 15 -22 36t-23 47zM253 562
l-52 -49l-52 49l52 50z" />
    <glyph glyph-name="reh.isol" unicode="&#x631;" horiz-adv-x="512" arabic-form="isolated" 
d="M412 65q0 -63 -20.5 -119t-60.5 -101q-41 -48 -97 -75.5t-111 -27.5q-27 0 -53 4.5t-50 13.5l11 38q20 -4 37 -5.5t34 -1.5q94 0 169 62.5t98 166.5q-1 60 -14.5 119t-46.5 141l49 22q29 -78 42 -134t13 -103z" />
    <glyph glyph-name="reh.fina" unicode="&#x631;" horiz-adv-x="544" arabic-form="final" 
d="M386 88q-3 6 -6.5 14t-15.5 34l-61 145l46 19l64 -154q25 -61 48 -76t78 -15h5v-55h-11q-45 0 -72.5 10.5t-47.5 34.5q-6 -60 -28.5 -112.5t-60.5 -94.5q-42 -45 -95 -70.5t-106 -25.5q-27 0 -53 4.5t-50 13.5l11 38q20 -4 37 -5.5t34 -1.5q110 0 186.5 78t97.5 219z" />
    <glyph glyph-name="zeh.isol" unicode="&#x632;" horiz-adv-x="512" arabic-form="isolated" 
d="M412 65q0 -63 -20.5 -119t-60.5 -101q-41 -48 -97 -75.5t-111 -27.5q-27 0 -53 4.5t-50 13.5l11 38q20 -4 37 -5.5t34 -1.5q94 0 169 62.5t98 166.5q-1 60 -14.5 119t-46.5 141l49 22q29 -78 42 -134t13 -103zM334 477l-52 -49l-52 49l52 50z" />
    <glyph glyph-name="zeh.fina" unicode="&#x632;" horiz-adv-x="544" arabic-form="final" 
d="M386 88q-3 6 -6.5 14t-15.5 34l-61 145l46 19l64 -154q25 -61 48 -76t78 -15h5v-55h-11q-45 0 -72.5 10.5t-47.5 34.5q-6 -60 -28.5 -112.5t-60.5 -94.5q-42 -45 -95 -70.5t-106 -25.5q-27 0 -53 4.5t-50 13.5l11 38q20 -4 37 -5.5t34 -1.5q110 0 186.5 78t97.5 219z
M334 477l-52 -49l-52 49l52 50z" />
    <glyph glyph-name="sin.isol" unicode="&#x633;" horiz-adv-x="1152" arabic-form="isolated" 
d="M532 43q7 -72 7.5 -112t-4.5 -85q-57 -39 -124 -60t-134 -21q-109 0 -167 47t-58 135q0 37 13.5 82t36.5 84l36 -16q-17 -35 -27.5 -73t-10.5 -66q0 -69 46 -103.5t137 -34.5q58 0 115.5 14t101.5 39q0 105 -14 188t-49 191l47 15l27 -96q18 -64 50.5 -95t83.5 -31
q52 0 82.5 42.5t30.5 110.5v59h48v-61q0 -77 27.5 -114t85.5 -37q37 0 66 9t51 27q0 104 -4.5 140.5t-13.5 79.5l48 11q16 -78 16.5 -141t-14.5 -124q-32 -30 -67 -43.5t-85 -13.5q-48 0 -81.5 23.5t-50.5 69.5q-19 -43 -56.5 -68t-83.5 -25q-35 0 -63 13t-49 40z" />
    <glyph glyph-name="sin.fina" unicode="&#x633;" horiz-adv-x="1225" arabic-form="final" 
d="M1050 91q-18 -45 -55 -73t-79 -28q-48 0 -81.5 23.5t-50.5 69.5q-19 -43 -56.5 -68t-83.5 -25q-35 0 -63 13t-49 40q7 -72 7.5 -112t-4.5 -85q-57 -39 -124 -60t-134 -21q-109 0 -167 47t-58 135q0 37 13.5 82t36.5 84l36 -16q-17 -35 -27.5 -73t-10.5 -66
q0 -69 46 -103.5t137 -34.5q58 0 115.5 14t101.5 39q0 105 -14 188t-49 191l47 15l27 -96q18 -64 50.5 -95t83.5 -31q52 0 82.5 42.5t30.5 110.5v59h48v-61q0 -77 27.5 -114t85.5 -37q49 0 75.5 40.5t26.5 116.5v100h48v-74q0 -93 32 -133t116 -40h8v-55h-8q-65 0 -105 22
t-62 69z" />
    <glyph glyph-name="sin.init" unicode="&#x633;" horiz-adv-x="785" arabic-form="initial" 
d="M7 0h-7q-9 0 -15 8t-6 19q0 12 6 20t15 8h7q54 0 85.5 38t31.5 106v79h48v-82q0 -76 26.5 -113.5t79.5 -37.5q50 0 79.5 41.5t29.5 111.5v59h48v-61q0 -77 27.5 -114t85.5 -37q37 0 66 9t51 27q0 104 -4.5 141t-13.5 79l48 11q16 -78 16.5 -141t-14.5 -124
q-33 -30 -67.5 -43.5t-84.5 -13.5q-48 0 -81 23.5t-51 69.5q-19 -43 -55.5 -68t-80.5 -25q-46 0 -79 25.5t-51 72.5q-17 -37 -56.5 -62.5t-83.5 -25.5z" />
    <glyph glyph-name="sin.medi" unicode="&#x633;" horiz-adv-x="854" arabic-form="medial" 
d="M7 0h-7q-9 0 -15 8t-6 19q0 12 6 20t15 8h7q54 0 85.5 38t31.5 106v79h48v-82q0 -76 26.5 -113.5t79.5 -37.5q50 0 79.5 41.5t29.5 111.5v59h48v-61q0 -78 27.5 -114.5t85.5 -36.5q49 0 75.5 40.5t26.5 116.5v100h48v-74q0 -97 30 -135t118 -38h8v-55h-8q-71 0 -108.5 21
t-58.5 70q-18 -45 -55 -73t-79 -28q-49 0 -82 23t-50 70q-19 -43 -55.5 -68t-80.5 -25q-46 0 -79 25.5t-51 72.5q-17 -37 -56.5 -62.5t-83.5 -25.5z" />
    <glyph glyph-name="shin.isol" unicode="&#x634;" horiz-adv-x="1152" arabic-form="isolated" 
d="M532 43q7 -72 7.5 -112t-4.5 -85q-57 -39 -124 -60t-134 -21q-109 0 -167 47t-58 135q0 37 13.5 82t36.5 84l36 -16q-17 -35 -27.5 -73t-10.5 -66q0 -69 46 -103.5t137 -34.5q58 0 115.5 14t101.5 39q0 105 -14 188t-49 191l47 15l27 -96q18 -64 50.5 -95t83.5 -31
q52 0 82.5 42.5t30.5 110.5v59h48v-61q0 -77 27.5 -114t85.5 -37q37 0 66 9t51 27q0 104 -4.5 140.5t-13.5 79.5l48 11q16 -78 16.5 -141t-14.5 -124q-32 -30 -67 -43.5t-85 -13.5q-48 0 -81.5 23.5t-50.5 69.5q-19 -43 -56.5 -68t-83.5 -25q-35 0 -63 13t-49 40zM836 549
l-52 -49l-52 49l52 50zM776 459l-52 -49l-52 49l52 50zM896 459l-52 -49l-52 49l52 50z" />
    <glyph glyph-name="shin.fina" unicode="&#x634;" horiz-adv-x="1225" arabic-form="final" 
d="M1050 91q-18 -45 -55 -73t-79 -28q-48 0 -81.5 23.5t-50.5 69.5q-19 -43 -56.5 -68t-83.5 -25q-35 0 -63 13t-49 40q7 -72 7.5 -112t-4.5 -85q-57 -39 -124 -60t-134 -21q-109 0 -167 47t-58 135q0 37 13.5 82t36.5 84l36 -16q-17 -35 -27.5 -73t-10.5 -66
q0 -69 46 -103.5t137 -34.5q58 0 115.5 14t101.5 39q0 105 -14 188t-49 191l47 15l27 -96q18 -64 50.5 -95t83.5 -31q52 0 82.5 42.5t30.5 110.5v59h48v-61q0 -77 27.5 -114t85.5 -37q49 0 75.5 40.5t26.5 116.5v100h48v-74q0 -93 32 -133t116 -40h8v-55h-8q-65 0 -105 22
t-62 69zM836 549l-52 -49l-52 49l52 50zM776 459l-52 -49l-52 49l52 50zM896 459l-52 -49l-52 49l52 50z" />
    <glyph glyph-name="shin.init" unicode="&#x634;" horiz-adv-x="785" arabic-form="initial" 
d="M7 0h-7q-9 0 -15 8t-6 19q0 12 6 20t15 8h7q54 0 85.5 38t31.5 106v79h48v-82q0 -76 26.5 -113.5t79.5 -37.5q50 0 79.5 41.5t29.5 111.5v59h48v-61q0 -77 27.5 -114t85.5 -37q37 0 66 9t51 27q0 104 -4.5 141t-13.5 79l48 11q16 -78 16.5 -141t-14.5 -124
q-33 -30 -67.5 -43.5t-84.5 -13.5q-48 0 -81 23.5t-51 69.5q-19 -43 -55.5 -68t-80.5 -25q-46 0 -79 25.5t-51 72.5q-17 -37 -56.5 -62.5t-83.5 -25.5zM465 549l-52 -49l-52 49l52 50zM405 459l-52 -49l-52 49l52 50zM525 459l-52 -49l-52 49l52 50z" />
    <glyph glyph-name="shin.medi" unicode="&#x634;" horiz-adv-x="854" arabic-form="medial" 
d="M7 0h-7q-9 0 -15 8t-6 19q0 12 6 20t15 8h7q54 0 85.5 38t31.5 106v79h48v-82q0 -76 26.5 -113.5t79.5 -37.5q50 0 79.5 41.5t29.5 111.5v59h48v-61q0 -78 27.5 -114.5t85.5 -36.5q49 0 75.5 40.5t26.5 116.5v100h48v-74q0 -97 30 -135t118 -38h8v-55h-8q-71 0 -108.5 21
t-58.5 70q-18 -45 -55 -73t-79 -28q-49 0 -82 23t-50 70q-19 -43 -55.5 -68t-80.5 -25q-46 0 -79 25.5t-51 72.5q-17 -37 -56.5 -62.5t-83.5 -25.5zM464 549l-52 -49l-52 49l52 50zM404 459l-52 -49l-52 49l52 50zM524 459l-52 -49l-52 49l52 50z" />
    <glyph glyph-name="sad.isol" unicode="&#x635;" horiz-adv-x="1115" arabic-form="isolated" 
d="M532 73q40 137 115 208t181 71q94 0 155.5 -62.5t61.5 -158.5q0 -17 -2 -35t-7 -38q-62 -32 -141.5 -45t-223.5 -13q-39 0 -74.5 3t-58.5 8q2 -81 1 -108.5t-4 -56.5q-57 -39 -124 -60t-134 -21q-109 0 -167 47t-58 135q0 37 13.5 82t36.5 84l36 -16q-17 -35 -27.5 -73
t-10.5 -66q0 -69 46 -103.5t137 -34.5q58 0 115.5 14t101.5 39q0 98 -15 186.5t-48 192.5l47 15q19 -65 29.5 -107.5t18.5 -86.5zM998 92q0 94 -47.5 149.5t-129.5 55.5q-89 0 -153.5 -61t-97.5 -178q17 -2 40 -2.5t53 -0.5q129 0 204 8t131 29z" />
    <glyph glyph-name="sad.fina" unicode="&#x635;" horiz-adv-x="1159" arabic-form="final" 
d="M532 73q40 137 115 208t181 71q94 0 155.5 -62.5t61.5 -158.5q0 -12 -1 -25.5t-4 -29.5q19 -9 49 -15t60 -6h10v-55h-9q-46 0 -84 11.5t-62 31.5q-57 -23 -131.5 -33t-201.5 -10q-39 0 -74.5 3t-58.5 8q2 -81 1 -108.5t-4 -56.5q-57 -39 -124 -60t-134 -21
q-109 0 -167 47t-58 135q0 37 13.5 82t36.5 84l36 -16q-17 -35 -27.5 -73t-10.5 -66q0 -69 46 -103.5t137 -34.5q58 0 115.5 14t101.5 39q0 98 -15 186.5t-48 192.5l47 15q19 -65 29.5 -107.5t18.5 -86.5zM998 92q0 94 -47.5 149.5t-129.5 55.5q-89 0 -153.5 -61t-97.5 -178
q17 -2 40 -2.5t53 -0.5q129 0 204 8t131 29z" />
    <glyph glyph-name="sad.init" unicode="&#x635;" horiz-adv-x="785" arabic-form="initial" 
d="M4 0h-4q-9 0 -15 8t-6 19q0 12 6 20t15 8h7q44 0 82 13t61 36q-4 13 -5.5 30t-1.5 37v86h48v-73q0 -32 4 -53.5t13 -35.5q41 126 115 191.5t175 65.5q94 0 155.5 -62.5t61.5 -158.5q0 -17 -2 -35t-7 -38q-62 -32 -141.5 -45t-223.5 -13q-69 0 -111 15.5t-63 48.5
q-29 -30 -72 -47t-91 -17zM668 92q0 94 -47.5 149.5t-129.5 55.5q-87 0 -151 -59t-97 -171q15 -6 36 -9t54 -3q129 0 204 8t131 29z" />
    <glyph glyph-name="sad.medi" unicode="&#x635;" horiz-adv-x="829" arabic-form="medial" 
d="M4 0h-4q-9 0 -15 8t-6 19q0 12 6 20t15 8h7q44 0 82 13t61 36q-4 13 -5.5 30t-1.5 37v86h48v-73q0 -32 4 -53.5t13 -35.5q41 126 115 191.5t175 65.5q94 0 155.5 -62.5t61.5 -158.5q0 -12 -1 -25.5t-4 -29.5q19 -9 49 -15t60 -6h10v-55h-9q-46 0 -84 11.5t-62 31.5
q-57 -23 -131.5 -33t-201.5 -10q-69 0 -111 15.5t-63 48.5q-29 -30 -72 -47t-91 -17zM668 92q0 94 -47.5 149.5t-129.5 55.5q-87 0 -151 -59t-97 -171q15 -6 36 -9t54 -3q129 0 204 8t131 29z" />
    <glyph glyph-name="zad.isol" unicode="&#x636;" horiz-adv-x="1115" arabic-form="isolated" 
d="M532 73q40 137 115 208t181 71q94 0 155.5 -62.5t61.5 -158.5q0 -17 -2 -35t-7 -38q-62 -32 -141.5 -45t-223.5 -13q-39 0 -74.5 3t-58.5 8q2 -81 1 -108.5t-4 -56.5q-57 -39 -124 -60t-134 -21q-109 0 -167 47t-58 135q0 37 13.5 82t36.5 84l36 -16q-17 -35 -27.5 -73
t-10.5 -66q0 -69 46 -103.5t137 -34.5q58 0 115.5 14t101.5 39q0 98 -15 186.5t-48 192.5l47 15q19 -65 29.5 -107.5t18.5 -86.5zM998 92q0 94 -47.5 149.5t-129.5 55.5q-89 0 -153.5 -61t-97.5 -178q17 -2 40 -2.5t53 -0.5q129 0 204 8t131 29zM871 477l-52 -49l-52 49
l52 50z" />
    <glyph glyph-name="zad.fina" unicode="&#x636;" horiz-adv-x="1159" arabic-form="final" 
d="M532 73q40 137 115 208t181 71q94 0 155.5 -62.5t61.5 -158.5q0 -12 -1 -25.5t-4 -29.5q19 -9 49 -15t60 -6h10v-55h-9q-46 0 -84 11.5t-62 31.5q-57 -23 -131.5 -33t-201.5 -10q-39 0 -74.5 3t-58.5 8q2 -81 1 -108.5t-4 -56.5q-57 -39 -124 -60t-134 -21
q-109 0 -167 47t-58 135q0 37 13.5 82t36.5 84l36 -16q-17 -35 -27.5 -73t-10.5 -66q0 -69 46 -103.5t137 -34.5q58 0 115.5 14t101.5 39q0 98 -15 186.5t-48 192.5l47 15q19 -65 29.5 -107.5t18.5 -86.5zM998 92q0 94 -47.5 149.5t-129.5 55.5q-89 0 -153.5 -61t-97.5 -178
q17 -2 40 -2.5t53 -0.5q129 0 204 8t131 29zM871 477l-52 -49l-52 49l52 50z" />
    <glyph glyph-name="zad.init" unicode="&#x636;" horiz-adv-x="785" arabic-form="initial" 
d="M4 0h-4q-9 0 -15 8t-6 19q0 12 6 20t15 8h7q44 0 82 13t61 36q-4 13 -5.5 30t-1.5 37v86h48v-73q0 -32 4 -53.5t13 -35.5q41 126 115 191.5t175 65.5q94 0 155.5 -62.5t61.5 -158.5q0 -17 -2 -35t-7 -38q-62 -32 -141.5 -45t-223.5 -13q-69 0 -111 15.5t-63 48.5
q-29 -30 -72 -47t-91 -17zM668 92q0 94 -47.5 149.5t-129.5 55.5q-87 0 -151 -59t-97 -171q15 -6 36 -9t54 -3q129 0 204 8t131 29zM534 477l-52 -49l-52 49l52 50z" />
    <glyph glyph-name="zad.medi" unicode="&#x636;" horiz-adv-x="829" arabic-form="medial" 
d="M4 0h-4q-9 0 -15 8t-6 19q0 12 6 20t15 8h7q44 0 82 13t61 36q-4 13 -5.5 30t-1.5 37v86h48v-73q0 -32 4 -53.5t13 -35.5q41 126 115 191.5t175 65.5q94 0 155.5 -62.5t61.5 -158.5q0 -12 -1 -25.5t-4 -29.5q19 -9 49 -15t60 -6h10v-55h-9q-46 0 -84 11.5t-62 31.5
q-57 -23 -131.5 -33t-201.5 -10q-69 0 -111 15.5t-63 48.5q-29 -30 -72 -47t-91 -17zM668 92q0 94 -47.5 149.5t-129.5 55.5q-87 0 -151 -59t-97 -171q15 -6 36 -9t54 -3q129 0 204 8t131 29zM536 477l-52 -49l-52 49l52 50z" />
    <glyph glyph-name="ta.isol" unicode="&#x637;" horiz-adv-x="701" arabic-form="isolated" 
d="M414 352q94 0 155.5 -62.5t61.5 -158.5q0 -17 -2 -35t-7 -38q-62 -32 -141.5 -45t-223.5 -13q-66 0 -134.5 6.5t-112.5 17.5l15 55q17 -4 39 -8t47 -7q8 28 17 53t19 47v541h48v-469q42 58 97 87t122 29zM584 92q0 94 -47.5 149.5t-129.5 55.5q-89 0 -153.5 -61
t-97.5 -177q21 -2 44 -3t49 -1q129 0 204 8t131 29z" />
    <glyph glyph-name="ta.fina" unicode="&#x637;" horiz-adv-x="745" arabic-form="final" 
d="M257 0q-66 0 -134.5 6.5t-112.5 17.5l15 55q17 -4 39 -8t47 -7q8 28 17 53t19 47v541h48v-469q42 58 97 87t122 29q94 0 155.5 -62.5t61.5 -158.5q0 -12 -1 -25.5t-4 -29.5q19 -9 49 -15t60 -6h10v-55h-9q-46 0 -84 11.5t-62 31.5q-57 -23 -131.5 -33t-201.5 -10zM584 92
q0 94 -47.5 149.5t-129.5 55.5q-89 0 -153.5 -61t-97.5 -177q21 -2 44 -3t49 -1q129 0 204 8t131 29z" />
    <glyph glyph-name="ta.init" unicode="&#x637;" horiz-adv-x="681" arabic-form="initial" 
d="M237 0h-237q-9 0 -15 8t-6 19q0 12 6 20t15 8h89q7 28 16.5 55.5t21.5 53.5v541h48v-469q42 58 97 87t122 29q94 0 155.5 -62.5t61.5 -158.5q0 -17 -2 -35t-7 -38q-62 -32 -141.5 -45t-223.5 -13zM564 92q0 94 -47.5 149.5t-129.5 55.5q-89 0 -154 -62t-98 -180h94
q129 0 204 8t131 29z" />
    <glyph glyph-name="ta.medi" unicode="&#x637;" horiz-adv-x="725" arabic-form="medial" 
d="M237 0h-237q-9 0 -15 8t-6 19q0 12 6 20t15 8h89q7 28 16.5 55.5t21.5 53.5v541h48v-469q42 58 97 87t122 29q94 0 155.5 -62.5t61.5 -158.5q0 -12 -1 -25.5t-4 -29.5q19 -9 49 -15t60 -6h10v-55h-9q-46 0 -84 11.5t-62 31.5q-57 -23 -131.5 -33t-201.5 -10zM564 92
q0 94 -47.5 149.5t-129.5 55.5q-89 0 -154 -62t-98 -180h94q129 0 204 8t131 29z" />
    <glyph glyph-name="za.isol" unicode="&#x638;" horiz-adv-x="701" arabic-form="isolated" 
d="M414 352q94 0 155.5 -62.5t61.5 -158.5q0 -17 -2 -35t-7 -38q-62 -32 -141.5 -45t-223.5 -13q-66 0 -134.5 6.5t-112.5 17.5l15 55q17 -4 39 -8t47 -7q8 28 17 53t19 47v541h48v-469q42 58 97 87t122 29zM584 92q0 94 -47.5 149.5t-129.5 55.5q-89 0 -153.5 -61
t-97.5 -177q21 -2 44 -3t49 -1q129 0 204 8t131 29zM529 477l-52 -49l-52 49l52 50z" />
    <glyph glyph-name="za.fina" unicode="&#x638;" horiz-adv-x="745" arabic-form="final" 
d="M257 0q-66 0 -134.5 6.5t-112.5 17.5l15 55q17 -4 39 -8t47 -7q8 28 17 53t19 47v541h48v-469q42 58 97 87t122 29q94 0 155.5 -62.5t61.5 -158.5q0 -12 -1 -25.5t-4 -29.5q19 -9 49 -15t60 -6h10v-55h-9q-46 0 -84 11.5t-62 31.5q-57 -23 -131.5 -33t-201.5 -10zM584 92
q0 94 -47.5 149.5t-129.5 55.5q-89 0 -153.5 -61t-97.5 -177q21 -2 44 -3t49 -1q129 0 204 8t131 29zM529 477l-52 -49l-52 49l52 50z" />
    <glyph glyph-name="za.init" unicode="&#x638;" horiz-adv-x="681" arabic-form="initial" 
d="M237 0h-237q-9 0 -15 8t-6 19q0 12 6 20t15 8h89q7 28 16.5 55.5t21.5 53.5v541h48v-469q42 58 97 87t122 29q94 0 155.5 -62.5t61.5 -158.5q0 -17 -2 -35t-7 -38q-62 -32 -141.5 -45t-223.5 -13zM564 92q0 94 -47.5 149.5t-129.5 55.5q-89 0 -154 -62t-98 -180h94
q129 0 204 8t131 29zM509 477l-52 -49l-52 49l52 50z" />
    <glyph glyph-name="za.medi" unicode="&#x638;" horiz-adv-x="725" arabic-form="medial" 
d="M237 0h-237q-9 0 -15 8t-6 19q0 12 6 20t15 8h89q7 28 16.5 55.5t21.5 53.5v541h48v-469q42 58 97 87t122 29q94 0 155.5 -62.5t61.5 -158.5q0 -12 -1 -25.5t-4 -29.5q19 -9 49 -15t60 -6h10v-55h-9q-46 0 -84 11.5t-62 31.5q-57 -23 -131.5 -33t-201.5 -10zM564 92
q0 94 -47.5 149.5t-129.5 55.5q-89 0 -154 -62t-98 -180h94q129 0 204 8t131 29zM509 477l-52 -49l-52 49l52 50z" />
    <glyph glyph-name="eyn.isol" unicode="&#x639;" horiz-adv-x="574" arabic-form="isolated" 
d="M158 412q0 -83 47.5 -152.5t103.5 -69.5q15 0 49.5 8t104.5 27l9 -47l-162 -42q-108 -28 -157.5 -70.5t-49.5 -108.5q0 -77 68.5 -118.5t196.5 -41.5q48 0 93 5.5t93 16.5l-4 -52q-38 -12 -86 -18.5t-91 -6.5q-149 0 -232 56.5t-83 157.5q0 65 43 117.5t124 84.5
q-47 36 -77.5 96t-30.5 120q0 53 45.5 93t108.5 40q45 0 88.5 -15t68.5 -39l-18 -34q-35 19 -69 28.5t-65 9.5q-34 0 -64 -11.5t-54 -33.5z" />
    <glyph glyph-name="eyn.fina" unicode="&#x639;" horiz-adv-x="560" arabic-form="final" 
d="M338 -258q-143 0 -226.5 48.5t-83.5 127.5q0 57 44 98.5t147 83.5q-39 29 -71 66t-58 81q-18 -8 -34.5 -15.5t-32.5 -15.5l-21 48q94 46 166 67t140 21q82 0 128.5 -30.5t46.5 -83.5q0 -48 -35.5 -79t-120.5 -64q47 -20 103.5 -30t121.5 -10h8v-55h-8q-83 0 -155 17.5
t-132 52.5q-105 -38 -148.5 -72t-43.5 -80q0 -54 70 -87.5t195 -33.5q48 0 93 5.5t93 16.5l-4 -52q-37 -11 -87.5 -18t-94.5 -7zM279 119q80 28 118 55.5t38 59.5q0 33 -31.5 49.5t-96.5 16.5q-38 0 -81 -8.5t-92 -26.5q28 -47 64.5 -83.5t80.5 -62.5z" />
    <glyph glyph-name="eyn.init" unicode="&#x639;" horiz-adv-x="530" arabic-form="initial" 
d="M9 0h-9q-9 0 -15 8t-6 19q0 12 6 20t15 8h30q36 0 75.5 4t79.5 11q-44 37 -71.5 94t-27.5 114q0 53 45.5 93t108.5 40q45 0 88.5 -15t68.5 -39l-18 -34q-35 19 -69 28.5t-65 9.5q-34 0 -64 -11.5t-54 -33.5q0 -83 47.5 -152.5t103.5 -69.5q21 0 69 11.5t138 38.5l14 -49
q-140 -46 -267.5 -70.5t-222.5 -24.5z" />
    <glyph glyph-name="eyn.medi" unicode="&#x639;" horiz-adv-x="590" arabic-form="medial" 
d="M5 0h-5q-9 0 -15 8t-6 19q0 12 6 20t15 8h4q60 0 127 10t128 28q-41 28 -75.5 67t-63.5 87q-18 -8 -34.5 -15.5t-32.5 -15.5l-21 48q94 46 166 67t140 21q83 0 129 -30.5t46 -83.5q0 -41 -35 -79.5t-101 -71.5q45 -16 96 -24t109 -8h8v-55h-8q-77 0 -144 15t-125 44
q-73 -27 -156 -43t-152 -16zM465 234q0 33 -31.5 49.5t-96.5 16.5q-38 0 -81 -8.5t-92 -26.5q29 -50 68.5 -88t87.5 -64q69 26 107 57.5t38 63.5z" />
    <glyph glyph-name="gheyn.isol" unicode="&#x63a;" horiz-adv-x="574" arabic-form="isolated" 
d="M158 412q0 -83 47.5 -152.5t103.5 -69.5q15 0 49.5 8t104.5 27l9 -47l-162 -42q-108 -28 -157.5 -70.5t-49.5 -108.5q0 -77 68.5 -118.5t196.5 -41.5q48 0 93 5.5t93 16.5l-4 -52q-38 -12 -86 -18.5t-91 -6.5q-149 0 -232 56.5t-83 157.5q0 65 43 117.5t124 84.5
q-47 36 -77.5 96t-30.5 120q0 53 45.5 93t108.5 40q45 0 88.5 -15t68.5 -39l-18 -34q-35 19 -69 28.5t-65 9.5q-34 0 -64 -11.5t-54 -33.5zM321 632l-52 -49l-52 49l52 50z" />
    <glyph glyph-name="gheyn.fina" unicode="&#x63a;" horiz-adv-x="560" arabic-form="final" 
d="M338 -258q-143 0 -226.5 48.5t-83.5 127.5q0 57 44 98.5t147 83.5q-39 29 -71 66t-58 81q-18 -8 -34.5 -15.5t-32.5 -15.5l-21 48q94 46 166 67t140 21q82 0 128.5 -30.5t46.5 -83.5q0 -48 -35.5 -79t-120.5 -64q47 -20 103.5 -30t121.5 -10h8v-55h-8q-83 0 -155 17.5
t-132 52.5q-105 -38 -148.5 -72t-43.5 -80q0 -54 70 -87.5t195 -33.5q48 0 93 5.5t93 16.5l-4 -52q-37 -11 -87.5 -18t-94.5 -7zM279 119q80 28 118 55.5t38 59.5q0 33 -31.5 49.5t-96.5 16.5q-38 0 -81 -8.5t-92 -26.5q28 -47 64.5 -83.5t80.5 -62.5zM377 477l-52 -49
l-52 49l52 50z" />
    <glyph glyph-name="gheyn.init" unicode="&#x63a;" horiz-adv-x="530" arabic-form="initial" 
d="M9 0h-9q-9 0 -15 8t-6 19q0 12 6 20t15 8h30q36 0 75.5 4t79.5 11q-44 37 -71.5 94t-27.5 114q0 53 45.5 93t108.5 40q45 0 88.5 -15t68.5 -39l-18 -34q-35 19 -69 28.5t-65 9.5q-34 0 -64 -11.5t-54 -33.5q0 -83 47.5 -152.5t103.5 -69.5q21 0 69 11.5t138 38.5l14 -49
q-140 -46 -267.5 -70.5t-222.5 -24.5zM290 535l-52 -49l-52 49l52 50z" />
    <glyph glyph-name="gheyn.medi" unicode="&#x63a;" horiz-adv-x="590" arabic-form="medial" 
d="M5 0h-5q-9 0 -15 8t-6 19q0 12 6 20t15 8h4q60 0 127 10t128 28q-41 28 -75.5 67t-63.5 87q-18 -8 -34.5 -15.5t-32.5 -15.5l-21 48q94 46 166 67t140 21q83 0 129 -30.5t46 -83.5q0 -41 -35 -79.5t-101 -71.5q45 -16 96 -24t109 -8h8v-55h-8q-77 0 -144 15t-125 44
q-73 -27 -156 -43t-152 -16zM465 234q0 33 -31.5 49.5t-96.5 16.5q-38 0 -81 -8.5t-92 -26.5q29 -50 68.5 -88t87.5 -64q69 26 107 57.5t38 63.5zM405 477l-52 -49l-52 49l52 50z" />
    <glyph glyph-name="feh.isol" unicode="&#x641;" horiz-adv-x="811" arabic-form="isolated" 
d="M595 678l-52 -49l-52 49l52 50zM523 552q87 0 147.5 -90.5t60.5 -206.5q0 -144 -79.5 -204.5t-268.5 -60.5q-163 0 -243 47t-80 142q0 30 12 63t33 60l33 -22q-16 -24 -24 -48.5t-8 -51.5q0 -69 71 -102t218 -33q156 0 222 42.5t70 145.5q-35 -12 -71.5 -17.5t-75.5 -5.5
q-88 0 -133.5 33t-45.5 95q0 83 49.5 148.5t112.5 65.5zM522 495q-44 0 -80.5 -42.5t-36.5 -98.5q0 -45 37 -66t115 -21q37 0 66 4.5t62 14.5q-10 87 -56.5 148t-106.5 61z" />
    <glyph glyph-name="feh.fina" unicode="&#x641;" horiz-adv-x="834" arabic-form="final" 
d="M656 525l-52 -49l-52 49l52 50zM106 180q0 -68 68.5 -101.5t208.5 -33.5q43 0 83 4.5t77 13.5q-49 32 -76 77t-27 95q0 73 45.5 119t118.5 46t118.5 -46t45.5 -119q0 -47 -24.5 -90t-71.5 -77q31 -6 64 -9.5t69 -3.5h29v-55h-39q-52 0 -100 8t-89 23q-47 -20 -103 -30.5
t-120 -10.5q-163 0 -243 47t-80 142q0 30 12 63t33 60l33 -22q-16 -24 -24 -48.5t-8 -51.5zM604 343q-57 0 -88.5 -28.5t-31.5 -79.5q0 -45 33.5 -84.5t93.5 -63.5q54 26 83.5 64.5t29.5 83.5q0 50 -32.5 79t-87.5 29z" />
    <glyph glyph-name="feh.init" unicode="&#x641;" horiz-adv-x="470" arabic-form="initial" 
d="M57 0h-57q-9 0 -15 8t-6 19q0 12 6 20t15 8h57q140 0 211 44t77 134q-34 -12 -70.5 -17.5t-75.5 -5.5q-88 0 -133.5 33t-45.5 95q0 83 49.5 148.5t112.5 65.5q87 0 147.5 -90.5t60.5 -206.5q0 -129 -82 -192t-251 -63zM181 495q-44 0 -80.5 -42.5t-36.5 -98.5
q0 -45 37 -66t115 -21q37 0 66 4.5t62 14.5q-10 87 -56.5 148t-106.5 61zM230 677l-52 -49l-52 49l52 50z" />
    <glyph glyph-name="feh.medi" unicode="&#x641;" horiz-adv-x="473" arabic-form="medial" 
d="M30 0h-30q-9 0 -15 8t-6 19q0 12 6 20t15 8h42q34 0 64.5 3t58.5 9q-53 33 -82.5 77t-29.5 91q0 73 50.5 119t130.5 46q79 0 128 -46t49 -119q0 -48 -27 -91t-78 -75q32 -7 66.5 -10.5t71.5 -3.5h29v-55h-39q-55 0 -105 8.5t-94 24.5q-44 -16 -96 -24.5t-109 -8.5z
M234 343q-65 0 -101 -28.5t-36 -79.5q0 -41 38 -81t103 -65q61 25 95 63t34 83q0 50 -36 79t-97 29zM286 525l-52 -49l-52 49l52 50z" />
    <glyph glyph-name="ghaf.isol" unicode="&#x642;" horiz-adv-x="710" arabic-form="isolated" 
d="M424 460l-52 -49l-52 49l52 50zM544 460l-52 -49l-52 49l52 50zM422 332q87 0 147.5 -90.5t60.5 -206.5q0 -145 -73 -219t-216 -74q-138 0 -209.5 55t-71.5 162q0 30 12 63t33 60l33 -22q-16 -24 -24 -48.5t-8 -51.5q0 -80 60 -121.5t175 -41.5q118 0 179 54t66 162
q-35 -12 -71.5 -17.5t-75.5 -5.5q-88 0 -133.5 33t-45.5 95q0 83 49.5 148.5t112.5 65.5zM421 275q-44 0 -80.5 -42.5t-36.5 -98.5q0 -45 37 -66t115 -21q37 0 66 4.5t62 14.5q-10 87 -56.5 148t-106.5 61z" />
    <glyph glyph-name="ghaf.fina" unicode="&#x642;" horiz-adv-x="755" arabic-form="final" 
d="M424 460l-52 -49l-52 49l52 50zM544 460l-52 -49l-52 49l52 50zM755 55v-55h-126q-9 -117 -80 -173.5t-208 -56.5q-142 0 -211.5 47t-69.5 142q0 30 12 63t33 60l33 -22q-16 -24 -24 -48.5t-8 -51.5q0 -68 58 -101.5t177 -33.5q117 0 176.5 42.5t67.5 132.5h-146
q-89 0 -134 30t-45 88q0 83 49.5 148.5t112.5 65.5q83 0 142 -82.5t65 -194.5h126zM304 134q0 -41 36.5 -60t115.5 -19h129q-7 90 -54.5 155t-109.5 65q-44 0 -80.5 -42.5t-36.5 -98.5z" />
    <glyph glyph-name="ghaf.init" unicode="&#x642;" horiz-adv-x="450" arabic-form="initial" 
d="M57 0h-57q-9 0 -15 8t-6 19q0 12 6 20t15 8h57q140 0 211 44t77 134q-34 -12 -70.5 -17.5t-75.5 -5.5q-88 0 -133.5 33t-45.5 95q0 83 49.5 148.5t112.5 65.5q87 0 147.5 -90.5t60.5 -206.5q0 -129 -82 -192t-251 -63zM181 495q-44 0 -80.5 -42.5t-36.5 -98.5
q0 -45 37 -66t115 -21q37 0 66 4.5t62 14.5q-10 87 -56.5 148t-106.5 61zM170 677l-52 -49l-52 49l52 50zM290 677l-52 -49l-52 49l52 50z" />
    <glyph glyph-name="ghaf.medi" unicode="&#x642;" horiz-adv-x="473" arabic-form="medial" 
d="M30 0h-30q-9 0 -15 8t-6 19q0 12 6 20t15 8h42q34 0 64.5 3t58.5 9q-53 33 -82.5 77t-29.5 91q0 73 50.5 119t130.5 46q79 0 128 -46t49 -119q0 -48 -27 -91t-78 -75q32 -7 66.5 -10.5t71.5 -3.5h29v-55h-39q-55 0 -105 8.5t-94 24.5q-44 -16 -96 -24.5t-109 -8.5z
M234 343q-65 0 -101 -28.5t-36 -79.5q0 -41 38 -81t103 -65q61 25 95 63t34 83q0 50 -36 79t-97 29zM226 525l-52 -49l-52 49l52 50zM346 525l-52 -49l-52 49l52 50z" />
    <glyph glyph-name="kafArabic.isol" unicode="&#x643;" horiz-adv-x="742" arabic-form="isolated" 
d="M680 59q-47 -32 -132 -50.5t-185 -18.5q-150 0 -226.5 47.5t-76.5 141.5q0 30 12 63t33 60l33 -22q-16 -24 -24 -48.5t-8 -51.5q0 -68 64 -101.5t193 -33.5q84 0 158.5 11.5t119.5 32.5q6 41 8.5 77.5t2.5 76.5v462h48v-462q0 -48 -5 -95.5t-15 -88.5zM535 326
q0 -26 -36.5 -40t-106.5 -14q-22 0 -48 2.5t-56 8.5l10 46q24 -6 52.5 -9t54.5 -3q27 0 52 2.5t41 7.5q-10 10 -29 22.5t-58 34.5q-51 29 -72 45.5t-21 33.5q0 27 52.5 57.5t132.5 48.5l10 -38q-54 -13 -92 -29t-64 -37l125 -75q27 -16 40 -31.5t13 -32.5z" />
    <glyph glyph-name="kafArabic.fina" unicode="&#x643;" horiz-adv-x="821" arabic-form="final" 
d="M814 55h7v-55h-7q-48 0 -82.5 14.5t-54.5 42.5q-49 -31 -135 -49t-189 -18q-145 0 -219 47.5t-74 141.5q0 30 12 63t33 60l33 -22q-16 -24 -24 -48.5t-8 -51.5q0 -68 61.5 -101.5t185.5 -33.5q98 0 176.5 13.5t129.5 39.5q-4 11 -5.5 24t-1.5 29v554h48v-558
q0 -45 29 -68.5t85 -23.5zM535 326q0 -26 -36.5 -40t-106.5 -14q-26 0 -53.5 3t-50.5 8l10 46q24 -6 52.5 -9t54.5 -3q27 0 52 2.5t41 7.5q-10 10 -29 22.5t-58 34.5q-51 29 -72 45.5t-21 33.5q0 27 52.5 57.5t132.5 48.5l10 -38q-54 -13 -92 -29t-64 -37l125 -75
q27 -16 40 -31.5t13 -32.5z" />
    <glyph glyph-name="kafArabic.init" unicode="&#x643;" horiz-adv-x="423" arabic-form="initial" 
d="M338 142q0 -67 -87.5 -104.5t-250.5 -37.5q-9 0 -15 8t-6 19q0 12 6 20t15 8q134 0 206 16.5t90 53.5q0 23 -14 52.5t-52 84.5l-142 203q-10 14 -13.5 21.5t-3.5 14.5q0 9 4.5 17t14.5 16q64 57 157 107.5t176 73.5l13 -46q-86 -27 -170 -71.5t-146 -97.5
q168 -235 193 -279t25 -79z" />
    <glyph glyph-name="kafArabic.medi" unicode="&#x643;" horiz-adv-x="540" arabic-form="medial" 
d="M337 76q-49 -33 -142.5 -54.5t-194.5 -21.5q-9 0 -15 8t-6 19q0 12 6 20t15 8q103 0 179 14.5t125 42.5q-10 12 -15 19t-9 13l-226 321q-10 14 -13.5 21.5t-3.5 14.5q0 9 4.5 17t14.5 16q64 57 157 107.5t176 73.5l13 -46q-86 -27 -170 -71.5t-146 -97.5l198 -277
q67 -93 119.5 -130.5t131.5 -37.5h5v-55h-10q-58 0 -105 18.5t-88 57.5z" />
    <glyph glyph-name="lam.isol" unicode="&#x644;" horiz-adv-x="641" arabic-form="isolated" 
d="M481 -70q6 38 9 75.5t3 81.5v618h48v-618q0 -48 -5 -95.5t-15 -88.5q-56 -39 -120 -60t-129 -21q-104 0 -162 48.5t-58 133.5q0 37 13.5 82t36.5 84l36 -16q-17 -35 -27.5 -73t-10.5 -66q0 -68 45 -103t133 -35q53 0 106.5 14t96.5 39z" />
    <glyph glyph-name="lam.fina" unicode="&#x644;" horiz-adv-x="662" arabic-form="final" 
d="M481 -70q6 38 9 75.5t3 81.5v618h48v-543q0 -55 28 -81t88 -26h5v-55h-20q-31 0 -57.5 11t-44.5 31q-2 -36 -6.5 -71.5t-12.5 -67.5q-56 -39 -120 -60t-129 -21q-104 0 -162 48.5t-58 133.5q0 37 13.5 82t36.5 84l36 -16q-17 -35 -27.5 -73t-10.5 -66q0 -68 45 -103
t133 -35q53 0 106.5 14t96.5 39z" />
    <glyph glyph-name="lam.init" unicode="&#x644;" horiz-adv-x="307" arabic-form="initial" 
d="M7 0h-7q-9 0 -15 8t-6 19q0 12 6 20t15 8h7q74 0 113 28.5t39 83.5v538h48v-534q0 -83 -52 -127t-148 -44z" />
    <glyph glyph-name="lam.medi" unicode="&#x644;" horiz-adv-x="328" arabic-form="medial" 
d="M4 0h-4q-9 0 -15 8t-6 19q0 12 6 20t15 8h7q50 0 89.5 15t62.5 43v592h48v-543q0 -55 28 -81t88 -26h5v-55h-20q-43 0 -76.5 20t-48.5 53q-27 -31 -77 -52t-102 -21z" />
    <glyph glyph-name="mim.isol" unicode="&#x645;" horiz-adv-x="642" arabic-form="isolated" 
d="M90 -19q0 -42 11.5 -110t30.5 -142l-47 -13q-22 90 -32.5 155t-10.5 106q0 74 32 119.5t89 55.5q41 100 93 150t114 50q46 0 91 -30t76 -81q28 -47 36.5 -99.5t-4.5 -102.5q-22 -23 -60.5 -36t-83.5 -13q-76 0 -144.5 28t-116.5 79q-37 -8 -55.5 -36.5t-18.5 -79.5z
M531 90q0 79 -50.5 143t-112.5 64q-49 0 -89 -38.5t-74 -120.5q46 -46 101.5 -69.5t118.5 -23.5q52 0 79 11.5t27 33.5z" />
    <glyph glyph-name="mim.fina" unicode="&#x645;" horiz-adv-x="693" arabic-form="final" 
d="M90 -19q0 -42 11.5 -110t30.5 -142l-47 -13q-22 90 -32.5 155t-10.5 106q0 74 32 119.5t89 55.5q41 100 93 150t114 50q61 0 113.5 -49.5t87.5 -140.5q27 -70 47 -88.5t70 -18.5h5v-55h-7q-47 0 -74 11.5t-49 38.5q-17 -30 -51.5 -45t-86.5 -15q-76 0 -145 28.5
t-116 78.5q-37 -8 -55.5 -37t-18.5 -79zM531 90q0 79 -50.5 143t-112.5 64q-49 0 -89 -39t-74 -120q46 -46 101.5 -69.5t118.5 -23.5q52 0 79 11.5t27 33.5z" />
    <glyph glyph-name="mim.init" unicode="&#x645;" horiz-adv-x="642" arabic-form="initial" 
d="M2 0h-2q-9 0 -15 8t-6 19q0 12 6 20t15 8h6q54 0 90 30.5t79 101.5q58 96 98.5 130.5t96.5 34.5q46 0 91 -30t76 -81q28 -47 36.5 -99.5t-4.5 -102.5q-22 -23 -60.5 -36t-83.5 -13q-74 0 -141.5 27.5t-115.5 76.5q-39 -51 -76.5 -72.5t-89.5 -21.5zM531 90
q0 79 -50.5 143t-112.5 64q-45 0 -75.5 -27.5t-74.5 -100.5q-6 -9 -9.5 -15t-7.5 -12q46 -47 103 -72t121 -25q52 0 79 11.5t27 33.5z" />
    <glyph glyph-name="mim.medi" unicode="&#x645;" horiz-adv-x="693" arabic-form="medial" 
d="M2 0h-2q-9 0 -15 8t-6 19q0 12 6 20t15 8h6q54 0 90 30.5t79 101.5q58 96 98.5 130.5t96.5 34.5q61 0 113.5 -49.5t87.5 -140.5q27 -70 47 -88.5t70 -18.5h5v-55h-7q-47 0 -74 11.5t-49 38.5q-17 -30 -51.5 -45t-86.5 -15q-74 0 -142.5 27.5t-115.5 76.5
q-39 -50 -76.5 -72t-88.5 -22zM531 90q0 79 -50.5 143t-112.5 64q-45 0 -75.5 -27.5t-74.5 -100.5q-7 -11 -10 -16t-7 -11q46 -47 103 -72t121 -25q52 0 79 11.5t27 33.5z" />
    <glyph glyph-name="noon.isol" unicode="&#x646;" horiz-adv-x="703" arabic-form="isolated" 
d="M493 355l48 22q52 -105 69.5 -238t-10.5 -235q-40 -37 -112.5 -58t-159.5 -21q-130 0 -199 56.5t-69 163.5q0 44 19 94.5t56 102.5l33 -21q-34 -57 -47.5 -95.5t-13.5 -74.5q0 -88 55.5 -129.5t172.5 -41.5q70 0 129 13t102 39q13 97 -6.5 208.5t-66.5 214.5zM394 518
l-52 -49l-52 49l52 50z" />
    <glyph glyph-name="noon.fina" unicode="&#x646;" horiz-adv-x="757" arabic-form="final" 
d="M614 50q6 -57 2.5 -109t-16.5 -97q-40 -37 -112.5 -58t-159.5 -21q-130 0 -199 56.5t-69 163.5q0 44 19 94.5t56 102.5l33 -21q-34 -57 -47.5 -95.5t-13.5 -74.5q0 -88 55.5 -129.5t172.5 -41.5q70 0 129 13t102 39q13 97 -6.5 208.5t-66.5 214.5l48 22q19 -49 31 -81
t22 -60q29 -80 57 -100.5t100 -20.5h6v-55h-6q-54 0 -84.5 11.5t-52.5 38.5zM394 449l-52 -49l-52 49l52 50z" />
    <glyph glyph-name="noon.init" unicode="&#x646;" horiz-adv-x="322" arabic-form="initial" 
d="M11 0h-11q-9 0 -15 8t-6 19q0 12 6 20t15 8h5q58 0 107 9.5t89 28.5q0 92 -4.5 128.5t-13.5 79.5l48 11q15 -75 15.5 -135t-13.5 -118q-45 -30 -99.5 -44.5t-122.5 -14.5zM204 477l-52 -49l-52 49l52 50z" />
    <glyph glyph-name="noon.medi" unicode="&#x646;" horiz-adv-x="358" arabic-form="medial" 
d="M4 0h-4q-9 0 -15 8t-6 19q0 12 6 20t15 8h7q50 0 89.5 15t62.5 43v144h48v-95q0 -55 35.5 -81t110.5 -26h5v-55h-20q-55 0 -97 20t-57 54q-28 -32 -77.5 -53t-102.5 -21zM237 432l-52 -49l-52 49l52 50z" />
    <glyph glyph-name="heh.isol" unicode="&#x647;" horiz-adv-x="470" arabic-form="isolated" 
d="M60 146q0 66 39 123.5t117 107.5q93 -27 143.5 -85t50.5 -134q0 -75 -50 -121.5t-130 -46.5q-77 0 -123.5 43t-46.5 113zM220 320q-57 -35 -85.5 -77t-28.5 -90q0 -50 33.5 -79t91.5 -29q63 0 98 31t35 87q0 52 -36.5 91.5t-107.5 65.5z" />
    <glyph glyph-name="heh.fina" unicode="&#x647;" horiz-adv-x="481" arabic-form="final" 
d="M336 94q-23 -15 -54.5 -23t-63.5 -8q-68 0 -108.5 35.5t-40.5 95.5q0 76 67 129t196 77v40h48v-293q0 -50 21.5 -71t72.5 -21h7v-55h-7q-60 0 -94 23.5t-44 70.5zM115 196q0 -38 26.5 -58t76.5 -20q32 0 61 6.5t53 18.5v199q-105 -13 -161 -52t-56 -94z" />
    <glyph glyph-name="heh.init" unicode="&#x647;" horiz-adv-x="623" arabic-form="initial" 
d="M53 0h-53q-9 0 -15 8t-6 19q0 12 6 20t15 8h46q35 0 66 3t57 9q-58 39 -88 84.5t-30 96.5q0 73 47 117t125 44q10 0 19 -1t17 -3l21 45q127 -55 205 -150t78 -190q0 -57 -27 -93.5t-71 -36.5q-54 0 -115.5 14t-116.5 39q-38 -16 -84 -24.5t-96 -8.5zM221 354
q-57 0 -89.5 -28.5t-32.5 -77.5q0 -46 34.5 -87.5t97.5 -73.5q55 24 83.5 65t28.5 96q0 48 -33.5 77t-88.5 29zM457 32q28 0 43 18.5t15 53.5q0 57 -42.5 123t-115.5 118q17 -21 25.5 -46t8.5 -52q0 -57 -26 -104t-76 -80q42 -15 85.5 -23t82.5 -8z" />
    <glyph glyph-name="heh.medi" unicode="&#x647;" horiz-adv-x="490" arabic-form="medial" 
d="M98 0h-98q-9 0 -15 8t-6 19q0 12 6 20t15 8h95q1 67 27.5 146.5t71.5 149.5q22 35 34.5 47t26.5 12q13 0 24 -8t29 -33q48 -63 68 -111t20 -101q0 -25 -8.5 -50.5t-25.5 -51.5h128v-55h-83q23 -20 35 -45t12 -56q0 -62 -37 -98t-101 -36q-86 0 -146 64t-72 171zM348 156
q0 49 -23 97t-72 103q-49 -70 -79.5 -154t-30.5 -147h116q39 0 64 28.5t25 72.5zM406 -101q0 47 -38 74t-104 27h-118q10 -87 54.5 -133.5t115.5 -46.5q43 0 66.5 20.5t23.5 58.5z" />
    <glyph glyph-name="vav.isol" unicode="&#x648;" horiz-adv-x="497" arabic-form="isolated" 
d="M372 246q23 -41 36.5 -89.5t13.5 -91.5q0 -64 -20.5 -121.5t-60.5 -101.5q-42 -48 -98 -74t-115 -26q-24 0 -51.5 5t-46.5 13l11 38q20 -4 36 -5.5t35 -1.5q92 0 166 60t99 161q-29 -11 -59 -16.5t-61 -5.5q-95 0 -140 40.5t-45 124.5t46 140.5t107 56.5q42 0 80 -27.5
t67 -78.5zM224 295q-46 0 -77 -38.5t-31 -102.5q0 -57 32.5 -82t109.5 -25q32 0 58.5 4.5t58.5 14.5q-12 105 -52.5 167t-98.5 62z" />
    <glyph glyph-name="vav.fina" unicode="&#x648;" horiz-adv-x="506" arabic-form="final" 
d="M372 246q23 -41 36.5 -89.5t13.5 -91.5v-10h84v-55h-90q-20 -113 -102.5 -185.5t-185.5 -72.5q-24 0 -51.5 5t-46.5 13l11 38q20 -4 36 -5.5t35 -1.5q88 0 161 57t101 152h-118q-93 0 -138.5 38.5t-45.5 116.5q0 84 46 140.5t107 56.5q42 0 80 -27.5t67 -78.5zM116 154
q0 -53 32.5 -76t108.5 -23h119q-10 109 -51.5 174.5t-100.5 65.5q-46 0 -77 -38.5t-31 -102.5z" />
    <glyph glyph-name="alefMaghsureh.isol" unicode="&#x649;" horiz-adv-x="704" arabic-form="isolated" 
d="M335 -210q-135 0 -205 55t-70 162q0 30 12 63t33 60l33 -22q-16 -24 -24 -48.5t-8 -51.5q0 -80 58.5 -121.5t170.5 -41.5q103 0 186 38t111 92q-3 22 -26 41.5t-99 52.5q-54 24 -80 38.5t-44 29.5q-33 25 -49 55t-16 65q0 67 54 117t132 50q62 0 113 -36t72 -91l-32 -25
q-36 50 -78 73.5t-95 23.5q-52 0 -85 -33t-33 -79q0 -38 30.5 -68t128.5 -73q90 -38 117.5 -64t27.5 -57q0 -42 -34.5 -85t-93.5 -73q-45 -23 -97.5 -35t-109.5 -12z" />
    <glyph glyph-name="alefMaghsureh.fina" unicode="&#x649;" horiz-adv-x="758" arabic-form="final" 
d="M409 0h-11l24 55h336v-55h-143q9 -8 13.5 -18t4.5 -22q0 -37 -34 -83t-89 -80q-44 -27 -95.5 -41t-106.5 -14q-118 0 -183 54t-65 151q0 52 21 114.5t57 119.5l35 -18q-30 -55 -47.5 -109.5t-17.5 -95.5q0 -79 52.5 -120.5t153.5 -40.5q103 1 178.5 47t97.5 119
q-21 17 -70 27t-111 10z" />
    <glyph glyph-name="yehArabic.isol" unicode="&#x64a;" horiz-adv-x="704" arabic-form="isolated" 
d="M335 -210q-135 0 -205 55t-70 162q0 30 12 63t33 60l33 -22q-16 -24 -24 -48.5t-8 -51.5q0 -80 58.5 -121.5t170.5 -41.5q103 0 186 38t111 92q-3 22 -26 41.5t-99 52.5q-54 24 -80 38.5t-44 29.5q-33 25 -49 55t-16 65q0 67 54 117t132 50q62 0 113 -36t72 -91l-32 -25
q-36 50 -78 73.5t-95 23.5q-52 0 -85 -33t-33 -79q0 -38 30.5 -68t128.5 -73q90 -38 117.5 -64t27.5 -57q0 -42 -34.5 -85t-93.5 -73q-45 -23 -97.5 -35t-109.5 -12zM333 -326l-52 -49l-52 49l52 50zM453 -326l-52 -49l-52 49l52 50z" />
    <glyph glyph-name="yehArabic.fina" unicode="&#x64a;" horiz-adv-x="758" arabic-form="final" 
d="M409 0h-11l24 55h336v-55h-143q9 -8 13.5 -18t4.5 -22q0 -37 -34 -83t-89 -80q-44 -27 -95.5 -41t-106.5 -14q-118 0 -183 54t-65 151q0 52 21 114.5t57 119.5l35 -18q-30 -55 -47.5 -109.5t-17.5 -95.5q0 -79 52.5 -120.5t153.5 -40.5q103 1 178.5 47t97.5 119
q-21 17 -70 27t-111 10zM291 -384l-52 -49l-52 49l52 50zM411 -384l-52 -49l-52 49l52 50z" />
    <glyph glyph-name="yehArabic.init" unicode="&#x64a;" horiz-adv-x="322" arabic-form="initial" 
d="M11 0h-11q-9 0 -15 8t-6 19q0 12 6 20t15 8h5q58 0 107 9.5t89 28.5q0 92 -4.5 128.5t-13.5 79.5l48 11q15 -75 15.5 -135t-13.5 -118q-45 -30 -99.5 -44.5t-122.5 -14.5zM171 -126l-52 -49l-52 49l52 50zM291 -126l-52 -49l-52 49l52 50z" />
    <glyph glyph-name="yehArabic.medi" unicode="&#x64a;" horiz-adv-x="358" arabic-form="medial" 
d="M4 0h-4q-9 0 -15 8t-6 19q0 12 6 20t15 8h7q50 0 89.5 15t62.5 43v144h48v-95q0 -55 35.5 -81t110.5 -26h5v-55h-20q-55 0 -97 20t-57 54q-28 -32 -77.5 -53t-102.5 -21zM177 -126l-52 -49l-52 49l52 50zM297 -126l-52 -49l-52 49l52 50z" />
    <glyph glyph-name=".notdef" horiz-adv-x="682" 
d="M587 0h-492v685h492v-685zM147 638v-591h388v591h-388z" />
    <glyph glyph-name=".null" 
 />
    <glyph glyph-name=".null" 
 />
    <glyph glyph-name="nonmarkingreturn" horiz-adv-x="333" 
 />
    <glyph glyph-name="CR" unicode="&#xd;" 
 />
    <glyph glyph-name="space" unicode=" " horiz-adv-x="180" 
 />
    <glyph glyph-name="exclam" unicode="!" horiz-adv-x="300" 
d="M122 685h56l-5 -520h-46zM190 30q0 -17 -11.5 -28.5t-28.5 -11.5t-28.5 11.5t-11.5 28.5q0 19 10.5 29.5t29.5 10.5t29.5 -10.5t10.5 -29.5z" />
    <glyph glyph-name="quotedbl" unicode="&#x22;" horiz-adv-x="297" 
d="M99 685l-7 -210h-37l-7 210h51zM249 685l-7 -210h-37l-7 210h51z" />
    <glyph glyph-name="numbersign" unicode="#" horiz-adv-x="744" 
d="M409 0h-48l64 198h-198l-64 -198h-48l64 198h-134v47h149l62 195h-161v47h176l64 198h48l-64 -198h198l64 198h48l-64 -198h134v-47h-149l-62 -195h161v-47h-176zM304 440l-62 -195h198l62 195h-198z" />
    <glyph glyph-name="dollar" unicode="$" horiz-adv-x="566" 
d="M334 365q94 -31 136 -76.5t42 -111.5q0 -80 -58 -133.5t-145 -53.5v-90h-46v92q-63 7 -116.5 35.5t-97.5 78.5l34 39q40 -45 84.5 -70.5t95.5 -32.5v292q-99 35 -137.5 78.5t-38.5 109.5q0 71 48 117.5t128 54.5v101h46v-101q52 -3 98 -24.5t88 -63.5l-33 -38
q-40 37 -77 55.5t-76 21.5v-272q5 -2 13 -4.5t12 -3.5zM139 522q0 -45 27.5 -75.5t96.5 -57.5v255q-57 -6 -90.5 -38.5t-33.5 -83.5zM460 177q0 47 -32 79.5t-119 61.5v-279q66 2 108.5 41t42.5 97z" />
    <glyph glyph-name="percent" unicode="%" horiz-adv-x="866" 
d="M40 524q0 74 47.5 122.5t120.5 48.5q72 0 119.5 -48.5t47.5 -122.5t-47 -122t-120 -48t-120.5 48t-47.5 122zM185 0l440 685h56l-440 -685h-56zM323 524q0 53 -32.5 88.5t-82.5 35.5t-83 -35.5t-33 -88.5q0 -52 33 -87.5t83 -35.5t82.5 35t32.5 88zM826 160
q0 -74 -47 -122t-120 -48t-120.5 48t-47.5 122t47.5 122.5t120.5 48.5q72 0 119.5 -48.5t47.5 -122.5zM543 160q0 -52 33 -87.5t83 -35.5t82.5 35t32.5 88t-32.5 88.5t-82.5 35.5t-83 -35.5t-33 -88.5z" />
    <glyph glyph-name="ampersand" unicode="&#x26;" horiz-adv-x="617" 
d="M137 517q0 -56 39 -93.5t98 -37.5h315v-47h-100v-121q0 -103 -59.5 -165.5t-157.5 -62.5q-89 0 -148 56.5t-59 141.5q0 59 35.5 105.5t97.5 68.5q-52 19 -82.5 60.5t-30.5 94.5q0 77 53 127.5t134 50.5q56 0 106 -27t96 -83l-35 -31q-41 48 -81.5 71t-85.5 23
q-59 0 -97 -37t-38 -94zM117 188q0 -66 43.5 -108.5t111.5 -42.5q76 0 120.5 49t44.5 132v121h-153q-71 0 -119 -43.5t-48 -107.5z" />
    <glyph glyph-name="quotesingle" unicode="'" horiz-adv-x="147" 
d="M99 685l-7 -210h-37l-7 210h51z" />
    <glyph glyph-name="parenleft" unicode="(" horiz-adv-x="383" 
d="M124 261q0 -127 62 -241.5t169 -186.5l-27 -39q-122 78 -190 201.5t-68 265.5q0 143 68 265.5t190 201.5l27 -39q-107 -72 -169 -186.5t-62 -241.5z" />
    <glyph glyph-name="parenright" unicode=")" horiz-adv-x="383" 
d="M259 261q0 127 -62 241.5t-169 186.5l27 39q122 -79 190 -201.5t68 -265.5q0 -142 -68 -265.5t-190 -201.5l-27 39q107 72 169 186.5t62 241.5z" />
    <glyph glyph-name="asterisk" unicode="*" horiz-adv-x="468" 
d="M266 585l112 -145l-41 -30l-103 153l-103 -153l-41 30l112 145l-177 51l16 49l173 -63l-6 163h51l-6 -163l174 63l16 -49z" />
    <glyph glyph-name="plus" unicode="+" horiz-adv-x="500" 
d="M460 361v-47h-184v-199h-52v199h-184v47h184v199h52v-199h184z" />
    <glyph glyph-name="comma" unicode="," horiz-adv-x="240" 
d="M120 78q18 0 31 -13t13 -31q0 -8 -1.5 -16.5t-5.5 -17.5l-47 -140h-37l32 133q-13 4 -21 15.5t-8 25.5q0 18 13 31t31 13z" />
    <glyph glyph-name="hyphen" unicode="-" horiz-adv-x="370" 
d="M315 267h-260v49h260v-49z" />
    <glyph glyph-name="period" unicode="." horiz-adv-x="240" 
d="M164 34q0 -18 -13 -31t-31 -13t-31 13t-13 31t13 31t31 13t31 -13t13 -31z" />
    <glyph glyph-name="slash" unicode="/" horiz-adv-x="425" 
d="M385 685l-293 -685h-52l293 685h52z" />
    <glyph glyph-name="zero" unicode="0" horiz-adv-x="605" 
d="M70 342q0 158 64.5 255.5t168.5 97.5t168 -97.5t64 -255.5q0 -157 -64.5 -254.5t-167.5 -97.5q-104 0 -168.5 97.5t-64.5 254.5zM481 342q0 139 -48 221.5t-130 82.5t-130.5 -83t-48.5 -221q0 -136 49.5 -219.5t129.5 -83.5t129 83t49 220z" />
    <glyph glyph-name="one" unicode="1" horiz-adv-x="329" 
d="M167 638h-132v47h184v-685h-52v638z" />
    <glyph glyph-name="two" unicode="2" horiz-adv-x="509" 
d="M115 47h344v-47h-411v37l254 307q41 48 59.5 89.5t18.5 83.5q0 56 -37.5 92.5t-95.5 36.5q-45 0 -85 -23t-81 -71l-36 33q46 56 96 83t106 27q81 0 134 -50.5t53 -127.5q0 -51 -23.5 -99t-82.5 -118z" />
    <glyph glyph-name="three" unicode="3" horiz-adv-x="524" 
d="M405 188q0 65 -47.5 108t-117.5 43h-67v47h67q58 0 96.5 37.5t38.5 93.5t-37.5 92.5t-95.5 36.5q-45 0 -85 -23t-81 -71l-36 33q46 56 96 83t106 27q81 0 134 -50.5t53 -127.5q0 -51 -29 -92t-79 -61q63 -21 100.5 -68.5t37.5 -107.5q0 -85 -59 -141.5t-148 -56.5
q-66 0 -121.5 27.5t-100.5 82.5l36 33q39 -47 85 -70.5t101 -23.5q67 0 110 42t43 107z" />
    <glyph glyph-name="four" unicode="4" horiz-adv-x="563" 
d="M371 685h50v-465h102v-47h-102v-173h-52v173h-339v37zM95 220h274v384z" />
    <glyph glyph-name="five" unicode="5" horiz-adv-x="537" 
d="M267 430q95 0 156 -62t61 -158q0 -95 -61.5 -157.5t-155.5 -62.5q-66 0 -121.5 27.5t-100.5 82.5l37 32q38 -46 85.5 -70t99.5 -24q71 0 117 48.5t46 123.5t-46 123.5t-117 48.5q-42 0 -77 -12t-64 -37l-46 20l30 332h322v-47h-279l-23 -246q32 19 66 28.5t71 9.5z" />
    <glyph glyph-name="six" unicode="6" horiz-adv-x="552" 
d="M276 434q95 0 157.5 -63.5t62.5 -158.5t-63 -158.5t-157 -63.5t-157 63.5t-63 158.5q0 54 23.5 111.5t77.5 136.5l155 225h56l-199 -283q25 16 51.5 24t55.5 8zM108 212q0 -75 48 -124.5t120 -49.5t119 49.5t47 124.5t-47 125t-119 50q-73 0 -120.5 -49.5t-47.5 -125.5z
" />
    <glyph glyph-name="seven" unicode="7" horiz-adv-x="453" 
d="M428 685v-37l-265 -648h-54l264 638h-353v47h408z" />
    <glyph glyph-name="eight" unicode="8" horiz-adv-x="573" 
d="M383 365q58 -24 91.5 -71.5t33.5 -105.5q0 -85 -64 -141.5t-157 -56.5q-94 0 -158 56.5t-64 141.5q0 59 33.5 106t92.5 71q-46 23 -72.5 63.5t-26.5 88.5q0 74 57 126t138 52t137.5 -52t56.5 -126q0 -48 -26.5 -88.5t-71.5 -63.5zM147 517q0 -56 40.5 -94t99.5 -38t99 38
t40 94q0 55 -40.5 93t-98.5 38t-99 -38t-41 -93zM120 188q0 -65 48 -108t119 -43t118.5 43t47.5 108q0 66 -47.5 109t-118.5 43t-119 -43t-48 -109z" />
    <glyph glyph-name="nine" unicode="9" horiz-adv-x="552" 
d="M496 473q0 -54 -23.5 -111.5t-77.5 -136.5l-155 -225h-56l199 283q-25 -16 -51.5 -24t-55.5 -8q-95 0 -157.5 63.5t-62.5 158.5t63 158.5t157 63.5t157 -63.5t63 -158.5zM444 473q0 75 -48 124.5t-120 49.5t-119 -49.5t-47 -124.5t47 -125t119 -50q73 0 120.5 49.5
t47.5 125.5z" />
    <glyph glyph-name="colon" unicode=":" horiz-adv-x="240" 
d="M164 34q0 -18 -13 -31t-31 -13t-31 13t-13 31t13 31t31 13t31 -13t13 -31zM164 406q0 -18 -13 -31t-31 -13t-31 13t-13 31t13 31t31 13t31 -13t13 -31z" />
    <glyph glyph-name="semicolon" unicode=";" horiz-adv-x="240" 
d="M164 406q0 -18 -13 -31t-31 -13t-31 13t-13 31t13 31t31 13t31 -13t13 -31zM120 78q18 0 31 -13t13 -31q0 -8 -1.5 -16.5t-5.5 -17.5l-47 -140h-37l32 133q-13 4 -21 15.5t-8 25.5q0 18 13 31t31 13z" />
    <glyph glyph-name="less" unicode="&#x3c;" horiz-adv-x="500" 
d="M100 337l345 -171l-23 -46l-382 194v47l382 198l23 -46z" />
    <glyph glyph-name="equal" unicode="=" horiz-adv-x="500" 
d="M460 450v-47h-420v47h420zM460 271v-47h-420v47h420z" />
    <glyph glyph-name="greater" unicode="&#x3e;" horiz-adv-x="500" 
d="M460 361v-47l-382 -194l-23 46l345 171l-345 176l23 46z" />
    <glyph glyph-name="question" unicode="?" horiz-adv-x="487" 
d="M226 695q89 0 147.5 -56t58.5 -142q0 -79 -51 -134t-130 -63v-135h-50v179l39 2q61 3 100.5 45.5t39.5 105.5q0 66 -43 108.5t-111 42.5q-47 0 -87.5 -21t-73.5 -63l-35 31q37 49 87 74.5t109 25.5zM266 30q0 -16 -11.5 -28t-28.5 -12q-16 0 -28 12t-12 28q0 17 12 28.5
t28 11.5q17 0 28.5 -11.5t11.5 -28.5z" />
    <glyph glyph-name="at" unicode="@" horiz-adv-x="874" 
d="M632 -106l19 -45q-55 -25 -100 -34t-107 -9q-166 0 -277.5 111t-111.5 276q0 166 110.5 277t275.5 111q162 0 270 -104.5t108 -260.5q0 -102 -42.5 -164t-108.5 -62q-44 0 -70 19.5t-33 57.5q-25 -37 -61.5 -57t-79.5 -20q-79 0 -133 56t-54 139q0 84 53.5 140t133.5 56
q39 0 74 -17t59 -49l5 57h41v-250q0 -45 16 -67t49 -22q47 0 73 48t26 135q0 137 -92.5 227.5t-233.5 90.5q-143 0 -238.5 -97.5t-95.5 -243.5q0 -144 97 -242t240 -98q53 0 98 9.5t90 31.5zM289 185q0 -66 38 -107.5t97 -41.5q58 0 97.5 43t39.5 106t-39.5 106t-97.5 43
q-60 0 -97.5 -41.5t-37.5 -107.5z" />
    <glyph glyph-name="A" unicode="A" horiz-adv-x="667" 
d="M642 0h-55l-86 209h-338l-85 -209h-53l283 685h51zM332 621l-149 -365h299z" />
    <glyph glyph-name="B" unicode="B" horiz-adv-x="609" 
d="M287 0h-177v685h177q105 0 163.5 -46.5t58.5 -129.5q0 -51 -27.5 -90t-77.5 -60q65 -20 100 -64t35 -105q0 -88 -68 -139t-184 -51zM455 509q0 59 -44 94t-119 35h-130v-258h130q75 0 119 35t44 94zM485 190q0 68 -50.5 105.5t-142.5 37.5h-130v-286h130q92 0 142.5 37.5
t50.5 105.5z" />
    <glyph glyph-name="C" unicode="C" horiz-adv-x="674" 
d="M116 342q0 -128 81 -215.5t198 -87.5q59 0 113 25.5t97 74.5l36 -37q-54 -56 -115.5 -84t-130.5 -28q-142 0 -237.5 101t-95.5 251q0 151 95.5 252t237.5 101q67 0 127 -26t110 -76l-35 -36q-43 44 -94.5 66.5t-107.5 22.5q-120 0 -199.5 -86.5t-79.5 -217.5z" />
    <glyph glyph-name="D" unicode="D" horiz-adv-x="700" 
d="M257 0h-147v685h147q176 0 279 -92.5t103 -250.5t-103 -250t-279 -92zM585 342q0 137 -87 216.5t-236 79.5h-100v-591h100q149 0 236 79.5t87 215.5z" />
    <glyph glyph-name="E" unicode="E" horiz-adv-x="568" 
d="M508 0h-398v685h398v-47h-346v-258h326v-47h-326v-286h346v-47z" />
    <glyph glyph-name="F" unicode="F" horiz-adv-x="543" 
d="M162 0h-52v685h388v-47h-336v-278h316v-47h-316v-313z" />
    <glyph glyph-name="G" unicode="G" horiz-adv-x="754" 
d="M711 309q0 -134 -92 -226.5t-224 -92.5q-142 0 -237.5 101t-95.5 251q0 151 95.5 252t237.5 101q67 0 127 -26t110 -76l-34 -36q-43 43 -95 66t-108 23q-120 0 -199.5 -86.5t-79.5 -217.5q0 -129 80 -216t199 -87q106 0 182.5 71t82.5 175h-275v47h325q1 -8 1 -12v-11z
" />
    <glyph glyph-name="H" unicode="H" horiz-adv-x="732" 
d="M622 0h-52v333h-408v-333h-52v685h52v-305h408v305h52v-685z" />
    <glyph glyph-name="I" unicode="I" horiz-adv-x="272" 
d="M162 0h-52v685h52v-685z" />
    <glyph glyph-name="J" unicode="J" horiz-adv-x="450" 
d="M187 -10q-47 0 -88 19t-74 56l35 35q26 -30 59 -45.5t68 -15.5q55 0 85.5 37t30.5 105v504h52v-504q0 -91 -44.5 -141t-123.5 -50z" />
    <glyph glyph-name="K" unicode="K" horiz-adv-x="622" 
d="M212 327h-50v-327h-52v685h52v-311h50q67 0 99.5 19t83.5 101l119 191h57l-119 -191q-35 -56 -58.5 -85t-45.5 -46l248 -363h-63l-230 338q-18 -6 -40 -8.5t-51 -2.5z" />
    <glyph glyph-name="L" unicode="L" horiz-adv-x="498" 
d="M162 47h306v-47h-358v685h52v-638z" />
    <glyph glyph-name="M" unicode="M" horiz-adv-x="938" 
d="M493 0h-50l-224 595l-85 -595h-50l102 685h50l235 -620l231 620h50l102 -685h-52l-87 591z" />
    <glyph glyph-name="N" unicode="N" horiz-adv-x="726" 
d="M616 0h-52l-404 600v-600h-50v685h52l404 -600v600h50v-685z" />
    <glyph glyph-name="O" unicode="O" horiz-adv-x="790" 
d="M62 342q0 151 95.5 252t237.5 101t237.5 -101t95.5 -252q0 -150 -95.5 -251t-237.5 -101t-237.5 101t-95.5 251zM674 342q0 131 -79.5 217.5t-199.5 86.5t-199.5 -86.5t-79.5 -217.5q0 -130 79.5 -216.5t199.5 -86.5t199.5 86.5t79.5 216.5z" />
    <glyph glyph-name="P" unicode="P" horiz-adv-x="579" 
d="M162 0h-52v685h177q116 0 179 -52.5t63 -150.5q0 -93 -65 -147.5t-177 -54.5h-125v-280zM475 482q0 75 -48 115.5t-135 40.5h-130v-311h130q88 0 135.5 40t47.5 115z" />
    <glyph glyph-name="Q" unicode="Q" horiz-adv-x="790" 
d="M621 79l109 -127l-36 -32l-110 129q-40 -29 -88.5 -44t-100.5 -15q-142 0 -237.5 101t-95.5 251q0 151 95.5 252t237.5 101t237.5 -101t95.5 -252q0 -78 -27.5 -146t-79.5 -117zM395 646q-120 0 -199.5 -86.5t-79.5 -217.5q0 -130 79.5 -216.5t199.5 -86.5
q43 0 82.5 12.5t73.5 36.5l-120 141l36 32l121 -142q41 41 63.5 99t22.5 124q0 131 -79.5 217.5t-199.5 86.5z" />
    <glyph glyph-name="R" unicode="R" horiz-adv-x="600" 
d="M162 0h-52v685h195q97 0 155.5 -51.5t58.5 -136.5q0 -66 -39.5 -115t-102.5 -66l182 -316h-60l-178 309h-159v-309zM465 497q0 64 -42.5 102.5t-112.5 38.5h-148v-282h148q70 0 112.5 38.5t42.5 102.5z" />
    <glyph glyph-name="S" unicode="S" horiz-adv-x="566" 
d="M291 646q-69 0 -110.5 -33.5t-41.5 -90.5q0 -35 16.5 -61t52.5 -46q19 -11 45.5 -21.5t80.5 -28.5q94 -31 136 -76.5t42 -111.5q0 -81 -59.5 -134t-149.5 -53q-76 0 -139 29t-115 87l34 39q48 -54 102 -80t118 -26q68 0 112.5 39t44.5 99q0 48 -33 80.5t-124 62.5
q-64 21 -94.5 35t-52.5 30q-35 25 -52 59t-17 78q0 78 56.5 125.5t147.5 47.5q58 0 108 -22t96 -67l-33 -38q-44 40 -85 59t-86 19z" />
    <glyph glyph-name="T" unicode="T" horiz-adv-x="528" 
d="M238 638h-218v47h488v-47h-218v-638h-52v638z" />
    <glyph glyph-name="U" unicode="U" horiz-adv-x="678" 
d="M339 -10q-113 0 -178.5 73t-65.5 197v425h52v-423q0 -106 50.5 -164.5t141.5 -58.5t141.5 58.5t50.5 164.5v423h52v-425q0 -124 -65.5 -197t-178.5 -73z" />
    <glyph glyph-name="V" unicode="V" horiz-adv-x="609" 
d="M530 685h54l-254 -685h-51l-254 685h56l224 -618z" />
    <glyph glyph-name="W" unicode="W" horiz-adv-x="948" 
d="M660 0h-51l-135 347l-135 -347h-51l-263 685h55l237 -619l132 344l-107 275h54l80 -212l80 212h50l-105 -269l135 -348l234 617h53z" />
    <glyph glyph-name="X" unicode="X" horiz-adv-x="611" 
d="M581 0h-64l-216 310l-213 -310h-58l242 352l-231 333h64l205 -295l202 295h58l-231 -336z" />
    <glyph glyph-name="Y" unicode="Y" horiz-adv-x="569" 
d="M494 685h55l-238 -382v-303h-52v303l-239 382h58l208 -333z" />
    <glyph glyph-name="Z" unicode="Z" horiz-adv-x="554" 
d="M110 47h399v-47h-464v37l389 601h-376v47h441v-37z" />
    <glyph glyph-name="bracketleft" unicode="[" horiz-adv-x="390" 
d="M162 -150h198v-47h-250v919h250v-47h-198v-825z" />
    <glyph glyph-name="backslash" unicode="\" horiz-adv-x="425" 
d="M385 0h-52l-293 685h52z" />
    <glyph glyph-name="bracketright" unicode="]" horiz-adv-x="390" 
d="M30 -197v47h198v825h-198v47h250v-919h-250z" />
    <glyph glyph-name="asciicircum" unicode="^" horiz-adv-x="500" 
d="M275 685l154 -332l-45 -20l-136 297l-133 -297l-44 20l153 332h51z" />
    <glyph glyph-name="underscore" unicode="_" horiz-adv-x="620" 
d="M600 -145h-580v45h580v-45z" />
    <glyph glyph-name="grave" unicode="`" horiz-adv-x="500" 
d="M190 662l154 -121l-22 -31l-164 106z" />
    <glyph glyph-name="a" unicode="a" horiz-adv-x="582" 
d="M492 0h-40l-8 74q-29 -40 -72 -62t-93 -22q-95 0 -159 66.5t-64 163.5q0 98 64 164t159 66q50 0 93 -22t72 -62l8 74h40v-440zM108 220q0 -78 49 -131t122 -53q72 0 121.5 53t49.5 131t-49.5 131t-121.5 53q-73 0 -122 -53t-49 -131z" />
    <glyph glyph-name="b" unicode="b" horiz-adv-x="582" 
d="M303 450q95 0 159 -66t64 -164q0 -97 -64 -163.5t-159 -66.5q-50 0 -93 22t-72 62l-8 -74h-40v705h50v-336q29 39 71.5 60t91.5 21zM303 404q-72 0 -121.5 -53t-49.5 -131t49.5 -131t121.5 -53q73 0 122 53t49 131t-49 131t-122 53z" />
    <glyph glyph-name="c" unicode="c" horiz-adv-x="481" 
d="M108 220q0 -79 49.5 -131.5t124.5 -52.5q37 0 71 15t63 44l32 -34q-35 -36 -76.5 -53.5t-89.5 -17.5q-97 0 -161.5 65.5t-64.5 164.5t64.5 164.5t161.5 65.5q45 0 84 -15t72 -46l-32 -34q-28 25 -58.5 37t-65.5 12q-75 0 -124.5 -52.5t-49.5 -131.5z" />
    <glyph glyph-name="d" unicode="d" horiz-adv-x="582" 
d="M492 0h-40l-8 74q-29 -40 -72 -62t-93 -22q-95 0 -159 66.5t-64 163.5q0 98 64 164t159 66q49 0 91.5 -21t71.5 -60v336h50v-705zM108 220q0 -78 49 -131t122 -53q72 0 121.5 53t49.5 131t-49.5 131t-121.5 53q-73 0 -122 -53t-49 -131z" />
    <glyph glyph-name="e" unicode="e" horiz-adv-x="529" 
d="M416 91l33 -33q-34 -35 -74.5 -51.5t-91.5 -16.5q-97 0 -161.5 65.5t-64.5 164.5q0 98 62 164t154 66q89 0 147.5 -65.5t58.5 -164.5v-8.5t-1 -7.5h-370q5 -73 54 -120.5t121 -47.5q39 0 72.5 14t60.5 41zM273 404q-64 0 -109.5 -43.5t-54.5 -111.5h318q-8 69 -51 112
t-103 43z" />
    <glyph glyph-name="f" unicode="f" horiz-adv-x="341" 
d="M324 440v-45h-158v-395h-50v395h-96v40l92 5l-5 14q-15 38 -21 63.5t-6 45.5q0 69 41 110.5t109 41.5q33 0 65.5 -13t58.5 -37l-30 -33q-19 17 -44.5 27.5t-49.5 10.5q-44 0 -72 -30t-28 -77q0 -19 6 -43t21 -66l5 -14h162z" />
    <glyph glyph-name="g" unicode="g" horiz-adv-x="581" 
d="M519 0q0 -93 -64.5 -151.5t-167.5 -58.5q-65 0 -123 23.5t-109 70.5l33 35q45 -41 95 -62t104 -21q81 0 131.5 45.5t50.5 118.5q0 28 -6 52.5t-19 48.5q-29 -43 -75 -67t-101 -24q-90 0 -151.5 63.5t-61.5 156.5t61.5 156.5t151.5 63.5q50 0 93 -22t72 -62l8 74h40v-304
l10 -21q13 -28 20.5 -58t7.5 -57zM107 230q0 -74 46 -124t115 -50q73 0 122 47t49 117q0 78 -49.5 131t-121.5 53q-69 0 -115 -50t-46 -124z" />
    <glyph glyph-name="h" unicode="h" horiz-adv-x="545" 
d="M290 404q-41 0 -81 -26t-69 -73v-305h-50v705h50v-336q30 38 71 59.5t84 21.5q80 0 124 -50t44 -141v-259h-50v256q0 68 -33 108t-90 40z" />
    <glyph glyph-name="i" unicode="i" horiz-adv-x="230" 
d="M155 584q0 -16 -11.5 -28t-28.5 -12q-16 0 -28 12t-12 28q0 17 12 28.5t28 11.5q17 0 28.5 -11.5t11.5 -28.5zM90 440h50v-440h-50v440z" />
    <glyph glyph-name="j" unicode="j" horiz-adv-x="230" 
d="M155 584q0 -16 -11.5 -28t-28.5 -12q-16 0 -28 12t-12 28q0 17 12 28.5t28 11.5q17 0 28.5 -11.5t11.5 -28.5zM11 -165q36 0 57.5 28.5t21.5 77.5v499h50v-504q0 -65 -35.5 -105.5t-93.5 -40.5q-29 0 -57.5 12t-50.5 33l31 34q18 -16 38.5 -25t38.5 -9z" />
    <glyph glyph-name="k" unicode="k" horiz-adv-x="490" 
d="M180 203h-40v-203h-50v705h50v-457h40q61 0 95 21.5t59 74.5l45 96h54l-45 -96q-19 -40 -38.5 -66t-41.5 -42l155 -236h-61l-140 213q-17 -5 -37.5 -7.5t-44.5 -2.5z" />
    <glyph glyph-name="l" unicode="l" horiz-adv-x="230" 
d="M90 705h50v-705h-50v705z" />
    <glyph glyph-name="m" unicode="m" horiz-adv-x="848" 
d="M285 405q-40 0 -78 -26.5t-67 -74.5v-304h-50v440h40l10 -72q29 39 68.5 60.5t81.5 21.5q53 0 92.5 -26.5t58.5 -72.5q29 46 72 72.5t90 26.5q78 0 120.5 -49.5t42.5 -141.5v-259h-50v256q0 70 -31.5 109.5t-86.5 39.5q-42 0 -78.5 -29t-66.5 -86v-290h-50v256
q0 70 -31.5 109.5t-86.5 39.5z" />
    <glyph glyph-name="n" unicode="n" horiz-adv-x="545" 
d="M290 404q-41 0 -81 -26t-69 -73v-305h-50v440h40l10 -72q29 39 70 60.5t85 21.5q80 0 124 -50t44 -141v-259h-50v256q0 68 -33 108t-90 40z" />
    <glyph glyph-name="o" unicode="o" horiz-adv-x="558" 
d="M501 220q0 -99 -63 -164.5t-159 -65.5t-159 65.5t-63 164.5t63 164.5t159 65.5t159 -65.5t63 -164.5zM109 220q0 -79 48.5 -131.5t121.5 -52.5t121.5 52.5t48.5 131.5t-48 131.5t-122 52.5t-122 -52.5t-48 -131.5z" />
    <glyph glyph-name="p" unicode="p" horiz-adv-x="582" 
d="M526 220q0 -98 -64 -164t-159 -66q-49 0 -91.5 21t-71.5 60v-271h-50v640h40l8 -74q29 40 72 62t93 22q95 0 159 -66.5t64 -163.5zM303 404q-72 0 -121.5 -53t-49.5 -131t49.5 -131t121.5 -53q73 0 122 53t49 131t-49 131t-122 53z" />
    <glyph glyph-name="q" unicode="q" horiz-adv-x="582" 
d="M452 440h40v-640h-50v271q-29 -39 -71.5 -60t-91.5 -21q-95 0 -159 66t-64 164q0 97 64 163.5t159 66.5q50 0 93 -22t72 -62zM108 220q0 -78 49 -131t122 -53q72 0 121.5 53t49.5 131t-49.5 131t-121.5 53q-73 0 -122 -53t-49 -131z" />
    <glyph glyph-name="r" unicode="r" horiz-adv-x="336" 
d="M290 397q-47 0 -84.5 -22.5t-65.5 -66.5v-308h-50v440h40l9 -71q29 38 70.5 59.5t85.5 21.5q6 0 14 -0.5t13 -1.5l-8 -53q-5 1 -12 1.5t-12 0.5z" />
    <glyph glyph-name="s" unicode="s" horiz-adv-x="408" 
d="M65 334q0 52 38 84t99 32q38 0 73 -13.5t64 -39.5l-32 -38q-22 21 -49.5 33t-55.5 12q-42 0 -64.5 -18t-22.5 -51q0 -30 23 -50t94 -41q68 -20 97 -50.5t29 -75.5q0 -56 -43 -92t-112 -36q-46 0 -84.5 17t-73.5 52l33 37q30 -32 59.5 -46t65.5 -14q48 0 76.5 22.5
t28.5 59.5q0 28 -19.5 46t-82.5 38q-83 27 -112 56.5t-29 75.5z" />
    <glyph glyph-name="t" unicode="t" horiz-adv-x="387" 
d="M122 395h-96v40l96 5h1l9 124h40v-124h162v-45h-162v-267q0 -43 20.5 -68t55.5 -25q21 0 42 10.5t40 30.5l29 -31q-25 -27 -53.5 -41t-59.5 -14q-57 0 -90.5 37.5t-33.5 100.5v267z" />
    <glyph glyph-name="u" unicode="u" horiz-adv-x="534" 
d="M444 0h-40l-9 68q-29 -37 -68.5 -57.5t-82.5 -20.5q-78 0 -120.5 47t-42.5 134v269h50v-266q0 -66 31 -102t87 -36q41 0 79 25t66 71v308h50v-440z" />
    <glyph glyph-name="v" unicode="v" horiz-adv-x="460" 
d="M387 440h51l-183 -440h-50l-183 440h52l157 -382z" />
    <glyph glyph-name="w" unicode="w" horiz-adv-x="737" 
d="M515 0h-50l-96 213l-97 -213h-50l-200 440h54l173 -380l92 203l-80 177h54l57 -125l56 125h50l-80 -174l94 -205l172 379h51z" />
    <glyph glyph-name="x" unicode="x" horiz-adv-x="441" 
d="M416 0h-62l-137 188l-137 -188h-55l166 225l-156 215h62l126 -174l128 174h55l-156 -211z" />
    <glyph glyph-name="y" unicode="y" horiz-adv-x="540" 
d="M478 0q0 -91 -63 -150.5t-159 -59.5q-55 0 -105 18t-94 54l28 37q40 -32 82.5 -48t88.5 -16q75 0 123.5 46.5t48.5 118.5q0 28 -6 52.5t-18 47.5q-32 -43 -75 -66.5t-89 -23.5q-78 0 -120.5 47.5t-42.5 133.5v249h50v-246q0 -66 31 -102t87 -36q41 0 79 25.5t66 71.5v287
h50v-304l10 -21q13 -27 20.5 -57.5t7.5 -57.5z" />
    <glyph glyph-name="z" unicode="z" horiz-adv-x="429" 
d="M104 45h285v-45h-349v35l275 360h-265v45h329v-35z" />
    <glyph glyph-name="braceleft" unicode="{" horiz-adv-x="447" 
d="M362 -150h55v-47h-60q-82 0 -121.5 55.5t-39.5 168.5v28q0 90 -30.5 132.5t-98.5 47.5l-37 3v47l37 3q67 5 98 48t31 132v30q0 113 39.5 168.5t121.5 55.5h60v-47h-55q-59 0 -86.5 -43t-27.5 -134v-40q0 -76 -27 -127.5t-76 -68.5q49 -18 76 -69.5t27 -127.5v-38
q0 -91 27.5 -134t86.5 -43z" />
    <glyph glyph-name="bar" unicode="|" horiz-adv-x="272" 
d="M110 685h52v-885h-52v885z" />
    <glyph glyph-name="braceright" unicode="}" horiz-adv-x="447" 
d="M251 55v-28q0 -113 -39.5 -168.5t-121.5 -55.5h-60v47h55q59 0 86.5 43t27.5 134v38q0 76 27 127.5t76 69.5q-49 17 -76 68.5t-27 127.5v40q0 91 -27.5 134t-86.5 43h-55v47h60q82 0 121.5 -55.5t39.5 -168.5v-30q0 -89 31 -132t98 -48l37 -3v-47l-37 -3
q-68 -5 -98.5 -47.5t-30.5 -132.5z" />
    <glyph glyph-name="asciitilde" unicode="~" horiz-adv-x="500" 
d="M153 418q21 0 44 -5.5t67 -22.5q36 -15 53 -19t30 -4q29 0 45.5 13.5t29.5 45.5l38 -16q-18 -46 -45.5 -68.5t-66.5 -22.5q-20 0 -43.5 5.5t-68.5 22.5q-36 15 -52.5 19t-29.5 4q-28 0 -45.5 -12t-30.5 -40l-38 18q15 40 44 61t69 21z" />
    <glyph glyph-name="uni00A0" unicode="&#xa0;" horiz-adv-x="180" 
 />
    <glyph glyph-name="exclamdown" unicode="&#xa1;" horiz-adv-x="300" 
d="M110 420q0 17 11.5 28.5t28.5 11.5t28.5 -11.5t11.5 -28.5q0 -19 -10.5 -29.5t-29.5 -10.5t-29.5 10.5t-10.5 29.5zM173 285l5 -520h-56l5 520h46z" />
    <glyph glyph-name="cent" unicode="&#xa2;" horiz-adv-x="481" 
d="M416 95l32 -34q-33 -33 -71 -51t-83 -20v-90h-48v93q-84 12 -137 75.5t-53 151.5t53 151.5t137 75.5v103h48v-100q41 -2 77 -17.5t67 -43.5l-32 -34q-25 22 -53 34.5t-59 14.5v-368q33 2 64 17t58 42zM108 220q0 -68 38.5 -118t99.5 -62v360q-61 -12 -99.5 -62
t-38.5 -118z" />
    <glyph glyph-name="sterling" unicode="&#xa3;" horiz-adv-x="538" 
d="M175 45h328v-45h-468v40h4q71 3 101.5 36t30.5 102q0 30 -4.5 59t-19.5 87h-112v45h99q-8 36 -11.5 64t-3.5 57q0 87 57.5 146t141.5 59q58 0 101.5 -21t76.5 -64l-40 -31q-30 36 -61.5 51.5t-76.5 15.5q-62 0 -103.5 -44t-41.5 -112q0 -30 4 -59.5t13 -61.5h218v-45
h-207q13 -53 17.5 -83.5t4.5 -59.5q0 -49 -12 -82.5t-36 -53.5z" />
    <glyph glyph-name="currency" unicode="&#xa4;" horiz-adv-x="576" 
d="M447 213l74 -74l-35 -35l-73 73q-25 -22 -57 -33t-68 -11t-68 11t-57 33l-73 -73l-35 35l74 74q-18 27 -27.5 58.5t-9.5 65.5t9.5 65.5t27.5 58.5l-74 74l35 35l73 -73q25 22 57 33t68 11t68 -11t57 -33l73 73l35 -35l-74 -74q18 -27 27.5 -58.5t9.5 -65.5t-9.5 -65.5
t-27.5 -58.5zM143 337q0 -68 41 -113t104 -45t104 45t41 113t-41 113t-104 45t-104 -45t-41 -113z" />
    <glyph glyph-name="yen" unicode="&#xa5;" horiz-adv-x="599" 
d="M527 176h-201v-176h-52v176h-196v47h196v110h-196v47h164l-207 305h60l204 -305h6l202 305h57l-206 -305h169v-47h-201v-110h201v-47z" />
    <glyph glyph-name="brokenbar" unicode="&#xa6;" horiz-adv-x="272" 
d="M110 685h52v-350h-52v350zM110 -200v350h52v-350h-52z" />
    <glyph glyph-name="section" unicode="&#xa7;" horiz-adv-x="455" 
d="M312 155q33 -22 49 -52t16 -69q0 -63 -43 -103t-111 -40q-39 0 -77.5 14.5t-64.5 38.5l32 38q21 -20 51.5 -32.5t58.5 -12.5q47 0 75.5 26.5t28.5 70.5t-33.5 73t-105.5 45q-66 15 -102 53.5t-36 94.5q0 45 25 80.5t68 50.5q-33 22 -49 52t-16 69q0 63 43 103t111 40
q39 0 77.5 -14.5t64.5 -38.5l-32 -38q-21 20 -51 32.5t-59 12.5q-47 0 -75.5 -26.5t-28.5 -70.5t33.5 -73t105.5 -45q66 -15 102 -53.5t36 -94.5q0 -45 -25 -80.5t-68 -50.5zM100 300q0 -39 28 -65t86 -40q12 -2 24.5 -6t26.5 -10q38 3 64 33.5t26 73.5q0 39 -28 65t-86 40
q-12 2 -24.5 6t-26.5 10q-38 -3 -64 -33.5t-26 -73.5z" />
    <glyph glyph-name="dieresis" unicode="&#xa8;" horiz-adv-x="500" 
d="M205 588q0 -16 -11.5 -27.5t-27.5 -11.5t-27.5 11.5t-11.5 27.5t11.5 27.5t27.5 11.5t27.5 -11.5t11.5 -27.5zM373 588q0 -16 -11.5 -27.5t-27.5 -11.5t-27.5 11.5t-11.5 27.5t11.5 27.5t27.5 11.5t27.5 -11.5t11.5 -27.5z" />
    <glyph glyph-name="copyright" unicode="&#xa9;" horiz-adv-x="805" 
d="M55 342q0 151 99.5 252t248.5 101q148 0 247.5 -101t99.5 -252q0 -150 -100 -251t-247 -101q-148 0 -248 101t-100 251zM700 342q0 133 -84.5 220.5t-212.5 87.5t-213 -88t-85 -220q0 -130 86 -218.5t212 -88.5q127 0 212 88t85 219zM275 342q0 -62 38.5 -104t95.5 -42
q32 0 59 12t47 34l29 -32q-30 -31 -63.5 -46t-71.5 -15q-78 0 -131 55.5t-53 137.5q0 83 52.5 139t131.5 56q36 0 69.5 -14.5t60.5 -41.5l-30 -33q-21 21 -46.5 31.5t-53.5 10.5q-58 0 -96 -42t-38 -106z" />
    <glyph glyph-name="ordfeminine" unicode="&#xaa;" horiz-adv-x="408" 
d="M349 377h-41l-7 47q-20 -26 -48 -40t-62 -14q-66 0 -111 46.5t-45 115.5q0 70 44.5 116.5t111.5 46.5q34 0 62 -14t48 -41l7 48h41v-311zM87 532q0 -50 31 -83.5t78 -33.5q46 0 77.5 34t31.5 83q0 50 -31.5 83.5t-77.5 33.5q-47 0 -78 -33.5t-31 -83.5zM42 300h320v-45
h-320v45z" />
    <glyph glyph-name="guillemotleft" unicode="&#xab;" horiz-adv-x="600" 
d="M347 222l193 -188l-33 -34l-222 215v10l222 215l33 -34zM102 222l193 -188l-33 -34l-222 215v10l222 215l33 -34z" />
    <glyph glyph-name="logicalnot" unicode="&#xac;" horiz-adv-x="500" 
d="M408 314h-368v47h420v-246h-52v199z" />
    <glyph glyph-name="uni00AD" unicode="&#xad;" 
 />
    <glyph glyph-name="registered" unicode="&#xae;" horiz-adv-x="805" 
d="M55 342q0 151 99.5 252t248.5 101q148 0 247.5 -101t99.5 -252q0 -150 -100 -251t-247 -101q-148 0 -248 101t-100 251zM700 342q0 133 -84.5 220.5t-212.5 87.5t-213 -88t-85 -220q0 -131 85.5 -219t212.5 -88t212 88t85 219zM338 168h-46v356h107q53 0 85 -29.5
t32 -78.5q0 -31 -18.5 -56t-49.5 -37l90 -155h-53l-82 148h-65v-148zM469 416q0 30 -18 48t-49 18h-64v-128h64q30 0 48.5 17t18.5 45z" />
    <glyph glyph-name="macron" unicode="&#xaf;" horiz-adv-x="500" 
d="M135 602h230v-47h-230v47z" />
    <glyph glyph-name="degree" unicode="&#xb0;" horiz-adv-x="390" 
d="M355 532q0 -70 -45 -116t-114 -46t-114.5 46t-45.5 116t45.5 116.5t114.5 46.5t114 -46.5t45 -116.5zM87 532q0 -50 31 -83.5t78 -33.5t77.5 33.5t30.5 83.5q0 51 -30.5 84t-77.5 33t-78 -33.5t-31 -83.5z" />
    <glyph glyph-name="plusminus" unicode="&#xb1;" horiz-adv-x="500" 
d="M460 361v-47h-184v-199h-52v199h-184v47h184v199h52v-199h184zM460 47v-47h-420v47h420z" />
    <glyph glyph-name="twosuperior" unicode="&#xb2;" horiz-adv-x="309" 
d="M104 490h155v-42h-216v36l122 142q18 21 26 38.5t8 34.5q0 22 -15 36.5t-38 14.5q-19 0 -37.5 -10.5t-37.5 -31.5l-31 30q22 28 49.5 42.5t58.5 14.5q44 0 72.5 -27t28.5 -67q0 -25 -11.5 -48t-37.5 -53z" />
    <glyph glyph-name="threesuperior" unicode="&#xb3;" horiz-adv-x="314" 
d="M214 546q0 26 -19.5 42.5t-50.5 16.5h-32v41h31q25 0 40.5 15t15.5 38t-15 37t-40 14q-20 0 -38 -10t-36 -31l-30 29q23 28 49.5 42.5t56.5 14.5q44 0 73 -27t29 -67q0 -23 -12.5 -42t-35.5 -32q30 -11 46.5 -33t16.5 -50q0 -44 -32 -72.5t-80 -28.5q-34 0 -63.5 13
t-52.5 39l28 35q20 -21 42 -31.5t46 -10.5q28 0 45.5 16t17.5 42z" />
    <glyph glyph-name="acute" unicode="&#xb4;" horiz-adv-x="500" 
d="M180 510l-22 31l154 121l32 -46z" />
    <glyph glyph-name="mu" unicode="&#xb5;" horiz-adv-x="543" 
d="M140 -200h-50v640h50v-266q0 -66 31 -102t87 -36q41 0 79 25t66 71v308h50v-440h-40l-9 68q-29 -37 -68.5 -57.5t-82.5 -20.5q-35 0 -63.5 11.5t-49.5 33.5v-235z" />
    <glyph glyph-name="paragraph" unicode="&#xb6;" horiz-adv-x="741" 
d="M50 482q0 94 65.5 148.5t176.5 54.5h434v-47h-160v-738h-52v738h-170v-738h-52v380q-107 0 -174.5 56t-67.5 146z" />
    <glyph glyph-name="periodcentered" unicode="&#xb7;" horiz-adv-x="298" 
d="M193 318q0 -18 -13 -31t-31 -13t-31 13t-13 31t13 31t31 13t31 -13t13 -31z" />
    <glyph glyph-name="cedilla" unicode="&#xb8;" horiz-adv-x="500" 
d="M325 -132q0 -34 -25 -56t-65 -22q-19 0 -37.5 4.5t-37.5 13.5l14 40q17 -8 31.5 -11.5t29.5 -3.5q19 0 30.5 9.5t11.5 25.5q0 18 -13 26.5t-40 8.5l-30 26l28 89h44l-24 -73q40 -1 61.5 -21t21.5 -56z" />
    <glyph glyph-name="onesuperior" unicode="&#xb9;" horiz-adv-x="249" 
d="M111 746h-76v44h124v-342h-48v298z" />
    <glyph glyph-name="ordmasculine" unicode="&#xba;" horiz-adv-x="390" 
d="M355 532q0 -70 -45 -116t-114 -46t-114.5 46t-45.5 116t45.5 116.5t114.5 46.5t114 -46.5t45 -116.5zM87 532q0 -50 31 -83.5t78 -33.5t77.5 33.5t30.5 83.5q0 51 -30.5 84t-77.5 33t-78 -33.5t-31 -83.5zM35 300h320v-45h-320v45z" />
    <glyph glyph-name="guillemotright" unicode="&#xbb;" horiz-adv-x="600" 
d="M560 225v-10l-222 -215l-33 34l193 184l-193 188l33 34zM315 225v-10l-222 -215l-33 34l193 184l-193 188l33 34z" />
    <glyph glyph-name="onequarter" unicode="&#xbc;" horiz-adv-x="700" 
d="M111 641h-76v44h124v-342h-48v298zM585 685l-440 -685h-56l440 685h56zM582 342h44v-219h49v-43h-49v-80h-44v80h-162v36zM470 123h112v156z" />
    <glyph glyph-name="onehalf" unicode="&#xbd;" horiz-adv-x="714" 
d="M111 641h-76v44h124v-342h-48v298zM575 685l-440 -685h-56l440 685h56zM509 42h155v-42h-216v36l122 142q18 21 26 38.5t8 34.5q0 22 -15 36.5t-38 14.5q-19 0 -37.5 -10.5t-37.5 -31.5l-31 30q22 28 49.5 42.5t58.5 14.5q44 0 72.5 -27t28.5 -67q0 -25 -11.5 -48
t-37.5 -53z" />
    <glyph glyph-name="threequarters" unicode="&#xbe;" horiz-adv-x="765" 
d="M214 441q0 26 -19.5 42.5t-50.5 16.5h-32v41h31q25 0 40.5 15t15.5 38t-15 37t-40 14q-20 0 -38 -10t-36 -31l-30 29q23 28 49.5 42.5t56.5 14.5q44 0 73 -27t29 -67q0 -23 -12.5 -42t-35.5 -32q30 -11 46.5 -33t16.5 -50q0 -44 -32 -72.5t-80 -28.5q-34 0 -63.5 13
t-52.5 39l28 35q20 -21 42 -31.5t46 -10.5q28 0 45.5 16t17.5 42zM650 685l-440 -685h-56l440 685h56zM647 342h44v-219h49v-43h-49v-80h-44v80h-162v36zM535 123h112v156z" />
    <glyph glyph-name="questiondown" unicode="&#xbf;" horiz-adv-x="487" 
d="M221 420q0 17 12 28.5t28 11.5q17 0 28.5 -11.5t11.5 -28.5q0 -16 -11.5 -28t-28.5 -12q-16 0 -28 12t-12 28zM422 -114l35 -31q-37 -49 -87 -74.5t-109 -25.5q-89 0 -147.5 56t-58.5 142q0 79 51 134t130 63v135h50v-179l-39 -2q-61 -3 -100.5 -45.5t-39.5 -105.5
q0 -66 43 -108.5t111 -42.5q47 0 87.5 21t73.5 63z" />
    <glyph glyph-name="Agrave" unicode="&#xc0;" horiz-adv-x="667" 
d="M642 0h-55l-86 209h-338l-85 -209h-53l283 685h51zM332 621l-149 -365h299zM274 907l154 -121l-22 -31l-164 106z" />
    <glyph glyph-name="Aacute" unicode="&#xc1;" horiz-adv-x="667" 
d="M642 0h-55l-86 209h-338l-85 -209h-53l283 685h51zM332 621l-149 -365h299zM264 755l-22 31l154 121l32 -46z" />
    <glyph glyph-name="Acircumflex" unicode="&#xc2;" horiz-adv-x="667" 
d="M642 0h-55l-86 209h-338l-85 -209h-53l283 685h51zM332 621l-149 -365h299zM334 905l144 -119l-26 -32l-119 90l-117 -90l-26 32z" />
    <glyph glyph-name="Atilde" unicode="&#xc3;" horiz-adv-x="667" 
d="M642 0h-55l-86 209h-338l-85 -209h-53l283 685h51zM332 621l-149 -365h299zM388 783q-14 0 -28 5.5t-39 21.5q-18 12 -26 15.5t-15 3.5q-15 0 -25 -9.5t-19 -33.5l-38 18q14 35 34 53t47 18q13 0 26.5 -5t37.5 -21q19 -13 28 -16.5t16 -3.5q13 0 22 10.5t21 39.5l38 -16
q-16 -40 -36 -60t-44 -20z" />
    <glyph glyph-name="Adieresis" unicode="&#xc4;" horiz-adv-x="667" 
d="M642 0h-55l-86 209h-338l-85 -209h-53l283 685h51zM332 621l-149 -365h299zM289 833q0 -16 -11.5 -27.5t-27.5 -11.5t-27.5 11.5t-11.5 27.5t11.5 27.5t27.5 11.5t27.5 -11.5t11.5 -27.5zM457 833q0 -16 -11.5 -27.5t-27.5 -11.5t-27.5 11.5t-11.5 27.5t11.5 27.5
t27.5 11.5t27.5 -11.5t11.5 -27.5z" />
    <glyph glyph-name="Aring" unicode="&#xc5;" horiz-adv-x="667" 
d="M642 0h-55l-86 209h-338l-85 -209h-53l283 685h51zM332 621l-149 -365h299zM238 833q0 38 28 65.5t68 27.5t68 -27.5t28 -65.5t-28 -65.5t-68 -27.5t-68 27.5t-28 65.5zM387 833q0 23 -15.5 39t-37.5 16t-37.5 -16t-15.5 -39t15.5 -39t37.5 -16t37.5 16t15.5 39z" />
    <glyph glyph-name="AE" unicode="&#xc6;" horiz-adv-x="860" 
d="M623 47h177v-47h-213l-86 209h-338l-85 -209h-53l283 685h492v-47h-422l107 -258h295v-47h-276zM332 621l-149 -365h299z" />
    <glyph glyph-name="Ccedilla" unicode="&#xc7;" horiz-adv-x="674" 
d="M468 -132q0 -34 -25 -56t-65 -22q-19 0 -37.5 4.5t-37.5 13.5l14 40q17 -8 31.5 -11.5t29.5 -3.5q19 0 30.5 9.5t11.5 25.5q0 18 -13 26.5t-40 8.5l-30 26l20 63q-128 14 -211.5 113t-83.5 237q0 151 95.5 252t237.5 101q67 0 127 -26t110 -76l-35 -36q-43 44 -94.5 66.5
t-107.5 22.5q-120 0 -199.5 -86.5t-79.5 -217.5q0 -128 81 -215.5t198 -87.5q59 0 113 25.5t97 74.5l36 -37q-53 -55 -114 -83.5t-127 -28.5l-15 -45q40 -1 61.5 -21t21.5 -56z" />
    <glyph glyph-name="Egrave" unicode="&#xc8;" horiz-adv-x="568" 
d="M508 0h-398v685h398v-47h-346v-258h326v-47h-326v-286h346v-47zM224 907l154 -121l-22 -31l-164 106z" />
    <glyph glyph-name="Eacute" unicode="&#xc9;" horiz-adv-x="568" 
d="M508 0h-398v685h398v-47h-346v-258h326v-47h-326v-286h346v-47zM214 755l-22 31l154 121l32 -46z" />
    <glyph glyph-name="Ecircumflex" unicode="&#xca;" horiz-adv-x="568" 
d="M508 0h-398v685h398v-47h-346v-258h326v-47h-326v-286h346v-47zM284 905l144 -119l-26 -32l-119 90l-117 -90l-26 32z" />
    <glyph glyph-name="Edieresis" unicode="&#xcb;" horiz-adv-x="568" 
d="M508 0h-398v685h398v-47h-346v-258h326v-47h-326v-286h346v-47zM239 833q0 -16 -11.5 -27.5t-27.5 -11.5t-27.5 11.5t-11.5 27.5t11.5 27.5t27.5 11.5t27.5 -11.5t11.5 -27.5zM407 833q0 -16 -11.5 -27.5t-27.5 -11.5t-27.5 11.5t-11.5 27.5t11.5 27.5t27.5 11.5
t27.5 -11.5t11.5 -27.5z" />
    <glyph glyph-name="Igrave" unicode="&#xcc;" horiz-adv-x="272" 
d="M162 0h-52v685h52v-685zM75 907l154 -121l-22 -31l-164 106z" />
    <glyph glyph-name="Iacute" unicode="&#xcd;" horiz-adv-x="272" 
d="M162 0h-52v685h52v-685zM72 755l-22 31l154 121l32 -46z" />
    <glyph glyph-name="Icircumflex" unicode="&#xce;" horiz-adv-x="272" 
d="M162 0h-52v685h52v-685zM136 905l144 -119l-26 -32l-119 90l-117 -90l-26 32z" />
    <glyph glyph-name="Idieresis" unicode="&#xcf;" horiz-adv-x="272" 
d="M162 0h-52v685h52v-685zM91 833q0 -16 -11.5 -27.5t-27.5 -11.5t-27.5 11.5t-11.5 27.5t11.5 27.5t27.5 11.5t27.5 -11.5t11.5 -27.5zM259 833q0 -16 -11.5 -27.5t-27.5 -11.5t-27.5 11.5t-11.5 27.5t11.5 27.5t27.5 11.5t27.5 -11.5t11.5 -27.5z" />
    <glyph glyph-name="Eth" unicode="&#xd0;" horiz-adv-x="715" 
d="M15 322v45h110v318h147q176 0 279 -92.5t103 -250.5t-103 -250t-279 -92h-147v322h-110zM375 367v-45h-198v-275h100q149 0 236 79.5t87 215.5q0 137 -87 216.5t-236 79.5h-100v-271h198z" />
    <glyph glyph-name="Ntilde" unicode="&#xd1;" horiz-adv-x="726" 
d="M616 0h-52l-404 600v-600h-50v685h52l404 -600v600h50v-685zM417 783q-14 0 -28 5.5t-39 21.5q-18 12 -26 15.5t-15 3.5q-15 0 -25 -9.5t-19 -33.5l-38 18q14 35 34 53t47 18q13 0 26.5 -5t37.5 -21q19 -13 28 -16.5t16 -3.5q13 0 22 10.5t21 39.5l38 -16
q-16 -40 -36 -60t-44 -20z" />
    <glyph glyph-name="Ograve" unicode="&#xd2;" horiz-adv-x="790" 
d="M62 342q0 151 95.5 252t237.5 101t237.5 -101t95.5 -252q0 -150 -95.5 -251t-237.5 -101t-237.5 101t-95.5 251zM674 342q0 131 -79.5 217.5t-199.5 86.5t-199.5 -86.5t-79.5 -217.5q0 -130 79.5 -216.5t199.5 -86.5t199.5 86.5t79.5 216.5zM325 907l154 -121l-22 -31
l-164 106z" />
    <glyph glyph-name="Oacute" unicode="&#xd3;" horiz-adv-x="790" 
d="M62 342q0 151 95.5 252t237.5 101t237.5 -101t95.5 -252q0 -150 -95.5 -251t-237.5 -101t-237.5 101t-95.5 251zM674 342q0 131 -79.5 217.5t-199.5 86.5t-199.5 -86.5t-79.5 -217.5q0 -130 79.5 -216.5t199.5 -86.5t199.5 86.5t79.5 216.5zM324 755l-22 31l154 121
l32 -46z" />
    <glyph glyph-name="Ocircumflex" unicode="&#xd4;" horiz-adv-x="790" 
d="M62 342q0 151 95.5 252t237.5 101t237.5 -101t95.5 -252q0 -150 -95.5 -251t-237.5 -101t-237.5 101t-95.5 251zM674 342q0 131 -79.5 217.5t-199.5 86.5t-199.5 -86.5t-79.5 -217.5q0 -130 79.5 -216.5t199.5 -86.5t199.5 86.5t79.5 216.5zM394 905l144 -119l-26 -32
l-119 90l-117 -90l-26 32z" />
    <glyph glyph-name="Otilde" unicode="&#xd5;" horiz-adv-x="790" 
d="M62 342q0 151 95.5 252t237.5 101t237.5 -101t95.5 -252q0 -150 -95.5 -251t-237.5 -101t-237.5 101t-95.5 251zM674 342q0 131 -79.5 217.5t-199.5 86.5t-199.5 -86.5t-79.5 -217.5q0 -130 79.5 -216.5t199.5 -86.5t199.5 86.5t79.5 216.5zM449 783q-14 0 -28 5.5
t-39 21.5q-18 12 -26 15.5t-15 3.5q-15 0 -25 -9.5t-19 -33.5l-38 18q14 35 34 53t47 18q13 0 26.5 -5t37.5 -21q19 -13 28 -16.5t16 -3.5q13 0 22 10.5t21 39.5l38 -16q-16 -40 -36 -60t-44 -20z" />
    <glyph glyph-name="Odieresis" unicode="&#xd6;" horiz-adv-x="790" 
d="M62 342q0 151 95.5 252t237.5 101t237.5 -101t95.5 -252q0 -150 -95.5 -251t-237.5 -101t-237.5 101t-95.5 251zM674 342q0 131 -79.5 217.5t-199.5 86.5t-199.5 -86.5t-79.5 -217.5q0 -130 79.5 -216.5t199.5 -86.5t199.5 86.5t79.5 216.5zM349 833q0 -16 -11.5 -27.5
t-27.5 -11.5t-27.5 11.5t-11.5 27.5t11.5 27.5t27.5 11.5t27.5 -11.5t11.5 -27.5zM517 833q0 -16 -11.5 -27.5t-27.5 -11.5t-27.5 11.5t-11.5 27.5t11.5 27.5t27.5 11.5t27.5 -11.5t11.5 -27.5z" />
    <glyph glyph-name="multiply" unicode="&#xd7;" horiz-adv-x="500" 
d="M285 337l153 -153l-35 -35l-153 153l-153 -153l-35 35l153 153l-154 153l35 35l154 -154l154 154l35 -35z" />
    <glyph glyph-name="Oslash" unicode="&#xd8;" horiz-adv-x="790" 
d="M728 342q0 -150 -95.5 -251t-237.5 -101q-60 0 -115 20t-99 58l-86 -97l-33 29l88 99q-43 48 -65.5 110.5t-22.5 132.5q0 151 95.5 252t237.5 101q61 0 115.5 -20t98.5 -59l86 97l33 -29l-88 -99q43 -48 65.5 -110.5t22.5 -132.5zM395 646q-120 0 -199.5 -86.5
t-79.5 -217.5q0 -59 17.5 -111.5t51.5 -92.5l390 440q-37 33 -83 50.5t-97 17.5zM395 39q120 0 199.5 86.5t79.5 216.5q0 59 -17.5 111t-50.5 93l-391 -440q37 -33 83 -50t97 -17z" />
    <glyph glyph-name="Ugrave" unicode="&#xd9;" horiz-adv-x="678" 
d="M339 -10q-113 0 -178.5 73t-65.5 197v425h52v-423q0 -106 50.5 -164.5t141.5 -58.5t141.5 58.5t50.5 164.5v423h52v-425q0 -124 -65.5 -197t-178.5 -73zM270 907l154 -121l-22 -31l-164 106z" />
    <glyph glyph-name="Uacute" unicode="&#xda;" horiz-adv-x="678" 
d="M339 -10q-113 0 -178.5 73t-65.5 197v425h52v-423q0 -106 50.5 -164.5t141.5 -58.5t141.5 58.5t50.5 164.5v423h52v-425q0 -124 -65.5 -197t-178.5 -73zM290 755l-22 31l154 121l32 -46z" />
    <glyph glyph-name="Ucircumflex" unicode="&#xdb;" horiz-adv-x="678" 
d="M339 -10q-113 0 -178.5 73t-65.5 197v425h52v-423q0 -106 50.5 -164.5t141.5 -58.5t141.5 58.5t50.5 164.5v423h52v-425q0 -124 -65.5 -197t-178.5 -73zM339 905l144 -119l-26 -32l-119 90l-117 -90l-26 32z" />
    <glyph glyph-name="Udieresis" unicode="&#xdc;" horiz-adv-x="678" 
d="M339 -10q-113 0 -178.5 73t-65.5 197v425h52v-423q0 -106 50.5 -164.5t141.5 -58.5t141.5 58.5t50.5 164.5v423h52v-425q0 -124 -65.5 -197t-178.5 -73zM295 833q0 -16 -11.5 -27.5t-27.5 -11.5t-27.5 11.5t-11.5 27.5t11.5 27.5t27.5 11.5t27.5 -11.5t11.5 -27.5z
M463 833q0 -16 -11.5 -27.5t-27.5 -11.5t-27.5 11.5t-11.5 27.5t11.5 27.5t27.5 11.5t27.5 -11.5t11.5 -27.5z" />
    <glyph glyph-name="Yacute" unicode="&#xdd;" horiz-adv-x="569" 
d="M494 685h55l-238 -382v-303h-52v303l-239 382h58l208 -333zM241 755l-22 31l154 121l32 -46z" />
    <glyph glyph-name="Thorn" unicode="&#xde;" horiz-adv-x="584" 
d="M529 342q0 -93 -65 -147.5t-177 -54.5h-125v-140h-52v685h52v-140h125q116 0 179 -52.5t63 -150.5zM475 342q0 75 -48 115.5t-135 40.5h-130v-311h130q88 0 135.5 40t47.5 115z" />
    <glyph glyph-name="germandbls" unicode="&#xdf;" horiz-adv-x="609" 
d="M367 403q85 -9 136.5 -65t51.5 -142q0 -88 -56 -147t-141 -59q-41 0 -75 12.5t-69 41.5l31 38q27 -23 55.5 -34.5t57.5 -11.5q63 0 104 45t41 115q0 75 -51.5 119.5t-141.5 49.5l-8 33q40 29 60 65t20 81q0 56 -35 91t-93 35q-55 0 -89 -30t-34 -77q0 -19 6 -43t21 -66
l9 -24v-430h-50v395h-94v40l90 5l-5 14q-15 38 -21 63.5t-6 45.5q0 69 47 110.5t126 41.5q83 0 131 -46t48 -125q0 -45 -17.5 -81.5t-48.5 -59.5z" />
    <glyph glyph-name="agrave" unicode="&#xe0;" horiz-adv-x="582" 
d="M492 0h-40l-8 74q-29 -40 -72 -62t-93 -22q-95 0 -159 66.5t-64 163.5q0 98 64 164t159 66q50 0 93 -22t72 -62l8 74h40v-440zM108 220q0 -78 49 -131t122 -53q72 0 121.5 53t49.5 131t-49.5 131t-121.5 53q-73 0 -122 -53t-49 -131zM220 662l154 -121l-22 -31l-164 106z
" />
    <glyph glyph-name="aacute" unicode="&#xe1;" horiz-adv-x="582" 
d="M492 0h-40l-8 74q-29 -40 -72 -62t-93 -22q-95 0 -159 66.5t-64 163.5q0 98 64 164t159 66q50 0 93 -22t72 -62l8 74h40v-440zM108 220q0 -78 49 -131t122 -53q72 0 121.5 53t49.5 131t-49.5 131t-121.5 53q-73 0 -122 -53t-49 -131zM220 510l-22 31l154 121l32 -46z" />
    <glyph glyph-name="acircumflex" unicode="&#xe2;" horiz-adv-x="582" 
d="M492 0h-40l-8 74q-29 -40 -72 -62t-93 -22q-95 0 -159 66.5t-64 163.5q0 98 64 164t159 66q50 0 93 -22t72 -62l8 74h40v-440zM108 220q0 -78 49 -131t122 -53q72 0 121.5 53t49.5 131t-49.5 131t-121.5 53q-73 0 -122 -53t-49 -131zM280 660l144 -119l-26 -32l-119 90
l-117 -90l-26 32z" />
    <glyph glyph-name="atilde" unicode="&#xe3;" horiz-adv-x="582" 
d="M492 0h-40l-8 74q-29 -40 -72 -62t-93 -22q-95 0 -159 66.5t-64 163.5q0 98 64 164t159 66q50 0 93 -22t72 -62l8 74h40v-440zM108 220q0 -78 49 -131t122 -53q72 0 121.5 53t49.5 131t-49.5 131t-121.5 53q-73 0 -122 -53t-49 -131zM338 538q-14 0 -28 5.5t-39 21.5
q-18 12 -26 15.5t-15 3.5q-15 0 -25 -9.5t-19 -33.5l-38 18q14 35 34 53t47 18q13 0 26.5 -5t37.5 -21q19 -13 28 -16.5t16 -3.5q13 0 22 10.5t21 39.5l38 -16q-16 -40 -36 -60t-44 -20z" />
    <glyph glyph-name="adieresis" unicode="&#xe4;" horiz-adv-x="582" 
d="M492 0h-40l-8 74q-29 -40 -72 -62t-93 -22q-95 0 -159 66.5t-64 163.5q0 98 64 164t159 66q50 0 93 -22t72 -62l8 74h40v-440zM108 220q0 -78 49 -131t122 -53q72 0 121.5 53t49.5 131t-49.5 131t-121.5 53q-73 0 -122 -53t-49 -131zM235 588q0 -16 -11.5 -27.5
t-27.5 -11.5t-27.5 11.5t-11.5 27.5t11.5 27.5t27.5 11.5t27.5 -11.5t11.5 -27.5zM403 588q0 -16 -11.5 -27.5t-27.5 -11.5t-27.5 11.5t-11.5 27.5t11.5 27.5t27.5 11.5t27.5 -11.5t11.5 -27.5z" />
    <glyph glyph-name="aring" unicode="&#xe5;" horiz-adv-x="582" 
d="M492 0h-40l-8 74q-29 -40 -72 -62t-93 -22q-95 0 -159 66.5t-64 163.5q0 98 64 164t159 66q50 0 93 -22t72 -62l8 74h40v-440zM108 220q0 -78 49 -131t122 -53q72 0 121.5 53t49.5 131t-49.5 131t-121.5 53q-73 0 -122 -53t-49 -131zM184 588q0 38 28 65.5t68 27.5
t68 -27.5t28 -65.5t-28 -65.5t-68 -27.5t-68 27.5t-28 65.5zM333 588q0 23 -15.5 39t-37.5 16t-37.5 -16t-15.5 -39t15.5 -39t37.5 -16t37.5 16t15.5 39z" />
    <glyph glyph-name="ae" unicode="&#xe6;" horiz-adv-x="910" 
d="M797 91l33 -33q-34 -35 -74.5 -51.5t-91.5 -16.5q-54 0 -98.5 24t-72.5 67l-5 -81h-38l-5 77q-29 -41 -72 -64t-94 -23q-95 0 -159 66.5t-64 163.5q0 98 64 164t159 66q51 0 94.5 -23t72.5 -65l4 78h38l5 -79q27 43 68.5 66t92.5 23q89 0 147.5 -65.5t58.5 -164.5v-8.5
t-1 -7.5h-370q5 -75 54 -121.5t121 -46.5q39 0 72.5 14t60.5 41zM654 404q-65 0 -110.5 -43t-53.5 -112h318q-8 69 -51 112t-103 43zM108 220q0 -78 49 -131t122 -53q72 0 121.5 53t49.5 131t-49.5 131t-121.5 53q-73 0 -122 -53t-49 -131z" />
    <glyph glyph-name="ccedilla" unicode="&#xe7;" horiz-adv-x="481" 
d="M359 -132q0 -34 -25 -56t-65 -22q-19 0 -37.5 4.5t-37.5 13.5l14 40q17 -8 31.5 -11.5t29.5 -3.5q19 0 30.5 9.5t11.5 25.5q0 18 -13 26.5t-40 8.5l-30 26l20 63q-85 12 -138.5 75.5t-53.5 152.5q0 99 64.5 164.5t161.5 65.5q45 0 84 -15t72 -46l-32 -34q-28 25 -58.5 37
t-65.5 12q-75 0 -124.5 -52.5t-49.5 -131.5t49.5 -131.5t124.5 -52.5q37 0 71 15t63 44l32 -34q-33 -34 -72.5 -51.5t-84.5 -19.5l-15 -45q40 -1 61.5 -21t21.5 -56z" />
    <glyph glyph-name="egrave" unicode="&#xe8;" horiz-adv-x="529" 
d="M416 91l33 -33q-34 -35 -74.5 -51.5t-91.5 -16.5q-97 0 -161.5 65.5t-64.5 164.5q0 98 62 164t154 66q89 0 147.5 -65.5t58.5 -164.5v-8.5t-1 -7.5h-370q5 -73 54 -120.5t121 -47.5q39 0 72.5 14t60.5 41zM273 404q-64 0 -109.5 -43.5t-54.5 -111.5h318q-8 69 -51 112
t-103 43zM204 662l154 -121l-22 -31l-164 106z" />
    <glyph glyph-name="eacute" unicode="&#xe9;" horiz-adv-x="529" 
d="M416 91l33 -33q-34 -35 -74.5 -51.5t-91.5 -16.5q-97 0 -161.5 65.5t-64.5 164.5q0 98 62 164t154 66q89 0 147.5 -65.5t58.5 -164.5v-8.5t-1 -7.5h-370q5 -73 54 -120.5t121 -47.5q39 0 72.5 14t60.5 41zM273 404q-64 0 -109.5 -43.5t-54.5 -111.5h318q-8 69 -51 112
t-103 43zM199 510l-22 31l154 121l32 -46z" />
    <glyph glyph-name="ecircumflex" unicode="&#xea;" horiz-adv-x="529" 
d="M416 91l33 -33q-34 -35 -74.5 -51.5t-91.5 -16.5q-97 0 -161.5 65.5t-64.5 164.5q0 98 62 164t154 66q89 0 147.5 -65.5t58.5 -164.5v-8.5t-1 -7.5h-370q5 -73 54 -120.5t121 -47.5q39 0 72.5 14t60.5 41zM273 404q-64 0 -109.5 -43.5t-54.5 -111.5h318q-8 69 -51 112
t-103 43zM274 660l144 -119l-26 -32l-119 90l-117 -90l-26 32z" />
    <glyph glyph-name="edieresis" unicode="&#xeb;" horiz-adv-x="529" 
d="M416 91l33 -33q-34 -35 -74.5 -51.5t-91.5 -16.5q-97 0 -161.5 65.5t-64.5 164.5q0 98 62 164t154 66q89 0 147.5 -65.5t58.5 -164.5v-8.5t-1 -7.5h-370q5 -73 54 -120.5t121 -47.5q39 0 72.5 14t60.5 41zM273 404q-64 0 -109.5 -43.5t-54.5 -111.5h318q-8 69 -51 112
t-103 43zM229 588q0 -16 -11.5 -27.5t-27.5 -11.5t-27.5 11.5t-11.5 27.5t11.5 27.5t27.5 11.5t27.5 -11.5t11.5 -27.5zM397 588q0 -16 -11.5 -27.5t-27.5 -11.5t-27.5 11.5t-11.5 27.5t11.5 27.5t27.5 11.5t27.5 -11.5t11.5 -27.5z" />
    <glyph glyph-name="igrave" unicode="&#xec;" horiz-adv-x="230" 
d="M90 440h50v-440h-50v440zM54 662l154 -121l-22 -31l-164 106z" />
    <glyph glyph-name="iacute" unicode="&#xed;" horiz-adv-x="230" 
d="M90 440h50v-440h-50v440zM45 510l-22 31l154 121l32 -46z" />
    <glyph glyph-name="icircumflex" unicode="&#xee;" horiz-adv-x="230" 
d="M90 440h50v-440h-50v440zM115 660l144 -119l-26 -32l-119 90l-117 -90l-26 32z" />
    <glyph glyph-name="idieresis" unicode="&#xef;" horiz-adv-x="230" 
d="M90 440h50v-440h-50v440zM70 588q0 -16 -11.5 -27.5t-27.5 -11.5t-27.5 11.5t-11.5 27.5t11.5 27.5t27.5 11.5t27.5 -11.5t11.5 -27.5zM238 588q0 -16 -11.5 -27.5t-27.5 -11.5t-27.5 11.5t-11.5 27.5t11.5 27.5t27.5 11.5t27.5 -11.5t11.5 -27.5z" />
    <glyph glyph-name="eth" unicode="&#xf0;" horiz-adv-x="559" 
d="M502 264q0 -129 -59 -201.5t-164 -72.5q-95 0 -158.5 65.5t-63.5 164.5t63.5 164.5t158.5 65.5q51 0 93 -20t73 -59q-9 61 -39 116.5t-79 99.5l-83 -77l-28 30l79 74q-28 20 -60 36t-67 26l14 39q41 -11 77.5 -29t68.5 -42l76 71l28 -30l-72 -67q69 -64 105.5 -154.5
t36.5 -199.5zM109 220q0 -80 48.5 -132t121.5 -52q72 0 121 54t49 133t-48 130t-122 51q-73 0 -121.5 -52t-48.5 -132z" />
    <glyph glyph-name="ntilde" unicode="&#xf1;" horiz-adv-x="545" 
d="M290 404q-41 0 -81 -26t-69 -73v-305h-50v440h40l10 -72q29 39 70 60.5t85 21.5q80 0 124 -50t44 -141v-259h-50v256q0 68 -33 108t-90 40zM337 538q-14 0 -28 5.5t-39 21.5q-18 12 -26 15.5t-15 3.5q-15 0 -25 -9.5t-19 -33.5l-38 18q14 35 34 53t47 18q13 0 26.5 -5
t37.5 -21q19 -13 28 -16.5t16 -3.5q13 0 22 10.5t21 39.5l38 -16q-16 -40 -36 -60t-44 -20z" />
    <glyph glyph-name="ograve" unicode="&#xf2;" horiz-adv-x="558" 
d="M501 220q0 -99 -63 -164.5t-159 -65.5t-159 65.5t-63 164.5t63 164.5t159 65.5t159 -65.5t63 -164.5zM109 220q0 -79 48.5 -131.5t121.5 -52.5t121.5 52.5t48.5 131.5t-48 131.5t-122 52.5t-122 -52.5t-48 -131.5zM219 662l154 -121l-22 -31l-164 106z" />
    <glyph glyph-name="oacute" unicode="&#xf3;" horiz-adv-x="558" 
d="M501 220q0 -99 -63 -164.5t-159 -65.5t-159 65.5t-63 164.5t63 164.5t159 65.5t159 -65.5t63 -164.5zM109 220q0 -79 48.5 -131.5t121.5 -52.5t121.5 52.5t48.5 131.5t-48 131.5t-122 52.5t-122 -52.5t-48 -131.5zM209 510l-22 31l154 121l32 -46z" />
    <glyph glyph-name="ocircumflex" unicode="&#xf4;" horiz-adv-x="558" 
d="M501 220q0 -99 -63 -164.5t-159 -65.5t-159 65.5t-63 164.5t63 164.5t159 65.5t159 -65.5t63 -164.5zM109 220q0 -79 48.5 -131.5t121.5 -52.5t121.5 52.5t48.5 131.5t-48 131.5t-122 52.5t-122 -52.5t-48 -131.5zM279 660l144 -119l-26 -32l-119 90l-117 -90l-26 32z
" />
    <glyph glyph-name="otilde" unicode="&#xf5;" horiz-adv-x="558" 
d="M501 220q0 -99 -63 -164.5t-159 -65.5t-159 65.5t-63 164.5t63 164.5t159 65.5t159 -65.5t63 -164.5zM109 220q0 -79 48.5 -131.5t121.5 -52.5t121.5 52.5t48.5 131.5t-48 131.5t-122 52.5t-122 -52.5t-48 -131.5zM333 538q-14 0 -28 5.5t-39 21.5q-18 12 -26 15.5
t-15 3.5q-15 0 -25 -9.5t-19 -33.5l-38 18q14 35 34 53t47 18q13 0 26.5 -5t37.5 -21q19 -13 28 -16.5t16 -3.5q13 0 22 10.5t21 39.5l38 -16q-16 -40 -36 -60t-44 -20z" />
    <glyph glyph-name="odieresis" unicode="&#xf6;" horiz-adv-x="558" 
d="M501 220q0 -99 -63 -164.5t-159 -65.5t-159 65.5t-63 164.5t63 164.5t159 65.5t159 -65.5t63 -164.5zM109 220q0 -79 48.5 -131.5t121.5 -52.5t121.5 52.5t48.5 131.5t-48 131.5t-122 52.5t-122 -52.5t-48 -131.5zM234 588q0 -16 -11.5 -27.5t-27.5 -11.5t-27.5 11.5
t-11.5 27.5t11.5 27.5t27.5 11.5t27.5 -11.5t11.5 -27.5zM402 588q0 -16 -11.5 -27.5t-27.5 -11.5t-27.5 11.5t-11.5 27.5t11.5 27.5t27.5 11.5t27.5 -11.5t11.5 -27.5z" />
    <glyph glyph-name="divide" unicode="&#xf7;" horiz-adv-x="500" 
d="M296 522q0 -19 -13.5 -32.5t-32.5 -13.5t-32.5 13.5t-13.5 32.5t13.5 32.5t32.5 13.5t32.5 -13.5t13.5 -32.5zM460 361v-47h-420v47h420zM296 153q0 -19 -13.5 -32.5t-32.5 -13.5t-32.5 13.5t-13.5 32.5t13.5 32.5t32.5 13.5t32.5 -13.5t13.5 -32.5z" />
    <glyph glyph-name="oslash" unicode="&#xf8;" horiz-adv-x="558" 
d="M501 220q0 -99 -63 -164.5t-159 -65.5q-38 0 -72.5 11.5t-62.5 33.5l-64 -72l-32 31l63 71q-26 32 -40 71.5t-14 83.5q0 99 63 164.5t159 65.5q38 0 72.5 -11.5t62.5 -33.5l64 72l32 -31l-63 -71q26 -32 40 -71.5t14 -83.5zM279 404q-74 0 -122 -52.5t-48 -131.5
q0 -33 9 -62.5t27 -54.5l237 266q-22 17 -48 26t-55 9zM279 36q73 0 121.5 52.5t48.5 131.5q0 33 -9.5 63t-26.5 54l-237 -266q22 -17 48 -26t55 -9z" />
    <glyph glyph-name="ugrave" unicode="&#xf9;" horiz-adv-x="534" 
d="M444 0h-40l-9 68q-29 -37 -68.5 -57.5t-82.5 -20.5q-78 0 -120.5 47t-42.5 134v269h50v-266q0 -66 31 -102t87 -36q41 0 79 25t66 71v308h50v-440zM207 662l154 -121l-22 -31l-164 106z" />
    <glyph glyph-name="uacute" unicode="&#xfa;" horiz-adv-x="534" 
d="M444 0h-40l-9 68q-29 -37 -68.5 -57.5t-82.5 -20.5q-78 0 -120.5 47t-42.5 134v269h50v-266q0 -66 31 -102t87 -36q41 0 79 25t66 71v308h50v-440zM197 510l-22 31l154 121l32 -46z" />
    <glyph glyph-name="ucircumflex" unicode="&#xfb;" horiz-adv-x="534" 
d="M444 0h-40l-9 68q-29 -37 -68.5 -57.5t-82.5 -20.5q-78 0 -120.5 47t-42.5 134v269h50v-266q0 -66 31 -102t87 -36q41 0 79 25t66 71v308h50v-440zM267 660l144 -119l-26 -32l-119 90l-117 -90l-26 32z" />
    <glyph glyph-name="udieresis" unicode="&#xfc;" horiz-adv-x="534" 
d="M444 0h-40l-9 68q-29 -37 -68.5 -57.5t-82.5 -20.5q-78 0 -120.5 47t-42.5 134v269h50v-266q0 -66 31 -102t87 -36q41 0 79 25t66 71v308h50v-440zM222 588q0 -16 -11.5 -27.5t-27.5 -11.5t-27.5 11.5t-11.5 27.5t11.5 27.5t27.5 11.5t27.5 -11.5t11.5 -27.5zM390 588
q0 -16 -11.5 -27.5t-27.5 -11.5t-27.5 11.5t-11.5 27.5t11.5 27.5t27.5 11.5t27.5 -11.5t11.5 -27.5z" />
    <glyph glyph-name="yacute" unicode="&#xfd;" horiz-adv-x="540" 
d="M478 0q0 -91 -63 -150.5t-159 -59.5q-55 0 -105 18t-94 54l28 37q40 -32 82.5 -48t88.5 -16q75 0 123.5 46.5t48.5 118.5q0 28 -6 52.5t-18 47.5q-32 -43 -75 -66.5t-89 -23.5q-78 0 -120.5 47.5t-42.5 133.5v249h50v-246q0 -66 31 -102t87 -36q41 0 79 25.5t66 71.5v287
h50v-304l10 -21q13 -27 20.5 -57.5t7.5 -57.5zM210 510l-22 31l154 121l32 -46z" />
    <glyph glyph-name="thorn" unicode="&#xfe;" horiz-adv-x="582" 
d="M526 220q0 -98 -64 -164t-159 -66q-49 0 -91.5 21t-71.5 60v-271h-50v905h50v-336q29 39 71.5 60t91.5 21q95 0 159 -66.5t64 -163.5zM303 404q-72 0 -121.5 -53t-49.5 -131t49.5 -131t121.5 -53q73 0 122 53t49 131t-49 131t-122 53z" />
    <glyph glyph-name="ydieresis" unicode="&#xff;" horiz-adv-x="540" 
d="M478 0q0 -91 -63 -150.5t-159 -59.5q-55 0 -105 18t-94 54l28 37q40 -32 82.5 -48t88.5 -16q75 0 123.5 46.5t48.5 118.5q0 28 -6 52.5t-18 47.5q-32 -43 -75 -66.5t-89 -23.5q-78 0 -120.5 47.5t-42.5 133.5v249h50v-246q0 -66 31 -102t87 -36q41 0 79 25.5t66 71.5v287
h50v-304l10 -21q13 -27 20.5 -57.5t7.5 -57.5zM215 588q0 -16 -11.5 -27.5t-27.5 -11.5t-27.5 11.5t-11.5 27.5t11.5 27.5t27.5 11.5t27.5 -11.5t11.5 -27.5zM383 588q0 -16 -11.5 -27.5t-27.5 -11.5t-27.5 11.5t-11.5 27.5t11.5 27.5t27.5 11.5t27.5 -11.5t11.5 -27.5z" />
    <glyph glyph-name="Amacron" unicode="&#x100;" horiz-adv-x="667" 
d="M642 0h-55l-86 209h-338l-85 -209h-53l283 685h51zM332 621l-149 -365h299zM219 847h230v-47h-230v47z" />
    <glyph glyph-name="amacron" unicode="&#x101;" horiz-adv-x="582" 
d="M492 0h-40l-8 74q-29 -40 -72 -62t-93 -22q-95 0 -159 66.5t-64 163.5q0 98 64 164t159 66q50 0 93 -22t72 -62l8 74h40v-440zM108 220q0 -78 49 -131t122 -53q72 0 121.5 53t49.5 131t-49.5 131t-121.5 53q-73 0 -122 -53t-49 -131zM168 602h230v-47h-230v47z" />
    <glyph glyph-name="Abreve" unicode="&#x102;" horiz-adv-x="667" 
d="M642 0h-55l-86 209h-338l-85 -209h-53l283 685h51zM332 621l-149 -365h299zM334 797q33 0 50 20.5t17 58.5v12h48v-22q0 -50 -32 -81t-83 -31q-50 0 -82.5 32t-32.5 82v20h48v-10q0 -38 17.5 -59.5t49.5 -21.5z" />
    <glyph glyph-name="abreve" unicode="&#x103;" horiz-adv-x="582" 
d="M492 0h-40l-8 74q-29 -40 -72 -62t-93 -22q-95 0 -159 66.5t-64 163.5q0 98 64 164t159 66q50 0 93 -22t72 -62l8 74h40v-440zM108 220q0 -78 49 -131t122 -53q72 0 121.5 53t49.5 131t-49.5 131t-121.5 53q-73 0 -122 -53t-49 -131zM283 552q33 0 50 20.5t17 58.5v12h48
v-22q0 -50 -32 -81t-83 -31q-50 0 -82.5 32t-32.5 82v20h48v-10q0 -38 17.5 -59.5t49.5 -21.5z" />
    <glyph glyph-name="Aogonek" unicode="&#x104;" horiz-adv-x="667" 
d="M635 -146l13 -40q-11 -5 -24 -7.5t-27 -2.5q-36 0 -57.5 21t-21.5 57q0 33 18 63.5t51 54.5l-86 209h-338l-85 -209h-53l283 685h51l283 -685q-37 -25 -56.5 -52.5t-19.5 -55.5q0 -20 10.5 -32t28.5 -12q9 0 16 1.5t14 4.5zM332 621l-149 -365h299z" />
    <glyph glyph-name="aogonek" unicode="&#x105;" horiz-adv-x="582" 
d="M485 -146l13 -40q-11 -5 -24 -7.5t-27 -2.5q-36 0 -57.5 21t-21.5 57q0 35 20 67.5t57 58.5l6 4l-7 62q-29 -40 -72 -62t-93 -22q-95 0 -159 66.5t-64 163.5q0 98 64 164t159 66q50 0 93 -22t72 -62l8 74h40v-440q-37 -25 -56.5 -52.5t-19.5 -55.5q0 -20 10.5 -32
t28.5 -12q9 0 16 1.5t14 4.5zM108 220q0 -78 49 -131t122 -53q72 0 121.5 53t49.5 131t-49.5 131t-121.5 53q-73 0 -122 -53t-49 -131z" />
    <glyph glyph-name="Cacute" unicode="&#x106;" horiz-adv-x="674" 
d="M116 342q0 -128 81 -215.5t198 -87.5q59 0 113 25.5t97 74.5l36 -37q-54 -56 -115.5 -84t-130.5 -28q-142 0 -237.5 101t-95.5 251q0 151 95.5 252t237.5 101q67 0 127 -26t110 -76l-35 -36q-43 44 -94.5 66.5t-107.5 22.5q-120 0 -199.5 -86.5t-79.5 -217.5zM317 755
l-22 31l154 121l32 -46z" />
    <glyph glyph-name="cacute" unicode="&#x107;" horiz-adv-x="481" 
d="M108 220q0 -79 49.5 -131.5t124.5 -52.5q37 0 71 15t63 44l32 -34q-35 -36 -76.5 -53.5t-89.5 -17.5q-97 0 -161.5 65.5t-64.5 164.5t64.5 164.5t161.5 65.5q45 0 84 -15t72 -46l-32 -34q-28 25 -58.5 37t-65.5 12q-75 0 -124.5 -52.5t-49.5 -131.5zM182 510l-22 31
l154 121l32 -46z" />
    <glyph glyph-name="Ccircumflex" unicode="&#x108;" horiz-adv-x="674" 
d="M116 342q0 -128 81 -215.5t198 -87.5q59 0 113 25.5t97 74.5l36 -37q-54 -56 -115.5 -84t-130.5 -28q-142 0 -237.5 101t-95.5 251q0 151 95.5 252t237.5 101q67 0 127 -26t110 -76l-35 -36q-43 44 -94.5 66.5t-107.5 22.5q-120 0 -199.5 -86.5t-79.5 -217.5zM387 905
l144 -119l-26 -32l-119 90l-117 -90l-26 32z" />
    <glyph glyph-name="ccircumflex" unicode="&#x109;" horiz-adv-x="481" 
d="M108 220q0 -79 49.5 -131.5t124.5 -52.5q37 0 71 15t63 44l32 -34q-35 -36 -76.5 -53.5t-89.5 -17.5q-97 0 -161.5 65.5t-64.5 164.5t64.5 164.5t161.5 65.5q45 0 84 -15t72 -46l-32 -34q-28 25 -58.5 37t-65.5 12q-75 0 -124.5 -52.5t-49.5 -131.5zM272 660l144 -119
l-26 -32l-119 90l-117 -90l-26 32z" />
    <glyph glyph-name="Cdotaccent" unicode="&#x10a;" horiz-adv-x="674" 
d="M116 342q0 -128 81 -215.5t198 -87.5q59 0 113 25.5t97 74.5l36 -37q-54 -56 -115.5 -84t-130.5 -28q-142 0 -237.5 101t-95.5 251q0 151 95.5 252t237.5 101q67 0 127 -26t110 -76l-35 -36q-43 44 -94.5 66.5t-107.5 22.5q-120 0 -199.5 -86.5t-79.5 -217.5zM431 833
q0 -18 -13 -31t-31 -13t-31 13t-13 31t13 31t31 13t31 -13t13 -31z" />
    <glyph glyph-name="cdotaccent" unicode="&#x10b;" horiz-adv-x="481" 
d="M108 220q0 -79 49.5 -131.5t124.5 -52.5q37 0 71 15t63 44l32 -34q-35 -36 -76.5 -53.5t-89.5 -17.5q-97 0 -161.5 65.5t-64.5 164.5t64.5 164.5t161.5 65.5q45 0 84 -15t72 -46l-32 -34q-28 25 -58.5 37t-65.5 12q-75 0 -124.5 -52.5t-49.5 -131.5zM316 588
q0 -18 -13 -31t-31 -13t-31 13t-13 31t13 31t31 13t31 -13t13 -31z" />
    <glyph glyph-name="Ccaron" unicode="&#x10c;" horiz-adv-x="674" 
d="M116 342q0 -128 81 -215.5t198 -87.5q59 0 113 25.5t97 74.5l36 -37q-54 -56 -115.5 -84t-130.5 -28q-142 0 -237.5 101t-95.5 251q0 151 95.5 252t237.5 101q67 0 127 -26t110 -76l-35 -36q-43 44 -94.5 66.5t-107.5 22.5q-120 0 -199.5 -86.5t-79.5 -217.5zM505 905
l26 -32l-144 -119l-144 119l26 32l119 -90z" />
    <glyph glyph-name="ccaron" unicode="&#x10d;" horiz-adv-x="481" 
d="M108 220q0 -79 49.5 -131.5t124.5 -52.5q37 0 71 15t63 44l32 -34q-35 -36 -76.5 -53.5t-89.5 -17.5q-97 0 -161.5 65.5t-64.5 164.5t64.5 164.5t161.5 65.5q45 0 84 -15t72 -46l-32 -34q-28 25 -58.5 37t-65.5 12q-75 0 -124.5 -52.5t-49.5 -131.5zM390 660l26 -32
l-144 -119l-144 119l26 32l119 -90z" />
    <glyph glyph-name="Dcaron" unicode="&#x10e;" horiz-adv-x="700" 
d="M257 0h-147v685h147q176 0 279 -92.5t103 -250.5t-103 -250t-279 -92zM585 342q0 137 -87 216.5t-236 79.5h-100v-591h100q149 0 236 79.5t87 215.5zM428 905l26 -32l-144 -119l-144 119l26 32l119 -90z" />
    <glyph glyph-name="dcaron" unicode="&#x10f;" horiz-adv-x="599" 
d="M492 0h-40l-8 74q-29 -40 -72 -62t-93 -22q-95 0 -159 66.5t-64 163.5q0 98 64 164t159 66q49 0 91.5 -21t71.5 -60v336h50v-705zM108 220q0 -78 49 -131t122 -53q72 0 121.5 53t49.5 131t-49.5 131t-121.5 53q-73 0 -122 -53t-49 -131zM612 705l-10 -176h-40v176h50z
" />
    <glyph glyph-name="Dcroat" unicode="&#x110;" horiz-adv-x="715" 
d="M15 322v45h110v318h147q176 0 279 -92.5t103 -250.5t-103 -250t-279 -92h-147v322h-110zM375 367v-45h-198v-275h100q149 0 236 79.5t87 215.5q0 137 -87 216.5t-236 79.5h-100v-271h198z" />
    <glyph glyph-name="dcroat" unicode="&#x111;" horiz-adv-x="582" 
d="M492 0h-40l-8 74q-29 -40 -72 -62t-93 -22q-95 0 -159 66.5t-64 163.5q0 98 64 164t159 66q49 0 91.5 -21t71.5 -60v196h-165v45h165v95h50v-95h75v-45h-75v-565zM108 220q0 -78 49 -131t122 -53q72 0 121.5 53t49.5 131t-49.5 131t-121.5 53q-73 0 -122 -53t-49 -131z
" />
    <glyph glyph-name="Emacron" unicode="&#x112;" horiz-adv-x="568" 
d="M508 0h-398v685h398v-47h-346v-258h326v-47h-326v-286h346v-47zM169 847h230v-47h-230v47z" />
    <glyph glyph-name="emacron" unicode="&#x113;" horiz-adv-x="529" 
d="M416 91l33 -33q-34 -35 -74.5 -51.5t-91.5 -16.5q-97 0 -161.5 65.5t-64.5 164.5q0 98 62 164t154 66q89 0 147.5 -65.5t58.5 -164.5v-8.5t-1 -7.5h-370q5 -73 54 -120.5t121 -47.5q39 0 72.5 14t60.5 41zM273 404q-64 0 -109.5 -43.5t-54.5 -111.5h318q-8 69 -51 112
t-103 43zM159 602h230v-47h-230v47z" />
    <glyph glyph-name="Ebreve" unicode="&#x114;" horiz-adv-x="568" 
d="M508 0h-398v685h398v-47h-346v-258h326v-47h-326v-286h346v-47zM284 797q33 0 50 20.5t17 58.5v12h48v-22q0 -50 -32 -81t-83 -31q-50 0 -82.5 32t-32.5 82v20h48v-10q0 -38 17.5 -59.5t49.5 -21.5z" />
    <glyph glyph-name="ebreve" unicode="&#x115;" horiz-adv-x="529" 
d="M416 91l33 -33q-34 -35 -74.5 -51.5t-91.5 -16.5q-97 0 -161.5 65.5t-64.5 164.5q0 98 62 164t154 66q89 0 147.5 -65.5t58.5 -164.5v-8.5t-1 -7.5h-370q5 -73 54 -120.5t121 -47.5q39 0 72.5 14t60.5 41zM273 404q-64 0 -109.5 -43.5t-54.5 -111.5h318q-8 69 -51 112
t-103 43zM274 552q33 0 50 20.5t17 58.5v12h48v-22q0 -50 -32 -81t-83 -31q-50 0 -82.5 32t-32.5 82v20h48v-10q0 -38 17.5 -59.5t49.5 -21.5z" />
    <glyph glyph-name="Edotaccent" unicode="&#x116;" horiz-adv-x="568" 
d="M508 0h-398v685h398v-47h-346v-258h326v-47h-326v-286h346v-47zM328 833q0 -18 -13 -31t-31 -13t-31 13t-13 31t13 31t31 13t31 -13t13 -31z" />
    <glyph glyph-name="edotaccent" unicode="&#x117;" horiz-adv-x="529" 
d="M416 91l33 -33q-34 -35 -74.5 -51.5t-91.5 -16.5q-97 0 -161.5 65.5t-64.5 164.5q0 98 62 164t154 66q89 0 147.5 -65.5t58.5 -164.5v-8.5t-1 -7.5h-370q5 -73 54 -120.5t121 -47.5q39 0 72.5 14t60.5 41zM273 404q-64 0 -109.5 -43.5t-54.5 -111.5h318q-8 69 -51 112
t-103 43zM308 588q0 -18 -13 -31t-31 -13t-31 13t-13 31t13 31t31 13t31 -13t13 -31z" />
    <glyph glyph-name="Eogonek" unicode="&#x118;" horiz-adv-x="568" 
d="M451 -146l13 -40q-11 -5 -24 -7.5t-27 -2.5q-36 0 -57.5 21t-21.5 57q0 33 17.5 63t50.5 55h-292v685h398v-47h-346v-258h326v-47h-326v-286h346v-47h-50q-37 -25 -56.5 -52.5t-19.5 -55.5q0 -20 10.5 -32t28.5 -12q9 0 16 1.5t14 4.5z" />
    <glyph glyph-name="eogonek" unicode="&#x119;" horiz-adv-x="529" 
d="M337 -108q0 -20 10.5 -32t28.5 -12q11 0 23 4t24 11l16 -38q-15 -10 -32.5 -15.5t-38.5 -5.5q-36 0 -57.5 21t-21.5 57q0 26 12 55t34 58q-15 -3 -26 -4t-26 -1q-97 0 -161.5 65.5t-64.5 164.5q0 98 62 164t154 66q89 0 147.5 -65.5t58.5 -164.5v-8.5t-1 -7.5h-370
q5 -73 54 -120.5t121 -47.5q39 0 72.5 14t60.5 41l33 -33l-18 -18q-49 -49 -71.5 -84t-22.5 -64zM273 404q-64 0 -109.5 -43.5t-54.5 -111.5h318q-8 69 -51 112t-103 43z" />
    <glyph glyph-name="Ecaron" unicode="&#x11a;" horiz-adv-x="568" 
d="M508 0h-398v685h398v-47h-346v-258h326v-47h-326v-286h346v-47zM402 905l26 -32l-144 -119l-144 119l26 32l119 -90z" />
    <glyph glyph-name="ecaron" unicode="&#x11b;" horiz-adv-x="529" 
d="M416 91l33 -33q-34 -35 -74.5 -51.5t-91.5 -16.5q-97 0 -161.5 65.5t-64.5 164.5q0 98 62 164t154 66q89 0 147.5 -65.5t58.5 -164.5v-8.5t-1 -7.5h-370q5 -73 54 -120.5t121 -47.5q39 0 72.5 14t60.5 41zM273 404q-64 0 -109.5 -43.5t-54.5 -111.5h318q-8 69 -51 112
t-103 43zM392 660l26 -32l-144 -119l-144 119l26 32l119 -90z" />
    <glyph glyph-name="Gcircumflex" unicode="&#x11c;" horiz-adv-x="754" 
d="M711 309q0 -134 -92 -226.5t-224 -92.5q-142 0 -237.5 101t-95.5 251q0 151 95.5 252t237.5 101q67 0 127 -26t110 -76l-34 -36q-43 43 -95 66t-108 23q-120 0 -199.5 -86.5t-79.5 -217.5q0 -129 80 -216t199 -87q106 0 182.5 71t82.5 175h-275v47h325q1 -8 1 -12v-11z
M387 905l144 -119l-26 -32l-119 90l-117 -90l-26 32z" />
    <glyph glyph-name="gcircumflex" unicode="&#x11d;" horiz-adv-x="581" 
d="M519 0q0 -93 -64.5 -151.5t-167.5 -58.5q-65 0 -123 23.5t-109 70.5l33 35q45 -41 95 -62t104 -21q81 0 131.5 45.5t50.5 118.5q0 28 -6 52.5t-19 48.5q-29 -43 -75 -67t-101 -24q-90 0 -151.5 63.5t-61.5 156.5t61.5 156.5t151.5 63.5q50 0 93 -22t72 -62l8 74h40v-304
l10 -21q13 -28 20.5 -58t7.5 -57zM107 230q0 -74 46 -124t115 -50q73 0 122 47t49 117q0 78 -49.5 131t-121.5 53q-69 0 -115 -50t-46 -124zM270 660l144 -119l-26 -32l-119 90l-117 -90l-26 32z" />
    <glyph glyph-name="Gbreve" unicode="&#x11e;" horiz-adv-x="754" 
d="M711 309q0 -134 -92 -226.5t-224 -92.5q-142 0 -237.5 101t-95.5 251q0 151 95.5 252t237.5 101q67 0 127 -26t110 -76l-34 -36q-43 43 -95 66t-108 23q-120 0 -199.5 -86.5t-79.5 -217.5q0 -129 80 -216t199 -87q106 0 182.5 71t82.5 175h-275v47h325q1 -8 1 -12v-11z
M387 797q33 0 50 20.5t17 58.5v12h48v-22q0 -50 -32 -81t-83 -31q-50 0 -82.5 32t-32.5 82v20h48v-10q0 -38 17.5 -59.5t49.5 -21.5z" />
    <glyph glyph-name="gbreve" unicode="&#x11f;" horiz-adv-x="581" 
d="M519 0q0 -93 -64.5 -151.5t-167.5 -58.5q-65 0 -123 23.5t-109 70.5l33 35q45 -41 95 -62t104 -21q81 0 131.5 45.5t50.5 118.5q0 28 -6 52.5t-19 48.5q-29 -43 -75 -67t-101 -24q-90 0 -151.5 63.5t-61.5 156.5t61.5 156.5t151.5 63.5q50 0 93 -22t72 -62l8 74h40v-304
l10 -21q13 -28 20.5 -58t7.5 -57zM107 230q0 -74 46 -124t115 -50q73 0 122 47t49 117q0 78 -49.5 131t-121.5 53q-69 0 -115 -50t-46 -124zM270 552q33 0 50 20.5t17 58.5v12h48v-22q0 -50 -32 -81t-83 -31q-50 0 -82.5 32t-32.5 82v20h48v-10q0 -38 17.5 -59.5t49.5 -21.5
z" />
    <glyph glyph-name="Gdotaccent" unicode="&#x120;" horiz-adv-x="754" 
d="M711 309q0 -134 -92 -226.5t-224 -92.5q-142 0 -237.5 101t-95.5 251q0 151 95.5 252t237.5 101q67 0 127 -26t110 -76l-34 -36q-43 43 -95 66t-108 23q-120 0 -199.5 -86.5t-79.5 -217.5q0 -129 80 -216t199 -87q106 0 182.5 71t82.5 175h-275v47h325q1 -8 1 -12v-11z
M431 833q0 -18 -13 -31t-31 -13t-31 13t-13 31t13 31t31 13t31 -13t13 -31z" />
    <glyph glyph-name="gdotaccent" unicode="&#x121;" horiz-adv-x="581" 
d="M519 0q0 -93 -64.5 -151.5t-167.5 -58.5q-65 0 -123 23.5t-109 70.5l33 35q45 -41 95 -62t104 -21q81 0 131.5 45.5t50.5 118.5q0 28 -6 52.5t-19 48.5q-29 -43 -75 -67t-101 -24q-90 0 -151.5 63.5t-61.5 156.5t61.5 156.5t151.5 63.5q50 0 93 -22t72 -62l8 74h40v-304
l10 -21q13 -28 20.5 -58t7.5 -57zM107 230q0 -74 46 -124t115 -50q73 0 122 47t49 117q0 78 -49.5 131t-121.5 53q-69 0 -115 -50t-46 -124zM314 588q0 -18 -13 -31t-31 -13t-31 13t-13 31t13 31t31 13t31 -13t13 -31z" />
    <glyph glyph-name="Gcommaaccent" unicode="&#x122;" horiz-adv-x="754" 
d="M711 309q0 -134 -92 -226.5t-224 -92.5q-142 0 -237.5 101t-95.5 251q0 151 95.5 252t237.5 101q67 0 127 -26t110 -76l-34 -36q-43 43 -95 66t-108 23q-120 0 -199.5 -86.5t-79.5 -217.5q0 -129 80 -216t199 -87q106 0 182.5 71t82.5 175h-275v47h325q1 -8 1 -12v-11z
M395 -59q16 0 28 -13t12 -30q0 -8 -2 -16.5t-5 -15.5l-48 -101h-37l35 100q-12 7 -18.5 16t-6.5 20q0 16 12.5 28t29.5 12z" />
    <glyph glyph-name="gcommaaccent" unicode="&#x123;" horiz-adv-x="581" 
d="M519 0q0 -93 -64.5 -151.5t-167.5 -58.5q-65 0 -123 23.5t-109 70.5l33 35q45 -41 95 -62t104 -21q81 0 131.5 45.5t50.5 118.5q0 28 -6 52.5t-19 48.5q-29 -43 -75 -67t-101 -24q-90 0 -151.5 63.5t-61.5 156.5t61.5 156.5t151.5 63.5q50 0 93 -22t72 -62l8 74h40v-304
l10 -21q13 -28 20.5 -58t7.5 -57zM107 230q0 -74 46 -124t115 -50q73 0 122 47t49 117q0 78 -49.5 131t-121.5 53q-69 0 -115 -50t-46 -124zM274 517q-16 0 -28 13t-12 30q0 8 2 16.5t5 15.5l38 81h37l-25 -80q12 -7 18.5 -16t6.5 -20q0 -16 -12.5 -28t-29.5 -12z" />
    <glyph glyph-name="Hcircumflex" unicode="&#x124;" horiz-adv-x="732" 
d="M622 0h-52v333h-408v-333h-52v685h52v-305h408v305h52v-685zM366 905l144 -119l-26 -32l-119 90l-117 -90l-26 32z" />
    <glyph glyph-name="hcircumflex" unicode="&#x125;" horiz-adv-x="545" 
d="M290 404q-41 0 -81 -26t-69 -73v-305h-50v705h50v-336q30 38 71 59.5t84 21.5q80 0 124 -50t44 -141v-259h-50v256q0 68 -33 108t-90 40zM261 910l144 -119l-26 -32l-119 90l-117 -90l-26 32z" />
    <glyph glyph-name="Hbar" unicode="&#x126;" horiz-adv-x="732" 
d="M570 333h-408v-333h-52v509h-110v45h110v131h52v-131h408v131h52v-131h110v-45h-110v-509h-52v333zM162 509v-129h408v129h-408z" />
    <glyph glyph-name="hbar" unicode="&#x127;" horiz-adv-x="545" 
d="M290 404q-41 0 -81 -26t-69 -73v-305h-50v565h-75v45h75v95h50v-95h165v-45h-165v-196q30 38 71 59.5t84 21.5q80 0 124 -50t44 -141v-259h-50v256q0 68 -33 108t-90 40z" />
    <glyph glyph-name="Itilde" unicode="&#x128;" horiz-adv-x="272" 
d="M162 0h-52v685h52v-685zM190 783q-14 0 -28 5.5t-39 21.5q-18 12 -26 15.5t-15 3.5q-15 0 -25 -9.5t-19 -33.5l-38 18q14 35 34 53t47 18q13 0 26.5 -5t37.5 -21q19 -13 28 -16.5t16 -3.5q13 0 22 10.5t21 39.5l38 -16q-16 -40 -36 -60t-44 -20z" />
    <glyph glyph-name="itilde" unicode="&#x129;" horiz-adv-x="230" 
d="M90 440h50v-440h-50v440zM169 538q-14 0 -28 5.5t-39 21.5q-18 12 -26 15.5t-15 3.5q-15 0 -25 -9.5t-19 -33.5l-38 18q14 35 34 53t47 18q13 0 26.5 -5t37.5 -21q19 -13 28 -16.5t16 -3.5q13 0 22 10.5t21 39.5l38 -16q-16 -40 -36 -60t-44 -20z" />
    <glyph glyph-name="Imacron" unicode="&#x12a;" horiz-adv-x="272" 
d="M162 0h-52v685h52v-685zM21 847h230v-47h-230v47z" />
    <glyph glyph-name="imacron" unicode="&#x12b;" horiz-adv-x="230" 
d="M90 440h50v-440h-50v440zM0 602h230v-47h-230v47z" />
    <glyph glyph-name="Ibreve" unicode="&#x12c;" horiz-adv-x="272" 
d="M162 0h-52v685h52v-685zM136 797q33 0 50 20.5t17 58.5v12h48v-22q0 -50 -32 -81t-83 -31q-50 0 -82.5 32t-32.5 82v20h48v-10q0 -38 17.5 -59.5t49.5 -21.5z" />
    <glyph glyph-name="ibreve" unicode="&#x12d;" horiz-adv-x="230" 
d="M90 440h50v-440h-50v440zM115 552q33 0 50 20.5t17 58.5v12h48v-22q0 -50 -32 -81t-83 -31q-50 0 -82.5 32t-32.5 82v20h48v-10q0 -38 17.5 -59.5t49.5 -21.5z" />
    <glyph glyph-name="Iogonek" unicode="&#x12e;" horiz-adv-x="272" 
d="M155 -146l13 -40q-11 -5 -24 -7.5t-27 -2.5q-36 0 -57.5 21t-21.5 57q0 34 18.5 65.5t53.5 55.5v682h52v-685q-37 -25 -56.5 -52.5t-19.5 -55.5q0 -20 10.5 -32t28.5 -12q9 0 16 1.5t14 4.5z" />
    <glyph glyph-name="iogonek" unicode="&#x12f;" horiz-adv-x="230" 
d="M155 584q0 -16 -11.5 -28t-28.5 -12q-16 0 -28 12t-12 28q0 17 12 28.5t28 11.5q17 0 28.5 -11.5t11.5 -28.5zM133 -146l13 -40q-11 -5 -24 -7.5t-27 -2.5q-36 0 -57.5 21t-21.5 57q0 35 19 66t55 56v436h50v-440q-37 -25 -56.5 -52.5t-19.5 -55.5q0 -20 10.5 -32
t28.5 -12q9 0 16 1.5t14 4.5z" />
    <glyph glyph-name="Idotaccent" unicode="&#x130;" horiz-adv-x="272" 
d="M162 0h-52v685h52v-685zM180 833q0 -18 -13 -31t-31 -13t-31 13t-13 31t13 31t31 13t31 -13t13 -31z" />
    <glyph glyph-name="dotlessi" unicode="&#x131;" horiz-adv-x="230" 
d="M90 440h50v-440h-50v440z" />
    <glyph glyph-name="IJ" unicode="&#x132;" horiz-adv-x="561" 
d="M162 314h-52v371h52v-371zM298 -10q-47 0 -88 19t-74 56l35 35q26 -30 59 -45.5t68 -15.5q55 0 85.5 37t30.5 105v504h52v-504q0 -91 -44.5 -141t-123.5 -50z" />
    <glyph glyph-name="ij" unicode="&#x133;" horiz-adv-x="430" 
d="M155 584q0 -16 -11.5 -28t-28.5 -12q-16 0 -28 12t-12 28q0 17 12 28.5t28 11.5q17 0 28.5 -11.5t11.5 -28.5zM90 440h50v-440h-50v440zM355 584q0 -16 -11.5 -28t-28.5 -12q-16 0 -28 12t-12 28q0 17 12 28.5t28 11.5q17 0 28.5 -11.5t11.5 -28.5zM211 -165
q36 0 57.5 28.5t21.5 77.5v499h50v-504q0 -65 -35.5 -105.5t-93.5 -40.5q-29 0 -57.5 12t-50.5 33l31 34q18 -16 38.5 -25t38.5 -9z" />
    <glyph glyph-name="Jcircumflex" unicode="&#x134;" horiz-adv-x="440" 
d="M177 -10q-47 0 -88 19t-74 56l35 35q26 -30 59 -45.5t68 -15.5q55 0 85.5 37t30.5 105v504h52v-504q0 -91 -44.5 -141t-123.5 -50zM316 905l144 -119l-26 -32l-119 90l-117 -90l-26 32z" />
    <glyph glyph-name="jcircumflex" unicode="&#x135;" horiz-adv-x="230" 
d="M11 -165q36 0 57.5 28.5t21.5 77.5v499h50v-504q0 -65 -35.5 -105.5t-93.5 -40.5q-29 0 -57.5 12t-50.5 33l31 34q18 -16 38.5 -25t38.5 -9zM100 660l144 -119l-26 -32l-119 90l-117 -90l-26 32z" />
    <glyph glyph-name="Kcommaaccent" unicode="&#x136;" horiz-adv-x="622" 
d="M212 327h-50v-327h-52v685h52v-311h50q67 0 99.5 19t83.5 101l119 191h57l-119 -191q-35 -56 -58.5 -85t-45.5 -46l248 -363h-63l-230 338q-18 -6 -40 -8.5t-51 -2.5zM329 -59q16 0 28 -13t12 -30q0 -8 -2 -16.5t-5 -15.5l-48 -101h-37l35 100q-12 7 -18.5 16t-6.5 20
q0 16 12.5 28t29.5 12z" />
    <glyph glyph-name="kcommaaccent" unicode="&#x137;" horiz-adv-x="490" 
d="M180 203h-40v-203h-50v705h50v-457h40q61 0 95 21.5t59 74.5l45 96h54l-45 -96q-19 -40 -38.5 -66t-41.5 -42l155 -236h-61l-140 213q-17 -5 -37.5 -7.5t-44.5 -2.5zM246 -59q16 0 28 -13t12 -30q0 -8 -2 -16.5t-5 -15.5l-48 -101h-37l35 100q-12 7 -18.5 16t-6.5 20
q0 16 12.5 28t29.5 12z" />
    <glyph glyph-name="kgreenlandic" unicode="&#x138;" horiz-adv-x="490" 
d="M180 203h-40v-203h-50v440h50v-192h40q61 0 95 21.5t59 74.5l45 96h54l-45 -96q-19 -40 -38.5 -66t-41.5 -42l155 -236h-61l-140 213q-17 -5 -37.5 -7.5t-44.5 -2.5z" />
    <glyph glyph-name="Lacute" unicode="&#x139;" horiz-adv-x="498" 
d="M162 47h306v-47h-358v685h52v-638zM116 755l-22 31l154 121l32 -46z" />
    <glyph glyph-name="lacute" unicode="&#x13a;" horiz-adv-x="230" 
d="M90 705h50v-705h-50v705zM55 760l-22 31l154 121l32 -46z" />
    <glyph glyph-name="Lcommaaccent" unicode="&#x13b;" horiz-adv-x="498" 
d="M162 47h306v-47h-358v685h52v-638zM280 -59q16 0 28 -13t12 -30q0 -8 -2 -16.5t-5 -15.5l-48 -101h-37l35 100q-12 7 -18.5 16t-6.5 20q0 16 12.5 28t29.5 12z" />
    <glyph glyph-name="lcommaaccent" unicode="&#x13c;" horiz-adv-x="230" 
d="M90 705h50v-705h-50v705zM113 -59q16 0 28 -13t12 -30q0 -8 -2 -16.5t-5 -15.5l-48 -101h-37l35 100q-12 7 -18.5 16t-6.5 20q0 16 12.5 28t29.5 12z" />
    <glyph glyph-name="Lcaron" unicode="&#x13d;" horiz-adv-x="498" 
d="M162 47h306v-47h-358v685h52v-638zM303 685l-10 -176h-40v176h50z" />
    <glyph glyph-name="lcaron" unicode="&#x13e;" horiz-adv-x="247" 
d="M90 705h50v-705h-50v705zM260 705l-10 -176h-40v176h50z" />
    <glyph glyph-name="Ldot" unicode="&#x13f;" horiz-adv-x="498" 
d="M162 47h306v-47h-358v685h52v-638zM421 341q0 -18 -13 -31t-31 -13t-31 13t-13 31t13 31t31 13t31 -13t13 -31z" />
    <glyph glyph-name="ldot" unicode="&#x140;" horiz-adv-x="269" 
d="M90 705h50v-705h-50v705zM284 328q0 -18 -13 -31t-31 -13t-31 13t-13 31t13 31t31 13t31 -13t13 -31z" />
    <glyph glyph-name="Lslash" unicode="&#x141;" horiz-adv-x="513" 
d="M177 47h306v-47h-358v299l-91 -42l-19 41l110 51v336h52v-311l164 76l19 -41l-183 -85v-277z" />
    <glyph glyph-name="lslash" unicode="&#x142;" horiz-adv-x="267" 
d="M253 450l19 -40l-114 -57v-353h-50v329l-94 -47l-19 40l113 56v327h50v-302z" />
    <glyph glyph-name="Nacute" unicode="&#x143;" horiz-adv-x="726" 
d="M616 0h-52l-404 600v-600h-50v685h52l404 -600v600h50v-685zM303 755l-22 31l154 121l32 -46z" />
    <glyph glyph-name="nacute" unicode="&#x144;" horiz-adv-x="545" 
d="M290 404q-41 0 -81 -26t-69 -73v-305h-50v440h40l10 -72q29 39 70 60.5t85 21.5q80 0 124 -50t44 -141v-259h-50v256q0 68 -33 108t-90 40zM213 510l-22 31l154 121l32 -46z" />
    <glyph glyph-name="Ncommaaccent" unicode="&#x145;" horiz-adv-x="726" 
d="M616 0h-52l-404 600v-600h-50v685h52l404 -600v600h50v-685zM361 -59q16 0 28 -13t12 -30q0 -8 -2 -16.5t-5 -15.5l-48 -101h-37l35 100q-12 7 -18.5 16t-6.5 20q0 16 12.5 28t29.5 12z" />
    <glyph glyph-name="ncommaaccent" unicode="&#x146;" horiz-adv-x="545" 
d="M290 404q-41 0 -81 -26t-69 -73v-305h-50v440h40l10 -72q29 39 70 60.5t85 21.5q80 0 124 -50t44 -141v-259h-50v256q0 68 -33 108t-90 40zM271 -59q16 0 28 -13t12 -30q0 -8 -2 -16.5t-5 -15.5l-48 -101h-37l35 100q-12 7 -18.5 16t-6.5 20q0 16 12.5 28t29.5 12z" />
    <glyph glyph-name="Ncaron" unicode="&#x147;" horiz-adv-x="726" 
d="M616 0h-52l-404 600v-600h-50v685h52l404 -600v600h50v-685zM481 905l26 -32l-144 -119l-144 119l26 32l119 -90z" />
    <glyph glyph-name="ncaron" unicode="&#x148;" horiz-adv-x="545" 
d="M290 404q-41 0 -81 -26t-69 -73v-305h-50v440h40l10 -72q29 39 70 60.5t85 21.5q80 0 124 -50t44 -141v-259h-50v256q0 68 -33 108t-90 40zM397 660l26 -32l-144 -119l-144 119l26 32l119 -90z" />
    <glyph glyph-name="napostrophe" unicode="&#x149;" horiz-adv-x="545" 
d="M290 404q-41 0 -81 -26t-69 -73v-305h-50v440h40l10 -72q29 39 70 60.5t85 21.5q80 0 124 -50t44 -141v-259h-50v256q0 68 -33 108t-90 40zM93 685l-76 -210h-35l51 210h60z" />
    <glyph glyph-name="Eng" unicode="&#x14a;" horiz-adv-x="726" 
d="M566 85v600h50v-749q0 -65 -35.5 -105.5t-93.5 -40.5q-29 0 -57.5 12t-50.5 33l31 36q18 -16 38.5 -25t38.5 -9q36 0 56.5 27.5t20.5 76.5v59l-404 600v-600h-50v685h52z" />
    <glyph glyph-name="eng" unicode="&#x14b;" horiz-adv-x="545" 
d="M295 450q80 0 124 -50t44 -141v-323q0 -65 -35.5 -105.5t-93.5 -40.5q-29 0 -57.5 12t-50.5 33l31 34q18 -16 38.5 -25t38.5 -9q36 0 57.5 28.5t21.5 77.5v315q0 68 -33 108t-90 40q-41 0 -81 -26t-69 -73v-305h-50v440h40l10 -72q29 39 70 60.5t85 21.5z" />
    <glyph glyph-name="Omacron" unicode="&#x14c;" horiz-adv-x="790" 
d="M62 342q0 151 95.5 252t237.5 101t237.5 -101t95.5 -252q0 -150 -95.5 -251t-237.5 -101t-237.5 101t-95.5 251zM674 342q0 131 -79.5 217.5t-199.5 86.5t-199.5 -86.5t-79.5 -217.5q0 -130 79.5 -216.5t199.5 -86.5t199.5 86.5t79.5 216.5zM279 847h230v-47h-230v47z
" />
    <glyph glyph-name="omacron" unicode="&#x14d;" horiz-adv-x="558" 
d="M501 220q0 -99 -63 -164.5t-159 -65.5t-159 65.5t-63 164.5t63 164.5t159 65.5t159 -65.5t63 -164.5zM109 220q0 -79 48.5 -131.5t121.5 -52.5t121.5 52.5t48.5 131.5t-48 131.5t-122 52.5t-122 -52.5t-48 -131.5zM164 602h230v-47h-230v47z" />
    <glyph glyph-name="Obreve" unicode="&#x14e;" horiz-adv-x="790" 
d="M62 342q0 151 95.5 252t237.5 101t237.5 -101t95.5 -252q0 -150 -95.5 -251t-237.5 -101t-237.5 101t-95.5 251zM674 342q0 131 -79.5 217.5t-199.5 86.5t-199.5 -86.5t-79.5 -217.5q0 -130 79.5 -216.5t199.5 -86.5t199.5 86.5t79.5 216.5zM394 797q33 0 50 20.5
t17 58.5v12h48v-22q0 -50 -32 -81t-83 -31q-50 0 -82.5 32t-32.5 82v20h48v-10q0 -38 17.5 -59.5t49.5 -21.5z" />
    <glyph glyph-name="obreve" unicode="&#x14f;" horiz-adv-x="558" 
d="M501 220q0 -99 -63 -164.5t-159 -65.5t-159 65.5t-63 164.5t63 164.5t159 65.5t159 -65.5t63 -164.5zM109 220q0 -79 48.5 -131.5t121.5 -52.5t121.5 52.5t48.5 131.5t-48 131.5t-122 52.5t-122 -52.5t-48 -131.5zM279 552q33 0 50 20.5t17 58.5v12h48v-22q0 -50 -32 -81
t-83 -31q-50 0 -82.5 32t-32.5 82v20h48v-10q0 -38 17.5 -59.5t49.5 -21.5z" />
    <glyph glyph-name="Ohungarumlaut" unicode="&#x150;" horiz-adv-x="790" 
d="M62 342q0 151 95.5 252t237.5 101t237.5 -101t95.5 -252q0 -150 -95.5 -251t-237.5 -101t-237.5 101t-95.5 251zM674 342q0 131 -79.5 217.5t-199.5 86.5t-199.5 -86.5t-79.5 -217.5q0 -130 79.5 -216.5t199.5 -86.5t199.5 86.5t79.5 216.5zM303 753l-27 22l106 159
l43 -30zM457 753l-27 22l106 159l43 -30z" />
    <glyph glyph-name="ohungarumlaut" unicode="&#x151;" horiz-adv-x="558" 
d="M501 220q0 -99 -63 -164.5t-159 -65.5t-159 65.5t-63 164.5t63 164.5t159 65.5t159 -65.5t63 -164.5zM109 220q0 -79 48.5 -131.5t121.5 -52.5t121.5 52.5t48.5 131.5t-48 131.5t-122 52.5t-122 -52.5t-48 -131.5zM197 508l-27 22l106 159l43 -30zM351 508l-27 22
l106 159l43 -30z" />
    <glyph glyph-name="OE" unicode="&#x152;" horiz-adv-x="997" 
d="M62 342q0 158 103 250.5t279 92.5h493v-47h-346v-258h326v-47h-326v-286h346v-47h-493q-176 0 -279 92t-103 250zM116 342q0 -136 87 -215.5t236 -79.5h100v591h-100q-149 0 -236 -79.5t-87 -216.5z" />
    <glyph glyph-name="oe" unicode="&#x153;" horiz-adv-x="923" 
d="M811 93l32 -32q-36 -36 -76.5 -53.5t-89.5 -17.5q-66 0 -119 32.5t-82 88.5q-28 -57 -80 -89t-117 -32q-96 0 -159 65.5t-63 164.5t63 164.5t159 65.5q65 0 117 -32t80 -88q27 56 78 88t113 32q89 0 147.5 -65.5t58.5 -164.5v-8.5t-1 -7.5h-370q5 -73 54 -120.5
t121 -47.5q38 0 72 14.5t62 42.5zM109 220q0 -79 48.5 -131.5t121.5 -52.5q74 0 123 52.5t49 131.5t-49 131.5t-123 52.5t-122 -52.5t-48 -131.5zM667 404q-64 0 -109.5 -43.5t-54.5 -111.5h318q-8 69 -51 112t-103 43z" />
    <glyph glyph-name="Racute" unicode="&#x154;" horiz-adv-x="600" 
d="M162 0h-52v685h195q97 0 155.5 -51.5t58.5 -136.5q0 -66 -39.5 -115t-102.5 -66l182 -316h-60l-178 309h-159v-309zM465 497q0 64 -42.5 102.5t-112.5 38.5h-148v-282h148q70 0 112.5 38.5t42.5 102.5zM239 755l-22 31l154 121l32 -46z" />
    <glyph glyph-name="racute" unicode="&#x155;" horiz-adv-x="336" 
d="M290 397q-47 0 -84.5 -22.5t-65.5 -66.5v-308h-50v440h40l9 -71q29 38 70.5 59.5t85.5 21.5q6 0 14 -0.5t13 -1.5l-8 -53q-5 1 -12 1.5t-12 0.5zM143 510l-22 31l154 121l32 -46z" />
    <glyph glyph-name="Rcommaaccent" unicode="&#x156;" horiz-adv-x="600" 
d="M162 0h-52v685h195q97 0 155.5 -51.5t58.5 -136.5q0 -66 -39.5 -115t-102.5 -66l182 -316h-60l-178 309h-159v-309zM465 497q0 64 -42.5 102.5t-112.5 38.5h-148v-282h148q70 0 112.5 38.5t42.5 102.5zM318 -59q16 0 28 -13t12 -30q0 -8 -2 -16.5t-5 -15.5l-48 -101h-37
l35 100q-12 7 -18.5 16t-6.5 20q0 16 12.5 28t29.5 12z" />
    <glyph glyph-name="rcommaaccent" unicode="&#x157;" horiz-adv-x="336" 
d="M290 397q-47 0 -84.5 -22.5t-65.5 -66.5v-308h-50v440h40l9 -71q29 38 70.5 59.5t85.5 21.5q6 0 14 -0.5t13 -1.5l-8 -53q-5 1 -12 1.5t-12 0.5zM111 -59q16 0 28 -13t12 -30q0 -8 -2 -16.5t-5 -15.5l-48 -101h-37l35 100q-12 7 -18.5 16t-6.5 20q0 16 12.5 28t29.5 12z
" />
    <glyph glyph-name="Rcaron" unicode="&#x158;" horiz-adv-x="600" 
d="M162 0h-52v685h195q97 0 155.5 -51.5t58.5 -136.5q0 -66 -39.5 -115t-102.5 -66l182 -316h-60l-178 309h-159v-309zM465 497q0 64 -42.5 102.5t-112.5 38.5h-148v-282h148q70 0 112.5 38.5t42.5 102.5zM398 905l26 -32l-144 -119l-144 119l26 32l119 -90z" />
    <glyph glyph-name="rcaron" unicode="&#x159;" horiz-adv-x="336" 
d="M290 397q-47 0 -84.5 -22.5t-65.5 -66.5v-308h-50v440h40l9 -71q29 38 70.5 59.5t85.5 21.5q6 0 14 -0.5t13 -1.5l-8 -53q-5 1 -12 1.5t-12 0.5zM301 660l26 -32l-144 -119l-144 119l26 32l119 -90z" />
    <glyph glyph-name="Sacute" unicode="&#x15a;" horiz-adv-x="566" 
d="M291 646q-69 0 -110.5 -33.5t-41.5 -90.5q0 -35 16.5 -61t52.5 -46q19 -11 45.5 -21.5t80.5 -28.5q94 -31 136 -76.5t42 -111.5q0 -81 -59.5 -134t-149.5 -53q-76 0 -139 29t-115 87l34 39q48 -54 102 -80t118 -26q68 0 112.5 39t44.5 99q0 48 -33 80.5t-124 62.5
q-64 21 -94.5 35t-52.5 30q-35 25 -52 59t-17 78q0 78 56.5 125.5t147.5 47.5q58 0 108 -22t96 -67l-33 -38q-44 40 -85 59t-86 19zM219 755l-22 31l154 121l32 -46z" />
    <glyph glyph-name="sacute" unicode="&#x15b;" horiz-adv-x="408" 
d="M65 334q0 52 38 84t99 32q38 0 73 -13.5t64 -39.5l-32 -38q-22 21 -49.5 33t-55.5 12q-42 0 -64.5 -18t-22.5 -51q0 -30 23 -50t94 -41q68 -20 97 -50.5t29 -75.5q0 -56 -43 -92t-112 -36q-46 0 -84.5 17t-73.5 52l33 37q30 -32 59.5 -46t65.5 -14q48 0 76.5 22.5
t28.5 59.5q0 28 -19.5 46t-82.5 38q-83 27 -112 56.5t-29 75.5zM139 510l-22 31l154 121l32 -46z" />
    <glyph glyph-name="Scircumflex" unicode="&#x15c;" horiz-adv-x="566" 
d="M291 646q-69 0 -110.5 -33.5t-41.5 -90.5q0 -35 16.5 -61t52.5 -46q19 -11 45.5 -21.5t80.5 -28.5q94 -31 136 -76.5t42 -111.5q0 -81 -59.5 -134t-149.5 -53q-76 0 -139 29t-115 87l34 39q48 -54 102 -80t118 -26q68 0 112.5 39t44.5 99q0 48 -33 80.5t-124 62.5
q-64 21 -94.5 35t-52.5 30q-35 25 -52 59t-17 78q0 78 56.5 125.5t147.5 47.5q58 0 108 -22t96 -67l-33 -38q-44 40 -85 59t-86 19zM276 905l144 -119l-26 -32l-119 90l-117 -90l-26 32z" />
    <glyph glyph-name="scircumflex" unicode="&#x15d;" horiz-adv-x="408" 
d="M65 334q0 52 38 84t99 32q38 0 73 -13.5t64 -39.5l-32 -38q-22 21 -49.5 33t-55.5 12q-42 0 -64.5 -18t-22.5 -51q0 -30 23 -50t94 -41q68 -20 97 -50.5t29 -75.5q0 -56 -43 -92t-112 -36q-46 0 -84.5 17t-73.5 52l33 37q30 -32 59.5 -46t65.5 -14q48 0 76.5 22.5
t28.5 59.5q0 28 -19.5 46t-82.5 38q-83 27 -112 56.5t-29 75.5zM204 660l144 -119l-26 -32l-119 90l-117 -90l-26 32z" />
    <glyph glyph-name="Scedilla" unicode="&#x15e;" horiz-adv-x="566" 
d="M374 -132q0 -34 -25 -56t-65 -22q-19 0 -37.5 4.5t-37.5 13.5l14 40q17 -8 31.5 -11.5t29.5 -3.5q19 0 30.5 9.5t11.5 25.5q0 18 -13 26.5t-40 8.5l-30 26l20 63q-63 7 -116.5 35.5t-97.5 78.5l34 39q48 -54 102 -80t118 -26q68 0 112.5 39t44.5 99q0 48 -33 80.5
t-124 62.5q-64 21 -94.5 35t-52.5 30q-35 25 -52 59t-17 78q0 78 56.5 125.5t147.5 47.5q58 0 108 -22t96 -67l-33 -38q-44 40 -85 59t-86 19q-69 0 -110.5 -33.5t-41.5 -90.5q0 -35 16.5 -61t52.5 -46q19 -11 45.5 -21.5t80.5 -28.5q94 -31 136 -76.5t42 -111.5
q0 -80 -59 -133.5t-147 -53.5l-15 -45q40 -1 61.5 -21t21.5 -56z" />
    <glyph glyph-name="scedilla" unicode="&#x15f;" horiz-adv-x="408" 
d="M289 -132q0 -34 -25 -56t-65 -22q-19 0 -37.5 4.5t-37.5 13.5l14 40q17 -8 31.5 -11.5t29.5 -3.5q19 0 30.5 9.5t11.5 25.5q0 18 -13 26.5t-40 8.5l-30 26l20 62q-38 4 -70.5 21t-62.5 47l33 37q30 -32 59.5 -46t65.5 -14q48 0 76.5 22.5t28.5 59.5q0 28 -19.5 46
t-82.5 38q-83 27 -112 56.5t-29 75.5q0 52 38 84t99 32q38 0 73 -13.5t64 -39.5l-32 -38q-22 21 -49.5 33t-55.5 12q-42 0 -64.5 -18t-22.5 -51q0 -30 23 -50t94 -41q68 -20 97 -50.5t29 -75.5q0 -52 -37.5 -87.5t-99.5 -39.5l-15 -46q40 -1 61.5 -21t21.5 -56z" />
    <glyph glyph-name="Scaron" unicode="&#x160;" horiz-adv-x="566" 
d="M291 646q-69 0 -110.5 -33.5t-41.5 -90.5q0 -35 16.5 -61t52.5 -46q19 -11 45.5 -21.5t80.5 -28.5q94 -31 136 -76.5t42 -111.5q0 -81 -59.5 -134t-149.5 -53q-76 0 -139 29t-115 87l34 39q48 -54 102 -80t118 -26q68 0 112.5 39t44.5 99q0 48 -33 80.5t-124 62.5
q-64 21 -94.5 35t-52.5 30q-35 25 -52 59t-17 78q0 78 56.5 125.5t147.5 47.5q58 0 108 -22t96 -67l-33 -38q-44 40 -85 59t-86 19zM398 905l26 -32l-144 -119l-144 119l26 32l119 -90z" />
    <glyph glyph-name="scaron" unicode="&#x161;" horiz-adv-x="408" 
d="M65 334q0 52 38 84t99 32q38 0 73 -13.5t64 -39.5l-32 -38q-22 21 -49.5 33t-55.5 12q-42 0 -64.5 -18t-22.5 -51q0 -30 23 -50t94 -41q68 -20 97 -50.5t29 -75.5q0 -56 -43 -92t-112 -36q-46 0 -84.5 17t-73.5 52l33 37q30 -32 59.5 -46t65.5 -14q48 0 76.5 22.5
t28.5 59.5q0 28 -19.5 46t-82.5 38q-83 27 -112 56.5t-29 75.5zM322 660l26 -32l-144 -119l-144 119l26 32l119 -90z" />
    <glyph glyph-name="uni0162" unicode="&#x162;" horiz-adv-x="528" 
d="M238 638h-218v47h488v-47h-218v-638h-52v638zM263 -59q16 0 28 -13t12 -30q0 -8 -2 -16.5t-5 -15.5l-48 -101h-37l35 100q-12 7 -18.5 16t-6.5 20q0 16 12.5 28t29.5 12z" />
    <glyph glyph-name="uni0163" unicode="&#x163;" horiz-adv-x="387" 
d="M122 395h-96v40l96 5h1l9 124h40v-124h162v-45h-162v-267q0 -43 20.5 -68t55.5 -25q21 0 42 10.5t40 30.5l29 -31q-25 -27 -53.5 -41t-59.5 -14q-57 0 -90.5 37.5t-33.5 100.5v267zM204 -59q16 0 28 -13t12 -30q0 -8 -2 -16.5t-5 -15.5l-48 -101h-37l35 100
q-12 7 -18.5 16t-6.5 20q0 16 12.5 28t29.5 12z" />
    <glyph glyph-name="Tcaron" unicode="&#x164;" horiz-adv-x="528" 
d="M238 638h-218v47h488v-47h-218v-638h-52v638zM378 905l26 -32l-144 -119l-144 119l26 32l119 -90z" />
    <glyph glyph-name="tcaron" unicode="&#x165;" horiz-adv-x="387" 
d="M122 395h-96v40l96 5h1l9 124h40v-124h162v-45h-162v-267q0 -43 20.5 -68t55.5 -25q21 0 42 10.5t40 30.5l29 -31q-25 -27 -53.5 -41t-59.5 -14q-57 0 -90.5 37.5t-33.5 100.5v267zM287 685l-10 -176h-40v176h50z" />
    <glyph glyph-name="Tbar" unicode="&#x166;" horiz-adv-x="528" 
d="M238 638h-218v47h488v-47h-218v-248h139v-45h-139v-345h-52v345h-139v45h139v248z" />
    <glyph glyph-name="tbar" unicode="&#x167;" horiz-adv-x="387" 
d="M122 395h-96v40l96 5h1l9 124h40v-124h162v-45h-162v-133h162v-43h-162v-91q0 -43 20.5 -68t55.5 -25q21 0 42 10.5t40 30.5l29 -31q-25 -27 -53.5 -41t-59.5 -14q-57 0 -90.5 37.5t-33.5 100.5v91h-96v43h96v133z" />
    <glyph glyph-name="Utilde" unicode="&#x168;" horiz-adv-x="678" 
d="M339 -10q-113 0 -178.5 73t-65.5 197v425h52v-423q0 -106 50.5 -164.5t141.5 -58.5t141.5 58.5t50.5 164.5v423h52v-425q0 -124 -65.5 -197t-178.5 -73zM394 783q-14 0 -28 5.5t-39 21.5q-18 12 -26 15.5t-15 3.5q-15 0 -25 -9.5t-19 -33.5l-38 18q14 35 34 53t47 18
q13 0 26.5 -5t37.5 -21q19 -13 28 -16.5t16 -3.5q13 0 22 10.5t21 39.5l38 -16q-16 -40 -36 -60t-44 -20z" />
    <glyph glyph-name="utilde" unicode="&#x169;" horiz-adv-x="534" 
d="M444 0h-40l-9 68q-29 -37 -68.5 -57.5t-82.5 -20.5q-78 0 -120.5 47t-42.5 134v269h50v-266q0 -66 31 -102t87 -36q41 0 79 25t66 71v308h50v-440zM321 538q-14 0 -28 5.5t-39 21.5q-18 12 -26 15.5t-15 3.5q-15 0 -25 -9.5t-19 -33.5l-38 18q14 35 34 53t47 18
q13 0 26.5 -5t37.5 -21q19 -13 28 -16.5t16 -3.5q13 0 22 10.5t21 39.5l38 -16q-16 -40 -36 -60t-44 -20z" />
    <glyph glyph-name="Umacron" unicode="&#x16a;" horiz-adv-x="678" 
d="M339 -10q-113 0 -178.5 73t-65.5 197v425h52v-423q0 -106 50.5 -164.5t141.5 -58.5t141.5 58.5t50.5 164.5v423h52v-425q0 -124 -65.5 -197t-178.5 -73zM224 847h230v-47h-230v47z" />
    <glyph glyph-name="umacron" unicode="&#x16b;" horiz-adv-x="534" 
d="M444 0h-40l-9 68q-29 -37 -68.5 -57.5t-82.5 -20.5q-78 0 -120.5 47t-42.5 134v269h50v-266q0 -66 31 -102t87 -36q41 0 79 25t66 71v308h50v-440zM152 602h230v-47h-230v47z" />
    <glyph glyph-name="Ubreve" unicode="&#x16c;" horiz-adv-x="678" 
d="M339 -10q-113 0 -178.5 73t-65.5 197v425h52v-423q0 -106 50.5 -164.5t141.5 -58.5t141.5 58.5t50.5 164.5v423h52v-425q0 -124 -65.5 -197t-178.5 -73zM339 797q33 0 50 20.5t17 58.5v12h48v-22q0 -50 -32 -81t-83 -31q-50 0 -82.5 32t-32.5 82v20h48v-10
q0 -38 17.5 -59.5t49.5 -21.5z" />
    <glyph glyph-name="ubreve" unicode="&#x16d;" horiz-adv-x="534" 
d="M444 0h-40l-9 68q-29 -37 -68.5 -57.5t-82.5 -20.5q-78 0 -120.5 47t-42.5 134v269h50v-266q0 -66 31 -102t87 -36q41 0 79 25t66 71v308h50v-440zM267 552q33 0 50 20.5t17 58.5v12h48v-22q0 -50 -32 -81t-83 -31q-50 0 -82.5 32t-32.5 82v20h48v-10q0 -38 17.5 -59.5
t49.5 -21.5z" />
    <glyph glyph-name="Uring" unicode="&#x16e;" horiz-adv-x="678" 
d="M339 -10q-113 0 -178.5 73t-65.5 197v425h52v-423q0 -106 50.5 -164.5t141.5 -58.5t141.5 58.5t50.5 164.5v423h52v-425q0 -124 -65.5 -197t-178.5 -73zM243 833q0 38 28 65.5t68 27.5t68 -27.5t28 -65.5t-28 -65.5t-68 -27.5t-68 27.5t-28 65.5zM392 833q0 23 -15.5 39
t-37.5 16t-37.5 -16t-15.5 -39t15.5 -39t37.5 -16t37.5 16t15.5 39z" />
    <glyph glyph-name="uring" unicode="&#x16f;" horiz-adv-x="534" 
d="M444 0h-40l-9 68q-29 -37 -68.5 -57.5t-82.5 -20.5q-78 0 -120.5 47t-42.5 134v269h50v-266q0 -66 31 -102t87 -36q41 0 79 25t66 71v308h50v-440zM171 588q0 38 28 65.5t68 27.5t68 -27.5t28 -65.5t-28 -65.5t-68 -27.5t-68 27.5t-28 65.5zM320 588q0 23 -15.5 39
t-37.5 16t-37.5 -16t-15.5 -39t15.5 -39t37.5 -16t37.5 16t15.5 39z" />
    <glyph glyph-name="Uhungarumlaut" unicode="&#x170;" horiz-adv-x="678" 
d="M339 -10q-113 0 -178.5 73t-65.5 197v425h52v-423q0 -106 50.5 -164.5t141.5 -58.5t141.5 58.5t50.5 164.5v423h52v-425q0 -124 -65.5 -197t-178.5 -73zM247 753l-27 22l106 159l43 -30zM401 753l-27 22l106 159l43 -30z" />
    <glyph glyph-name="uhungarumlaut" unicode="&#x171;" horiz-adv-x="534" 
d="M444 0h-40l-9 68q-29 -37 -68.5 -57.5t-82.5 -20.5q-78 0 -120.5 47t-42.5 134v269h50v-266q0 -66 31 -102t87 -36q41 0 79 25t66 71v308h50v-440zM185 508l-27 22l106 159l43 -30zM339 508l-27 22l106 159l43 -30z" />
    <glyph glyph-name="Uogonek" unicode="&#x172;" horiz-adv-x="678" 
d="M406 -196q-36 0 -57.5 21t-21.5 57q0 31 15 58.5t47 54.5q-11 -2 -25.5 -3.5t-24.5 -1.5q-113 0 -178.5 73t-65.5 197v425h52v-423q0 -106 50.5 -164.5t141.5 -58.5t141.5 58.5t50.5 164.5v423h52v-425q0 -72 -22 -126t-66 -92q-6 -5 -33.5 -28t-41.5 -37
q-24 -23 -34.5 -43.5t-10.5 -41.5q0 -20 10.5 -32t28.5 -12q9 0 16 1.5t14 4.5l13 -40q-11 -5 -24 -7.5t-27 -2.5z" />
    <glyph glyph-name="uogonek" unicode="&#x173;" horiz-adv-x="534" 
d="M437 -146l13 -40q-11 -5 -24 -7.5t-27 -2.5q-36 0 -57.5 21t-21.5 57q0 35 20 67.5t57 58.5l5 4l-7 56q-29 -37 -68.5 -57.5t-82.5 -20.5q-78 0 -120.5 47t-42.5 134v269h50v-266q0 -66 31 -102t87 -36q41 0 79 25t66 71v308h50v-440q-37 -25 -56.5 -52.5t-19.5 -55.5
q0 -20 10.5 -32t28.5 -12q9 0 16 1.5t14 4.5z" />
    <glyph glyph-name="Wcircumflex" unicode="&#x174;" horiz-adv-x="948" 
d="M660 0h-51l-135 347l-135 -347h-51l-263 685h55l237 -619l132 344l-107 275h54l80 -212l80 212h50l-105 -269l135 -348l234 617h53zM474 905l144 -119l-26 -32l-119 90l-117 -90l-26 32z" />
    <glyph glyph-name="wcircumflex" unicode="&#x175;" horiz-adv-x="737" 
d="M515 0h-50l-96 213l-97 -213h-50l-200 440h54l173 -380l92 203l-80 177h54l57 -125l56 125h50l-80 -174l94 -205l172 379h51zM367 660l144 -119l-26 -32l-119 90l-117 -90l-26 32z" />
    <glyph glyph-name="Ycircumflex" unicode="&#x176;" horiz-adv-x="569" 
d="M494 685h55l-238 -382v-303h-52v303l-239 382h58l208 -333zM281 905l144 -119l-26 -32l-119 90l-117 -90l-26 32z" />
    <glyph glyph-name="ycircumflex" unicode="&#x177;" horiz-adv-x="540" 
d="M478 0q0 -91 -63 -150.5t-159 -59.5q-55 0 -105 18t-94 54l28 37q40 -32 82.5 -48t88.5 -16q75 0 123.5 46.5t48.5 118.5q0 28 -6 52.5t-18 47.5q-32 -43 -75 -66.5t-89 -23.5q-78 0 -120.5 47.5t-42.5 133.5v249h50v-246q0 -66 31 -102t87 -36q41 0 79 25.5t66 71.5v287
h50v-304l10 -21q13 -27 20.5 -57.5t7.5 -57.5zM260 660l144 -119l-26 -32l-119 90l-117 -90l-26 32z" />
    <glyph glyph-name="Ydieresis" unicode="&#x178;" horiz-adv-x="569" 
d="M494 685h55l-238 -382v-303h-52v303l-239 382h58l208 -333zM239 833q0 -16 -11.5 -27.5t-27.5 -11.5t-27.5 11.5t-11.5 27.5t11.5 27.5t27.5 11.5t27.5 -11.5t11.5 -27.5zM407 833q0 -16 -11.5 -27.5t-27.5 -11.5t-27.5 11.5t-11.5 27.5t11.5 27.5t27.5 11.5t27.5 -11.5
t11.5 -27.5z" />
    <glyph glyph-name="Zacute" unicode="&#x179;" horiz-adv-x="554" 
d="M110 47h399v-47h-464v37l389 601h-376v47h441v-37zM227 755l-22 31l154 121l32 -46z" />
    <glyph glyph-name="zacute" unicode="&#x17a;" horiz-adv-x="429" 
d="M104 45h285v-45h-349v35l275 360h-265v45h329v-35zM163 510l-22 31l154 121l32 -46z" />
    <glyph glyph-name="Zdotaccent" unicode="&#x17b;" horiz-adv-x="554" 
d="M110 47h399v-47h-464v37l389 601h-376v47h441v-37zM321 833q0 -18 -13 -31t-31 -13t-31 13t-13 31t13 31t31 13t31 -13t13 -31z" />
    <glyph glyph-name="zdotaccent" unicode="&#x17c;" horiz-adv-x="429" 
d="M104 45h285v-45h-349v35l275 360h-265v45h329v-35zM254 588q0 -18 -13 -31t-31 -13t-31 13t-13 31t13 31t31 13t31 -13t13 -31z" />
    <glyph glyph-name="Zcaron" unicode="&#x17d;" horiz-adv-x="554" 
d="M110 47h399v-47h-464v37l389 601h-376v47h441v-37zM395 905l26 -32l-144 -119l-144 119l26 32l119 -90z" />
    <glyph glyph-name="zcaron" unicode="&#x17e;" horiz-adv-x="429" 
d="M104 45h285v-45h-349v35l275 360h-265v45h329v-35zM332 660l26 -32l-144 -119l-144 119l26 32l119 -90z" />
    <glyph glyph-name="uni0191" unicode="&#x191;" horiz-adv-x="503" 
d="M31 -165q36 0 57.5 28.5t21.5 77.5v744h348v-47h-296v-278h276v-47h-276v-377q0 -65 -36 -105.5t-95 -40.5q-29 0 -57.5 12t-50.5 33l31 34q18 -16 38.5 -25t38.5 -9z" />
    <glyph glyph-name="uni0192" unicode="&#x192;" horiz-adv-x="341" 
d="M324 440v-45h-158v-459q0 -65 -35.5 -105.5t-93.5 -40.5q-29 0 -57.5 12t-50.5 33l31 34q18 -16 38.5 -25t38.5 -9q36 0 57.5 28.5t21.5 77.5v454h-96v40l92 5l-5 14q-15 38 -21 63.5t-6 45.5q0 69 41 110.5t109 41.5q33 0 65.5 -13t58.5 -37l-30 -33q-19 17 -44.5 27.5
t-49.5 10.5q-44 0 -72 -30t-28 -77q0 -19 6 -43t21 -66l5 -14h162z" />
    <glyph glyph-name="uni0218" unicode="&#x218;" horiz-adv-x="566" 
d="M291 646q-69 0 -110.5 -33.5t-41.5 -90.5q0 -35 16.5 -61t52.5 -46q19 -11 45.5 -21.5t80.5 -28.5q94 -31 136 -76.5t42 -111.5q0 -81 -59.5 -134t-149.5 -53q-76 0 -139 29t-115 87l34 39q48 -54 102 -80t118 -26q68 0 112.5 39t44.5 99q0 48 -33 80.5t-124 62.5
q-64 21 -94.5 35t-52.5 30q-35 25 -52 59t-17 78q0 78 56.5 125.5t147.5 47.5q58 0 108 -22t96 -67l-33 -38q-44 40 -85 59t-86 19zM287 -59q16 0 28 -13t12 -30q0 -8 -2 -16.5t-5 -15.5l-48 -101h-37l35 100q-12 7 -18.5 16t-6.5 20q0 16 12.5 28t29.5 12z" />
    <glyph glyph-name="uni0219" unicode="&#x219;" horiz-adv-x="408" 
d="M65 334q0 52 38 84t99 32q38 0 73 -13.5t64 -39.5l-32 -38q-22 21 -49.5 33t-55.5 12q-42 0 -64.5 -18t-22.5 -51q0 -30 23 -50t94 -41q68 -20 97 -50.5t29 -75.5q0 -56 -43 -92t-112 -36q-46 0 -84.5 17t-73.5 52l33 37q30 -32 59.5 -46t65.5 -14q48 0 76.5 22.5
t28.5 59.5q0 28 -19.5 46t-82.5 38q-83 27 -112 56.5t-29 75.5zM202 -59q16 0 28 -13t12 -30q0 -8 -2 -16.5t-5 -15.5l-48 -101h-37l35 100q-12 7 -18.5 16t-6.5 20q0 16 12.5 28t29.5 12z" />
    <glyph glyph-name="uni021A" unicode="&#x21a;" horiz-adv-x="528" 
d="M238 638h-218v47h488v-47h-218v-638h-52v638zM263 -59q16 0 28 -13t12 -30q0 -8 -2 -16.5t-5 -15.5l-48 -101h-37l35 100q-12 7 -18.5 16t-6.5 20q0 16 12.5 28t29.5 12z" />
    <glyph glyph-name="uni021B" unicode="&#x21b;" horiz-adv-x="387" 
d="M122 395h-96v40l96 5h1l9 124h40v-124h162v-45h-162v-267q0 -43 20.5 -68t55.5 -25q21 0 42 10.5t40 30.5l29 -31q-25 -27 -53.5 -41t-59.5 -14q-57 0 -90.5 37.5t-33.5 100.5v267zM204 -59q16 0 28 -13t12 -30q0 -8 -2 -16.5t-5 -15.5l-48 -101h-37l35 100
q-12 7 -18.5 16t-6.5 20q0 16 12.5 28t29.5 12z" />
    <glyph glyph-name="dotlessj" unicode="&#x237;" horiz-adv-x="230" 
d="M11 -165q36 0 57.5 28.5t21.5 77.5v499h50v-504q0 -65 -35.5 -105.5t-93.5 -40.5q-29 0 -57.5 12t-50.5 33l31 34q18 -16 38.5 -25t38.5 -9z" />
    <glyph glyph-name="circumflex" unicode="&#x2c6;" horiz-adv-x="500" 
d="M250 660l144 -119l-26 -32l-119 90l-117 -90l-26 32z" />
    <glyph glyph-name="caron" unicode="&#x2c7;" horiz-adv-x="500" 
d="M368 660l26 -32l-144 -119l-144 119l26 32l119 -90z" />
    <glyph glyph-name="breve" unicode="&#x2d8;" horiz-adv-x="500" 
d="M250 552q33 0 50 20.5t17 58.5v12h48v-22q0 -50 -32 -81t-83 -31q-50 0 -82.5 32t-32.5 82v20h48v-10q0 -38 17.5 -59.5t49.5 -21.5z" />
    <glyph glyph-name="dotaccent" unicode="&#x2d9;" horiz-adv-x="500" 
d="M294 588q0 -18 -13 -31t-31 -13t-31 13t-13 31t13 31t31 13t31 -13t13 -31z" />
    <glyph glyph-name="ring" unicode="&#x2da;" horiz-adv-x="500" 
d="M154 588q0 38 28 65.5t68 27.5t68 -27.5t28 -65.5t-28 -65.5t-68 -27.5t-68 27.5t-28 65.5zM303 588q0 23 -15.5 39t-37.5 16t-37.5 -16t-15.5 -39t15.5 -39t37.5 -16t37.5 16t15.5 39z" />
    <glyph glyph-name="ogonek" unicode="&#x2db;" horiz-adv-x="500" 
d="M178 -118q0 35 19 66t55 56l50 -4q-37 -25 -56.5 -52.5t-19.5 -55.5q0 -20 10.5 -32t28.5 -12q9 0 16 1.5t14 4.5l13 -40q-11 -5 -24 -7.5t-27 -2.5q-36 0 -57.5 21t-21.5 57z" />
    <glyph glyph-name="tilde" unicode="&#x2dc;" horiz-adv-x="500" 
d="M304 538q-14 0 -28 5.5t-39 21.5q-18 12 -26 15.5t-15 3.5q-15 0 -25 -9.5t-19 -33.5l-38 18q14 35 34 53t47 18q13 0 26.5 -5t37.5 -21q19 -13 28 -16.5t16 -3.5q13 0 22 10.5t21 39.5l38 -16q-16 -40 -36 -60t-44 -20z" />
    <glyph glyph-name="hungarumlaut" unicode="&#x2dd;" horiz-adv-x="500" 
d="M128 508l-27 22l106 159l43 -30zM282 508l-27 22l106 159l43 -30z" />
    <glyph glyph-name="pi" unicode="&#x3c0;" horiz-adv-x="627" 
d="M150 393h-120v47h542v-47h-120v-297q0 -29 13.5 -45t37.5 -16q14 0 28 6.5t26 19.5l30 -33q-17 -19 -39 -28.5t-47 -9.5q-48 0 -74.5 28t-26.5 78v297h-198v-393h-52v393z" />
    <glyph glyph-name="uni0400" unicode="&#x400;" horiz-adv-x="568" 
d="M508 0h-398v685h398v-47h-346v-258h326v-47h-326v-286h346v-47zM224 907l154 -121l-22 -31l-164 106z" />
    <glyph glyph-name="afii10023" unicode="&#x401;" horiz-adv-x="568" 
d="M508 0h-398v685h398v-47h-346v-258h326v-47h-326v-286h346v-47zM239 833q0 -16 -11.5 -27.5t-27.5 -11.5t-27.5 11.5t-11.5 27.5t11.5 27.5t27.5 11.5t27.5 -11.5t11.5 -27.5zM407 833q0 -16 -11.5 -27.5t-27.5 -11.5t-27.5 11.5t-11.5 27.5t11.5 27.5t27.5 11.5
t27.5 -11.5t11.5 -27.5z" />
    <glyph glyph-name="afii10051" unicode="&#x402;" horiz-adv-x="737" 
d="M475 450q85 0 132.5 -53t47.5 -148v-167q0 -72 -41.5 -113.5t-115.5 -41.5q-28 0 -50.5 8.5t-49.5 30.5l31 34q15 -15 31 -21.5t35 -6.5q50 0 79 29.5t29 80.5v164q0 74 -35.5 116t-97.5 42q-51 0 -100 -27t-80 -74v-303h-52v638h-218v47h488v-47h-218v-270
q32 38 81.5 60t103.5 22z" />
    <glyph glyph-name="afii10052" unicode="&#x403;" horiz-adv-x="498" 
d="M162 0h-52v685h368v-47h-316v-638zM240 755l-22 31l154 121l32 -46z" />
    <glyph glyph-name="afii10053" unicode="&#x404;" horiz-adv-x="674" 
d="M605 139l36 -37q-54 -56 -115.5 -84t-130.5 -28q-142 0 -237.5 101t-95.5 251q0 151 95.5 252t237.5 101q67 0 127 -26t110 -76l-35 -36q-43 44 -94.5 66.5t-107.5 22.5q-110 0 -187.5 -74.5t-89.5 -191.5h430v-47h-432q3 -125 83.5 -209.5t195.5 -84.5q59 0 113 25.5
t97 74.5z" />
    <glyph glyph-name="afii10054" unicode="&#x405;" horiz-adv-x="566" 
d="M291 646q-69 0 -110.5 -33.5t-41.5 -90.5q0 -35 16.5 -61t52.5 -46q19 -11 45.5 -21.5t80.5 -28.5q94 -31 136 -76.5t42 -111.5q0 -81 -59.5 -134t-149.5 -53q-76 0 -139 29t-115 87l34 39q48 -54 102 -80t118 -26q68 0 112.5 39t44.5 99q0 48 -33 80.5t-124 62.5
q-64 21 -94.5 35t-52.5 30q-35 25 -52 59t-17 78q0 78 56.5 125.5t147.5 47.5q58 0 108 -22t96 -67l-33 -38q-44 40 -85 59t-86 19z" />
    <glyph glyph-name="afii10055" unicode="&#x406;" horiz-adv-x="272" 
d="M162 0h-52v685h52v-685z" />
    <glyph glyph-name="afii10056" unicode="&#x407;" horiz-adv-x="272" 
d="M162 0h-52v685h52v-685zM91 833q0 -16 -11.5 -27.5t-27.5 -11.5t-27.5 11.5t-11.5 27.5t11.5 27.5t27.5 11.5t27.5 -11.5t11.5 -27.5zM259 833q0 -16 -11.5 -27.5t-27.5 -11.5t-27.5 11.5t-11.5 27.5t11.5 27.5t27.5 11.5t27.5 -11.5t11.5 -27.5z" />
    <glyph glyph-name="afii10057" unicode="&#x408;" horiz-adv-x="450" 
d="M187 -10q-47 0 -88 19t-74 56l35 35q26 -30 59 -45.5t68 -15.5q55 0 85.5 37t30.5 105v504h52v-504q0 -91 -44.5 -141t-123.5 -50z" />
    <glyph glyph-name="afii10058" unicode="&#x409;" horiz-adv-x="946" 
d="M916 192q0 -90 -64.5 -141t-173.5 -51h-121l-240 619l-239 -619h-53l268 685h51l118 -301h216q109 0 173.5 -51t64.5 -141zM862 192q0 69 -48 107t-131 38h-203l114 -290h89q83 0 131 38t48 107z" />
    <glyph glyph-name="afii10059" unicode="&#x40a;" horiz-adv-x="1049" 
d="M570 333h-408v-333h-52v685h52v-305h408v305h52v-301h159q109 0 173.5 -51t64.5 -141t-64.5 -141t-173.5 -51h-211v333zM965 192q0 69 -48 107t-131 38h-164v-290h164q83 0 131 38t48 107z" />
    <glyph glyph-name="afii10060" unicode="&#x40b;" horiz-adv-x="717" 
d="M450 404q-45 0 -88 -26.5t-72 -73.5v-304h-52v638h-218v47h488v-47h-218v-270q30 39 74 60.5t91 21.5q86 0 133 -50t47 -141v-259h-52v256q0 69 -35.5 108.5t-97.5 39.5z" />
    <glyph glyph-name="afii10061" unicode="&#x40c;" horiz-adv-x="622" 
d="M212 327h-50v-327h-52v685h52v-311h50q67 0 99.5 19t83.5 101l119 191h57l-119 -191q-35 -56 -58.5 -85t-45.5 -46l248 -363h-63l-230 338q-18 -6 -40 -8.5t-51 -2.5zM270 755l-22 31l154 121l32 -46z" />
    <glyph glyph-name="uni040D" unicode="&#x40d;" horiz-adv-x="719" 
d="M609 0h-49v609l-398 -609h-52v685h49v-609l398 609h52v-685zM294 907l154 -121l-22 -31l-164 106z" />
    <glyph glyph-name="afii10062" unicode="&#x40e;" horiz-adv-x="603" 
d="M519 685h53l-306 -685h-53l73 163l-255 522h58l224 -461zM313 754q-63 0 -104 35t-41 89v20h48v-20q0 -38 25.5 -59.5t71.5 -21.5q47 0 72 20.5t25 58.5v22h48v-22q0 -54 -41 -88t-104 -34z" />
    <glyph glyph-name="afii10145" unicode="&#x40f;" horiz-adv-x="722" 
d="M612 685v-685h-225v-170h-52v170h-225v685h52v-638h398v638h52z" />
    <glyph glyph-name="afii10017" unicode="&#x410;" horiz-adv-x="667" 
d="M642 0h-55l-86 209h-338l-85 -209h-53l283 685h51zM332 621l-149 -365h299z" />
    <glyph glyph-name="afii10018" unicode="&#x411;" horiz-adv-x="594" 
d="M291 0h-181v685h368v-47h-316v-254h129q109 0 173.5 -51t64.5 -141t-64.5 -141t-173.5 -51zM475 192q0 69 -48 107t-131 38h-134v-290h134q83 0 131 38t48 107z" />
    <glyph glyph-name="afii10019" unicode="&#x412;" horiz-adv-x="609" 
d="M287 0h-177v685h177q105 0 163.5 -46.5t58.5 -129.5q0 -51 -27.5 -90t-77.5 -60q65 -20 100 -64t35 -105q0 -88 -68 -139t-184 -51zM455 509q0 59 -44 94t-119 35h-130v-258h130q75 0 119 35t44 94zM485 190q0 68 -50.5 105.5t-142.5 37.5h-130v-286h130q92 0 142.5 37.5
t50.5 105.5z" />
    <glyph glyph-name="afii10020" unicode="&#x413;" horiz-adv-x="498" 
d="M162 0h-52v685h368v-47h-316v-638z" />
    <glyph glyph-name="afii10021" unicode="&#x414;" horiz-adv-x="713" 
d="M331 685h51l251 -638h55v-217h-52v170h-559v-170h-52v217h55zM355 620l-223 -573h447z" />
    <glyph glyph-name="afii10022" unicode="&#x415;" horiz-adv-x="568" 
d="M508 0h-398v685h398v-47h-346v-258h326v-47h-326v-286h346v-47z" />
    <glyph glyph-name="afii10024" unicode="&#x416;" horiz-adv-x="932" 
d="M440 327h-20q-25 0 -44 2t-34 6l-253 -335h-64l269 356q-24 16 -49 45.5t-66 92.5l-124 191h58l123 -191q53 -82 86 -101t98 -19h20v311h52v-311h20q65 0 98 19t86 101l123 191h58l-124 -191q-39 -61 -64.5 -91t-50.5 -47l269 -356h-64l-253 335q-15 -4 -34 -6t-44 -2
h-20v-327h-52v327z" />
    <glyph glyph-name="afii10025" unicode="&#x417;" horiz-adv-x="611" 
d="M487 188q0 69 -54.5 110t-140.5 41h-104v47h104q72 0 118.5 36t46.5 95t-42.5 94t-110.5 35q-57 0 -108 -24.5t-90 -69.5l-33 33q44 53 103.5 81.5t127.5 28.5q91 0 149 -48.5t58 -129.5q0 -55 -32 -94.5t-91 -58.5q73 -20 113 -65.5t40 -110.5q0 -90 -66.5 -144
t-170.5 -54q-73 0 -135.5 28.5t-106.5 81.5l37 34q38 -46 91 -70.5t114 -24.5q81 0 132 40.5t51 108.5z" />
    <glyph glyph-name="afii10026" unicode="&#x418;" horiz-adv-x="719" 
d="M609 0h-49v609l-398 -609h-52v685h49v-609l398 609h52v-685z" />
    <glyph glyph-name="afii10027" unicode="&#x419;" horiz-adv-x="719" 
d="M609 0h-49v609l-398 -609h-52v685h49v-609l398 609h52v-685zM370 754q-63 0 -104 35t-41 89v20h48v-20q0 -38 25.5 -59.5t71.5 -21.5q47 0 72 20.5t25 58.5v22h48v-22q0 -54 -41 -88t-104 -34z" />
    <glyph glyph-name="afii10028" unicode="&#x41a;" horiz-adv-x="622" 
d="M212 327h-50v-327h-52v685h52v-311h50q67 0 99.5 19t83.5 101l119 191h57l-119 -191q-35 -56 -58.5 -85t-45.5 -46l248 -363h-63l-230 338q-18 -6 -40 -8.5t-51 -2.5z" />
    <glyph glyph-name="afii10029" unicode="&#x41b;" horiz-adv-x="637" 
d="M612 0h-55l-240 619l-239 -619h-53l268 685h51z" />
    <glyph glyph-name="afii10030" unicode="&#x41c;" horiz-adv-x="938" 
d="M493 0h-50l-224 595l-85 -595h-50l102 685h50l235 -620l231 620h50l102 -685h-52l-87 591z" />
    <glyph glyph-name="afii10031" unicode="&#x41d;" horiz-adv-x="732" 
d="M622 0h-52v333h-408v-333h-52v685h52v-305h408v305h52v-685z" />
    <glyph glyph-name="afii10032" unicode="&#x41e;" horiz-adv-x="790" 
d="M62 342q0 151 95.5 252t237.5 101t237.5 -101t95.5 -252q0 -150 -95.5 -251t-237.5 -101t-237.5 101t-95.5 251zM674 342q0 131 -79.5 217.5t-199.5 86.5t-199.5 -86.5t-79.5 -217.5q0 -130 79.5 -216.5t199.5 -86.5t199.5 86.5t79.5 216.5z" />
    <glyph glyph-name="afii10033" unicode="&#x41f;" horiz-adv-x="727" 
d="M162 0h-52v685h507v-685h-52v638h-403v-638z" />
    <glyph glyph-name="afii10034" unicode="&#x420;" horiz-adv-x="579" 
d="M162 0h-52v685h177q116 0 179 -52.5t63 -150.5q0 -93 -65 -147.5t-177 -54.5h-125v-280zM475 482q0 75 -48 115.5t-135 40.5h-130v-311h130q88 0 135.5 40t47.5 115z" />
    <glyph glyph-name="afii10035" unicode="&#x421;" horiz-adv-x="674" 
d="M116 342q0 -128 81 -215.5t198 -87.5q59 0 113 25.5t97 74.5l36 -37q-54 -56 -115.5 -84t-130.5 -28q-142 0 -237.5 101t-95.5 251q0 151 95.5 252t237.5 101q67 0 127 -26t110 -76l-35 -36q-43 44 -94.5 66.5t-107.5 22.5q-120 0 -199.5 -86.5t-79.5 -217.5z" />
    <glyph glyph-name="afii10036" unicode="&#x422;" horiz-adv-x="528" 
d="M238 638h-218v47h488v-47h-218v-638h-52v638z" />
    <glyph glyph-name="afii10037" unicode="&#x423;" horiz-adv-x="603" 
d="M519 685h53l-306 -685h-53l73 163l-255 522h58l224 -461z" />
    <glyph glyph-name="afii10038" unicode="&#x424;" horiz-adv-x="824" 
d="M769 357q0 -123 -89.5 -200t-231.5 -77h-10v-80h-52v80h-10q-141 0 -231 77t-90 200t90 200t231 77h10v71h52v-71h10q141 0 231 -77t90 -200zM715 357q0 101 -74.5 164.5t-192.5 63.5h-10v-456h10q118 0 192.5 63t74.5 165zM109 357q0 -101 74.5 -164.5t192.5 -63.5h10
v456h-10q-118 0 -192.5 -63.5t-74.5 -164.5z" />
    <glyph glyph-name="afii10039" unicode="&#x425;" horiz-adv-x="611" 
d="M581 0h-64l-216 310l-213 -310h-58l242 352l-231 333h64l205 -295l202 295h58l-231 -336z" />
    <glyph glyph-name="afii10040" unicode="&#x426;" horiz-adv-x="722" 
d="M560 685h52v-638h100v-217h-52v170h-550v685h52v-638h398v638z" />
    <glyph glyph-name="afii10041" unicode="&#x427;" horiz-adv-x="684" 
d="M523 685h51v-685h-51v347q-39 -44 -93.5 -68t-115.5 -24q-102 0 -163 63t-61 172v195h52v-195q0 -88 46.5 -138.5t125.5 -50.5q64 0 119 29.5t90 81.5v273z" />
    <glyph glyph-name="afii10042" unicode="&#x428;" horiz-adv-x="912" 
d="M750 685h52v-685h-692v685h52v-638h268v638h52v-638h268v638z" />
    <glyph glyph-name="afii10043" unicode="&#x429;" horiz-adv-x="912" 
d="M750 685h52v-638h100v-217h-52v170h-740v685h52v-638h268v638h52v-638h268v638z" />
    <glyph glyph-name="afii10044" unicode="&#x42a;" horiz-adv-x="667" 
d="M188 638h-168v47h220v-301h159q109 0 173.5 -51t64.5 -141t-64.5 -141t-173.5 -51h-211v638zM583 192q0 69 -48 107t-131 38h-164v-290h164q83 0 131 38t48 107z" />
    <glyph glyph-name="afii10045" unicode="&#x42b;" horiz-adv-x="855" 
d="M745 2h-52v685h52v-685zM559 192q0 -90 -64.5 -141t-173.5 -51h-211v685h52v-301h159q109 0 173.5 -51t64.5 -141zM505 192q0 69 -48 107t-131 38h-164v-290h164q83 0 131 38t48 107z" />
    <glyph glyph-name="afii10046" unicode="&#x42c;" horiz-adv-x="589" 
d="M559 192q0 -90 -64.5 -141t-173.5 -51h-211v685h52v-301h159q109 0 173.5 -51t64.5 -141zM505 192q0 69 -48 107t-131 38h-164v-290h164q83 0 131 38t48 107z" />
    <glyph glyph-name="afii10047" unicode="&#x42d;" horiz-adv-x="681" 
d="M308 695q142 0 237.5 -101t95.5 -252q0 -150 -95.5 -251t-237.5 -101q-69 0 -130.5 28t-115.5 84l36 37q43 -49 97 -74.5t113 -25.5q112 0 191.5 80.5t86.5 201.5h-399v47h399q-8 121 -86.5 199.5t-191.5 78.5q-56 0 -107.5 -22.5t-94.5 -66.5l-35 36q50 50 110 76
t127 26z" />
    <glyph glyph-name="afii10048" unicode="&#x42e;" horiz-adv-x="1057" 
d="M662 695q142 0 237.5 -101t95.5 -252q0 -150 -95.5 -251t-237.5 -101q-137 0 -231 94t-101 237h-168v-321h-52v685h52v-317h168q9 142 102.5 234.5t229.5 92.5zM941 342q0 131 -79.5 217.5t-199.5 86.5t-199.5 -86.5t-79.5 -217.5q0 -130 79.5 -216.5t199.5 -86.5
t199.5 86.5t79.5 216.5z" />
    <glyph glyph-name="afii10049" unicode="&#x42f;" horiz-adv-x="636" 
d="M90 497q0 85 58.5 136.5t155.5 51.5h222v-685h-52v309h-161l-203 -309h-60l204 311q-71 11 -117.5 62.5t-46.5 123.5zM144 497q0 -64 42.5 -102.5t112.5 -38.5h175v282h-175q-70 0 -112.5 -38.5t-42.5 -102.5z" />
    <glyph glyph-name="afii10065" unicode="&#x430;" horiz-adv-x="582" 
d="M492 0h-40l-8 74q-29 -40 -72 -62t-93 -22q-95 0 -159 66.5t-64 163.5q0 98 64 164t159 66q50 0 93 -22t72 -62l8 74h40v-440zM108 220q0 -78 49 -131t122 -53q72 0 121.5 53t49.5 131t-49.5 131t-121.5 53q-73 0 -122 -53t-49 -131z" />
    <glyph glyph-name="afii10066" unicode="&#x431;" horiz-adv-x="558" 
d="M279 450q95 0 158.5 -65.5t63.5 -164.5t-63.5 -164.5t-158.5 -65.5t-158.5 65.5t-63.5 164.5q0 35 8 66t24 56q-16 35 -22.5 64t-6.5 63q0 70 46.5 118t138.5 73l207 55l12 -44l-207 -55q-76 -20 -110.5 -55t-34.5 -92q0 -20 3.5 -39.5t10.5 -39.5q31 29 70 44.5t83 15.5
zM109 220q0 -80 48.5 -132t121.5 -52t121.5 52t48.5 132t-48.5 132t-121.5 52t-121.5 -52t-48.5 -132z" />
    <glyph glyph-name="afii10067" unicode="&#x432;" horiz-adv-x="538" 
d="M283 0h-193v440h203q76 0 118 -30t42 -86q0 -34 -15.5 -58t-47.5 -38q42 -13 62.5 -39.5t20.5 -66.5q0 -60 -48.5 -91t-141.5 -31zM401 321q0 36 -24 55t-69 19h-170v-148h170q44 0 68.5 19t24.5 55zM421 123q0 40 -28 59.5t-85 19.5h-170v-157h170q57 0 85 19.5t28 58.5
z" />
    <glyph glyph-name="afii10068" unicode="&#x433;" horiz-adv-x="413" 
d="M140 0h-50v440h293v-45h-243v-395z" />
    <glyph glyph-name="afii10069" unicode="&#x434;" horiz-adv-x="532" 
d="M70 -150h-50v195h47l175 395h50l175 -395h45v-195h-50v150h-392v-150zM266 389l-150 -344h300z" />
    <glyph glyph-name="afii10070" unicode="&#x435;" horiz-adv-x="529" 
d="M416 91l33 -33q-34 -35 -74.5 -51.5t-91.5 -16.5q-97 0 -161.5 65.5t-64.5 164.5q0 98 62 164t154 66q89 0 147.5 -65.5t58.5 -164.5v-8.5t-1 -7.5h-370q5 -73 54 -120.5t121 -47.5q39 0 72.5 14t60.5 41zM273 404q-64 0 -109.5 -43.5t-54.5 -111.5h318q-8 69 -51 112
t-103 43z" />
    <glyph glyph-name="afii10072" unicode="&#x436;" horiz-adv-x="722" 
d="M336 211h-48q-9 0 -17 1l-16 2l-159 -214h-61l173 233q-14 10 -29 26.5t-62 84.5l-67 96h56l67 -96q43 -62 63.5 -75t51.5 -13h48v184h50v-184h48q31 0 51.5 13t63.5 75l67 96h56l-67 -96q-47 -68 -62 -84.5t-29 -26.5l173 -233h-61l-159 214q-7 -1 -15.5 -2t-17.5 -1
h-48v-211h-50v211z" />
    <glyph glyph-name="afii10073" unicode="&#x437;" horiz-adv-x="506" 
d="M389 121q0 41 -41 62t-119 21h-72v45h72q66 0 105 20.5t39 57.5q0 35 -34.5 56t-89.5 21q-42 0 -80.5 -14t-68.5 -40l-31 33q37 33 82.5 50t97.5 17q77 0 125.5 -33t48.5 -90q0 -34 -23 -59t-65 -39q52 -13 79 -40.5t27 -67.5q0 -60 -52.5 -95.5t-135.5 -35.5
q-61 0 -111.5 19t-86.5 55l34 33q29 -30 71 -45.5t93 -15.5q62 0 99 22.5t37 62.5z" />
    <glyph glyph-name="afii10074" unicode="&#x438;" horiz-adv-x="551" 
d="M461 0h-48v370l-275 -370h-48v440h48v-371l275 371h48v-440z" />
    <glyph glyph-name="afii10075" unicode="&#x439;" horiz-adv-x="551" 
d="M461 0h-48v370l-275 -370h-48v440h48v-371l275 371h48v-440zM280 509q-63 0 -104 35t-41 89v20h48v-20q0 -38 25.5 -59.5t71.5 -21.5q47 0 72 20.5t25 58.5v22h48v-22q0 -54 -41 -88t-104 -34z" />
    <glyph glyph-name="afii10076" unicode="&#x43a;" horiz-adv-x="506" 
d="M194 211h-54v-211h-50v440h50v-184h54q42 0 75 20.5t66 67.5l67 96h56l-67 -96q-30 -43 -52 -67t-44 -39l186 -238h-62l-171 217q-12 -3 -25.5 -4.5t-28.5 -1.5z" />
    <glyph glyph-name="afii10077" unicode="&#x43b;" horiz-adv-x="472" 
d="M452 0h-52l-166 387l-164 -387h-50l191 440h50z" />
    <glyph glyph-name="afii10078" unicode="&#x43c;" horiz-adv-x="709" 
d="M379 0h-51l-147 378l-92 -378h-49l113 440h49l152 -384l152 384h50l113 -440h-50l-94 378z" />
    <glyph glyph-name="afii10079" unicode="&#x43d;" horiz-adv-x="547" 
d="M457 0h-50v206h-267v-206h-50v440h50v-189h267v189h50v-440z" />
    <glyph glyph-name="afii10080" unicode="&#x43e;" horiz-adv-x="558" 
d="M501 220q0 -99 -63 -164.5t-159 -65.5t-159 65.5t-63 164.5t63 164.5t159 65.5t159 -65.5t63 -164.5zM109 220q0 -79 48.5 -131.5t121.5 -52.5t121.5 52.5t48.5 131.5t-48 131.5t-122 52.5t-122 -52.5t-48 -131.5z" />
    <glyph glyph-name="afii10081" unicode="&#x43f;" horiz-adv-x="550" 
d="M140 0h-50v440h370v-440h-50v395h-270v-395z" />
    <glyph glyph-name="afii10082" unicode="&#x440;" horiz-adv-x="582" 
d="M526 220q0 -98 -64 -164t-159 -66q-49 0 -91.5 21t-71.5 60v-271h-50v640h40l8 -74q29 40 72 62t93 22q95 0 159 -66.5t64 -163.5zM303 404q-72 0 -121.5 -53t-49.5 -131t49.5 -131t121.5 -53q73 0 122 53t49 131t-49 131t-122 53z" />
    <glyph glyph-name="afii10083" unicode="&#x441;" horiz-adv-x="481" 
d="M108 220q0 -79 49.5 -131.5t124.5 -52.5q37 0 71 15t63 44l32 -34q-35 -36 -76.5 -53.5t-89.5 -17.5q-97 0 -161.5 65.5t-64.5 164.5t64.5 164.5t161.5 65.5q45 0 84 -15t72 -46l-32 -34q-28 25 -58.5 37t-65.5 12q-75 0 -124.5 -52.5t-49.5 -131.5z" />
    <glyph glyph-name="afii10084" unicode="&#x442;" horiz-adv-x="467" 
d="M208 395h-178v45h407v-45h-179v-395h-50v395z" />
    <glyph glyph-name="afii10085" unicode="&#x443;" horiz-adv-x="540" 
d="M478 0q0 -91 -63 -150.5t-159 -59.5q-55 0 -105 18t-94 54l28 37q40 -32 82.5 -48t88.5 -16q75 0 123.5 46.5t48.5 118.5q0 28 -6 52.5t-18 47.5q-32 -43 -75 -66.5t-89 -23.5q-78 0 -120.5 47.5t-42.5 133.5v249h50v-246q0 -66 31 -102t87 -36q41 0 79 25.5t66 71.5v287
h50v-304l10 -21q13 -27 20.5 -57.5t7.5 -57.5z" />
    <glyph glyph-name="afii10086" unicode="&#x444;" horiz-adv-x="670" 
d="M613 220q0 -103 -70 -166.5t-179 -63.5h-5v-190h-48v190h-5q-109 0 -179 63.5t-70 166.5t70 166.5t179 63.5h5v193h48v-193h5q109 0 179 -63.5t70 -166.5zM563 220q0 81 -56 132t-143 51h-5v-366h5q87 0 143 51t56 132zM107 220q0 -81 56 -132t143 -51h5v366h-5
q-87 0 -143 -51t-56 -132z" />
    <glyph glyph-name="afii10087" unicode="&#x445;" horiz-adv-x="441" 
d="M416 0h-62l-137 188l-137 -188h-55l166 225l-156 215h62l126 -174l128 174h55l-156 -211z" />
    <glyph glyph-name="afii10088" unicode="&#x446;" horiz-adv-x="545" 
d="M405 440h50v-395h75v-195h-50v150h-390v440h50v-395h265v395z" />
    <glyph glyph-name="afii10089" unicode="&#x447;" horiz-adv-x="505" 
d="M365 440h50v-440h-50v212q-30 -28 -64.5 -42.5t-72.5 -14.5q-72 0 -117.5 42.5t-45.5 111.5v131h50v-131q0 -48 31.5 -78t81.5 -30q41 0 76.5 15t60.5 44v180z" />
    <glyph glyph-name="afii10090" unicode="&#x448;" horiz-adv-x="740" 
d="M600 440h50v-440h-560v440h50v-395h205v395h50v-395h205v395z" />
    <glyph glyph-name="afii10091" unicode="&#x449;" horiz-adv-x="740" 
d="M600 440h50v-395h75v-195h-50v150h-585v440h50v-395h205v395h50v-395h205v395z" />
    <glyph glyph-name="afii10092" unicode="&#x44a;" horiz-adv-x="535" 
d="M148 395h-148v45h198v-175h142q77 0 123.5 -35.5t46.5 -97.5q0 -61 -47 -96.5t-123 -35.5h-192v395zM458 132q0 39 -29 63.5t-74 24.5h-157v-175h157q45 0 74 24t29 63z" />
    <glyph glyph-name="afii10093" unicode="&#x44b;" horiz-adv-x="675" 
d="M454 132q0 -61 -47 -96.5t-123 -35.5h-192v440h50v-175h142q77 0 123.5 -35.5t46.5 -97.5zM402 132q0 39 -29 63.5t-74 24.5h-157v-175h157q45 0 74 24t29 63zM535 440h50v-440h-50v440z" />
    <glyph glyph-name="afii10094" unicode="&#x44c;" horiz-adv-x="477" 
d="M452 132q0 -61 -47 -96.5t-123 -35.5h-192v440h50v-175h142q77 0 123.5 -35.5t46.5 -97.5zM400 132q0 39 -29 63.5t-74 24.5h-157v-175h157q45 0 74 24t29 63z" />
    <glyph glyph-name="afii10095" unicode="&#x44d;" horiz-adv-x="519" 
d="M231 450q98 0 164.5 -66t66.5 -164t-66.5 -164t-164.5 -66q-50 0 -93.5 18t-77.5 53l32 34q28 -28 64.5 -43.5t74.5 -15.5q70 0 120.5 47t57.5 118h-263v45h262q-9 69 -58.5 113.5t-118.5 44.5q-36 0 -69 -12.5t-60 -36.5l-32 34q33 30 74 45.5t87 15.5z" />
    <glyph glyph-name="afii10096" unicode="&#x44e;" horiz-adv-x="763" 
d="M484 450q96 0 159 -65.5t63 -164.5t-63 -164.5t-159 -65.5q-91 0 -154 61t-68 155h-122v-206h-50v440h50v-189h124q10 87 71.5 143t148.5 56zM314 220q0 -79 48.5 -131.5t121.5 -52.5t121.5 52.5t48.5 131.5t-48 131.5t-122 52.5t-122 -52.5t-48 -131.5z" />
    <glyph glyph-name="afii10097" unicode="&#x44f;" horiz-adv-x="519" 
d="M68 311q0 60 47 94.5t123 34.5h191v-440h-50v183h-124l-140 -183h-60l144 186q-62 9 -96.5 41.5t-34.5 83.5zM120 311q0 -38 28.5 -60.5t74.5 -22.5h156v167h-156q-45 0 -74 -23t-29 -61z" />
    <glyph glyph-name="uni0450" unicode="&#x450;" horiz-adv-x="529" 
d="M416 91l33 -33q-34 -35 -74.5 -51.5t-91.5 -16.5q-97 0 -161.5 65.5t-64.5 164.5q0 98 62 164t154 66q89 0 147.5 -65.5t58.5 -164.5v-8.5t-1 -7.5h-370q5 -73 54 -120.5t121 -47.5q39 0 72.5 14t60.5 41zM273 404q-64 0 -109.5 -43.5t-54.5 -111.5h318q-8 69 -51 112
t-103 43zM204 662l154 -121l-22 -31l-164 106z" />
    <glyph glyph-name="afii10071" unicode="&#x451;" horiz-adv-x="529" 
d="M416 91l33 -33q-34 -35 -74.5 -51.5t-91.5 -16.5q-97 0 -161.5 65.5t-64.5 164.5q0 98 62 164t154 66q89 0 147.5 -65.5t58.5 -164.5v-8.5t-1 -7.5h-370q5 -73 54 -120.5t121 -47.5q39 0 72.5 14t60.5 41zM273 404q-64 0 -109.5 -43.5t-54.5 -111.5h318q-8 69 -51 112
t-103 43zM223 588q0 -16 -11.5 -27.5t-27.5 -11.5t-27.5 11.5t-11.5 27.5t11.5 27.5t27.5 11.5t27.5 -11.5t11.5 -27.5zM391 588q0 -16 -11.5 -27.5t-27.5 -11.5t-27.5 11.5t-11.5 27.5t11.5 27.5t27.5 11.5t27.5 -11.5t11.5 -27.5z" />
    <glyph glyph-name="afii10099" unicode="&#x452;" horiz-adv-x="545" 
d="M310 310q72 0 112.5 -42.5t40.5 -118.5v-234q0 -56 -32.5 -90.5t-85.5 -34.5q-28 0 -50 8.5t-47 29.5l31 35q15 -15 31 -21.5t35 -6.5q32 0 50 21.5t18 58.5v231q0 54 -30 86t-82 32q-37 0 -74.5 -26.5t-66.5 -72.5v-165h-50v395h-90v45h90v265h50v-265h175v-45h-175
v-166q30 39 69 60t81 21z" />
    <glyph glyph-name="afii10100" unicode="&#x453;" horiz-adv-x="413" 
d="M140 0h-50v440h293v-45h-243v-395zM190 510l-22 31l154 121l32 -46z" />
    <glyph glyph-name="afii10101" unicode="&#x454;" horiz-adv-x="518" 
d="M426 95l32 -34q-34 -35 -77.5 -53t-93.5 -18q-98 0 -164.5 66t-66.5 164t66.5 164t164.5 66q46 0 87 -15.5t74 -45.5l-32 -34q-27 24 -60 36.5t-69 12.5q-69 0 -118.5 -44.5t-58.5 -113.5h262v-45h-263q7 -71 57.5 -118t120.5 -47q38 0 74.5 15.5t64.5 43.5z" />
    <glyph glyph-name="afii10102" unicode="&#x455;" horiz-adv-x="408" 
d="M65 334q0 52 38 84t99 32q38 0 73 -13.5t64 -39.5l-32 -38q-22 21 -49.5 33t-55.5 12q-42 0 -64.5 -18t-22.5 -51q0 -30 23 -50t94 -41q68 -20 97 -50.5t29 -75.5q0 -56 -43 -92t-112 -36q-46 0 -84.5 17t-73.5 52l33 37q30 -32 59.5 -46t65.5 -14q48 0 76.5 22.5
t28.5 59.5q0 28 -19.5 46t-82.5 38q-83 27 -112 56.5t-29 75.5z" />
    <glyph glyph-name="afii10103" unicode="&#x456;" horiz-adv-x="230" 
d="M155 584q0 -16 -11.5 -28t-28.5 -12q-16 0 -28 12t-12 28q0 17 12 28.5t28 11.5q17 0 28.5 -11.5t11.5 -28.5zM90 440h50v-440h-50v440z" />
    <glyph glyph-name="afii10104" unicode="&#x457;" horiz-adv-x="230" 
d="M90 440h50v-440h-50v440zM70 588q0 -16 -11.5 -27.5t-27.5 -11.5t-27.5 11.5t-11.5 27.5t11.5 27.5t27.5 11.5t27.5 -11.5t11.5 -27.5zM238 588q0 -16 -11.5 -27.5t-27.5 -11.5t-27.5 11.5t-11.5 27.5t11.5 27.5t27.5 11.5t27.5 -11.5t11.5 -27.5z" />
    <glyph glyph-name="afii10105" unicode="&#x458;" horiz-adv-x="230" 
d="M155 584q0 -16 -11.5 -28t-28.5 -12q-16 0 -28 12t-12 28q0 17 12 28.5t28 11.5q17 0 28.5 -11.5t11.5 -28.5zM11 -165q36 0 57.5 28.5t21.5 77.5v499h50v-504q0 -65 -35.5 -105.5t-93.5 -40.5q-29 0 -57.5 12t-50.5 33l31 34q18 -16 38.5 -25t38.5 -9z" />
    <glyph glyph-name="afii10106" unicode="&#x459;" horiz-adv-x="716" 
d="M691 131q0 -61 -46.5 -96t-123.5 -35h-121l-166 387l-164 -387h-50l191 440h50l76 -175h184q77 0 123.5 -36t46.5 -98zM639 132q0 39 -29 63.5t-74 24.5h-179l75 -175h104q45 0 74 24t29 63z" />
    </font>
</defs>
</svg>
