<svg width="24" height="24" viewBox="0 0 24 24" xmlns="http://www.w3.org/2000/svg"><title>icons/problem/delivery</title><g fill="none" fill-rule="evenodd"><path d="M15.143 12.432h-.457v-.011H7.629a1.47 1.47 0 0 1 0-2.94h8.236V5.56H7.629a5.396 5.396 0 0 0-5.389 5.39 5.396 5.396 0 0 0 5.389 5.39h.457v.01h7.057a1.471 1.471 0 0 1 0 2.94H2.24v3.92h12.903a5.396 5.396 0 0 0 5.39-5.39 5.396 5.396 0 0 0-5.39-5.39" fill="#FFF"/><path d="M15.865 5.56h-2.153a3.99 3.99 0 0 0-.51 1.958c0 .712.186 1.381.514 1.962h2.149V5.56zM7.63 16.34h.456v.011h7.057c.268 0 .52.073.737.2a1.81 1.81 0 0 0-.61-1.858 1.818 1.818 0 1 0-3.33-.71 1.82 1.82 0 0 0-3.06 0 1.818 1.818 0 0 0-3.33.71 1.846 1.846 0 0 0-.604.931c.79.455 1.707.716 2.683.716" fill="#DDD"/><path d="M8.804 23.457c-1.096 0-2.184-.003-3.26-.006-1.099-.003-2.2-.006-3.304-.006a.235.235 0 0 1-.235-.233c0-.13.106-.235.235-.235 1.104 0 2.206.003 3.305.006 3.23.008 6.568.017 9.87-.053 1.546 0 2.945-.748 3.942-2.107 1.008-1.447 1.23-3.17.625-4.847-.016-.027-.042-.093-.069-.159-.02-.05-.04-.103-.06-.143a4.936 4.936 0 0 0-4.393-2.966c-1.359-.07-2.75-.06-4.095-.047-1.352.011-2.75.024-4.118-.047-.92-.227-1.46-1.088-1.297-2.01.097-.58.545-1.056 1.23-1.305a.257.257 0 0 1 .068-.014c1.697-.088 3.435-.068 5.116-.049 1.06.012 2.158.025 3.223.01h.004a.234.234 0 1 1 .003.468 129.06 129.06 0 0 1-3.235-.008c-1.662-.02-3.377-.038-5.05.046-.263.1-.804.372-.897.931-.12.68.27 1.31.905 1.469 1.307.064 2.7.052 4.044.04 1.353-.011 2.751-.024 4.117.046a5.4 5.4 0 0 1 4.87 3.405c.021.052.042.105.063.147.661 1.826.412 3.75-.673 5.306-1.09 1.486-2.623 2.302-4.319 2.302-2.202.047-4.423.06-6.615.06" fill="#231F20"/><path d="M2.24 19.526a.234.234 0 0 1-.001-.47c4.41-.018 8.819-.018 13.228-.018a1.25 1.25 0 0 0 .809-.721 1.302 1.302 0 0 0-.075-1.177c-.261-.391-.733-.587-1.44-.587-2.591.094-5.233.046-7.787 0-1.452-.276-2.598-.867-3.448-1.761a5.628 5.628 0 0 1-1.468-2.935c-.2-1.505.12-2.923.929-4.111 1.066-1.472 2.53-2.306 4.126-2.353 1.914-.064 3.875-.062 5.772-.062.905.002 1.808 0 2.705-.005.102 0 .235.104.236.233a.235.235 0 0 1-.233.236c-.898.006-1.802.005-2.71.005-1.894-.005-3.848-.003-5.755.06-1.47.044-2.768.79-3.757 2.156-.738 1.084-1.033 2.39-.85 3.77a5.148 5.148 0 0 0 1.346 2.684c.78.82 1.842 1.366 3.156 1.618 2.509.043 5.144.09 7.732-.004.869 0 1.487.272 1.844.808.295.508.33 1.09.108 1.61a1.716 1.716 0 0 1-1.187.999c-4.461.006-8.87.006-13.28.025z" fill="#222"/><path d="M11.844 6.71h-.732a.235.235 0 0 1-.235-.234c0-.13.106-.235.235-.235h.732a.235.235 0 0 1 0 .47m-8.688 4.474a.234.234 0 0 1-.234-.234A4.714 4.714 0 0 1 7.63 6.242h1.65a.234.234 0 1 1 0 .468H7.63a4.246 4.246 0 0 0-4.241 4.241.234.234 0 0 1-.234.234" fill="#0155FC"/><path d="M10 1.72a1.178 1.178 0 0 0 0 2.356h4.76a1.177 1.177 0 0 0 0-2.355h-.027a.853.853 0 1 0-1.708 0 1.486 1.486 0 1 0-2.97 0H10z" fill="#FFF"/><path d="M10 1.955a.943.943 0 0 0 0 1.886h4.76a.944.944 0 0 0 0-1.886c-.13 0-.26-.105-.26-.234a.62.62 0 1 0-1.239 0 .235.235 0 0 1-.234.234.234.234 0 0 1-.234-.234 1.253 1.253 0 0 0-2.504 0 .234.234 0 0 1-.234.234H10zm4.76 2.355H10a1.414 1.414 0 0 1-1.412-1.412c0-.723.546-1.32 1.247-1.402A1.723 1.723 0 0 1 11.54 0c.68 0 1.27.398 1.55.973a1.09 1.09 0 0 1 1.856.528c.7.1 1.225.688 1.225 1.397 0 .779-.633 1.412-1.411 1.412z" fill="#222"/><path d="M10.578 2.87H10a.234.234 0 0 1-.234-.233c0-.13.104-.235.234-.235h.578a.157.157 0 0 0 .157-.157v-.507c0-.421.32-.78.729-.82a.807.807 0 0 1 .882.802.235.235 0 0 1-.47 0 .327.327 0 0 0-.11-.247.325.325 0 0 0-.258-.087.35.35 0 0 0-.304.352v.507c0 .345-.28.626-.626.626" fill="#0155FC"/><path d="M10 4.31H8.34a.235.235 0 1 1 0-.469H10a.235.235 0 0 1 0 .469m-2.335 0h-.088a.234.234 0 0 1 0-.469h.088c.13 0 .234.105.234.235a.234.234 0 0 1-.234.234" fill="#222"/><path d="M8.189 15.238a.883.883 0 1 0-1.68 0 .884.884 0 0 0 .193 1.744.88.88 0 0 0 .647-.284.882.882 0 1 0 .84-1.46" fill="#FFF"/><path d="M11.25 15.238a.882.882 0 1 0-1.68 0 .883.883 0 1 0 .84 1.46.882.882 0 1 0 .84-1.46" fill="#FFF"/><path d="M14.309 15.238a.883.883 0 1 0-1.68 0 .884.884 0 0 0 .193 1.744.88.88 0 0 0 .647-.284.882.882 0 1 0 .84-1.46" fill="#FFF"/><path d="M7.35 16.464c.064 0 .127.027.171.075a.65.65 0 0 0 1.124-.44.65.65 0 0 0-.507-.632.236.236 0 0 1-.172-.302.65.65 0 0 0-.617-.846.648.648 0 0 0-.616.848.239.239 0 0 1-.02.188.232.232 0 0 1-.153.112.648.648 0 1 0 .617 1.072.235.235 0 0 1 .172-.075m.647.752c-.232 0-.459-.074-.647-.207a1.118 1.118 0 0 1-1.764-.91c0-.44.264-.837.654-1.016a1.118 1.118 0 0 1 1.11-1.233 1.118 1.118 0 0 1 1.111 1.233c.39.18.654.575.654 1.016 0 .616-.5 1.117-1.118 1.117" fill="#222"/><path d="M10.41 16.464c.065 0 .127.027.172.075a.648.648 0 1 0 .617-1.072.234.234 0 0 1-.153-.113.24.24 0 0 1-.02-.189.648.648 0 1 0-1.233 0 .236.236 0 0 1-.172.302.65.65 0 0 0-.507.632.65.65 0 0 0 1.124.44.234.234 0 0 1 .172-.075m.647.752a1.12 1.12 0 0 1-.647-.207 1.118 1.118 0 0 1-1.765-.91c0-.44.265-.837.654-1.016a1.118 1.118 0 0 1 1.111-1.233 1.118 1.118 0 0 1 1.11 1.233c.39.18.654.575.654 1.016 0 .616-.501 1.117-1.117 1.117" fill="#222"/><path d="M13.47 16.464c.064 0 .127.027.171.075a.65.65 0 0 0 1.124-.44.65.65 0 0 0-.507-.632.234.234 0 0 1-.172-.3.65.65 0 0 0-.617-.848.648.648 0 0 0-.616.846.24.24 0 0 1-.02.19.234.234 0 0 1-.153.112.651.651 0 0 0-.507.632.65.65 0 0 0 1.124.44.235.235 0 0 1 .172-.075m.647.752c-.232 0-.459-.074-.647-.207a1.118 1.118 0 0 1-1.765-.91c0-.44.265-.837.655-1.016a1.118 1.118 0 0 1 1.11-1.233 1.118 1.118 0 0 1 1.111 1.233c.39.18.654.575.654 1.016 0 .616-.5 1.117-1.118 1.117M7.35 19.508a.234.234 0 0 1-.235-.234v-2.576a.234.234 0 0 1 .468 0v2.576a.234.234 0 0 1-.234.234m3.061 0a.234.234 0 0 1-.234-.234v-2.576a.234.234 0 1 1 .468 0v2.576a.234.234 0 0 1-.234.234" fill="#222"/><path d="M13.47 19.508a.234.234 0 0 1-.235-.234v-2.576a.234.234 0 0 1 .468 0v2.576a.234.234 0 0 1-.234.234" fill="#222"/><path d="M17.224 8.682a1.164 1.164 0 1 1-.001-2.328 1.164 1.164 0 0 1 .001 2.328m0-4.25a3.085 3.085 0 1 0 0 6.17 3.085 3.085 0 0 0 0-6.17" fill="#0155FC"/><path d="M17.224 4.667a2.855 2.855 0 0 0-2.85 2.85c0 1.571 1.28 2.85 2.85 2.85a2.855 2.855 0 0 0 2.852-2.85 2.855 2.855 0 0 0-2.852-2.85m0 6.17a3.323 3.323 0 0 1-3.319-3.32 3.323 3.323 0 0 1 3.32-3.32 3.323 3.323 0 0 1 3.32 3.32 3.323 3.323 0 0 1-3.32 3.32" fill="#222"/><path d="M17.07 5.618a.234.234 0 0 1-.016-.468c.057-.004.114-.006.17-.006a.235.235 0 1 1 0 .469 2.12 2.12 0 0 0-.138.005h-.016m-1.985 2.133a.234.234 0 0 1-.234-.234c0-.826.42-1.58 1.123-2.018a.235.235 0 0 1 .248.398 1.898 1.898 0 0 0-.903 1.62.234.234 0 0 1-.234.234" fill="#FFF"/><path d="M17.224 8.916a1.401 1.401 0 0 1-1.399-1.399c0-.772.628-1.4 1.4-1.4.771 0 1.4.628 1.4 1.4 0 .771-.629 1.4-1.4 1.4m-.001-4.25a.234.234 0 0 1-.234-.234V3.21a.234.234 0 0 1 .468 0v1.222a.234.234 0 0 1-.234.234m0 7.392a.234.234 0 0 1-.234-.234v-1.222a.234.234 0 0 1 .468 0v1.222a.234.234 0 0 1-.234.234m4.306-4.307h-1.22a.234.234 0 0 1-.234-.234c0-.13.104-.235.234-.235h1.22a.235.235 0 0 1 0 .47m-7.39-.001h-1.222a.234.234 0 0 1 0-.469h1.221c.13 0 .234.105.234.235a.234.234 0 0 1-.234.234" fill="#222"/></g></svg>