<svg width="24" height="24" viewBox="0 0 24 24" xmlns="http://www.w3.org/2000/svg"><title>icons/problem/navigator</title><g fill="none" fill-rule="evenodd"><path d="M21.336 16.693c0 .518-.42.938-.938.938H3.048a.938.938 0 0 1-.939-.938V3.047c0-.517.42-.937.94-.937h17.35c.517 0 .937.42.937.937v13.646z" fill="#FFF"/><path d="M12.323 13.593a.882.882 0 1 0-1.681 0 .883.883 0 1 0 .84 1.46.882.882 0 1 0 .84-1.46" fill="#FFF"/><path d="M15.382 13.593a.883.883 0 1 0-1.68 0 .884.884 0 0 0 .193 1.744.88.88 0 0 0 .647-.284.882.882 0 1 0 .84-1.46" fill="#FFF"/><path d="M18.443 13.593a.882.882 0 1 0-1.681 0 .883.883 0 1 0 .84 1.46.882.882 0 1 0 .84-1.46" fill="#FFF"/><path d="M11.483 14.82c.064 0 .127.026.172.074a.649.649 0 1 0 .616-1.072.236.236 0 0 1-.172-.302.649.649 0 0 0-.616-.846.65.65 0 0 0-.617.848.234.234 0 0 1-.173.3.65.65 0 1 0 .617 1.072.236.236 0 0 1 .173-.075m.646.752c-.232 0-.46-.074-.646-.207a1.118 1.118 0 0 1-1.765-.91c0-.44.265-.837.654-1.016a1.118 1.118 0 1 1 2.228-.116c0 .04-.003.078-.007.117.39.178.654.575.654 1.015 0 .616-.501 1.117-1.118 1.117" fill="#231F20"/><path d="M14.542 14.82c.065 0 .128.026.172.074a.65.65 0 0 0 1.124-.44.651.651 0 0 0-.507-.632.235.235 0 0 1-.173-.3.65.65 0 1 0-1.264-.2c0 .066.01.134.032.2a.235.235 0 0 1-.173.3.651.651 0 0 0-.507.632.65.65 0 0 0 1.124.44.234.234 0 0 1 .172-.075m.647.752a1.12 1.12 0 0 1-.647-.207 1.118 1.118 0 0 1-1.765-.91c0-.44.265-.837.654-1.016a1.118 1.118 0 1 1 2.222 0c.39.18.654.576.654 1.016 0 .616-.5 1.117-1.118 1.117" fill="#231F20"/><path d="M17.602 14.82c.065 0 .127.026.172.074a.647.647 0 0 0 1.124-.44.651.651 0 0 0-.506-.632.235.235 0 0 1-.173-.3.65.65 0 0 0-.617-.848.648.648 0 0 0-.616.848.235.235 0 0 1-.173.3.648.648 0 1 0 .617 1.072.234.234 0 0 1 .172-.075m.648.752c-.236 0-.461-.072-.648-.207a1.118 1.118 0 0 1-1.764-.91c0-.44.265-.837.654-1.016a1.118 1.118 0 0 1 1.11-1.233 1.118 1.118 0 0 1 1.111 1.233c.389.18.654.576.654 1.016 0 .616-.501 1.117-1.117 1.117m-6.767 2.292a.235.235 0 0 1-.235-.234v-2.576a.235.235 0 0 1 .469 0v2.576a.234.234 0 0 1-.234.234m3.059 0a.234.234 0 0 1-.234-.234v-2.576a.234.234 0 1 1 .468 0v2.576a.234.234 0 0 1-.234.234" fill="#231F20"/><path d="M17.602 17.863a.234.234 0 0 1-.234-.234v-2.576a.234.234 0 1 1 .468 0v2.576a.234.234 0 0 1-.234.234" fill="#231F20"/><path fill="#FFF" d="M18.153 7.711v-5.6h-2.424v5.6H2.109v2.424h3.048v7.496h2.425v-7.496h13.755V7.711z"/><path d="M13.54 7.711H8.77a2.96 2.96 0 0 0 4.77 0" fill="#DDD"/><path d="M21.336 16.693c0 .518-.42.938-.938.938H3.048a.938.938 0 0 1-.939-.938V3.047c0-.517.42-.937.94-.937h17.35c.517 0 .937.42.937.937v13.646zm0-16.459H2.11C1.074.234.234 1.074.234 2.11v19.226c0 1.035.84 1.875 1.875 1.875h19.227c1.035 0 1.875-.84 1.875-1.875V2.11c0-1.036-.84-1.876-1.875-1.876z" fill="#FFF"/><path d="M1.172 4.31a.234.234 0 0 1-.234-.234v-.54a.234.234 0 1 1 .468 0v.54a.234.234 0 0 1-.234.234M8.81 22.508H2.345a1.408 1.408 0 0 1-1.407-1.407V5.808c0-.13.104-.235.234-.235.129 0 .235.105.235.235v15.293a.94.94 0 0 0 .938.938H8.81a.235.235 0 1 1 0 .47" fill="#0155FC"/><path d="M21.336 23.446H2.11A2.111 2.111 0 0 1 0 21.336V12.44a.234.234 0 0 1 .468 0v8.896c0 .905.736 1.64 1.641 1.64h19.227c.904 0 1.641-.735 1.641-1.64V2.11c0-.906-.737-1.642-1.64-1.642H2.108A1.642 1.642 0 0 0 .47 2.11v1.242a.234.234 0 1 1-.468 0V2.11A2.108 2.108 0 0 1 2.108 0h19.227c1.163 0 2.11.947 2.11 2.11v19.226c0 1.164-.947 2.11-2.11 2.11" fill="#231F20"/><path d="M.234 11.336A.233.233 0 0 1 0 11.102V6.331a.234.234 0 1 1 .467 0v4.771a.234.234 0 0 1-.234.234m.001-5.873A.233.233 0 0 1 0 5.229v-.47c0-.13.104-.233.233-.233.13 0 .234.104.234.234v.469a.234.234 0 0 1-.234.234m2.815-3.118a.703.703 0 0 0-.703.703v13.646c0 .388.315.703.703.703h17.35a.704.704 0 0 0 .704-.703V3.048a.704.704 0 0 0-.704-.703H3.048zm17.35 15.52H3.048a1.174 1.174 0 0 1-1.173-1.171V3.048c0-.646.527-1.172 1.173-1.172h17.35c.646 0 1.172.526 1.172 1.172v13.646c0 .646-.526 1.172-1.172 1.172z" fill="#231F20"/><path d="M12.992 20.411a1.268 1.268 0 1 1-2.537.002 1.268 1.268 0 0 1 2.537-.002" fill="#FFF"/><path d="M11.723 19.377c-.57 0-1.035.463-1.035 1.035a1.035 1.035 0 1 0 1.035-1.035m0 2.537a1.504 1.504 0 0 1 0-3.007 1.505 1.505 0 0 1 0 3.007" fill="#231F20"/><path d="M4.979 21.352h2.75a.94.94 0 1 0 0-1.881h-2.75a.94.94 0 1 0 0 1.88m10.738.001h2.75a.94.94 0 1 0 0-1.881h-2.75a.94.94 0 1 0 0 1.88" fill="#FFF"/><path d="M4.979 19.705a.707.707 0 0 0 0 1.412h2.75a.707.707 0 0 0 0-1.412h-2.75zm2.75 1.881h-2.75a1.176 1.176 0 0 1 0-2.35h2.75c.647 0 1.175.527 1.175 1.175s-.528 1.175-1.175 1.175zm7.988-1.881a.707.707 0 0 0 0 1.412h2.75a.707.707 0 0 0 0-1.412h-2.75zm2.75 1.881h-2.75a1.177 1.177 0 0 1-1.175-1.175c0-.648.528-1.175 1.175-1.175h2.75c.647 0 1.175.527 1.175 1.175s-.528 1.175-1.175 1.175zM5.392 17.397h1.954v-7.262c0-.129.106-.234.234-.234h13.522V7.946h-2.949a.235.235 0 0 1-.235-.235V2.345h-1.955v5.366c0 .13-.104.235-.234.235H2.345v1.955h2.813c.129 0 .234.105.234.234v7.262zm2.188.469H5.158a.236.236 0 0 1-.236-.235V10.37H2.11a.235.235 0 0 1-.235-.235V7.711c0-.129.106-.234.235-.234h13.385V2.11c0-.129.104-.234.234-.234h2.424c.13 0 .234.105.234.234v5.367h2.949c.13 0 .235.105.235.234v2.424c0 .13-.105.235-.235.235H7.816v7.261c0 .13-.106.235-.236.235z" fill="#231F20"/><path d="M11.155 6.725a.764.764 0 1 1 0-1.528.764.764 0 0 1 0 1.528m0-2.786a2.021 2.021 0 1 0 0 4.043 2.021 2.021 0 0 0 0-4.043" fill="#0155FC"/><path d="M11.155 5.432a.53.53 0 1 0 0 1.059.53.53 0 0 0 0-1.059m0 1.527a.998.998 0 1 1 .002-1.996.998.998 0 0 1-.002 1.996m0-2.786a1.79 1.79 0 0 0-1.788 1.788 1.79 1.79 0 0 0 1.788 1.788 1.79 1.79 0 0 0 1.788-1.788 1.79 1.79 0 0 0-1.788-1.788m0 4.045a2.26 2.26 0 0 1-2.256-2.257 2.26 2.26 0 0 1 2.256-2.257 2.26 2.26 0 0 1 2.257 2.257 2.26 2.26 0 0 1-2.257 2.257" fill="#231F20"/><path d="M11.155 4.173a.233.233 0 0 1-.233-.234v-.985a.234.234 0 1 1 .467 0v.985a.234.234 0 0 1-.234.234m0 5.03a.233.233 0 0 1-.233-.234v-.985a.234.234 0 1 1 .467 0v.985a.234.234 0 0 1-.234.234m3.007-3.007h-.984a.235.235 0 1 1 0-.47h.984c.13 0 .234.106.234.236a.234.234 0 0 1-.234.234m-5.029 0h-.985a.235.235 0 1 1 0-.47h.985c.13 0 .233.106.233.236a.233.233 0 0 1-.233.234" fill="#231F20"/><path d="M16.541 3.282h.407a.235.235 0 0 0 .235-.234.235.235 0 0 0-.235-.235h-.407a.235.235 0 0 0 0 .47m3.971 11.332a.234.234 0 0 0 .234-.234V3.517a.704.704 0 0 0-.703-.703H18.2a.235.235 0 0 0-.235.234c0 .129.106.234.235.234h1.844c.13 0 .235.106.235.235V14.38c0 .129.104.234.234.234" fill="#0155FC"/></g></svg>