<svg width="24" height="24" viewBox="0 0 24 24" xmlns="http://www.w3.org/2000/svg"><title>icons/problem/ondemand</title><g fill="none" fill-rule="evenodd"><path d="M15.065 13.598h-.407v-.01H8.366a1.313 1.313 0 0 1-1.312-1.31c0-.724.589-1.312 1.312-1.312h2.912V7.471H8.366a4.812 4.812 0 0 0-4.807 4.806 4.812 4.812 0 0 0 4.807 4.807h.407v.01h6.292c.724 0 1.312.588 1.312 1.311 0 .722-.588 1.311-1.312 1.311H3.559v3.495h11.506a4.813 4.813 0 0 0 4.808-4.806 4.813 4.813 0 0 0-4.808-4.807" fill="#FFF"/><path d="M8.366 17.084h.407v.01h6.292c.163 0 .32.03.463.085.074-.199.115-.413.115-.637a1.83 1.83 0 0 0-.668-1.407 1.822 1.822 0 0 0-3.33-.71 1.817 1.817 0 0 0-3.06 0 1.819 1.819 0 0 0-3.33.71 1.849 1.849 0 0 0-.384.438 4.791 4.791 0 0 0 3.495 1.511m2.912-9.614H8.366c-.346 0-.682.038-1.007.107.193.53.456 1.039.784 1.51l1.305 1.88h1.83V7.47z" fill="#DDD"/><path d="M4.87 14.151a.235.235 0 0 1-.212-.134 4.1 4.1 0 0 1-.213-2.929.233.233 0 0 1 .293-.156.233.233 0 0 1 .155.292 3.656 3.656 0 0 0-.155 1.053c0 .54.116 1.057.344 1.54a.235.235 0 0 1-.212.334m.647-4.243a.234.234 0 0 1-.173-.393 4.24 4.24 0 0 1 .406-.387.233.233 0 0 1 .33.03c.083.1.07.248-.03.33a3.778 3.778 0 0 0-.36.344.234.234 0 0 1-.173.076" fill="#0155FC"/><path d="M15.066 23.446H3.559a.234.234 0 0 1-.234-.234c0-.13.104-.235.234-.235h11.507a4.577 4.577 0 0 0 4.572-4.572 4.577 4.577 0 0 0-4.572-4.572h-.408a.254.254 0 0 1-.068-.01H8.366a1.547 1.547 0 0 1-1.546-1.545c0-.853.693-1.546 1.546-1.546h2.678V7.705H8.366a4.577 4.577 0 0 0-4.572 4.573 4.577 4.577 0 0 0 4.572 4.572h.407c.023 0 .046.003.067.01h6.226c.852 0 1.545.693 1.545 1.545s-.693 1.545-1.545 1.545H3.559a.234.234 0 1 1 0-.468h11.507a1.077 1.077 0 0 0 0-2.154H8.773a.246.246 0 0 1-.067-.01h-.34a5.047 5.047 0 0 1-5.041-5.04 5.046 5.046 0 0 1 5.04-5.041h2.913c.13 0 .234.105.234.234v3.496a.234.234 0 0 1-.234.234H8.366c-.594 0-1.077.483-1.077 1.077 0 .593.483 1.076 1.077 1.076h6.292c.023 0 .046.004.067.01h.34a5.047 5.047 0 0 1 5.042 5.04 5.047 5.047 0 0 1-5.041 5.042m3.117-12.25h-2.289a.234.234 0 0 1 0-.47h2.289a.235.235 0 0 1 0 .47m1.689 0h-.642a.234.234 0 0 1 0-.47h.642a.235.235 0 0 1 0 .47" fill="#222"/><path d="M7.895 15.68a.883.883 0 1 0-1.68 0 .883.883 0 1 0 .84 1.461.88.88 0 0 0 1.53-.6.881.881 0 0 0-.69-.86" fill="#FFF"/><path d="M10.956 15.68a.882.882 0 1 0-1.68 0 .883.883 0 1 0 .84 1.461.88.88 0 0 0 1.529-.6.882.882 0 0 0-.69-.86" fill="#FFF"/><path d="M14.015 15.68a.883.883 0 1 0-1.68 0 .884.884 0 1 0 .84 1.461.88.88 0 0 0 1.53-.6.881.881 0 0 0-.69-.86" fill="#FFF"/><path d="M7.055 16.907c.065 0 .128.027.172.075a.648.648 0 1 0 .618-1.073.236.236 0 0 1-.153-.112.238.238 0 0 1-.02-.188.65.65 0 0 0-.617-.848.65.65 0 0 0-.616.848.242.242 0 0 1-.02.188.236.236 0 0 1-.153.112.648.648 0 1 0 .617 1.073.235.235 0 0 1 .172-.075m.648.75c-.233 0-.46-.072-.648-.206a1.118 1.118 0 0 1-1.764-.909c0-.441.264-.837.654-1.016a1.118 1.118 0 0 1 1.11-1.233 1.118 1.118 0 0 1 1.111 1.233c.39.179.654.575.654 1.016 0 .615-.5 1.116-1.117 1.116" fill="#222"/><path d="M10.116 16.907c.065 0 .127.027.172.075a.65.65 0 1 0 .617-1.073.234.234 0 0 1-.172-.3.65.65 0 0 0-.617-.848.65.65 0 0 0-.617.848.234.234 0 0 1-.172.3.65.65 0 1 0 .617 1.073.234.234 0 0 1 .172-.075m.647.75c-.233 0-.46-.072-.647-.206a1.118 1.118 0 0 1-1.765-.909c0-.441.265-.837.654-1.016a1.118 1.118 0 1 1 2.222 0c.389.179.654.575.654 1.016 0 .615-.501 1.116-1.118 1.116" fill="#222"/><path d="M13.175 16.907c.065 0 .128.027.172.075a.65.65 0 1 0 .617-1.073.237.237 0 0 1-.172-.301.65.65 0 0 0-.617-.847.65.65 0 0 0-.616.848.242.242 0 0 1-.02.188.236.236 0 0 1-.153.112.648.648 0 1 0 .617 1.073.235.235 0 0 1 .172-.075m.647.75c-.232 0-.46-.072-.647-.206a1.118 1.118 0 0 1-1.764-.909c0-.441.264-.837.654-1.016a1.118 1.118 0 0 1 1.11-1.233 1.118 1.118 0 0 1 1.111 1.233c.39.179.654.576.654 1.016 0 .615-.5 1.116-1.118 1.116M7.055 19.95a.234.234 0 0 1-.234-.234v-2.575a.234.234 0 0 1 .468 0v2.575a.234.234 0 0 1-.234.234m3.061 0a.234.234 0 0 1-.234-.234v-2.575a.234.234 0 1 1 .468 0v2.575a.234.234 0 0 1-.234.234" fill="#222"/><path d="M13.175 19.95a.234.234 0 0 1-.234-.234v-2.575a.234.234 0 0 1 .468 0v2.575a.234.234 0 0 1-.234.234" fill="#222"/><path d="M13.47 7.536a2.245 2.245 0 1 1-.002-4.49 2.245 2.245 0 0 1 .001 4.49m.15-7.3a7.304 7.304 0 0 0-.3 0C9.273.34 7 4.954 9.31 8.28l3.43 4.938a.89.89 0 0 0 1.46 0l3.43-4.938c2.31-3.325.035-7.939-4.01-8.043" fill="#0155FC"/><path d="M18.24 3.597a2.817 2.817 0 0 0-1.891 1.575 2.537 2.537 0 0 0-.665.477 2.237 2.237 0 0 1-.691 1.29 2.517 2.517 0 0 0 1.592 2.846l1.045-1.506a5.09 5.09 0 0 0 .61-4.682m-7.034.381c0-.97-.531-1.819-1.32-2.27-1.233 1.247-1.795 3.108-1.35 4.883h.058a2.616 2.616 0 0 0 2.612-2.613" fill="#000" style="mix-blend-mode:multiply" opacity=".16"/><path d="M13.47.469l-.147.002c-1.79.046-3.348 1.036-4.165 2.647-.832 1.642-.704 3.52.342 5.027l3.43 4.938c.25.358.828.358 1.077 0l3.43-4.938c1.046-1.506 1.174-3.385.342-5.027C16.962 1.507 15.406.517 13.614.47L13.47.469zm-.002 13.364c-.367 0-.713-.18-.923-.482l-3.43-4.938c-1.146-1.65-1.287-3.71-.375-5.507.896-1.768 2.605-2.853 4.573-2.904L13.47 0l.153.002h.003c1.967.05 3.676 1.136 4.573 2.904.911 1.798.77 3.857-.376 5.507l-3.43 4.938c-.21.302-.556.482-.924.482z" fill="#222"/><path d="M13.47 3.282c-1.109 0-2.01.902-2.01 2.01 0 1.108.901 2.01 2.01 2.01 1.106 0 2.01-.902 2.01-2.01 0-1.108-.904-2.01-2.01-2.01m0 4.488a2.481 2.481 0 0 1-2.48-2.478 2.482 2.482 0 0 1 2.48-2.479 2.482 2.482 0 0 1 2.478 2.48A2.482 2.482 0 0 1 13.47 7.77" fill="#222"/><path d="M11.95 1.693a.235.235 0 0 1-.086-.453 4.69 4.69 0 0 1 .275-.096.234.234 0 1 1 .14.447 4.117 4.117 0 0 0-.243.086.233.233 0 0 1-.085.016m-1.866 6.28a.235.235 0 0 1-.193-.1 4.378 4.378 0 0 1-.308-4.54A4.394 4.394 0 0 1 10.72 1.91a.233.233 0 0 1 .329.033c.082.1.068.248-.033.33a3.94 3.94 0 0 0-1.014 1.272 3.918 3.918 0 0 0 .275 4.06.234.234 0 0 1-.192.369" fill="#FFF"/><path d="M3.715 2.772a1.206 1.206 0 0 0 0 2.414h4.878a1.206 1.206 0 0 0 0-2.413h-.027a.875.875 0 0 0-1.749 0 1.523 1.523 0 0 0-3.046 0h-.056z" fill="#FFF"/><path d="M3.715 3.007a.973.973 0 0 0 0 1.944h4.878a.974.974 0 0 0 .972-.972.974.974 0 0 0-.972-.972c-.13 0-.262-.105-.262-.234a.641.641 0 0 0-1.28 0 .235.235 0 0 1-.469 0 1.29 1.29 0 0 0-1.288-1.29 1.29 1.29 0 0 0-1.289 1.29.234.234 0 0 1-.234.234h-.056zM8.593 5.42H3.715a1.44 1.44 0 1 1-.164-2.872 1.76 1.76 0 0 1 1.743-1.533c.698 0 1.303.41 1.586 1.002a1.11 1.11 0 0 1 1.898.536c.718.1 1.255.702 1.255 1.426 0 .794-.646 1.44-1.44 1.44z" fill="#222"/><path d="M4.308 3.945h-.593a.234.234 0 0 1 0-.47h.593a.167.167 0 0 0 .167-.166v-.52c0-.427.325-.793.741-.832a.822.822 0 0 1 .898.816.235.235 0 0 1-.235.234.234.234 0 0 1-.234-.234.353.353 0 0 0-.115-.26.353.353 0 0 0-.27-.09.362.362 0 0 0-.316.367v.519a.636.636 0 0 1-.636.636" fill="#0155FC"/><path d="M3.715 5.42h-1.7a.235.235 0 0 1-.235-.235c0-.13.106-.235.235-.235h1.7c.13 0 .234.105.234.235a.234.234 0 0 1-.234.234m-2.391.001h-.09a.234.234 0 0 1-.233-.235c0-.13.104-.235.234-.235h.089a.235.235 0 0 1 0 .47" fill="#222"/><path d="M17.458 6.32a1.107 1.107 0 0 0 0 2.214h4.475a1.106 1.106 0 1 0 0-2.213h-.025a.803.803 0 1 0-1.605 0 1.397 1.397 0 0 0-2.794 0h-.05z" fill="#FFF"/><path d="M17.458 6.555a.874.874 0 0 0 0 1.745h4.475a.873.873 0 0 0 0-1.745c-.129 0-.259-.105-.259-.234a.57.57 0 0 0-1.136 0 .234.234 0 0 1-.469 0c0-.64-.52-1.163-1.163-1.163-.64 0-1.162.522-1.162 1.163a.234.234 0 0 1-.234.234h-.052zm4.475 2.213h-4.475a1.342 1.342 0 1 1-.168-2.671 1.633 1.633 0 1 1 3.077-.503 1.04 1.04 0 0 1 1.753.508c.66.1 1.153.656 1.153 1.326 0 .74-.6 1.34-1.34 1.34z" fill="#222"/><path d="M18.002 7.415h-.544a.234.234 0 0 1-.234-.234c0-.13.104-.234.234-.234h.544c.073 0 .134-.06.134-.135v-.476c0-.402.305-.746.697-.783a.767.767 0 0 1 .845.768.235.235 0 0 1-.469 0 .305.305 0 0 0-.332-.301.313.313 0 0 0-.272.317v.476a.604.604 0 0 1-.603.603" fill="#0155FC"/><path d="M17.458 8.769h-1.56a.234.234 0 0 1 0-.47h1.56a.235.235 0 0 1 0 .47m-2.194 0h-.082a.234.234 0 0 1 0-.47h.082a.235.235 0 0 1 0 .47" fill="#222"/></g></svg>