<svg width="24" height="24" viewBox="0 0 24 24" xmlns="http://www.w3.org/2000/svg"><title>icons/problem/taxi</title><g fill="none" fill-rule="evenodd"><path d="M13.054 1.156a.705.705 0 1 1 1.341 0 .705.705 0 1 1-.67 1.166.705.705 0 1 1-.67-1.166" fill="#FFF"/><path d="M13.725 2.087c.064 0 .127.027.172.075a.47.47 0 1 0 .447-.778.237.237 0 0 1-.152-.112.237.237 0 0 1-.02-.188.472.472 0 1 0-.918-.145c0 .05.008.098.023.145a.234.234 0 0 1-.02.188.232.232 0 0 1-.152.112.47.47 0 1 0 .447.778.238.238 0 0 1 .173-.075m.517.695a.937.937 0 0 1-.517-.155.941.941 0 0 1-1.457-.784c0-.359.21-.683.52-.84-.002-.02-.002-.042-.002-.064a.94.94 0 0 1 1.877 0v.064a.94.94 0 0 1-.42 1.779" fill="#231F20"/><path d="M13.725 5.061a.235.235 0 0 1-.235-.234v-2.28a.235.235 0 0 1 .47 0v2.28a.234.234 0 0 1-.235.234" fill="#231F20"/><path d="M15.498 1.156a.705.705 0 1 1 1.341 0 .705.705 0 1 1-.67 1.166.706.706 0 0 1-1.222-.48c0-.335.236-.616.55-.686" fill="#FFF"/><path d="M16.168 2.087c.065 0 .127.027.171.075a.47.47 0 1 0 .45-.778.234.234 0 0 1-.174-.3.472.472 0 0 0-.447-.616.472.472 0 0 0-.447.616.238.238 0 0 1-.02.188.232.232 0 0 1-.153.112.471.471 0 1 0 .447.778.234.234 0 0 1 .173-.075m.517.695a.942.942 0 0 1-.517-.155.94.94 0 0 1-.937-1.623L15.23.94a.939.939 0 0 1 1.877 0v.065a.941.941 0 0 1-.42 1.778" fill="#231F20"/><path d="M16.168 5.061a.234.234 0 0 1-.234-.234v-2.28a.234.234 0 1 1 .467 0v2.28a.233.233 0 0 1-.233.234" fill="#231F20"/><path d="M7.181 11.317h.504v-.013h9.057c.894 0 1.622-.727 1.622-1.62 0-.896-.728-1.623-1.622-1.623H1.39V3.735h15.353a5.954 5.954 0 0 1 5.947 5.948 5.953 5.953 0 0 1-5.947 5.946h-.505v.013H7.181c-.895 0-1.622.728-1.622 1.622 0 .894.727 1.622 1.622 1.622h11.857v4.325H7.181a5.954 5.954 0 0 1-5.947-5.947 5.953 5.953 0 0 1 5.947-5.947" fill="#FFF"/><path d="M14.67 7.357h-.13a.234.234 0 0 1-.234-.234c0-.13.104-.235.234-.235h.13a.235.235 0 0 1 0 .47m4.266 3.876a.234.234 0 0 1-.201-.355 2.32 2.32 0 0 0 .332-1.196 2.328 2.328 0 0 0-2.325-2.325h-1.065a.235.235 0 0 1 0-.47h1.065a2.797 2.797 0 0 1 2.794 2.795c0 .507-.138 1.004-.4 1.438a.234.234 0 0 1-.2.113" fill="#0155FC"/><path d="M17.513 13.753a1.979 1.979 0 0 0-2.426-.965 2.665 2.665 0 0 0-1.918-.813 2.68 2.68 0 0 0-2.524 1.79 2.339 2.339 0 0 0-1.489 1.878h7.081v-.013h.505c.774 0 1.514-.15 2.194-.42a2.347 2.347 0 0 0-1.423-1.457m1.526 5.133v4.325h-2.18l-2.051-2.955a5.197 5.197 0 0 1-.68-1.37h4.91z" fill="#DDD"/><path d="M16.238 15.63v.013h-2.094c.08-.244.18-.484.298-.717.87-1.718 2.534-2.773 4.45-2.822l.147-.002a5.1 5.1 0 0 1 2.724.764 5.948 5.948 0 0 1-5.021 2.764h-.504z" fill="#DDD"/><path d="M19.039 23.446H7.182A6.188 6.188 0 0 1 1 17.264a6.188 6.188 0 0 1 6.18-6.181h.432a.218.218 0 0 1 .072-.012h9.057a1.39 1.39 0 0 0 1.388-1.388 1.39 1.39 0 0 0-1.388-1.387H1.39a.235.235 0 1 1 0-.47h15.352a1.857 1.857 0 0 1 0 3.712H7.759a.206.206 0 0 1-.074.014h-.503a5.718 5.718 0 0 0-5.713 5.712 5.719 5.719 0 0 0 5.713 5.713h11.623V19.12H7.182a1.858 1.858 0 0 1-1.856-1.856c0-1.024.832-1.857 1.856-1.857h8.983a.224.224 0 0 1 .073-.012h.504a5.72 5.72 0 0 0 5.713-5.713 5.72 5.72 0 0 0-5.713-5.713H1.39a.235.235 0 1 1 0-.468h15.352a6.188 6.188 0 0 1 6.18 6.18 6.188 6.188 0 0 1-6.18 6.182h-.432a.188.188 0 0 1-.072.013H7.182a1.39 1.39 0 0 0-1.388 1.388 1.39 1.39 0 0 0 1.388 1.387h11.857c.129 0 .233.105.233.234v4.326a.233.233 0 0 1-.233.234" fill="#231F20"/><path d="M4.06 13.708a.234.234 0 0 1-.149-.415c.114-.094.232-.183.353-.268a.235.235 0 0 1 .268.386 5.045 5.045 0 0 0-.323.243.23.23 0 0 1-.149.054m9.986 8.703H7.181a5.153 5.153 0 0 1-5.147-5.147c0-.998.287-1.967.832-2.802a.234.234 0 1 1 .393.256 4.645 4.645 0 0 0-.756 2.546 4.683 4.683 0 0 0 4.678 4.678h6.865a.235.235 0 0 1 0 .47" fill="#0155FC"/><path d="M9.184 1.865h-.328a.518.518 0 0 0 0 1.035h.328a.518.518 0 0 0 0-1.035" fill="#FFF"/><path d="M8.856 2.1a.283.283 0 0 0 0 .565h.328a.284.284 0 0 0 .283-.283.284.284 0 0 0-.283-.283h-.328zm.328 1.034h-.328a.753.753 0 0 1 0-1.504h.328a.753.753 0 0 1 0 1.504z" fill="#231F20"/><path d="M11.363 5.334a1.255 1.255 0 1 1-2.51-.001 1.255 1.255 0 0 1 2.51.001" fill="#DDD"/><path d="M10.109 4.314c-.562 0-1.02.458-1.02 1.02s.458 1.02 1.02 1.02 1.02-.458 1.02-1.02-.458-1.02-1.02-1.02m0 2.508a1.49 1.49 0 0 1-1.49-1.488 1.49 1.49 0 0 1 2.977 0c0 .821-.666 1.488-1.487 1.488" fill="#231F20"/><path d="M1.314 5.334h10.655a.533.533 0 0 0 .533-.533v-.692c0-.668-.541-1.209-1.21-1.209H9.02L6.994.874A2.179 2.179 0 0 0 5.45.234H1.314" fill="#0155FC"/><path fill="#FFF" d="M1.314 2.942h3.289V.234H1.314z"/><path d="M9.02 2.9L6.994.874a2.18 2.18 0 0 0-1.543-.64H1.314l2.04 2.04c.4.4.942.626 1.508.626H9.02z" fill="#FFF"/><path d="M6.755 2.196a.237.237 0 0 1-.166-.068l-.425-.425a1.001 1.001 0 0 0-.714-.297h-.968a.235.235 0 1 1 0-.468h.968c.396 0 .767.154 1.047.433l.425.425a.236.236 0 0 1 0 .332.238.238 0 0 1-.167.068M3.72 1.407h-.143a.235.235 0 0 1 0-.47h.143c.13 0 .234.106.234.236a.234.234 0 0 1-.234.234" fill="#0155FC"/><path d="M1.88.469l1.641 1.64c.358.36.835.557 1.341.557h3.591L6.827 1.04A1.933 1.933 0 0 0 5.45.469H1.88zm7.14 2.666H4.861a2.353 2.353 0 0 1-1.673-.693L1.15.4a.235.235 0 0 1 .166-.4H5.45c.646 0 1.252.252 1.71.708l2.025 2.027a.235.235 0 0 1-.166.4z" fill="#231F20"/><path d="M11.97 5.568H1.313a.235.235 0 0 1-.235-.234c0-.13.106-.235.235-.235H11.97a.3.3 0 0 0 .3-.299v-.69a.976.976 0 0 0-.976-.976H9.02a.227.227 0 0 1-.165-.069L6.827 1.04A1.933 1.933 0 0 0 5.45.47H1.314A.235.235 0 0 1 1.08.233c0-.129.106-.234.235-.234H5.45a2.4 2.4 0 0 1 1.71.708l1.956 1.957h2.177c.796 0 1.445.648 1.445 1.444V4.8a.77.77 0 0 1-.769.768" fill="#231F20"/><path d="M11.109 5.334H8.784a.533.533 0 0 1-.533-.533v-.692c0-.668.54-1.209 1.209-1.209h1.834c.668 0 1.209.541 1.209 1.209v.692a.534.534 0 0 1-.534.533h-.86z" fill="#0155FC"/><path d="M9.46 3.134a.976.976 0 0 0-.976.975v.692a.3.3 0 0 0 .3.298h3.185a.299.299 0 0 0 .3-.298V4.11a.976.976 0 0 0-.976-.975H9.46zm2.51 2.434H8.783a.767.767 0 0 1-.766-.767V4.11c0-.796.647-1.444 1.443-1.444h1.834c.796 0 1.444.648 1.444 1.444v.692a.768.768 0 0 1-.768.767z" fill="#231F20"/><path d="M7.396 5.334a1.255 1.255 0 1 1-2.51-.001 1.255 1.255 0 0 1 2.51.001" fill="#DDD"/><path d="M6.142 4.314c-.562 0-1.02.458-1.02 1.02s.458 1.02 1.02 1.02 1.02-.458 1.02-1.02-.458-1.02-1.02-1.02m0 2.508a1.49 1.49 0 0 1 0-2.977 1.489 1.489 0 0 1 0 2.977" fill="#231F20"/><path d="M6.533 5.334a.39.39 0 1 1-.782 0 .39.39 0 0 1 .782 0m4.014-.802h-.342a.233.233 0 0 1-.233-.234c0-.13.104-.235.233-.235h.342c.13 0 .233.105.233.235a.233.233 0 0 1-.233.234M9.318 5.568a.234.234 0 0 1-.234-.234v-.506a.297.297 0 0 0-.296-.296H8.25a.235.235 0 0 1-.235-.235c0-.129.106-.234.235-.234h.537c.422 0 .764.343.764.765v.506a.234.234 0 0 1-.234.234m2.118 0a.234.234 0 0 1-.234-.234v-.506c0-.422.342-.765.764-.765h.537c.13 0 .236.105.236.234 0 .13-.106.235-.236.235h-.537a.297.297 0 0 0-.296.296v.506a.234.234 0 0 1-.234.234" fill="#231F20"/><path d="M3.587 1.865H3.26a.518.518 0 0 0 0 1.035h.327a.518.518 0 1 0 0-1.035" fill="#FFF"/><path d="M3.26 2.1a.284.284 0 0 0-.284.282c0 .156.128.283.283.283h.328a.283.283 0 0 0 0-.566H3.26zm.327 1.034H3.26a.752.752 0 0 1 0-1.504h.328a.753.753 0 0 1 0 1.504z" fill="#231F20"/><path d="M3.423 3.134H1.314A.235.235 0 0 1 1.08 2.9c0-.13.106-.235.235-.235h2.11a.235.235 0 1 1 0 .47m.609.835a.234.234 0 0 1-.234-.234V2.9a.235.235 0 1 1 .468 0v.836a.234.234 0 0 1-.234.234m0 1.415a.234.234 0 0 1-.234-.234v-.614a.234.234 0 0 1 .468 0v.614a.234.234 0 0 1-.234.234" fill="#231F20"/><path d="M1.39 3.97h-.076a.235.235 0 0 1-.235-.234c0-.13.106-.235.235-.235h.075c.13 0 .233.105.233.235a.233.233 0 0 1-.233.234m1.834 0h-.942a.235.235 0 0 1-.235-.234c0-.13.106-.235.235-.235h.942a.235.235 0 0 1 0 .47m14.204 13.277a1.61 1.61 0 1 1 3.222-.001 1.61 1.61 0 0 1-3.222 0m-1.376 2.146l2.463 3.545a.638.638 0 0 0 1.05 0l2.462-3.545c1.657-2.387.025-5.7-2.88-5.774l-.108-.001h-.108c-2.904.075-4.537 3.388-2.879 5.775" fill="#FFF"/><path d="M18.93 13.619h.006-.006zm.006.234a3.346 3.346 0 0 0-2.934 1.864 3.418 3.418 0 0 0 .24 3.542l2.463 3.545a.407.407 0 0 0 .665 0l2.463-3.545a3.418 3.418 0 0 0 .241-3.542 3.346 3.346 0 0 0-2.934-1.864l-.102-.001h-.102zm.102 9.594a.868.868 0 0 1-.716-.375l-2.463-3.546a3.876 3.876 0 0 1-.275-4.021c.655-1.291 1.904-2.084 3.34-2.12l.114-.002.114.002c1.437.036 2.686.829 3.341 2.12a3.88 3.88 0 0 1-.275 4.02l-2.463 3.547a.873.873 0 0 1-.717.375z" fill="#231F20"/><path d="M19.039 15.871c-.76 0-1.377.618-1.377 1.377a1.377 1.377 0 1 0 1.377-1.377m0 3.222a1.847 1.847 0 0 1-1.846-1.845c0-1.018.828-1.846 1.846-1.846 1.017 0 1.846.828 1.846 1.846a1.848 1.848 0 0 1-1.846 1.845" fill="#231F20"/><path d="M19.635 14.926a.23.23 0 0 1-.052-.006 2.354 2.354 0 0 0-.437-.056.235.235 0 0 1 .008-.47h.008c.177.008.354.03.525.069a.234.234 0 0 1-.052.463m1.561 4.124a.233.233 0 0 1-.192-.368 2.42 2.42 0 0 0 .169-2.509 2.455 2.455 0 0 0-.531-.703.234.234 0 0 1 .315-.347c.259.235.472.517.634.838a2.882 2.882 0 0 1-.203 2.988.232.232 0 0 1-.192.101" fill="#0155FC"/><path d="M11.47 14.65a1.299 1.299 0 1 0 0 2.597h5.252a1.298 1.298 0 1 0 0-2.598h-.028a.943.943 0 0 0-1.885 0 1.64 1.64 0 0 0-3.279 0h-.06z" fill="#FFF"/><path d="M11.47 14.884a1.065 1.065 0 0 0 0 2.13h5.252a1.066 1.066 0 0 0 0-2.13c-.129 0-.263-.105-.263-.234a.708.708 0 0 0-1.416 0 .234.234 0 0 1-.234.234.235.235 0 0 1-.235-.234c0-.775-.63-1.406-1.405-1.406s-1.405.63-1.405 1.406a.235.235 0 0 1-.234.234h-.06zm5.252 2.599H11.47a1.536 1.536 0 0 1-1.534-1.534c0-.792.603-1.445 1.374-1.525a1.875 1.875 0 0 1 3.563-.556 1.176 1.176 0 0 1 2.034.56 1.536 1.536 0 0 1 1.35 1.52c0 .847-.688 1.535-1.534 1.535z" fill="#231F20"/><path d="M12.107 15.894h-.638a.234.234 0 0 1-.234-.234c0-.13.104-.235.234-.235h.638a.198.198 0 0 0 .198-.198v-.559a.88.88 0 0 1 .78-.879.88.88 0 0 1 .667.222.87.87 0 0 1 .282.638.235.235 0 1 1-.47 0 .395.395 0 0 0-.434-.393c-.2.019-.356.2-.356.412v.559a.667.667 0 0 1-.667.667" fill="#0155FC"/><path d="M11.47 17.482h-1.6a.235.235 0 1 1 0-.469h1.598a.235.235 0 0 1 0 .47m-2.342-.001H9.03a.234.234 0 0 1-.234-.234c0-.13.104-.235.234-.235h.096c.13 0 .233.105.233.235a.233.233 0 0 1-.233.234M6.142 6.822H4.23a.235.235 0 1 1 0-.469h1.912c.13 0 .234.105.234.235a.234.234 0 0 1-.234.234m-2.777 0h-.142a.234.234 0 0 1 0-.469h.142a.235.235 0 0 1 0 .47m6.744-.001H8.71a.235.235 0 1 1 0-.469h1.398c.13 0 .234.105.234.235a.234.234 0 0 1-.234.234m-2.211 0h-.093a.235.235 0 1 1 0-.469h.093c.13 0 .234.105.234.235a.234.234 0 0 1-.234.234" fill="#231F20"/></g></svg>