<svg xmlns="http://www.w3.org/2000/svg" width="100" height="90" viewBox="0 0 100 90">
    <g fill="none" fill-rule="evenodd">
        <path fill="#222" d="M6.291 49.71c.469-.018.785-.056.95-.114.28-.1.421-.293.421-.58 0-.106-.017-.238-.053-.396a2.984 2.984 0 0 0-.158-.492l-1.204-2.98-2.69 3.085a2.118 2.118 0 0 0-.285.4.909.909 0 0 0-.119.444c0 .27.123.448.37.536.152.059.421.091.808.097V50H.455v-.29c.428-.053.952-.366 1.573-.94.375-.346.92-.935 1.635-1.767l2.25-2.602-1.898-4.772c-.17-.428-.356-.699-.558-.813-.203-.114-.564-.204-1.086-.268v-.29h4.746v.29c-.492.064-.832.142-1.02.233-.187.09-.28.274-.28.55a.85.85 0 0 0 .026.214c.017.068.047.157.088.268l1.23 3.147 2.628-3.041c.088-.1.169-.221.242-.365a.85.85 0 0 0 .11-.373c0-.229-.077-.377-.229-.444-.152-.068-.445-.13-.879-.19v-.29h3.753v.29c-.445.153-.81.34-1.094.563-.284.223-.763.71-1.437 1.46-.065.07-.48.544-1.248 1.423-.768.88-1.278 1.465-1.53 1.758l1.855 4.632c.211.521.45.868.716 1.041.267.173.652.268 1.156.286V50H6.291v-.29zM76.291 16.71c.469-.018.785-.056.95-.114.28-.1.421-.293.421-.58 0-.106-.017-.238-.053-.396a2.984 2.984 0 0 0-.158-.492l-1.204-2.98-2.69 3.085a2.118 2.118 0 0 0-.285.4.909.909 0 0 0-.119.444c0 .27.123.448.37.536.152.059.421.091.808.097V17h-3.876v-.29c.428-.053.952-.366 1.573-.94.375-.346.92-.935 1.635-1.767l2.25-2.602-1.898-4.772c-.17-.428-.356-.699-.558-.813-.203-.114-.564-.204-1.086-.268v-.29h4.746v.29c-.492.064-.832.142-1.02.233-.187.09-.28.274-.28.55a.85.85 0 0 0 .026.214c.017.068.047.157.088.268l1.23 3.147 2.628-3.041c.088-.1.169-.221.242-.365a.85.85 0 0 0 .11-.373c0-.229-.077-.377-.229-.444-.152-.068-.445-.13-.879-.19v-.29h3.753v.29c-.445.153-.81.34-1.094.563-.284.223-.763.71-1.437 1.46-.065.07-.48.544-1.248 1.423-.768.88-1.278 1.465-1.53 1.758l1.855 4.632c.211.521.45.868.716 1.041.267.173.652.268 1.156.286V17h-4.913v-.29zM72.389 38.71c.533-.041.91-.117 1.133-.229.352-.187.607-.553.765-1.098l1.108-3.815-1.398-4.834c-.146-.51-.293-.821-.44-.936-.146-.114-.45-.197-.913-.25v-.29h4.289v.29c-.434.023-.733.064-.897.123-.27.1-.404.284-.404.554 0 .088.017.21.053.369.035.158.061.26.079.307l1.09 3.85 1.95-2.373c.44-.533.754-.938.941-1.213.322-.463.484-.811.484-1.046 0-.234-.12-.392-.36-.474-.147-.047-.437-.08-.871-.097v-.29h3.727v.29c-.346.04-.617.129-.813.264-.197.134-.459.407-.787.817l-3.938 4.878-.984 3.33a6.085 6.085 0 0 0-.167.669c-.03.17-.044.307-.044.413 0 .34.113.552.339.637.225.085.648.136 1.27.154V39h-5.212v-.29zM76.291 60.71c.469-.018.785-.056.95-.114.28-.1.421-.293.421-.58 0-.106-.017-.238-.053-.396a2.984 2.984 0 0 0-.158-.492l-1.204-2.98-2.69 3.085a2.118 2.118 0 0 0-.285.4.909.909 0 0 0-.119.444c0 .27.123.448.37.536.152.059.421.091.808.097V61h-3.876v-.29c.428-.053.952-.366 1.573-.94.375-.346.92-.935 1.635-1.767l2.25-2.602-1.898-4.772c-.17-.428-.356-.699-.558-.813-.203-.114-.564-.204-1.086-.268v-.29h4.746v.29c-.492.064-.832.142-1.02.233-.187.09-.28.274-.28.55a.85.85 0 0 0 .026.214c.017.068.047.157.088.268l1.23 3.147 2.628-3.041c.088-.1.169-.221.242-.365a.85.85 0 0 0 .11-.373c0-.229-.077-.377-.229-.444-.152-.068-.445-.13-.879-.19v-.29h3.753v.29c-.445.153-.81.34-1.094.563-.284.223-.763.71-1.437 1.46-.065.07-.48.544-1.248 1.423-.768.88-1.278 1.465-1.53 1.758l1.855 4.632c.211.521.45.868.716 1.041.267.173.652.268 1.156.286V61h-4.913v-.29zm10.821-11.276c.194.246.29.545.29.896 0 .592-.224 1.13-.672 1.613-.448.483-.912.857-1.393 1.12l-.272.15-.167-.29c.357-.246.63-.46.817-.642.363-.345.545-.656.545-.931a.566.566 0 0 0-.167-.405l-.167-.167a2.809 2.809 0 0 1-.387-.448.803.803 0 0 1-.096-.422c0-.304.098-.521.294-.65.196-.13.406-.194.628-.194.305 0 .554.123.747.37zM72.389 82.71c.533-.041.91-.117 1.133-.229.352-.187.607-.553.765-1.098l1.108-3.815-1.398-4.834c-.146-.51-.293-.821-.44-.936-.146-.114-.45-.197-.913-.25v-.29h4.289v.29c-.434.023-.733.064-.897.123-.27.1-.404.284-.404.554 0 .088.017.21.053.369.035.158.061.26.079.307l1.09 3.85 1.95-2.373c.44-.533.754-.938.941-1.213.322-.463.484-.811.484-1.046 0-.234-.12-.392-.36-.474-.147-.047-.437-.08-.871-.097v-.29h3.727v.29c-.346.04-.617.129-.813.264-.197.134-.459.407-.787.817l-3.938 4.878-.984 3.33a6.085 6.085 0 0 0-.167.669c-.03.17-.044.307-.044.413 0 .34.113.552.339.637.225.085.648.136 1.27.154V83h-5.212v-.29zm13.74-11.276c.192.246.29.545.29.896 0 .592-.225 1.13-.673 1.613-.449.483-.913.857-1.393 1.12l-.273.15-.167-.29c.358-.246.63-.46.818-.642.363-.345.545-.656.545-.931a.566.566 0 0 0-.167-.405l-.167-.167a2.809 2.809 0 0 1-.387-.448.803.803 0 0 1-.097-.422c0-.304.098-.521.295-.65.196-.13.405-.194.628-.194.305 0 .554.123.747.37zM40.065 44.17l-.22 1.064H30.82l.22-1.063h9.026zm-.755 3.56l-.22 1.064h-9.027l.22-1.064h9.027zM15.178 54l2.031-7.7.022-.11a.638.638 0 0 0 .01-.112c0-.186-.054-.298-.162-.336-.108-.038-.34-.053-.695-.045v-.21a38.352 38.352 0 0 0 1.219-.17c.038-.01.184-.04.438-.096.253-.055.393-.082.418-.082l.013.063-1.593 5.954c.956-.753 1.604-1.28 1.942-1.58.339-.3.508-.527.508-.68 0-.101-.045-.165-.136-.19-.091-.025-.287-.044-.588-.057v-.216h2.38v.216a1.649 1.649 0 0 0-.869.305c-.266.186-.95.75-2.05 1.694.575 1.342.935 2.15 1.079 2.422.144.273.29.41.438.41.127 0 .26-.09.4-.267.093-.114.226-.322.4-.622l.197.133c-.271.495-.511.857-.72 1.086-.21.228-.453.342-.728.342a.682.682 0 0 1-.482-.206c-.144-.137-.337-.458-.578-.962-.097-.194-.21-.44-.34-.736-.128-.296-.263-.628-.402-.997l-.59.432L16.154 54h-.977z"/>
        <path fill="#0155FC" fill-rule="nonzero" d="M59 87.511a.5.5 0 1 1 0 1h-5a.5.5 0 0 1-.5-.5V2a.5.5 0 0 1 .5-.5h5a.5.5 0 1 1 0 1h-4.5v85.011H59zM93.5 88.011a.5.5 0 1 0 0 1h5a.5.5 0 0 0 .5-.5V2.5a.5.5 0 0 0-.5-.5h-5a.5.5 0 1 0 0 1H98v85.011h-4.5z"/>
    </g>
</svg>
