<svg xmlns="http://www.w3.org/2000/svg" width="126" height="90" viewBox="0 0 126 90">
    <g fill="#222" fill-rule="evenodd">
        <path d="M45.624 20.651v1.23h-9.088v-1.23h9.088zm0-3.63v1.231h-9.088v-1.23h9.088zM9.846 15.296l-.36 1.314H6.372c.396 1.134 1.512 1.224 1.512 2.574 0 2.016-1.998 4.014-4.608 4.014-1.854 0-2.556-1.584-2.556-2.88 0-3.06 2.34-5.022 4.68-5.022h4.446zM5.148 16.61h-.036c-1.206.108-2.934 1.656-2.934 4.212 0 .576.198 1.836 1.17 1.836 1.782 0 3.096-2.268 3.096-3.726a2.746 2.746 0 0 0-1.296-2.322zM15.993 24.453l.182.117c-.845 1.287-1.183 1.547-1.794 1.547-.39 0-.624-.221-.624-.624 0-.286.169-1.157.585-2.561-1.534 2.522-2.184 3.211-3.107 3.211-.455 0-.689-.208-.689-.689 0-.247.117-.715.351-1.664l.455-1.807c.104-.429.182-.767.182-.871a.285.285 0 0 0-.143-.234c-.117-.065-.156-.078-.65-.078v-.182a17.06 17.06 0 0 0 1.95-.351l.052.039-1.157 4.615a.985.985 0 0 0-.039.208c0 .195.065.325.26.325.442 0 1.04-.689 1.846-1.911.611-.923.793-1.417 1.43-3.159h.962l-1.027 3.887c-.065.247-.247.858-.247 1.014 0 .143.052.221.143.221.208 0 .416-.182 1.079-1.053zm5.397.13l.156.156c-.74.91-1.573 1.404-2.652 1.404-1.053 0-1.755-.702-1.755-1.781 0-2.015 1.937-4.095 3.887-4.095.69 0 1.066.338 1.066.884 0 1.118-1.365 2.132-3.692 2.431-.13.26-.13.598-.13.793 0 .715.481 1.183 1.21 1.183.571 0 .974-.208 1.91-.975zm-2.678-1.859l-.22.572c1.117-.273 1.611-.507 2.092-.962.403-.39.65-.858.65-1.261 0-.312-.09-.507-.455-.507-.74 0-1.625 1.001-2.067 2.158zm7.66-5.538l-1.99 7.605a2.603 2.603 0 0 0-.103.559c0 .156.09.234.22.234.196 0 .495-.208.872-.741l.325-.455.182.13c-.78 1.235-1.261 1.625-1.963 1.625-.416 0-.637-.247-.637-.728 0-.104.013-.26.052-.39l1.78-6.812c.04-.13.04-.208.04-.247 0-.156-.221-.286-.637-.286h-.234v-.208a18.161 18.161 0 0 0 2.015-.351l.078.065zM61.846 15.296l-.36 1.314h-3.114c.396 1.134 1.512 1.224 1.512 2.574 0 2.016-1.998 4.014-4.608 4.014-1.854 0-2.556-1.584-2.556-2.88 0-3.06 2.34-5.022 4.68-5.022h4.446zm-4.698 1.314h-.036c-1.206.108-2.934 1.656-2.934 4.212 0 .576.198 1.836 1.17 1.836 1.782 0 3.096-2.268 3.096-3.726a2.746 2.746 0 0 0-1.296-2.322zM89.824 18.522l.162.108c.486.324 1.062.504 1.728.612.792.126 1.08.306 1.08.774 0 .396-.27.702-.648.702-.342 0-.63-.234-1.08-.792-.486-.594-.882-.81-1.242-1.044l-.144-.09v.162c0 .702.126 1.35.36 1.98.09.252.162.468.162.594 0 .36-.36.702-.72.702a.67.67 0 0 1-.648-.648c0-.216.09-.504.216-.846.216-.576.288-1.008.288-1.782v-.162c-.63.396-.756.486-.936.648-.18.18-.216.216-.738.81-.306.342-.486.45-.774.45-.414 0-.666-.27-.666-.648 0-.468.324-.666 1.134-.81.828-.162 1.116-.27 1.854-.72-.684-.414-1.134-.54-1.746-.666-.882-.18-1.206-.378-1.206-.828 0-.378.234-.666.594-.666.288 0 .486.144.882.576.576.648.918.936 1.602 1.314v-.234c0-.486-.09-1.044-.27-1.638-.126-.378-.198-.702-.198-.936 0-.342.288-.612.648-.612a.66.66 0 0 1 .666.648c0 .216-.072.486-.198.846-.216.576-.306 1.062-.306 1.494v.432c.504-.288.702-.432 1.044-.756.432-.432.99-1.17 1.386-1.17.396 0 .666.27.666.684 0 .468-.234.666-.936.774-.792.126-1.134.234-2.016.738zM107.378 10.706l.108.108-.702 2.736-1.08 3.942c-.558 2.052-1.17 4.14-1.17 4.428 0 .216.09.36.324.36.306 0 .504-.162 1.476-1.278l.216.18c-.882 1.314-1.746 2.052-2.646 2.052-.468 0-.738-.324-.738-.81 0-.414.036-.702.234-1.602-1.062 1.782-1.98 2.376-3.204 2.376-1.17 0-1.926-.738-1.926-2.106 0-2.916 2.916-6.03 5.256-6.03.756 0 1.062.342 1.17 1.044h.018l.81-2.934c.27-.954.252-1.026.252-1.278 0-.378-.162-.432-1.152-.468v-.306c1.152-.108 1.8-.216 2.754-.414zm-2.97 5.796c0-.648-.432-1.026-.846-1.026-.504 0-1.134.306-1.638.828-1.188 1.26-2.088 3.222-2.088 4.716 0 .828.414 1.314 1.044 1.314 1.656 0 3.528-3.096 3.528-5.832zm8.247-1.206l-.09.576h-1.512l-1.566 5.904a1.412 1.412 0 0 0-.036.252c0 .234.108.288.27.288.288 0 .576-.288 1.458-1.422l.234.126c-1.08 1.656-1.638 2.178-2.574 2.178-.486 0-.828-.216-.828-.666 0-.198.144-.756.288-1.332l1.404-5.328h-1.35c-.018-.054-.018-.108-.018-.108 0-.198.162-.36.594-.45.576-.126 1.746-1.008 2.394-1.98.072-.108.18-.162.252-.162.108 0 .162.054.162.144 0 0 0 .09-.018.126l-.504 1.854h1.44zM68.019 24.557l.169.143c-.975 1.183-1.287 1.43-1.807 1.43-.364 0-.52-.156-.52-.533 0-.325.026-.429.299-1.495-.975 1.469-1.729 2.041-2.639 2.041-.728 0-1.3-.52-1.3-1.508 0-2.015 1.989-4.368 3.718-4.368.559 0 .936.273 1.04.754l.143-.624.039-.039.793-.091.091.039c-.026.117-.039.143-.078.273-.611 2.223-1.157 4.459-1.157 4.719 0 .091.078.169.182.169.117 0 .286-.104.676-.533l.351-.377zm-1.274-3.25c0-.455-.273-.754-.728-.754-.585 0-1.157.403-1.703 1.196-.546.819-1.001 1.976-1.001 2.795 0 .715.312.962.78.962.65 0 1.261-.715 1.651-1.274.611-.884 1.001-2.002 1.001-2.925zm6.554 3.302l.208.13c-.793 1.001-1.482 1.404-2.457 1.404-1.209 0-1.91-.676-1.91-2.002 0-1.209.675-2.34 1.598-3.081.637-.507 1.378-.793 2.171-.793.793 0 1.365.442 1.365 1.053a.624.624 0 0 1-.624.624c-.364 0-.507-.26-.507-.52 0-.234.195-.377.195-.624 0-.156-.182-.26-.48-.26-.52 0-1.04.234-1.418.624-.728.767-1.183 1.872-1.183 3.029 0 .936.416 1.482 1.157 1.482.69 0 1.183-.325 1.885-1.066zm6.009 0l.208.13c-.793 1.001-1.482 1.404-2.457 1.404-1.21 0-1.911-.676-1.911-2.002 0-1.209.676-2.34 1.599-3.081.637-.507 1.378-.793 2.17-.793.794 0 1.366.442 1.366 1.053a.624.624 0 0 1-.624.624c-.364 0-.507-.26-.507-.52 0-.234.195-.377.195-.624 0-.156-.182-.26-.481-.26-.52 0-1.04.234-1.417.624-.728.767-1.183 1.872-1.183 3.029 0 .936.416 1.482 1.157 1.482.689 0 1.183-.325 1.885-1.066zM45.624 69.651v1.23h-9.088v-1.23h9.088zm0-3.63v1.231h-9.088v-1.23h9.088zM56 69.25v-.888h8.991v.888H56zm8.7 0v-.888h8.991v.888H64.7zm8.7 0v-.888h8.991v.888H73.4zm8.7 0v-.888h8.991v.888H82.1zm8.7 0v-.888h8.991v.888H90.8zm8.7 0v-.888h8.991v.888H99.5zm8.7 0v-.888h8.991v.888H108.2zm8.7 0v-.888h8.991v.888H116.9zM86.536 85.798c2.145-2.227 3.6-3.861 4.368-4.904.768-1.043 1.152-2.06 1.152-3.05 0-.867-.235-1.528-.703-1.982a2.329 2.329 0 0 0-1.68-.681c-.802 0-1.452.293-1.95.879-.276.322-.54.817-.791 1.485l-.378-.08c.293-1.347.79-2.283 1.49-2.807.7-.525 1.451-.787 2.254-.787.99 0 1.791.312 2.404.936.612.624.918 1.387.918 2.29 0 .96-.33 1.886-.993 2.777-.662.89-2.1 2.476-4.315 4.755h4.034c.562 0 .958-.067 1.186-.202.229-.135.487-.463.774-.985l.228.106L93.56 86h-7.023v-.202z"/>
        <g>
            <path d="M9.846 64.296l-.36 1.314H6.372c.396 1.134 1.512 1.224 1.512 2.574 0 2.016-1.998 4.014-4.608 4.014-1.854 0-2.556-1.584-2.556-2.88 0-3.06 2.34-5.022 4.68-5.022h4.446zM5.148 65.61h-.036c-1.206.108-2.934 1.656-2.934 4.212 0 .576.198 1.836 1.17 1.836 1.782 0 3.096-2.268 3.096-3.726a2.746 2.746 0 0 0-1.296-2.322zM12.795 70.436l-.377 1.3c.702-1.053 1.443-1.469 2.223-1.469.962 0 1.495.611 1.495 1.625 0 2.145-1.963 4.251-3.861 4.251-.299 0-.572-.052-.897-.221-.221.91-.52 1.976-.52 2.158 0 .286.195.377.806.377v.208H9.025v-.208c.559-.013.728-.208.884-.819l1.495-5.616c.143-.52.208-.858.208-.923 0-.312-.364-.351-.572-.351h-.286l-.026-.195 2.028-.286c.039 0 .065.026.065.052 0 0-.013.065-.026.117zm2.171 1.495c0-.741-.221-1.105-.806-1.105-.689 0-1.456.702-1.755 1.482-.377.975-.845 2.652-.845 3.094 0 .286.26.494.624.494.689 0 1.313-.429 1.885-1.235.624-.871.897-1.82.897-2.73zm7.906.156c0 .988-.52 2.132-1.378 2.977-.754.754-1.586 1.079-2.444 1.079-1.222 0-1.91-.676-1.91-1.807 0-1.456.974-2.951 2.34-3.679a3.228 3.228 0 0 1 1.56-.39c1.052 0 1.832.676 1.832 1.82zm-1.092-.325c0-.793-.364-1.222-.923-1.222-.572 0-1.144.403-1.664 1.183-.598.91-.962 1.937-.962 2.964 0 .78.403 1.183 1.014 1.183.572 0 1.066-.377 1.573-1.079.598-.819.962-2.041.962-3.029zm6.503-1.508l-.26 1.82h-.208c-.13-1.079-.52-1.508-1.157-1.508-.455 0-.767.26-.767.741 0 .351.195.728.702 1.326.65.754.884 1.261.884 1.768 0 1.079-.793 1.742-1.872 1.742-.221 0-.416-.013-.715-.13a1.383 1.383 0 0 0-.572-.117c-.143 0-.286.065-.377.273h-.208l.26-2.067h.208c.182 1.235.624 1.768 1.3 1.768.61 0 .988-.364.988-1.001 0-.416-.221-.858-.728-1.495-.56-.702-.82-1.287-.82-1.703 0-.858.612-1.404 1.574-1.404.22 0 .403.039.728.13.247.078.364.091.468.091.195 0 .286-.052.39-.234h.182z"/>
        </g>
        <g>
            <path d="M65.846 53.296l-.36 1.314h-3.114c.396 1.134 1.512 1.224 1.512 2.574 0 2.016-1.998 4.014-4.608 4.014-1.854 0-2.556-1.584-2.556-2.88 0-3.06 2.34-5.022 4.68-5.022h4.446zm-4.698 1.314h-.036c-1.206.108-2.934 1.656-2.934 4.212 0 .576.198 1.836 1.17 1.836 1.782 0 3.096-2.268 3.096-3.726a2.746 2.746 0 0 0-1.296-2.322zM93.824 56.522l.162.108c.486.324 1.062.504 1.728.612.792.126 1.08.306 1.08.774 0 .396-.27.702-.648.702-.342 0-.63-.234-1.08-.792-.486-.594-.882-.81-1.242-1.044l-.144-.09v.162c0 .702.126 1.35.36 1.98.09.252.162.468.162.594 0 .36-.36.702-.72.702a.67.67 0 0 1-.648-.648c0-.216.09-.504.216-.846.216-.576.288-1.008.288-1.782v-.162c-.63.396-.756.486-.936.648-.18.18-.216.216-.738.81-.306.342-.486.45-.774.45-.414 0-.666-.27-.666-.648 0-.468.324-.666 1.134-.81.828-.162 1.116-.27 1.854-.72-.684-.414-1.134-.54-1.746-.666-.882-.18-1.206-.378-1.206-.828 0-.378.234-.666.594-.666.288 0 .486.144.882.576.576.648.918.936 1.602 1.314v-.234c0-.486-.09-1.044-.27-1.638-.126-.378-.198-.702-.198-.936 0-.342.288-.612.648-.612a.66.66 0 0 1 .666.648c0 .216-.072.486-.198.846-.216.576-.306 1.062-.306 1.494v.432c.504-.288.702-.432 1.044-.756.432-.432.99-1.17 1.386-1.17.396 0 .666.27.666.684 0 .468-.234.666-.936.774-.792.126-1.134.234-2.016.738zM111.378 48.706l.108.108-.702 2.736-1.08 3.942c-.558 2.052-1.17 4.14-1.17 4.428 0 .216.09.36.324.36.306 0 .504-.162 1.476-1.278l.216.18c-.882 1.314-1.746 2.052-2.646 2.052-.468 0-.738-.324-.738-.81 0-.414.036-.702.234-1.602-1.062 1.782-1.98 2.376-3.204 2.376-1.17 0-1.926-.738-1.926-2.106 0-2.916 2.916-6.03 5.256-6.03.756 0 1.062.342 1.17 1.044h.018l.81-2.934c.27-.954.252-1.026.252-1.278 0-.378-.162-.432-1.152-.468v-.306c1.152-.108 1.8-.216 2.754-.414zm-2.97 5.796c0-.648-.432-1.026-.846-1.026-.504 0-1.134.306-1.638.828-1.188 1.26-2.088 3.222-2.088 4.716 0 .828.414 1.314 1.044 1.314 1.656 0 3.528-3.096 3.528-5.832zm8.247-1.206l-.09.576h-1.512l-1.566 5.904a1.412 1.412 0 0 0-.036.252c0 .234.108.288.27.288.288 0 .576-.288 1.458-1.422l.234.126c-1.08 1.656-1.638 2.178-2.574 2.178-.486 0-.828-.216-.828-.666 0-.198.144-.756.288-1.332l1.404-5.328h-1.35c-.018-.054-.018-.108-.018-.108 0-.198.162-.36.594-.45.576-.126 1.746-1.008 2.394-1.98.072-.108.18-.162.252-.162.108 0 .162.054.162.144 0 0 0 .09-.018.126l-.504 1.854h1.44zM72.019 62.557l.169.143c-.975 1.183-1.287 1.43-1.807 1.43-.364 0-.52-.156-.52-.533 0-.325.026-.429.299-1.495-.975 1.469-1.729 2.041-2.639 2.041-.728 0-1.3-.52-1.3-1.508 0-2.015 1.989-4.368 3.718-4.368.559 0 .936.273 1.04.754l.143-.624.039-.039.793-.091.091.039c-.026.117-.039.143-.078.273-.611 2.223-1.157 4.459-1.157 4.719 0 .091.078.169.182.169.117 0 .286-.104.676-.533l.351-.377zm-1.274-3.25c0-.455-.273-.754-.728-.754-.585 0-1.157.403-1.703 1.196-.546.819-1.001 1.976-1.001 2.795 0 .715.312.962.78.962.65 0 1.261-.715 1.651-1.274.611-.884 1.001-2.002 1.001-2.925zm6.554 3.302l.208.13c-.793 1.001-1.482 1.404-2.457 1.404-1.209 0-1.91-.676-1.91-2.002 0-1.209.675-2.34 1.598-3.081.637-.507 1.378-.793 2.171-.793.793 0 1.365.442 1.365 1.053a.624.624 0 0 1-.624.624c-.364 0-.507-.26-.507-.52 0-.234.195-.377.195-.624 0-.156-.182-.26-.48-.26-.52 0-1.04.234-1.418.624-.728.767-1.183 1.872-1.183 3.029 0 .936.416 1.482 1.157 1.482.69 0 1.183-.325 1.885-1.066zm6.009 0l.208.13c-.793 1.001-1.482 1.404-2.457 1.404-1.21 0-1.911-.676-1.911-2.002 0-1.209.676-2.34 1.599-3.081.637-.507 1.378-.793 2.17-.793.794 0 1.366.442 1.366 1.053a.624.624 0 0 1-.624.624c-.364 0-.507-.26-.507-.52 0-.234.195-.377.195-.624 0-.156-.182-.26-.481-.26-.52 0-1.04.234-1.417.624-.728.767-1.183 1.872-1.183 3.029 0 .936.416 1.482 1.157 1.482.689 0 1.183-.325 1.885-1.066zM123.162 52.219L122.46 54h-5.083v-.156l2.314-2.457c1.222-1.287 1.69-2.275 1.69-3.38 0-1.183-.702-1.833-1.807-1.833-.936 0-1.391.416-1.911 1.69l-.273-.065c.273-1.521 1.105-2.587 2.704-2.587 1.469 0 2.405 1.001 2.405 2.288 0 1.027-.507 2.002-1.664 3.224l-2.145 2.288h3.042c.546 0 .819-.143 1.248-.871l.182.078z"/>
        </g>
    </g>
</svg>
