<svg xmlns="http://www.w3.org/2000/svg" width="218" height="90" viewBox="0 0 218 90">
    <g fill="none" fill-rule="evenodd">
        <path fill="#222" d="M1 49.71c.422-.035.712-.111.87-.229.246-.175.448-.542.607-1.098l2.206-7.963c.052-.193.093-.36.123-.501.058-.252.088-.442.088-.571 0-.31-.106-.519-.317-.624-.21-.106-.571-.164-1.08-.176v-.29h8.955L11.89 41l-.37-.035c.018-.194.027-.34.027-.44.006-.14.009-.249.009-.325 0-.545-.211-.908-.633-1.09-.422-.181-1.3-.272-2.637-.272-.568 0-.946.026-1.134.079-.187.053-.31.185-.369.395l-1.186 4.193c1.54-.047 2.474-.14 2.799-.281.325-.141.693-.604 1.103-1.389l.308.088-1.354 4.21-.307-.088c.064-.346.105-.577.123-.694.017-.118.026-.229.026-.334 0-.41-.173-.674-.519-.791-.216-.077-.656-.115-1.318-.115H5.43l-1.099 4c-.088.31-.14.499-.154.566a1.153 1.153 0 0 0-.022.242c0 .316.132.53.396.642.17.07.498.12.984.149V50H1v-.29zM69.366 4.99a.687.687 0 0 1 .004.1v10.583c0 .451.12.738.36.861s.689.196 1.345.22V17h-4.957v-.264c.71-.035 1.172-.132 1.389-.29.217-.158.325-.5.325-1.028V7.279c0-.281-.035-.495-.105-.641-.07-.147-.223-.22-.457-.22-.153 0-.35.042-.594.127-.243.085-.47.175-.68.268v-.246l3.225-1.643h.105c.024.03.037.051.04.066zm6.185 11.927a.972.972 0 0 1-.29-.708.95.95 0 0 1 .294-.703.972.972 0 0 1 .708-.29c.275 0 .51.096.703.29.193.193.29.428.29.703a.98.98 0 0 1-.286.708.946.946 0 0 1-.707.294.96.96 0 0 1-.712-.294zm8.686-1.657c.322-.944.483-2.309.483-4.096 0-1.424-.097-2.56-.29-3.41-.363-1.582-1.043-2.373-2.04-2.373-.995 0-1.678.814-2.047 2.443-.193.867-.29 2.01-.29 3.428 0 1.33.1 2.394.299 3.19.375 1.489 1.078 2.233 2.11 2.233.86 0 1.452-.472 1.775-1.415zm1.336-8.236c.591 1.143.887 2.455.887 3.938a9.848 9.848 0 0 1-.545 3.296c-.685 1.94-1.872 2.909-3.56 2.909-1.154 0-2.103-.524-2.847-1.573-.797-1.12-1.195-2.64-1.195-4.562 0-1.511.266-2.812.8-3.902.72-1.483 1.828-2.224 3.322-2.224 1.347 0 2.393.706 3.138 2.118zM70.082 37.26c.322-.944.483-2.309.483-4.096 0-1.424-.096-2.56-.29-3.41-.363-1.582-1.043-2.373-2.039-2.373-.996 0-1.678.814-2.048 2.443-.193.867-.29 2.01-.29 3.428 0 1.33.1 2.394.3 3.19.374 1.489 1.077 2.233 2.109 2.233.861 0 1.453-.472 1.775-1.415zm1.336-8.236c.592 1.143.888 2.455.888 3.938a9.848 9.848 0 0 1-.545 3.296c-.686 1.94-1.872 2.909-3.56 2.909-1.154 0-2.103-.524-2.847-1.573-.797-1.12-1.196-2.64-1.196-4.562 0-1.511.267-2.812.8-3.902.72-1.483 1.828-2.224 3.322-2.224 1.348 0 2.394.706 3.138 2.118zm4.133 9.893a.972.972 0 0 1-.29-.708.95.95 0 0 1 .294-.703.972.972 0 0 1 .708-.29c.275 0 .51.096.703.29.193.193.29.428.29.703a.98.98 0 0 1-.286.708.946.946 0 0 1-.707.294.96.96 0 0 1-.712-.294zm8.686-1.657c.322-.944.483-2.309.483-4.096 0-1.424-.097-2.56-.29-3.41-.363-1.582-1.043-2.373-2.04-2.373-.995 0-1.678.814-2.047 2.443-.193.867-.29 2.01-.29 3.428 0 1.33.1 2.394.299 3.19.375 1.489 1.078 2.233 2.11 2.233.86 0 1.452-.472 1.775-1.415zm1.336-8.236c.591 1.143.887 2.455.887 3.938a9.848 9.848 0 0 1-.545 3.296c-.685 1.94-1.872 2.909-3.56 2.909-1.154 0-2.103-.524-2.847-1.573-.797-1.12-1.195-2.64-1.195-4.562 0-1.511.266-2.812.8-3.902.72-1.483 1.828-2.224 3.322-2.224 1.347 0 2.393.706 3.138 2.118zM70.082 59.26c.322-.944.483-2.309.483-4.096 0-1.424-.096-2.56-.29-3.41-.363-1.582-1.043-2.373-2.039-2.373-.996 0-1.678.814-2.048 2.443-.193.867-.29 2.01-.29 3.428 0 1.33.1 2.394.3 3.19.374 1.489 1.077 2.233 2.109 2.233.861 0 1.453-.472 1.775-1.415zm1.336-8.236c.592 1.143.888 2.455.888 3.938a9.848 9.848 0 0 1-.545 3.296c-.686 1.94-1.872 2.909-3.56 2.909-1.154 0-2.103-.524-2.847-1.573-.797-1.12-1.196-2.64-1.196-4.562 0-1.511.267-2.812.8-3.902.72-1.483 1.828-2.224 3.322-2.224 1.348 0 2.394.706 3.138 2.118zm4.133 9.893a.972.972 0 0 1-.29-.708.95.95 0 0 1 .294-.703.972.972 0 0 1 .708-.29c.275 0 .51.096.703.29.193.193.29.428.29.703a.98.98 0 0 1-.286.708.946.946 0 0 1-.707.294.96.96 0 0 1-.712-.294zm8.686-1.657c.322-.944.483-2.309.483-4.096 0-1.424-.097-2.56-.29-3.41-.363-1.582-1.043-2.373-2.04-2.373-.995 0-1.678.814-2.047 2.443-.193.867-.29 2.01-.29 3.428 0 1.33.1 2.394.299 3.19.375 1.489 1.078 2.233 2.11 2.233.86 0 1.452-.472 1.775-1.415zm1.336-8.236c.591 1.143.887 2.455.887 3.938a9.848 9.848 0 0 1-.545 3.296c-.685 1.94-1.872 2.909-3.56 2.909-1.154 0-2.103-.524-2.847-1.573-.797-1.12-1.195-2.64-1.195-4.562 0-1.511.266-2.812.8-3.902.72-1.483 1.828-2.224 3.322-2.224 1.347 0 2.393.706 3.138 2.118zM70.082 81.26c.322-.944.483-2.309.483-4.096 0-1.424-.096-2.56-.29-3.41-.363-1.582-1.043-2.373-2.039-2.373-.996 0-1.678.814-2.048 2.443-.193.867-.29 2.01-.29 3.428 0 1.33.1 2.394.3 3.19.374 1.489 1.077 2.233 2.109 2.233.861 0 1.453-.472 1.775-1.415zm1.336-8.236c.592 1.143.888 2.455.888 3.938a9.848 9.848 0 0 1-.545 3.296c-.686 1.94-1.872 2.909-3.56 2.909-1.154 0-2.103-.524-2.847-1.573-.797-1.12-1.196-2.64-1.196-4.562 0-1.511.267-2.812.8-3.902.72-1.483 1.828-2.224 3.322-2.224 1.348 0 2.394.706 3.138 2.118zm4.133 9.893a.972.972 0 0 1-.29-.708.95.95 0 0 1 .294-.703.972.972 0 0 1 .708-.29c.275 0 .51.096.703.29.193.193.29.428.29.703a.98.98 0 0 1-.286.708.946.946 0 0 1-.707.294.96.96 0 0 1-.712-.294zm8.686-1.657c.322-.944.483-2.309.483-4.096 0-1.424-.097-2.56-.29-3.41-.363-1.582-1.043-2.373-2.04-2.373-.995 0-1.678.814-2.047 2.443-.193.867-.29 2.01-.29 3.428 0 1.33.1 2.394.299 3.19.375 1.489 1.078 2.233 2.11 2.233.86 0 1.452-.472 1.775-1.415zm1.336-8.236c.591 1.143.887 2.455.887 3.938a9.848 9.848 0 0 1-.545 3.296c-.685 1.94-1.872 2.909-3.56 2.909-1.154 0-2.103-.524-2.847-1.573-.797-1.12-1.195-2.64-1.195-4.562 0-1.511.266-2.812.8-3.902.72-1.483 1.828-2.224 3.322-2.224 1.347 0 2.393.706 3.138 2.118zM107.082 15.26c.322-.944.483-2.309.483-4.096 0-1.424-.096-2.56-.29-3.41-.363-1.582-1.043-2.373-2.039-2.373-.996 0-1.678.814-2.048 2.443-.193.867-.29 2.01-.29 3.428 0 1.33.1 2.394.3 3.19.374 1.489 1.077 2.233 2.109 2.233.861 0 1.453-.472 1.775-1.415zm1.336-8.236c.592 1.143.888 2.455.888 3.938a9.848 9.848 0 0 1-.545 3.296c-.686 1.94-1.872 2.909-3.56 2.909-1.154 0-2.103-.524-2.847-1.573-.797-1.12-1.196-2.64-1.196-4.562 0-1.511.267-2.812.8-3.902.72-1.483 1.828-2.224 3.322-2.224 1.348 0 2.394.706 3.138 2.118zm4.133 9.893a.972.972 0 0 1-.29-.708.95.95 0 0 1 .294-.703.972.972 0 0 1 .708-.29c.275 0 .51.096.703.29.193.193.29.428.29.703a.98.98 0 0 1-.286.708.946.946 0 0 1-.707.294.96.96 0 0 1-.712-.294zm8.686-1.657c.322-.944.483-2.309.483-4.096 0-1.424-.097-2.56-.29-3.41-.363-1.582-1.043-2.373-2.04-2.373-.995 0-1.678.814-2.047 2.443-.193.867-.29 2.01-.29 3.428 0 1.33.1 2.394.299 3.19.375 1.489 1.078 2.233 2.11 2.233.86 0 1.452-.472 1.775-1.415zm1.336-8.236c.591 1.143.887 2.455.887 3.938a9.848 9.848 0 0 1-.545 3.296c-.685 1.94-1.872 2.909-3.56 2.909-1.154 0-2.103-.524-2.847-1.573-.797-1.12-1.195-2.64-1.195-4.562 0-1.511.266-2.812.8-3.902.72-1.483 1.828-2.224 3.322-2.224 1.347 0 2.393.706 3.138 2.118zM106.366 26.99a.687.687 0 0 1 .004.1v10.583c0 .451.12.738.36.861s.689.196 1.345.22V39h-4.957v-.264c.71-.035 1.172-.132 1.389-.29.217-.158.325-.5.325-1.028v-8.139c0-.281-.035-.495-.105-.641-.07-.147-.223-.22-.457-.22-.153 0-.35.042-.594.127-.243.085-.47.175-.68.268v-.246l3.225-1.643h.105c.024.03.037.051.04.066zm6.185 11.927a.972.972 0 0 1-.29-.708.95.95 0 0 1 .294-.703.972.972 0 0 1 .708-.29c.275 0 .51.096.703.29.193.193.29.428.29.703a.98.98 0 0 1-.286.708.946.946 0 0 1-.707.294.96.96 0 0 1-.712-.294zm8.686-1.657c.322-.944.483-2.309.483-4.096 0-1.424-.097-2.56-.29-3.41-.363-1.582-1.043-2.373-2.04-2.373-.995 0-1.678.814-2.047 2.443-.193.867-.29 2.01-.29 3.428 0 1.33.1 2.394.299 3.19.375 1.489 1.078 2.233 2.11 2.233.86 0 1.452-.472 1.775-1.415zm1.336-8.236c.591 1.143.887 2.455.887 3.938a9.848 9.848 0 0 1-.545 3.296c-.685 1.94-1.872 2.909-3.56 2.909-1.154 0-2.103-.524-2.847-1.573-.797-1.12-1.195-2.64-1.195-4.562 0-1.511.266-2.812.8-3.902.72-1.483 1.828-2.224 3.322-2.224 1.347 0 2.393.706 3.138 2.118zM107.082 59.26c.322-.944.483-2.309.483-4.096 0-1.424-.096-2.56-.29-3.41-.363-1.582-1.043-2.373-2.039-2.373-.996 0-1.678.814-2.048 2.443-.193.867-.29 2.01-.29 3.428 0 1.33.1 2.394.3 3.19.374 1.489 1.077 2.233 2.109 2.233.861 0 1.453-.472 1.775-1.415zm1.336-8.236c.592 1.143.888 2.455.888 3.938a9.848 9.848 0 0 1-.545 3.296c-.686 1.94-1.872 2.909-3.56 2.909-1.154 0-2.103-.524-2.847-1.573-.797-1.12-1.196-2.64-1.196-4.562 0-1.511.267-2.812.8-3.902.72-1.483 1.828-2.224 3.322-2.224 1.348 0 2.394.706 3.138 2.118zm4.133 9.893a.972.972 0 0 1-.29-.708.95.95 0 0 1 .294-.703.972.972 0 0 1 .708-.29c.275 0 .51.096.703.29.193.193.29.428.29.703a.98.98 0 0 1-.286.708.946.946 0 0 1-.707.294.96.96 0 0 1-.712-.294zm8.686-1.657c.322-.944.483-2.309.483-4.096 0-1.424-.097-2.56-.29-3.41-.363-1.582-1.043-2.373-2.04-2.373-.995 0-1.678.814-2.047 2.443-.193.867-.29 2.01-.29 3.428 0 1.33.1 2.394.299 3.19.375 1.489 1.078 2.233 2.11 2.233.86 0 1.452-.472 1.775-1.415zm1.336-8.236c.591 1.143.887 2.455.887 3.938a9.848 9.848 0 0 1-.545 3.296c-.685 1.94-1.872 2.909-3.56 2.909-1.154 0-2.103-.524-2.847-1.573-.797-1.12-1.195-2.64-1.195-4.562 0-1.511.266-2.812.8-3.902.72-1.483 1.828-2.224 3.322-2.224 1.347 0 2.393.706 3.138 2.118zM107.082 81.26c.322-.944.483-2.309.483-4.096 0-1.424-.096-2.56-.29-3.41-.363-1.582-1.043-2.373-2.039-2.373-.996 0-1.678.814-2.048 2.443-.193.867-.29 2.01-.29 3.428 0 1.33.1 2.394.3 3.19.374 1.489 1.077 2.233 2.109 2.233.861 0 1.453-.472 1.775-1.415zm1.336-8.236c.592 1.143.888 2.455.888 3.938a9.848 9.848 0 0 1-.545 3.296c-.686 1.94-1.872 2.909-3.56 2.909-1.154 0-2.103-.524-2.847-1.573-.797-1.12-1.196-2.64-1.196-4.562 0-1.511.267-2.812.8-3.902.72-1.483 1.828-2.224 3.322-2.224 1.348 0 2.394.706 3.138 2.118zm4.133 9.893a.972.972 0 0 1-.29-.708.95.95 0 0 1 .294-.703.972.972 0 0 1 .708-.29c.275 0 .51.096.703.29.193.193.29.428.29.703a.98.98 0 0 1-.286.708.946.946 0 0 1-.707.294.96.96 0 0 1-.712-.294zm8.686-1.657c.322-.944.483-2.309.483-4.096 0-1.424-.097-2.56-.29-3.41-.363-1.582-1.043-2.373-2.04-2.373-.995 0-1.678.814-2.047 2.443-.193.867-.29 2.01-.29 3.428 0 1.33.1 2.394.299 3.19.375 1.489 1.078 2.233 2.11 2.233.86 0 1.452-.472 1.775-1.415zm1.336-8.236c.591 1.143.887 2.455.887 3.938a9.848 9.848 0 0 1-.545 3.296c-.685 1.94-1.872 2.909-3.56 2.909-1.154 0-2.103-.524-2.847-1.573-.797-1.12-1.195-2.64-1.195-4.562 0-1.511.266-2.812.8-3.902.72-1.483 1.828-2.224 3.322-2.224 1.347 0 2.393.706 3.138 2.118zM145.074 15.897c.164.267.443.4.835.4.838 0 1.644-.674 2.417-2.022.727-1.265 1.09-2.463 1.09-3.594 0-.358-.059-.654-.176-.888-.117-.234-.354-.352-.712-.352-.89 0-1.752.721-2.584 2.163-.744 1.289-1.116 2.408-1.116 3.357 0 .357.082.67.246.936zm4.342-6.535c.111.13.2.349.264.66l1.002-3.604a1.583 1.583 0 0 0 .07-.475c0-.228-.043-.372-.127-.43-.085-.059-.207-.088-.365-.088-.1 0-.192.003-.277.009a24.92 24.92 0 0 0-.338.026v-.29c.662-.088 1.579-.24 2.75-.457l.08.088-.018.096-1.687 6.32-1.152 4.183c-.023.094-.042.18-.057.26-.015.079-.022.15-.022.215 0 .158.04.26.119.308.079.046.148.07.206.07.17 0 .41-.15.721-.448.182-.182.43-.463.747-.844l.202.193-.123.185c-.217.322-.495.65-.835.984-.603.592-1.145.888-1.626.888a.884.884 0 0 1-.43-.106c-.24-.14-.36-.392-.36-.755 0-.123.017-.32.052-.59.035-.269.088-.562.158-.878-.445.68-.933 1.236-1.463 1.67-.53.433-1.11.65-1.736.65-.51 0-.955-.181-1.336-.545-.38-.363-.571-.923-.571-1.678 0-1.278.586-2.59 1.757-3.938 1.167-1.342 2.303-2.013 3.41-2.013.464 0 .792.112.985.334zm3.597 6.895c.006-.061.017-.124.035-.189l1.652-6.143h-1.336c0-.158.012-.258.036-.299.023-.041.082-.082.175-.123.592-.252 1.05-.495 1.376-.73.325-.234.769-.685 1.331-1.353l.141-.167a.207.207 0 0 1 .066-.057.17.17 0 0 1 .083-.022c.059.012.1.023.123.035a.37.37 0 0 1 .031.11.396.396 0 0 1-.004.1l-.501 1.917h1.432l-.105.589h-1.494l-1.582 5.915a.417.417 0 0 0 .026.303.244.244 0 0 0 .237.145c.153 0 .367-.152.642-.457.158-.164.425-.49.8-.976l.228.132-.123.185c-.504.756-.947 1.282-1.331 1.578-.384.295-.749.443-1.094.443-.3 0-.516-.079-.65-.237a.805.805 0 0 1-.203-.536c0-.047.003-.101.009-.163zM145.082 37.26c.322-.944.483-2.309.483-4.096 0-1.424-.096-2.56-.29-3.41-.363-1.582-1.043-2.373-2.039-2.373-.996 0-1.678.814-2.048 2.443-.193.867-.29 2.01-.29 3.428 0 1.33.1 2.394.3 3.19.374 1.489 1.077 2.233 2.109 2.233.861 0 1.453-.472 1.775-1.415zm1.336-8.236c.592 1.143.888 2.455.888 3.938a9.848 9.848 0 0 1-.545 3.296c-.686 1.94-1.872 2.909-3.56 2.909-1.154 0-2.103-.524-2.847-1.573-.797-1.12-1.196-2.64-1.196-4.562 0-1.511.267-2.812.8-3.902.72-1.483 1.828-2.224 3.322-2.224 1.348 0 2.394.706 3.138 2.118zm4.133 9.893a.972.972 0 0 1-.29-.708.95.95 0 0 1 .294-.703.972.972 0 0 1 .708-.29c.275 0 .51.096.703.29.193.193.29.428.29.703a.98.98 0 0 1-.286.708.946.946 0 0 1-.707.294.96.96 0 0 1-.712-.294zm8.686-1.657c.322-.944.483-2.309.483-4.096 0-1.424-.097-2.56-.29-3.41-.363-1.582-1.043-2.373-2.04-2.373-.995 0-1.678.814-2.047 2.443-.193.867-.29 2.01-.29 3.428 0 1.33.1 2.394.299 3.19.375 1.489 1.078 2.233 2.11 2.233.86 0 1.452-.472 1.775-1.415zm1.336-8.236c.591 1.143.887 2.455.887 3.938a9.848 9.848 0 0 1-.545 3.296c-.685 1.94-1.872 2.909-3.56 2.909-1.154 0-2.103-.524-2.847-1.573-.797-1.12-1.195-2.64-1.195-4.562 0-1.511.266-2.812.8-3.902.72-1.483 1.828-2.224 3.322-2.224 1.347 0 2.393.706 3.138 2.118zM144.366 48.99a.687.687 0 0 1 .004.1v10.583c0 .451.12.738.36.861s.689.196 1.345.22V61h-4.957v-.264c.71-.035 1.172-.132 1.389-.29.217-.158.325-.5.325-1.028v-8.139c0-.281-.035-.495-.105-.641-.07-.147-.223-.22-.457-.22-.153 0-.35.042-.594.127-.243.085-.47.175-.68.268v-.246l3.225-1.643h.105c.024.03.037.051.04.066zm6.185 11.927a.972.972 0 0 1-.29-.708.95.95 0 0 1 .294-.703.972.972 0 0 1 .708-.29c.275 0 .51.096.703.29.193.193.29.428.29.703a.98.98 0 0 1-.286.708.946.946 0 0 1-.707.294.96.96 0 0 1-.712-.294zm8.686-1.657c.322-.944.483-2.309.483-4.096 0-1.424-.097-2.56-.29-3.41-.363-1.582-1.043-2.373-2.04-2.373-.995 0-1.678.814-2.047 2.443-.193.867-.29 2.01-.29 3.428 0 1.33.1 2.394.299 3.19.375 1.489 1.078 2.233 2.11 2.233.86 0 1.452-.472 1.775-1.415zm1.336-8.236c.591 1.143.887 2.455.887 3.938a9.848 9.848 0 0 1-.545 3.296c-.685 1.94-1.872 2.909-3.56 2.909-1.154 0-2.103-.524-2.847-1.573-.797-1.12-1.195-2.64-1.195-4.562 0-1.511.266-2.812.8-3.902.72-1.483 1.828-2.224 3.322-2.224 1.347 0 2.393.706 3.138 2.118zM145.082 81.26c.322-.944.483-2.309.483-4.096 0-1.424-.096-2.56-.29-3.41-.363-1.582-1.043-2.373-2.039-2.373-.996 0-1.678.814-2.048 2.443-.193.867-.29 2.01-.29 3.428 0 1.33.1 2.394.3 3.19.374 1.489 1.077 2.233 2.109 2.233.861 0 1.453-.472 1.775-1.415zm1.336-8.236c.592 1.143.888 2.455.888 3.938a9.848 9.848 0 0 1-.545 3.296c-.686 1.94-1.872 2.909-3.56 2.909-1.154 0-2.103-.524-2.847-1.573-.797-1.12-1.196-2.64-1.196-4.562 0-1.511.267-2.812.8-3.902.72-1.483 1.828-2.224 3.322-2.224 1.348 0 2.394.706 3.138 2.118zm4.133 9.893a.972.972 0 0 1-.29-.708.95.95 0 0 1 .294-.703.972.972 0 0 1 .708-.29c.275 0 .51.096.703.29.193.193.29.428.29.703a.98.98 0 0 1-.286.708.946.946 0 0 1-.707.294.96.96 0 0 1-.712-.294zm8.686-1.657c.322-.944.483-2.309.483-4.096 0-1.424-.097-2.56-.29-3.41-.363-1.582-1.043-2.373-2.04-2.373-.995 0-1.678.814-2.047 2.443-.193.867-.29 2.01-.29 3.428 0 1.33.1 2.394.299 3.19.375 1.489 1.078 2.233 2.11 2.233.86 0 1.452-.472 1.775-1.415zm1.336-8.236c.591 1.143.887 2.455.887 3.938a9.848 9.848 0 0 1-.545 3.296c-.685 1.94-1.872 2.909-3.56 2.909-1.154 0-2.103-.524-2.847-1.573-.797-1.12-1.195-2.64-1.195-4.562 0-1.511.266-2.812.8-3.902.72-1.483 1.828-2.224 3.322-2.224 1.347 0 2.393.706 3.138 2.118zM184.082 15.26c.322-.944.483-2.309.483-4.096 0-1.424-.096-2.56-.29-3.41-.363-1.582-1.043-2.373-2.039-2.373-.996 0-1.678.814-2.048 2.443-.193.867-.29 2.01-.29 3.428 0 1.33.1 2.394.3 3.19.374 1.489 1.077 2.233 2.109 2.233.861 0 1.453-.472 1.775-1.415zm1.336-8.236c.592 1.143.888 2.455.888 3.938a9.848 9.848 0 0 1-.545 3.296c-.686 1.94-1.872 2.909-3.56 2.909-1.154 0-2.103-.524-2.847-1.573-.797-1.12-1.196-2.64-1.196-4.562 0-1.511.267-2.812.8-3.902.72-1.483 1.828-2.224 3.322-2.224 1.348 0 2.394.706 3.138 2.118zm4.133 9.893a.972.972 0 0 1-.29-.708.95.95 0 0 1 .294-.703.972.972 0 0 1 .708-.29c.275 0 .51.096.703.29.193.193.29.428.29.703a.98.98 0 0 1-.286.708.946.946 0 0 1-.707.294.96.96 0 0 1-.712-.294zm8.686-1.657c.322-.944.483-2.309.483-4.096 0-1.424-.097-2.56-.29-3.41-.363-1.582-1.043-2.373-2.04-2.373-.995 0-1.678.814-2.047 2.443-.193.867-.29 2.01-.29 3.428 0 1.33.1 2.394.299 3.19.375 1.489 1.078 2.233 2.11 2.233.86 0 1.452-.472 1.775-1.415zm1.336-8.236c.591 1.143.887 2.455.887 3.938a9.848 9.848 0 0 1-.545 3.296c-.685 1.94-1.872 2.909-3.56 2.909-1.154 0-2.103-.524-2.847-1.573-.797-1.12-1.195-2.64-1.195-4.562 0-1.511.266-2.812.8-3.902.72-1.483 1.828-2.224 3.322-2.224 1.347 0 2.393.706 3.138 2.118zM183.074 37.897c.164.267.443.4.835.4.838 0 1.644-.674 2.417-2.022.727-1.265 1.09-2.463 1.09-3.594 0-.358-.059-.654-.176-.888-.117-.234-.354-.352-.712-.352-.89 0-1.752.721-2.584 2.163-.744 1.289-1.116 2.408-1.116 3.357 0 .357.082.67.246.936zm4.342-6.535c.111.13.2.349.264.66l1.002-3.604a1.583 1.583 0 0 0 .07-.475c0-.228-.043-.372-.127-.43-.085-.059-.207-.088-.365-.088-.1 0-.192.003-.277.009a24.92 24.92 0 0 0-.338.026v-.29c.662-.088 1.579-.24 2.75-.457l.08.088-.018.096-1.687 6.32-1.152 4.183c-.023.094-.042.18-.057.26-.015.079-.022.15-.022.215 0 .158.04.26.119.308.079.046.148.07.206.07.17 0 .41-.15.721-.448.182-.182.43-.463.747-.844l.202.193-.123.185c-.217.322-.495.65-.835.984-.603.592-1.145.888-1.626.888a.884.884 0 0 1-.43-.106c-.24-.14-.36-.392-.36-.755 0-.123.017-.32.052-.59.035-.269.088-.562.158-.878-.445.68-.933 1.236-1.463 1.67-.53.433-1.11.65-1.736.65-.51 0-.955-.181-1.336-.545-.38-.363-.571-.923-.571-1.678 0-1.278.586-2.59 1.757-3.938 1.167-1.342 2.303-2.013 3.41-2.013.464 0 .792.112.985.334zm3.597 6.895c.006-.061.017-.124.035-.189l1.652-6.143h-1.336c0-.158.012-.258.036-.299.023-.041.082-.082.175-.123.592-.252 1.05-.495 1.376-.73.325-.234.769-.685 1.331-1.353l.141-.167a.207.207 0 0 1 .066-.057.17.17 0 0 1 .083-.022c.059.012.1.023.123.035a.37.37 0 0 1 .031.11.396.396 0 0 1-.004.1l-.501 1.917h1.432l-.105.589h-1.494l-1.582 5.915a.417.417 0 0 0 .026.303.244.244 0 0 0 .237.145c.153 0 .367-.152.642-.457.158-.164.425-.49.8-.976l.228.132-.123.185c-.504.756-.947 1.282-1.331 1.578-.384.295-.749.443-1.094.443-.3 0-.516-.079-.65-.237a.805.805 0 0 1-.203-.536c0-.047.003-.101.009-.163zM183.082 59.26c.322-.944.483-2.309.483-4.096 0-1.424-.096-2.56-.29-3.41-.363-1.582-1.043-2.373-2.039-2.373-.996 0-1.678.814-2.048 2.443-.193.867-.29 2.01-.29 3.428 0 1.33.1 2.394.3 3.19.374 1.489 1.077 2.233 2.109 2.233.861 0 1.453-.472 1.775-1.415zm1.336-8.236c.592 1.143.888 2.455.888 3.938a9.848 9.848 0 0 1-.545 3.296c-.686 1.94-1.872 2.909-3.56 2.909-1.154 0-2.103-.524-2.847-1.573-.797-1.12-1.196-2.64-1.196-4.562 0-1.511.267-2.812.8-3.902.72-1.483 1.828-2.224 3.322-2.224 1.348 0 2.394.706 3.138 2.118zm4.133 9.893a.972.972 0 0 1-.29-.708.95.95 0 0 1 .294-.703.972.972 0 0 1 .708-.29c.275 0 .51.096.703.29.193.193.29.428.29.703a.98.98 0 0 1-.286.708.946.946 0 0 1-.707.294.96.96 0 0 1-.712-.294zm8.686-1.657c.322-.944.483-2.309.483-4.096 0-1.424-.097-2.56-.29-3.41-.363-1.582-1.043-2.373-2.04-2.373-.995 0-1.678.814-2.047 2.443-.193.867-.29 2.01-.29 3.428 0 1.33.1 2.394.299 3.19.375 1.489 1.078 2.233 2.11 2.233.86 0 1.452-.472 1.775-1.415zm1.336-8.236c.591 1.143.887 2.455.887 3.938a9.848 9.848 0 0 1-.545 3.296c-.685 1.94-1.872 2.909-3.56 2.909-1.154 0-2.103-.524-2.847-1.573-.797-1.12-1.195-2.64-1.195-4.562 0-1.511.266-2.812.8-3.902.72-1.483 1.828-2.224 3.322-2.224 1.347 0 2.393.706 3.138 2.118zM182.366 70.99a.687.687 0 0 1 .004.1v10.583c0 .451.12.738.36.861s.689.196 1.345.22V83h-4.957v-.264c.71-.035 1.172-.132 1.389-.29.217-.158.325-.5.325-1.028v-8.139c0-.281-.035-.495-.105-.641-.07-.147-.223-.22-.457-.22-.153 0-.35.042-.594.127-.243.085-.47.175-.68.268v-.246l3.225-1.643h.105c.024.03.037.051.04.066zm6.185 11.927a.972.972 0 0 1-.29-.708.95.95 0 0 1 .294-.703.972.972 0 0 1 .708-.29c.275 0 .51.096.703.29.193.193.29.428.29.703a.98.98 0 0 1-.286.708.946.946 0 0 1-.707.294.96.96 0 0 1-.712-.294zm8.686-1.657c.322-.944.483-2.309.483-4.096 0-1.424-.097-2.56-.29-3.41-.363-1.582-1.043-2.373-2.04-2.373-.995 0-1.678.814-2.047 2.443-.193.867-.29 2.01-.29 3.428 0 1.33.1 2.394.299 3.19.375 1.489 1.078 2.233 2.11 2.233.86 0 1.452-.472 1.775-1.415zm1.336-8.236c.591 1.143.887 2.455.887 3.938a9.848 9.848 0 0 1-.545 3.296c-.685 1.94-1.872 2.909-3.56 2.909-1.154 0-2.103-.524-2.847-1.573-.797-1.12-1.195-2.64-1.195-4.562 0-1.511.266-2.812.8-3.902.72-1.483 1.828-2.224 3.322-2.224 1.347 0 2.393.706 3.138 2.118zM37.065 44.17l-.22 1.064H27.82l.22-1.063h9.026zm-.755 3.56l-.22 1.064h-9.027l.22-1.064h9.027zM12.178 54l2.031-7.7.022-.11a.638.638 0 0 0 .01-.112c0-.186-.054-.298-.162-.336-.108-.038-.34-.053-.695-.045v-.21a38.352 38.352 0 0 0 1.219-.17c.038-.01.184-.04.438-.096.253-.055.393-.082.418-.082l.013.063-1.593 5.954c.956-.753 1.604-1.28 1.942-1.58.339-.3.508-.527.508-.68 0-.101-.045-.165-.136-.19-.091-.025-.287-.044-.588-.057v-.216h2.38v.216a1.649 1.649 0 0 0-.869.305c-.266.186-.95.75-2.05 1.694.575 1.342.935 2.15 1.079 2.422.144.273.29.41.438.41.127 0 .26-.09.4-.267.093-.114.226-.322.4-.622l.197.133c-.271.495-.511.857-.72 1.086-.21.228-.453.342-.728.342a.682.682 0 0 1-.482-.206c-.144-.137-.337-.458-.578-.962-.097-.194-.21-.44-.34-.736-.128-.296-.263-.628-.402-.997l-.59.432L13.154 54h-.977z"/>
        <path fill="#0155FC" fill-rule="nonzero" d="M53 87.511a.5.5 0 1 1 0 1h-5a.5.5 0 0 1-.5-.5V2a.5.5 0 0 1 .5-.5h5a.5.5 0 1 1 0 1h-4.5v85.011H53zM211.5 88.011a.5.5 0 0 0 0 1h5a.5.5 0 0 0 .5-.5V2.5a.5.5 0 0 0-.5-.5h-5a.5.5 0 0 0 0 1h4.5v85.011h-4.5z"/>
    </g>
</svg>
