<svg xmlns="http://www.w3.org/2000/svg" width="404" height="90" viewBox="0 0 404 90">
    <g fill="none" fill-rule="evenodd">
        <path fill="#222" d="M9.387 46.45c.884-1.741 1.327-3.355 1.327-4.844 0-.92-.2-1.639-.598-2.157-.398-.519-.999-.778-1.802-.778-1.546 0-2.865 1.034-3.955 3.102-.92 1.747-1.38 3.425-1.38 5.037 0 .937.207 1.652.62 2.144.413.492.995.738 1.745.738 1.6 0 2.947-1.08 4.043-3.243zm-5.353 4.886l.237-.013c.053-.003.112-.005.176-.005.434 0 1.137.123 2.11.37.972.246 1.705.369 2.197.369.75 0 1.386-.15 1.907-.449.305-.17.665-.468 1.081-.896l.273.184c-.698.973-1.565 1.659-2.602 2.057a5.082 5.082 0 0 1-1.81.343c-.475 0-1.24-.132-2.294-.396-1.055-.263-1.752-.395-2.092-.395a3.748 3.748 0 0 0-1.969.58l-.193-.29c.685-.48 1.321-.964 1.907-1.45.357-.305.785-.683 1.283-1.134-.861-.094-1.611-.507-2.25-1.24-.639-.732-.958-1.707-.958-2.926 0-1.94.77-3.759 2.312-5.458 1.547-1.705 3.216-2.558 5.01-2.558 1.265 0 2.287.41 3.067 1.23.78.821 1.169 1.826 1.169 3.015 0 2.145-.806 4.043-2.417 5.696-1.57 1.611-3.284 2.387-5.142 2.329l-1.002 1.037zM39.065 43.17l-.22 1.064H29.82l.22-1.063h9.026zm-.755 3.56l-.22 1.064h-9.027l.22-1.064h9.027zM15.178 53l2.031-7.7.022-.11a.638.638 0 0 0 .01-.112c0-.186-.054-.298-.162-.336-.108-.038-.34-.053-.695-.045v-.21a38.352 38.352 0 0 0 1.219-.17c.038-.01.184-.04.438-.096.253-.055.393-.082.418-.082l.013.063-1.593 5.954c.956-.753 1.604-1.28 1.942-1.58.339-.3.508-.527.508-.68 0-.101-.045-.165-.136-.19-.091-.025-.287-.044-.588-.057v-.216h2.38v.216a1.649 1.649 0 0 0-.869.305c-.266.186-.95.75-2.05 1.694.575 1.342.935 2.15 1.079 2.422.144.273.29.41.438.41.127 0 .26-.09.4-.267.093-.114.226-.322.4-.622l.197.133c-.271.495-.511.857-.72 1.086-.21.228-.453.342-.728.342a.682.682 0 0 1-.482-.206c-.144-.137-.337-.458-.578-.962-.097-.194-.21-.44-.34-.736-.128-.296-.263-.628-.402-.997l-.59.432L16.154 53h-.977z"/>
        <g fill="#222">
            <path d="M77.846 8.296l-.36 1.314h-3.114c.396 1.134 1.512 1.224 1.512 2.574 0 2.016-1.998 4.014-4.608 4.014-1.854 0-2.556-1.584-2.556-2.88 0-3.06 2.34-5.022 4.68-5.022h4.446zM73.148 9.61h-.036c-1.206.108-2.934 1.656-2.934 4.212 0 .576.198 1.836 1.17 1.836 1.782 0 3.096-2.268 3.096-3.726a2.746 2.746 0 0 0-1.296-2.322zM85.162 8.219L84.46 10h-5.083v-.156l2.314-2.457c1.222-1.287 1.69-2.275 1.69-3.38 0-1.183-.702-1.833-1.807-1.833-.936 0-1.391.416-1.911 1.69l-.273-.065c.273-1.521 1.105-2.587 2.704-2.587 1.469 0 2.405 1.001 2.405 2.288 0 1.027-.507 2.002-1.664 3.224L80.69 9.012h3.042c.546 0 .819-.143 1.248-.871l.182.078zM82.795 15.436l-.377 1.3c.702-1.053 1.443-1.469 2.223-1.469.962 0 1.495.611 1.495 1.625 0 2.145-1.963 4.251-3.861 4.251-.299 0-.572-.052-.897-.221-.221.91-.52 1.976-.52 2.158 0 .286.195.377.806.377v.208h-2.639v-.208c.559-.013.728-.208.884-.819l1.495-5.616c.143-.52.208-.858.208-.923 0-.312-.364-.351-.572-.351h-.286l-.026-.195 2.028-.286c.039 0 .065.026.065.052 0 0-.013.065-.026.117zm2.171 1.495c0-.741-.221-1.105-.806-1.105-.689 0-1.456.702-1.755 1.482-.377.975-.845 2.652-.845 3.094 0 .286.26.494.624.494.689 0 1.313-.429 1.885-1.235.624-.871.897-1.82.897-2.73zm7.906.156c0 .988-.52 2.132-1.378 2.977-.754.754-1.586 1.079-2.444 1.079-1.222 0-1.91-.676-1.91-1.807 0-1.456.974-2.951 2.34-3.679a3.228 3.228 0 0 1 1.56-.39c1.052 0 1.832.676 1.832 1.82zm-1.092-.325c0-.793-.364-1.222-.923-1.222-.572 0-1.144.403-1.664 1.183-.598.91-.962 1.937-.962 2.964 0 .78.403 1.183 1.014 1.183.572 0 1.066-.377 1.573-1.079.598-.819.962-2.041.962-3.029zm6.503-1.508l-.26 1.82h-.208c-.13-1.079-.52-1.508-1.157-1.508-.455 0-.767.26-.767.741 0 .351.195.728.702 1.326.65.754.884 1.261.884 1.768 0 1.079-.793 1.742-1.872 1.742-.221 0-.416-.013-.715-.13a1.383 1.383 0 0 0-.572-.117c-.143 0-.286.065-.377.273h-.208l.26-2.067h.208c.182 1.235.624 1.768 1.3 1.768.61 0 .988-.364.988-1.001 0-.416-.221-.858-.728-1.495-.56-.702-.82-1.287-.82-1.703 0-.858.612-1.404 1.574-1.404.22 0 .403.039.728.13.247.078.364.091.468.091.195 0 .286-.052.39-.234h.182zm9.05-2.743v.208c-.559.182-.975.481-1.625 1.235l-2.197 2.522 1.313 3.315c.312.78.481.897 1.365 1.001V21h-3.523v-.208c.78-.013 1.001-.169 1.001-.481 0-.169-.078-.403-.182-.663l-.87-2.145-1.964 2.236c-.182.208-.299.442-.299.624 0 .286.234.429.858.429V21h-2.769v-.208c.728-.13 1.08-.52 2.86-2.6l1.08-1.261-1.34-3.315c-.247-.624-.48-.832-1.235-.897v-.208h3.42v.208c-.716.091-.924.208-.924.533 0 .169.065.377.208.728l.767 1.911 1.885-2.171c.182-.208.273-.403.273-.559 0-.247-.234-.416-.793-.442v-.208h2.691z"/>
        </g>
        <path fill="#222" d="M84.082 37.26c.322-.944.483-2.309.483-4.096 0-1.424-.096-2.56-.29-3.41-.363-1.582-1.043-2.373-2.039-2.373-.996 0-1.678.814-2.048 2.443-.193.867-.29 2.01-.29 3.428 0 1.33.1 2.394.3 3.19.374 1.489 1.077 2.233 2.109 2.233.861 0 1.453-.472 1.775-1.415zm1.336-8.236c.592 1.143.888 2.455.888 3.938a9.848 9.848 0 0 1-.545 3.296c-.686 1.94-1.872 2.909-3.56 2.909-1.154 0-2.103-.524-2.847-1.573-.797-1.12-1.196-2.64-1.196-4.562 0-1.511.267-2.812.8-3.902.72-1.483 1.828-2.224 3.322-2.224 1.348 0 2.394.706 3.138 2.118zm4.133 9.893a.972.972 0 0 1-.29-.708.95.95 0 0 1 .294-.703.972.972 0 0 1 .708-.29c.275 0 .51.096.703.29.193.193.29.428.29.703a.98.98 0 0 1-.286.708.946.946 0 0 1-.707.294.96.96 0 0 1-.712-.294zm8.686-1.657c.322-.944.483-2.309.483-4.096 0-1.424-.097-2.56-.29-3.41-.363-1.582-1.043-2.373-2.04-2.373-.995 0-1.678.814-2.047 2.443-.193.867-.29 2.01-.29 3.428 0 1.33.1 2.394.299 3.19.375 1.489 1.078 2.233 2.11 2.233.86 0 1.452-.472 1.775-1.415zm1.336-8.236c.591 1.143.887 2.455.887 3.938a9.848 9.848 0 0 1-.545 3.296c-.685 1.94-1.872 2.909-3.56 2.909-1.154 0-2.103-.524-2.847-1.573-.797-1.12-1.195-2.64-1.195-4.562 0-1.511.266-2.812.8-3.902.72-1.483 1.828-2.224 3.322-2.224 1.347 0 2.393.706 3.138 2.118zM84.082 60.26c.322-.944.483-2.309.483-4.096 0-1.424-.096-2.56-.29-3.41-.363-1.582-1.043-2.373-2.039-2.373-.996 0-1.678.814-2.048 2.443-.193.867-.29 2.01-.29 3.428 0 1.33.1 2.394.3 3.19.374 1.489 1.077 2.233 2.109 2.233.861 0 1.453-.472 1.775-1.415zm1.336-8.236c.592 1.143.888 2.455.888 3.938a9.848 9.848 0 0 1-.545 3.296c-.686 1.94-1.872 2.909-3.56 2.909-1.154 0-2.103-.524-2.847-1.573-.797-1.12-1.196-2.64-1.196-4.562 0-1.511.267-2.812.8-3.902.72-1.483 1.828-2.224 3.322-2.224 1.348 0 2.394.706 3.138 2.118zm4.133 9.893a.972.972 0 0 1-.29-.708.95.95 0 0 1 .294-.703.972.972 0 0 1 .708-.29c.275 0 .51.096.703.29.193.193.29.428.29.703a.98.98 0 0 1-.286.708.946.946 0 0 1-.707.294.96.96 0 0 1-.712-.294zm8.686-1.657c.322-.944.483-2.309.483-4.096 0-1.424-.097-2.56-.29-3.41-.363-1.582-1.043-2.373-2.04-2.373-.995 0-1.678.814-2.047 2.443-.193.867-.29 2.01-.29 3.428 0 1.33.1 2.394.299 3.19.375 1.489 1.078 2.233 2.11 2.233.86 0 1.452-.472 1.775-1.415zm1.336-8.236c.591 1.143.887 2.455.887 3.938a9.848 9.848 0 0 1-.545 3.296c-.685 1.94-1.872 2.909-3.56 2.909-1.154 0-2.103-.524-2.847-1.573-.797-1.12-1.195-2.64-1.195-4.562 0-1.511.266-2.812.8-3.902.72-1.483 1.828-2.224 3.322-2.224 1.347 0 2.393.706 3.138 2.118zM84.082 82.26c.322-.944.483-2.309.483-4.096 0-1.424-.096-2.56-.29-3.41-.363-1.582-1.043-2.373-2.039-2.373-.996 0-1.678.814-2.048 2.443-.193.867-.29 2.01-.29 3.428 0 1.33.1 2.394.3 3.19.374 1.489 1.077 2.233 2.109 2.233.861 0 1.453-.472 1.775-1.415zm1.336-8.236c.592 1.143.888 2.455.888 3.938a9.848 9.848 0 0 1-.545 3.296c-.686 1.94-1.872 2.909-3.56 2.909-1.154 0-2.103-.524-2.847-1.573-.797-1.12-1.196-2.64-1.196-4.562 0-1.511.267-2.812.8-3.902.72-1.483 1.828-2.224 3.322-2.224 1.348 0 2.394.706 3.138 2.118zm4.133 9.893a.972.972 0 0 1-.29-.708.95.95 0 0 1 .294-.703.972.972 0 0 1 .708-.29c.275 0 .51.096.703.29.193.193.29.428.29.703a.98.98 0 0 1-.286.708.946.946 0 0 1-.707.294.96.96 0 0 1-.712-.294zm8.686-1.657c.322-.944.483-2.309.483-4.096 0-1.424-.097-2.56-.29-3.41-.363-1.582-1.043-2.373-2.04-2.373-.995 0-1.678.814-2.047 2.443-.193.867-.29 2.01-.29 3.428 0 1.33.1 2.394.299 3.19.375 1.489 1.078 2.233 2.11 2.233.86 0 1.452-.472 1.775-1.415zm1.336-8.236c.591 1.143.887 2.455.887 3.938a9.848 9.848 0 0 1-.545 3.296c-.685 1.94-1.872 2.909-3.56 2.909-1.154 0-2.103-.524-2.847-1.573-.797-1.12-1.195-2.64-1.195-4.562 0-1.511.266-2.812.8-3.902.72-1.483 1.828-2.224 3.322-2.224 1.347 0 2.393.706 3.138 2.118zM140.082 16.26c.322-.944.483-2.309.483-4.096 0-1.424-.096-2.56-.29-3.41-.363-1.582-1.043-2.373-2.039-2.373-.996 0-1.678.814-2.048 2.443-.193.867-.29 2.01-.29 3.428 0 1.33.1 2.394.3 3.19.374 1.489 1.077 2.233 2.109 2.233.861 0 1.453-.472 1.775-1.415zm1.336-8.236c.592 1.143.888 2.455.888 3.938a9.848 9.848 0 0 1-.545 3.296c-.686 1.94-1.872 2.909-3.56 2.909-1.154 0-2.103-.524-2.847-1.573-.797-1.12-1.196-2.64-1.196-4.562 0-1.511.267-2.812.8-3.902.72-1.483 1.828-2.224 3.322-2.224 1.348 0 2.394.706 3.138 2.118zm4.133 9.893a.972.972 0 0 1-.29-.708.95.95 0 0 1 .294-.703.972.972 0 0 1 .708-.29c.275 0 .51.096.703.29.193.193.29.428.29.703a.98.98 0 0 1-.286.708.946.946 0 0 1-.707.294.96.96 0 0 1-.712-.294zm8.686-1.657c.322-.944.483-2.309.483-4.096 0-1.424-.097-2.56-.29-3.41-.363-1.582-1.043-2.373-2.04-2.373-.995 0-1.678.814-2.047 2.443-.193.867-.29 2.01-.29 3.428 0 1.33.1 2.394.299 3.19.375 1.489 1.078 2.233 2.11 2.233.86 0 1.452-.472 1.775-1.415zm1.336-8.236c.591 1.143.887 2.455.887 3.938a9.848 9.848 0 0 1-.545 3.296c-.685 1.94-1.872 2.909-3.56 2.909-1.154 0-2.103-.524-2.847-1.573-.797-1.12-1.195-2.64-1.195-4.562 0-1.511.266-2.812.8-3.902.72-1.483 1.828-2.224 3.322-2.224 1.347 0 2.393.706 3.138 2.118z"/>
        <g fill="#222">
            <path d="M133.846 31.296l-.36 1.314h-3.114c.396 1.134 1.512 1.224 1.512 2.574 0 2.016-1.998 4.014-4.608 4.014-1.854 0-2.556-1.584-2.556-2.88 0-3.06 2.34-5.022 4.68-5.022h4.446zm-4.698 1.314h-.036c-1.206.108-2.934 1.656-2.934 4.212 0 .576.198 1.836 1.17 1.836 1.782 0 3.096-2.268 3.096-3.726a2.746 2.746 0 0 0-1.296-2.322zM141.162 31.219L140.46 33h-5.083v-.156l2.314-2.457c1.222-1.287 1.69-2.275 1.69-3.38 0-1.183-.702-1.833-1.807-1.833-.936 0-1.391.416-1.911 1.69l-.273-.065c.273-1.521 1.105-2.587 2.704-2.587 1.469 0 2.405 1.001 2.405 2.288 0 1.027-.507 2.002-1.664 3.224l-2.145 2.288h3.042c.546 0 .819-.143 1.248-.871l.182.078zM137.795 38.436l-.377 1.3c.702-1.053 1.443-1.469 2.223-1.469.962 0 1.495.611 1.495 1.625 0 2.145-1.963 4.251-3.861 4.251-.299 0-.572-.052-.897-.221-.221.91-.52 1.976-.52 2.158 0 .286.195.377.806.377v.208h-2.639v-.208c.559-.013.728-.208.884-.819l1.495-5.616c.143-.52.208-.858.208-.923 0-.312-.364-.351-.572-.351h-.286l-.026-.195 2.028-.286c.039 0 .065.026.065.052 0 0-.013.065-.026.117zm2.171 1.495c0-.741-.221-1.105-.806-1.105-.689 0-1.456.702-1.755 1.482-.377.975-.845 2.652-.845 3.094 0 .286.26.494.624.494.689 0 1.313-.429 1.885-1.235.624-.871.897-1.82.897-2.73zm7.906.156c0 .988-.52 2.132-1.378 2.977-.754.754-1.586 1.079-2.444 1.079-1.222 0-1.91-.676-1.91-1.807 0-1.456.974-2.951 2.34-3.679a3.228 3.228 0 0 1 1.56-.39c1.052 0 1.832.676 1.832 1.82zm-1.092-.325c0-.793-.364-1.222-.923-1.222-.572 0-1.144.403-1.664 1.183-.598.91-.962 1.937-.962 2.964 0 .78.403 1.183 1.014 1.183.572 0 1.066-.377 1.573-1.079.598-.819.962-2.041.962-3.029zm6.503-1.508l-.26 1.82h-.208c-.13-1.079-.52-1.508-1.157-1.508-.455 0-.767.26-.767.741 0 .351.195.728.702 1.326.65.754.884 1.261.884 1.768 0 1.079-.793 1.742-1.872 1.742-.221 0-.416-.013-.715-.13a1.383 1.383 0 0 0-.572-.117c-.143 0-.286.065-.377.273h-.208l.26-2.067h.208c.182 1.235.624 1.768 1.3 1.768.61 0 .988-.364.988-1.001 0-.416-.221-.858-.728-1.495-.56-.702-.82-1.287-.82-1.703 0-.858.612-1.404 1.574-1.404.22 0 .403.039.728.13.247.078.364.091.468.091.195 0 .286-.052.39-.234h.182zm8.764-2.743v.208c-.377.13-.48.26-.91.793l-2.847 3.51-.468 1.599c-.299 1.027-.39 1.378-.39 1.651 0 .325.182.442.69.481l.467.039V44h-3.757v-.208c.858-.052 1.157-.221 1.391-1.053l.767-2.665-.988-3.471c-.195-.676-.273-.78-1-.884v-.208h3.106v.208c-.78.078-.936.182-.936.468 0 .195.156.767.468 1.872l.403 1.43.507-.598c1.365-1.612 1.937-2.418 1.937-2.769 0-.221-.143-.325-.52-.364l-.377-.039v-.208h2.457z"/>
        </g>
        <g fill="#222">
            <path d="M189.846 8.296l-.36 1.314h-3.114c.396 1.134 1.512 1.224 1.512 2.574 0 2.016-1.998 4.014-4.608 4.014-1.854 0-2.556-1.584-2.556-2.88 0-3.06 2.34-5.022 4.68-5.022h4.446zm-4.698 1.314h-.036c-1.206.108-2.934 1.656-2.934 4.212 0 .576.198 1.836 1.17 1.836 1.782 0 3.096-2.268 3.096-3.726a2.746 2.746 0 0 0-1.296-2.322zM193.795 13.436l-.377 1.3c.702-1.053 1.443-1.469 2.223-1.469.962 0 1.495.611 1.495 1.625 0 2.145-1.963 4.251-3.861 4.251-.299 0-.572-.052-.897-.221-.221.91-.52 1.976-.52 2.158 0 .286.195.377.806.377v.208h-2.639v-.208c.559-.013.728-.208.884-.819l1.495-5.616c.143-.52.208-.858.208-.923 0-.312-.364-.351-.572-.351h-.286l-.026-.195 2.028-.286c.039 0 .065.026.065.052 0 0-.013.065-.026.117zm2.171 1.495c0-.741-.221-1.105-.806-1.105-.689 0-1.456.702-1.755 1.482-.377.975-.845 2.652-.845 3.094 0 .286.26.494.624.494.689 0 1.313-.429 1.885-1.235.624-.871.897-1.82.897-2.73zm7.906.156c0 .988-.52 2.132-1.378 2.977-.754.754-1.586 1.079-2.444 1.079-1.222 0-1.91-.676-1.91-1.807 0-1.456.974-2.951 2.34-3.679a3.228 3.228 0 0 1 1.56-.39c1.052 0 1.832.676 1.832 1.82zm-1.092-.325c0-.793-.364-1.222-.923-1.222-.572 0-1.144.403-1.664 1.183-.598.91-.962 1.937-.962 2.964 0 .78.403 1.183 1.014 1.183.572 0 1.066-.377 1.573-1.079.598-.819.962-2.041.962-3.029zm6.503-1.508l-.26 1.82h-.208c-.13-1.079-.52-1.508-1.157-1.508-.455 0-.767.26-.767.741 0 .351.195.728.702 1.326.65.754.884 1.261.884 1.768 0 1.079-.793 1.742-1.872 1.742-.221 0-.416-.013-.715-.13a1.383 1.383 0 0 0-.572-.117c-.143 0-.286.065-.377.273h-.208l.26-2.067h.208c.182 1.235.624 1.768 1.3 1.768.61 0 .988-.364.988-1.001 0-.416-.221-.858-.728-1.495-.56-.702-.82-1.287-.82-1.703 0-.858.612-1.404 1.574-1.404.22 0 .403.039.728.13.247.078.364.091.468.091.195 0 .286-.052.39-.234h.182zm9.05-2.743v.208c-.559.182-.975.481-1.625 1.235l-2.197 2.522 1.313 3.315c.312.78.481.897 1.365 1.001V19h-3.523v-.208c.78-.013 1.001-.169 1.001-.481 0-.169-.078-.403-.182-.663l-.87-2.145-1.964 2.236c-.182.208-.299.442-.299.624 0 .286.234.429.858.429V19h-2.769v-.208c.728-.13 1.08-.52 2.86-2.6l1.08-1.261-1.34-3.315c-.247-.624-.48-.832-1.235-.897v-.208h3.42v.208c-.716.091-.924.208-.924.533 0 .169.065.377.208.728l.767 1.911 1.885-2.171c.182-.208.273-.403.273-.559 0-.247-.234-.416-.793-.442v-.208h2.691z"/>
        </g>
        <g fill="#222">
            <path d="M249.846 8.296l-.36 1.314h-3.114c.396 1.134 1.512 1.224 1.512 2.574 0 2.016-1.998 4.014-4.608 4.014-1.854 0-2.556-1.584-2.556-2.88 0-3.06 2.34-5.022 4.68-5.022h4.446zm-4.698 1.314h-.036c-1.206.108-2.934 1.656-2.934 4.212 0 .576.198 1.836 1.17 1.836 1.782 0 3.096-2.268 3.096-3.726a2.746 2.746 0 0 0-1.296-2.322zM255.993 17.453l.182.117c-.845 1.287-1.183 1.547-1.794 1.547-.39 0-.624-.221-.624-.624 0-.286.169-1.157.585-2.561-1.534 2.522-2.184 3.211-3.107 3.211-.455 0-.689-.208-.689-.689 0-.247.117-.715.351-1.664l.455-1.807c.104-.429.182-.767.182-.871a.285.285 0 0 0-.143-.234c-.117-.065-.156-.078-.65-.078v-.182a17.06 17.06 0 0 0 1.95-.351l.052.039-1.157 4.615a.985.985 0 0 0-.039.208c0 .195.065.325.26.325.442 0 1.04-.689 1.846-1.911.611-.923.793-1.417 1.43-3.159h.962l-1.027 3.887c-.065.247-.247.858-.247 1.014 0 .143.052.221.143.221.208 0 .416-.182 1.079-1.053zm5.397.13l.156.156c-.74.91-1.573 1.404-2.652 1.404-1.053 0-1.755-.702-1.755-1.781 0-2.015 1.937-4.095 3.887-4.095.69 0 1.066.338 1.066.884 0 1.118-1.365 2.132-3.692 2.431-.13.26-.13.598-.13.793 0 .715.481 1.183 1.21 1.183.571 0 .974-.208 1.91-.975zm-2.678-1.859l-.22.572c1.117-.273 1.611-.507 2.092-.962.403-.39.65-.858.65-1.261 0-.312-.09-.507-.455-.507-.74 0-1.625 1.001-2.067 2.158zm7.66-5.538l-1.99 7.605a2.603 2.603 0 0 0-.103.559c0 .156.09.234.22.234.196 0 .495-.208.872-.741l.325-.455.182.13c-.78 1.235-1.261 1.625-1.963 1.625-.416 0-.637-.247-.637-.728 0-.104.013-.26.052-.39l1.78-6.812c.04-.13.04-.208.04-.247 0-.156-.221-.286-.637-.286h-.234v-.208a18.161 18.161 0 0 0 2.015-.351l.078.065zm8.738.325v.208c-.559.182-.975.481-1.625 1.235l-2.197 2.522 1.313 3.315c.312.78.481.897 1.365 1.001V19h-3.523v-.208c.78-.013 1.001-.169 1.001-.481 0-.169-.078-.403-.182-.663l-.87-2.145-1.964 2.236c-.182.208-.299.442-.299.624 0 .286.234.429.858.429V19h-2.769v-.208c.728-.13 1.08-.52 2.86-2.6l1.08-1.261-1.34-3.315c-.247-.624-.48-.832-1.235-.897v-.208h3.42v.208c-.716.091-.924.208-.924.533 0 .169.065.377.208.728l.767 1.911 1.885-2.171c.182-.208.273-.403.273-.559 0-.247-.234-.416-.793-.442v-.208h2.691z"/>
        </g>
        <g fill="#222">
            <path d="M220.846 53.296l-.36 1.314h-3.114c.396 1.134 1.512 1.224 1.512 2.574 0 2.016-1.998 4.014-4.608 4.014-1.854 0-2.556-1.584-2.556-2.88 0-3.06 2.34-5.022 4.68-5.022h4.446zm-4.698 1.314h-.036c-1.206.108-2.934 1.656-2.934 4.212 0 .576.198 1.836 1.17 1.836 1.782 0 3.096-2.268 3.096-3.726a2.746 2.746 0 0 0-1.296-2.322zM227.162 53.219L226.46 55h-5.083v-.156l2.314-2.457c1.222-1.287 1.69-2.275 1.69-3.38 0-1.183-.702-1.833-1.807-1.833-.936 0-1.391.416-1.911 1.69l-.273-.065c.273-1.521 1.105-2.587 2.704-2.587 1.469 0 2.405 1.001 2.405 2.288 0 1.027-.507 2.002-1.664 3.224l-2.145 2.288h3.042c.546 0 .819-.143 1.248-.871l.182.078zM226.993 64.453l.182.117c-.845 1.287-1.183 1.547-1.794 1.547-.39 0-.624-.221-.624-.624 0-.286.169-1.157.585-2.561-1.534 2.522-2.184 3.211-3.107 3.211-.455 0-.689-.208-.689-.689 0-.247.117-.715.351-1.664l.455-1.807c.104-.429.182-.767.182-.871a.285.285 0 0 0-.143-.234c-.117-.065-.156-.078-.65-.078v-.182a17.06 17.06 0 0 0 1.95-.351l.052.039-1.157 4.615a.985.985 0 0 0-.039.208c0 .195.065.325.26.325.442 0 1.04-.689 1.846-1.911.611-.923.793-1.417 1.43-3.159h.962l-1.027 3.887c-.065.247-.247.858-.247 1.014 0 .143.052.221.143.221.208 0 .416-.182 1.079-1.053zm5.397.13l.156.156c-.74.91-1.573 1.404-2.652 1.404-1.053 0-1.755-.702-1.755-1.781 0-2.015 1.937-4.095 3.887-4.095.69 0 1.066.338 1.066.884 0 1.118-1.365 2.132-3.692 2.431-.13.26-.13.598-.13.793 0 .715.481 1.183 1.21 1.183.571 0 .974-.208 1.91-.975zm-2.678-1.859l-.22.572c1.117-.273 1.611-.507 2.092-.962.403-.39.65-.858.65-1.261 0-.312-.09-.507-.455-.507-.74 0-1.625 1.001-2.067 2.158zm7.66-5.538l-1.99 7.605a2.603 2.603 0 0 0-.103.559c0 .156.09.234.22.234.196 0 .495-.208.872-.741l.325-.455.182.13c-.78 1.235-1.261 1.625-1.963 1.625-.416 0-.637-.247-.637-.728 0-.104.013-.26.052-.39l1.78-6.812c.04-.13.04-.208.04-.247 0-.156-.221-.286-.637-.286h-.234v-.208a18.161 18.161 0 0 0 2.015-.351l.078.065zm8.738.325v.208c-.559.182-.975.481-1.625 1.235l-2.197 2.522 1.313 3.315c.312.78.481.897 1.365 1.001V66h-3.523v-.208c.78-.013 1.001-.169 1.001-.481 0-.169-.078-.403-.182-.663l-.87-2.145-1.964 2.236c-.182.208-.299.442-.299.624 0 .286.234.429.858.429V66h-2.769v-.208c.728-.13 1.08-.52 2.86-2.6l1.08-1.261-1.34-3.315c-.247-.624-.48-.832-1.235-.897v-.208h3.42v.208c-.716.091-.924.208-.924.533 0 .169.065.377.208.728l.767 1.911 1.885-2.171c.182-.208.273-.403.273-.559 0-.247-.234-.416-.793-.442v-.208h2.691z"/>
        </g>
        <path fill="#222" d="M140.082 60.26c.322-.944.483-2.309.483-4.096 0-1.424-.096-2.56-.29-3.41-.363-1.582-1.043-2.373-2.039-2.373-.996 0-1.678.814-2.048 2.443-.193.867-.29 2.01-.29 3.428 0 1.33.1 2.394.3 3.19.374 1.489 1.077 2.233 2.109 2.233.861 0 1.453-.472 1.775-1.415zm1.336-8.236c.592 1.143.888 2.455.888 3.938a9.848 9.848 0 0 1-.545 3.296c-.686 1.94-1.872 2.909-3.56 2.909-1.154 0-2.103-.524-2.847-1.573-.797-1.12-1.196-2.64-1.196-4.562 0-1.511.267-2.812.8-3.902.72-1.483 1.828-2.224 3.322-2.224 1.348 0 2.394.706 3.138 2.118zm4.133 9.893a.972.972 0 0 1-.29-.708.95.95 0 0 1 .294-.703.972.972 0 0 1 .708-.29c.275 0 .51.096.703.29.193.193.29.428.29.703a.98.98 0 0 1-.286.708.946.946 0 0 1-.707.294.96.96 0 0 1-.712-.294zm8.686-1.657c.322-.944.483-2.309.483-4.096 0-1.424-.097-2.56-.29-3.41-.363-1.582-1.043-2.373-2.04-2.373-.995 0-1.678.814-2.047 2.443-.193.867-.29 2.01-.29 3.428 0 1.33.1 2.394.299 3.19.375 1.489 1.078 2.233 2.11 2.233.86 0 1.452-.472 1.775-1.415zm1.336-8.236c.591 1.143.887 2.455.887 3.938a9.848 9.848 0 0 1-.545 3.296c-.685 1.94-1.872 2.909-3.56 2.909-1.154 0-2.103-.524-2.847-1.573-.797-1.12-1.195-2.64-1.195-4.562 0-1.511.266-2.812.8-3.902.72-1.483 1.828-2.224 3.322-2.224 1.347 0 2.393.706 3.138 2.118zM140.082 82.26c.322-.944.483-2.309.483-4.096 0-1.424-.096-2.56-.29-3.41-.363-1.582-1.043-2.373-2.039-2.373-.996 0-1.678.814-2.048 2.443-.193.867-.29 2.01-.29 3.428 0 1.33.1 2.394.3 3.19.374 1.489 1.077 2.233 2.109 2.233.861 0 1.453-.472 1.775-1.415zm1.336-8.236c.592 1.143.888 2.455.888 3.938a9.848 9.848 0 0 1-.545 3.296c-.686 1.94-1.872 2.909-3.56 2.909-1.154 0-2.103-.524-2.847-1.573-.797-1.12-1.196-2.64-1.196-4.562 0-1.511.267-2.812.8-3.902.72-1.483 1.828-2.224 3.322-2.224 1.348 0 2.394.706 3.138 2.118zm4.133 9.893a.972.972 0 0 1-.29-.708.95.95 0 0 1 .294-.703.972.972 0 0 1 .708-.29c.275 0 .51.096.703.29.193.193.29.428.29.703a.98.98 0 0 1-.286.708.946.946 0 0 1-.707.294.96.96 0 0 1-.712-.294zm8.686-1.657c.322-.944.483-2.309.483-4.096 0-1.424-.097-2.56-.29-3.41-.363-1.582-1.043-2.373-2.04-2.373-.995 0-1.678.814-2.047 2.443-.193.867-.29 2.01-.29 3.428 0 1.33.1 2.394.299 3.19.375 1.489 1.078 2.233 2.11 2.233.86 0 1.452-.472 1.775-1.415zm1.336-8.236c.591 1.143.887 2.455.887 3.938a9.848 9.848 0 0 1-.545 3.296c-.685 1.94-1.872 2.909-3.56 2.909-1.154 0-2.103-.524-2.847-1.573-.797-1.12-1.195-2.64-1.195-4.562 0-1.511.266-2.812.8-3.902.72-1.483 1.828-2.224 3.322-2.224 1.347 0 2.393.706 3.138 2.118zM224.082 37.26c.322-.944.483-2.309.483-4.096 0-1.424-.096-2.56-.29-3.41-.363-1.582-1.043-2.373-2.039-2.373-.996 0-1.678.814-2.048 2.443-.193.867-.29 2.01-.29 3.428 0 1.33.1 2.394.3 3.19.374 1.489 1.077 2.233 2.109 2.233.861 0 1.453-.472 1.775-1.415zm1.336-8.236c.592 1.143.888 2.455.888 3.938a9.848 9.848 0 0 1-.545 3.296c-.686 1.94-1.872 2.909-3.56 2.909-1.154 0-2.103-.524-2.847-1.573-.797-1.12-1.196-2.64-1.196-4.562 0-1.511.267-2.812.8-3.902.72-1.483 1.828-2.224 3.322-2.224 1.348 0 2.394.706 3.138 2.118zm4.133 9.893a.972.972 0 0 1-.29-.708.95.95 0 0 1 .294-.703.972.972 0 0 1 .708-.29c.275 0 .51.096.703.29.193.193.29.428.29.703a.98.98 0 0 1-.286.708.946.946 0 0 1-.707.294.96.96 0 0 1-.712-.294zm8.686-1.657c.322-.944.483-2.309.483-4.096 0-1.424-.097-2.56-.29-3.41-.363-1.582-1.043-2.373-2.04-2.373-.995 0-1.678.814-2.047 2.443-.193.867-.29 2.01-.29 3.428 0 1.33.1 2.394.299 3.19.375 1.489 1.078 2.233 2.11 2.233.86 0 1.452-.472 1.775-1.415zm1.336-8.236c.591 1.143.887 2.455.887 3.938a9.848 9.848 0 0 1-.545 3.296c-.685 1.94-1.872 2.909-3.56 2.909-1.154 0-2.103-.524-2.847-1.573-.797-1.12-1.195-2.64-1.195-4.562 0-1.511.266-2.812.8-3.902.72-1.483 1.828-2.224 3.322-2.224 1.347 0 2.393.706 3.138 2.118zM224.082 82.26c.322-.944.483-2.309.483-4.096 0-1.424-.096-2.56-.29-3.41-.363-1.582-1.043-2.373-2.039-2.373-.996 0-1.678.814-2.048 2.443-.193.867-.29 2.01-.29 3.428 0 1.33.1 2.394.3 3.19.374 1.489 1.077 2.233 2.109 2.233.861 0 1.453-.472 1.775-1.415zm1.336-8.236c.592 1.143.888 2.455.888 3.938a9.848 9.848 0 0 1-.545 3.296c-.686 1.94-1.872 2.909-3.56 2.909-1.154 0-2.103-.524-2.847-1.573-.797-1.12-1.196-2.64-1.196-4.562 0-1.511.267-2.812.8-3.902.72-1.483 1.828-2.224 3.322-2.224 1.348 0 2.394.706 3.138 2.118zm4.133 9.893a.972.972 0 0 1-.29-.708.95.95 0 0 1 .294-.703.972.972 0 0 1 .708-.29c.275 0 .51.096.703.29.193.193.29.428.29.703a.98.98 0 0 1-.286.708.946.946 0 0 1-.707.294.96.96 0 0 1-.712-.294zm8.686-1.657c.322-.944.483-2.309.483-4.096 0-1.424-.097-2.56-.29-3.41-.363-1.582-1.043-2.373-2.04-2.373-.995 0-1.678.814-2.047 2.443-.193.867-.29 2.01-.29 3.428 0 1.33.1 2.394.299 3.19.375 1.489 1.078 2.233 2.11 2.233.86 0 1.452-.472 1.775-1.415zm1.336-8.236c.591 1.143.887 2.455.887 3.938a9.848 9.848 0 0 1-.545 3.296c-.685 1.94-1.872 2.909-3.56 2.909-1.154 0-2.103-.524-2.847-1.573-.797-1.12-1.195-2.64-1.195-4.562 0-1.511.266-2.812.8-3.902.72-1.483 1.828-2.224 3.322-2.224 1.347 0 2.393.706 3.138 2.118zM336.082 15.26c.322-.944.483-2.309.483-4.096 0-1.424-.096-2.56-.29-3.41-.363-1.582-1.043-2.373-2.039-2.373-.996 0-1.678.814-2.048 2.443-.193.867-.29 2.01-.29 3.428 0 1.33.1 2.394.3 3.19.374 1.489 1.077 2.233 2.109 2.233.861 0 1.453-.472 1.775-1.415zm1.336-8.236c.592 1.143.888 2.455.888 3.938a9.848 9.848 0 0 1-.545 3.296c-.686 1.94-1.872 2.909-3.56 2.909-1.154 0-2.103-.524-2.847-1.573-.797-1.12-1.196-2.64-1.196-4.562 0-1.511.267-2.812.8-3.902.72-1.483 1.828-2.224 3.322-2.224 1.348 0 2.394.706 3.138 2.118zm4.133 9.893a.972.972 0 0 1-.29-.708.95.95 0 0 1 .294-.703.972.972 0 0 1 .708-.29c.275 0 .51.096.703.29.193.193.29.428.29.703a.98.98 0 0 1-.286.708.946.946 0 0 1-.707.294.96.96 0 0 1-.712-.294zm8.686-1.657c.322-.944.483-2.309.483-4.096 0-1.424-.097-2.56-.29-3.41-.363-1.582-1.043-2.373-2.04-2.373-.995 0-1.678.814-2.047 2.443-.193.867-.29 2.01-.29 3.428 0 1.33.1 2.394.299 3.19.375 1.489 1.078 2.233 2.11 2.233.86 0 1.452-.472 1.775-1.415zm1.336-8.236c.591 1.143.887 2.455.887 3.938a9.848 9.848 0 0 1-.545 3.296c-.685 1.94-1.872 2.909-3.56 2.909-1.154 0-2.103-.524-2.847-1.573-.797-1.12-1.195-2.64-1.195-4.562 0-1.511.266-2.812.8-3.902.72-1.483 1.828-2.224 3.322-2.224 1.347 0 2.393.706 3.138 2.118zM336.082 60.26c.322-.944.483-2.309.483-4.096 0-1.424-.096-2.56-.29-3.41-.363-1.582-1.043-2.373-2.039-2.373-.996 0-1.678.814-2.048 2.443-.193.867-.29 2.01-.29 3.428 0 1.33.1 2.394.3 3.19.374 1.489 1.077 2.233 2.109 2.233.861 0 1.453-.472 1.775-1.415zm1.336-8.236c.592 1.143.888 2.455.888 3.938a9.848 9.848 0 0 1-.545 3.296c-.686 1.94-1.872 2.909-3.56 2.909-1.154 0-2.103-.524-2.847-1.573-.797-1.12-1.196-2.64-1.196-4.562 0-1.511.267-2.812.8-3.902.72-1.483 1.828-2.224 3.322-2.224 1.348 0 2.394.706 3.138 2.118zm4.133 9.893a.972.972 0 0 1-.29-.708.95.95 0 0 1 .294-.703.972.972 0 0 1 .708-.29c.275 0 .51.096.703.29.193.193.29.428.29.703a.98.98 0 0 1-.286.708.946.946 0 0 1-.707.294.96.96 0 0 1-.712-.294zm8.686-1.657c.322-.944.483-2.309.483-4.096 0-1.424-.097-2.56-.29-3.41-.363-1.582-1.043-2.373-2.04-2.373-.995 0-1.678.814-2.047 2.443-.193.867-.29 2.01-.29 3.428 0 1.33.1 2.394.299 3.19.375 1.489 1.078 2.233 2.11 2.233.86 0 1.452-.472 1.775-1.415zm1.336-8.236c.591 1.143.887 2.455.887 3.938a9.848 9.848 0 0 1-.545 3.296c-.685 1.94-1.872 2.909-3.56 2.909-1.154 0-2.103-.524-2.847-1.573-.797-1.12-1.195-2.64-1.195-4.562 0-1.511.266-2.812.8-3.902.72-1.483 1.828-2.224 3.322-2.224 1.347 0 2.393.706 3.138 2.118zM228.074 13.283c.938-.205 1.635-.457 2.092-.756-.463-.275-1.169-.536-2.118-.782-.574-.146-.861-.398-.861-.756 0-.199.061-.354.184-.466a.622.622 0 0 1 .43-.167c.241 0 .552.222.932.664.381.442.9.854 1.556 1.235v-.229c0-.486-.078-.972-.233-1.459-.155-.486-.233-.829-.233-1.028 0-.228.063-.403.19-.523a.633.633 0 0 1 .452-.18c.205 0 .362.067.47.202a.787.787 0 0 1 .163.51c0 .135-.082.452-.246.953-.165.501-.24 1.1-.229 1.798.48-.352.773-.57.879-.655.105-.085.231-.21.378-.373.422-.47.684-.743.787-.822.102-.08.244-.119.426-.119.176 0 .324.065.444.193.12.13.18.285.18.466 0 .37-.264.61-.791.721-.88.187-1.6.466-2.162.835l.15.088c.462.275 1.142.504 2.038.685.516.106.774.36.774.765 0 .217-.077.376-.229.479a.802.802 0 0 1-.448.154c-.246 0-.58-.254-1.002-.76-.422-.507-.856-.872-1.3-1.095l-.124-.061v.123c0 .691.084 1.267.25 1.727.168.46.251.743.251.848a.755.755 0 0 1-.198.514.654.654 0 0 1-.514.224.551.551 0 0 1-.457-.21.796.796 0 0 1-.167-.51c0-.053.1-.42.299-1.103.2-.683.267-1.18.202-1.49l-.026-.123c-.498.275-.964.659-1.398 1.151-.433.492-.785.738-1.054.738-.211 0-.368-.061-.47-.184a.607.607 0 0 1-.154-.396c0-.422.295-.697.887-.826z"/>
        <g fill="#222">
            <path d="M301.846 31.296l-.36 1.314h-3.114c.396 1.134 1.512 1.224 1.512 2.574 0 2.016-1.998 4.014-4.608 4.014-1.854 0-2.556-1.584-2.556-2.88 0-3.06 2.34-5.022 4.68-5.022h4.446zm-4.698 1.314h-.036c-1.206.108-2.934 1.656-2.934 4.212 0 .576.198 1.836 1.17 1.836 1.782 0 3.096-2.268 3.096-3.726a2.746 2.746 0 0 0-1.296-2.322zM305.795 36.436l-.377 1.3c.702-1.053 1.443-1.469 2.223-1.469.962 0 1.495.611 1.495 1.625 0 2.145-1.963 4.251-3.861 4.251-.299 0-.572-.052-.897-.221-.221.91-.52 1.976-.52 2.158 0 .286.195.377.806.377v.208h-2.639v-.208c.559-.013.728-.208.884-.819l1.495-5.616c.143-.52.208-.858.208-.923 0-.312-.364-.351-.572-.351h-.286l-.026-.195 2.028-.286c.039 0 .065.026.065.052 0 0-.013.065-.026.117zm2.171 1.495c0-.741-.221-1.105-.806-1.105-.689 0-1.456.702-1.755 1.482-.377.975-.845 2.652-.845 3.094 0 .286.26.494.624.494.689 0 1.313-.429 1.885-1.235.624-.871.897-1.82.897-2.73zm7.906.156c0 .988-.52 2.132-1.378 2.977-.754.754-1.586 1.079-2.444 1.079-1.222 0-1.91-.676-1.91-1.807 0-1.456.974-2.951 2.34-3.679a3.228 3.228 0 0 1 1.56-.39c1.052 0 1.832.676 1.832 1.82zm-1.092-.325c0-.793-.364-1.222-.923-1.222-.572 0-1.144.403-1.664 1.183-.598.91-.962 1.937-.962 2.964 0 .78.403 1.183 1.014 1.183.572 0 1.066-.377 1.573-1.079.598-.819.962-2.041.962-3.029zm6.503-1.508l-.26 1.82h-.208c-.13-1.079-.52-1.508-1.157-1.508-.455 0-.767.26-.767.741 0 .351.195.728.702 1.326.65.754.884 1.261.884 1.768 0 1.079-.793 1.742-1.872 1.742-.221 0-.416-.013-.715-.13a1.383 1.383 0 0 0-.572-.117c-.143 0-.286.065-.377.273h-.208l.26-2.067h.208c.182 1.235.624 1.768 1.3 1.768.61 0 .988-.364.988-1.001 0-.416-.221-.858-.728-1.495-.56-.702-.82-1.287-.82-1.703 0-.858.612-1.404 1.574-1.404.22 0 .403.039.728.13.247.078.364.091.468.091.195 0 .286-.052.39-.234h.182zm8.764-2.743v.208c-.377.13-.48.26-.91.793l-2.847 3.51-.468 1.599c-.299 1.027-.39 1.378-.39 1.651 0 .325.182.442.69.481l.467.039V42h-3.757v-.208c.858-.052 1.157-.221 1.391-1.053l.767-2.665-.988-3.471c-.195-.676-.273-.78-1-.884v-.208h3.106v.208c-.78.078-.936.182-.936.468 0 .195.156.767.468 1.872l.403 1.43.507-.598c1.365-1.612 1.937-2.418 1.937-2.769 0-.221-.143-.325-.52-.364l-.377-.039v-.208h2.457z"/>
        </g>
        <g fill="#222">
            <path d="M361.846 31.296l-.36 1.314h-3.114c.396 1.134 1.512 1.224 1.512 2.574 0 2.016-1.998 4.014-4.608 4.014-1.854 0-2.556-1.584-2.556-2.88 0-3.06 2.34-5.022 4.68-5.022h4.446zm-4.698 1.314h-.036c-1.206.108-2.934 1.656-2.934 4.212 0 .576.198 1.836 1.17 1.836 1.782 0 3.096-2.268 3.096-3.726a2.746 2.746 0 0 0-1.296-2.322zM367.993 40.453l.182.117c-.845 1.287-1.183 1.547-1.794 1.547-.39 0-.624-.221-.624-.624 0-.286.169-1.157.585-2.561-1.534 2.522-2.184 3.211-3.107 3.211-.455 0-.689-.208-.689-.689 0-.247.117-.715.351-1.664l.455-1.807c.104-.429.182-.767.182-.871a.285.285 0 0 0-.143-.234c-.117-.065-.156-.078-.65-.078v-.182a17.06 17.06 0 0 0 1.95-.351l.052.039-1.157 4.615a.985.985 0 0 0-.039.208c0 .195.065.325.26.325.442 0 1.04-.689 1.846-1.911.611-.923.793-1.417 1.43-3.159h.962l-1.027 3.887c-.065.247-.247.858-.247 1.014 0 .143.052.221.143.221.208 0 .416-.182 1.079-1.053zm5.397.13l.156.156c-.74.91-1.573 1.404-2.652 1.404-1.053 0-1.755-.702-1.755-1.781 0-2.015 1.937-4.095 3.887-4.095.69 0 1.066.338 1.066.884 0 1.118-1.365 2.132-3.692 2.431-.13.26-.13.598-.13.793 0 .715.481 1.183 1.21 1.183.571 0 .974-.208 1.91-.975zm-2.678-1.859l-.22.572c1.117-.273 1.611-.507 2.092-.962.403-.39.65-.858.65-1.261 0-.312-.09-.507-.455-.507-.74 0-1.625 1.001-2.067 2.158zm7.66-5.538l-1.99 7.605a2.603 2.603 0 0 0-.103.559c0 .156.09.234.22.234.196 0 .495-.208.872-.741l.325-.455.182.13c-.78 1.235-1.261 1.625-1.963 1.625-.416 0-.637-.247-.637-.728 0-.104.013-.26.052-.39l1.78-6.812c.04-.13.04-.208.04-.247 0-.156-.221-.286-.637-.286h-.234v-.208a18.161 18.161 0 0 0 2.015-.351l.078.065zm8.452.325v.208c-.377.13-.48.26-.91.793l-2.847 3.51-.468 1.599c-.299 1.027-.39 1.378-.39 1.651 0 .325.182.442.69.481l.467.039V42h-3.757v-.208c.858-.052 1.157-.221 1.391-1.053l.767-2.665-.988-3.471c-.195-.676-.273-.78-1-.884v-.208h3.106v.208c-.78.078-.936.182-.936.468 0 .195.156.767.468 1.872l.403 1.43.507-.598c1.365-1.612 1.937-2.418 1.937-2.769 0-.221-.143-.325-.52-.364l-.377-.039v-.208h2.457z"/>
        </g>
        <g fill="#222">
            <path d="M331.846 76.296l-.36 1.314h-3.114c.396 1.134 1.512 1.224 1.512 2.574 0 2.016-1.998 4.014-4.608 4.014-1.854 0-2.556-1.584-2.556-2.88 0-3.06 2.34-5.022 4.68-5.022h4.446zm-4.698 1.314h-.036c-1.206.108-2.934 1.656-2.934 4.212 0 .576.198 1.836 1.17 1.836 1.782 0 3.096-2.268 3.096-3.726a2.746 2.746 0 0 0-1.296-2.322zM339.162 75.219L338.46 77h-5.083v-.156l2.314-2.457c1.222-1.287 1.69-2.275 1.69-3.38 0-1.183-.702-1.833-1.807-1.833-.936 0-1.391.416-1.911 1.69l-.273-.065c.273-1.521 1.105-2.587 2.704-2.587 1.469 0 2.405 1.001 2.405 2.288 0 1.027-.507 2.002-1.664 3.224l-2.145 2.288h3.042c.546 0 .819-.143 1.248-.871l.182.078zM337.993 85.453l.182.117c-.845 1.287-1.183 1.547-1.794 1.547-.39 0-.624-.221-.624-.624 0-.286.169-1.157.585-2.561-1.534 2.522-2.184 3.211-3.107 3.211-.455 0-.689-.208-.689-.689 0-.247.117-.715.351-1.664l.455-1.807c.104-.429.182-.767.182-.871a.285.285 0 0 0-.143-.234c-.117-.065-.156-.078-.65-.078v-.182a17.06 17.06 0 0 0 1.95-.351l.052.039-1.157 4.615a.985.985 0 0 0-.039.208c0 .195.065.325.26.325.442 0 1.04-.689 1.846-1.911.611-.923.793-1.417 1.43-3.159h.962l-1.027 3.887c-.065.247-.247.858-.247 1.014 0 .143.052.221.143.221.208 0 .416-.182 1.079-1.053zm5.397.13l.156.156c-.74.91-1.573 1.404-2.652 1.404-1.053 0-1.755-.702-1.755-1.781 0-2.015 1.937-4.095 3.887-4.095.69 0 1.066.338 1.066.884 0 1.118-1.365 2.132-3.692 2.431-.13.26-.13.598-.13.793 0 .715.481 1.183 1.21 1.183.571 0 .974-.208 1.91-.975zm-2.678-1.859l-.22.572c1.117-.273 1.611-.507 2.092-.962.403-.39.65-.858.65-1.261 0-.312-.09-.507-.455-.507-.74 0-1.625 1.001-2.067 2.158zm7.66-5.538l-1.99 7.605a2.603 2.603 0 0 0-.103.559c0 .156.09.234.22.234.196 0 .495-.208.872-.741l.325-.455.182.13c-.78 1.235-1.261 1.625-1.963 1.625-.416 0-.637-.247-.637-.728 0-.104.013-.26.052-.39l1.78-6.812c.04-.13.04-.208.04-.247 0-.156-.221-.286-.637-.286h-.234v-.208a18.161 18.161 0 0 0 2.015-.351l.078.065zm8.452.325v.208c-.377.13-.48.26-.91.793l-2.847 3.51-.468 1.599c-.299 1.027-.39 1.378-.39 1.651 0 .325.182.442.69.481l.467.039V87h-3.757v-.208c.858-.052 1.157-.221 1.391-1.053l.767-2.665-.988-3.471c-.195-.676-.273-.78-1-.884v-.208h3.106v.208c-.78.078-.936.182-.936.468 0 .195.156.767.468 1.872l.403 1.43.507-.598c1.365-1.612 1.937-2.418 1.937-2.769 0-.221-.143-.325-.52-.364l-.377-.039v-.208h2.457z"/>
        </g>
        <path fill="#222" d="M339.074 35.283c.938-.205 1.635-.457 2.092-.756-.463-.275-1.169-.536-2.118-.782-.574-.146-.861-.398-.861-.756 0-.199.061-.354.184-.466a.622.622 0 0 1 .43-.167c.241 0 .552.222.932.664.381.442.9.854 1.556 1.235v-.229c0-.486-.078-.972-.233-1.459-.155-.486-.233-.829-.233-1.028 0-.228.063-.403.19-.523a.633.633 0 0 1 .452-.18c.205 0 .362.067.47.202a.787.787 0 0 1 .163.51c0 .135-.082.452-.246.953-.165.501-.24 1.1-.229 1.798.48-.352.773-.57.879-.655.105-.085.231-.21.378-.373.422-.47.684-.743.787-.822.102-.08.244-.119.426-.119.176 0 .324.065.444.193.12.13.18.285.18.466 0 .37-.264.61-.791.721-.88.187-1.6.466-2.162.835l.15.088c.462.275 1.142.504 2.038.685.516.106.774.36.774.765 0 .217-.077.376-.229.479a.802.802 0 0 1-.448.154c-.246 0-.58-.254-1.002-.76-.422-.507-.856-.872-1.3-1.095l-.124-.061v.123c0 .691.084 1.267.25 1.727.168.46.251.743.251.848a.755.755 0 0 1-.198.514.654.654 0 0 1-.514.224.551.551 0 0 1-.457-.21.796.796 0 0 1-.167-.51c0-.053.1-.42.299-1.103.2-.683.267-1.18.202-1.49l-.026-.123c-.498.275-.964.659-1.398 1.151-.433.492-.785.738-1.054.738-.211 0-.368-.061-.47-.184a.607.607 0 0 1-.154-.396c0-.422.295-.697.887-.826z"/>
        <path fill="#0155FC" fill-rule="nonzero" d="M58 88.511a.5.5 0 1 1 0 1h-5a.5.5 0 0 1-.5-.5V3a.5.5 0 0 1 .5-.5h5a.5.5 0 1 1 0 1h-4.5v85.011H58zM398 88.511a.5.5 0 0 0 0 1h5a.5.5 0 0 0 .5-.5V3a.5.5 0 0 0-.5-.5h-5a.5.5 0 0 0 0 1h4.5v85.011H398z"/>
    </g>
</svg>
